<svg width="1650" height="346"
  xmlns="http://www.w3.org/2000/svg"
  xmlns:xlink="http://www.w3.org/1999/xlink" xml:space="preserve" overflow="hidden">
  <defs>
    <clipPath id="clip0">
      <rect x="1682" y="1273" width="1650" height="346"/>
    </clipPath>
  </defs>
  <g clip-path="url(#clip0)" transform="translate(-1682 -1273)">
    <path d="M3028.25 1368.95C3010.67 1369.86 2996.31 1374.99 2985.17 1384.32 2974.03 1393.66 2968.28 1406.24 2967.92 1422.06 2968.08 1432.82 2970.72 1441.29 2975.84 1447.45 2980.96 1453.62 2987.62 1456.76 2995.82 1456.88 3004.89 1456.58 3012.58 1453.11 3018.89 1446.48 3025.19 1439.85 3028.48 1431.88 3028.75 1422.56L3028.75 1381.72C3028.71 1377.21 3028.54 1372.96 3028.25 1368.95ZM2358.72 1368.95C2341.14 1369.86 2326.78 1374.99 2315.64 1384.32 2304.5 1393.66 2298.75 1406.24 2298.39 1422.06 2298.55 1432.82 2301.19 1441.29 2306.31 1447.45 2311.43 1453.62 2318.09 1456.76 2326.29 1456.88 2335.36 1456.58 2343.05 1453.11 2349.36 1446.48 2355.66 1439.85 2358.95 1431.88 2359.22 1422.56L2359.22 1381.72C2359.18 1377.21 2359.01 1372.96 2358.72 1368.95ZM1744.84 1330.62 1730.26 1400.26 1799.89 1400.26 1814.72 1330.62ZM3195 1325.86 3200.79 1325.86C3210.26 1325.97 3218.96 1328.5 3226.87 1333.47 3234.77 1338.43 3240.83 1345.16 3245.03 1353.67L3276.2 1418.8 3311.14 1346.9C3312.77 1343.67 3313.53 1340.17 3313.43 1336.41 3313.33 1332.65 3312.4 1329.21 3310.63 1326.11L3310.63 1325.86 3332 1325.86 3328.73 1328.61C3325.89 1330.96 3323.15 1333.79 3320.5 1337.1 3317.85 1340.41 3315.73 1343.68 3314.15 1346.9L3264.13 1449.61C3256.31 1465.93 3250.08 1478.72 3245.44 1487.98 3240.79 1497.24 3236.39 1503.75 3232.22 1507.53 3228.05 1511.3 3222.77 1513.12 3216.37 1512.99 3209.6 1512.98 3203.15 1511.38 3197.02 1508.2 3190.88 1505.02 3184.93 1500.36 3179.17 1494.2L3192.74 1480.68C3193.97 1484.51 3195.65 1488.7 3197.78 1493.24 3199.91 1497.78 3202.67 1501.71 3206.06 1505.02 3209.44 1508.34 3213.64 1510.08 3218.63 1510.24 3223.19 1510.31 3227.37 1508.38 3231.15 1504.46 3234.94 1500.53 3239.14 1494.17 3243.73 1485.37 3248.33 1476.57 3254.12 1464.91 3261.11 1450.36L3212.85 1347.15C3211.17 1343.81 3209.07 1340.47 3206.54 1337.13 3204.01 1333.79 3201.34 1330.95 3198.52 1328.61ZM2620.94 1325.86C2612.38 1326.19 2605.62 1329.95 2600.67 1337.12 2595.71 1344.3 2592.13 1352.88 2589.94 1362.86 2587.75 1372.85 2586.52 1382.22 2586.25 1390.99L2651.86 1390.99C2651.63 1370.3 2648.95 1354.31 2643.85 1343.02 2638.74 1331.72 2631.11 1326 2620.94 1325.86ZM2053.27 1325.86 2056.79 1325.86C2066.1 1325.98 2073.55 1328.8 2079.13 1334.31 2084.7 1339.82 2087.56 1347.28 2087.7 1356.67L2087.7 1434.58C2087.72 1438.44 2088.37 1442.37 2089.65 1446.39 2090.93 1450.4 2092.71 1453.9 2094.99 1456.88L2095.5 1457.63 2092.23 1457.63C2082.8 1457.5 2075.32 1454.69 2069.79 1449.17 2064.26 1443.66 2061.44 1436.21 2061.31 1426.82L2061.31 1348.66C2061.28 1344.81 2060.59 1340.91 2059.24 1336.94 2057.89 1332.98 2056.06 1329.45 2053.77 1326.36ZM3147.84 1323.1C3153.25 1323.22 3158.55 1324.52 3163.74 1326.99 3168.93 1329.46 3173.25 1332.91 3176.68 1337.34 3180.11 1341.76 3181.9 1346.95 3182.02 1352.91 3181.96 1357.97 3180.65 1361.89 3178.1 1364.69 3175.55 1367.49 3172.16 1368.91 3167.95 1368.95 3163.67 1368.94 3160.04 1367.52 3157.05 1364.69 3154.06 1361.86 3152.49 1357.68 3152.36 1352.16 3155.98 1345.68 3156.73 1339.67 3154.63 1334.16 3152.52 1328.64 3148.5 1325.71 3142.56 1325.36 3135.82 1325.67 3130.01 1329.68 3125.12 1337.38 3120.24 1345.09 3117.5 1354.6 3116.92 1365.94L3116.92 1434.58C3116.94 1438.44 3117.59 1442.37 3118.87 1446.39 3120.15 1450.4 3121.93 1453.9 3124.21 1456.88L3124.71 1457.63 3115.41 1457.63C3107.89 1457.52 3101.89 1455.23 3097.41 1450.77 3092.93 1446.31 3090.64 1440.33 3090.53 1432.83L3090.53 1348.66C3090.5 1344.81 3089.8 1340.91 3088.45 1336.94 3087.1 1332.98 3085.28 1329.45 3082.99 1326.36L3082.48 1325.86 3092.04 1325.86C3099.54 1325.95 3105.51 1328.14 3109.95 1332.43 3114.38 1336.72 3116.7 1342.55 3116.92 1349.91 3119.17 1342.43 3122.84 1336.15 3127.95 1331.06 3133.06 1325.96 3139.69 1323.31 3147.84 1323.1ZM3000.85 1323.1C3018.08 1323.22 3031.45 1328.25 3040.95 1338.2 3050.44 1348.14 3055.26 1362.32 3055.4 1380.72L3055.4 1434.58C3055.42 1438.54 3056.07 1442.52 3057.35 1446.51 3058.62 1450.51 3060.41 1454.04 3062.69 1457.13L3063.19 1457.63 3059.67 1457.63C3051.04 1457.54 3044.05 1455.16 3038.68 1450.49 3033.32 1445.82 3030.09 1439.44 3029 1431.33 3027.04 1440.21 3022.43 1447.24 3015.18 1452.43 3007.93 1457.62 2998.55 1460.27 2987.03 1460.39 2973.69 1460.25 2962.84 1456.76 2954.47 1449.89 2946.11 1443.03 2941.79 1433.59 2941.53 1421.56 2941.67 1410.65 2945.46 1401.25 2952.9 1393.35 2960.33 1385.45 2970.54 1379.31 2983.54 1374.94 2996.53 1370.57 3011.43 1368.24 3028.25 1367.95 3027.12 1354.3 3024.23 1343.7 3019.58 1336.13 3014.93 1328.56 3008.52 1324.72 3000.35 1324.61 2992.05 1324.99 2985.96 1328.05 2982.09 1333.78 2978.22 1339.52 2978.11 1345.64 2981.75 1352.16 2981.62 1357.68 2980.06 1361.86 2977.07 1364.69 2974.08 1367.52 2970.44 1368.94 2966.16 1368.95 2961.95 1368.89 2958.56 1367.5 2956.01 1364.75 2953.46 1362.01 2952.15 1358.23 2952.09 1353.42 2952.21 1347.28 2954.53 1341.95 2959.03 1337.43 2963.53 1332.9 2969.46 1329.39 2976.81 1326.9 2984.17 1324.4 2992.18 1323.14 3000.85 1323.1ZM2868.98 1323.1C2877.32 1323.14 2885.07 1324.4 2892.24 1326.9 2899.41 1329.39 2905.21 1332.9 2909.64 1337.43 2914.07 1341.95 2916.35 1347.28 2916.48 1353.42 2916.4 1358.23 2915.06 1362.01 2912.46 1364.75 2909.86 1367.5 2906.51 1368.89 2902.41 1368.95 2898.13 1368.94 2894.49 1367.52 2891.5 1364.69 2888.51 1361.86 2886.95 1357.68 2886.82 1352.16 2890.22 1345.64 2890.02 1339.52 2886.23 1333.78 2882.43 1328.05 2876.51 1324.99 2868.47 1324.61 2862.29 1324.75 2857.18 1326.78 2853.14 1330.71 2849.1 1334.64 2847 1339.62 2846.85 1345.65 2847.22 1353.49 2850.86 1360.07 2857.77 1365.41 2864.69 1370.74 2872.7 1375.89 2881.79 1380.85 2890.89 1385.8 2898.9 1391.64 2905.82 1398.35 2912.73 1405.06 2916.37 1413.72 2916.74 1424.31 2916.52 1435.8 2912.24 1444.7 2903.88 1450.99 2895.53 1457.28 2884.4 1460.42 2870.48 1460.39 2862.22 1460.35 2854.5 1459.08 2847.33 1456.58 2840.16 1454.08 2834.34 1450.55 2829.87 1445.98 2825.41 1441.42 2823.11 1436.04 2822.97 1429.82 2823.04 1425.12 2824.35 1421.37 2826.9 1418.58 2829.45 1415.79 2832.84 1414.36 2837.05 1414.29 2841.21 1414.31 2844.83 1415.77 2847.89 1418.67 2850.96 1421.58 2852.62 1425.79 2852.89 1431.33 2849.24 1437.84 2849.31 1443.97 2853.11 1449.71 2856.9 1455.44 2862.95 1458.5 2871.24 1458.88 2878.05 1458.71 2883.65 1456.42 2888.05 1452.02 2892.44 1447.62 2894.71 1442.14 2894.87 1435.58 2894.5 1427.49 2890.88 1420.69 2883.99 1415.2 2877.1 1409.7 2869.12 1404.47 2860.05 1399.51 2850.99 1394.55 2843.01 1388.82 2836.12 1382.32 2829.23 1375.82 2825.6 1367.52 2825.24 1357.42 2825.41 1347.12 2829.4 1338.86 2837.21 1332.65 2845.02 1326.45 2855.61 1323.26 2868.98 1323.1ZM2767.26 1323.1C2772.67 1323.22 2777.97 1324.52 2783.16 1326.99 2788.36 1329.46 2792.67 1332.91 2796.1 1337.34 2799.54 1341.76 2801.32 1346.95 2801.45 1352.91 2801.38 1357.97 2800.07 1361.89 2797.52 1364.69 2794.97 1367.49 2791.59 1368.91 2787.37 1368.95 2783.09 1368.94 2779.46 1367.52 2776.47 1364.69 2773.48 1361.86 2771.92 1357.68 2771.79 1352.16 2775.4 1345.68 2776.15 1339.67 2774.05 1334.16 2771.94 1328.64 2767.92 1325.71 2761.98 1325.36 2755.24 1325.67 2749.43 1329.68 2744.55 1337.38 2739.66 1345.09 2736.93 1354.6 2736.34 1365.94L2736.34 1434.58C2736.37 1438.44 2737.01 1442.37 2738.29 1446.39 2739.57 1450.4 2741.35 1453.9 2743.63 1456.88L2744.14 1457.63 2734.84 1457.63C2727.31 1457.52 2721.31 1455.23 2716.83 1450.77 2712.35 1446.31 2710.06 1440.33 2709.95 1432.83L2709.95 1348.66C2709.92 1344.81 2709.23 1340.91 2707.88 1336.94 2706.53 1332.98 2704.7 1329.45 2702.41 1326.36L2701.91 1325.86 2711.46 1325.86C2718.97 1325.95 2724.94 1328.14 2729.37 1332.43 2733.8 1336.72 2736.12 1342.55 2736.34 1349.91 2738.59 1342.43 2742.27 1336.15 2747.37 1331.06 2752.48 1325.96 2759.11 1323.31 2767.26 1323.1ZM2621.95 1323.1C2639.26 1323.57 2652.96 1329.78 2663.05 1341.73 2673.13 1353.69 2678.29 1370.11 2678.51 1390.99L2678.51 1393.5 2586.25 1393.5C2587.78 1407.46 2592.33 1418.93 2599.92 1427.91 2607.51 1436.89 2618.04 1441.54 2631.5 1441.85 2638.36 1441.96 2645.01 1440.48 2651.45 1437.43 2657.9 1434.38 2662.98 1429.09 2666.69 1421.56L2668.2 1422.81C2664.61 1435.44 2658.22 1444.87 2649.03 1451.08 2639.85 1457.3 2629.81 1460.4 2618.93 1460.39 2607.99 1460.29 2598.04 1457.34 2589.08 1451.52 2580.11 1445.71 2572.95 1437.62 2567.6 1427.24 2562.24 1416.87 2559.49 1404.78 2559.36 1390.99 2559.42 1378.17 2561.98 1366.66 2567.04 1356.47 2572.1 1346.28 2579.29 1338.2 2588.63 1332.24 2597.96 1326.28 2609.07 1323.24 2621.95 1323.1ZM2331.32 1323.1C2348.55 1323.22 2361.91 1328.25 2371.41 1338.2 2380.91 1348.14 2385.73 1362.32 2385.87 1380.72L2385.87 1434.58C2385.89 1438.54 2386.54 1442.52 2387.81 1446.51 2389.09 1450.51 2390.87 1454.04 2393.16 1457.13L2393.66 1457.63 2390.14 1457.63C2381.51 1457.54 2374.51 1455.16 2369.15 1450.49 2363.79 1445.82 2360.56 1439.44 2359.47 1431.33 2357.5 1440.21 2352.9 1447.24 2345.65 1452.43 2338.4 1457.62 2329.02 1460.27 2317.49 1460.39 2304.16 1460.25 2293.31 1456.76 2284.94 1449.89 2276.57 1443.03 2272.26 1433.59 2272 1421.56 2272.14 1410.65 2275.93 1401.25 2283.36 1393.35 2290.8 1385.45 2301.01 1379.31 2314 1374.94 2327 1370.57 2341.9 1368.24 2358.72 1367.95 2357.59 1354.3 2354.7 1343.7 2350.05 1336.13 2345.4 1328.56 2338.99 1324.72 2330.82 1324.61 2322.52 1324.99 2316.43 1328.05 2312.56 1333.78 2308.69 1339.52 2308.58 1345.64 2312.22 1352.16 2312.08 1357.68 2310.52 1361.86 2307.53 1364.69 2304.54 1367.52 2300.91 1368.94 2296.63 1368.95 2292.42 1368.89 2289.03 1367.5 2286.48 1364.75 2283.93 1362.01 2282.62 1358.23 2282.55 1353.42 2282.68 1347.28 2285 1341.95 2289.5 1337.43 2294 1332.9 2299.93 1329.39 2307.28 1326.9 2314.63 1324.4 2322.65 1323.14 2331.32 1323.1ZM2198.89 1323.1C2213.5 1323.34 2224.13 1327.94 2230.79 1336.88 2237.44 1345.83 2240.72 1357.68 2240.62 1372.45L2240.62 1434.58C2240.64 1438.44 2241.29 1442.37 2242.57 1446.39 2243.85 1450.4 2245.63 1453.9 2247.91 1456.88L2248.41 1457.63 2244.89 1457.63C2235.58 1457.5 2228.13 1454.69 2222.55 1449.17 2216.98 1443.66 2214.12 1436.21 2213.98 1426.82L2213.98 1369.95C2213.93 1358.35 2211.32 1349.42 2206.15 1343.14 2200.98 1336.87 2193.54 1333.7 2183.81 1333.62 2174.36 1333.73 2166.68 1336.65 2160.78 1342.39 2154.88 1348.13 2151.66 1356.07 2151.13 1366.19L2151.13 1434.58C2151.15 1438.44 2151.8 1442.37 2153.08 1446.39 2154.36 1450.4 2156.14 1453.9 2158.42 1456.88L2158.93 1457.63 2155.66 1457.63C2146.23 1457.5 2138.75 1454.69 2133.22 1449.17 2127.69 1443.66 2124.87 1436.21 2124.74 1426.82L2124.74 1348.66C2124.71 1344.81 2124.02 1340.91 2122.67 1336.94 2121.31 1332.98 2119.49 1329.45 2117.2 1326.36L2116.7 1325.86 2120.22 1325.86C2129 1325.96 2136.12 1328.45 2141.58 1333.31 2147.04 1338.18 2150.14 1344.79 2150.88 1353.16 2154.47 1343.8 2160.55 1336.47 2169.14 1331.18 2177.72 1325.89 2187.64 1323.2 2198.89 1323.1ZM2405.75 1273 2452.5 1273 2452.25 1273.5C2450.46 1276.71 2449.33 1280.19 2448.89 1283.96 2448.44 1287.73 2448.89 1291.34 2450.24 1294.79L2498.75 1423.81 2548.78 1294.79C2550.03 1291.34 2550.48 1287.73 2550.13 1283.96 2549.78 1280.19 2548.66 1276.71 2546.77 1273.5L2546.51 1273 2566.62 1273 2563.36 1275.76C2560.65 1278.21 2558.14 1281.13 2555.81 1284.52 2553.49 1287.92 2551.73 1291.34 2550.54 1294.79L2487.44 1457.63 2483.17 1457.63 2421.84 1294.79C2420.54 1291.34 2418.74 1287.92 2416.43 1284.52 2414.13 1281.13 2411.57 1278.21 2408.76 1275.76ZM2058.8 1273 2074.88 1273C2079.47 1273.08 2083.12 1274.48 2085.82 1277.2 2088.52 1279.91 2089.9 1283.44 2089.97 1287.78L2089.97 1304.06 2073.88 1304.06C2069.29 1304 2065.65 1302.62 2062.94 1299.93 2060.24 1297.24 2058.86 1293.6 2058.8 1289.03ZM1890.08 1273 1893.6 1273C1902.91 1273.14 1910.36 1275.99 1915.94 1281.55 1921.51 1287.11 1924.37 1294.53 1924.51 1303.81L1924.51 1364.44 1995.4 1364.44 1995.4 1295.8C1995.37 1291.97 1994.68 1288.1 1993.33 1284.18 1991.98 1280.26 1990.15 1276.7 1987.86 1273.5L1987.36 1273 1990.88 1273C2000.3 1273.14 2007.78 1275.99 2013.31 1281.55 2018.84 1287.11 2021.67 1294.53 2021.79 1303.81L2021.79 1434.58C2021.83 1438.44 2022.52 1442.37 2023.87 1446.39 2025.22 1450.4 2027.04 1453.9 2029.33 1456.88L2029.84 1457.63 2026.32 1457.63C2016.89 1457.5 2009.41 1454.69 2003.88 1449.17 1998.35 1443.66 1995.53 1436.21 1995.4 1426.82L1995.4 1365.94 1924.51 1365.94 1924.51 1434.58C1924.54 1438.44 1925.18 1442.37 1926.46 1446.39 1927.74 1450.4 1929.52 1453.9 1931.8 1456.88L1932.31 1457.63 1929.04 1457.63C1919.61 1457.5 1912.13 1454.69 1906.6 1449.17 1901.07 1443.66 1898.25 1436.21 1898.12 1426.82L1898.12 1295.8C1898.09 1291.97 1897.4 1288.1 1896.05 1284.18 1894.7 1280.26 1892.87 1276.7 1890.58 1273.5ZM1752.13 1273 1757.41 1273 1746.35 1325.36 1815.98 1325.36 1827.04 1273 1832.32 1273 1821.26 1325.36 1862.99 1325.36 1861.98 1330.62 1820 1330.62 1805.17 1400.26 1847.15 1400.26 1846.14 1405.52 1803.91 1405.52 1792.85 1457.63 1787.57 1457.63 1798.64 1405.52 1729.01 1405.52 1717.95 1457.63 1712.67 1457.63 1723.73 1405.52 1682 1405.52 1683.01 1400.26 1724.73 1400.26 1739.56 1330.62 1697.84 1330.62 1698.84 1325.36 1741.07 1325.36Z" fill="#FFFFFF" fill-rule="evenodd"/>
    <path d="M2705.63 1586.81C2701.69 1587.02 2698.47 1588.16 2695.97 1590.25 2693.47 1592.33 2692.18 1595.14 2692.1 1598.68 2692.13 1601.09 2692.73 1602.98 2693.88 1604.35 2695.02 1605.73 2696.52 1606.43 2698.36 1606.46 2700.39 1606.39 2702.12 1605.62 2703.53 1604.14 2704.95 1602.66 2705.68 1600.87 2705.75 1598.79L2705.75 1589.67C2705.74 1588.66 2705.7 1587.71 2705.63 1586.81ZM2670.48 1577.18C2668.56 1577.26 2667.05 1578.1 2665.94 1579.7 2664.82 1581.3 2664.02 1583.22 2663.53 1585.45 2663.04 1587.68 2662.76 1589.78 2662.7 1591.74L2677.42 1591.74C2677.37 1587.12 2676.77 1583.54 2675.62 1581.02 2674.48 1578.5 2672.76 1577.22 2670.48 1577.18ZM2625.19 1577.18 2626.48 1577.18C2628.61 1577.21 2630.56 1577.78 2632.33 1578.89 2634.11 1579.99 2635.47 1581.5 2636.41 1583.4L2643.4 1597.95 2651.24 1581.89C2651.6 1581.16 2651.78 1580.38 2651.75 1579.54 2651.73 1578.7 2651.52 1577.93 2651.13 1577.24L2651.13 1577.18 2655.92 1577.18 2655.19 1577.8C2654.55 1578.32 2653.93 1578.96 2653.34 1579.7 2652.74 1580.44 2652.27 1581.17 2651.92 1581.89L2640.69 1604.84C2638.94 1608.48 2637.54 1611.34 2636.5 1613.41 2635.46 1615.48 2634.47 1616.93 2633.53 1617.78 2632.6 1618.62 2631.41 1619.03 2629.98 1619 2628.46 1619 2627.01 1618.64 2625.64 1617.93 2624.26 1617.22 2622.93 1616.18 2621.63 1614.8L2624.68 1611.78C2624.95 1612.63 2625.33 1613.57 2625.81 1614.59 2626.29 1615.6 2626.91 1616.48 2627.67 1617.22 2628.43 1617.96 2629.37 1618.35 2630.49 1618.38 2631.51 1618.4 2632.45 1617.97 2633.3 1617.09 2634.15 1616.21 2635.09 1614.79 2636.12 1612.83 2637.15 1610.86 2638.45 1608.25 2640.02 1605L2629.19 1581.94C2628.81 1581.2 2628.34 1580.45 2627.77 1579.7 2627.21 1578.96 2626.61 1578.32 2625.98 1577.8ZM2599.26 1577.18C2597.34 1577.26 2595.82 1578.1 2594.71 1579.7 2593.6 1581.3 2592.79 1583.22 2592.3 1585.45 2591.81 1587.68 2591.53 1589.78 2591.47 1591.74L2606.19 1591.74C2606.14 1587.12 2605.54 1583.54 2604.4 1581.02 2603.25 1578.5 2601.54 1577.22 2599.26 1577.18ZM2481.29 1577.18 2482.07 1577.18C2484.16 1577.21 2485.83 1577.84 2487.09 1579.07 2488.34 1580.31 2488.98 1581.97 2489.01 1584.07L2489.01 1596.78C2489.02 1599.37 2489.61 1601.36 2490.77 1602.77 2491.93 1604.17 2493.6 1604.88 2495.78 1604.89 2497.92 1604.87 2499.65 1604.23 2500.96 1602.96 2502.28 1601.7 2502.99 1599.93 2503.11 1597.67L2503.11 1582.28C2503.1 1581.44 2502.96 1580.58 2502.67 1579.69 2502.38 1578.8 2501.98 1578.02 2501.47 1577.35L2501.36 1577.18 2502.09 1577.18C2504.21 1577.21 2505.9 1577.84 2507.15 1579.07 2508.41 1580.31 2509.05 1581.97 2509.08 1584.07L2509.08 1601.53C2509.09 1602.4 2509.24 1603.28 2509.52 1604.17 2509.81 1605.07 2510.21 1605.85 2510.72 1606.52L2510.83 1606.63 2510.04 1606.63C2508.08 1606.6 2506.49 1606.05 2505.27 1604.96 2504.06 1603.88 2503.36 1602.4 2503.16 1600.53 2502.36 1602.62 2501 1604.26 2499.08 1605.44 2497.16 1606.62 2494.95 1607.22 2492.45 1607.24 2489.15 1607.19 2486.76 1606.15 2485.27 1604.14 2483.79 1602.13 2483.06 1599.49 2483.09 1596.22L2483.09 1582.28C2483.08 1581.44 2482.93 1580.58 2482.62 1579.69 2482.32 1578.8 2481.91 1578.02 2481.4 1577.35ZM2350.7 1577.18 2351.49 1577.18C2353.58 1577.21 2355.25 1577.84 2356.5 1579.07 2357.75 1580.31 2358.39 1581.97 2358.43 1584.07L2358.43 1596.78C2358.44 1599.37 2359.02 1601.36 2360.18 1602.77 2361.34 1604.17 2363.01 1604.88 2365.19 1604.89 2367.34 1604.87 2369.07 1604.23 2370.38 1602.96 2371.69 1601.7 2372.41 1599.93 2372.52 1597.67L2372.52 1582.28C2372.52 1581.44 2372.37 1580.58 2372.09 1579.69 2371.8 1578.8 2371.4 1578.02 2370.89 1577.35L2370.77 1577.18 2371.51 1577.18C2373.62 1577.21 2375.31 1577.84 2376.57 1579.07 2377.83 1580.31 2378.47 1581.97 2378.5 1584.07L2378.5 1601.53C2378.5 1602.4 2378.65 1603.28 2378.94 1604.17 2379.22 1605.07 2379.62 1605.85 2380.14 1606.52L2380.25 1606.63 2379.46 1606.63C2377.49 1606.6 2375.9 1606.05 2374.69 1604.96 2373.47 1603.88 2372.77 1602.4 2372.58 1600.53 2371.77 1602.62 2370.41 1604.26 2368.49 1605.44 2366.57 1606.62 2364.36 1607.22 2361.87 1607.24 2358.56 1607.19 2356.17 1606.15 2354.69 1604.14 2353.21 1602.13 2352.48 1599.49 2352.5 1596.22L2352.5 1582.28C2352.5 1581.44 2352.34 1580.58 2352.04 1579.69 2351.74 1578.8 2351.33 1578.02 2350.81 1577.35ZM2463.75 1576.9C2461.04 1576.96 2458.88 1578.33 2457.29 1581.01 2455.69 1583.69 2454.88 1587.34 2454.84 1591.96 2454.87 1596.53 2455.67 1600.15 2457.23 1602.81 2458.79 1605.48 2460.93 1606.85 2463.64 1606.91 2466.38 1606.85 2468.56 1605.47 2470.18 1602.77 2471.8 1600.08 2472.62 1596.42 2472.66 1591.79 2472.62 1587.18 2471.8 1583.56 2470.19 1580.93 2468.59 1578.3 2466.44 1576.96 2463.75 1576.9ZM2396.94 1576.9C2394.77 1576.95 2393.06 1577.95 2391.8 1579.9 2390.55 1581.85 2389.91 1584.47 2389.89 1587.76 2389.92 1591.13 2390.59 1593.79 2391.88 1595.72 2393.18 1597.65 2394.9 1598.64 2397.05 1598.68 2399.19 1598.64 2400.9 1597.67 2402.16 1595.76 2403.42 1593.86 2404.07 1591.25 2404.1 1587.93 2404.07 1584.61 2403.41 1581.95 2402.12 1579.96 2400.84 1577.97 2399.11 1576.96 2396.94 1576.9ZM2333.17 1576.9C2330.45 1576.96 2328.3 1578.33 2326.7 1581.01 2325.11 1583.69 2324.29 1587.34 2324.26 1591.96 2324.29 1596.53 2325.08 1600.15 2326.65 1602.81 2328.21 1605.48 2330.34 1606.85 2333.05 1606.91 2335.8 1606.85 2337.98 1605.47 2339.59 1602.77 2341.21 1600.08 2342.04 1596.42 2342.08 1591.79 2342.04 1587.18 2341.21 1583.56 2339.61 1580.93 2338 1578.3 2335.86 1576.96 2333.17 1576.9ZM2750.2 1576.57C2752.07 1576.58 2753.81 1576.86 2755.42 1577.42 2757.03 1577.97 2758.33 1578.76 2759.32 1579.77 2760.32 1580.78 2760.83 1581.97 2760.86 1583.34 2760.84 1584.42 2760.54 1585.26 2759.96 1585.88 2759.37 1586.49 2758.62 1586.8 2757.7 1586.81 2756.74 1586.81 2755.93 1586.49 2755.25 1585.86 2754.58 1585.23 2754.23 1584.3 2754.2 1583.06 2754.97 1581.61 2754.92 1580.24 2754.07 1578.96 2753.22 1577.67 2751.89 1576.99 2750.09 1576.9 2748.7 1576.94 2747.56 1577.39 2746.65 1578.27 2745.74 1579.15 2745.27 1580.26 2745.24 1581.61 2745.32 1583.36 2746.14 1584.83 2747.69 1586.02 2749.24 1587.21 2751.04 1588.36 2753.08 1589.47 2755.12 1590.58 2756.91 1591.88 2758.47 1593.38 2760.02 1594.88 2760.83 1596.82 2760.91 1599.18 2760.87 1601.75 2759.91 1603.74 2758.03 1605.14 2756.16 1606.55 2753.66 1607.25 2750.54 1607.24 2748.69 1607.24 2746.95 1606.95 2745.34 1606.39 2743.74 1605.83 2742.43 1605.05 2741.43 1604.03 2740.43 1603.01 2739.91 1601.8 2739.88 1600.41 2739.9 1599.36 2740.19 1598.53 2740.76 1597.9 2741.33 1597.28 2742.09 1596.96 2743.04 1596.94 2743.97 1596.95 2744.78 1597.28 2745.47 1597.92 2746.16 1598.57 2746.53 1599.51 2746.59 1600.75 2745.77 1602.21 2745.79 1603.58 2746.64 1604.86 2747.49 1606.14 2748.85 1606.82 2750.71 1606.91 2752.24 1606.87 2753.49 1606.36 2754.48 1605.38 2755.46 1604.39 2755.97 1603.17 2756.01 1601.7 2755.93 1599.89 2755.11 1598.38 2753.57 1597.15 2752.02 1595.92 2750.23 1594.75 2748.2 1593.64 2746.17 1592.53 2744.38 1591.25 2742.83 1589.8 2741.28 1588.35 2740.47 1586.49 2740.39 1584.24 2740.43 1581.93 2741.32 1580.09 2743.07 1578.7 2744.83 1577.32 2747.2 1576.61 2750.2 1576.57ZM2730.52 1576.57C2731.73 1576.6 2732.92 1576.89 2734.09 1577.44 2735.25 1577.99 2736.22 1578.76 2736.99 1579.75 2737.76 1580.74 2738.16 1581.9 2738.19 1583.23 2738.17 1584.36 2737.88 1585.24 2737.31 1585.86 2736.73 1586.49 2735.98 1586.8 2735.03 1586.81 2734.07 1586.81 2733.25 1586.49 2732.58 1585.86 2731.91 1585.23 2731.56 1584.3 2731.53 1583.06 2732.34 1581.61 2732.51 1580.27 2732.04 1579.04 2731.57 1577.81 2730.67 1577.15 2729.33 1577.07 2727.82 1577.14 2726.52 1578.04 2725.42 1579.76 2724.33 1581.48 2723.71 1583.61 2723.58 1586.14L2723.58 1601.48C2723.59 1602.34 2723.73 1603.22 2724.02 1604.12 2724.31 1605.01 2724.71 1605.79 2725.22 1606.46L2725.33 1606.63 2723.24 1606.63C2721.56 1606.6 2720.21 1606.09 2719.21 1605.1 2718.2 1604.1 2717.69 1602.76 2717.66 1601.09L2717.66 1582.28C2717.65 1581.42 2717.5 1580.55 2717.2 1579.66 2716.89 1578.78 2716.48 1577.99 2715.97 1577.3L2715.86 1577.18 2718 1577.18C2719.68 1577.21 2721.02 1577.7 2722.02 1578.65 2723.01 1579.61 2723.53 1580.91 2723.58 1582.56 2724.09 1580.89 2724.91 1579.48 2726.06 1578.35 2727.2 1577.21 2728.69 1576.62 2730.52 1576.57ZM2699.49 1576.57C2703.35 1576.59 2706.35 1577.72 2708.48 1579.94 2710.61 1582.16 2711.69 1585.33 2711.72 1589.44L2711.72 1601.48C2711.73 1602.36 2711.87 1603.25 2712.16 1604.14 2712.45 1605.04 2712.85 1605.83 2713.36 1606.52L2713.47 1606.63 2712.68 1606.63C2710.75 1606.61 2709.18 1606.08 2707.97 1605.03 2706.77 1603.99 2706.05 1602.56 2705.8 1600.75 2705.36 1602.74 2704.33 1604.31 2702.7 1605.47 2701.07 1606.63 2698.97 1607.22 2696.38 1607.24 2693.39 1607.21 2690.96 1606.43 2689.08 1604.9 2687.21 1603.37 2686.24 1601.26 2686.18 1598.57 2686.21 1596.13 2687.06 1594.03 2688.73 1592.27 2690.4 1590.5 2692.69 1589.13 2695.6 1588.15 2698.52 1587.18 2701.86 1586.65 2705.63 1586.59 2705.38 1583.54 2704.73 1581.17 2703.69 1579.48 2702.64 1577.79 2701.21 1576.93 2699.37 1576.9 2697.51 1576.99 2696.15 1577.67 2695.28 1578.96 2694.41 1580.24 2694.38 1581.61 2695.2 1583.06 2695.17 1584.3 2694.82 1585.23 2694.15 1585.86 2693.48 1586.49 2692.66 1586.81 2691.7 1586.81 2690.76 1586.8 2690 1586.49 2689.43 1585.88 2688.86 1585.26 2688.56 1584.42 2688.55 1583.34 2688.58 1581.97 2689.09 1580.78 2690.1 1579.77 2691.11 1578.76 2692.44 1577.97 2694.09 1577.42 2695.74 1576.86 2697.54 1576.58 2699.49 1576.57ZM2670.71 1576.57C2674.59 1576.67 2677.67 1578.06 2679.93 1580.73 2682.19 1583.4 2683.35 1587.07 2683.4 1591.74L2683.4 1592.3 2662.7 1592.3C2663.04 1595.42 2664.07 1597.98 2665.77 1599.99 2667.47 1601.99 2669.83 1603.03 2672.85 1603.1 2674.39 1603.13 2675.88 1602.8 2677.33 1602.11 2678.78 1601.43 2679.91 1600.25 2680.75 1598.57L2681.09 1598.85C2680.28 1601.67 2678.85 1603.78 2676.79 1605.17 2674.73 1606.55 2672.47 1607.25 2670.03 1607.24 2667.58 1607.22 2665.35 1606.56 2663.34 1605.26 2661.33 1603.97 2659.72 1602.16 2658.52 1599.84 2657.32 1597.52 2656.7 1594.82 2656.67 1591.74 2656.68 1588.87 2657.26 1586.3 2658.39 1584.02 2659.53 1581.75 2661.14 1579.94 2663.24 1578.61 2665.33 1577.28 2667.82 1576.6 2670.71 1576.57ZM2599.48 1576.57C2603.37 1576.67 2606.44 1578.06 2608.7 1580.73 2610.96 1583.4 2612.12 1587.07 2612.17 1591.74L2612.17 1592.3 2591.47 1592.3C2591.82 1595.42 2592.84 1597.98 2594.54 1599.99 2596.24 1601.99 2598.6 1603.03 2601.62 1603.1 2603.16 1603.13 2604.65 1602.8 2606.1 1602.11 2607.55 1601.43 2608.69 1600.25 2609.52 1598.57L2609.86 1598.85C2609.05 1601.67 2607.62 1603.78 2605.56 1605.17 2603.5 1606.55 2601.25 1607.25 2598.81 1607.24 2596.35 1607.22 2594.12 1606.56 2592.11 1605.26 2590.1 1603.97 2588.49 1602.16 2587.29 1599.84 2586.09 1597.52 2585.47 1594.82 2585.44 1591.74 2585.45 1588.87 2586.03 1586.3 2587.16 1584.02 2588.3 1581.75 2589.91 1579.94 2592.01 1578.61 2594.1 1577.28 2596.59 1576.6 2599.48 1576.57ZM2463.75 1576.57C2468.27 1576.63 2471.85 1578.03 2474.51 1580.77 2477.16 1583.5 2478.52 1587.2 2478.58 1591.85 2478.51 1596.53 2477.14 1600.25 2474.47 1603.01 2471.8 1605.77 2468.25 1607.18 2463.81 1607.24 2459.34 1607.17 2455.76 1605.73 2453.07 1602.93 2450.37 1600.13 2448.99 1596.4 2448.92 1591.74 2448.98 1587.14 2450.34 1583.48 2452.99 1580.75 2455.65 1578.03 2459.24 1576.63 2463.75 1576.57ZM2333.17 1576.57C2337.68 1576.63 2341.27 1578.03 2343.92 1580.77 2346.58 1583.5 2347.94 1587.2 2348 1591.85 2347.93 1596.53 2346.56 1600.25 2343.89 1603.01 2341.22 1605.77 2337.66 1607.18 2333.22 1607.24 2328.75 1607.17 2325.17 1605.73 2322.48 1602.93 2319.79 1600.13 2318.41 1596.4 2318.34 1591.74 2318.4 1587.14 2319.76 1583.48 2322.41 1580.75 2325.07 1578.03 2328.65 1576.63 2333.17 1576.57ZM2309.09 1576.57C2310.3 1576.6 2311.49 1576.89 2312.65 1577.44 2313.82 1577.99 2314.78 1578.76 2315.56 1579.75 2316.33 1580.74 2316.73 1581.9 2316.75 1583.23 2316.74 1584.36 2316.45 1585.24 2315.87 1585.86 2315.3 1586.49 2314.54 1586.8 2313.6 1586.81 2312.64 1586.81 2311.82 1586.49 2311.15 1585.86 2310.48 1585.23 2310.13 1584.3 2310.1 1583.06 2310.91 1581.61 2311.08 1580.27 2310.61 1579.04 2310.14 1577.81 2309.23 1577.15 2307.9 1577.07 2306.39 1577.14 2305.08 1578.04 2303.99 1579.76 2302.89 1581.48 2302.28 1583.61 2302.15 1586.14L2302.15 1601.48C2302.15 1602.34 2302.3 1603.22 2302.59 1604.12 2302.87 1605.01 2303.27 1605.79 2303.78 1606.46L2303.9 1606.63 2301.81 1606.63C2300.12 1606.6 2298.78 1606.09 2297.77 1605.1 2296.77 1604.1 2296.25 1602.76 2296.23 1601.09L2296.23 1582.28C2296.22 1581.42 2296.07 1580.55 2295.76 1579.66 2295.46 1578.78 2295.05 1577.99 2294.54 1577.3L2294.42 1577.18 2296.57 1577.18C2298.25 1577.21 2299.59 1577.7 2300.58 1578.65 2301.58 1579.61 2302.1 1580.91 2302.15 1582.56 2302.65 1580.89 2303.48 1579.48 2304.62 1578.35 2305.77 1577.21 2307.26 1576.62 2309.09 1576.57ZM2545.06 1573.66 2545.62 1573.66 2545.62 1577.18 2549.23 1577.18 2549.23 1577.74 2545.62 1577.74 2545.62 1601.42C2545.63 1602.31 2545.8 1603.22 2546.12 1604.14 2546.44 1605.07 2546.86 1605.88 2547.37 1606.57L2546.64 1606.57C2544.53 1606.55 2542.85 1605.92 2541.61 1604.7 2540.37 1603.48 2539.73 1601.81 2539.7 1599.69L2539.7 1577.74 2537.62 1577.74 2537.62 1577.18 2540.21 1577.18C2541.65 1576.96 2542.81 1576.44 2543.69 1575.61 2544.58 1574.78 2545.04 1574.13 2545.06 1573.66ZM2521.32 1573.66 2521.88 1573.66 2521.88 1577.18 2525.49 1577.18 2525.49 1577.74 2521.88 1577.74 2521.88 1601.42C2521.89 1602.31 2522.06 1603.22 2522.38 1604.14 2522.69 1605.07 2523.11 1605.88 2523.63 1606.57L2522.9 1606.57C2520.78 1606.55 2519.1 1605.92 2517.86 1604.7 2516.62 1603.48 2515.99 1601.81 2515.96 1599.69L2515.96 1577.74 2513.88 1577.74 2513.88 1577.18 2516.47 1577.18C2517.9 1576.96 2519.06 1576.44 2519.95 1575.61 2520.84 1574.78 2521.29 1574.13 2521.32 1573.66ZM2254.21 1573.66 2254.78 1573.66 2254.78 1577.18 2258.39 1577.18 2258.39 1577.74 2254.78 1577.74 2254.78 1601.42C2254.79 1602.31 2254.95 1603.22 2255.27 1604.14 2255.59 1605.07 2256.01 1605.88 2256.53 1606.57L2255.79 1606.57C2253.68 1606.55 2252 1605.92 2250.76 1604.7 2249.52 1603.48 2248.88 1601.81 2248.86 1599.69L2248.86 1577.74 2246.77 1577.74 2246.77 1577.18 2249.36 1577.18C2250.8 1576.96 2251.96 1576.44 2252.85 1575.61 2253.73 1574.78 2254.19 1574.13 2254.21 1573.66ZM2406.22 1570.52C2407.01 1570.33 2407.83 1570.35 2408.67 1570.58 2409.49 1570.88 2410.07 1571.33 2410.4 1571.95 2410.73 1572.57 2410.77 1573.25 2410.53 1573.99 2410.26 1574.72 2409.79 1575.26 2409.1 1575.61 2408.42 1575.96 2407.57 1575.98 2406.58 1575.67 2405.69 1574.71 2404.64 1574.36 2403.43 1574.62 2402.22 1574.88 2401.3 1575.66 2400.66 1576.96 2403.56 1577.61 2405.84 1578.89 2407.5 1580.8 2409.15 1582.72 2409.99 1585.07 2410.02 1587.88 2409.96 1591.25 2408.78 1593.93 2406.45 1595.92 2404.13 1597.9 2400.99 1598.91 2397.05 1598.96 2395.44 1598.96 2393.95 1598.78 2392.59 1598.42 2391.22 1598.06 2390 1597.53 2388.93 1596.83 2387.69 1597.82 2387.06 1598.75 2387.04 1599.62 2387.02 1600.5 2387.8 1600.97 2389.38 1601.03 2390.86 1600.96 2392.8 1600.67 2395.2 1600.14 2397.59 1599.61 2400.02 1599.24 2402.49 1599.04 2404.96 1598.84 2407.04 1599.21 2408.73 1600.13 2410.42 1601.06 2411.3 1602.94 2411.37 1605.79 2411.32 1608.52 2410.54 1610.88 2409.03 1612.85 2407.52 1614.81 2405.57 1616.33 2403.19 1617.39 2400.8 1618.45 2398.26 1618.99 2395.58 1619 2393.62 1618.99 2391.73 1618.71 2389.91 1618.14 2388.09 1617.58 2386.59 1616.78 2385.41 1615.75 2384.23 1614.71 2383.61 1613.48 2383.57 1612.06 2383.59 1611.06 2383.88 1610.27 2384.45 1609.67 2385.03 1609.08 2385.78 1608.77 2386.73 1608.76 2387.67 1608.76 2388.47 1609.07 2389.15 1609.71 2389.84 1610.34 2390.19 1611.27 2390.23 1612.51 2389.45 1613.99 2389.7 1615.37 2390.97 1616.66 2392.24 1617.95 2394.1 1618.63 2396.54 1618.72 2398.33 1618.69 2400.17 1618.23 2402.08 1617.35 2403.98 1616.47 2405.6 1615.24 2406.93 1613.65 2408.25 1612.06 2408.95 1610.18 2409 1608.03 2408.97 1606.14 2408.37 1604.98 2407.22 1604.57 2406.06 1604.16 2404.56 1604.15 2402.72 1604.55 2400.87 1604.95 2398.89 1605.43 2396.78 1605.99 2394.66 1606.55 2392.63 1606.85 2390.68 1606.91 2387.93 1606.83 2386.12 1606.12 2385.26 1604.79 2384.4 1603.46 2384.29 1601.99 2384.93 1600.39 2385.57 1598.79 2386.77 1597.55 2388.53 1596.66 2387.08 1595.68 2385.95 1594.45 2385.14 1592.96 2384.33 1591.48 2383.92 1589.79 2383.91 1587.88 2383.97 1584.49 2385.19 1581.77 2387.56 1579.72 2389.93 1577.68 2393.1 1576.62 2397.05 1576.57 2398.23 1576.57 2399.36 1576.68 2400.43 1576.9 2401.26 1574.71 2402.42 1572.99 2403.91 1571.75 2404.66 1571.12 2405.43 1570.72 2406.22 1570.52ZM2552.12 1565.37 2552.91 1565.37C2555 1565.41 2556.67 1566.04 2557.92 1567.28 2559.17 1568.53 2559.81 1570.18 2559.84 1572.26L2559.84 1583.17C2560.65 1581.14 2562.01 1579.53 2563.93 1578.36 2565.85 1577.19 2568.06 1576.59 2570.56 1576.57 2573.83 1576.62 2576.22 1577.65 2577.71 1579.65 2579.21 1581.65 2579.94 1584.3 2579.92 1587.6L2579.92 1601.48C2579.92 1602.34 2580.07 1603.22 2580.35 1604.12 2580.64 1605.01 2581.04 1605.79 2581.55 1606.46L2581.67 1606.63 2580.88 1606.63C2578.79 1606.6 2577.12 1605.97 2575.87 1604.74 2574.61 1603.51 2573.97 1601.84 2573.94 1599.74L2573.94 1587.04C2573.93 1584.45 2573.35 1582.45 2572.19 1581.05 2571.03 1579.65 2569.36 1578.94 2567.17 1578.92 2565.05 1578.94 2563.33 1579.6 2562.01 1580.88 2560.68 1582.16 2559.96 1583.93 2559.84 1586.2L2559.84 1601.48C2559.85 1602.34 2559.99 1603.22 2560.28 1604.12 2560.57 1605.01 2560.97 1605.79 2561.48 1606.46L2561.59 1606.63 2560.86 1606.63C2558.74 1606.6 2557.07 1605.97 2555.83 1604.74 2554.59 1603.51 2553.95 1601.84 2553.92 1599.74L2553.92 1570.52C2553.92 1569.64 2553.76 1568.76 2553.46 1567.88 2553.15 1567 2552.75 1566.2 2552.23 1565.49ZM2415.6 1565.37 2416.39 1565.37C2418.48 1565.41 2420.15 1566.04 2421.4 1567.28 2422.65 1568.53 2423.29 1570.18 2423.32 1572.26L2423.32 1583.17C2424.13 1581.14 2425.49 1579.53 2427.41 1578.36 2429.33 1577.19 2431.54 1576.59 2434.04 1576.57 2437.31 1576.62 2439.7 1577.65 2441.19 1579.65 2442.68 1581.65 2443.42 1584.3 2443.4 1587.6L2443.4 1601.48C2443.4 1602.34 2443.55 1603.22 2443.83 1604.12 2444.12 1605.01 2444.52 1605.79 2445.03 1606.46L2445.15 1606.63 2444.36 1606.63C2442.27 1606.6 2440.6 1605.97 2439.34 1604.74 2438.09 1603.51 2437.45 1601.84 2437.42 1599.74L2437.42 1587.04C2437.41 1584.45 2436.82 1582.45 2435.67 1581.05 2434.51 1579.65 2432.84 1578.94 2430.65 1578.92 2428.53 1578.94 2426.81 1579.6 2425.49 1580.88 2424.16 1582.16 2423.44 1583.93 2423.32 1586.2L2423.32 1601.48C2423.33 1602.34 2423.47 1603.22 2423.76 1604.12 2424.05 1605.01 2424.45 1605.79 2424.96 1606.46L2425.07 1606.63 2424.34 1606.63C2422.22 1606.6 2420.55 1605.97 2419.31 1604.74 2418.06 1603.51 2417.43 1601.84 2417.4 1599.74L2417.4 1570.52C2417.4 1569.64 2417.24 1568.76 2416.94 1567.88 2416.63 1567 2416.23 1566.2 2415.71 1565.49ZM2261.27 1565.37 2262.06 1565.37C2264.15 1565.41 2265.82 1566.04 2267.07 1567.28 2268.32 1568.53 2268.96 1570.18 2269 1572.26L2269 1583.17C2269.8 1581.14 2271.16 1579.53 2273.08 1578.36 2275 1577.19 2277.21 1576.59 2279.71 1576.57 2282.99 1576.62 2285.37 1577.65 2286.86 1579.65 2288.36 1581.65 2289.09 1584.3 2289.07 1587.6L2289.07 1601.48C2289.07 1602.34 2289.22 1603.22 2289.51 1604.12 2289.79 1605.01 2290.19 1605.79 2290.71 1606.46L2290.82 1606.63 2290.03 1606.63C2287.94 1606.6 2286.27 1605.97 2285.02 1604.74 2283.77 1603.51 2283.12 1601.84 2283.09 1599.74L2283.09 1587.04C2283.08 1584.45 2282.5 1582.45 2281.34 1581.05 2280.18 1579.65 2278.51 1578.94 2276.33 1578.92 2274.21 1578.94 2272.48 1579.6 2271.16 1580.88 2269.84 1582.16 2269.11 1583.93 2269 1586.2L2269 1601.48C2269 1602.34 2269.15 1603.22 2269.43 1604.12 2269.72 1605.01 2270.12 1605.79 2270.63 1606.46L2270.74 1606.63 2270.01 1606.63C2267.9 1606.6 2266.22 1605.97 2264.98 1604.74 2263.74 1603.51 2263.1 1601.84 2263.07 1599.74L2263.07 1570.52C2263.07 1569.64 2262.91 1568.76 2262.61 1567.88 2262.31 1567 2261.9 1566.2 2261.38 1565.49ZM3118.16 1522C3114.22 1522.2 3111 1523.35 3108.5 1525.43 3106 1527.52 3104.71 1530.33 3104.63 1533.87 3104.66 1536.27 3105.26 1538.16 3106.4 1539.54 3107.55 1540.92 3109.05 1541.62 3110.89 1541.65 3112.92 1541.58 3114.65 1540.8 3116.06 1539.32 3117.48 1537.84 3118.21 1536.06 3118.27 1533.98L3118.27 1524.85C3118.27 1523.85 3118.23 1522.89 3118.16 1522ZM3038.03 1522C3034.09 1522.2 3030.87 1523.35 3028.37 1525.43 3025.87 1527.52 3024.58 1530.33 3024.5 1533.87 3024.53 1536.27 3025.12 1538.16 3026.27 1539.54 3027.42 1540.92 3028.92 1541.62 3030.76 1541.65 3032.79 1541.58 3034.52 1540.8 3035.93 1539.32 3037.34 1537.84 3038.08 1536.06 3038.14 1533.98L3038.14 1524.85C3038.13 1523.85 3038.1 1522.89 3038.03 1522ZM2358.4 1522C2354.45 1522.2 2351.23 1523.35 2348.73 1525.43 2346.23 1527.52 2344.94 1530.33 2344.86 1533.87 2344.9 1536.27 2345.49 1538.16 2346.64 1539.54 2347.79 1540.92 2349.28 1541.62 2351.12 1541.65 2353.16 1541.58 2354.88 1540.8 2356.3 1539.32 2357.71 1537.84 2358.45 1536.06 2358.51 1533.98L2358.51 1524.85C2358.5 1523.85 2358.46 1522.89 2358.4 1522ZM2064.58 1522C2060.64 1522.2 2057.42 1523.35 2054.92 1525.43 2052.42 1527.52 2051.13 1530.33 2051.05 1533.87 2051.08 1536.27 2051.67 1538.16 2052.82 1539.54 2053.97 1540.92 2055.47 1541.62 2057.31 1541.65 2059.34 1541.58 2061.07 1540.8 2062.48 1539.32 2063.89 1537.84 2064.63 1536.06 2064.69 1533.98L2064.69 1524.85C2064.68 1523.85 2064.65 1522.89 2064.58 1522ZM2961.51 1520.88 2987.39 1520.88 2987.39 1521.49 2961.51 1521.49ZM2624.07 1512.65C2621.91 1512.7 2620.19 1513.87 2618.91 1516.16 2617.64 1518.46 2616.93 1521.62 2616.8 1525.64L2616.8 1525.92C2616.75 1530.93 2617.55 1534.8 2619.21 1537.52 2620.86 1540.24 2622.82 1541.61 2625.09 1541.65 2627.21 1541.59 2628.83 1540.33 2629.94 1537.86 2631.06 1535.39 2631.62 1532.04 2631.63 1527.82 2631.6 1523.1 2630.92 1519.4 2629.58 1516.73 2628.25 1514.06 2626.41 1512.7 2624.07 1512.65ZM2003.4 1512.65C2001.23 1512.7 1999.51 1513.87 1998.24 1516.16 1996.96 1518.46 1996.26 1521.62 1996.12 1525.64L1996.12 1527.88C1996.12 1527.97 1996.12 1528.52 1996.12 1529.53 1996.12 1530.54 1996.12 1531.71 1996.12 1533.03 1996.12 1534.34 1996.12 1535.51 1996.12 1536.52 1996.12 1537.53 1996.12 1538.08 1996.12 1538.18 1996.97 1539.49 1997.87 1540.48 1998.84 1541.15 1999.82 1541.82 2001.03 1542.15 2002.5 1542.15 2005.54 1542.1 2007.72 1540.83 2009.03 1538.34 2010.34 1535.84 2010.99 1532.43 2010.95 1528.1 2010.93 1523.24 2010.25 1519.47 2008.91 1516.76 2007.57 1514.06 2005.74 1512.69 2003.4 1512.65ZM2917.73 1512.37 2918.52 1512.37C2920.61 1512.4 2922.28 1513.03 2923.53 1514.26 2924.78 1515.49 2925.42 1517.16 2925.45 1519.26L2925.45 1542.6C2925.49 1545.97 2924.76 1548.73 2923.27 1550.87 2921.78 1553.01 2919.29 1554.11 2915.81 1554.18 2913.09 1554.14 2910.84 1553.49 2909.06 1552.23 2907.27 1550.98 2906.34 1549.39 2906.28 1547.47 2906.29 1546.42 2906.59 1545.59 2907.16 1544.98 2907.73 1544.38 2908.49 1544.07 2909.44 1544.05 2910.37 1544.05 2911.18 1544.36 2911.87 1544.98 2912.56 1545.59 2912.93 1546.52 2912.99 1547.75 2912.51 1548.56 2912.31 1549.44 2912.39 1550.39 2912.48 1551.33 2912.79 1552.15 2913.34 1552.83 2913.89 1553.51 2914.62 1553.87 2915.53 1553.9 2916.89 1553.81 2917.85 1553.02 2918.42 1551.54 2918.98 1550.05 2919.32 1548.4 2919.42 1546.59 2919.52 1544.78 2919.56 1543.36 2919.53 1542.32L2919.53 1517.46C2919.52 1516.61 2919.37 1515.73 2919.07 1514.85 2918.76 1513.96 2918.35 1513.17 2917.84 1512.48ZM2884.91 1512.37 2885.7 1512.37C2887.79 1512.4 2889.46 1513.03 2890.71 1514.26 2891.96 1515.49 2892.6 1517.16 2892.64 1519.26L2892.64 1531.96C2892.65 1534.55 2893.23 1536.55 2894.39 1537.95 2895.55 1539.35 2897.22 1540.06 2899.4 1540.08 2901.55 1540.06 2903.28 1539.41 2904.59 1538.15 2905.9 1536.88 2906.62 1535.12 2906.73 1532.86L2906.73 1517.46C2906.73 1516.63 2906.58 1515.77 2906.3 1514.88 2906.01 1513.98 2905.61 1513.21 2905.1 1512.54L2904.99 1512.37 2905.72 1512.37C2907.84 1512.4 2909.52 1513.03 2910.78 1514.26 2912.04 1515.49 2912.68 1517.16 2912.71 1519.26L2912.71 1536.72C2912.71 1537.58 2912.86 1538.46 2913.15 1539.36 2913.43 1540.25 2913.83 1541.04 2914.35 1541.7L2914.46 1541.81 2913.67 1541.81C2911.7 1541.79 2910.11 1541.24 2908.9 1540.15 2907.68 1539.06 2906.98 1537.58 2906.79 1535.71 2905.98 1537.8 2904.62 1539.44 2902.7 1540.62 2900.78 1541.81 2898.57 1542.41 2896.08 1542.43 2892.77 1542.37 2890.38 1541.34 2888.9 1539.33 2887.42 1537.32 2886.69 1534.68 2886.72 1531.4L2886.72 1517.46C2886.71 1516.63 2886.55 1515.77 2886.25 1514.88 2885.95 1513.98 2885.54 1513.21 2885.02 1512.54ZM2769.17 1512.37 2769.95 1512.37C2772.04 1512.4 2773.71 1513.03 2774.97 1514.26 2776.22 1515.49 2776.86 1517.16 2776.89 1519.26L2776.89 1531.96C2776.9 1534.55 2777.49 1536.55 2778.65 1537.95 2779.81 1539.35 2781.48 1540.06 2783.66 1540.08 2785.8 1540.06 2787.53 1539.41 2788.84 1538.15 2790.16 1536.88 2790.87 1535.12 2790.99 1532.86L2790.99 1517.46C2790.98 1516.63 2790.84 1515.77 2790.55 1514.88 2790.26 1513.98 2789.86 1513.21 2789.35 1512.54L2789.24 1512.37 2789.97 1512.37C2792.09 1512.4 2793.78 1513.03 2795.03 1514.26 2796.29 1515.49 2796.93 1517.16 2796.96 1519.26L2796.96 1536.72C2796.97 1537.58 2797.12 1538.46 2797.4 1539.36 2797.69 1540.25 2798.09 1541.04 2798.6 1541.7L2798.71 1541.81 2797.92 1541.81C2795.96 1541.79 2794.37 1541.24 2793.15 1540.15 2791.94 1539.06 2791.24 1537.58 2791.04 1535.71 2790.24 1537.8 2788.88 1539.44 2786.96 1540.62 2785.04 1541.81 2782.83 1542.41 2780.33 1542.43 2777.03 1542.37 2774.64 1541.34 2773.15 1539.33 2771.67 1537.32 2770.94 1534.68 2770.97 1531.4L2770.97 1517.46C2770.96 1516.63 2770.81 1515.77 2770.5 1514.88 2770.2 1513.98 2769.79 1513.21 2769.28 1512.54ZM2724.7 1512.37 2725.49 1512.37C2727.58 1512.4 2729.25 1513.03 2730.51 1514.26 2731.76 1515.49 2732.4 1517.16 2732.43 1519.26L2732.43 1536.66C2732.43 1537.53 2732.58 1538.41 2732.87 1539.3 2733.15 1540.2 2733.55 1540.98 2734.06 1541.65L2734.18 1541.81 2733.44 1541.81C2731.33 1541.79 2729.65 1541.16 2728.41 1539.92 2727.17 1538.69 2726.54 1537.03 2726.51 1534.93L2726.51 1517.46C2726.5 1516.61 2726.35 1515.73 2726.04 1514.85 2725.74 1513.96 2725.33 1513.17 2724.82 1512.48ZM2679.39 1512.37C2677.47 1512.45 2675.95 1513.28 2674.84 1514.89 2673.73 1516.49 2672.93 1518.41 2672.43 1520.64 2671.94 1522.87 2671.67 1524.97 2671.61 1526.92L2686.32 1526.92C2686.27 1522.3 2685.67 1518.73 2684.53 1516.21 2683.38 1513.68 2681.67 1512.4 2679.39 1512.37ZM2537.67 1512.37 2538.46 1512.37C2540.55 1512.4 2542.22 1513.03 2543.48 1514.26 2544.73 1515.49 2545.37 1517.16 2545.4 1519.26L2545.4 1531.96C2545.41 1534.55 2545.99 1536.55 2547.15 1537.95 2548.31 1539.35 2549.98 1540.06 2552.17 1540.08 2554.31 1540.06 2556.04 1539.41 2557.35 1538.15 2558.67 1536.88 2559.38 1535.12 2559.5 1532.86L2559.5 1517.46C2559.49 1516.63 2559.35 1515.77 2559.06 1514.88 2558.77 1513.98 2558.37 1513.21 2557.86 1512.54L2557.75 1512.37 2558.48 1512.37C2560.6 1512.4 2562.29 1513.03 2563.54 1514.26 2564.8 1515.49 2565.44 1517.16 2565.47 1519.26L2565.47 1536.72C2565.48 1537.58 2565.62 1538.46 2565.91 1539.36 2566.2 1540.25 2566.6 1541.04 2567.11 1541.7L2567.22 1541.81 2566.43 1541.81C2564.46 1541.79 2562.87 1541.24 2561.66 1540.15 2560.45 1539.06 2559.74 1537.58 2559.55 1535.71 2558.75 1537.8 2557.38 1539.44 2555.46 1540.62 2553.55 1541.81 2551.34 1542.41 2548.84 1542.43 2545.54 1542.37 2543.15 1541.34 2541.66 1539.33 2540.18 1537.32 2539.45 1534.68 2539.48 1531.4L2539.48 1517.46C2539.47 1516.63 2539.32 1515.77 2539.01 1514.88 2538.71 1513.98 2538.3 1513.21 2537.79 1512.54ZM2396.66 1512.37 2397.96 1512.37C2400.09 1512.4 2402.04 1512.96 2403.81 1514.07 2405.58 1515.18 2406.94 1516.68 2407.88 1518.58L2414.88 1533.14 2422.71 1517.07C2423.08 1516.35 2423.25 1515.57 2423.23 1514.73 2423.21 1513.89 2423 1513.12 2422.6 1512.43L2422.6 1512.37 2427.4 1512.37 2426.66 1512.99C2426.03 1513.51 2425.41 1514.14 2424.82 1514.88 2424.22 1515.62 2423.75 1516.35 2423.39 1517.07L2412.17 1540.02C2410.42 1543.67 2409.02 1546.53 2407.98 1548.6 2406.93 1550.66 2405.95 1552.12 2405.01 1552.96 2404.08 1553.81 2402.89 1554.21 2401.46 1554.18 2399.94 1554.18 2398.49 1553.82 2397.11 1553.11 2395.74 1552.4 2394.4 1551.36 2393.11 1549.99L2396.16 1546.96C2396.43 1547.82 2396.81 1548.76 2397.29 1549.77 2397.76 1550.79 2398.38 1551.66 2399.14 1552.4 2399.9 1553.14 2400.84 1553.53 2401.96 1553.57 2402.99 1553.59 2403.92 1553.15 2404.77 1552.28 2405.62 1551.4 2406.56 1549.98 2407.59 1548.01 2408.63 1546.05 2409.93 1543.44 2411.49 1540.19L2400.67 1517.13C2400.29 1516.38 2399.82 1515.64 2399.25 1514.89 2398.68 1514.14 2398.08 1513.51 2397.45 1512.99ZM2290.6 1512.37C2288.68 1512.45 2287.17 1513.28 2286.05 1514.89 2284.94 1516.49 2284.14 1518.41 2283.65 1520.64 2283.16 1522.87 2282.88 1524.97 2282.82 1526.92L2297.54 1526.92C2297.48 1522.3 2296.89 1518.73 2295.74 1516.21 2294.59 1513.68 2292.88 1512.4 2290.6 1512.37ZM2237.18 1512.37C2235.26 1512.45 2233.74 1513.28 2232.63 1514.89 2231.52 1516.49 2230.72 1518.41 2230.23 1520.64 2229.73 1522.87 2229.46 1524.97 2229.4 1526.92L2244.12 1526.92C2244.06 1522.3 2243.46 1518.73 2242.32 1516.21 2241.17 1513.68 2239.46 1512.4 2237.18 1512.37ZM2089.59 1512.37 2090.38 1512.37C2092.47 1512.4 2094.14 1513.03 2095.39 1514.26 2096.64 1515.49 2097.28 1517.16 2097.31 1519.26L2097.31 1536.66C2097.32 1537.53 2097.46 1538.41 2097.75 1539.3 2098.04 1540.2 2098.44 1540.98 2098.95 1541.65L2099.06 1541.81 2098.33 1541.81C2096.21 1541.79 2094.54 1541.16 2093.29 1539.92 2092.05 1538.69 2091.42 1537.03 2091.39 1534.93L2091.39 1517.46C2091.38 1516.61 2091.23 1515.73 2090.93 1514.85 2090.62 1513.96 2090.21 1513.17 2089.7 1512.48ZM1973.04 1512.37C1971.12 1512.45 1969.61 1513.28 1968.49 1514.89 1967.38 1516.49 1966.58 1518.41 1966.09 1520.64 1965.6 1522.87 1965.32 1524.97 1965.26 1526.92L1979.98 1526.92C1979.93 1522.3 1979.33 1518.73 1978.18 1516.21 1977.04 1513.68 1975.32 1512.4 1973.04 1512.37ZM1931.49 1512.37C1929.57 1512.45 1928.06 1513.28 1926.94 1514.89 1925.83 1516.49 1925.03 1518.41 1924.54 1520.64 1924.05 1522.87 1923.77 1524.97 1923.71 1526.92L1938.43 1526.92C1938.38 1522.3 1937.78 1518.73 1936.63 1516.21 1935.49 1513.68 1933.77 1512.4 1931.49 1512.37ZM2944.54 1512.09C2941.83 1512.15 2939.67 1513.52 2938.08 1516.2 2936.48 1518.88 2935.67 1522.53 2935.63 1527.15 2935.66 1531.71 2936.46 1535.33 2938.02 1538 2939.58 1540.67 2941.72 1542.03 2944.43 1542.09 2947.17 1542.03 2949.35 1540.66 2950.97 1537.96 2952.59 1535.26 2953.41 1531.6 2953.45 1526.98 2953.41 1522.37 2952.59 1518.75 2950.98 1516.11 2949.38 1513.48 2947.23 1512.14 2944.54 1512.09ZM2751.63 1512.09C2748.92 1512.15 2746.76 1513.52 2745.17 1516.2 2743.57 1518.88 2742.76 1522.53 2742.72 1527.15 2742.75 1531.71 2743.55 1535.33 2745.11 1538 2746.67 1540.67 2748.81 1542.03 2751.52 1542.09 2754.26 1542.03 2756.44 1540.66 2758.06 1537.96 2759.68 1535.26 2760.5 1531.6 2760.54 1526.98 2760.5 1522.37 2759.68 1518.75 2758.07 1516.11 2756.47 1513.48 2754.32 1512.14 2751.63 1512.09ZM2520.14 1512.09C2517.43 1512.15 2515.27 1513.52 2513.68 1516.2 2512.08 1518.88 2511.27 1522.53 2511.23 1527.15 2511.26 1531.71 2512.06 1535.33 2513.62 1538 2515.18 1540.67 2517.32 1542.03 2520.03 1542.09 2522.77 1542.03 2524.95 1540.66 2526.57 1537.96 2528.18 1535.26 2529.01 1531.6 2529.05 1526.98 2529.01 1522.37 2528.19 1518.75 2526.58 1516.11 2524.98 1513.48 2522.83 1512.14 2520.14 1512.09ZM2457.82 1512.09C2455.1 1512.15 2452.95 1513.52 2451.35 1516.2 2449.76 1518.88 2448.94 1522.53 2448.91 1527.15 2448.94 1531.71 2449.73 1535.33 2451.3 1538 2452.86 1540.67 2454.99 1542.03 2457.7 1542.09 2460.45 1542.03 2462.63 1540.66 2464.24 1537.96 2465.86 1535.26 2466.69 1531.6 2466.72 1526.98 2466.69 1522.37 2465.86 1518.75 2464.26 1516.11 2462.65 1513.48 2460.51 1512.14 2457.82 1512.09ZM2319.77 1512.09C2317.6 1512.14 2315.89 1513.14 2314.64 1515.09 2313.39 1517.04 2312.75 1519.66 2312.72 1522.95 2312.76 1526.32 2313.42 1528.97 2314.72 1530.91 2316.01 1532.84 2317.74 1533.83 2319.89 1533.87 2322.03 1533.83 2323.73 1532.85 2325 1530.95 2326.26 1529.04 2326.9 1526.43 2326.93 1523.12 2326.9 1519.79 2326.25 1517.14 2324.96 1515.15 2323.68 1513.16 2321.95 1512.14 2319.77 1512.09ZM2147.64 1512.09C2145.47 1512.14 2143.76 1513.14 2142.51 1515.09 2141.25 1517.04 2140.62 1519.66 2140.59 1522.95 2140.62 1526.32 2141.29 1528.97 2142.58 1530.91 2143.88 1532.84 2145.6 1533.83 2147.75 1533.87 2149.89 1533.83 2151.6 1532.85 2152.86 1530.95 2154.12 1529.04 2154.77 1526.43 2154.8 1523.12 2154.77 1519.79 2154.11 1517.14 2152.83 1515.15 2151.54 1513.16 2149.81 1512.14 2147.64 1512.09ZM3112.02 1511.76C3115.88 1511.78 3118.88 1512.9 3121.01 1515.13 3123.14 1517.35 3124.22 1520.52 3124.25 1524.63L3124.25 1536.66C3124.26 1537.55 3124.4 1538.44 3124.69 1539.33 3124.98 1540.22 3125.38 1541.01 3125.89 1541.7L3126 1541.81 3125.21 1541.81C3123.27 1541.79 3121.71 1541.26 3120.5 1540.22 3119.3 1539.18 3118.58 1537.75 3118.33 1535.94 3117.89 1537.92 3116.86 1539.49 3115.23 1540.65 3113.6 1541.81 3111.5 1542.4 3108.91 1542.43 3105.92 1542.4 3103.49 1541.62 3101.61 1540.09 3099.73 1538.55 3098.77 1536.44 3098.71 1533.75 3098.74 1531.32 3099.59 1529.22 3101.26 1527.45 3102.93 1525.69 3105.22 1524.31 3108.13 1523.34 3111.05 1522.36 3114.39 1521.84 3118.16 1521.77 3117.91 1518.73 3117.26 1516.36 3116.22 1514.67 3115.17 1512.97 3113.74 1512.12 3111.9 1512.09 3110.04 1512.18 3108.68 1512.86 3107.81 1514.14 3106.94 1515.42 3106.91 1516.79 3107.73 1518.25 3107.7 1519.48 3107.35 1520.41 3106.68 1521.05 3106.01 1521.68 3105.19 1522 3104.23 1522 3103.29 1521.99 3102.53 1521.67 3101.96 1521.06 3101.39 1520.45 3101.09 1519.6 3101.08 1518.53 3101.1 1517.16 3101.62 1515.97 3102.63 1514.96 3103.64 1513.94 3104.97 1513.16 3106.62 1512.6 3108.27 1512.05 3110.07 1511.76 3112.02 1511.76ZM3066.02 1511.76C3068.32 1511.77 3070.14 1512.42 3071.46 1513.69 3072.78 1514.97 3073.63 1516.75 3074.02 1519.03 3074.73 1516.77 3076.02 1515 3077.91 1513.71 3079.79 1512.43 3081.92 1511.78 3084.29 1511.76 3087.05 1511.79 3089.1 1512.69 3090.45 1514.45 3091.8 1516.21 3092.47 1518.63 3092.46 1521.72L3092.46 1536.66C3092.47 1537.53 3092.63 1538.41 3092.93 1539.3 3093.23 1540.2 3093.64 1540.98 3094.15 1541.65L3094.27 1541.81 3093.48 1541.81C3091.36 1541.79 3089.69 1541.16 3088.45 1539.92 3087.21 1538.69 3086.57 1537.03 3086.54 1534.93L3086.54 1522.22C3086.53 1519.7 3086.04 1517.73 3085.07 1516.3 3084.1 1514.86 3082.69 1514.13 3080.85 1514.11 3078.7 1514.18 3077.05 1514.97 3075.91 1516.46 3074.78 1517.96 3074.2 1519.71 3074.19 1521.72L3074.19 1536.66C3074.2 1537.53 3074.35 1538.41 3074.65 1539.3 3074.95 1540.2 3075.34 1540.98 3075.83 1541.65L3076 1541.81 3075.21 1541.81C3073.09 1541.79 3071.42 1541.16 3070.18 1539.92 3068.94 1538.69 3068.3 1537.03 3068.27 1534.93L3068.27 1522.22C3068.26 1519.7 3067.77 1517.73 3066.8 1516.3 3065.83 1514.86 3064.42 1514.13 3062.58 1514.11 3060.78 1514.13 3059.26 1514.78 3058 1516.07 3056.75 1517.35 3056.06 1519.12 3055.92 1521.38L3055.92 1536.66C3055.93 1537.53 3056.07 1538.41 3056.36 1539.3 3056.65 1540.2 3057.05 1540.98 3057.56 1541.65L3057.67 1541.81 3056.94 1541.81C3054.82 1541.79 3053.15 1541.16 3051.91 1539.92 3050.67 1538.69 3050.03 1537.03 3050 1534.93L3050 1517.46C3050 1516.61 3049.84 1515.73 3049.54 1514.85 3049.23 1513.96 3048.83 1513.17 3048.31 1512.48L3048.2 1512.37 3048.99 1512.37C3050.96 1512.39 3052.56 1512.95 3053.78 1514.04 3055 1515.12 3055.7 1516.6 3055.87 1518.47 3056.68 1516.38 3058 1514.74 3059.84 1513.56 3061.68 1512.38 3063.74 1511.78 3066.02 1511.76ZM3031.88 1511.76C3035.75 1511.78 3038.75 1512.9 3040.88 1515.13 3043.01 1517.35 3044.09 1520.52 3044.12 1524.63L3044.12 1536.66C3044.13 1537.55 3044.27 1538.44 3044.56 1539.33 3044.84 1540.22 3045.24 1541.01 3045.76 1541.7L3045.87 1541.81 3045.08 1541.81C3043.14 1541.79 3041.57 1541.26 3040.37 1540.22 3039.17 1539.18 3038.44 1537.75 3038.2 1535.94 3037.76 1537.92 3036.72 1539.49 3035.1 1540.65 3033.47 1541.81 3031.37 1542.4 3028.78 1542.43 3025.79 1542.4 3023.36 1541.62 3021.48 1540.09 3019.6 1538.55 3018.63 1536.44 3018.58 1533.75 3018.61 1531.32 3019.46 1529.22 3021.13 1527.45 3022.79 1525.69 3025.08 1524.31 3028 1523.34 3030.91 1522.36 3034.26 1521.84 3038.03 1521.77 3037.78 1518.73 3037.13 1516.36 3036.08 1514.67 3035.04 1512.97 3033.6 1512.12 3031.77 1512.09 3029.91 1512.18 3028.54 1512.86 3027.68 1514.14 3026.81 1515.42 3026.78 1516.79 3027.6 1518.25 3027.57 1519.48 3027.22 1520.41 3026.55 1521.05 3025.88 1521.68 3025.06 1522 3024.1 1522 3023.16 1521.99 3022.4 1521.67 3021.83 1521.06 3021.25 1520.45 3020.96 1519.6 3020.94 1518.53 3020.97 1517.16 3021.49 1515.97 3022.5 1514.96 3023.51 1513.94 3024.84 1513.16 3026.49 1512.6 3028.14 1512.05 3029.94 1511.76 3031.88 1511.76ZM3002.47 1511.76C3004.34 1511.76 3006.08 1512.05 3007.69 1512.6 3009.29 1513.16 3010.59 1513.94 3011.59 1514.96 3012.58 1515.97 3013.09 1517.16 3013.12 1518.53 3013.11 1519.6 3012.8 1520.45 3012.22 1521.06 3011.64 1521.67 3010.89 1521.99 3009.97 1522 3009.01 1522 3008.19 1521.68 3007.52 1521.05 3006.85 1520.41 3006.5 1519.48 3006.47 1518.25 3007.23 1516.79 3007.19 1515.42 3006.34 1514.14 3005.48 1512.86 3004.16 1512.18 3002.35 1512.09 3000.97 1512.12 2999.82 1512.58 2998.91 1513.46 2998.01 1514.33 2997.54 1515.45 2997.5 1516.79 2997.59 1518.54 2998.4 1520.02 2999.95 1521.21 3001.51 1522.4 3003.3 1523.55 3005.34 1524.66 3007.38 1525.77 3009.18 1527.07 3010.73 1528.57 3012.28 1530.07 3013.1 1532 3013.18 1534.37 3013.13 1536.94 3012.17 1538.92 3010.3 1540.33 3008.42 1541.74 3005.93 1542.44 3002.81 1542.43 3000.95 1542.42 2999.22 1542.14 2997.61 1541.58 2996 1541.02 2994.7 1540.23 2993.7 1539.21 2992.69 1538.19 2992.18 1536.99 2992.15 1535.6 2992.16 1534.55 2992.46 1533.71 2993.03 1533.09 2993.6 1532.46 2994.36 1532.15 2995.31 1532.13 2996.24 1532.14 2997.05 1532.46 2997.74 1533.11 2998.42 1533.76 2998.8 1534.7 2998.86 1535.94 2998.04 1537.39 2998.06 1538.76 2998.91 1540.04 2999.76 1541.33 3001.11 1542.01 3002.97 1542.09 3004.5 1542.06 3005.76 1541.54 3006.75 1540.56 3007.73 1539.58 3008.24 1538.35 3008.27 1536.89 3008.19 1535.08 3007.38 1533.56 3005.83 1532.33 3004.29 1531.1 3002.5 1529.94 3000.46 1528.83 2998.43 1527.72 2996.64 1526.44 2995.1 1524.99 2993.55 1523.53 2992.74 1521.68 2992.65 1519.42 2992.69 1517.12 2993.59 1515.28 2995.34 1513.89 2997.09 1512.5 2999.47 1511.79 3002.47 1511.76ZM2944.54 1511.76C2949.06 1511.82 2952.64 1513.22 2955.3 1515.95 2957.95 1518.69 2959.31 1522.38 2959.37 1527.04 2959.3 1531.72 2957.93 1535.44 2955.26 1538.2 2952.59 1540.95 2949.04 1542.37 2944.6 1542.43 2940.13 1542.36 2936.55 1540.92 2933.85 1538.12 2931.16 1535.32 2929.78 1531.59 2929.71 1526.92 2929.77 1522.33 2931.13 1518.66 2933.78 1515.94 2936.44 1513.21 2940.02 1511.82 2944.54 1511.76ZM2812.53 1511.76C2814.4 1511.76 2816.14 1512.05 2817.74 1512.6 2819.35 1513.16 2820.65 1513.94 2821.65 1514.96 2822.64 1515.97 2823.15 1517.16 2823.18 1518.53 2823.16 1519.6 2822.86 1520.45 2822.28 1521.06 2821.7 1521.67 2820.95 1521.99 2820.02 1522 2819.06 1522 2818.25 1521.68 2817.58 1521.05 2816.91 1520.41 2816.56 1519.48 2816.53 1518.25 2817.29 1516.79 2817.25 1515.42 2816.39 1514.14 2815.54 1512.86 2814.22 1512.18 2812.41 1512.09 2811.03 1512.12 2809.88 1512.58 2808.97 1513.46 2808.07 1514.33 2807.6 1515.45 2807.56 1516.79 2807.64 1518.54 2808.46 1520.02 2810.01 1521.21 2811.56 1522.4 2813.36 1523.55 2815.4 1524.66 2817.44 1525.77 2819.24 1527.07 2820.79 1528.57 2822.34 1530.07 2823.16 1532 2823.24 1534.37 2823.19 1536.94 2822.23 1538.92 2820.36 1540.33 2818.48 1541.74 2815.99 1542.44 2812.86 1542.43 2811.01 1542.42 2809.28 1542.14 2807.67 1541.58 2806.06 1541.02 2804.75 1540.23 2803.75 1539.21 2802.75 1538.19 2802.24 1536.99 2802.21 1535.6 2802.22 1534.55 2802.52 1533.71 2803.09 1533.09 2803.66 1532.46 2804.42 1532.15 2805.36 1532.13 2806.3 1532.14 2807.11 1532.46 2807.8 1533.11 2808.48 1533.76 2808.86 1534.7 2808.92 1535.94 2808.1 1537.39 2808.11 1538.76 2808.97 1540.04 2809.82 1541.33 2811.17 1542.01 2813.03 1542.09 2814.56 1542.06 2815.82 1541.54 2816.8 1540.56 2817.79 1539.58 2818.3 1538.35 2818.33 1536.89 2818.25 1535.08 2817.44 1533.56 2815.89 1532.33 2814.35 1531.1 2812.56 1529.94 2810.52 1528.83 2808.49 1527.72 2806.7 1526.44 2805.15 1524.99 2803.61 1523.53 2802.79 1521.68 2802.71 1519.42 2802.75 1517.12 2803.65 1515.28 2805.4 1513.89 2807.15 1512.5 2809.53 1511.79 2812.53 1511.76ZM2751.63 1511.76C2756.15 1511.82 2759.73 1513.22 2762.39 1515.95 2765.04 1518.69 2766.4 1522.38 2766.46 1527.04 2766.39 1531.72 2765.02 1535.44 2762.35 1538.2 2759.68 1540.95 2756.13 1542.37 2751.69 1542.43 2747.22 1542.36 2743.64 1540.92 2740.95 1538.12 2738.25 1535.32 2736.87 1531.59 2736.8 1526.92 2736.86 1522.33 2738.22 1518.66 2740.88 1515.94 2743.53 1513.21 2747.12 1511.82 2751.63 1511.76ZM2709.12 1511.76C2710.52 1511.75 2712.05 1511.97 2713.71 1512.42 2715.37 1512.86 2716.81 1513.59 2718.03 1514.58 2719.25 1515.58 2719.89 1516.89 2719.95 1518.53 2719.93 1519.6 2719.64 1520.45 2719.07 1521.06 2718.5 1521.67 2717.74 1521.99 2716.79 1522 2715.83 1522 2715.02 1521.68 2714.35 1521.05 2713.67 1520.41 2713.32 1519.48 2713.3 1518.25 2714.06 1516.8 2714.03 1515.43 2713.19 1514.16 2712.35 1512.89 2711.04 1512.2 2709.24 1512.09 2707.7 1512.14 2706.32 1512.75 2705.12 1513.93 2703.91 1515.12 2702.95 1516.69 2702.25 1518.66 2701.55 1520.63 2701.19 1522.83 2701.17 1525.25 2701.17 1527.64 2701.55 1529.82 2702.32 1531.79 2703.08 1533.75 2704.22 1535.31 2705.74 1536.49 2707.26 1537.66 2709.16 1538.26 2711.43 1538.29 2712.97 1538.31 2714.46 1537.98 2715.91 1537.3 2717.36 1536.62 2718.5 1535.44 2719.33 1533.75L2719.67 1534.03C2718.86 1536.86 2717.43 1538.96 2715.37 1540.35 2713.31 1541.74 2711.06 1542.43 2708.62 1542.43 2706.16 1542.41 2703.93 1541.75 2701.92 1540.45 2699.91 1539.15 2698.3 1537.34 2697.1 1535.02 2695.9 1532.71 2695.28 1530.01 2695.25 1526.92 2695.33 1522.36 2696.63 1518.72 2699.16 1516 2701.7 1513.29 2705.02 1511.87 2709.12 1511.76ZM2679.61 1511.76C2683.5 1511.86 2686.57 1513.25 2688.83 1515.92 2691.1 1518.59 2692.25 1522.26 2692.3 1526.92L2692.3 1527.48 2671.61 1527.48C2671.95 1530.6 2672.97 1533.17 2674.67 1535.17 2676.38 1537.18 2678.74 1538.22 2681.76 1538.29 2683.29 1538.31 2684.79 1537.98 2686.23 1537.3 2687.68 1536.62 2688.82 1535.44 2689.65 1533.75L2689.99 1534.03C2689.18 1536.86 2687.75 1538.96 2685.69 1540.35 2683.63 1541.74 2681.38 1542.43 2678.94 1542.43 2676.48 1542.41 2674.25 1541.75 2672.24 1540.45 2670.23 1539.15 2668.62 1537.34 2667.42 1535.02 2666.22 1532.71 2665.6 1530.01 2665.57 1526.92 2665.59 1524.06 2666.16 1521.49 2667.3 1519.21 2668.43 1516.93 2670.05 1515.13 2672.14 1513.8 2674.23 1512.47 2676.72 1511.78 2679.61 1511.76ZM2656.32 1511.76C2657.54 1511.78 2658.72 1512.07 2659.89 1512.62 2661.05 1513.18 2662.02 1513.95 2662.79 1514.94 2663.56 1515.92 2663.96 1517.08 2663.99 1518.42 2663.98 1519.54 2663.68 1520.42 2663.11 1521.05 2662.54 1521.67 2661.78 1521.99 2660.83 1522 2659.87 1522 2659.06 1521.68 2658.39 1521.05 2657.72 1520.41 2657.37 1519.48 2657.34 1518.25 2658.15 1516.8 2658.32 1515.46 2657.84 1514.22 2657.37 1512.99 2656.47 1512.34 2655.14 1512.26 2653.63 1512.33 2652.32 1513.22 2651.23 1514.95 2650.13 1516.67 2649.52 1518.79 2649.39 1521.33L2649.39 1536.66C2649.39 1537.53 2649.54 1538.41 2649.82 1539.3 2650.11 1540.2 2650.51 1540.98 2651.02 1541.65L2651.13 1541.81 2649.05 1541.81C2647.36 1541.79 2646.01 1541.28 2645.01 1540.28 2644 1539.28 2643.49 1537.95 2643.47 1536.27L2643.47 1517.46C2643.46 1516.61 2643.3 1515.73 2643 1514.85 2642.7 1513.96 2642.29 1513.17 2641.77 1512.48L2641.66 1512.37 2643.8 1512.37C2645.49 1512.39 2646.83 1512.88 2647.82 1513.84 2648.82 1514.8 2649.34 1516.1 2649.39 1517.74 2649.89 1516.07 2650.71 1514.67 2651.86 1513.53 2653.01 1512.39 2654.49 1511.8 2656.32 1511.76ZM2625.59 1511.76C2629.13 1511.82 2631.99 1513.23 2634.17 1515.97 2636.36 1518.72 2637.48 1522.41 2637.55 1527.04 2637.48 1531.65 2636.39 1535.34 2634.28 1538.13 2632.17 1540.92 2629.44 1542.36 2626.1 1542.43 2623.69 1542.43 2621.7 1541.59 2620.12 1539.94 2618.53 1538.28 2617.43 1535.83 2616.8 1532.58L2616.8 1548.48C2616.8 1549.31 2616.95 1550.17 2617.23 1551.06 2617.52 1551.95 2617.92 1552.73 2618.43 1553.4L2618.54 1553.57 2617.81 1553.57C2615.7 1553.54 2614.02 1552.91 2612.78 1551.68 2611.54 1550.45 2610.9 1548.78 2610.88 1546.68L2610.88 1517.46C2610.87 1516.61 2610.71 1515.73 2610.41 1514.85 2610.11 1513.96 2609.7 1513.17 2609.18 1512.48L2609.07 1512.37 2609.86 1512.37C2611.95 1512.4 2613.62 1513.03 2614.87 1514.26 2616.12 1515.49 2616.76 1517.16 2616.8 1519.26L2616.8 1520.66C2617.31 1517.84 2618.27 1515.65 2619.67 1514.11 2621.07 1512.56 2623.05 1511.78 2625.59 1511.76ZM2585.09 1511.76C2586.31 1511.78 2587.5 1512.07 2588.66 1512.62 2589.83 1513.18 2590.79 1513.95 2591.56 1514.94 2592.33 1515.92 2592.73 1517.08 2592.76 1518.42 2592.75 1519.54 2592.45 1520.42 2591.88 1521.05 2591.31 1521.67 2590.55 1521.99 2589.6 1522 2588.65 1522 2587.83 1521.68 2587.16 1521.05 2586.49 1520.41 2586.14 1519.48 2586.11 1518.25 2586.92 1516.8 2587.09 1515.46 2586.62 1514.22 2586.14 1512.99 2585.24 1512.34 2583.91 1512.26 2582.4 1512.33 2581.09 1513.22 2580 1514.95 2578.9 1516.67 2578.29 1518.79 2578.16 1521.33L2578.16 1536.66C2578.16 1537.53 2578.31 1538.41 2578.6 1539.3 2578.88 1540.2 2579.28 1540.98 2579.79 1541.65L2579.91 1541.81 2577.82 1541.81C2576.13 1541.79 2574.79 1541.28 2573.78 1540.28 2572.78 1539.28 2572.26 1537.95 2572.24 1536.27L2572.24 1517.46C2572.23 1516.61 2572.08 1515.73 2571.77 1514.85 2571.47 1513.96 2571.06 1513.17 2570.55 1512.48L2570.43 1512.37 2572.58 1512.37C2574.26 1512.39 2575.6 1512.88 2576.59 1513.84 2577.59 1514.8 2578.11 1516.1 2578.16 1517.74 2578.66 1516.07 2579.49 1514.67 2580.63 1513.53 2581.78 1512.39 2583.26 1511.8 2585.09 1511.76ZM2520.14 1511.76C2524.66 1511.82 2528.24 1513.22 2530.9 1515.95 2533.55 1518.69 2534.91 1522.38 2534.97 1527.04 2534.9 1531.72 2533.53 1535.44 2530.86 1538.2 2528.19 1540.95 2524.64 1542.37 2520.2 1542.43 2515.73 1542.36 2512.15 1540.92 2509.45 1538.12 2506.76 1535.32 2505.38 1531.59 2505.31 1526.92 2505.37 1522.33 2506.73 1518.66 2509.38 1515.94 2512.04 1513.21 2515.62 1511.82 2520.14 1511.76ZM2457.82 1511.76C2462.33 1511.82 2465.92 1513.22 2468.57 1515.95 2471.23 1518.69 2472.58 1522.38 2472.65 1527.04 2472.58 1531.72 2471.21 1535.44 2468.54 1538.2 2465.87 1540.95 2462.31 1542.37 2457.87 1542.43 2453.4 1542.36 2449.82 1540.92 2447.13 1538.12 2444.44 1535.32 2443.06 1531.59 2442.99 1526.92 2443.05 1522.33 2444.4 1518.66 2447.06 1515.94 2449.71 1513.21 2453.3 1511.82 2457.82 1511.76ZM2382.66 1511.76C2384.06 1511.75 2385.58 1511.97 2387.25 1512.42 2388.91 1512.86 2390.35 1513.59 2391.57 1514.58 2392.79 1515.58 2393.43 1516.89 2393.49 1518.53 2393.47 1519.6 2393.18 1520.45 2392.61 1521.06 2392.03 1521.67 2391.28 1521.99 2390.33 1522 2389.37 1522 2388.55 1521.68 2387.88 1521.05 2387.21 1520.41 2386.86 1519.48 2386.83 1518.25 2387.6 1516.8 2387.56 1515.43 2386.73 1514.16 2385.89 1512.89 2384.57 1512.2 2382.77 1512.09 2381.24 1512.14 2379.86 1512.75 2378.65 1513.93 2377.44 1515.12 2376.49 1516.69 2375.79 1518.66 2375.08 1520.63 2374.73 1522.83 2374.71 1525.25 2374.71 1527.64 2375.09 1529.82 2375.85 1531.79 2376.62 1533.75 2377.76 1535.31 2379.28 1536.49 2380.8 1537.66 2382.7 1538.26 2384.97 1538.29 2386.51 1538.31 2388 1537.98 2389.45 1537.3 2390.9 1536.62 2392.03 1535.44 2392.87 1533.75L2393.21 1534.03C2392.4 1536.86 2390.97 1538.96 2388.91 1540.35 2386.85 1541.74 2384.59 1542.43 2382.15 1542.43 2379.7 1542.41 2377.47 1541.75 2375.46 1540.45 2373.45 1539.15 2371.84 1537.34 2370.64 1535.02 2369.44 1532.71 2368.82 1530.01 2368.79 1526.92 2368.86 1522.36 2370.17 1518.72 2372.7 1516 2375.24 1513.29 2378.55 1511.87 2382.66 1511.76ZM2352.25 1511.76C2356.11 1511.78 2359.11 1512.9 2361.24 1515.13 2363.37 1517.35 2364.46 1520.52 2364.49 1524.63L2364.49 1536.66C2364.49 1537.55 2364.64 1538.44 2364.92 1539.33 2365.21 1540.22 2365.61 1541.01 2366.12 1541.7L2366.23 1541.81 2365.44 1541.81C2363.51 1541.79 2361.94 1541.26 2360.74 1540.22 2359.53 1539.18 2358.81 1537.75 2358.56 1535.94 2358.12 1537.92 2357.09 1539.49 2355.46 1540.65 2353.84 1541.81 2351.73 1542.4 2349.15 1542.43 2346.16 1542.4 2343.72 1541.62 2341.85 1540.09 2339.97 1538.55 2339 1536.44 2338.94 1533.75 2338.97 1531.32 2339.82 1529.22 2341.49 1527.45 2343.16 1525.69 2345.45 1524.31 2348.36 1523.34 2351.28 1522.36 2354.62 1521.84 2358.4 1521.77 2358.14 1518.73 2357.49 1516.36 2356.45 1514.67 2355.41 1512.97 2353.97 1512.12 2352.14 1512.09 2350.27 1512.18 2348.91 1512.86 2348.04 1514.14 2347.17 1515.42 2347.15 1516.79 2347.96 1518.25 2347.93 1519.48 2347.58 1520.41 2346.91 1521.05 2346.24 1521.68 2345.43 1522 2344.47 1522 2343.52 1521.99 2342.76 1521.67 2342.19 1521.06 2341.62 1520.45 2341.33 1519.6 2341.31 1518.53 2341.34 1517.16 2341.86 1515.97 2342.87 1514.96 2343.88 1513.94 2345.21 1513.16 2346.86 1512.6 2348.51 1512.05 2350.3 1511.76 2352.25 1511.76ZM2290.83 1511.76C2294.71 1511.86 2297.78 1513.25 2300.05 1515.92 2302.31 1518.59 2303.47 1522.26 2303.51 1526.92L2303.51 1527.48 2282.82 1527.48C2283.16 1530.6 2284.18 1533.17 2285.89 1535.17 2287.59 1537.18 2289.95 1538.22 2292.97 1538.29 2294.51 1538.31 2296 1537.98 2297.45 1537.3 2298.89 1536.62 2300.03 1535.44 2300.86 1533.75L2301.2 1534.03C2300.4 1536.86 2298.96 1538.96 2296.9 1540.35 2294.84 1541.74 2292.59 1542.43 2290.15 1542.43 2287.7 1542.41 2285.46 1541.75 2283.45 1540.45 2281.44 1539.15 2279.84 1537.34 2278.63 1535.02 2277.43 1532.71 2276.82 1530.01 2276.79 1526.92 2276.8 1524.06 2277.37 1521.49 2278.51 1519.21 2279.64 1516.93 2281.26 1515.13 2283.35 1513.8 2285.45 1512.47 2287.94 1511.78 2290.83 1511.76ZM2237.41 1511.76C2241.29 1511.86 2244.36 1513.25 2246.63 1515.92 2248.89 1518.59 2250.04 1522.26 2250.09 1526.92L2250.09 1527.48 2229.4 1527.48C2229.74 1530.6 2230.76 1533.17 2232.47 1535.17 2234.17 1537.18 2236.53 1538.22 2239.55 1538.29 2241.09 1538.31 2242.58 1537.98 2244.02 1537.3 2245.47 1536.62 2246.61 1535.44 2247.44 1533.75L2247.78 1534.03C2246.98 1536.86 2245.54 1538.96 2243.48 1540.35 2241.42 1541.74 2239.17 1542.43 2236.73 1542.43 2234.27 1542.41 2232.04 1541.75 2230.03 1540.45 2228.02 1539.15 2226.42 1537.34 2225.21 1535.02 2224.01 1532.71 2223.4 1530.01 2223.37 1526.92 2223.38 1524.06 2223.95 1521.49 2225.09 1519.21 2226.22 1516.93 2227.84 1515.13 2229.93 1513.8 2232.03 1512.47 2234.52 1511.78 2237.41 1511.76ZM2119.9 1511.76C2123.17 1511.81 2125.56 1512.83 2127.05 1514.83 2128.55 1516.83 2129.28 1519.48 2129.26 1522.78L2129.26 1536.66C2129.26 1537.53 2129.41 1538.41 2129.7 1539.3 2129.98 1540.2 2130.38 1540.98 2130.89 1541.65L2131.01 1541.81 2130.22 1541.81C2128.13 1541.79 2126.46 1541.16 2125.21 1539.92 2123.95 1538.69 2123.31 1537.03 2123.28 1534.93L2123.28 1522.22C2123.27 1519.63 2122.69 1517.63 2121.53 1516.23 2120.37 1514.83 2118.7 1514.12 2116.51 1514.11 2114.39 1514.13 2112.67 1514.78 2111.35 1516.07 2110.02 1517.35 2109.3 1519.12 2109.18 1521.38L2109.18 1536.66C2109.19 1537.53 2109.33 1538.41 2109.62 1539.3 2109.91 1540.2 2110.31 1540.98 2110.82 1541.65L2110.93 1541.81 2110.2 1541.81C2108.08 1541.79 2106.41 1541.16 2105.17 1539.92 2103.93 1538.69 2103.29 1537.03 2103.26 1534.93L2103.26 1517.46C2103.26 1516.61 2103.1 1515.73 2102.8 1514.85 2102.49 1513.96 2102.09 1513.17 2101.57 1512.48L2101.46 1512.37 2102.25 1512.37C2104.22 1512.39 2105.82 1512.95 2107.04 1514.04 2108.27 1515.12 2108.96 1516.6 2109.13 1518.47 2109.93 1516.38 2111.3 1514.74 2113.22 1513.56 2115.15 1512.38 2117.37 1511.78 2119.9 1511.76ZM2058.43 1511.76C2062.3 1511.78 2065.3 1512.9 2067.43 1515.13 2069.56 1517.35 2070.64 1520.52 2070.67 1524.63L2070.67 1536.66C2070.68 1537.55 2070.82 1538.44 2071.11 1539.33 2071.39 1540.22 2071.79 1541.01 2072.31 1541.7L2072.42 1541.81 2071.63 1541.81C2069.69 1541.79 2068.12 1541.26 2066.92 1540.22 2065.72 1539.18 2064.99 1537.75 2064.75 1535.94 2064.31 1537.92 2063.27 1539.49 2061.65 1540.65 2060.02 1541.81 2057.92 1542.4 2055.33 1542.43 2052.34 1542.4 2049.91 1541.62 2048.03 1540.09 2046.15 1538.55 2045.18 1536.44 2045.13 1533.75 2045.16 1531.32 2046.01 1529.22 2047.68 1527.45 2049.34 1525.69 2051.63 1524.31 2054.55 1523.34 2057.46 1522.36 2060.81 1521.84 2064.58 1521.77 2064.33 1518.73 2063.68 1516.36 2062.63 1514.67 2061.59 1512.97 2060.15 1512.12 2058.32 1512.09 2056.46 1512.18 2055.09 1512.86 2054.23 1514.14 2053.36 1515.42 2053.33 1516.79 2054.15 1518.25 2054.12 1519.48 2053.77 1520.41 2053.1 1521.05 2052.43 1521.68 2051.61 1522 2050.65 1522 2049.71 1521.99 2048.95 1521.67 2048.38 1521.06 2047.8 1520.45 2047.51 1519.6 2047.49 1518.53 2047.52 1517.16 2048.04 1515.97 2049.05 1514.96 2050.06 1513.94 2051.39 1513.16 2053.04 1512.6 2054.69 1512.05 2056.49 1511.76 2058.43 1511.76ZM2036.04 1511.76C2037.26 1511.78 2038.45 1512.07 2039.61 1512.62 2040.78 1513.18 2041.74 1513.95 2042.51 1514.94 2043.28 1515.92 2043.68 1517.08 2043.71 1518.42 2043.7 1519.54 2043.4 1520.42 2042.83 1521.05 2042.26 1521.67 2041.5 1521.99 2040.56 1522 2039.6 1522 2038.78 1521.68 2038.11 1521.05 2037.44 1520.41 2037.09 1519.48 2037.06 1518.25 2037.87 1516.8 2038.04 1515.46 2037.57 1514.22 2037.09 1512.99 2036.19 1512.34 2034.86 1512.26 2033.35 1512.33 2032.04 1513.22 2030.95 1514.95 2029.85 1516.67 2029.24 1518.79 2029.11 1521.33L2029.11 1536.66C2029.11 1537.53 2029.26 1538.41 2029.55 1539.3 2029.83 1540.2 2030.23 1540.98 2030.74 1541.65L2030.86 1541.81 2028.77 1541.81C2027.08 1541.79 2025.74 1541.28 2024.73 1540.28 2023.73 1539.28 2023.21 1537.95 2023.19 1536.27L2023.19 1517.46C2023.18 1516.61 2023.03 1515.73 2022.72 1514.85 2022.42 1513.96 2022.01 1513.17 2021.5 1512.48L2021.38 1512.37 2023.53 1512.37C2025.21 1512.39 2026.55 1512.88 2027.54 1513.84 2028.54 1514.8 2029.06 1516.1 2029.11 1517.74 2029.61 1516.07 2030.44 1514.67 2031.58 1513.53 2032.73 1512.39 2034.22 1511.8 2036.04 1511.76ZM1973.27 1511.76C1977.15 1511.86 1980.23 1513.25 1982.49 1515.92 1984.75 1518.59 1985.91 1522.26 1985.96 1526.92L1985.96 1527.48 1965.26 1527.48C1965.6 1530.6 1966.63 1533.17 1968.33 1535.17 1970.03 1537.18 1972.39 1538.22 1975.41 1538.29 1976.95 1538.31 1978.44 1537.98 1979.89 1537.3 1981.33 1536.62 1982.47 1535.44 1983.31 1533.75L1983.64 1534.03C1982.84 1536.86 1981.41 1538.96 1979.34 1540.35 1977.28 1541.74 1975.03 1542.43 1972.59 1542.43 1970.14 1542.41 1967.9 1541.75 1965.89 1540.45 1963.88 1539.15 1962.28 1537.34 1961.08 1535.02 1959.87 1532.71 1959.26 1530.01 1959.23 1526.92 1959.24 1524.06 1959.82 1521.49 1960.95 1519.21 1962.09 1516.93 1963.7 1515.13 1965.79 1513.8 1967.89 1512.47 1970.38 1511.78 1973.27 1511.76ZM1931.72 1511.76C1935.6 1511.86 1938.68 1513.25 1940.94 1515.92 1943.2 1518.59 1944.36 1522.26 1944.41 1526.92L1944.41 1527.48 1923.71 1527.48C1924.05 1530.6 1925.08 1533.17 1926.78 1535.17 1928.48 1537.18 1930.84 1538.22 1933.86 1538.29 1935.4 1538.31 1936.89 1537.98 1938.34 1537.3 1939.78 1536.62 1940.92 1535.44 1941.76 1533.75L1942.09 1534.03C1941.29 1536.86 1939.86 1538.96 1937.8 1540.35 1935.73 1541.74 1933.48 1542.43 1931.04 1542.43 1928.59 1542.41 1926.35 1541.75 1924.34 1540.45 1922.33 1539.15 1920.73 1537.34 1919.53 1535.02 1918.32 1532.71 1917.71 1530.01 1917.68 1526.92 1917.69 1524.06 1918.27 1521.49 1919.4 1519.21 1920.54 1516.93 1922.15 1515.13 1924.24 1513.8 1926.34 1512.47 1928.83 1511.78 1931.72 1511.76ZM1901.87 1511.76C1903.27 1511.75 1904.79 1511.97 1906.46 1512.42 1908.12 1512.86 1909.56 1513.59 1910.78 1514.58 1912 1515.58 1912.64 1516.89 1912.7 1518.53 1912.68 1519.6 1912.39 1520.45 1911.82 1521.06 1911.24 1521.67 1910.49 1521.99 1909.54 1522 1908.58 1522 1907.77 1521.68 1907.09 1521.05 1906.42 1520.41 1906.07 1519.48 1906.04 1518.25 1906.81 1516.8 1906.77 1515.43 1905.94 1514.16 1905.1 1512.89 1903.79 1512.2 1901.98 1512.09 1900.45 1512.14 1899.07 1512.75 1897.86 1513.93 1896.65 1515.12 1895.7 1516.69 1895 1518.66 1894.29 1520.63 1893.94 1522.83 1893.92 1525.25 1893.92 1527.64 1894.3 1529.82 1895.07 1531.79 1895.83 1533.75 1896.97 1535.31 1898.49 1536.49 1900.01 1537.66 1901.91 1538.26 1904.18 1538.29 1905.72 1538.31 1907.21 1537.98 1908.66 1537.3 1910.11 1536.62 1911.24 1535.44 1912.08 1533.75L1912.42 1534.03C1911.61 1536.86 1910.18 1538.96 1908.12 1540.35 1906.06 1541.74 1903.81 1542.43 1901.36 1542.43 1898.91 1542.41 1896.68 1541.75 1894.67 1540.45 1892.66 1539.15 1891.05 1537.34 1889.85 1535.02 1888.65 1532.71 1888.03 1530.01 1888 1526.92 1888.07 1522.36 1889.38 1518.72 1891.91 1516 1894.45 1513.29 1897.77 1511.87 1901.87 1511.76ZM2182.99 1508.84 2183.55 1508.84 2183.55 1512.37 2187.16 1512.37 2187.16 1512.93 2183.55 1512.93 2183.55 1536.61C2183.56 1537.5 2183.72 1538.41 2184.04 1539.33 2184.36 1540.25 2184.78 1541.06 2185.3 1541.76L2184.56 1541.76C2182.45 1541.73 2180.77 1541.11 2179.53 1539.89 2178.29 1538.67 2177.66 1537 2177.63 1534.87L2177.63 1512.93 2175.54 1512.93 2175.54 1512.37 2178.14 1512.37C2179.57 1512.15 2180.73 1511.63 2181.62 1510.8 2182.5 1509.97 2182.96 1509.32 2182.99 1508.84ZM2082.08 1508.84 2082.64 1508.84 2082.64 1512.37 2086.25 1512.37 2086.25 1512.93 2082.64 1512.93 2082.64 1536.61C2082.65 1537.5 2082.82 1538.41 2083.14 1539.33 2083.46 1540.25 2083.87 1541.06 2084.39 1541.76L2083.66 1541.76C2081.54 1541.73 2079.87 1541.11 2078.62 1539.89 2077.38 1538.67 2076.75 1537 2076.72 1534.87L2076.72 1512.93 2074.64 1512.93 2074.64 1512.37 2077.23 1512.37C2078.66 1512.15 2079.83 1511.63 2080.71 1510.8 2081.6 1509.97 2082.05 1509.32 2082.08 1508.84ZM2329.06 1505.71C2329.85 1505.51 2330.66 1505.53 2331.5 1505.77 2332.33 1506.06 2332.9 1506.52 2333.24 1507.14 2333.57 1507.76 2333.61 1508.44 2333.36 1509.18 2333.1 1509.9 2332.62 1510.44 2331.94 1510.8 2331.25 1511.15 2330.41 1511.17 2329.42 1510.86 2328.52 1509.9 2327.47 1509.54 2326.26 1509.8 2325.06 1510.06 2324.13 1510.84 2323.49 1512.15 2326.4 1512.79 2328.68 1514.07 2330.33 1515.99 2331.98 1517.9 2332.82 1520.26 2332.85 1523.06 2332.8 1526.44 2331.61 1529.12 2329.29 1531.1 2326.96 1533.09 2323.83 1534.1 2319.89 1534.15 2318.27 1534.14 2316.79 1533.96 2315.42 1533.61 2314.06 1533.25 2312.84 1532.72 2311.77 1532.02 2310.52 1533 2309.89 1533.93 2309.88 1534.81 2309.86 1535.69 2310.64 1536.16 2312.22 1536.22 2313.7 1536.15 2315.64 1535.85 2318.03 1535.32 2320.43 1534.79 2322.86 1534.43 2325.33 1534.23 2327.79 1534.03 2329.87 1534.39 2331.56 1535.32 2333.26 1536.24 2334.14 1538.13 2334.21 1540.97 2334.16 1543.71 2333.38 1546.06 2331.87 1548.03 2330.36 1550 2328.41 1551.52 2326.02 1552.58 2323.63 1553.64 2321.1 1554.17 2318.42 1554.18 2316.46 1554.18 2314.57 1553.89 2312.75 1553.33 2310.93 1552.77 2309.43 1551.97 2308.24 1550.93 2307.06 1549.9 2306.45 1548.67 2306.41 1547.24 2306.42 1546.25 2306.72 1545.45 2307.29 1544.86 2307.86 1544.26 2308.62 1543.96 2309.57 1543.94 2310.5 1543.94 2311.31 1544.26 2311.99 1544.89 2312.67 1545.52 2313.03 1546.46 2313.06 1547.69 2312.29 1549.17 2312.54 1550.56 2313.81 1551.85 2315.08 1553.14 2316.94 1553.82 2319.38 1553.9 2321.17 1553.87 2323.01 1553.42 2324.91 1552.54 2326.82 1551.66 2328.43 1550.42 2329.76 1548.83 2331.09 1547.24 2331.78 1545.37 2331.84 1543.21 2331.8 1541.32 2331.21 1540.17 2330.05 1539.76 2328.9 1539.34 2327.4 1539.33 2325.55 1539.74 2323.71 1540.14 2321.73 1540.62 2319.61 1541.17 2317.5 1541.73 2315.47 1542.04 2313.51 1542.09 2310.76 1542.01 2308.96 1541.31 2308.1 1539.97 2307.23 1538.64 2307.12 1537.18 2307.77 1535.58 2308.41 1533.98 2309.61 1532.73 2311.37 1531.85 2309.92 1530.86 2308.79 1529.63 2307.98 1528.15 2307.17 1526.67 2306.76 1524.97 2306.75 1523.06 2306.81 1519.68 2308.02 1516.96 2310.4 1514.91 2312.77 1512.86 2315.93 1511.81 2319.89 1511.76 2321.07 1511.76 2322.2 1511.87 2323.27 1512.09 2324.1 1509.9 2325.26 1508.18 2326.75 1506.93 2327.5 1506.31 2328.27 1505.9 2329.06 1505.71ZM2156.92 1505.71C2157.71 1505.51 2158.53 1505.53 2159.37 1505.77 2160.19 1506.06 2160.77 1506.52 2161.1 1507.14 2161.43 1507.76 2161.47 1508.44 2161.23 1509.18 2160.96 1509.9 2160.49 1510.44 2159.8 1510.8 2159.12 1511.15 2158.28 1511.17 2157.28 1510.86 2156.39 1509.9 2155.34 1509.54 2154.13 1509.8 2152.92 1510.06 2152 1510.84 2151.36 1512.15 2154.27 1512.79 2156.54 1514.07 2158.2 1515.99 2159.85 1517.9 2160.69 1520.26 2160.72 1523.06 2160.67 1526.44 2159.48 1529.12 2157.15 1531.1 2154.83 1533.09 2151.7 1534.1 2147.75 1534.15 2146.14 1534.14 2144.65 1533.96 2143.29 1533.61 2141.93 1533.25 2140.71 1532.72 2139.63 1532.02 2138.39 1533 2137.76 1533.93 2137.74 1534.81 2137.73 1535.69 2138.51 1536.16 2140.08 1536.22 2141.56 1536.15 2143.5 1535.85 2145.9 1535.32 2148.29 1534.79 2150.73 1534.43 2153.19 1534.23 2155.66 1534.03 2157.74 1534.39 2159.43 1535.32 2161.12 1536.24 2162 1538.13 2162.07 1540.97 2162.02 1543.71 2161.25 1546.06 2159.73 1548.03 2158.22 1550 2156.27 1551.52 2153.89 1552.58 2151.5 1553.64 2148.96 1554.17 2146.28 1554.18 2144.33 1554.18 2142.44 1553.89 2140.61 1553.33 2138.79 1552.77 2137.29 1551.97 2136.11 1550.93 2134.93 1549.9 2134.32 1548.67 2134.27 1547.24 2134.29 1546.25 2134.58 1545.45 2135.16 1544.86 2135.73 1544.26 2136.49 1543.96 2137.43 1543.94 2138.37 1543.94 2139.18 1544.26 2139.86 1544.89 2140.54 1545.52 2140.89 1546.46 2140.93 1547.69 2140.15 1549.17 2140.4 1550.56 2141.67 1551.85 2142.95 1553.14 2144.8 1553.82 2147.24 1553.9 2149.03 1553.87 2150.88 1553.42 2152.78 1552.54 2154.68 1551.66 2156.3 1550.42 2157.63 1548.83 2158.95 1547.24 2159.65 1545.37 2159.71 1543.21 2159.67 1541.32 2159.07 1540.17 2157.92 1539.76 2156.77 1539.34 2155.26 1539.33 2153.42 1539.74 2151.57 1540.14 2149.59 1540.62 2147.48 1541.17 2145.36 1541.73 2143.33 1542.04 2141.38 1542.09 2138.63 1542.01 2136.82 1541.31 2135.96 1539.97 2135.1 1538.64 2134.99 1537.18 2135.63 1535.58 2136.27 1533.98 2137.47 1532.73 2139.24 1531.85 2137.79 1530.86 2136.66 1529.63 2135.85 1528.15 2135.04 1526.67 2134.62 1524.97 2134.61 1523.06 2134.67 1519.68 2135.89 1516.96 2138.26 1514.91 2140.64 1512.86 2143.8 1511.81 2147.75 1511.76 2148.93 1511.76 2150.06 1511.87 2151.13 1512.09 2151.96 1509.9 2153.12 1508.18 2154.62 1506.93 2155.36 1506.31 2156.13 1505.9 2156.92 1505.71ZM2918.74 1500.56 2922.35 1500.56C2923.38 1500.58 2924.2 1500.89 2924.8 1501.5 2925.41 1502.1 2925.72 1502.89 2925.73 1503.86L2925.73 1507.5 2922.12 1507.5C2921.1 1507.49 2920.28 1507.18 2919.67 1506.58 2919.07 1505.98 2918.76 1505.16 2918.74 1504.14ZM2725.94 1500.56 2729.55 1500.56C2730.58 1500.58 2731.4 1500.89 2732.01 1501.5 2732.61 1502.1 2732.92 1502.89 2732.94 1503.86L2732.94 1507.5 2729.33 1507.5C2728.3 1507.49 2727.48 1507.18 2726.87 1506.58 2726.27 1505.98 2725.96 1505.16 2725.94 1504.14ZM2264.24 1500.56 2265.03 1500.56C2267.12 1500.59 2268.79 1501.23 2270.04 1502.47 2271.29 1503.71 2271.93 1505.37 2271.96 1507.44L2271.96 1536.66C2271.97 1537.53 2272.11 1538.41 2272.4 1539.3 2272.69 1540.2 2273.09 1540.98 2273.6 1541.65L2273.71 1541.81 2272.98 1541.81C2270.86 1541.79 2269.19 1541.16 2267.95 1539.92 2266.71 1538.69 2266.07 1537.03 2266.04 1534.93L2266.04 1505.71C2266.04 1504.83 2265.88 1503.95 2265.58 1503.06 2265.27 1502.18 2264.87 1501.39 2264.35 1500.67ZM2190.04 1500.56 2190.83 1500.56C2192.92 1500.59 2194.59 1501.23 2195.84 1502.47 2197.09 1503.71 2197.74 1505.37 2197.77 1507.44L2197.77 1518.36C2198.57 1516.32 2199.94 1514.72 2201.86 1513.55 2203.78 1512.38 2205.98 1511.78 2208.48 1511.76 2211.76 1511.81 2214.14 1512.83 2215.64 1514.83 2217.13 1516.83 2217.86 1519.48 2217.84 1522.78L2217.84 1536.66C2217.85 1537.53 2217.99 1538.41 2218.28 1539.3 2218.57 1540.2 2218.97 1540.98 2219.48 1541.65L2219.59 1541.81 2218.8 1541.81C2216.71 1541.79 2215.04 1541.16 2213.79 1539.92 2212.54 1538.69 2211.9 1537.03 2211.86 1534.93L2211.86 1522.22C2211.85 1519.63 2211.27 1517.63 2210.11 1516.23 2208.95 1514.83 2207.28 1514.12 2205.1 1514.11 2202.98 1514.13 2201.26 1514.78 2199.93 1516.07 2198.61 1517.35 2197.89 1519.12 2197.77 1521.38L2197.77 1536.66C2197.77 1537.53 2197.92 1538.41 2198.2 1539.3 2198.49 1540.2 2198.89 1540.98 2199.4 1541.65L2199.52 1541.81 2198.78 1541.81C2196.67 1541.79 2194.99 1541.16 2193.75 1539.92 2192.51 1538.69 2191.88 1537.03 2191.85 1534.93L2191.85 1505.71C2191.84 1504.83 2191.68 1503.95 2191.38 1503.06 2191.08 1502.18 2190.67 1501.39 2190.16 1500.67ZM2090.83 1500.56 2094.44 1500.56C2095.47 1500.58 2096.28 1500.89 2096.89 1501.5 2097.5 1502.1 2097.81 1502.89 2097.82 1503.86L2097.82 1507.5 2094.21 1507.5C2093.18 1507.49 2092.36 1507.18 2091.76 1506.58 2091.15 1505.98 2090.84 1505.16 2090.83 1504.14ZM1988.4 1500.56 1989.19 1500.56C1991.28 1500.59 1992.95 1501.23 1994.2 1502.47 1995.45 1503.71 1996.09 1505.37 1996.12 1507.44L1996.12 1520.66C1996.64 1517.84 1997.6 1515.65 1999 1514.11 2000.4 1512.56 2002.38 1511.78 2004.92 1511.76 2008.45 1511.82 2011.31 1513.23 2013.5 1515.97 2015.69 1518.72 2016.81 1522.41 2016.88 1527.04 2016.88 1531.65 2015.65 1535.34 2013.19 1538.13 2010.73 1540.92 2007.03 1542.36 2002.1 1542.43 2000.26 1542.43 1998.61 1542.21 1997.16 1541.79 1995.71 1541.36 1994.5 1540.76 1993.53 1539.97L1990.77 1541.81 1990.2 1541.81 1990.2 1505.71C1990.2 1504.83 1990.04 1503.95 1989.74 1503.06 1989.44 1502.18 1989.03 1501.39 1988.51 1500.67ZM1946.68 1500.56 1947.47 1500.56C1949.56 1500.59 1951.23 1501.23 1952.48 1502.47 1953.73 1503.71 1954.37 1505.37 1954.41 1507.44L1954.41 1536.66C1954.41 1537.53 1954.56 1538.41 1954.84 1539.3 1955.13 1540.2 1955.53 1540.98 1956.04 1541.65L1956.15 1541.81 1955.42 1541.81C1953.31 1541.79 1951.63 1541.16 1950.39 1539.92 1949.15 1538.69 1948.51 1537.03 1948.48 1534.93L1948.48 1505.71C1948.48 1504.83 1948.32 1503.95 1948.02 1503.06 1947.72 1502.18 1947.31 1501.39 1946.79 1500.67ZM2860.64 1500.28C2856.3 1500.36 2852.88 1502.26 2850.37 1505.99 2847.87 1509.72 2846.59 1514.81 2846.54 1521.27 2846.6 1527.72 2847.89 1532.79 2850.42 1536.47 2852.94 1540.15 2856.35 1542.02 2860.64 1542.09 2864.91 1542.02 2868.27 1540.14 2870.72 1536.44 2873.16 1532.74 2874.41 1527.67 2874.45 1521.21 2874.4 1514.71 2873.15 1509.61 2870.7 1505.92 2868.24 1502.23 2864.89 1500.35 2860.64 1500.28ZM2486.4 1500.06C2488.89 1500.08 2490.95 1500.69 2492.59 1501.86 2494.23 1503.04 2495.08 1504.62 2495.14 1506.61 2495.13 1507.76 2494.83 1508.65 2494.26 1509.29 2493.69 1509.92 2492.93 1510.24 2491.98 1510.24 2491.02 1510.24 2490.21 1509.92 2489.54 1509.29 2488.87 1508.66 2488.52 1507.73 2488.49 1506.49 2489.28 1505.03 2489.49 1503.66 2489.11 1502.36 2488.73 1501.06 2487.92 1500.37 2486.68 1500.28 2485.44 1500.29 2484.59 1501.27 2484.12 1503.21 2483.66 1505.16 2483.44 1508.02 2483.47 1511.81L2483.47 1512.37 2490.86 1512.37 2490.86 1512.93 2483.47 1512.93 2483.47 1536.66C2483.48 1537.55 2483.63 1538.44 2483.93 1539.33 2484.24 1540.22 2484.65 1541.01 2485.16 1541.7L2485.27 1541.81 2484.48 1541.81C2482.39 1541.79 2480.72 1541.16 2479.47 1539.92 2478.22 1538.69 2477.58 1537.03 2477.55 1534.93L2477.55 1512.93 2475.07 1512.93 2475.07 1512.37 2477.55 1512.37 2477.55 1511.59C2477.49 1508.39 2478.1 1505.69 2479.4 1503.49 2480.69 1501.29 2483.02 1500.15 2486.4 1500.06ZM2860.52 1500C2866.58 1500.08 2871.38 1501.99 2874.93 1505.74 2878.48 1509.5 2880.29 1514.62 2880.37 1521.1 2880.29 1527.58 2878.48 1532.72 2874.93 1536.55 2871.38 1540.38 2866.58 1542.34 2860.52 1542.43 2854.49 1542.35 2849.68 1540.41 2846.11 1536.62 2842.53 1532.83 2840.7 1527.68 2840.62 1521.16 2840.7 1514.62 2842.52 1509.48 2846.09 1505.73 2849.65 1501.98 2854.46 1500.07 2860.52 1500Z" fill="#FFFFFF" fill-rule="evenodd"/>
  </g>
</svg>