<svg width="1650" height="326"
  xmlns="http://www.w3.org/2000/svg"
  xmlns:xlink="http://www.w3.org/1999/xlink" xml:space="preserve" overflow="hidden">
  <defs>
    <clipPath id="clip0">
      <rect x="550" y="439" width="1650" height="326"/>
    </clipPath>
  </defs>
  <g clip-path="url(#clip0)" transform="translate(-550 -439)">
    <path d="M1896.25 535.347C1878.67 536.264 1864.31 541.411 1853.17 550.786 1842.03 560.162 1836.28 572.793 1835.92 588.677 1836.08 599.489 1838.72 607.99 1843.84 614.179 1848.96 620.369 1855.62 623.523 1863.82 623.644 1872.89 623.34 1880.58 619.86 1886.89 613.204 1893.19 606.549 1896.48 598.541 1896.75 589.181L1896.75 548.176C1896.71 543.648 1896.54 539.372 1896.25 535.347ZM1226.72 535.347C1209.14 536.264 1194.78 541.411 1183.64 550.786 1172.5 560.162 1166.75 572.793 1166.39 588.677 1166.55 599.489 1169.19 607.99 1174.31 614.179 1179.43 620.369 1186.09 623.523 1194.29 623.644 1203.36 623.34 1211.05 619.86 1217.36 613.204 1223.66 606.549 1226.95 598.541 1227.22 589.181L1227.22 548.176C1227.18 543.648 1227.01 539.372 1226.72 535.347ZM612.842 496.858 598.263 566.792 667.892 566.792 682.723 496.858ZM2063 492.079 2068.79 492.079C2078.26 492.189 2086.96 494.736 2094.87 499.72 2102.77 504.704 2108.83 511.465 2113.03 520.002L2144.2 585.407 2179.14 513.21C2180.77 509.966 2181.53 506.454 2181.43 502.676 2181.33 498.897 2180.4 495.449 2178.63 492.33L2178.63 492.079 2200 492.079 2196.73 494.846C2193.89 497.199 2191.15 500.04 2188.5 503.368 2185.85 506.695 2183.73 509.976 2182.15 513.21L2132.13 616.349C2124.31 632.736 2118.08 645.578 2113.44 654.875 2108.79 664.172 2104.39 670.715 2100.22 674.506 2096.05 678.296 2090.77 680.125 2084.37 679.993 2077.6 679.977 2071.15 678.374 2065.02 675.182 2058.88 671.99 2052.93 667.305 2047.17 661.126L2060.74 647.542C2061.97 651.393 2063.65 655.598 2065.78 660.157 2067.91 664.716 2070.67 668.661 2074.06 671.99 2077.44 675.319 2081.64 677.065 2086.63 677.226 2091.19 677.299 2095.37 675.364 2099.15 671.422 2102.94 667.479 2107.14 661.091 2111.73 652.256 2116.33 643.423 2122.12 631.705 2129.11 617.104L2080.85 513.461C2079.17 510.107 2077.07 506.753 2074.54 503.399 2072.01 500.045 2069.34 497.194 2066.52 494.846ZM1488.94 492.079C1480.38 492.416 1473.62 496.186 1468.67 503.39 1463.71 510.593 1460.13 519.208 1457.94 529.235 1455.75 539.262 1454.52 548.678 1454.25 557.484L1519.86 557.484C1519.63 536.71 1516.95 520.652 1511.85 509.311 1506.74 497.97 1499.11 492.226 1488.94 492.079ZM921.266 492.079 924.786 492.079C934.102 492.205 941.549 495.035 947.126 500.569 952.703 506.103 955.562 513.587 955.704 523.021L955.704 601.255C955.725 605.128 956.374 609.08 957.652 613.11 958.93 617.14 960.71 620.652 962.994 623.644L963.496 624.399 960.228 624.399C950.802 624.273 943.324 621.443 937.794 615.909 932.264 610.374 929.436 602.891 929.31 593.457L929.31 514.971C929.279 511.114 928.588 507.193 927.237 503.21 925.885 499.227 924.063 495.685 921.769 492.582ZM2015.84 489.312C2021.25 489.43 2026.55 490.731 2031.74 493.216 2036.93 495.7 2041.25 499.163 2044.68 503.604 2048.11 508.045 2049.9 513.259 2050.02 519.247 2049.96 524.32 2048.65 528.262 2046.1 531.07 2043.55 533.88 2040.16 535.305 2035.95 535.347 2031.67 535.337 2028.04 533.911 2025.05 531.07 2022.06 528.23 2020.49 524.037 2020.36 518.492 2023.98 511.978 2024.73 505.951 2022.63 500.412 2020.52 494.872 2016.5 491.927 2010.56 491.576 2003.82 491.89 1998.01 495.915 1993.12 503.651 1988.24 511.386 1985.5 520.945 1984.92 532.328L1984.92 601.255C1984.94 605.128 1985.59 609.08 1986.87 613.11 1988.15 617.14 1989.93 620.652 1992.21 623.644L1992.71 624.399 1983.41 624.399C1975.89 624.289 1969.89 621.993 1965.41 617.512 1960.93 613.031 1958.64 607.025 1958.53 599.495L1958.53 514.971C1958.5 511.114 1957.8 507.193 1956.45 503.21 1955.1 499.227 1953.28 495.685 1950.99 492.582L1950.48 492.079 1960.04 492.079C1967.54 492.173 1973.51 494.374 1977.95 498.682 1982.38 502.99 1984.7 508.839 1984.92 516.229 1987.17 508.724 1990.84 502.414 1995.95 497.299 2001.06 492.184 2007.69 489.521 2015.84 489.312ZM1868.85 489.312C1886.08 489.427 1899.45 494.479 1908.95 504.468 1918.44 514.457 1923.26 528.691 1923.4 547.17L1923.4 601.255C1923.42 605.233 1924.07 609.227 1925.35 613.236 1926.62 617.245 1928.41 620.798 1930.69 623.896L1931.19 624.399 1927.67 624.399C1919.04 624.304 1912.05 621.915 1906.68 617.229 1901.32 612.544 1898.09 606.129 1897.01 597.985 1895.04 606.905 1890.43 613.97 1883.18 619.179 1875.93 624.388 1866.55 627.051 1855.03 627.166 1841.69 627.035 1830.84 623.523 1822.47 616.632 1814.11 609.74 1809.79 600.254 1809.53 588.174 1809.67 577.228 1813.46 567.787 1820.9 559.851 1828.33 551.914 1838.54 545.753 1851.54 541.366 1864.53 536.979 1879.43 534.637 1896.25 534.341 1895.12 520.641 1892.23 509.992 1887.58 502.393 1882.93 494.794 1876.52 490.936 1868.35 490.821 1860.05 491.204 1853.96 494.275 1850.09 500.034 1846.22 505.794 1846.11 511.947 1849.75 518.492 1849.62 524.037 1848.06 528.23 1845.07 531.07 1842.08 533.911 1838.44 535.337 1834.16 535.347 1829.95 535.295 1826.56 533.89 1824.01 531.133 1821.46 528.377 1820.15 524.582 1820.09 519.75 1820.21 513.593 1822.53 508.242 1827.03 503.697 1831.53 499.152 1837.46 495.627 1844.81 493.122 1852.17 490.618 1860.18 489.348 1868.85 489.312ZM1736.98 489.312C1745.32 489.348 1753.07 490.618 1760.24 493.122 1767.41 495.627 1773.21 499.152 1777.64 503.697 1782.07 508.242 1784.35 513.593 1784.48 519.75 1784.4 524.582 1783.06 528.377 1780.46 531.133 1777.86 533.89 1774.51 535.295 1770.41 535.347 1766.13 535.337 1762.49 533.911 1759.5 531.07 1756.51 528.23 1754.95 524.037 1754.82 518.492 1758.22 511.947 1758.02 505.794 1754.23 500.034 1750.43 494.275 1744.51 491.204 1736.47 490.821 1730.29 490.962 1725.18 493.006 1721.14 496.953 1717.1 500.899 1715 505.899 1714.85 511.952 1715.22 519.824 1718.86 526.438 1725.77 531.794 1732.69 537.15 1740.7 542.317 1749.8 547.296 1758.89 552.275 1766.9 558.134 1773.82 564.874 1780.73 571.613 1784.37 580.303 1784.74 590.941 1784.52 602.482 1780.24 611.412 1771.88 617.732 1763.53 624.053 1752.4 627.197 1738.48 627.166 1730.22 627.132 1722.5 625.858 1715.33 623.346 1708.16 620.834 1702.34 617.287 1697.87 612.706 1693.41 608.125 1691.11 602.715 1690.97 596.476 1691.04 591.754 1692.35 587.991 1694.9 585.187 1697.45 582.383 1700.84 580.947 1705.05 580.879 1709.21 580.9 1712.83 582.367 1715.89 585.281 1718.96 588.195 1720.62 592.43 1720.89 597.985 1717.24 604.531 1717.31 610.684 1721.11 616.443 1724.9 622.203 1730.95 625.274 1739.24 625.657 1746.05 625.484 1751.65 623.188 1756.05 618.77 1760.44 614.352 1762.71 608.849 1762.87 602.262 1762.5 594.133 1758.88 587.31 1751.99 581.791 1745.1 576.272 1737.12 571.021 1728.05 566.037 1718.99 561.053 1711.01 555.299 1704.12 548.774 1697.23 542.249 1693.6 533.916 1693.24 523.775 1693.41 513.425 1697.4 505.134 1705.21 498.902 1713.02 492.671 1723.61 489.474 1736.98 489.312ZM1635.26 489.312C1640.67 489.43 1645.97 490.731 1651.16 493.216 1656.36 495.7 1660.67 499.163 1664.1 503.604 1667.54 508.045 1669.32 513.259 1669.45 519.247 1669.38 524.32 1668.07 528.262 1665.52 531.07 1662.97 533.88 1659.59 535.305 1655.37 535.347 1651.09 535.337 1647.46 533.911 1644.47 531.07 1641.48 528.23 1639.92 524.037 1639.79 518.492 1643.4 511.978 1644.15 505.951 1642.05 500.412 1639.94 494.872 1635.92 491.927 1629.98 491.576 1623.24 491.89 1617.43 495.915 1612.55 503.651 1607.66 511.386 1604.93 520.945 1604.34 532.328L1604.34 601.255C1604.37 605.128 1605.01 609.08 1606.29 613.11 1607.57 617.14 1609.35 620.652 1611.63 623.644L1612.14 624.399 1602.84 624.399C1595.31 624.289 1589.31 621.993 1584.83 617.512 1580.35 613.031 1578.06 607.025 1577.95 599.495L1577.95 514.971C1577.92 511.114 1577.23 507.193 1575.88 503.21 1574.53 499.227 1572.7 495.685 1570.41 492.582L1569.91 492.079 1579.46 492.079C1586.97 492.173 1592.94 494.374 1597.37 498.682 1601.8 502.99 1604.12 508.839 1604.34 516.229 1606.59 508.724 1610.27 502.414 1615.37 497.299 1620.48 492.184 1627.11 489.521 1635.26 489.312ZM1489.95 489.312C1507.26 489.778 1520.96 496.015 1531.05 508.021 1541.13 520.028 1546.29 536.516 1546.51 557.484L1546.51 560 1454.25 560C1455.78 574.019 1460.33 585.538 1467.92 594.558 1475.51 603.577 1486.04 608.241 1499.5 608.551 1506.36 608.661 1513.01 607.183 1519.45 604.117 1525.9 601.051 1530.98 595.737 1534.69 588.174L1536.2 589.432C1532.61 602.12 1526.22 611.585 1517.03 617.827 1507.85 624.068 1497.81 627.182 1486.93 627.166 1475.99 627.07 1466.04 624.104 1457.08 618.268 1448.11 612.433 1440.95 604.305 1435.6 593.886 1430.24 583.466 1427.49 571.332 1427.36 557.484 1427.42 544.605 1429.98 533.049 1435.04 522.816 1440.1 512.582 1447.29 504.473 1456.63 498.489 1465.96 492.504 1477.07 489.445 1489.95 489.312ZM1199.32 489.312C1216.55 489.427 1229.91 494.479 1239.41 504.468 1248.91 514.457 1253.73 528.691 1253.87 547.17L1253.87 601.255C1253.89 605.233 1254.54 609.227 1255.81 613.236 1257.09 617.245 1258.87 620.798 1261.16 623.896L1261.66 624.399 1258.14 624.399C1249.51 624.304 1242.51 621.915 1237.15 617.229 1231.79 612.544 1228.56 606.129 1227.47 597.985 1225.5 606.905 1220.9 613.97 1213.65 619.179 1206.4 624.388 1197.02 627.051 1185.49 627.166 1172.16 627.035 1161.31 623.523 1152.94 616.632 1144.57 609.74 1140.26 600.254 1140 588.174 1140.14 577.228 1143.93 567.787 1151.36 559.851 1158.8 551.914 1169.01 545.753 1182 541.366 1195 536.979 1209.9 534.637 1226.72 534.341 1225.59 520.641 1222.7 509.992 1218.05 502.393 1213.4 494.794 1206.99 490.936 1198.82 490.821 1190.52 491.204 1184.43 494.275 1180.56 500.034 1176.69 505.794 1176.58 511.947 1180.22 518.492 1180.08 524.037 1178.52 528.23 1175.53 531.07 1172.54 533.911 1168.91 535.337 1164.63 535.347 1160.42 535.295 1157.03 533.89 1154.48 531.133 1151.93 528.377 1150.62 524.582 1150.55 519.75 1150.68 513.593 1153 508.242 1157.5 503.697 1162 499.152 1167.93 495.627 1175.28 493.122 1182.63 490.618 1190.65 489.348 1199.32 489.312ZM1066.89 489.312C1081.5 489.553 1092.13 494.165 1098.79 503.148 1105.44 512.13 1108.72 524.037 1108.62 538.869L1108.62 601.255C1108.64 605.128 1109.29 609.08 1110.57 613.11 1111.85 617.14 1113.63 620.652 1115.91 623.644L1116.41 624.399 1112.89 624.399C1103.58 624.273 1096.13 621.443 1090.55 615.909 1084.98 610.374 1082.12 602.891 1081.98 593.457L1081.98 536.353C1081.93 524.708 1079.32 515.736 1074.15 509.436 1068.98 503.137 1061.54 499.951 1051.81 499.877 1042.36 499.982 1034.68 502.917 1028.78 508.682 1022.88 514.447 1019.66 522.413 1019.13 532.58L1019.13 601.255C1019.15 605.128 1019.8 609.08 1021.08 613.11 1022.36 617.14 1024.14 620.652 1026.42 623.644L1026.93 624.399 1023.66 624.399C1014.23 624.273 1006.75 621.443 1001.22 615.909 995.693 610.374 992.865 602.891 992.739 593.457L992.739 514.971C992.708 511.114 992.017 507.193 990.666 503.21 989.315 499.227 987.492 495.685 985.198 492.582L984.696 492.079 988.215 492.079C997.002 492.184 1004.12 494.678 1009.58 499.563 1015.04 504.447 1018.14 511.093 1018.88 519.499 1022.47 510.097 1028.55 502.739 1037.14 497.424 1045.72 492.11 1055.64 489.406 1066.89 489.312ZM1273.75 439 1320.5 439 1320.25 439.503C1318.46 442.721 1317.33 446.222 1316.89 450.006 1316.44 453.79 1316.89 457.416 1318.24 460.886L1366.75 590.438 1416.78 460.886C1418.03 457.416 1418.48 453.79 1418.13 450.006 1417.78 446.222 1416.66 442.721 1414.77 439.503L1414.51 439 1434.62 439 1431.36 441.767C1428.65 444.23 1426.14 447.165 1423.81 450.572 1421.49 453.978 1419.73 457.416 1418.54 460.886L1355.44 624.399 1351.17 624.399 1289.84 460.886C1288.54 457.416 1286.74 453.978 1284.43 450.572 1282.13 447.165 1279.57 444.23 1276.76 441.767ZM926.797 439 942.884 439C947.472 439.084 951.116 440.488 953.819 443.214 956.521 445.939 957.903 449.482 957.966 453.842L957.966 470.193 941.879 470.193C937.291 470.13 933.646 468.747 930.944 466.042 928.242 463.338 926.859 459.691 926.797 455.1ZM758.077 439 761.596 439C770.912 439.141 778.359 442.003 783.936 447.584 789.513 453.166 792.373 460.618 792.514 469.942L792.514 530.819 863.4 530.819 863.4 461.892C863.369 458.05 862.677 454.162 861.326 450.226 859.975 446.29 858.153 442.716 855.859 439.503L855.356 439 858.875 439C868.302 439.141 875.78 442.003 881.31 447.584 886.84 453.166 889.668 460.618 889.794 469.942L889.794 601.255C889.825 605.128 890.516 609.08 891.868 613.11 893.219 617.14 895.041 620.652 897.335 623.644L897.837 624.399 894.318 624.399C884.892 624.273 877.414 621.443 871.884 615.909 866.354 610.374 863.526 602.891 863.4 593.457L863.4 532.328 792.514 532.328 792.514 601.255C792.535 605.128 793.185 609.08 794.462 613.11 795.74 617.14 797.521 620.652 799.804 623.644L800.307 624.399 797.039 624.399C787.612 624.273 780.134 621.443 774.604 615.909 769.074 610.374 766.246 602.891 766.121 593.457L766.121 461.892C766.089 458.05 765.398 454.162 764.047 450.226 762.696 446.29 760.873 442.716 758.579 439.503ZM620.132 439 625.411 439 614.35 491.576 683.979 491.576 695.039 439 700.318 439 689.258 491.576 730.985 491.576 729.98 496.858 688.001 496.858 673.171 566.792 715.149 566.792 714.144 572.075 671.914 572.075 660.854 624.399 655.575 624.399 666.635 572.075 597.006 572.075 585.946 624.399 580.667 624.399 591.727 572.075 550 572.075 551.006 566.792 592.733 566.792 607.563 496.858 565.836 496.858 566.842 491.576 609.072 491.576Z" fill="#FFFFFF" fill-rule="evenodd"/>
    <path d="M802.508 737.332 802.251 737.426 802.212 737.417ZM776.673 710.234C779.239 710.234 781.456 711.092 783.322 712.807 785.188 714.523 786.196 717.096 786.344 720.527 784.842 723.135 784.652 725.726 785.774 728.296 786.897 730.868 788.931 733.015 791.877 734.739L802.212 737.417 799.069 738.316C790.209 738.239 782.893 736.518 777.119 733.154 771.345 729.789 768.354 725.242 768.148 719.51 768.185 716.678 768.969 714.433 770.502 712.776 772.034 711.119 774.091 710.272 776.673 710.234ZM1180.56 670.717C1175.29 670.826 1171.14 673.912 1168.12 679.977 1165.11 686.042 1163.57 694.433 1163.51 705.152 1163.53 714.743 1164.8 722.34 1167.31 727.944 1169.83 733.548 1173.48 736.412 1178.27 736.537 1181.6 736.515 1184.73 735.105 1187.65 732.306 1190.57 729.508 1192.9 725.452 1194.64 720.141 1196.39 714.829 1197.17 708.393 1196.98 700.832L1196.98 700.45C1196.68 691.206 1195.08 683.964 1192.21 678.722 1189.33 673.481 1185.45 670.812 1180.56 670.717ZM1361.34 670.081C1357.01 670.252 1353.59 672.156 1351.08 675.795 1348.57 679.433 1346.76 683.785 1345.65 688.85 1344.54 693.914 1343.91 698.671 1343.78 703.118L1376.99 703.118C1376.87 692.625 1375.52 684.514 1372.94 678.786 1370.35 673.057 1366.49 670.156 1361.34 670.081ZM878.854 670.081C874.521 670.252 871.099 672.156 868.589 675.795 866.08 679.433 864.27 683.785 863.16 688.85 862.051 693.914 861.428 698.671 861.294 703.118L894.506 703.118C894.387 692.625 893.035 684.514 890.45 678.786 887.865 673.057 884 670.156 878.854 670.081ZM698.585 670.081C694.251 670.252 690.83 672.156 688.32 675.795 685.81 679.433 684.001 683.785 682.891 688.85 681.781 693.914 681.159 698.671 681.024 703.118L714.237 703.118C714.117 692.625 712.765 684.514 710.18 678.786 707.596 673.057 703.73 670.156 698.585 670.081ZM1434.42 669.446C1429.53 669.552 1425.67 671.818 1422.84 676.245 1420.02 680.67 1418.58 686.622 1418.52 694.097 1418.6 701.745 1420.1 707.765 1423.02 712.156 1425.94 716.548 1429.83 718.788 1434.68 718.875 1439.52 718.788 1443.36 716.58 1446.21 712.251 1449.06 707.923 1450.52 701.999 1450.59 694.478 1450.52 686.931 1449.03 680.901 1446.13 676.387 1443.23 671.874 1439.33 669.56 1434.42 669.446ZM1024.3 669.446C1018.17 669.576 1013.31 672.684 1009.71 678.77 1006.12 684.856 1004.28 693.142 1004.19 703.627 1004.27 713.991 1006.06 722.202 1009.59 728.262 1013.11 734.321 1017.93 737.418 1024.05 737.553 1030.24 737.418 1035.16 734.289 1038.81 728.166 1042.45 722.044 1044.32 713.737 1044.41 703.246 1044.32 692.776 1042.46 684.554 1038.84 678.579 1035.22 672.604 1030.37 669.56 1024.3 669.446ZM1361.85 668.684C1370.61 668.92 1377.55 672.07 1382.66 678.134 1387.76 684.199 1390.37 692.527 1390.48 703.118L1390.48 704.389 1343.78 704.389C1344.55 711.47 1346.86 717.289 1350.7 721.845 1354.54 726.401 1359.87 728.757 1366.69 728.913 1370.16 728.968 1373.52 728.222 1376.79 726.673 1380.05 725.125 1382.62 722.441 1384.5 718.621L1385.26 719.256C1383.45 725.665 1380.21 730.446 1375.56 733.599 1370.91 736.751 1365.83 738.324 1360.32 738.316 1354.78 738.267 1349.74 736.769 1345.21 733.821 1340.67 730.874 1337.05 726.768 1334.34 721.506 1331.62 716.242 1330.23 710.114 1330.17 703.118 1330.2 696.613 1331.49 690.776 1334.05 685.607 1336.61 680.438 1340.26 676.342 1344.98 673.32 1349.71 670.296 1355.33 668.751 1361.85 668.684ZM1111.47 668.684C1118.86 668.806 1124.24 671.135 1127.61 675.673 1130.98 680.21 1132.64 686.224 1132.59 693.716L1132.59 725.228C1132.6 727.184 1132.93 729.18 1133.58 731.216 1134.22 733.252 1135.12 735.025 1136.28 736.537L1136.53 736.918 1134.75 736.918C1130.04 736.855 1126.27 735.425 1123.44 732.63 1120.62 729.834 1119.17 726.054 1119.1 721.289L1119.1 692.445C1119.08 686.563 1117.76 682.031 1115.14 678.849 1112.52 675.667 1108.75 674.058 1103.83 674.021 1099.05 674.073 1095.16 675.556 1092.17 678.468 1089.18 681.38 1087.56 685.404 1087.29 690.539L1087.29 725.228C1087.3 727.184 1087.63 729.18 1088.27 731.216 1088.92 733.252 1089.82 735.025 1090.98 736.537L1091.23 736.918 1089.58 736.918C1084.81 736.855 1081.02 735.425 1078.22 732.63 1075.42 729.834 1073.99 726.054 1073.93 721.289L1073.93 681.645C1073.91 679.696 1073.56 677.716 1072.88 675.704 1072.19 673.693 1071.27 671.903 1070.11 670.336L1069.86 670.081 1071.64 670.081C1076.09 670.135 1079.69 671.395 1082.45 673.862 1085.22 676.329 1086.79 679.686 1087.16 683.932 1088.98 679.183 1092.06 675.466 1096.4 672.782 1100.75 670.097 1105.77 668.732 1111.47 668.684ZM1024.3 668.684C1034.49 668.827 1042.58 672.003 1048.57 678.214 1054.56 684.424 1057.63 692.81 1057.77 703.373 1057.61 714.001 1054.52 722.446 1048.49 728.707 1042.47 734.967 1034.45 738.17 1024.43 738.316 1014.34 738.151 1006.26 734.89 1000.19 728.531 994.11 722.173 990.993 713.702 990.834 703.118 990.971 692.678 994.036 684.366 1000.03 678.182 1006.02 671.998 1014.11 668.832 1024.3 668.684ZM953.21 668.684C956.356 668.667 959.806 669.167 963.56 670.185 967.314 671.203 970.566 672.843 973.316 675.103 976.066 677.363 977.508 680.349 977.642 684.059 977.608 686.499 976.945 688.416 975.654 689.809 974.363 691.201 972.65 691.91 970.516 691.937 968.35 691.932 966.511 691.212 964.997 689.776 963.483 688.342 962.693 686.224 962.627 683.423 964.353 680.125 964.273 677.033 962.388 674.148 960.503 671.262 957.529 669.695 953.465 669.446 949.995 669.554 946.896 670.948 944.166 673.63 941.437 676.312 939.28 679.89 937.695 684.365 936.111 688.839 935.302 693.82 935.268 699.306 935.269 704.753 936.13 709.702 937.851 714.155 939.572 718.607 942.148 722.164 945.58 724.823 949.012 727.483 953.294 728.846 958.428 728.913 961.898 728.968 965.264 728.222 968.528 726.673 971.792 725.125 974.363 722.441 976.242 718.621L977.006 719.256C975.188 725.665 971.953 730.446 967.303 733.599 962.653 736.751 957.574 738.324 952.065 738.316 946.525 738.267 941.487 736.769 936.951 733.821 932.414 730.874 928.79 726.768 926.078 721.506 923.366 716.242 921.976 710.114 921.907 703.118 922.074 692.75 925.017 684.485 930.735 678.325 936.453 672.165 943.945 668.951 953.21 668.684ZM879.363 668.684C888.128 668.92 895.063 672.07 900.168 678.134 905.275 684.199 907.883 692.527 907.994 703.118L907.994 704.389 861.294 704.389C862.066 711.47 864.372 717.289 868.213 721.845 872.055 726.401 877.383 728.757 884.199 728.913 887.669 728.968 891.036 728.222 894.299 726.673 897.563 725.125 900.134 722.441 902.014 718.621L902.777 719.256C900.959 725.665 897.724 730.446 893.075 733.599 888.424 736.751 883.346 738.324 877.836 738.316 872.297 738.267 867.258 736.769 862.722 733.821 858.186 730.874 854.561 726.768 851.849 721.506 849.137 716.242 847.747 710.114 847.678 703.118 847.709 696.613 849.005 690.776 851.567 685.607 854.128 680.438 857.771 676.342 862.496 673.32 867.221 670.296 872.843 668.751 879.363 668.684ZM699.094 668.684C707.858 668.92 714.793 672.07 719.899 678.134 725.005 684.199 727.613 692.527 727.725 703.118L727.725 704.389 681.024 704.389C681.796 711.47 684.102 717.289 687.943 721.845 691.785 726.401 697.114 728.757 703.929 728.913 707.399 728.968 710.766 728.222 714.03 726.673 717.293 725.125 719.864 722.441 721.744 718.621L722.508 719.256C720.689 725.665 717.455 730.446 712.805 733.599 708.155 736.751 703.076 738.324 697.567 738.316 692.026 738.267 686.989 736.769 682.452 733.821 677.916 730.874 674.292 726.768 671.58 721.506 668.867 716.242 667.477 710.114 667.409 703.118 667.439 696.613 668.735 690.776 671.297 685.607 673.858 680.438 677.501 676.342 682.226 673.32 686.951 670.296 692.574 668.751 699.094 668.684ZM566.797 662.077 568.069 662.077 568.069 670.081 576.214 670.081 576.214 671.352 568.069 671.352 568.069 725.101C568.091 727.121 568.462 729.18 569.183 731.28 569.904 733.379 570.848 735.216 572.014 736.791L570.36 736.791C565.588 736.735 561.803 735.322 559.003 732.55 556.204 729.779 554.772 725.982 554.708 721.162L554.708 671.352 550 671.352 550 670.081 555.854 670.081C559.093 669.581 561.712 668.39 563.711 666.508 565.71 664.626 566.739 663.148 566.797 662.077ZM1455.38 654.955C1457.16 654.513 1459 654.557 1460.89 655.088 1462.75 655.76 1464.06 656.798 1464.81 658.201 1465.55 659.604 1465.65 661.15 1465.09 662.839 1464.5 664.483 1463.43 665.706 1461.88 666.508 1460.33 667.31 1458.43 667.358 1456.18 666.651 1454.17 664.462 1451.8 663.662 1449.07 664.252 1446.35 664.842 1444.26 666.616 1442.82 669.573 1449.38 671.042 1454.52 673.949 1458.25 678.293 1461.98 682.637 1463.88 687.99 1463.95 694.351 1463.82 702.015 1461.14 708.098 1455.9 712.601 1450.65 717.104 1443.58 719.407 1434.68 719.51 1431.04 719.507 1427.69 719.1 1424.61 718.287 1421.53 717.475 1418.78 716.272 1416.35 714.682 1413.55 716.913 1412.13 719.026 1412.09 721.019 1412.05 723.013 1413.82 724.076 1417.37 724.212 1420.71 724.061 1425.09 723.385 1430.5 722.183 1435.9 720.98 1441.39 720.153 1446.96 719.701 1452.53 719.249 1457.22 720.073 1461.04 722.174 1464.85 724.276 1466.84 728.555 1467 735.012 1466.89 741.223 1465.13 746.562 1461.72 751.032 1458.31 755.501 1453.91 758.939 1448.53 761.348 1443.14 763.756 1437.42 764.973 1431.37 765 1426.95 764.984 1422.68 764.338 1418.57 763.06 1414.47 761.784 1411.08 759.971 1408.41 757.62 1405.74 755.27 1404.36 752.478 1404.27 749.243 1404.3 746.986 1404.96 745.18 1406.25 743.827 1407.55 742.475 1409.26 741.781 1411.39 741.747 1413.5 741.752 1415.33 742.472 1416.86 743.907 1418.4 745.341 1419.21 747.459 1419.28 750.26 1417.54 753.627 1418.1 756.772 1420.97 759.695 1423.84 762.617 1428.02 764.174 1433.53 764.365 1437.57 764.295 1441.73 763.262 1446.03 761.263 1450.32 759.265 1453.97 756.461 1456.97 752.853 1459.96 749.245 1461.53 744.992 1461.66 740.095 1461.58 735.804 1460.23 733.188 1457.63 732.246 1455.02 731.305 1451.64 731.29 1447.47 732.201 1443.3 733.112 1438.83 734.201 1434.06 735.467 1429.29 736.733 1424.71 737.429 1420.3 737.553 1414.09 737.368 1410.02 735.763 1408.07 732.739 1406.13 729.715 1405.88 726.388 1407.33 722.757 1408.78 719.127 1411.49 716.307 1415.46 714.3 1412.19 712.064 1409.64 709.263 1407.81 705.898 1405.99 702.534 1405.06 698.684 1405.03 694.351 1405.17 686.667 1407.91 680.498 1413.27 675.847 1418.62 671.196 1425.76 668.808 1434.68 668.684 1437.35 668.684 1439.9 668.938 1442.31 669.446 1444.19 664.472 1446.8 660.57 1450.17 657.74 1451.85 656.325 1453.59 655.397 1455.38 654.955ZM1256.19 643.271 1257.97 643.271C1262.69 643.342 1266.46 644.788 1269.28 647.607 1272.1 650.426 1273.55 654.19 1273.62 658.9L1273.62 720.654C1273.69 725.363 1275.12 729.127 1277.92 731.947 1280.72 734.766 1284.5 736.211 1289.28 736.283L1298.06 736.283C1301.96 736.235 1305.76 735.314 1309.46 733.519 1313.16 731.724 1316.23 729.342 1318.67 726.372L1321.6 722.814 1318.92 736.918 1275.91 736.918C1271.14 736.855 1267.36 735.425 1264.56 732.63 1261.76 729.834 1260.33 726.054 1260.26 721.289L1260.26 654.961C1260.25 653.013 1259.9 651.033 1259.21 649.02 1258.53 647.009 1257.61 645.219 1256.45 643.652ZM1193.03 643.271 1194.69 643.271C1199.46 643.342 1203.27 644.788 1206.11 647.607 1208.94 650.426 1210.4 654.19 1210.47 658.9L1210.47 725.228C1210.48 727.184 1210.81 729.18 1211.45 731.216 1212.1 733.252 1213 735.025 1214.16 736.537L1214.41 736.918 1212.63 736.918C1207.91 736.855 1204.14 735.425 1201.32 732.63 1198.5 729.834 1197.05 726.054 1196.98 721.289L1196.98 715.952C1195.55 723.333 1193.06 728.902 1189.49 732.661 1185.91 736.421 1181.41 738.305 1175.98 738.316 1168.45 738.146 1162.3 734.896 1157.53 728.564 1152.76 722.232 1150.3 713.834 1150.15 703.373 1150.29 692.866 1152.84 684.495 1157.78 678.262 1162.73 672.027 1169.22 668.835 1177.25 668.684 1182.93 668.732 1187.35 670.51 1190.5 674.021 1193.66 677.531 1195.81 682.487 1196.98 688.887L1196.98 654.961C1196.97 652.96 1196.64 650.958 1195.99 648.957 1195.34 646.955 1194.44 645.145 1193.29 643.525ZM586.351 643.271 588.132 643.271C592.849 643.342 596.619 644.788 599.442 647.607 602.265 650.426 603.712 654.19 603.784 658.9L603.784 683.678C605.603 679.05 608.678 675.408 613.01 672.75 617.341 670.092 622.326 668.737 627.962 668.684 635.355 668.806 640.737 671.135 644.106 675.673 647.476 680.21 649.135 686.224 649.085 693.716L649.085 725.228C649.096 727.184 649.424 729.18 650.071 731.216 650.718 733.252 651.619 735.025 652.775 736.537L653.03 736.918 651.248 736.918C646.532 736.855 642.762 735.425 639.939 732.63 637.116 729.834 635.668 726.054 635.596 721.289L635.596 692.445C635.573 686.563 634.252 682.031 631.636 678.849 629.019 675.667 625.25 674.058 620.327 674.021 615.542 674.073 611.655 675.556 608.667 678.468 605.68 681.38 604.052 685.404 603.784 690.539L603.784 725.228C603.795 727.184 604.123 729.18 604.771 731.216 605.417 733.252 606.319 735.025 607.474 736.537L607.729 736.918 606.075 736.918C601.303 736.855 597.517 735.425 594.718 732.63 591.918 729.834 590.487 726.054 590.423 721.289L590.423 654.961C590.407 652.96 590.057 650.958 589.373 648.957 588.689 646.955 587.767 645.145 586.606 643.525ZM799.96 642C809.08 642.093 816.608 643.845 822.547 647.257 828.485 650.67 831.56 655.186 831.772 660.806 831.735 663.583 830.95 665.812 829.418 667.493 827.886 669.174 825.828 670.037 823.247 670.081 820.681 670.074 818.464 669.2 816.598 667.461 814.731 665.722 813.724 663.164 813.576 659.789 815.08 657.179 815.267 654.578 814.137 651.986 813.006 649.395 810.95 647.227 807.967 645.482 804.985 643.738 801.467 642.832 797.415 642.762 792.534 642.916 788.521 644.324 785.374 646.987 782.227 649.65 780.599 653.028 780.491 657.121 780.633 661.414 782.476 665.21 786.023 668.51 789.569 671.811 793.966 674.934 799.214 677.88 804.462 680.827 809.71 683.916 814.958 687.147 820.206 690.378 824.603 694.071 828.149 698.225 831.695 702.379 833.539 707.314 833.681 713.03 833.527 720.476 830.336 726.517 824.106 731.152L802.508 737.332 815.85 732.439C819.596 729.204 821.552 724.937 821.719 719.637 821.578 714.638 819.739 710.309 816.201 706.649 812.663 702.989 808.277 699.652 803.042 696.637 797.806 693.622 792.571 690.582 787.335 687.516 782.099 684.45 777.713 681.011 774.175 677.199 770.638 673.387 768.798 668.855 768.656 663.601 768.768 657.142 771.599 651.954 777.15 648.035 782.702 644.118 790.305 642.106 799.96 642Z" fill="#FFFFFF" fill-rule="evenodd"/>
  </g>
</svg>