<svg width="1650" height="325" xmlns="http://www.w3.org/2000/svg" xmlns:xlink="http://www.w3.org/1999/xlink" xml:space="preserve" overflow="hidden"><defs><clipPath id="clip0"><rect x="754" y="667" width="1650" height="325"/></clipPath></defs><g clip-path="url(#clip0)" transform="translate(-754 -667)"><path d="M2100.25 762.947C2082.67 763.861 2068.31 768.986 2057.17 778.323 2046.03 787.66 2040.28 800.238 2039.92 816.056 2040.08 826.823 2042.72 835.289 2047.84 841.452 2052.96 847.616 2059.62 850.758 2067.82 850.878 2076.89 850.575 2084.58 847.11 2090.89 840.482 2097.19 833.853 2100.48 825.879 2100.75 816.558L2100.75 775.724C2100.71 771.214 2100.54 766.956 2100.25 762.947ZM1430.72 762.947C1413.14 763.861 1398.78 768.986 1387.64 778.323 1376.5 787.66 1370.75 800.238 1370.39 816.056 1370.55 826.823 1373.19 835.289 1378.31 841.452 1383.43 847.616 1390.09 850.758 1398.29 850.878 1407.36 850.575 1415.05 847.11 1421.35 840.482 1427.66 833.853 1430.95 825.879 1431.22 816.558L1431.22 775.724C1431.18 771.214 1431.01 766.956 1430.72 762.947ZM816.842 724.618 802.263 794.262 871.892 794.262 886.722 724.618ZM2267 719.859 2272.79 719.859C2282.26 719.968 2290.96 722.505 2298.87 727.468 2306.77 732.431 2312.83 739.164 2317.03 747.666L2348.2 812.8 2383.14 740.902C2384.76 737.671 2385.53 734.175 2385.43 730.412 2385.33 726.649 2384.4 723.215 2382.63 720.109L2382.63 719.859 2404 719.859 2400.73 722.614C2397.89 724.958 2395.15 727.786 2392.5 731.101 2389.85 734.414 2387.73 737.682 2386.15 740.902L2336.13 843.613C2328.31 859.932 2322.08 872.721 2317.44 881.979 2312.79 891.237 2308.39 897.754 2304.22 901.529 2300.05 905.303 2294.77 907.125 2288.37 906.994 2281.6 906.978 2275.15 905.381 2269.02 902.202 2262.88 899.024 2256.93 894.358 2251.17 888.205L2264.74 874.677C2265.97 878.512 2267.65 882.7 2269.78 887.24 2271.91 891.78 2274.67 895.708 2278.05 899.023 2281.44 902.339 2285.64 904.077 2290.63 904.238 2295.19 904.311 2299.37 902.384 2303.15 898.457 2306.94 894.531 2311.14 888.169 2315.73 879.372 2320.33 870.575 2326.12 858.905 2333.11 844.365L2284.85 741.152C2283.17 737.812 2281.07 734.472 2278.54 731.132 2276.01 727.792 2273.34 724.952 2270.52 722.614ZM1692.94 719.859C1684.38 720.194 1677.62 723.949 1672.67 731.122 1667.71 738.296 1664.13 746.876 1661.94 756.861 1659.75 766.846 1658.52 776.223 1658.25 784.993L1723.86 784.993C1723.63 764.304 1720.95 748.313 1715.85 737.019 1710.74 725.725 1703.11 720.005 1692.94 719.859ZM1125.27 719.859 1128.79 719.859C1138.1 719.984 1145.55 722.802 1151.13 728.313 1156.7 733.825 1159.56 741.278 1159.7 750.672L1159.7 828.582C1159.72 832.439 1160.37 836.374 1161.65 840.388 1162.93 844.401 1164.71 847.898 1166.99 850.878L1167.5 851.63 1164.23 851.63C1154.8 851.504 1147.32 848.686 1141.79 843.175 1136.26 837.663 1133.44 830.211 1133.31 820.816L1133.31 742.656C1133.28 738.814 1132.59 734.911 1131.24 730.944 1129.89 726.978 1128.06 723.449 1125.77 720.36ZM2219.84 717.103C2225.25 717.22 2230.55 718.516 2235.74 720.991 2240.93 723.465 2245.25 726.913 2248.68 731.336 2252.11 735.759 2253.9 740.951 2254.02 746.914 2253.96 751.966 2252.65 755.891 2250.1 758.688 2247.55 761.486 2244.16 762.905 2239.95 762.947 2235.67 762.937 2232.04 761.517 2229.05 758.688 2226.05 755.86 2224.49 751.685 2224.36 746.163 2227.98 739.675 2228.73 733.673 2226.63 728.157 2224.52 722.64 2220.5 719.707 2214.56 719.358 2207.82 719.671 2202.01 723.679 2197.12 731.382 2192.24 739.086 2189.5 748.605 2188.92 759.941L2188.92 828.582C2188.94 832.439 2189.59 836.374 2190.87 840.388 2192.15 844.401 2193.93 847.898 2196.21 850.878L2196.71 851.63 2187.41 851.63C2179.89 851.52 2173.89 849.234 2169.41 844.772 2164.93 840.309 2162.64 834.328 2162.53 826.829L2162.53 742.656C2162.5 738.814 2161.8 734.911 2160.45 730.944 2159.1 726.978 2157.28 723.449 2154.99 720.36L2154.48 719.859 2164.04 719.859C2171.54 719.953 2177.51 722.145 2181.95 726.435 2186.38 730.725 2188.7 736.549 2188.92 743.908 2191.17 736.434 2194.84 730.151 2199.95 725.057 2205.06 719.963 2211.69 717.312 2219.84 717.103ZM2072.85 717.103C2090.08 717.218 2103.45 722.249 2112.94 732.196 2122.44 742.144 2127.26 756.319 2127.4 774.721L2127.4 828.582C2127.42 832.544 2128.07 836.52 2129.35 840.513 2130.62 844.505 2132.41 848.044 2134.69 851.129L2135.19 851.63 2131.67 851.63C2123.04 851.536 2116.05 849.156 2110.68 844.49 2105.32 839.824 2102.09 833.436 2101 825.326 2099.04 834.208 2094.43 841.244 2087.18 846.431 2079.93 851.619 2070.55 854.271 2059.03 854.385 2045.69 854.255 2034.84 850.758 2026.47 843.895 2018.11 837.032 2013.79 827.586 2013.53 815.555 2013.67 804.655 2017.46 795.253 2024.9 787.349 2032.33 779.446 2042.54 773.31 2055.54 768.941 2068.53 764.572 2083.43 762.241 2100.25 761.945 2099.12 748.303 2096.23 737.697 2091.58 730.13 2086.93 722.562 2080.52 718.721 2072.35 718.606 2064.05 718.987 2057.96 722.046 2054.09 727.781 2050.22 733.517 2050.11 739.644 2053.75 746.163 2053.62 751.685 2052.06 755.86 2049.07 758.688 2046.08 761.517 2042.44 762.937 2038.16 762.947 2033.95 762.895 2030.56 761.496 2028.01 758.751 2025.46 756.006 2024.15 752.227 2024.09 747.415 2024.21 741.284 2026.53 735.955 2031.03 731.429 2035.53 726.902 2041.46 723.392 2048.81 720.898 2056.17 718.403 2064.18 717.139 2072.85 717.103ZM1940.98 717.103C1949.32 717.139 1957.07 718.403 1964.24 720.898 1971.41 723.392 1977.21 726.902 1981.64 731.429 1986.07 735.955 1988.35 741.284 1988.48 747.415 1988.4 752.227 1987.06 756.006 1984.46 758.751 1981.86 761.496 1978.51 762.895 1974.41 762.947 1970.13 762.937 1966.49 761.517 1963.5 758.688 1960.51 755.86 1958.95 751.685 1958.82 746.163 1962.22 739.644 1962.02 733.517 1958.23 727.781 1954.43 722.046 1948.51 718.987 1940.47 718.606 1934.29 718.747 1929.18 720.782 1925.14 724.712 1921.1 728.642 1919 733.621 1918.85 739.649 1919.22 747.488 1922.86 754.075 1929.77 759.409 1936.69 764.743 1944.7 769.889 1953.79 774.847 1962.89 779.805 1970.9 785.64 1977.82 792.352 1984.73 799.063 1988.37 807.716 1988.74 818.311 1988.52 829.804 1984.24 838.697 1975.88 844.991 1967.53 851.285 1956.4 854.417 1942.48 854.385 1934.22 854.351 1926.5 853.083 1919.33 850.581 1912.16 848.079 1906.34 844.547 1901.87 839.985 1897.41 835.423 1895.11 830.036 1894.97 823.823 1895.04 819.12 1896.35 815.373 1898.9 812.581 1901.45 809.788 1904.84 808.358 1909.05 808.291 1913.21 808.311 1916.83 809.773 1919.89 812.674 1922.96 815.576 1924.62 819.793 1924.89 825.326 1921.24 831.844 1921.31 837.971 1925.11 843.707 1928.9 849.443 1934.95 852.501 1943.24 852.882 1950.05 852.71 1955.65 850.424 1960.05 846.024 1964.44 841.625 1966.71 836.145 1966.87 829.584 1966.5 821.49 1962.88 814.694 1955.99 809.199 1949.1 803.703 1941.12 798.473 1932.05 793.51 1922.99 788.547 1915.01 782.816 1908.12 776.319 1901.23 769.821 1897.6 761.523 1897.24 751.424 1897.41 741.116 1901.4 732.859 1909.21 726.654 1917.02 720.448 1927.61 717.265 1940.98 717.103ZM1839.26 717.103C1844.67 717.22 1849.97 718.516 1855.16 720.991 1860.36 723.465 1864.67 726.913 1868.1 731.336 1871.54 735.759 1873.32 740.951 1873.45 746.914 1873.38 751.966 1872.07 755.891 1869.52 758.688 1866.97 761.486 1863.59 762.905 1859.37 762.947 1855.09 762.937 1851.46 761.517 1848.47 758.688 1845.48 755.86 1843.92 751.685 1843.79 746.163 1847.4 739.675 1848.15 733.673 1846.05 728.157 1843.94 722.64 1839.92 719.707 1833.98 719.358 1827.24 719.671 1821.43 723.679 1816.54 731.382 1811.66 739.086 1808.93 748.605 1808.34 759.941L1808.34 828.582C1808.37 832.439 1809.01 836.374 1810.29 840.388 1811.57 844.401 1813.35 847.898 1815.63 850.878L1816.14 851.63 1806.84 851.63C1799.31 851.52 1793.31 849.234 1788.83 844.772 1784.35 840.309 1782.06 834.328 1781.95 826.829L1781.95 742.656C1781.92 738.814 1781.23 734.911 1779.88 730.944 1778.53 726.978 1776.7 723.449 1774.41 720.36L1773.91 719.859 1783.46 719.859C1790.97 719.953 1796.94 722.145 1801.37 726.435 1805.8 730.725 1808.12 736.549 1808.34 743.908 1810.59 736.434 1814.27 730.151 1819.37 725.057 1824.48 719.963 1831.11 717.312 1839.26 717.103ZM1693.95 717.103C1711.26 717.568 1724.96 723.778 1735.05 735.735 1745.13 747.692 1750.29 764.111 1750.51 784.993L1750.51 787.498 1658.25 787.498C1659.78 801.459 1664.33 812.93 1671.92 821.912 1679.51 830.894 1690.04 835.539 1703.5 835.847 1710.36 835.957 1717.01 834.485 1723.45 831.432 1729.9 828.379 1734.98 823.087 1738.69 815.555L1740.2 816.808C1736.61 829.443 1730.22 838.869 1721.03 845.085 1711.85 851.301 1701.81 854.401 1690.93 854.385 1679.99 854.289 1670.04 851.336 1661.07 845.524 1652.11 839.713 1644.95 831.619 1639.6 821.243 1634.24 810.867 1631.49 798.783 1631.36 784.993 1631.42 772.167 1633.98 760.659 1639.04 750.468 1644.1 740.277 1651.29 732.202 1660.63 726.242 1669.96 720.282 1681.07 717.236 1693.95 717.103ZM1403.32 717.103C1420.55 717.218 1433.91 722.249 1443.41 732.196 1452.91 742.144 1457.73 756.319 1457.87 774.721L1457.87 828.582C1457.89 832.544 1458.54 836.52 1459.81 840.513 1461.09 844.505 1462.87 848.044 1465.16 851.129L1465.66 851.63 1462.14 851.63C1453.51 851.536 1446.51 849.156 1441.15 844.49 1435.79 839.824 1432.56 833.436 1431.47 825.326 1429.5 834.208 1424.9 841.244 1417.65 846.431 1410.4 851.619 1401.02 854.271 1389.49 854.385 1376.16 854.255 1365.31 850.758 1356.94 843.895 1348.57 837.032 1344.26 827.586 1344 815.555 1344.14 804.655 1347.93 795.253 1355.36 787.349 1362.8 779.446 1373.01 773.31 1386 768.941 1399 764.572 1413.9 762.241 1430.72 761.945 1429.59 748.303 1426.7 737.697 1422.05 730.13 1417.4 722.562 1410.99 718.721 1402.82 718.606 1394.52 718.987 1388.43 722.046 1384.56 727.781 1380.69 733.517 1380.58 739.644 1384.22 746.163 1384.08 751.685 1382.52 755.86 1379.53 758.688 1376.54 761.517 1372.91 762.937 1368.63 762.947 1364.42 762.895 1361.03 761.496 1358.48 758.751 1355.93 756.006 1354.62 752.227 1354.55 747.415 1354.68 741.284 1357 735.955 1361.5 731.429 1366 726.902 1371.93 723.392 1379.28 720.898 1386.63 718.403 1394.65 717.139 1403.32 717.103ZM1270.89 717.103C1285.5 717.343 1296.13 721.936 1302.79 730.881 1309.44 739.827 1312.72 751.685 1312.62 766.455L1312.62 828.582C1312.64 832.439 1313.29 836.374 1314.57 840.388 1315.85 844.401 1317.63 847.898 1319.91 850.878L1320.41 851.63 1316.89 851.63C1307.58 851.504 1300.13 848.686 1294.55 843.175 1288.98 837.663 1286.12 830.211 1285.98 820.816L1285.98 763.949C1285.93 752.353 1283.32 743.417 1278.15 737.144 1272.98 730.871 1265.54 727.698 1255.81 727.624 1246.36 727.729 1238.68 730.652 1232.78 736.393 1226.88 742.134 1223.66 750.067 1223.13 760.192L1223.13 828.582C1223.15 832.439 1223.8 836.374 1225.08 840.388 1226.36 844.401 1228.14 847.898 1230.42 850.878L1230.93 851.63 1227.66 851.63C1218.23 851.504 1210.75 848.686 1205.22 843.175 1199.69 837.663 1196.86 830.211 1196.74 820.816L1196.74 742.656C1196.71 738.814 1196.02 734.911 1194.67 730.944 1193.31 726.978 1191.49 723.449 1189.2 720.36L1188.7 719.859 1192.21 719.859C1201 719.963 1208.12 722.447 1213.58 727.312 1219.04 732.176 1222.14 738.793 1222.88 747.165 1226.47 737.802 1232.55 730.474 1241.14 725.182 1249.72 719.89 1259.64 717.197 1270.89 717.103ZM1477.75 667 1524.5 667 1524.25 667.501C1522.45 670.705 1521.33 674.192 1520.89 677.96 1520.44 681.728 1520.89 685.34 1522.24 688.795L1570.75 817.81 1620.78 688.795C1622.03 685.34 1622.48 681.728 1622.13 677.96 1621.78 674.192 1620.66 670.705 1618.77 667.501L1618.51 667 1638.62 667 1635.36 669.756C1632.65 672.208 1630.14 675.131 1627.81 678.524 1625.49 681.916 1623.73 685.34 1622.54 688.795L1559.44 851.63 1555.17 851.63 1493.84 688.795C1492.54 685.34 1490.74 681.916 1488.43 678.524 1486.13 675.131 1483.57 672.208 1480.76 669.756ZM1130.8 667 1146.88 667C1151.47 667.083 1155.12 668.482 1157.82 671.196 1160.52 673.91 1161.9 677.438 1161.97 681.78L1161.97 698.064 1145.88 698.064C1141.29 698.001 1137.65 696.623 1134.94 693.93 1132.24 691.237 1130.86 687.605 1130.8 683.033ZM962.077 667 965.596 667C974.912 667.141 982.359 669.99 987.936 675.549 993.513 681.107 996.373 688.528 996.514 697.813L996.514 758.438 1067.4 758.438 1067.4 689.797C1067.37 685.971 1066.68 682.099 1065.33 678.179 1063.97 674.26 1062.15 670.7 1059.86 667.501L1059.36 667 1062.88 667C1072.3 667.141 1079.78 669.99 1085.31 675.549 1090.84 681.107 1093.67 688.528 1093.79 697.813L1093.79 828.582C1093.82 832.439 1094.52 836.374 1095.87 840.388 1097.22 844.401 1099.04 847.898 1101.33 850.878L1101.84 851.63 1098.32 851.63C1088.89 851.504 1081.41 848.686 1075.88 843.175 1070.35 837.663 1067.53 830.211 1067.4 820.816L1067.4 759.941 996.514 759.941 996.514 828.582C996.535 832.439 997.184 836.374 998.462 840.388 999.74 844.401 1001.52 847.898 1003.8 850.878L1004.31 851.63 1001.04 851.63C991.612 851.504 984.134 848.686 978.604 843.175 973.074 837.663 970.246 830.211 970.12 820.816L970.12 689.797C970.089 685.971 969.398 682.099 968.046 678.179 966.695 674.26 964.873 670.7 962.579 667.501ZM824.132 667 829.41 667 818.35 719.358 887.979 719.358 899.039 667 904.318 667 893.258 719.358 934.985 719.358 933.98 724.618 892.001 724.618 877.17 794.262 919.149 794.262 918.143 799.523 875.913 799.523 864.853 851.63 859.575 851.63 870.635 799.523 801.006 799.523 789.946 851.63 784.667 851.63 795.727 799.523 754 799.523 755.005 794.262 796.732 794.262 811.563 724.618 769.836 724.618 770.842 719.358 813.072 719.358Z" fill="#FFFFFF" fill-rule="evenodd"/><path d="M1133.92 897.068 1130.19 898.568 1130.47 898.263ZM1383.85 896.871C1379.52 897.041 1376.1 898.95 1373.59 902.597 1371.08 906.243 1369.27 910.605 1368.16 915.68 1367.05 920.756 1366.43 925.523 1366.3 929.981L1399.49 929.981C1399.37 919.465 1398.02 911.335 1395.43 905.594 1392.85 899.853 1388.99 896.945 1383.85 896.871ZM1104.84 896.871 1109.67 896.871C1113.47 896.918 1116.49 898.032 1118.73 900.214 1120.97 902.394 1122.15 905.355 1122.26 909.096 1123.39 905.297 1125.25 902.102 1127.84 899.513L1130.19 898.568 1126.41 902.729C1123.94 906.645 1122.55 911.484 1122.26 917.247L1122.26 952.14C1122.27 954.101 1122.6 956.101 1123.24 958.141 1123.89 960.181 1124.79 961.959 1125.95 963.474L1126.2 963.856 1121.5 963.856C1117.69 963.8 1114.65 962.638 1112.39 960.37 1110.12 958.102 1108.96 955.061 1108.91 951.248L1108.91 908.459C1108.89 906.507 1108.54 904.522 1107.86 902.506 1107.17 900.489 1106.25 898.696 1105.09 897.125ZM1073.77 896.871 1075.55 896.871C1080.27 896.934 1084.04 898.367 1086.86 901.169 1089.68 903.97 1091.13 907.759 1091.2 912.535L1091.2 952.14C1091.21 954.101 1091.54 956.101 1092.18 958.141 1092.83 960.181 1093.73 961.959 1094.89 963.474L1095.14 963.856 1093.49 963.856C1088.72 963.792 1084.93 962.36 1082.14 959.558 1079.34 956.756 1077.91 952.968 1077.84 948.192L1077.84 908.459C1077.83 906.507 1077.48 904.522 1076.79 902.506 1076.11 900.489 1075.19 898.696 1074.03 897.125ZM933.585 896.871C929.254 897.041 925.835 898.95 923.327 902.597 920.818 906.243 919.01 910.605 917.901 915.68 916.791 920.756 916.169 925.523 916.035 929.981L949.227 929.981C949.108 919.465 947.757 911.335 945.174 905.594 942.591 899.853 938.728 896.945 933.585 896.871ZM1451.44 896.234C1446.55 896.34 1442.7 898.611 1439.87 903.047 1437.05 907.483 1435.61 913.447 1435.55 920.94 1435.62 928.604 1437.12 934.638 1440.05 939.039 1442.97 943.44 1446.85 945.685 1451.7 945.773 1456.53 945.685 1460.37 943.472 1463.22 939.135 1466.07 934.797 1467.53 928.859 1467.59 921.322 1467.53 913.758 1466.04 907.714 1463.14 903.19 1460.24 898.667 1456.34 896.348 1451.44 896.234ZM1384.35 895.47C1393.11 895.706 1400.04 898.863 1405.15 904.942 1410.25 911.019 1412.86 919.366 1412.97 929.981L1412.97 931.255 1366.3 931.255C1367.07 938.352 1369.37 944.183 1373.21 948.749 1377.05 953.315 1382.38 955.676 1389.19 955.833 1392.66 955.889 1396.02 955.141 1399.28 953.589 1402.54 952.037 1405.11 949.346 1406.99 945.518L1407.75 946.155C1405.94 952.578 1402.7 957.369 1398.06 960.529 1393.41 963.689 1388.33 965.265 1382.83 965.257 1377.29 965.208 1372.26 963.707 1367.72 960.752 1363.19 957.798 1359.57 953.684 1356.86 948.409 1354.15 943.134 1352.76 936.992 1352.69 929.981 1352.72 923.461 1354.01 917.611 1356.57 912.431 1359.13 907.25 1362.78 903.145 1367.5 900.116 1372.22 897.086 1377.84 895.537 1384.35 895.47ZM1187.17 895.47C1191.39 895.488 1195.32 896.131 1198.95 897.399 1202.57 898.667 1205.51 900.451 1207.75 902.752 1209.99 905.053 1211.14 907.762 1211.21 910.879 1211.17 913.325 1210.49 915.246 1209.18 916.642 1207.86 918.037 1206.17 918.748 1204.09 918.775 1201.92 918.769 1200.09 918.048 1198.57 916.609 1197.06 915.172 1196.27 913.049 1196.2 910.242 1197.92 906.929 1197.82 903.814 1195.9 900.898 1193.98 897.982 1190.99 896.427 1186.92 896.234 1183.79 896.306 1181.21 897.34 1179.16 899.338 1177.12 901.336 1176.06 903.867 1175.98 906.931 1176.17 910.916 1178.01 914.264 1181.51 916.976 1185.01 919.687 1189.06 922.303 1193.66 924.824 1198.26 927.344 1202.31 930.31 1205.81 933.722 1209.31 937.134 1211.15 941.533 1211.34 946.919 1211.23 952.761 1209.06 957.282 1204.84 960.481 1200.61 963.681 1194.98 965.273 1187.94 965.257 1183.76 965.24 1179.85 964.595 1176.22 963.323 1172.59 962.051 1169.65 960.256 1167.39 957.937 1165.13 955.618 1163.97 952.879 1163.9 949.72 1163.94 947.33 1164.6 945.425 1165.89 944.006 1167.18 942.586 1168.89 941.859 1171.02 941.825 1173.13 941.835 1174.96 942.578 1176.51 944.053 1178.06 945.528 1178.9 947.672 1179.04 950.485 1177.19 953.798 1177.23 956.913 1179.15 959.829 1181.07 962.745 1184.13 964.299 1188.32 964.493 1191.77 964.405 1194.6 963.243 1196.82 961.007 1199.05 958.77 1200.2 955.984 1200.27 952.649 1200.09 948.534 1198.26 945.08 1194.77 942.286 1191.28 939.493 1187.25 936.834 1182.66 934.311 1178.07 931.788 1174.04 928.875 1170.55 925.572 1167.06 922.269 1165.23 918.05 1165.05 912.917 1165.13 907.677 1167.15 903.479 1171.1 900.325 1175.05 897.17 1180.41 895.552 1187.17 895.47ZM1137.9 895.47C1140.64 895.529 1143.32 896.188 1145.95 897.446 1148.57 898.704 1150.76 900.457 1152.49 902.705 1154.23 904.953 1155.13 907.593 1155.2 910.624 1155.16 913.193 1154.5 915.188 1153.21 916.609 1151.92 918.032 1150.21 918.753 1148.07 918.775 1145.91 918.769 1144.07 918.048 1142.56 916.609 1141.05 915.172 1140.26 913.049 1140.19 910.242 1142.02 906.944 1142.4 903.893 1141.33 901.089 1140.27 898.285 1138.23 896.794 1135.23 896.616L1133.92 897.068ZM934.094 895.47C942.853 895.706 949.784 898.863 954.887 904.942 959.989 911.019 962.597 919.366 962.708 929.981L962.708 931.255 916.035 931.255C916.806 938.352 919.111 944.183 922.95 948.749 926.789 953.315 932.115 955.676 938.926 955.833 942.394 955.889 945.759 955.141 949.021 953.589 952.282 952.037 954.852 949.346 956.731 945.518L957.494 946.155C955.676 952.578 952.444 957.369 947.797 960.529 943.15 963.689 938.073 965.265 932.568 965.257 927.031 965.208 921.996 963.707 917.462 960.752 912.929 957.798 909.307 953.684 906.596 948.409 903.885 943.134 902.496 936.992 902.428 929.981 902.458 923.461 903.754 917.611 906.314 912.431 908.873 907.25 912.514 903.145 917.236 900.116 921.958 897.086 927.577 895.537 934.094 895.47ZM1238.1 888.848 1239.37 888.848 1239.37 896.871 1247.51 896.871 1247.51 898.144 1239.37 898.144 1239.37 952.013C1239.4 954.037 1239.77 956.101 1240.49 958.205 1241.21 960.309 1242.15 962.15 1243.32 963.729L1241.66 963.729C1236.89 963.673 1233.11 962.256 1230.31 959.479 1227.52 956.701 1226.08 952.896 1226.02 948.065L1226.02 898.144 1221.32 898.144 1221.32 896.871 1227.17 896.871C1230.4 896.369 1233.02 895.175 1235.02 893.289 1237.02 891.402 1238.04 889.922 1238.1 888.848ZM1475.1 881.411C1476.02 881.434 1476.95 881.577 1477.9 881.843 1479.76 882.517 1481.06 883.557 1481.81 884.964 1482.55 886.37 1482.65 887.919 1482.09 889.612 1481.5 891.259 1480.43 892.485 1478.88 893.289 1477.33 894.093 1475.44 894.14 1473.19 893.432 1471.18 891.238 1468.81 890.437 1466.08 891.028 1463.36 891.62 1461.28 893.398 1459.84 896.361 1466.39 897.834 1471.53 900.747 1475.26 905.101 1478.98 909.454 1480.88 914.819 1480.95 921.194 1480.83 928.875 1478.14 934.972 1472.9 939.485 1467.66 943.998 1460.59 946.306 1451.7 946.409 1448.07 946.407 1444.71 945.998 1441.64 945.184 1438.56 944.369 1435.81 943.164 1433.38 941.57 1430.58 943.807 1429.16 945.924 1429.12 947.922 1429.09 949.919 1430.85 950.986 1434.4 951.121 1437.74 950.971 1442.11 950.293 1447.52 949.088 1452.92 947.883 1458.41 947.053 1463.97 946.6 1469.53 946.147 1474.22 946.974 1478.04 949.08 1481.85 951.186 1483.84 955.474 1484 961.946 1483.89 968.17 1482.13 973.522 1478.72 978.001 1475.32 982.48 1470.92 985.927 1465.54 988.34 1460.15 990.753 1454.44 991.973 1448.39 992 1443.97 991.985 1439.71 991.337 1435.6 990.057 1431.5 988.777 1428.11 986.96 1425.44 984.604 1422.78 982.249 1421.4 979.451 1421.3 976.209 1421.34 973.946 1422 972.136 1423.29 970.781 1424.58 969.425 1426.29 968.73 1428.43 968.695 1430.53 968.701 1432.36 969.422 1433.89 970.86 1435.43 972.298 1436.24 974.421 1436.31 977.228 1434.57 980.602 1435.13 983.754 1438 986.683 1440.86 989.612 1445.05 991.172 1450.55 991.363 1454.58 991.294 1458.75 990.258 1463.04 988.255 1467.33 986.252 1470.98 983.443 1473.97 979.827 1476.97 976.211 1478.53 971.948 1478.66 967.04 1478.58 962.739 1477.24 960.117 1474.63 959.174 1472.03 958.23 1468.64 958.215 1464.48 959.128 1460.31 960.041 1455.85 961.132 1451.08 962.402 1446.32 963.671 1441.73 964.368 1437.33 964.493 1431.13 964.307 1427.05 962.698 1425.11 959.668 1423.17 956.637 1422.92 953.303 1424.36 949.664 1425.81 946.025 1428.52 943.2 1432.49 941.188 1429.22 938.946 1426.67 936.139 1424.85 932.767 1423.02 929.395 1422.1 925.537 1422.07 921.194 1422.2 913.492 1424.95 907.311 1430.3 902.649 1435.65 897.988 1442.78 895.594 1451.7 895.47 1454.37 895.47 1456.91 895.725 1459.33 896.234 1461.2 891.249 1463.82 887.338 1467.18 884.502 1469.7 882.375 1472.34 881.345 1475.1 881.411ZM782.741 870.764C786.797 870.815 790.003 872.019 792.358 874.378 794.714 876.736 795.917 879.947 795.967 884.008L795.967 952.14C795.983 954.101 796.332 956.101 797.016 958.141 797.7 960.181 798.622 961.959 799.782 963.474L800.036 963.856 798.256 963.856C793.543 963.792 789.775 962.36 786.953 959.558 784.132 956.756 782.685 952.968 782.614 948.192L782.614 881.334C782.611 879.7 782.616 877.938 782.63 876.049 782.643 874.16 782.68 872.398 782.741 870.764ZM1280.76 870 1282.54 870C1287.26 870.072 1291.03 871.52 1293.85 874.346 1296.67 877.171 1298.11 880.944 1298.19 885.664L1298.19 947.555C1298.25 952.275 1299.68 956.048 1302.48 958.874 1305.28 961.699 1309.06 963.148 1313.83 963.219L1322.6 963.219C1326.51 963.172 1330.31 962.248 1334 960.45 1337.7 958.651 1340.77 956.263 1343.21 953.286L1346.13 949.72 1343.46 963.856 1300.48 963.856C1295.71 963.792 1291.92 962.36 1289.13 959.558 1286.33 956.756 1284.9 952.968 1284.83 948.192L1284.83 881.716C1284.82 879.763 1284.47 877.779 1283.78 875.763 1283.1 873.746 1282.18 871.953 1281.02 870.382ZM1076.57 870 1084.71 870C1087.03 870.042 1088.88 870.753 1090.24 872.133 1091.61 873.513 1092.31 875.306 1092.34 877.514L1092.34 885.791 1084.2 885.791C1081.88 885.759 1080.04 885.059 1078.67 883.69 1077.3 882.321 1076.6 880.474 1076.57 878.15ZM1002.36 870 1065.05 870 1067.73 884.136 1064.8 880.57C1062.36 877.599 1059.29 875.232 1055.6 873.47 1051.9 871.708 1048.1 870.807 1044.2 870.764L1019.78 870.764 1019.78 920.303 1029.7 920.303C1033.53 920.255 1037.15 919.268 1040.56 917.342 1043.96 915.416 1046.66 912.837 1048.65 909.605L1050.3 906.931 1050.3 934.311 1048.78 931.764C1046.73 928.528 1043.99 925.927 1040.56 923.964 1037.13 922.001 1033.47 920.993 1029.57 920.94L1019.78 920.94 1019.78 952.14C1019.79 954.101 1020.12 956.101 1020.77 958.141 1021.41 960.181 1022.31 961.959 1023.47 963.474L1023.72 963.856 1022.07 963.856C1017.3 963.792 1013.52 962.36 1010.72 959.558 1007.92 956.756 1006.49 952.968 1006.43 948.192L1006.43 881.716C1006.41 879.763 1006.06 877.779 1005.38 875.763 1004.69 873.746 1003.77 871.953 1002.61 870.382ZM828.722 870 830.503 870C835.216 870.072 838.984 871.52 841.805 874.346 844.627 877.171 846.073 880.944 846.145 885.664L846.145 910.497C847.963 905.859 851.036 902.209 855.365 899.545 859.695 896.881 864.675 895.523 870.308 895.47 877.697 895.592 883.076 897.927 886.443 902.474 889.81 907.021 891.469 913.049 891.419 920.558L891.419 952.14C891.429 954.101 891.758 956.101 892.404 958.141 893.051 960.181 893.952 961.959 895.107 963.474L895.361 963.856 893.581 963.856C888.867 963.792 885.1 962.36 882.278 959.558 879.457 956.756 878.01 952.968 877.938 948.192L877.938 919.284C877.915 913.389 876.595 908.847 873.98 905.658 871.365 902.469 867.598 900.856 862.678 900.818 857.895 900.872 854.011 902.357 851.025 905.276 848.039 908.194 846.413 912.227 846.145 917.374L846.145 952.14C846.156 954.101 846.484 956.101 847.131 958.141 847.777 960.181 848.678 961.959 849.833 963.474L850.088 963.856 848.434 963.856C843.665 963.792 839.882 962.36 837.084 959.558 834.286 956.756 832.855 952.968 832.792 948.192L832.792 881.716C832.776 879.71 832.426 877.705 831.743 875.699 831.059 873.693 830.137 871.878 828.977 870.255ZM756.67 870 822.037 870 824.708 884.136 821.91 880.57C819.414 877.599 816.33 875.232 812.658 873.47 808.986 871.708 805.203 870.807 801.308 870.764L782.741 870.764 777.4 870.764C773.497 870.807 769.698 871.708 766.002 873.47 762.306 875.232 759.238 877.599 756.797 880.57L754 884.136Z" fill="#FFFFFF" fill-rule="evenodd"/></g></svg>