<svg width="798" height="125" xmlns="http://www.w3.org/2000/svg" xmlns:xlink="http://www.w3.org/1999/xlink" xml:space="preserve" overflow="hidden"><defs><clipPath id="clip0"><rect x="1799" y="1163" width="798" height="125"/></clipPath></defs><g clip-path="url(#clip0)" transform="translate(-1799 -1163)"><path d="M1962.45 1271.96 1962.34 1272.33 1962.19 1272.33ZM2032.64 1267.06 2029.17 1286.19 1959.39 1286.19 1959.39 1282.72 1962.34 1272.33 2014.16 1272.33C2016.62 1272.31 2019.24 1271.98 2022.02 1271.34 2024.79 1270.71 2027.29 1269.88 2029.5 1268.87ZM1841.07 1213.3C1835.53 1213.46 1830.53 1216.19 1826.06 1221.48 1821.59 1226.77 1818.73 1233.67 1817.48 1242.16 1817.79 1245.22 1818.45 1249.21 1819.46 1254.1 1820.46 1259 1821.94 1263.96 1823.89 1268.97 1825.84 1273.99 1828.38 1278.22 1831.51 1281.65 1834.65 1285.08 1838.49 1286.87 1843.05 1287.01 1849.48 1286.77 1854.56 1283.38 1858.29 1276.85 1862.02 1270.32 1863.92 1262.11 1864 1252.21 1863.81 1241 1861.51 1231.77 1857.11 1224.53 1852.71 1217.29 1847.37 1213.55 1841.07 1213.3ZM2258.02 1209.83C2262.25 1209.94 2265.72 1211.38 2268.46 1214.14 2271.2 1216.91 2272.61 1220.36 2272.71 1224.51 2272.61 1228.73 2271.2 1232.21 2268.46 1234.94 2265.72 1237.68 2262.25 1239.09 2258.02 1239.19 2253.88 1239.09 2250.42 1237.68 2247.65 1234.94 2244.89 1232.21 2243.45 1228.73 2243.34 1224.51 2243.45 1220.36 2244.89 1216.91 2247.65 1214.14 2250.42 1211.38 2253.88 1209.94 2258.02 1209.83ZM2496.64 1164.65 2498.29 1164.65 2465.79 1286.19 2463.97 1286.19ZM2380.03 1164.65 2448.82 1164.65C2439.88 1177.92 2432.76 1190.41 2427.45 1202.13 2422.15 1213.85 2418.19 1226.34 2415.58 1239.58 2412.97 1252.82 2411.24 1268.36 2410.38 1286.19L2407.25 1286.19C2402.15 1286.11 2398.48 1284.61 2396.24 1281.67 2393.99 1278.73 2393.53 1274.8 2394.87 1269.86 2398.34 1257.34 2402.1 1246 2406.14 1235.84 2410.19 1225.69 2414.85 1216.01 2420.12 1206.8 2425.4 1197.6 2431.61 1188.17 2438.76 1178.5L2395.2 1178.5C2392.67 1178.52 2390.02 1178.86 2387.26 1179.53 2384.5 1180.21 2381.98 1181.13 2379.7 1182.29L2376.56 1183.78ZM1936.4 1164.65 1938.05 1164.65 1905.55 1286.19 1903.73 1286.19ZM2099.67 1163.82C2092.18 1164.06 2086.05 1169.65 2081.3 1180.58 2076.55 1191.52 2074.09 1206.38 2073.94 1225.17 2073.97 1237.2 2075.05 1247.85 2077.18 1257.11 2079.3 1266.37 2082.23 1273.64 2085.99 1278.93 2089.74 1284.22 2094.08 1286.91 2099.01 1287.01 2103.9 1286.92 2108.23 1284.22 2112.01 1278.92 2115.79 1273.62 2118.77 1266.26 2120.94 1256.84 2123.11 1247.42 2124.21 1236.47 2124.26 1224.02 2124.14 1205.78 2121.86 1191.25 2117.41 1180.44 2112.96 1169.62 2107.05 1164.09 2099.67 1163.82ZM2556.91 1163.16C2567.31 1163.26 2575.42 1166 2581.22 1171.39 2587.03 1176.78 2589.98 1184.26 2590.07 1193.84 2589.93 1202.03 2587.86 1208.73 2583.86 1213.96 2579.87 1219.18 2574.79 1222.75 2568.62 1224.68 2576.81 1225.6 2583.54 1228.74 2588.81 1234.1 2594.09 1239.45 2596.82 1246.43 2597 1255.02 2596.77 1265.04 2593.06 1272.95 2585.86 1278.77 2578.67 1284.58 2569.35 1287.55 2557.9 1287.67 2551.46 1287.65 2545.4 1286.68 2539.72 1284.76 2534.03 1282.84 2529.4 1280.09 2525.82 1276.51 2522.24 1272.92 2520.4 1268.62 2520.29 1263.59 2520.33 1259.92 2521.35 1257 2523.34 1254.85 2525.32 1252.7 2527.99 1251.6 2531.34 1251.56 2534.67 1251.56 2537.54 1252.67 2539.96 1254.89 2542.38 1257.12 2543.68 1260.46 2543.88 1264.91 2541.91 1268.3 2541.37 1271.68 2542.25 1275.04 2543.12 1278.4 2545 1281.22 2547.87 1283.48 2550.75 1285.74 2554.2 1286.92 2558.23 1287.01 2564.46 1286.81 2569.57 1284.16 2573.53 1279.03 2577.5 1273.91 2579.55 1267.5 2579.68 1259.8 2579.54 1252.43 2577.58 1246.26 2573.82 1241.3 2570.05 1236.34 2565.33 1232.6 2559.64 1230.09 2553.95 1227.58 2548.14 1226.33 2542.23 1226.32L2542.23 1224.51C2551.08 1224.52 2558.33 1221.66 2563.98 1215.94 2569.64 1210.21 2572.56 1201.58 2572.75 1190.04 2572.76 1182.68 2571.46 1176.51 2568.83 1171.55 2566.2 1166.6 2562.18 1164.02 2556.75 1163.82 2553.05 1163.92 2549.87 1165.11 2547.21 1167.4 2544.56 1169.69 2542.85 1172.53 2542.08 1175.92 2541.31 1179.31 2541.91 1182.7 2543.88 1186.09 2543.68 1190.47 2542.38 1193.79 2539.96 1196.04 2537.54 1198.3 2534.67 1199.43 2531.34 1199.44 2527.99 1199.39 2525.32 1198.26 2523.34 1196.04 2521.35 1193.83 2520.33 1190.84 2520.29 1187.08 2520.39 1182.16 2522.18 1177.92 2525.64 1174.35 2529.1 1170.79 2533.6 1168.04 2539.13 1166.1 2544.66 1164.17 2550.59 1163.19 2556.91 1163.16ZM2000.96 1163.16C2011.15 1163.23 2019.19 1165.86 2025.09 1171.04 2030.99 1176.22 2034 1183.05 2034.12 1191.53 2033.94 1199.33 2031.5 1206.54 2026.8 1213.15 2022.1 1219.77 2016.26 1225.88 2009.28 1231.49 2002.29 1237.1 1995.27 1242.3 1988.22 1247.1 1981.17 1251.89 1975.2 1256.37 1970.31 1260.53L1962.45 1271.96 1965.36 1261.73C1969.19 1254.82 1973.93 1247.99 1979.6 1241.23 1985.26 1234.47 1990.93 1227.76 1996.59 1221.11 2002.26 1214.46 2007 1207.85 2010.83 1201.28 2014.66 1194.71 2016.65 1188.16 2016.8 1181.63 2016.78 1176.56 2015.54 1172.36 2013.07 1169.02 2010.6 1165.68 2007 1163.95 2002.28 1163.82 1998.26 1163.92 1994.83 1165.11 1992.01 1167.4 1989.19 1169.69 1987.37 1172.53 1986.54 1175.92 1985.72 1179.31 1986.29 1182.7 1988.26 1186.09 1988.07 1190.47 1986.76 1193.79 1984.34 1196.04 1981.92 1198.3 1979.05 1199.43 1975.72 1199.44 1972.37 1199.39 1969.7 1198.26 1967.72 1196.06 1965.73 1193.87 1964.71 1190.92 1964.67 1187.24 1964.78 1182.32 1966.59 1178.07 1970.08 1174.48 1973.57 1170.88 1978.07 1168.11 1983.56 1166.15 1989.05 1164.18 1994.85 1163.19 2000.96 1163.16ZM2099.84 1163C2112.56 1163.27 2122.67 1168.95 2130.19 1180.05 2137.71 1191.14 2141.56 1206.02 2141.74 1224.68 2141.69 1237.14 2139.91 1248.11 2136.4 1257.58 2132.9 1267.06 2127.99 1274.47 2121.68 1279.83 2115.37 1285.18 2107.98 1287.91 2099.51 1288 2091.14 1287.91 2083.74 1285.23 2077.32 1279.96 2070.89 1274.69 2065.85 1267.37 2062.2 1258 2058.54 1248.63 2056.68 1237.74 2056.61 1225.34 2056.87 1206.36 2060.98 1191.29 2068.95 1180.13 2076.91 1168.97 2087.21 1163.26 2099.84 1163ZM1842.23 1163C1851.97 1163.11 1859.83 1165.28 1865.82 1169.53 1871.8 1173.78 1874.88 1179.47 1875.06 1186.58 1875.01 1190.58 1873.99 1193.71 1872 1195.98 1870.02 1198.25 1867.35 1199.4 1864 1199.44 1860.68 1199.43 1857.8 1198.3 1855.38 1196.04 1852.96 1193.79 1851.66 1190.47 1851.46 1186.09 1853.5 1182.7 1854.45 1179.31 1854.34 1175.92 1854.22 1172.53 1853.04 1169.69 1850.79 1167.4 1848.55 1165.11 1845.25 1163.92 1840.91 1163.82 1834.68 1163.94 1829.77 1166.53 1826.17 1171.6 1822.58 1176.67 1820.02 1183.52 1818.52 1192.16 1817.01 1200.81 1816.28 1210.54 1816.32 1221.38 1816.32 1224.08 1816.36 1226.59 1816.45 1228.92 1816.53 1231.25 1816.65 1233.52 1816.82 1235.72 1818.83 1227.29 1822.36 1220.87 1827.4 1216.47 1832.44 1212.07 1838.81 1209.86 1846.51 1209.83 1856.77 1210.03 1865.09 1213.6 1871.47 1220.53 1877.85 1227.47 1881.13 1236.6 1881.32 1247.93 1881.12 1259.99 1877.53 1269.63 1870.56 1276.87 1863.59 1284.1 1854.47 1287.81 1843.21 1288 1833.84 1287.91 1825.86 1285.14 1819.29 1279.66 1812.71 1274.19 1807.69 1266.54 1804.23 1256.7 1800.77 1246.87 1799.03 1235.37 1799 1222.2 1798.97 1210.46 1800.46 1200.17 1803.46 1191.32 1806.46 1182.46 1811.15 1175.55 1817.53 1170.58 1823.9 1165.61 1832.13 1163.08 1842.23 1163Z" fill="#FFFFFF" fill-rule="evenodd"/></g></svg>