<svg width="1650" height="326" xmlns="http://www.w3.org/2000/svg" xmlns:xlink="http://www.w3.org/1999/xlink" xml:space="preserve" overflow="hidden"><defs><clipPath id="clip0"><rect x="754" y="667" width="1650" height="326"/></clipPath></defs><g clip-path="url(#clip0)" transform="translate(-754 -667)"><path d="M2100.25 762.947C2082.67 763.861 2068.31 768.986 2057.17 778.323 2046.03 787.66 2040.28 800.238 2039.92 816.056 2040.08 826.823 2042.72 835.289 2047.84 841.452 2052.96 847.616 2059.62 850.758 2067.82 850.878 2076.89 850.575 2084.58 847.11 2090.89 840.482 2097.19 833.853 2100.48 825.879 2100.75 816.558L2100.75 775.724C2100.71 771.214 2100.54 766.956 2100.25 762.947ZM1430.72 762.947C1413.14 763.861 1398.78 768.986 1387.64 778.323 1376.5 787.66 1370.75 800.238 1370.39 816.056 1370.55 826.823 1373.19 835.289 1378.31 841.452 1383.43 847.616 1390.09 850.758 1398.29 850.878 1407.36 850.575 1415.05 847.11 1421.35 840.482 1427.66 833.853 1430.95 825.879 1431.22 816.558L1431.22 775.724C1431.18 771.214 1431.01 766.956 1430.72 762.947ZM816.842 724.618 802.263 794.262 871.892 794.262 886.722 724.618ZM2267 719.859 2272.79 719.859C2282.26 719.968 2290.96 722.505 2298.87 727.468 2306.77 732.431 2312.83 739.164 2317.03 747.666L2348.2 812.8 2383.14 740.902C2384.76 737.671 2385.53 734.175 2385.43 730.412 2385.33 726.649 2384.4 723.215 2382.63 720.109L2382.63 719.859 2404 719.859 2400.73 722.614C2397.89 724.958 2395.15 727.786 2392.5 731.101 2389.85 734.414 2387.73 737.682 2386.15 740.902L2336.13 843.613C2328.31 859.932 2322.08 872.721 2317.44 881.979 2312.79 891.237 2308.39 897.754 2304.22 901.529 2300.05 905.303 2294.77 907.125 2288.37 906.994 2281.6 906.978 2275.15 905.381 2269.02 902.202 2262.88 899.024 2256.93 894.358 2251.17 888.205L2264.74 874.677C2265.97 878.512 2267.65 882.7 2269.78 887.24 2271.91 891.78 2274.67 895.708 2278.05 899.023 2281.44 902.339 2285.64 904.077 2290.63 904.238 2295.19 904.311 2299.37 902.384 2303.15 898.457 2306.94 894.531 2311.14 888.169 2315.73 879.372 2320.33 870.575 2326.12 858.905 2333.11 844.365L2284.85 741.152C2283.17 737.812 2281.07 734.472 2278.54 731.132 2276.01 727.792 2273.34 724.952 2270.52 722.614ZM1692.94 719.859C1684.38 720.194 1677.62 723.949 1672.67 731.122 1667.71 738.296 1664.13 746.876 1661.94 756.861 1659.75 766.846 1658.52 776.223 1658.25 784.993L1723.86 784.993C1723.63 764.304 1720.95 748.313 1715.85 737.019 1710.74 725.725 1703.11 720.005 1692.94 719.859ZM1125.27 719.859 1128.79 719.859C1138.1 719.984 1145.55 722.802 1151.13 728.313 1156.7 733.825 1159.56 741.278 1159.7 750.672L1159.7 828.582C1159.72 832.439 1160.37 836.374 1161.65 840.388 1162.93 844.401 1164.71 847.898 1166.99 850.878L1167.5 851.63 1164.23 851.63C1154.8 851.504 1147.32 848.686 1141.79 843.175 1136.26 837.663 1133.44 830.211 1133.31 820.816L1133.31 742.656C1133.28 738.814 1132.59 734.911 1131.24 730.944 1129.89 726.978 1128.06 723.449 1125.77 720.36ZM2219.84 717.103C2225.25 717.22 2230.55 718.516 2235.74 720.991 2240.93 723.465 2245.25 726.913 2248.68 731.336 2252.11 735.759 2253.9 740.951 2254.02 746.914 2253.96 751.966 2252.65 755.891 2250.1 758.688 2247.55 761.486 2244.16 762.905 2239.95 762.947 2235.67 762.937 2232.04 761.517 2229.05 758.688 2226.05 755.86 2224.49 751.685 2224.36 746.163 2227.98 739.675 2228.73 733.673 2226.63 728.157 2224.52 722.64 2220.5 719.707 2214.56 719.358 2207.82 719.671 2202.01 723.679 2197.12 731.382 2192.24 739.086 2189.5 748.605 2188.92 759.941L2188.92 828.582C2188.94 832.439 2189.59 836.374 2190.87 840.388 2192.15 844.401 2193.93 847.898 2196.21 850.878L2196.71 851.63 2187.41 851.63C2179.89 851.52 2173.89 849.234 2169.41 844.772 2164.93 840.309 2162.64 834.328 2162.53 826.829L2162.53 742.656C2162.5 738.814 2161.8 734.911 2160.45 730.944 2159.1 726.978 2157.28 723.449 2154.99 720.36L2154.48 719.859 2164.04 719.859C2171.54 719.953 2177.51 722.145 2181.95 726.435 2186.38 730.725 2188.7 736.549 2188.92 743.908 2191.17 736.434 2194.84 730.151 2199.95 725.057 2205.06 719.963 2211.69 717.312 2219.84 717.103ZM2072.85 717.103C2090.08 717.218 2103.45 722.249 2112.94 732.196 2122.44 742.144 2127.26 756.319 2127.4 774.721L2127.4 828.582C2127.42 832.544 2128.07 836.52 2129.35 840.513 2130.62 844.505 2132.41 848.044 2134.69 851.129L2135.19 851.63 2131.67 851.63C2123.04 851.536 2116.05 849.156 2110.68 844.49 2105.32 839.824 2102.09 833.436 2101 825.326 2099.04 834.208 2094.43 841.244 2087.18 846.431 2079.93 851.619 2070.55 854.271 2059.03 854.385 2045.69 854.255 2034.84 850.758 2026.47 843.895 2018.11 837.032 2013.79 827.586 2013.53 815.555 2013.67 804.655 2017.46 795.253 2024.9 787.349 2032.33 779.446 2042.54 773.31 2055.54 768.941 2068.53 764.572 2083.43 762.241 2100.25 761.945 2099.12 748.303 2096.23 737.697 2091.58 730.13 2086.93 722.562 2080.52 718.721 2072.35 718.606 2064.05 718.987 2057.96 722.046 2054.09 727.781 2050.22 733.517 2050.11 739.644 2053.75 746.163 2053.62 751.685 2052.06 755.86 2049.07 758.688 2046.08 761.517 2042.44 762.937 2038.16 762.947 2033.95 762.895 2030.56 761.496 2028.01 758.751 2025.46 756.006 2024.15 752.227 2024.09 747.415 2024.21 741.284 2026.53 735.955 2031.03 731.429 2035.53 726.902 2041.46 723.392 2048.81 720.898 2056.17 718.403 2064.18 717.139 2072.85 717.103ZM1940.98 717.103C1949.32 717.139 1957.07 718.403 1964.24 720.898 1971.41 723.392 1977.21 726.902 1981.64 731.429 1986.07 735.955 1988.35 741.284 1988.48 747.415 1988.4 752.227 1987.06 756.006 1984.46 758.751 1981.86 761.496 1978.51 762.895 1974.41 762.947 1970.13 762.937 1966.49 761.517 1963.5 758.688 1960.51 755.86 1958.95 751.685 1958.82 746.163 1962.22 739.644 1962.02 733.517 1958.23 727.781 1954.43 722.046 1948.51 718.987 1940.47 718.606 1934.29 718.747 1929.18 720.782 1925.14 724.712 1921.1 728.642 1919 733.621 1918.85 739.649 1919.22 747.488 1922.86 754.075 1929.77 759.409 1936.69 764.743 1944.7 769.889 1953.79 774.847 1962.89 779.805 1970.9 785.64 1977.82 792.352 1984.73 799.063 1988.37 807.716 1988.74 818.311 1988.52 829.804 1984.24 838.697 1975.88 844.991 1967.53 851.285 1956.4 854.417 1942.48 854.385 1934.22 854.351 1926.5 853.083 1919.33 850.581 1912.16 848.079 1906.34 844.547 1901.87 839.985 1897.41 835.423 1895.11 830.036 1894.97 823.823 1895.04 819.12 1896.35 815.373 1898.9 812.581 1901.45 809.788 1904.84 808.358 1909.05 808.291 1913.21 808.311 1916.83 809.773 1919.89 812.674 1922.96 815.576 1924.62 819.793 1924.89 825.326 1921.24 831.844 1921.31 837.971 1925.11 843.707 1928.9 849.443 1934.95 852.501 1943.24 852.882 1950.05 852.71 1955.65 850.424 1960.05 846.024 1964.44 841.625 1966.71 836.145 1966.87 829.584 1966.5 821.49 1962.88 814.694 1955.99 809.199 1949.1 803.703 1941.12 798.473 1932.05 793.51 1922.99 788.547 1915.01 782.816 1908.12 776.319 1901.23 769.821 1897.6 761.523 1897.24 751.424 1897.41 741.116 1901.4 732.859 1909.21 726.654 1917.02 720.448 1927.61 717.265 1940.98 717.103ZM1839.26 717.103C1844.67 717.22 1849.97 718.516 1855.16 720.991 1860.36 723.465 1864.67 726.913 1868.1 731.336 1871.54 735.759 1873.32 740.951 1873.45 746.914 1873.38 751.966 1872.07 755.891 1869.52 758.688 1866.97 761.486 1863.59 762.905 1859.37 762.947 1855.09 762.937 1851.46 761.517 1848.47 758.688 1845.48 755.86 1843.92 751.685 1843.79 746.163 1847.4 739.675 1848.15 733.673 1846.05 728.157 1843.94 722.64 1839.92 719.707 1833.98 719.358 1827.24 719.671 1821.43 723.679 1816.54 731.382 1811.66 739.086 1808.93 748.605 1808.34 759.941L1808.34 828.582C1808.37 832.439 1809.01 836.374 1810.29 840.388 1811.57 844.401 1813.35 847.898 1815.63 850.878L1816.14 851.63 1806.84 851.63C1799.31 851.52 1793.31 849.234 1788.83 844.772 1784.35 840.309 1782.06 834.328 1781.95 826.829L1781.95 742.656C1781.92 738.814 1781.23 734.911 1779.88 730.944 1778.53 726.978 1776.7 723.449 1774.41 720.36L1773.91 719.859 1783.46 719.859C1790.97 719.953 1796.94 722.145 1801.37 726.435 1805.8 730.725 1808.12 736.549 1808.34 743.908 1810.59 736.434 1814.27 730.151 1819.37 725.057 1824.48 719.963 1831.11 717.312 1839.26 717.103ZM1693.95 717.103C1711.26 717.568 1724.96 723.778 1735.05 735.735 1745.13 747.692 1750.29 764.111 1750.51 784.993L1750.51 787.498 1658.25 787.498C1659.78 801.459 1664.33 812.93 1671.92 821.912 1679.51 830.894 1690.04 835.539 1703.5 835.847 1710.36 835.957 1717.01 834.485 1723.45 831.432 1729.9 828.379 1734.98 823.087 1738.69 815.555L1740.2 816.808C1736.61 829.443 1730.22 838.869 1721.03 845.085 1711.85 851.301 1701.81 854.401 1690.93 854.385 1679.99 854.289 1670.04 851.336 1661.07 845.524 1652.11 839.713 1644.95 831.619 1639.6 821.243 1634.24 810.867 1631.49 798.783 1631.36 784.993 1631.42 772.167 1633.98 760.659 1639.04 750.468 1644.1 740.277 1651.29 732.202 1660.63 726.242 1669.96 720.282 1681.07 717.236 1693.95 717.103ZM1403.32 717.103C1420.55 717.218 1433.91 722.249 1443.41 732.196 1452.91 742.144 1457.73 756.319 1457.87 774.721L1457.87 828.582C1457.89 832.544 1458.54 836.52 1459.81 840.513 1461.09 844.505 1462.87 848.044 1465.16 851.129L1465.66 851.63 1462.14 851.63C1453.51 851.536 1446.51 849.156 1441.15 844.49 1435.79 839.824 1432.56 833.436 1431.47 825.326 1429.5 834.208 1424.9 841.244 1417.65 846.431 1410.4 851.619 1401.02 854.271 1389.49 854.385 1376.16 854.255 1365.31 850.758 1356.94 843.895 1348.57 837.032 1344.26 827.586 1344 815.555 1344.14 804.655 1347.93 795.253 1355.36 787.349 1362.8 779.446 1373.01 773.31 1386 768.941 1399 764.572 1413.9 762.241 1430.72 761.945 1429.59 748.303 1426.7 737.697 1422.05 730.13 1417.4 722.562 1410.99 718.721 1402.82 718.606 1394.52 718.987 1388.43 722.046 1384.56 727.781 1380.69 733.517 1380.58 739.644 1384.22 746.163 1384.08 751.685 1382.52 755.86 1379.53 758.688 1376.54 761.517 1372.91 762.937 1368.63 762.947 1364.42 762.895 1361.03 761.496 1358.48 758.751 1355.93 756.006 1354.62 752.227 1354.55 747.415 1354.68 741.284 1357 735.955 1361.5 731.429 1366 726.902 1371.93 723.392 1379.28 720.898 1386.63 718.403 1394.65 717.139 1403.32 717.103ZM1270.89 717.103C1285.5 717.343 1296.13 721.936 1302.79 730.881 1309.44 739.827 1312.72 751.685 1312.62 766.455L1312.62 828.582C1312.64 832.439 1313.29 836.374 1314.57 840.388 1315.85 844.401 1317.63 847.898 1319.91 850.878L1320.41 851.63 1316.89 851.63C1307.58 851.504 1300.13 848.686 1294.55 843.175 1288.98 837.663 1286.12 830.211 1285.98 820.816L1285.98 763.949C1285.93 752.353 1283.32 743.417 1278.15 737.144 1272.98 730.871 1265.54 727.698 1255.81 727.624 1246.36 727.729 1238.68 730.652 1232.78 736.393 1226.88 742.134 1223.66 750.067 1223.13 760.192L1223.13 828.582C1223.15 832.439 1223.8 836.374 1225.08 840.388 1226.36 844.401 1228.14 847.898 1230.42 850.878L1230.93 851.63 1227.66 851.63C1218.23 851.504 1210.75 848.686 1205.22 843.175 1199.69 837.663 1196.86 830.211 1196.74 820.816L1196.74 742.656C1196.71 738.814 1196.02 734.911 1194.67 730.944 1193.31 726.978 1191.49 723.449 1189.2 720.36L1188.7 719.859 1192.21 719.859C1201 719.963 1208.12 722.447 1213.58 727.312 1219.04 732.176 1222.14 738.793 1222.88 747.165 1226.47 737.802 1232.55 730.474 1241.14 725.182 1249.72 719.89 1259.64 717.197 1270.89 717.103ZM1477.75 667 1524.5 667 1524.25 667.501C1522.45 670.705 1521.33 674.192 1520.89 677.96 1520.44 681.728 1520.89 685.34 1522.24 688.795L1570.75 817.81 1620.78 688.795C1622.03 685.34 1622.48 681.728 1622.13 677.96 1621.78 674.192 1620.66 670.705 1618.77 667.501L1618.51 667 1638.62 667 1635.36 669.756C1632.65 672.208 1630.14 675.131 1627.81 678.524 1625.49 681.916 1623.73 685.34 1622.54 688.795L1559.44 851.63 1555.17 851.63 1493.84 688.795C1492.54 685.34 1490.74 681.916 1488.43 678.524 1486.13 675.131 1483.57 672.208 1480.76 669.756ZM1130.8 667 1146.88 667C1151.47 667.083 1155.12 668.482 1157.82 671.196 1160.52 673.91 1161.9 677.438 1161.97 681.78L1161.97 698.064 1145.88 698.064C1141.29 698.001 1137.65 696.623 1134.94 693.93 1132.24 691.237 1130.86 687.605 1130.8 683.033ZM962.077 667 965.596 667C974.912 667.141 982.359 669.99 987.936 675.549 993.513 681.107 996.373 688.528 996.514 697.813L996.514 758.438 1067.4 758.438 1067.4 689.797C1067.37 685.971 1066.68 682.099 1065.33 678.179 1063.97 674.26 1062.15 670.7 1059.86 667.501L1059.36 667 1062.88 667C1072.3 667.141 1079.78 669.99 1085.31 675.549 1090.84 681.107 1093.67 688.528 1093.79 697.813L1093.79 828.582C1093.82 832.439 1094.52 836.374 1095.87 840.388 1097.22 844.401 1099.04 847.898 1101.33 850.878L1101.84 851.63 1098.32 851.63C1088.89 851.504 1081.41 848.686 1075.88 843.175 1070.35 837.663 1067.53 830.211 1067.4 820.816L1067.4 759.941 996.514 759.941 996.514 828.582C996.535 832.439 997.184 836.374 998.462 840.388 999.74 844.401 1001.52 847.898 1003.8 850.878L1004.31 851.63 1001.04 851.63C991.612 851.504 984.134 848.686 978.604 843.175 973.074 837.663 970.246 830.211 970.12 820.816L970.12 689.797C970.089 685.971 969.398 682.099 968.046 678.179 966.695 674.26 964.873 670.7 962.579 667.501ZM824.132 667 829.41 667 818.35 719.358 887.979 719.358 899.039 667 904.318 667 893.258 719.358 934.985 719.358 933.98 724.618 892.001 724.618 877.17 794.262 919.149 794.262 918.143 799.523 875.913 799.523 864.853 851.63 859.575 851.63 870.635 799.523 801.006 799.523 789.946 851.63 784.667 851.63 795.727 799.523 754 799.523 755.005 794.262 796.732 794.262 811.563 724.618 769.836 724.618 770.842 719.358 813.072 719.358Z" fill="#FFFFFF" fill-rule="evenodd"/><path d="M1393.62 898.717C1388.35 898.826 1384.2 901.912 1381.19 907.977 1378.17 914.042 1376.64 922.433 1376.58 933.152 1376.6 942.743 1377.86 950.34 1380.38 955.944 1382.89 961.549 1386.54 964.413 1391.33 964.537 1394.66 964.515 1397.78 963.105 1400.7 960.306 1403.62 957.508 1405.95 953.453 1407.69 948.141 1409.44 942.829 1410.22 936.393 1410.02 928.832L1410.02 928.45C1409.72 919.206 1408.13 911.964 1405.26 906.722 1402.38 901.481 1398.5 898.812 1393.62 898.717ZM1572.85 898.082C1568.52 898.252 1565.1 900.156 1562.59 903.795 1560.08 907.434 1558.28 911.785 1557.17 916.85 1556.06 921.914 1555.44 926.671 1555.3 931.119L1588.49 931.119C1588.37 920.625 1587.02 912.514 1584.44 906.786 1581.86 901.057 1577.99 898.156 1572.85 898.082ZM1108.86 898.082C1104.53 898.252 1101.11 900.156 1098.6 903.795 1096.1 907.434 1094.29 911.785 1093.18 916.85 1092.07 921.914 1091.45 926.671 1091.31 931.119L1124.5 931.119C1124.38 920.625 1123.03 912.514 1120.45 906.786 1117.87 901.057 1114 898.156 1108.86 898.082ZM933.577 898.082C929.247 898.252 925.827 900.156 923.319 903.795 920.811 907.434 919.002 911.785 917.893 916.85 916.784 921.914 916.162 926.671 916.028 931.119L949.219 931.119C949.1 920.625 947.748 912.514 945.165 906.786 942.582 901.057 938.72 898.156 933.577 898.082ZM1640.45 897.446C1635.55 897.552 1631.7 899.818 1628.87 904.244 1626.05 908.67 1624.61 914.622 1624.55 922.097 1624.63 929.745 1626.13 935.765 1629.05 940.156 1631.97 944.548 1635.85 946.788 1640.7 946.875 1645.53 946.788 1649.38 944.58 1652.22 940.252 1655.07 935.923 1656.53 929.999 1656.6 922.478 1656.53 914.931 1655.04 908.901 1652.14 904.387 1649.25 899.874 1645.35 897.56 1640.45 897.446ZM1245.19 897.446C1239.07 897.576 1234.21 900.684 1230.62 906.77 1227.02 912.856 1225.18 921.141 1225.1 931.627 1225.17 941.991 1226.97 950.203 1230.49 956.262 1234.01 962.322 1238.83 965.419 1244.94 965.554 1251.13 965.419 1256.04 962.29 1259.69 956.167 1263.33 950.044 1265.2 941.737 1265.28 931.246 1265.19 920.776 1263.34 912.554 1259.72 906.579 1256.1 900.604 1251.26 897.56 1245.19 897.446ZM1573.36 896.684C1582.12 896.919 1589.05 900.07 1594.15 906.135 1599.25 912.199 1601.86 920.527 1601.97 931.119L1601.97 932.389 1555.3 932.389C1556.07 939.471 1558.38 945.289 1562.22 949.845 1566.06 954.401 1571.38 956.757 1578.19 956.913 1581.66 956.969 1585.02 956.222 1588.29 954.674 1591.55 953.125 1594.12 950.441 1595.99 946.621L1596.76 947.256C1594.94 953.665 1591.71 958.446 1587.06 961.599 1582.41 964.752 1577.34 966.324 1571.83 966.316 1566.3 966.268 1561.26 964.77 1556.73 961.822 1552.2 958.874 1548.57 954.769 1545.86 949.506 1543.15 944.243 1541.76 938.114 1541.69 931.119 1541.72 924.613 1543.02 918.776 1545.58 913.607 1548.14 908.438 1551.78 904.342 1556.5 901.319 1561.22 898.297 1566.84 896.751 1573.36 896.684ZM1328.44 896.684C1335.82 896.806 1341.2 899.135 1344.57 903.672 1347.94 908.21 1349.6 914.224 1349.54 921.716L1349.54 953.228C1349.56 955.185 1349.88 957.181 1350.53 959.216 1351.18 961.252 1352.08 963.026 1353.23 964.537L1353.49 964.918 1351.71 964.918C1346.99 964.855 1343.23 963.425 1340.4 960.63 1337.58 957.835 1336.14 954.054 1336.06 949.289L1336.06 920.445C1336.04 914.563 1334.72 910.031 1332.11 906.849 1329.49 903.667 1325.72 902.058 1320.8 902.021 1316.02 902.074 1312.14 903.556 1309.15 906.468 1306.17 909.38 1304.54 913.404 1304.27 918.539L1304.27 953.228C1304.28 955.185 1304.61 957.181 1305.26 959.216 1305.91 961.252 1306.81 963.026 1307.96 964.537L1308.22 964.918 1306.56 964.918C1301.79 964.855 1298.01 963.425 1295.21 960.63 1292.41 957.835 1290.98 954.054 1290.92 949.289L1290.92 909.645C1290.9 907.696 1290.55 905.716 1289.87 903.704 1289.19 901.692 1288.27 899.903 1287.11 898.336L1286.85 898.082 1288.63 898.082C1293.08 898.135 1296.68 899.395 1299.44 901.862 1302.2 904.329 1303.77 907.686 1304.15 911.932 1305.96 907.183 1309.04 903.466 1313.38 900.782 1317.72 898.098 1322.74 896.732 1328.44 896.684ZM1245.19 896.684C1255.38 896.827 1263.46 900.003 1269.45 906.214 1275.44 912.424 1278.5 920.811 1278.64 931.373 1278.48 942.002 1275.39 950.446 1269.37 956.707 1263.35 962.968 1255.33 966.171 1245.32 966.316 1235.24 966.152 1227.17 962.891 1221.09 956.532 1215.02 950.173 1211.91 941.702 1211.75 931.119 1211.88 920.678 1214.95 912.366 1220.93 906.182 1226.92 899.998 1235.01 896.832 1245.19 896.684ZM1177.73 896.684C1180.87 896.667 1184.32 897.167 1188.07 898.185 1191.82 899.203 1195.07 900.842 1197.82 903.103 1200.57 905.364 1202.01 908.349 1202.14 912.059 1202.11 914.5 1201.45 916.416 1200.16 917.809 1198.87 919.201 1197.16 919.91 1195.02 919.937 1192.86 919.932 1191.02 919.212 1189.51 917.777 1187.99 916.342 1187.2 914.224 1187.14 911.423 1188.86 908.125 1188.78 905.033 1186.9 902.148 1185.02 899.262 1182.04 897.695 1177.98 897.446 1174.52 897.554 1171.42 898.948 1168.69 901.63 1165.96 904.312 1163.81 907.89 1162.22 912.365 1160.64 916.84 1159.83 921.82 1159.8 927.307 1159.8 932.753 1160.66 937.702 1162.38 942.155 1164.1 946.608 1166.67 950.164 1170.1 952.824 1173.53 955.484 1177.81 956.847 1182.94 956.913 1186.41 956.969 1189.77 956.222 1193.04 954.674 1196.3 953.125 1198.87 950.441 1200.75 946.621L1201.51 947.256C1199.69 953.665 1196.46 958.446 1191.81 961.599 1187.16 964.752 1182.09 966.324 1176.58 966.316 1171.05 966.268 1166.01 964.77 1161.48 961.822 1156.95 958.874 1153.32 954.769 1150.61 949.506 1147.9 944.243 1146.51 938.114 1146.44 931.119 1146.61 920.75 1149.55 912.485 1155.27 906.325 1160.98 900.165 1168.47 896.951 1177.73 896.684ZM1109.37 896.684C1118.13 896.919 1125.06 900.07 1130.16 906.135 1135.26 912.199 1137.87 920.527 1137.98 931.119L1137.98 932.389 1091.31 932.389C1092.08 939.471 1094.39 945.289 1098.23 949.845 1102.07 954.401 1107.39 956.757 1114.2 956.913 1117.67 956.969 1121.04 956.222 1124.3 954.674 1127.56 953.125 1130.13 950.441 1132.01 946.621L1132.77 947.256C1130.95 953.665 1127.72 958.446 1123.07 961.599 1118.43 964.752 1113.35 966.324 1107.84 966.316 1102.31 966.268 1097.27 964.77 1092.74 961.822 1088.21 958.874 1084.58 954.769 1081.87 949.506 1079.16 944.243 1077.77 938.114 1077.71 931.119 1077.74 924.613 1079.03 918.776 1081.59 913.607 1084.15 908.438 1087.79 904.342 1092.51 901.319 1097.24 898.297 1102.85 896.751 1109.37 896.684ZM934.086 896.684C942.845 896.919 949.775 900.07 954.878 906.135 959.98 912.199 962.587 920.527 962.698 931.119L962.698 932.389 916.028 932.389C916.799 939.471 919.104 945.289 922.943 949.845 926.782 954.401 932.107 956.757 938.918 956.913 942.386 956.969 945.751 956.222 949.012 954.674 952.274 953.125 954.843 950.441 956.722 946.621L957.485 947.256C955.667 953.665 952.435 958.446 947.788 961.599 943.141 964.752 938.065 966.324 932.56 966.316 927.023 966.268 921.988 964.77 917.455 961.822 912.922 958.874 909.3 954.769 906.589 949.506 903.879 944.243 902.49 938.114 902.421 931.119 902.452 924.613 903.747 918.776 906.307 913.607 908.867 908.438 912.507 904.342 917.229 901.319 921.951 898.297 927.57 896.751 934.086 896.684ZM1664.1 882.656C1665.02 882.679 1665.95 882.822 1666.9 883.088 1668.76 883.76 1670.06 884.798 1670.81 886.201 1671.55 887.604 1671.65 889.15 1671.09 890.839 1670.5 892.483 1669.43 893.706 1667.88 894.508 1666.33 895.31 1664.44 895.358 1662.19 894.651 1660.18 892.462 1657.81 891.662 1655.09 892.252 1652.36 892.843 1650.28 894.617 1648.84 897.573 1655.39 899.043 1660.53 901.949 1664.26 906.293 1667.98 910.638 1669.88 915.99 1669.95 922.351 1669.83 930.015 1667.14 936.098 1661.9 940.601 1656.66 945.104 1649.6 947.407 1640.7 947.51 1637.07 947.508 1633.71 947.1 1630.64 946.287 1627.56 945.475 1624.81 944.273 1622.39 942.682 1619.58 944.913 1618.16 947.026 1618.13 949.019 1618.09 951.013 1619.85 952.077 1623.4 952.212 1626.74 952.062 1631.11 951.385 1636.52 950.183 1641.92 948.98 1647.41 948.153 1652.97 947.701 1658.53 947.249 1663.22 948.074 1667.04 950.175 1670.85 952.276 1672.84 956.555 1673 963.013 1672.89 969.223 1671.13 974.563 1667.72 979.032 1664.32 983.501 1659.92 986.94 1654.54 989.348 1649.15 991.756 1643.44 992.973 1637.39 993 1632.98 992.985 1628.71 992.338 1624.61 991.061 1620.5 989.784 1617.11 987.971 1614.45 985.621 1611.78 983.271 1610.4 980.479 1610.31 977.244 1610.34 974.986 1611 973.18 1612.29 971.828 1613.58 970.475 1615.29 969.781 1617.43 969.747 1619.54 969.752 1621.36 970.472 1622.9 971.907 1624.43 973.342 1625.24 975.46 1625.31 978.261 1623.57 981.628 1624.13 984.773 1627 987.695 1629.86 990.618 1634.05 992.174 1639.55 992.365 1643.59 992.296 1647.75 991.262 1652.04 989.263 1656.33 987.265 1659.98 984.462 1662.97 980.854 1665.97 977.246 1667.53 972.993 1667.66 968.095 1667.58 963.804 1666.24 961.188 1663.63 960.247 1661.03 959.305 1657.65 959.29 1653.48 960.201 1649.31 961.112 1644.85 962.201 1640.08 963.467 1635.32 964.733 1630.73 965.429 1626.33 965.554 1620.13 965.368 1616.06 963.763 1614.11 960.739 1612.17 957.716 1611.92 954.389 1613.37 950.758 1614.82 947.127 1617.53 944.308 1621.5 942.301 1618.23 940.064 1615.68 937.263 1613.85 933.898 1612.03 930.534 1611.1 926.685 1611.07 922.351 1611.21 914.667 1613.95 908.498 1619.3 903.847 1624.66 899.196 1631.79 896.808 1640.7 896.684 1643.37 896.684 1645.91 896.938 1648.33 897.446 1650.2 892.472 1652.82 888.57 1656.18 885.74 1658.71 883.618 1661.35 882.59 1664.1 882.656ZM782.74 872.033C786.796 872.083 790.001 873.285 792.357 875.639 794.712 877.992 795.915 881.195 795.965 885.248L795.965 953.228C795.981 955.185 796.33 957.181 797.014 959.216 797.698 961.252 798.62 963.026 799.78 964.537L800.034 964.918 798.254 964.918C793.541 964.855 789.774 963.425 786.952 960.63 784.131 957.835 782.684 954.054 782.613 949.289L782.613 882.58C782.61 880.949 782.615 879.191 782.628 877.306 782.641 875.422 782.679 873.664 782.74 872.033ZM1469.77 871.271 1471.55 871.271C1476.27 871.342 1480.03 872.787 1482.86 875.607 1485.68 878.426 1487.12 882.191 1487.19 886.9L1487.19 948.654C1487.26 953.364 1488.69 957.128 1491.49 959.947 1494.28 962.766 1498.07 964.212 1502.84 964.283L1511.61 964.283C1515.51 964.236 1519.31 963.314 1523.01 961.52 1526.7 959.725 1529.77 957.342 1532.21 954.372L1535.14 950.814 1532.47 964.918 1489.48 964.918C1484.71 964.855 1480.93 963.425 1478.13 960.63 1475.34 957.835 1473.91 954.054 1473.84 949.289L1473.84 882.961C1473.83 881.012 1473.48 879.032 1472.79 877.02 1472.11 875.008 1471.19 873.219 1470.03 871.652ZM1406.08 871.271 1407.74 871.271C1412.51 871.342 1416.31 872.787 1419.15 875.607 1421.98 878.426 1423.44 882.191 1423.5 886.9L1423.5 953.228C1423.52 955.185 1423.84 957.181 1424.49 959.216 1425.14 961.252 1426.04 963.026 1427.19 964.537L1427.45 964.918 1425.67 964.918C1420.95 964.855 1417.19 963.425 1414.36 960.63 1411.54 957.835 1410.1 954.054 1410.02 949.289L1410.02 943.953C1408.6 951.333 1406.11 956.903 1402.54 960.662 1398.97 964.421 1394.47 966.306 1389.04 966.316 1381.51 966.147 1375.37 962.896 1370.6 956.564 1365.84 950.232 1363.38 941.835 1363.23 931.373 1363.37 920.866 1365.91 912.496 1370.86 906.262 1375.8 900.027 1382.29 896.835 1390.31 896.684 1395.99 896.732 1400.41 898.51 1403.56 902.021 1406.71 905.531 1408.86 910.486 1410.02 916.888L1410.02 882.961C1410.01 880.959 1409.69 878.958 1409.04 876.957 1408.39 874.955 1407.49 873.145 1406.34 871.525ZM828.719 871.271 830.499 871.271C835.213 871.342 838.98 872.787 841.801 875.607 844.623 878.426 846.069 882.191 846.141 886.9L846.141 911.678C847.958 907.05 851.032 903.408 855.361 900.75 859.69 898.092 864.67 896.737 870.303 896.684 877.692 896.806 883.07 899.135 886.437 903.672 889.804 908.21 891.463 914.224 891.413 921.716L891.413 953.228C891.423 955.185 891.752 957.181 892.398 959.216 893.045 961.252 893.945 963.026 895.1 964.537L895.355 964.918 893.574 964.918C888.861 964.855 885.094 963.425 882.272 960.63 879.451 957.835 878.004 954.054 877.933 949.289L877.933 920.445C877.909 914.563 876.59 910.031 873.975 906.849 871.36 903.667 867.592 902.058 862.673 902.021 857.891 902.074 854.007 903.556 851.021 906.468 848.035 909.38 846.409 913.404 846.141 918.539L846.141 953.228C846.152 955.185 846.48 957.181 847.127 959.216 847.773 961.252 848.674 963.026 849.829 964.537L850.083 964.918 848.43 964.918C843.661 964.855 839.878 963.425 837.08 960.63 834.283 957.835 832.852 954.054 832.789 949.289L832.789 882.961C832.773 880.959 832.423 878.958 831.74 876.957 831.056 874.955 830.134 873.145 828.973 871.525ZM756.67 871.271 822.034 871.271 824.705 885.375 821.907 881.817C819.412 878.852 816.328 876.491 812.656 874.733 808.984 872.975 805.201 872.075 801.306 872.033L782.74 872.033 777.398 872.033C773.496 872.075 769.697 872.975 766.001 874.733 762.306 876.491 759.237 878.852 756.797 881.817L754 885.375ZM1033.88 870C1043 870.093 1050.52 871.845 1056.46 875.257 1062.39 878.669 1065.46 883.186 1065.68 888.806 1065.64 891.583 1064.86 893.812 1063.32 895.493 1061.79 897.174 1059.74 898.037 1057.16 898.082 1054.59 898.074 1052.38 897.2 1050.51 895.461 1048.65 893.722 1047.64 891.165 1047.49 887.789 1048.99 885.179 1049.18 882.578 1048.05 879.987 1046.92 877.395 1044.87 875.227 1041.89 873.483 1038.91 871.738 1035.39 870.831 1031.34 870.762 1026.46 870.916 1022.45 872.324 1019.31 874.987 1016.16 877.651 1014.54 881.028 1014.43 885.121 1014.57 889.413 1016.41 893.21 1019.96 896.51 1023.5 899.811 1027.89 902.934 1033.14 905.88 1038.38 908.827 1043.63 911.916 1048.87 915.147 1054.12 918.378 1058.51 922.071 1062.06 926.225 1065.6 930.38 1067.44 935.315 1067.58 941.03 1067.43 948.477 1064.24 954.518 1058.01 959.153 1051.79 963.788 1043.45 966.176 1032.99 966.316 1024.14 966.24 1016.83 964.519 1011.06 961.154 1005.29 957.79 1002.3 953.242 1002.09 947.51 1002.13 944.678 1002.91 942.433 1004.45 940.776 1005.98 939.119 1008.03 938.272 1010.61 938.235 1013.18 938.235 1015.39 939.092 1017.26 940.808 1019.12 942.523 1020.13 945.096 1020.28 948.527 1018.78 951.136 1018.59 953.726 1019.71 956.297 1020.83 958.868 1022.86 961.016 1025.81 962.74 1028.75 964.463 1032.21 965.359 1036.17 965.427 1041.49 965.337 1046.02 963.674 1049.76 960.439 1053.51 957.204 1055.46 952.937 1055.63 947.637 1055.49 942.638 1053.65 938.309 1050.12 934.649 1046.58 930.99 1042.2 927.653 1036.96 924.638 1031.73 921.622 1026.5 918.582 1021.27 915.516 1016.04 912.45 1011.65 909.011 1008.12 905.199 1004.58 901.387 1002.74 896.855 1002.6 891.601 1002.71 885.142 1005.54 879.953 1011.09 876.036 1016.64 872.118 1024.24 870.106 1033.88 870Z" fill="#FFFFFF" fill-rule="evenodd"/></g></svg>