<svg width="1650" height="240" xmlns="http://www.w3.org/2000/svg" xmlns:xlink="http://www.w3.org/1999/xlink" xml:space="preserve" overflow="hidden"><defs><clipPath id="clip0"><rect x="754" y="667" width="1650" height="240"/></clipPath></defs><g clip-path="url(#clip0)" transform="translate(-754 -667)"><path d="M2100.25 762.947C2082.67 763.861 2068.31 768.986 2057.17 778.323 2046.03 787.66 2040.28 800.238 2039.92 816.056 2040.08 826.823 2042.72 835.289 2047.84 841.452 2052.96 847.616 2059.62 850.758 2067.82 850.878 2076.89 850.575 2084.58 847.11 2090.89 840.482 2097.19 833.853 2100.48 825.879 2100.75 816.558L2100.75 775.724C2100.71 771.214 2100.54 766.956 2100.25 762.947ZM1430.72 762.947C1413.14 763.861 1398.78 768.986 1387.64 778.323 1376.5 787.66 1370.75 800.238 1370.39 816.056 1370.55 826.823 1373.19 835.289 1378.31 841.452 1383.43 847.616 1390.09 850.758 1398.29 850.878 1407.36 850.575 1415.05 847.11 1421.35 840.482 1427.66 833.853 1430.95 825.879 1431.22 816.558L1431.22 775.724C1431.18 771.214 1431.01 766.956 1430.72 762.947ZM816.842 724.618 802.263 794.262 871.892 794.262 886.722 724.618ZM2267 719.859 2272.79 719.859C2282.26 719.968 2290.96 722.505 2298.87 727.468 2306.77 732.431 2312.83 739.164 2317.03 747.666L2348.2 812.8 2383.14 740.902C2384.76 737.671 2385.53 734.175 2385.43 730.412 2385.33 726.649 2384.4 723.215 2382.63 720.109L2382.63 719.859 2404 719.859 2400.73 722.614C2397.89 724.958 2395.15 727.786 2392.5 731.101 2389.85 734.414 2387.73 737.682 2386.15 740.902L2336.13 843.613C2328.31 859.932 2322.08 872.721 2317.44 881.979 2312.79 891.237 2308.39 897.754 2304.22 901.529 2300.05 905.303 2294.77 907.125 2288.37 906.994 2281.6 906.978 2275.15 905.381 2269.02 902.202 2262.88 899.024 2256.93 894.358 2251.17 888.205L2264.74 874.677C2265.97 878.512 2267.65 882.7 2269.78 887.24 2271.91 891.78 2274.67 895.708 2278.05 899.023 2281.44 902.339 2285.64 904.077 2290.63 904.238 2295.19 904.311 2299.37 902.384 2303.15 898.457 2306.94 894.531 2311.14 888.169 2315.73 879.372 2320.33 870.575 2326.12 858.905 2333.11 844.365L2284.85 741.152C2283.17 737.812 2281.07 734.472 2278.54 731.132 2276.01 727.792 2273.34 724.952 2270.52 722.614ZM1692.94 719.859C1684.38 720.194 1677.62 723.949 1672.67 731.122 1667.71 738.296 1664.13 746.876 1661.94 756.861 1659.75 766.846 1658.52 776.223 1658.25 784.993L1723.86 784.993C1723.63 764.304 1720.95 748.313 1715.85 737.019 1710.74 725.725 1703.11 720.005 1692.94 719.859ZM1125.27 719.859 1128.79 719.859C1138.1 719.984 1145.55 722.802 1151.13 728.313 1156.7 733.825 1159.56 741.278 1159.7 750.672L1159.7 828.582C1159.72 832.439 1160.37 836.374 1161.65 840.388 1162.93 844.401 1164.71 847.898 1166.99 850.878L1167.5 851.63 1164.23 851.63C1154.8 851.504 1147.32 848.686 1141.79 843.175 1136.26 837.663 1133.44 830.211 1133.31 820.816L1133.31 742.656C1133.28 738.814 1132.59 734.911 1131.24 730.944 1129.89 726.978 1128.06 723.449 1125.77 720.36ZM2219.84 717.103C2225.25 717.22 2230.55 718.516 2235.74 720.991 2240.93 723.465 2245.25 726.913 2248.68 731.336 2252.11 735.759 2253.9 740.951 2254.02 746.914 2253.96 751.966 2252.65 755.891 2250.1 758.688 2247.55 761.486 2244.16 762.905 2239.95 762.947 2235.67 762.937 2232.04 761.517 2229.05 758.688 2226.05 755.86 2224.49 751.685 2224.36 746.163 2227.98 739.675 2228.73 733.673 2226.63 728.157 2224.52 722.64 2220.5 719.707 2214.56 719.358 2207.82 719.671 2202.01 723.679 2197.12 731.382 2192.24 739.086 2189.5 748.605 2188.92 759.941L2188.92 828.582C2188.94 832.439 2189.59 836.374 2190.87 840.388 2192.15 844.401 2193.93 847.898 2196.21 850.878L2196.71 851.63 2187.41 851.63C2179.89 851.52 2173.89 849.234 2169.41 844.772 2164.93 840.309 2162.64 834.328 2162.53 826.829L2162.53 742.656C2162.5 738.814 2161.8 734.911 2160.45 730.944 2159.1 726.978 2157.28 723.449 2154.99 720.36L2154.48 719.859 2164.04 719.859C2171.54 719.953 2177.51 722.145 2181.95 726.435 2186.38 730.725 2188.7 736.549 2188.92 743.908 2191.17 736.434 2194.84 730.151 2199.95 725.057 2205.06 719.963 2211.69 717.312 2219.84 717.103ZM2072.85 717.103C2090.08 717.218 2103.45 722.249 2112.94 732.196 2122.44 742.144 2127.26 756.319 2127.4 774.721L2127.4 828.582C2127.42 832.544 2128.07 836.52 2129.35 840.513 2130.62 844.505 2132.41 848.044 2134.69 851.129L2135.19 851.63 2131.67 851.63C2123.04 851.536 2116.05 849.156 2110.68 844.49 2105.32 839.824 2102.09 833.436 2101 825.326 2099.04 834.208 2094.43 841.244 2087.18 846.431 2079.93 851.619 2070.55 854.271 2059.03 854.385 2045.69 854.255 2034.84 850.758 2026.47 843.895 2018.11 837.032 2013.79 827.586 2013.53 815.555 2013.67 804.655 2017.46 795.253 2024.9 787.349 2032.33 779.446 2042.54 773.31 2055.54 768.941 2068.53 764.572 2083.43 762.241 2100.25 761.945 2099.12 748.303 2096.23 737.697 2091.58 730.13 2086.93 722.562 2080.52 718.721 2072.35 718.606 2064.05 718.987 2057.96 722.046 2054.09 727.781 2050.22 733.517 2050.11 739.644 2053.75 746.163 2053.62 751.685 2052.06 755.86 2049.07 758.688 2046.08 761.517 2042.44 762.937 2038.16 762.947 2033.95 762.895 2030.56 761.496 2028.01 758.751 2025.46 756.006 2024.15 752.227 2024.09 747.415 2024.21 741.284 2026.53 735.955 2031.03 731.429 2035.53 726.902 2041.46 723.392 2048.81 720.898 2056.17 718.403 2064.18 717.139 2072.85 717.103ZM1940.98 717.103C1949.32 717.139 1957.07 718.403 1964.24 720.898 1971.41 723.392 1977.21 726.902 1981.64 731.429 1986.07 735.955 1988.35 741.284 1988.48 747.415 1988.4 752.227 1987.06 756.006 1984.46 758.751 1981.86 761.496 1978.51 762.895 1974.41 762.947 1970.13 762.937 1966.49 761.517 1963.5 758.688 1960.51 755.86 1958.95 751.685 1958.82 746.163 1962.22 739.644 1962.02 733.517 1958.23 727.781 1954.43 722.046 1948.51 718.987 1940.47 718.606 1934.29 718.747 1929.18 720.782 1925.14 724.712 1921.1 728.642 1919 733.621 1918.85 739.649 1919.22 747.488 1922.86 754.075 1929.77 759.409 1936.69 764.743 1944.7 769.889 1953.79 774.847 1962.89 779.805 1970.9 785.64 1977.82 792.352 1984.73 799.063 1988.37 807.716 1988.74 818.311 1988.52 829.804 1984.24 838.697 1975.88 844.991 1967.53 851.285 1956.4 854.417 1942.48 854.385 1934.22 854.351 1926.5 853.083 1919.33 850.581 1912.16 848.079 1906.34 844.547 1901.87 839.985 1897.41 835.423 1895.11 830.036 1894.97 823.823 1895.04 819.12 1896.35 815.373 1898.9 812.581 1901.45 809.788 1904.84 808.358 1909.05 808.291 1913.21 808.311 1916.83 809.773 1919.89 812.674 1922.96 815.576 1924.62 819.793 1924.89 825.326 1921.24 831.844 1921.31 837.971 1925.11 843.707 1928.9 849.443 1934.95 852.501 1943.24 852.882 1950.05 852.71 1955.65 850.424 1960.05 846.024 1964.44 841.625 1966.71 836.145 1966.87 829.584 1966.5 821.49 1962.88 814.694 1955.99 809.199 1949.1 803.703 1941.12 798.473 1932.05 793.51 1922.99 788.547 1915.01 782.816 1908.12 776.319 1901.23 769.821 1897.6 761.523 1897.24 751.424 1897.41 741.116 1901.4 732.859 1909.21 726.654 1917.02 720.448 1927.61 717.265 1940.98 717.103ZM1839.26 717.103C1844.67 717.22 1849.97 718.516 1855.16 720.991 1860.36 723.465 1864.67 726.913 1868.1 731.336 1871.54 735.759 1873.32 740.951 1873.45 746.914 1873.38 751.966 1872.07 755.891 1869.52 758.688 1866.97 761.486 1863.59 762.905 1859.37 762.947 1855.09 762.937 1851.46 761.517 1848.47 758.688 1845.48 755.86 1843.92 751.685 1843.79 746.163 1847.4 739.675 1848.15 733.673 1846.05 728.157 1843.94 722.64 1839.92 719.707 1833.98 719.358 1827.24 719.671 1821.43 723.679 1816.54 731.382 1811.66 739.086 1808.93 748.605 1808.34 759.941L1808.34 828.582C1808.37 832.439 1809.01 836.374 1810.29 840.388 1811.57 844.401 1813.35 847.898 1815.63 850.878L1816.14 851.63 1806.84 851.63C1799.31 851.52 1793.31 849.234 1788.83 844.772 1784.35 840.309 1782.06 834.328 1781.95 826.829L1781.95 742.656C1781.92 738.814 1781.23 734.911 1779.88 730.944 1778.53 726.978 1776.7 723.449 1774.41 720.36L1773.91 719.859 1783.46 719.859C1790.97 719.953 1796.94 722.145 1801.37 726.435 1805.8 730.725 1808.12 736.549 1808.34 743.908 1810.59 736.434 1814.27 730.151 1819.37 725.057 1824.48 719.963 1831.11 717.312 1839.26 717.103ZM1693.95 717.103C1711.26 717.568 1724.96 723.778 1735.05 735.735 1745.13 747.692 1750.29 764.111 1750.51 784.993L1750.51 787.498 1658.25 787.498C1659.78 801.459 1664.33 812.93 1671.92 821.912 1679.51 830.894 1690.04 835.539 1703.5 835.847 1710.36 835.957 1717.01 834.485 1723.45 831.432 1729.9 828.379 1734.98 823.087 1738.69 815.555L1740.2 816.808C1736.61 829.443 1730.22 838.869 1721.03 845.085 1711.85 851.301 1701.81 854.401 1690.93 854.385 1679.99 854.289 1670.04 851.336 1661.07 845.524 1652.11 839.713 1644.95 831.619 1639.6 821.243 1634.24 810.867 1631.49 798.783 1631.36 784.993 1631.42 772.167 1633.98 760.659 1639.04 750.468 1644.1 740.277 1651.29 732.202 1660.63 726.242 1669.96 720.282 1681.07 717.236 1693.95 717.103ZM1403.32 717.103C1420.55 717.218 1433.91 722.249 1443.41 732.196 1452.91 742.144 1457.73 756.319 1457.87 774.721L1457.87 828.582C1457.89 832.544 1458.54 836.52 1459.81 840.513 1461.09 844.505 1462.87 848.044 1465.16 851.129L1465.66 851.63 1462.14 851.63C1453.51 851.536 1446.51 849.156 1441.15 844.49 1435.79 839.824 1432.56 833.436 1431.47 825.326 1429.5 834.208 1424.9 841.244 1417.65 846.431 1410.4 851.619 1401.02 854.271 1389.49 854.385 1376.16 854.255 1365.31 850.758 1356.94 843.895 1348.57 837.032 1344.26 827.586 1344 815.555 1344.14 804.655 1347.93 795.253 1355.36 787.349 1362.8 779.446 1373.01 773.31 1386 768.941 1399 764.572 1413.9 762.241 1430.72 761.945 1429.59 748.303 1426.7 737.697 1422.05 730.13 1417.4 722.562 1410.99 718.721 1402.82 718.606 1394.52 718.987 1388.43 722.046 1384.56 727.781 1380.69 733.517 1380.58 739.644 1384.22 746.163 1384.08 751.685 1382.52 755.86 1379.53 758.688 1376.54 761.517 1372.91 762.937 1368.63 762.947 1364.42 762.895 1361.03 761.496 1358.48 758.751 1355.93 756.006 1354.62 752.227 1354.55 747.415 1354.68 741.284 1357 735.955 1361.5 731.429 1366 726.902 1371.93 723.392 1379.28 720.898 1386.63 718.403 1394.65 717.139 1403.32 717.103ZM1270.89 717.103C1285.5 717.343 1296.13 721.936 1302.79 730.881 1309.44 739.827 1312.72 751.685 1312.62 766.455L1312.62 828.582C1312.64 832.439 1313.29 836.374 1314.57 840.388 1315.85 844.401 1317.63 847.898 1319.91 850.878L1320.41 851.63 1316.89 851.63C1307.58 851.504 1300.13 848.686 1294.55 843.175 1288.98 837.663 1286.12 830.211 1285.98 820.816L1285.98 763.949C1285.93 752.353 1283.32 743.417 1278.15 737.144 1272.98 730.871 1265.54 727.698 1255.81 727.624 1246.36 727.729 1238.68 730.652 1232.78 736.393 1226.88 742.134 1223.66 750.067 1223.13 760.192L1223.13 828.582C1223.15 832.439 1223.8 836.374 1225.08 840.388 1226.36 844.401 1228.14 847.898 1230.42 850.878L1230.93 851.63 1227.66 851.63C1218.23 851.504 1210.75 848.686 1205.22 843.175 1199.69 837.663 1196.86 830.211 1196.74 820.816L1196.74 742.656C1196.71 738.814 1196.02 734.911 1194.67 730.944 1193.31 726.978 1191.49 723.449 1189.2 720.36L1188.7 719.859 1192.21 719.859C1201 719.963 1208.12 722.447 1213.58 727.312 1219.04 732.176 1222.14 738.793 1222.88 747.165 1226.47 737.802 1232.55 730.474 1241.14 725.182 1249.72 719.89 1259.64 717.197 1270.89 717.103ZM1477.75 667 1524.5 667 1524.25 667.501C1522.45 670.705 1521.33 674.192 1520.89 677.96 1520.44 681.728 1520.89 685.34 1522.24 688.795L1570.75 817.81 1620.78 688.795C1622.03 685.34 1622.48 681.728 1622.13 677.96 1621.78 674.192 1620.66 670.705 1618.77 667.501L1618.51 667 1638.62 667 1635.36 669.756C1632.65 672.208 1630.14 675.131 1627.81 678.524 1625.49 681.916 1623.73 685.34 1622.54 688.795L1559.44 851.63 1555.17 851.63 1493.84 688.795C1492.54 685.34 1490.74 681.916 1488.43 678.524 1486.13 675.131 1483.57 672.208 1480.76 669.756ZM1130.8 667 1146.88 667C1151.47 667.083 1155.12 668.482 1157.82 671.196 1160.52 673.91 1161.9 677.438 1161.97 681.78L1161.97 698.064 1145.88 698.064C1141.29 698.001 1137.65 696.623 1134.94 693.93 1132.24 691.237 1130.86 687.605 1130.8 683.033ZM962.077 667 965.596 667C974.912 667.141 982.359 669.99 987.936 675.549 993.513 681.107 996.373 688.528 996.514 697.813L996.514 758.438 1067.4 758.438 1067.4 689.797C1067.37 685.971 1066.68 682.099 1065.33 678.179 1063.97 674.26 1062.15 670.7 1059.86 667.501L1059.36 667 1062.88 667C1072.3 667.141 1079.78 669.99 1085.31 675.549 1090.84 681.107 1093.67 688.528 1093.79 697.813L1093.79 828.582C1093.82 832.439 1094.52 836.374 1095.87 840.388 1097.22 844.401 1099.04 847.898 1101.33 850.878L1101.84 851.63 1098.32 851.63C1088.89 851.504 1081.41 848.686 1075.88 843.175 1070.35 837.663 1067.53 830.211 1067.4 820.816L1067.4 759.941 996.514 759.941 996.514 828.582C996.535 832.439 997.184 836.374 998.462 840.388 999.74 844.401 1001.52 847.898 1003.8 850.878L1004.31 851.63 1001.04 851.63C991.612 851.504 984.134 848.686 978.604 843.175 973.074 837.663 970.246 830.211 970.12 820.816L970.12 689.797C970.089 685.971 969.398 682.099 968.046 678.179 966.695 674.26 964.873 670.7 962.579 667.501ZM824.132 667 829.41 667 818.35 719.358 887.979 719.358 899.039 667 904.318 667 893.258 719.358 934.985 719.358 933.98 724.618 892.001 724.618 877.17 794.262 919.149 794.262 918.143 799.523 875.913 799.523 864.853 851.63 859.575 851.63 870.635 799.523 801.006 799.523 789.946 851.63 784.667 851.63 795.727 799.523 754 799.523 755.005 794.262 796.732 794.262 811.563 724.618 769.836 724.618 770.842 719.358 813.072 719.358Z" fill="#FFFFFF" fill-rule="evenodd"/></g></svg>