<svg width="1650" height="326"
  xmlns="http://www.w3.org/2000/svg"
  xmlns:xlink="http://www.w3.org/1999/xlink" xml:space="preserve" overflow="hidden">
  <defs>
    <clipPath id="clip0">
      <rect x="550" y="439" width="1650" height="326"/>
    </clipPath>
  </defs>
  <g clip-path="url(#clip0)" transform="translate(-550 -439)">
    <path d="M1896.25 535.347C1878.67 536.264 1864.31 541.411 1853.17 550.786 1842.03 560.162 1836.28 572.793 1835.92 588.677 1836.08 599.489 1838.72 607.99 1843.84 614.179 1848.96 620.369 1855.62 623.523 1863.82 623.644 1872.89 623.34 1880.58 619.86 1886.89 613.204 1893.19 606.549 1896.48 598.541 1896.75 589.181L1896.75 548.176C1896.71 543.648 1896.54 539.372 1896.25 535.347ZM1226.72 535.347C1209.14 536.264 1194.78 541.411 1183.64 550.786 1172.5 560.162 1166.75 572.793 1166.39 588.677 1166.55 599.489 1169.19 607.99 1174.31 614.179 1179.43 620.369 1186.09 623.523 1194.29 623.644 1203.36 623.34 1211.05 619.86 1217.36 613.204 1223.66 606.549 1226.95 598.541 1227.22 589.181L1227.22 548.176C1227.18 543.648 1227.01 539.372 1226.72 535.347ZM612.842 496.858 598.263 566.792 667.892 566.792 682.723 496.858ZM2063 492.079 2068.79 492.079C2078.26 492.189 2086.96 494.736 2094.87 499.72 2102.77 504.704 2108.83 511.465 2113.03 520.002L2144.2 585.407 2179.14 513.21C2180.77 509.966 2181.53 506.454 2181.43 502.676 2181.33 498.897 2180.4 495.449 2178.63 492.33L2178.63 492.079 2200 492.079 2196.73 494.846C2193.89 497.199 2191.15 500.04 2188.5 503.368 2185.85 506.695 2183.73 509.976 2182.15 513.21L2132.13 616.349C2124.31 632.736 2118.08 645.578 2113.44 654.875 2108.79 664.172 2104.39 670.715 2100.22 674.506 2096.05 678.296 2090.77 680.125 2084.37 679.993 2077.6 679.977 2071.15 678.374 2065.02 675.182 2058.88 671.99 2052.93 667.305 2047.17 661.126L2060.74 647.542C2061.97 651.393 2063.65 655.598 2065.78 660.157 2067.91 664.716 2070.67 668.661 2074.06 671.99 2077.44 675.319 2081.64 677.065 2086.63 677.226 2091.19 677.299 2095.37 675.364 2099.15 671.422 2102.94 667.479 2107.14 661.091 2111.73 652.256 2116.33 643.423 2122.12 631.705 2129.11 617.104L2080.85 513.461C2079.17 510.107 2077.07 506.753 2074.54 503.399 2072.01 500.045 2069.34 497.194 2066.52 494.846ZM1488.94 492.079C1480.38 492.416 1473.62 496.186 1468.67 503.39 1463.71 510.593 1460.13 519.208 1457.94 529.235 1455.75 539.262 1454.52 548.678 1454.25 557.484L1519.86 557.484C1519.63 536.71 1516.95 520.652 1511.85 509.311 1506.74 497.97 1499.11 492.226 1488.94 492.079ZM921.266 492.079 924.786 492.079C934.102 492.205 941.549 495.035 947.126 500.569 952.703 506.103 955.562 513.587 955.704 523.021L955.704 601.255C955.725 605.128 956.374 609.08 957.652 613.11 958.93 617.14 960.71 620.652 962.994 623.644L963.496 624.399 960.228 624.399C950.802 624.273 943.324 621.443 937.794 615.909 932.264 610.374 929.436 602.891 929.31 593.457L929.31 514.971C929.279 511.114 928.588 507.193 927.237 503.21 925.885 499.227 924.063 495.685 921.769 492.582ZM2015.84 489.312C2021.25 489.43 2026.55 490.731 2031.74 493.216 2036.93 495.7 2041.25 499.163 2044.68 503.604 2048.11 508.045 2049.9 513.259 2050.02 519.247 2049.96 524.32 2048.65 528.262 2046.1 531.07 2043.55 533.88 2040.16 535.305 2035.95 535.347 2031.67 535.337 2028.04 533.911 2025.05 531.07 2022.06 528.23 2020.49 524.037 2020.36 518.492 2023.98 511.978 2024.73 505.951 2022.63 500.412 2020.52 494.872 2016.5 491.927 2010.56 491.576 2003.82 491.89 1998.01 495.915 1993.12 503.651 1988.24 511.386 1985.5 520.945 1984.92 532.328L1984.92 601.255C1984.94 605.128 1985.59 609.08 1986.87 613.11 1988.15 617.14 1989.93 620.652 1992.21 623.644L1992.71 624.399 1983.41 624.399C1975.89 624.289 1969.89 621.993 1965.41 617.512 1960.93 613.031 1958.64 607.025 1958.53 599.495L1958.53 514.971C1958.5 511.114 1957.8 507.193 1956.45 503.21 1955.1 499.227 1953.28 495.685 1950.99 492.582L1950.48 492.079 1960.04 492.079C1967.54 492.173 1973.51 494.374 1977.95 498.682 1982.38 502.99 1984.7 508.839 1984.92 516.229 1987.17 508.724 1990.84 502.414 1995.95 497.299 2001.06 492.184 2007.69 489.521 2015.84 489.312ZM1868.85 489.312C1886.08 489.427 1899.45 494.479 1908.95 504.468 1918.44 514.457 1923.26 528.691 1923.4 547.17L1923.4 601.255C1923.42 605.233 1924.07 609.227 1925.35 613.236 1926.62 617.245 1928.41 620.798 1930.69 623.896L1931.19 624.399 1927.67 624.399C1919.04 624.304 1912.05 621.915 1906.68 617.229 1901.32 612.544 1898.09 606.129 1897.01 597.985 1895.04 606.905 1890.43 613.97 1883.18 619.179 1875.93 624.388 1866.55 627.051 1855.03 627.166 1841.69 627.035 1830.84 623.523 1822.47 616.632 1814.11 609.74 1809.79 600.254 1809.53 588.174 1809.67 577.228 1813.46 567.787 1820.9 559.851 1828.33 551.914 1838.54 545.753 1851.54 541.366 1864.53 536.979 1879.43 534.637 1896.25 534.341 1895.12 520.641 1892.23 509.992 1887.58 502.393 1882.93 494.794 1876.52 490.936 1868.35 490.821 1860.05 491.204 1853.96 494.275 1850.09 500.034 1846.22 505.794 1846.11 511.947 1849.75 518.492 1849.62 524.037 1848.06 528.23 1845.07 531.07 1842.08 533.911 1838.44 535.337 1834.16 535.347 1829.95 535.295 1826.56 533.89 1824.01 531.133 1821.46 528.377 1820.15 524.582 1820.09 519.75 1820.21 513.593 1822.53 508.242 1827.03 503.697 1831.53 499.152 1837.46 495.627 1844.81 493.122 1852.17 490.618 1860.18 489.348 1868.85 489.312ZM1736.98 489.312C1745.32 489.348 1753.07 490.618 1760.24 493.122 1767.41 495.627 1773.21 499.152 1777.64 503.697 1782.07 508.242 1784.35 513.593 1784.48 519.75 1784.4 524.582 1783.06 528.377 1780.46 531.133 1777.86 533.89 1774.51 535.295 1770.41 535.347 1766.13 535.337 1762.49 533.911 1759.5 531.07 1756.51 528.23 1754.95 524.037 1754.82 518.492 1758.22 511.947 1758.02 505.794 1754.23 500.034 1750.43 494.275 1744.51 491.204 1736.47 490.821 1730.29 490.962 1725.18 493.006 1721.14 496.953 1717.1 500.899 1715 505.899 1714.85 511.952 1715.22 519.824 1718.86 526.438 1725.77 531.794 1732.69 537.15 1740.7 542.317 1749.8 547.296 1758.89 552.275 1766.9 558.134 1773.82 564.874 1780.73 571.613 1784.37 580.303 1784.74 590.941 1784.52 602.482 1780.24 611.412 1771.88 617.732 1763.53 624.053 1752.4 627.197 1738.48 627.166 1730.22 627.132 1722.5 625.858 1715.33 623.346 1708.16 620.834 1702.34 617.287 1697.87 612.706 1693.41 608.125 1691.11 602.715 1690.97 596.476 1691.04 591.754 1692.35 587.991 1694.9 585.187 1697.45 582.383 1700.84 580.947 1705.05 580.879 1709.21 580.9 1712.83 582.367 1715.89 585.281 1718.96 588.195 1720.62 592.43 1720.89 597.985 1717.24 604.531 1717.31 610.684 1721.11 616.443 1724.9 622.203 1730.95 625.274 1739.24 625.657 1746.05 625.484 1751.65 623.188 1756.05 618.77 1760.44 614.352 1762.71 608.849 1762.87 602.262 1762.5 594.133 1758.88 587.31 1751.99 581.791 1745.1 576.272 1737.12 571.021 1728.05 566.037 1718.99 561.053 1711.01 555.299 1704.12 548.774 1697.23 542.249 1693.6 533.916 1693.24 523.775 1693.41 513.425 1697.4 505.134 1705.21 498.902 1713.02 492.671 1723.61 489.474 1736.98 489.312ZM1635.26 489.312C1640.67 489.43 1645.97 490.731 1651.16 493.216 1656.36 495.7 1660.67 499.163 1664.1 503.604 1667.54 508.045 1669.32 513.259 1669.45 519.247 1669.38 524.32 1668.07 528.262 1665.52 531.07 1662.97 533.88 1659.59 535.305 1655.37 535.347 1651.09 535.337 1647.46 533.911 1644.47 531.07 1641.48 528.23 1639.92 524.037 1639.79 518.492 1643.4 511.978 1644.15 505.951 1642.05 500.412 1639.94 494.872 1635.92 491.927 1629.98 491.576 1623.24 491.89 1617.43 495.915 1612.55 503.651 1607.66 511.386 1604.93 520.945 1604.34 532.328L1604.34 601.255C1604.37 605.128 1605.01 609.08 1606.29 613.11 1607.57 617.14 1609.35 620.652 1611.63 623.644L1612.14 624.399 1602.84 624.399C1595.31 624.289 1589.31 621.993 1584.83 617.512 1580.35 613.031 1578.06 607.025 1577.95 599.495L1577.95 514.971C1577.92 511.114 1577.23 507.193 1575.88 503.21 1574.53 499.227 1572.7 495.685 1570.41 492.582L1569.91 492.079 1579.46 492.079C1586.97 492.173 1592.94 494.374 1597.37 498.682 1601.8 502.99 1604.12 508.839 1604.34 516.229 1606.59 508.724 1610.27 502.414 1615.37 497.299 1620.48 492.184 1627.11 489.521 1635.26 489.312ZM1489.95 489.312C1507.26 489.778 1520.96 496.015 1531.05 508.021 1541.13 520.028 1546.29 536.516 1546.51 557.484L1546.51 560 1454.25 560C1455.78 574.019 1460.33 585.538 1467.92 594.558 1475.51 603.577 1486.04 608.241 1499.5 608.551 1506.36 608.661 1513.01 607.183 1519.45 604.117 1525.9 601.051 1530.98 595.737 1534.69 588.174L1536.2 589.432C1532.61 602.12 1526.22 611.585 1517.03 617.827 1507.85 624.068 1497.81 627.182 1486.93 627.166 1475.99 627.07 1466.04 624.104 1457.08 618.268 1448.11 612.433 1440.95 604.305 1435.6 593.886 1430.24 583.466 1427.49 571.332 1427.36 557.484 1427.42 544.605 1429.98 533.049 1435.04 522.816 1440.1 512.582 1447.29 504.473 1456.63 498.489 1465.96 492.504 1477.07 489.445 1489.95 489.312ZM1199.32 489.312C1216.55 489.427 1229.91 494.479 1239.41 504.468 1248.91 514.457 1253.73 528.691 1253.87 547.17L1253.87 601.255C1253.89 605.233 1254.54 609.227 1255.81 613.236 1257.09 617.245 1258.87 620.798 1261.16 623.896L1261.66 624.399 1258.14 624.399C1249.51 624.304 1242.51 621.915 1237.15 617.229 1231.79 612.544 1228.56 606.129 1227.47 597.985 1225.5 606.905 1220.9 613.97 1213.65 619.179 1206.4 624.388 1197.02 627.051 1185.49 627.166 1172.16 627.035 1161.31 623.523 1152.94 616.632 1144.57 609.74 1140.26 600.254 1140 588.174 1140.14 577.228 1143.93 567.787 1151.36 559.851 1158.8 551.914 1169.01 545.753 1182 541.366 1195 536.979 1209.9 534.637 1226.72 534.341 1225.59 520.641 1222.7 509.992 1218.05 502.393 1213.4 494.794 1206.99 490.936 1198.82 490.821 1190.52 491.204 1184.43 494.275 1180.56 500.034 1176.69 505.794 1176.58 511.947 1180.22 518.492 1180.08 524.037 1178.52 528.23 1175.53 531.07 1172.54 533.911 1168.91 535.337 1164.63 535.347 1160.42 535.295 1157.03 533.89 1154.48 531.133 1151.93 528.377 1150.62 524.582 1150.55 519.75 1150.68 513.593 1153 508.242 1157.5 503.697 1162 499.152 1167.93 495.627 1175.28 493.122 1182.63 490.618 1190.65 489.348 1199.32 489.312ZM1066.89 489.312C1081.5 489.553 1092.13 494.165 1098.79 503.148 1105.44 512.13 1108.72 524.037 1108.62 538.869L1108.62 601.255C1108.64 605.128 1109.29 609.08 1110.57 613.11 1111.85 617.14 1113.63 620.652 1115.91 623.644L1116.41 624.399 1112.89 624.399C1103.58 624.273 1096.13 621.443 1090.55 615.909 1084.98 610.374 1082.12 602.891 1081.98 593.457L1081.98 536.353C1081.93 524.708 1079.32 515.736 1074.15 509.436 1068.98 503.137 1061.54 499.951 1051.81 499.877 1042.36 499.982 1034.68 502.917 1028.78 508.682 1022.88 514.447 1019.66 522.413 1019.13 532.58L1019.13 601.255C1019.15 605.128 1019.8 609.08 1021.08 613.11 1022.36 617.14 1024.14 620.652 1026.42 623.644L1026.93 624.399 1023.66 624.399C1014.23 624.273 1006.75 621.443 1001.22 615.909 995.693 610.374 992.865 602.891 992.739 593.457L992.739 514.971C992.708 511.114 992.017 507.193 990.666 503.21 989.315 499.227 987.492 495.685 985.198 492.582L984.696 492.079 988.215 492.079C997.002 492.184 1004.12 494.678 1009.58 499.563 1015.04 504.447 1018.14 511.093 1018.88 519.499 1022.47 510.097 1028.55 502.739 1037.14 497.424 1045.72 492.11 1055.64 489.406 1066.89 489.312ZM1273.75 439 1320.5 439 1320.25 439.503C1318.46 442.721 1317.33 446.222 1316.89 450.006 1316.44 453.79 1316.89 457.416 1318.24 460.886L1366.75 590.438 1416.78 460.886C1418.03 457.416 1418.48 453.79 1418.13 450.006 1417.78 446.222 1416.66 442.721 1414.77 439.503L1414.51 439 1434.62 439 1431.36 441.767C1428.65 444.23 1426.14 447.165 1423.81 450.572 1421.49 453.978 1419.73 457.416 1418.54 460.886L1355.44 624.399 1351.17 624.399 1289.84 460.886C1288.54 457.416 1286.74 453.978 1284.43 450.572 1282.13 447.165 1279.57 444.23 1276.76 441.767ZM926.797 439 942.884 439C947.472 439.084 951.116 440.488 953.819 443.214 956.521 445.939 957.903 449.482 957.966 453.842L957.966 470.193 941.879 470.193C937.291 470.13 933.646 468.747 930.944 466.042 928.242 463.338 926.859 459.691 926.797 455.1ZM758.077 439 761.596 439C770.912 439.141 778.359 442.003 783.936 447.584 789.513 453.166 792.373 460.618 792.514 469.942L792.514 530.819 863.4 530.819 863.4 461.892C863.369 458.05 862.677 454.162 861.326 450.226 859.975 446.29 858.153 442.716 855.859 439.503L855.356 439 858.875 439C868.302 439.141 875.78 442.003 881.31 447.584 886.84 453.166 889.668 460.618 889.794 469.942L889.794 601.255C889.825 605.128 890.516 609.08 891.868 613.11 893.219 617.14 895.041 620.652 897.335 623.644L897.837 624.399 894.318 624.399C884.892 624.273 877.414 621.443 871.884 615.909 866.354 610.374 863.526 602.891 863.4 593.457L863.4 532.328 792.514 532.328 792.514 601.255C792.535 605.128 793.185 609.08 794.462 613.11 795.74 617.14 797.521 620.652 799.804 623.644L800.307 624.399 797.039 624.399C787.612 624.273 780.134 621.443 774.604 615.909 769.074 610.374 766.246 602.891 766.121 593.457L766.121 461.892C766.089 458.05 765.398 454.162 764.047 450.226 762.696 446.29 760.873 442.716 758.579 439.503ZM620.132 439 625.411 439 614.35 491.576 683.979 491.576 695.039 439 700.318 439 689.258 491.576 730.985 491.576 729.98 496.858 688.001 496.858 673.171 566.792 715.149 566.792 714.144 572.075 671.914 572.075 660.854 624.399 655.575 624.399 666.635 572.075 597.006 572.075 585.946 624.399 580.667 624.399 591.727 572.075 550 572.075 551.006 566.792 592.733 566.792 607.563 496.858 565.836 496.858 566.842 491.576 609.072 491.576Z" fill="#FFFFFF" fill-rule="evenodd"/>
    <path d="M1170.36 669.87C1166.03 670.041 1162.61 671.95 1160.1 675.597 1157.59 679.243 1155.78 683.605 1154.67 688.68 1153.56 693.756 1152.94 698.523 1152.8 702.981L1186.01 702.981C1185.89 692.464 1184.54 684.335 1181.95 678.594 1179.37 672.852 1175.5 669.945 1170.36 669.87ZM841.816 669.87 843.598 669.87C848.313 669.934 852.082 671.367 854.905 674.169 857.728 676.97 859.175 680.759 859.247 685.534L859.247 725.14C859.257 727.1 859.586 729.101 860.233 731.141 860.879 733.181 861.78 734.959 862.936 736.474L863.191 736.856 861.536 736.856C856.766 736.792 852.981 735.359 850.182 732.558 847.383 729.756 845.951 725.968 845.888 721.192L845.888 681.459C845.872 679.507 845.522 677.522 844.838 675.506 844.154 673.489 843.232 671.696 842.071 670.125ZM698.559 669.87C694.226 670.041 690.805 671.95 688.296 675.597 685.787 679.243 683.977 683.605 682.868 688.68 681.758 693.756 681.136 698.523 681.002 702.981L714.208 702.981C714.088 692.464 712.737 684.335 710.152 678.594 707.568 672.852 703.704 669.945 698.559 669.87ZM1243.43 669.234C1238.54 669.34 1234.68 671.611 1231.85 676.047 1229.03 680.483 1227.58 686.447 1227.53 693.939 1227.6 701.604 1229.1 707.637 1232.03 712.039 1234.95 716.44 1238.84 718.685 1243.68 718.772 1248.52 718.685 1252.36 716.472 1255.21 712.134 1258.06 707.796 1259.52 701.859 1259.59 694.322 1259.52 686.758 1258.03 680.714 1255.14 676.19 1252.23 671.667 1248.33 669.348 1243.43 669.234ZM1170.87 668.47C1179.63 668.706 1186.56 671.863 1191.67 677.941 1196.77 684.02 1199.38 692.366 1199.49 702.981L1199.49 704.254 1152.8 704.254C1153.57 711.352 1155.88 717.183 1159.72 721.749 1163.56 726.315 1168.89 728.676 1175.7 728.833 1179.17 728.888 1182.54 728.14 1185.8 726.588 1189.06 725.036 1191.64 722.346 1193.51 718.518L1194.28 719.155C1192.46 725.578 1189.23 730.369 1184.58 733.529 1179.93 736.689 1174.85 738.265 1169.34 738.257 1163.8 738.208 1158.77 736.706 1154.23 733.752 1149.69 730.798 1146.07 726.683 1143.36 721.409 1140.65 716.134 1139.26 709.992 1139.19 702.981 1139.22 696.461 1140.51 690.611 1143.08 685.431 1145.64 680.25 1149.28 676.145 1154 673.115 1158.73 670.086 1164.35 668.537 1170.87 668.47ZM955.982 668.47C960.204 668.488 964.129 669.131 967.757 670.399 971.385 671.667 974.321 673.451 976.564 675.752 978.807 678.053 979.962 680.762 980.027 683.879 979.985 686.325 979.307 688.246 977.992 689.642 976.677 691.037 974.981 691.748 972.903 691.775 970.737 691.769 968.898 691.048 967.384 689.609 965.871 688.171 965.081 686.049 965.014 683.242 966.735 679.928 966.634 676.814 964.712 673.898 962.791 670.982 959.796 669.427 955.727 669.234 952.6 669.305 950.013 670.34 947.966 672.338 945.92 674.336 944.86 676.867 944.786 679.931 944.97 683.916 946.812 687.264 950.312 689.976 953.812 692.687 957.865 695.303 962.47 697.823 967.075 700.344 971.128 703.31 974.628 706.722 978.128 710.134 979.971 714.532 980.155 719.918 980.046 725.76 977.878 730.282 973.65 733.481 969.422 736.681 963.787 738.272 956.745 738.257 952.563 738.24 948.656 737.594 945.026 736.323 941.395 735.051 938.45 733.255 936.191 730.936 933.931 728.618 932.768 725.878 932.699 722.72 932.734 720.329 933.396 718.425 934.687 717.005 935.978 715.586 937.69 714.859 939.824 714.824 941.931 714.835 943.76 715.578 945.31 717.053 946.861 718.528 947.704 720.672 947.839 723.484 945.992 726.798 946.029 729.913 947.95 732.829 949.872 735.744 952.931 737.299 957.127 737.492 960.575 737.405 963.411 736.243 965.635 734.006 967.859 731.77 969.009 728.984 969.086 725.649 968.903 721.534 967.067 718.08 963.579 715.286 960.092 712.492 956.054 709.834 951.465 707.311 946.876 704.788 942.838 701.875 939.35 698.572 935.863 695.269 934.028 691.05 933.844 685.916 933.932 680.677 935.951 676.479 939.903 673.325 943.855 670.171 949.215 668.552 955.982 668.47ZM906.83 668.47C909.567 668.529 912.249 669.188 914.878 670.446 917.506 671.704 919.69 673.457 921.428 675.705 923.165 677.953 924.067 680.593 924.133 683.624 924.098 686.192 923.435 688.188 922.145 689.609 920.853 691.031 919.141 691.753 917.008 691.775 914.842 691.769 913.003 691.048 911.489 689.609 909.976 688.171 909.186 686.049 909.12 683.242 910.949 679.945 911.33 676.893 910.265 674.089 909.199 671.285 907.163 669.793 904.158 669.616 900.746 669.775 897.805 671.813 895.331 675.729 892.859 679.644 891.475 684.484 891.181 690.246L891.181 725.14C891.191 727.1 891.52 729.101 892.167 731.141 892.813 733.181 893.714 734.959 894.87 736.474L895.125 736.856 890.417 736.856C886.608 736.8 883.571 735.638 881.305 733.37 879.038 731.101 877.877 728.061 877.822 724.248L877.822 681.459C877.806 679.507 877.456 677.522 876.772 675.506 876.089 673.489 875.166 671.696 874.005 670.125L873.75 669.87 878.585 669.87C882.386 669.918 885.407 671.032 887.65 673.213 889.893 675.394 891.069 678.355 891.181 682.096 892.318 678.297 894.179 675.102 896.763 672.513 899.347 669.924 902.703 668.576 906.83 668.47ZM699.068 668.47C707.831 668.706 714.765 671.863 719.869 677.941 724.974 684.02 727.582 692.366 727.694 702.981L727.694 704.254 681.002 704.254C681.773 711.352 684.079 717.183 687.919 721.749 691.76 726.315 697.088 728.676 703.902 728.833 707.372 728.888 710.738 728.14 714.001 726.588 717.264 725.036 719.835 722.346 721.714 718.518L722.478 719.155C720.659 725.578 717.425 730.369 712.777 733.529 708.127 736.689 703.049 738.265 697.541 738.257 692.002 738.208 686.965 736.706 682.429 733.752 677.894 730.798 674.27 726.683 671.559 721.409 668.847 716.134 667.457 709.992 667.388 702.981 667.419 696.461 668.715 690.611 671.276 685.431 673.837 680.25 677.479 676.145 682.203 673.115 686.927 670.086 692.549 668.537 699.068 668.47ZM1006.79 661.848 1008.06 661.848 1008.06 669.87 1016.2 669.87 1016.2 671.144 1008.06 671.144 1008.06 725.012C1008.08 727.037 1008.45 729.101 1009.17 731.205 1009.89 733.309 1010.84 735.15 1012 736.728L1010.35 736.728C1005.58 736.672 1001.79 735.256 998.995 732.478 996.196 729.701 994.765 725.896 994.701 721.065L994.701 671.144 989.994 671.144 989.994 669.87 995.846 669.87C999.085 669.369 1001.7 668.175 1003.7 666.289 1005.7 664.403 1006.73 662.922 1006.79 661.848ZM566.794 661.848 568.066 661.848 568.066 669.87 576.209 669.87 576.209 671.144 568.066 671.144 568.066 725.012C568.087 727.037 568.458 729.101 569.18 731.205 569.901 733.309 570.844 735.15 572.01 736.728L570.356 736.728C565.586 736.672 561.8 735.256 559.002 732.478 556.202 729.701 554.771 725.896 554.707 721.065L554.707 671.144 550 671.144 550 669.87 555.853 669.87C559.092 669.369 561.71 668.175 563.709 666.289 565.707 664.403 566.736 662.922 566.794 661.848ZM1264.38 654.71C1266.17 654.267 1268 654.312 1269.89 654.844 1271.75 655.517 1273.06 656.557 1273.81 657.963 1274.55 659.369 1274.65 660.919 1274.09 662.612 1273.5 664.259 1272.43 665.485 1270.88 666.289 1269.33 667.093 1267.43 667.141 1265.19 666.432 1263.17 664.238 1260.8 663.437 1258.08 664.028 1255.35 664.62 1253.27 666.397 1251.83 669.361 1258.38 670.833 1263.53 673.746 1267.25 678.101 1270.98 682.454 1272.88 687.819 1272.95 694.194 1272.82 701.875 1270.14 707.972 1264.9 712.485 1259.66 716.997 1252.58 719.305 1243.68 719.409 1240.05 719.406 1236.69 718.998 1233.62 718.184 1230.54 717.369 1227.79 716.164 1225.36 714.57 1222.56 716.806 1221.14 718.923 1221.1 720.921 1221.06 722.919 1222.82 723.985 1226.38 724.121 1229.72 723.97 1234.09 723.292 1239.5 722.088 1244.91 720.882 1250.4 720.053 1255.96 719.6 1261.53 719.147 1266.22 719.973 1270.04 722.079 1273.85 724.185 1275.84 728.474 1276 734.945 1275.89 741.17 1274.13 746.522 1270.72 751.001 1267.31 755.48 1262.92 758.926 1257.53 761.34 1252.14 763.753 1246.42 764.973 1240.38 765 1235.96 764.984 1231.69 764.336 1227.58 763.056 1223.47 761.777 1220.09 759.959 1217.42 757.604 1214.75 755.249 1213.37 752.451 1213.28 749.208 1213.31 746.945 1213.97 745.136 1215.26 743.78 1216.56 742.425 1218.27 741.73 1220.4 741.695 1222.51 741.7 1224.33 742.422 1225.87 743.86 1227.41 745.298 1228.22 747.42 1228.29 750.227 1226.55 753.602 1227.11 756.754 1229.98 759.683 1232.84 762.612 1237.03 764.172 1242.54 764.363 1246.57 764.293 1250.74 763.258 1255.03 761.255 1259.33 759.252 1262.97 756.442 1265.97 752.826 1268.96 749.21 1270.53 744.948 1270.66 740.039 1270.58 735.739 1269.23 733.117 1266.63 732.173 1264.02 731.23 1260.64 731.215 1256.47 732.128 1252.3 733.041 1247.84 734.132 1243.07 735.401 1238.3 736.67 1233.71 737.368 1229.31 737.492 1223.1 737.306 1219.03 735.698 1217.08 732.668 1215.14 729.637 1214.89 726.302 1216.34 722.664 1217.79 719.025 1220.5 716.199 1224.47 714.188 1221.2 711.946 1218.65 709.139 1216.82 705.767 1215 702.395 1214.07 698.537 1214.04 694.194 1214.18 686.492 1216.92 680.311 1222.28 675.649 1227.63 670.987 1234.77 668.595 1243.68 668.47 1246.36 668.47 1248.9 668.724 1251.32 669.234 1253.19 664.249 1255.81 660.338 1259.17 657.502 1260.86 656.084 1262.59 655.153 1264.38 654.71ZM1065.23 643 1067.01 643C1071.72 643.071 1075.49 644.52 1078.32 647.346 1081.14 650.171 1082.59 653.944 1082.66 658.664L1082.66 720.555C1082.72 725.275 1084.15 729.048 1086.95 731.873 1089.75 734.699 1093.53 736.147 1098.31 736.219L1107.08 736.219C1110.99 736.171 1114.79 735.248 1118.49 733.449 1122.18 731.65 1125.25 729.263 1127.7 726.286L1130.62 722.72 1127.95 736.856 1084.95 736.856C1080.18 736.792 1076.39 735.359 1073.59 732.558 1070.79 729.756 1069.36 725.968 1069.3 721.192L1069.3 654.716C1069.28 652.764 1068.93 650.779 1068.25 648.763 1067.56 646.746 1066.64 644.953 1065.48 643.382ZM844.616 643 852.758 643C855.08 643.043 856.925 643.753 858.292 645.133 859.66 646.513 860.36 648.306 860.392 650.513L860.392 658.791 852.249 658.791C849.927 658.759 848.083 658.059 846.714 656.69 845.347 655.321 844.647 653.474 844.616 651.15ZM768.364 643 831.087 643 833.759 657.135 830.833 653.57C828.391 650.599 825.322 648.232 821.625 646.47 817.927 644.709 814.126 643.807 810.222 643.764L785.794 643.764 785.794 693.303 795.718 693.303C799.553 693.255 803.174 692.268 806.58 690.342 809.986 688.415 812.684 685.837 814.675 682.605L816.329 679.931 816.329 707.311 814.802 704.764C812.753 701.527 810.012 698.927 806.58 696.964 803.147 695.001 799.485 693.992 795.59 693.939L785.794 693.939 785.794 725.14C785.805 727.1 786.134 729.101 786.78 731.141 787.427 733.181 788.328 734.959 789.484 736.474L789.738 736.856 788.084 736.856C783.313 736.792 779.529 735.359 776.729 732.558 773.93 729.756 772.499 725.968 772.435 721.192L772.435 654.716C772.42 652.764 772.07 650.779 771.386 648.763 770.702 646.746 769.779 644.953 768.618 643.382ZM586.345 643 588.126 643C592.841 643.071 596.61 644.52 599.433 647.346 602.256 650.171 603.703 653.944 603.775 658.664L603.775 683.497C605.593 678.859 608.667 675.209 612.999 672.545 617.33 669.881 622.313 668.523 627.948 668.47 635.34 668.592 640.721 670.927 644.09 675.474 647.459 680.021 649.118 686.049 649.067 693.557L649.067 725.14C649.078 727.1 649.407 729.101 650.054 731.141 650.7 733.181 651.601 734.959 652.757 736.474L653.012 736.856 651.231 736.856C646.515 736.792 642.746 735.359 639.923 732.558 637.1 729.756 635.653 725.968 635.582 721.192L635.582 692.284C635.558 686.389 634.238 681.846 631.622 678.658 629.005 675.468 625.236 673.856 620.314 673.818 615.53 673.871 611.644 675.357 608.657 678.276 605.67 681.194 604.043 685.227 603.775 690.374L603.775 725.14C603.785 727.1 604.114 729.101 604.76 731.141 605.407 733.181 606.309 734.959 607.464 736.474L607.719 736.856 606.065 736.856C601.294 736.792 597.509 735.359 594.71 732.558 591.911 729.756 590.479 725.968 590.416 721.192L590.416 654.716C590.4 652.711 590.05 650.705 589.366 648.699 588.682 646.693 587.76 644.879 586.599 643.255Z" fill="#FFFFFF" fill-rule="evenodd"/>
  </g>
</svg>