<svg width="1571" height="865" xmlns="http://www.w3.org/2000/svg" xmlns:xlink="http://www.w3.org/1999/xlink" xml:space="preserve" overflow="hidden"><g transform="translate(-629 -805)"><path d="M1564.49 1602.79C1563.07 1602.79 1561.84 1603.3 1560.81 1604.31 1559.77 1605.32 1559.25 1606.57 1559.25 1608.04 1559.25 1609.52 1559.77 1610.78 1560.82 1611.83 1561.86 1612.87 1563.08 1613.39 1564.49 1613.39 1565.94 1613.39 1567.18 1612.87 1568.2 1611.82 1569.23 1610.77 1569.74 1609.51 1569.74 1608.04 1569.74 1606.62 1569.22 1605.39 1568.18 1604.35 1567.14 1603.31 1565.91 1602.79 1564.49 1602.79ZM1610.06 1587.86C1608.28 1587.86 1606.83 1588.29 1605.73 1589.15 1604.63 1590.01 1604.08 1591.33 1604.08 1593.11 1604.08 1594.63 1604.58 1595.9 1605.58 1596.93 1606.58 1597.96 1607.79 1598.47 1609.21 1598.47 1610.65 1598.47 1611.9 1597.94 1612.97 1596.87 1614.03 1595.81 1614.56 1594.55 1614.56 1593.11 1614.56 1592.58 1614.43 1591.99 1614.17 1591.32 1613.9 1590.66 1613.55 1590.07 1613.11 1589.56 1612.67 1589.04 1612.18 1588.63 1611.64 1588.32 1611.1 1588.02 1610.57 1587.86 1610.06 1587.86ZM1519.67 1587.86C1518.21 1587.86 1516.99 1588.36 1516.01 1589.34 1515.02 1590.32 1514.53 1591.58 1514.53 1593.11 1514.53 1594.63 1515.03 1595.9 1516.04 1596.93 1517.04 1597.96 1518.25 1598.47 1519.67 1598.47 1521.14 1598.47 1522.4 1597.96 1523.45 1596.93 1524.49 1595.91 1525.02 1594.67 1525.02 1593.22 1525.02 1591.73 1524.5 1590.47 1523.46 1589.43 1522.42 1588.38 1521.15 1587.86 1519.67 1587.86ZM1616.72 1550.39C1615.33 1550.39 1614.11 1550.92 1613.06 1551.98 1612 1553.03 1611.48 1554.29 1611.48 1555.75 1611.48 1557.23 1612 1558.5 1613.04 1559.54 1614.08 1560.58 1615.31 1561.11 1616.72 1561.11 1618.17 1561.11 1619.41 1560.58 1620.43 1559.53 1621.45 1558.48 1621.96 1557.22 1621.96 1555.75 1621.96 1554.3 1621.45 1553.05 1620.41 1551.99 1619.38 1550.93 1618.15 1550.39 1616.72 1550.39ZM1512.16 1550.39C1510.76 1550.39 1509.56 1550.91 1508.55 1551.95 1507.53 1552.99 1507.03 1554.26 1507.03 1555.75 1507.03 1557.27 1507.53 1558.54 1508.53 1559.57 1509.53 1560.59 1510.74 1561.11 1512.16 1561.11 1513.6 1561.11 1514.85 1560.57 1515.92 1559.51 1516.98 1558.44 1517.51 1557.19 1517.51 1555.75 1517.51 1554.33 1516.98 1553.09 1515.9 1552.01 1514.82 1550.93 1513.58 1550.39 1512.16 1550.39ZM1564.49 1538.67C1566.81 1538.67 1569.03 1539.12 1571.14 1540.03 1573.25 1540.95 1575.09 1542.18 1576.64 1543.73 1578.19 1545.29 1579.41 1547.11 1580.31 1549.2 1581.21 1551.28 1581.66 1553.47 1581.66 1555.75 1581.66 1558.02 1581.21 1560.23 1580.3 1562.38 1579.4 1564.53 1578.19 1566.35 1576.69 1567.86 1575.19 1569.36 1573.36 1570.57 1571.22 1571.47 1569.08 1572.38 1566.84 1572.83 1564.49 1572.83 1562.15 1572.83 1559.93 1572.39 1557.84 1571.5 1555.74 1570.61 1553.91 1569.41 1552.35 1567.88 1550.78 1566.35 1549.55 1564.54 1548.66 1562.43 1547.77 1560.32 1547.32 1558.1 1547.32 1555.75 1547.32 1553.37 1547.79 1551.16 1548.71 1549.11 1549.63 1547.06 1550.87 1545.26 1552.42 1543.71 1553.97 1542.15 1555.79 1540.93 1557.88 1540.02 1559.98 1539.12 1562.18 1538.67 1564.49 1538.67ZM1564.49 1528.06C1560.66 1528.06 1557.07 1528.78 1553.71 1530.22 1550.35 1531.65 1547.43 1533.63 1544.96 1536.14 1542.48 1538.64 1540.51 1541.58 1539.04 1544.95 1537.57 1548.32 1536.84 1551.92 1536.84 1555.75 1536.84 1559.68 1537.57 1563.31 1539.03 1566.65 1540.49 1570 1542.47 1572.93 1544.97 1575.43 1547.48 1577.94 1550.39 1579.92 1553.7 1581.37 1557.02 1582.82 1560.61 1583.55 1564.49 1583.55 1568.31 1583.55 1571.89 1582.81 1575.24 1581.35 1578.59 1579.88 1581.51 1577.89 1583.99 1575.37 1586.47 1572.85 1588.45 1569.9 1589.93 1566.51 1591.41 1563.13 1592.15 1559.54 1592.15 1555.75 1592.15 1551.98 1591.43 1548.41 1590 1545.05 1588.56 1541.68 1586.57 1538.73 1584.03 1536.19 1581.5 1533.64 1578.55 1531.65 1575.18 1530.22 1571.82 1528.78 1568.26 1528.06 1564.49 1528.06ZM1242.52 1517.9C1239.89 1517.9 1237.41 1518.4 1235.09 1519.4 1232.77 1520.41 1230.73 1521.79 1228.97 1523.56 1227.21 1525.32 1225.82 1527.37 1224.82 1529.69 1223.82 1532.01 1223.32 1534.52 1223.32 1537.23 1223.32 1539.87 1223.79 1542.37 1224.74 1544.71 1225.7 1547.06 1227.08 1549.14 1228.89 1550.95L1266.64 1589.58 1304.4 1550.95C1306.23 1549.11 1307.63 1547.01 1308.59 1544.64 1309.55 1542.27 1310.03 1539.8 1310.03 1537.23 1310.03 1534.59 1309.52 1532.1 1308.51 1529.76 1307.5 1527.41 1306.11 1525.36 1304.34 1523.59 1302.58 1521.82 1300.53 1520.43 1298.19 1519.42 1295.85 1518.41 1293.36 1517.9 1290.72 1517.9 1288.26 1517.9 1286.04 1518.31 1284.06 1519.14 1282.09 1519.97 1280.23 1521.04 1278.51 1522.35 1276.78 1523.65 1275.09 1525.2 1273.44 1526.99 1271.79 1528.78 1269.53 1530.79 1266.67 1533.04 1263.9 1530.99 1261.67 1529.04 1260 1527.19 1258.33 1525.34 1256.62 1523.75 1254.85 1522.41 1253.08 1521.08 1251.2 1519.99 1249.21 1519.15 1247.22 1518.32 1244.99 1517.9 1242.52 1517.9ZM1609.21 1513.14C1607.79 1513.14 1606.56 1513.64 1605.53 1514.66 1604.49 1515.67 1603.97 1516.91 1603.97 1518.39 1603.97 1519.87 1604.49 1521.13 1605.53 1522.18 1606.58 1523.22 1607.8 1523.74 1609.21 1523.74 1610.65 1523.74 1611.9 1523.21 1612.97 1522.14 1614.03 1521.08 1614.56 1519.83 1614.56 1518.39 1614.56 1516.96 1614.03 1515.73 1612.97 1514.69 1611.91 1513.65 1610.66 1513.14 1609.21 1513.14ZM1519.67 1513.14C1518.28 1513.14 1517.08 1513.65 1516.06 1514.67 1515.04 1515.69 1514.53 1516.93 1514.53 1518.39 1514.53 1519.9 1515.03 1521.18 1516.03 1522.2 1517.04 1523.23 1518.25 1523.74 1519.67 1523.74 1521.17 1523.74 1522.43 1523.19 1523.47 1522.08 1524.5 1520.96 1525.02 1519.66 1525.02 1518.18 1525.02 1516.78 1524.48 1515.59 1523.4 1514.61 1522.32 1513.63 1521.07 1513.14 1519.67 1513.14ZM1242.52 1505.96C1245.29 1505.96 1247.89 1506.28 1250.34 1506.91 1252.78 1507.54 1255.01 1508.42 1257.01 1509.56 1259.02 1510.7 1260.95 1512.06 1262.81 1513.66 1264.67 1515.26 1265.94 1516.71 1266.61 1518.03 1267.41 1516.55 1268.71 1515.06 1270.5 1513.55 1272.29 1512.04 1274.22 1510.71 1276.3 1509.56 1278.38 1508.4 1280.6 1507.51 1282.97 1506.89 1285.34 1506.27 1287.92 1505.96 1290.72 1505.96 1295.02 1505.96 1299.08 1506.79 1302.92 1508.44 1306.76 1510.09 1310.09 1512.33 1312.91 1515.15 1315.73 1517.98 1317.96 1521.3 1319.6 1525.12 1321.24 1528.94 1322.06 1532.97 1322.06 1537.23 1322.06 1541.33 1321.24 1545.34 1319.59 1549.25 1317.95 1553.16 1315.69 1556.55 1312.82 1559.42L1266.64 1604.69 1220.35 1559.42C1217.47 1556.53 1215.24 1553.15 1213.66 1549.27 1212.08 1545.39 1211.29 1541.38 1211.29 1537.23 1211.29 1532.91 1212.1 1528.83 1213.73 1525 1215.36 1521.17 1217.57 1517.86 1220.35 1515.07 1223.13 1512.28 1226.45 1510.07 1230.31 1508.43 1234.16 1506.78 1238.23 1505.96 1242.52 1505.96ZM1631.52 1498.11C1629.25 1498.11 1626.88 1498.37 1624.39 1498.88 1621.91 1499.4 1619.45 1500.05 1617.02 1500.83L1613.28 1502.13 1615.97 1502.67C1618.08 1503.58 1619.89 1504.8 1621.41 1506.32 1622.93 1507.83 1624.13 1509.64 1625.03 1511.73 1625.93 1513.82 1626.38 1516.04 1626.38 1518.39 1626.38 1520.76 1625.93 1522.99 1625.03 1525.08 1624.13 1527.17 1622.92 1528.97 1621.41 1530.49 1619.89 1532.01 1618.09 1533.22 1616 1534.12 1613.92 1535.02 1611.65 1535.47 1609.21 1535.47 1607.53 1535.47 1606.49 1535.33 1606.08 1535.05L1600.48 1540.36C1601.09 1540.89 1601.62 1541.92 1602.08 1543.44 1602.31 1544.2 1602.49 1544.8 1602.61 1545.24L1602.8 1545.9 1608.14 1540.96C1610.47 1539.43 1613.33 1538.67 1616.72 1538.67 1619.01 1538.67 1621.24 1539.13 1623.41 1540.04 1625.58 1540.96 1627.41 1542.18 1628.91 1543.68 1630.42 1545.18 1631.62 1547.01 1632.53 1549.16 1633.44 1551.3 1633.89 1553.5 1633.89 1555.75 1633.89 1558.02 1633.44 1560.23 1632.53 1562.38 1631.62 1564.53 1630.42 1566.35 1628.91 1567.85 1627.41 1569.36 1625.59 1570.57 1623.45 1571.47 1621.31 1572.38 1619.06 1572.83 1616.72 1572.83 1613.61 1572.83 1610.76 1572.08 1608.17 1570.56 1606.87 1569.8 1605.75 1568.99 1604.8 1568.14L1602.71 1565.68 1600.48 1571.16 1606.01 1576.56C1605.93 1576.39 1606.29 1576.25 1607.09 1576.16 1607.89 1576.08 1608.6 1576.03 1609.21 1576.03 1611.5 1576.03 1613.73 1576.49 1615.9 1577.41 1618.07 1578.33 1619.91 1579.54 1621.41 1581.04 1622.91 1582.55 1624.12 1584.37 1625.02 1586.52 1625.93 1588.66 1626.38 1590.86 1626.38 1593.11 1626.38 1595.49 1625.93 1597.72 1625.03 1599.81 1624.13 1601.9 1622.92 1603.7 1621.41 1605.22 1619.89 1606.74 1618.09 1607.95 1616 1608.85 1613.92 1609.75 1611.65 1610.2 1609.21 1610.2 1606.87 1610.2 1604.64 1609.75 1602.52 1608.85 1600.4 1607.95 1598.59 1606.75 1597.09 1605.25 1595.59 1603.75 1594.39 1601.94 1593.5 1599.81 1592.6 1597.69 1592.15 1595.46 1592.15 1593.11 1592.15 1591.67 1592.33 1590.58 1592.68 1589.87L1589.22 1585.85C1587.67 1587.84 1585.33 1589.59 1582.19 1591.11L1574.34 1594.04 1576.89 1596.07C1577.75 1597.01 1578.57 1598.15 1579.34 1599.49 1580.89 1602.18 1581.66 1605.03 1581.66 1608.04 1581.66 1612.12 1580.43 1615.69 1577.95 1618.74 1575.47 1621.79 1572.87 1623.53 1570.14 1623.97 1572.27 1625.53 1574.73 1628.24 1577.5 1632.1 1580.28 1635.96 1583.17 1639.25 1586.17 1641.98 1589.16 1644.7 1592.46 1646.85 1596.07 1648.41 1599.68 1649.98 1604.06 1650.76 1609.21 1650.76L1621.96 1650.76 1621.96 1628.32 1644.38 1628.32 1644.38 1623.28C1644.38 1620.55 1644.31 1617.91 1644.17 1615.36 1644.03 1612.81 1643.73 1610.37 1643.27 1608.04 1642.8 1605.72 1642.1 1603.41 1641.16 1601.13 1640.22 1598.84 1638.92 1596.61 1637.27 1594.43L1623.23 1573.73 1641.81 1567.03C1646.28 1565.46 1650.03 1563.23 1653.05 1560.34 1656.07 1557.45 1658.6 1554.14 1660.65 1550.41 1662.7 1546.68 1664.23 1542.66 1665.25 1538.37 1666.28 1534.07 1666.79 1530.63 1666.79 1528.06L1644.38 1528.06 1651.88 1504.25C1649.4 1502.55 1646.33 1501.1 1642.67 1499.9 1639.01 1498.71 1635.29 1498.11 1631.52 1498.11ZM1564.49 1498.11C1563.11 1498.11 1561.89 1498.63 1560.83 1499.69 1559.78 1500.74 1559.25 1502 1559.25 1503.46 1559.25 1504.95 1559.77 1506.21 1560.82 1507.25 1561.86 1508.3 1563.08 1508.82 1564.49 1508.82 1565.94 1508.82 1567.18 1508.29 1568.2 1507.24 1569.23 1506.19 1569.74 1504.93 1569.74 1503.46 1569.74 1502.01 1569.22 1500.76 1568.19 1499.7 1567.15 1498.64 1565.92 1498.11 1564.49 1498.11ZM1497.36 1498.11C1493.59 1498.11 1489.88 1498.7 1486.24 1499.89 1482.6 1501.09 1479.56 1502.53 1477.11 1504.22L1484.61 1528.06 1462.2 1528.06C1462.2 1530.67 1462.71 1534.1 1463.72 1538.37 1464.74 1542.63 1466.25 1546.66 1468.27 1550.46 1470.28 1554.26 1472.79 1557.6 1475.81 1560.49 1478.82 1563.37 1482.26 1565.46 1486.12 1566.75L1505.76 1573.74C1502.38 1578.5 1499.49 1582.67 1497.09 1586.25 1494.69 1589.83 1492.7 1592.83 1491.11 1595.24 1489.51 1597.65 1488.3 1599.85 1487.48 1601.83 1486.65 1603.81 1486.01 1606.09 1485.56 1608.67 1485.11 1611.24 1484.84 1614.03 1484.75 1617.03 1484.66 1620.02 1484.61 1623.78 1484.61 1628.32L1507.03 1628.32 1507.03 1650.76 1519.67 1650.76C1524.82 1650.76 1529.21 1649.96 1532.83 1648.35 1536.46 1646.75 1539.76 1644.58 1542.73 1641.85 1545.7 1639.11 1548.45 1636.01 1550.97 1632.55 1553.49 1629.08 1556.11 1626.23 1558.85 1623.98 1556.07 1623.54 1553.46 1621.77 1551.01 1618.67 1548.55 1615.57 1547.32 1612.03 1547.32 1608.04 1547.32 1605.02 1548.1 1602.17 1549.66 1599.49 1550.44 1598.15 1551.26 1597.01 1552.12 1596.08L1554.62 1594.05 1546.74 1591.13C1543.61 1589.62 1541.28 1587.86 1539.74 1585.85L1536.42 1589.89C1536.52 1589.84 1536.62 1590.22 1536.71 1591.05 1536.8 1591.88 1536.84 1592.57 1536.84 1593.11 1536.84 1595.39 1536.39 1597.6 1535.48 1599.74 1534.57 1601.89 1533.37 1603.71 1531.86 1605.22 1530.36 1606.72 1528.54 1607.93 1526.4 1608.84 1524.25 1609.74 1522.01 1610.2 1519.67 1610.2 1517.33 1610.2 1515.1 1609.75 1512.98 1608.85 1510.86 1607.95 1509.05 1606.75 1507.55 1605.25 1506.05 1603.75 1504.85 1601.94 1503.95 1599.81 1503.05 1597.69 1502.61 1595.46 1502.61 1593.11 1502.61 1590.79 1503.05 1588.57 1503.95 1586.45 1504.85 1584.32 1506.05 1582.51 1507.55 1581.01 1509.05 1579.51 1510.87 1578.3 1513.02 1577.39 1515.17 1576.49 1517.38 1576.03 1519.67 1576.03 1520.34 1576.03 1521.08 1576.08 1521.89 1576.17 1522.71 1576.26 1523.07 1576.39 1522.97 1576.56L1528.51 1571.11C1527.97 1570.43 1527.46 1569.42 1526.99 1568.09L1526.22 1565.69 1524.14 1568.12C1523.2 1568.97 1522.07 1569.78 1520.77 1570.54 1518.16 1572.07 1515.29 1572.83 1512.16 1572.83 1509.82 1572.83 1507.59 1572.38 1505.47 1571.49 1503.35 1570.59 1501.54 1569.39 1500.04 1567.89 1498.54 1566.39 1497.34 1564.57 1496.45 1562.45 1495.55 1560.32 1495.1 1558.09 1495.1 1555.75 1495.1 1553.43 1495.55 1551.21 1496.45 1549.08 1497.34 1546.96 1498.54 1545.15 1500.04 1543.65 1501.54 1542.15 1503.36 1540.94 1505.51 1540.03 1507.66 1539.12 1509.88 1538.67 1512.16 1538.67 1515.25 1538.67 1518.11 1539.44 1520.74 1540.97 1522.05 1541.74 1523.18 1542.55 1524.13 1543.4L1526.21 1545.83 1528.3 1540.81 1521.98 1535.15C1521.62 1535.36 1520.85 1535.47 1519.67 1535.47 1517.33 1535.47 1515.1 1535.02 1512.98 1534.12 1510.86 1533.22 1509.05 1532.02 1507.55 1530.52 1506.05 1529.02 1504.85 1527.21 1503.95 1525.08 1503.05 1522.96 1502.61 1520.73 1502.61 1518.39 1502.61 1516.07 1503.05 1513.84 1503.95 1511.72 1504.85 1509.6 1506.05 1507.78 1507.55 1506.28 1509.05 1504.78 1510.87 1503.58 1513.02 1502.67L1515.62 1502.13 1511.85 1500.83C1509.39 1500.04 1506.92 1499.39 1504.42 1498.88 1501.93 1498.36 1499.58 1498.11 1497.36 1498.11ZM1228.24 1487.42C1223.36 1487.42 1218.79 1488.34 1214.53 1490.19 1210.27 1492.04 1206.52 1494.59 1203.28 1497.84 1200.04 1501.08 1197.49 1504.85 1195.64 1509.15 1193.8 1513.45 1192.87 1518.04 1192.87 1522.94 1192.87 1527.76 1193.75 1532.3 1195.51 1536.56 1197.27 1540.81 1199.83 1544.62 1203.19 1547.99L1266.64 1612.44 1330.09 1547.99C1333.4 1544.67 1335.95 1540.82 1337.71 1536.44 1339.48 1532.06 1340.37 1527.56 1340.37 1522.94 1340.37 1518.11 1339.44 1513.54 1337.58 1509.22 1335.72 1504.9 1333.19 1501.11 1329.98 1497.86 1326.76 1494.61 1323.02 1492.06 1318.74 1490.2 1314.47 1488.34 1309.88 1487.42 1305 1487.42 1301.08 1487.42 1297.63 1487.89 1294.66 1488.84 1291.69 1489.78 1288.89 1491.12 1286.24 1492.86 1283.59 1494.59 1281.11 1496.6 1278.8 1498.88 1276.49 1501.15 1274.05 1503.61 1271.49 1506.25L1266.64 1510.28 1261.79 1506.25C1259.25 1503.64 1256.82 1501.19 1254.51 1498.91 1252.2 1496.63 1249.74 1494.63 1247.12 1492.91 1244.49 1491.2 1241.64 1489.85 1238.55 1488.88 1235.46 1487.9 1232.02 1487.42 1228.24 1487.42ZM1228.24 1475.48C1232.7 1475.48 1236.77 1475.99 1240.47 1477.01 1244.16 1478.02 1247.58 1479.46 1250.72 1481.31 1253.86 1483.16 1256.83 1485.3 1259.62 1487.74 1262.42 1490.18 1264.75 1492.65 1266.64 1495.16 1268.55 1492.63 1270.9 1490.15 1273.7 1487.71 1276.49 1485.27 1279.45 1483.13 1282.58 1481.28 1285.71 1479.44 1289.12 1478.01 1292.79 1477 1296.47 1475.98 1300.54 1475.48 1305 1475.48 1311.48 1475.48 1317.63 1476.74 1323.44 1479.28 1329.25 1481.82 1334.28 1485.22 1338.55 1489.49 1342.81 1493.75 1346.2 1498.78 1348.72 1504.58 1351.25 1510.37 1352.51 1516.49 1352.51 1522.94 1352.51 1529.23 1351.28 1535.29 1348.82 1541.1 1346.36 1546.92 1342.93 1552.04 1338.51 1556.46L1266.64 1627.56 1194.77 1556.46C1190.38 1552.06 1186.96 1546.97 1184.51 1541.18 1182.06 1535.38 1180.84 1529.3 1180.84 1522.94 1180.84 1516.42 1182.1 1510.28 1184.61 1504.51 1187.12 1498.74 1190.51 1493.72 1194.77 1489.45 1199.02 1485.19 1204.05 1481.79 1209.84 1479.27 1215.63 1476.74 1221.77 1475.48 1228.24 1475.48ZM1213.97 1457.04C1206.9 1457.04 1200.25 1458.39 1194.02 1461.08 1187.79 1463.78 1182.33 1467.48 1177.64 1472.17 1172.96 1476.86 1169.27 1482.33 1166.57 1488.56 1163.88 1494.8 1162.53 1501.5 1162.53 1508.65 1162.53 1515.59 1163.83 1522.19 1166.44 1528.46 1169.04 1534.72 1172.77 1540.28 1177.61 1545.13L1266.64 1635.3 1355.67 1545.13C1360.54 1540.25 1364.28 1534.67 1366.9 1528.39 1369.51 1522.1 1370.82 1515.52 1370.82 1508.65 1370.82 1501.56 1369.46 1494.89 1366.76 1488.63 1364.06 1482.38 1360.36 1476.9 1355.67 1472.2 1350.98 1467.5 1345.51 1463.8 1339.26 1461.1 1333.01 1458.39 1326.34 1457.04 1319.27 1457.04 1313.76 1457.04 1308.89 1457.68 1304.65 1458.96 1300.4 1460.24 1296.48 1462.02 1292.89 1464.3 1289.29 1466.57 1285.75 1469.38 1282.28 1472.71 1278.81 1476.03 1275.46 1479.35 1272.23 1482.65L1266.64 1487.42 1260.74 1482.33C1257.24 1478.76 1253.87 1475.45 1250.61 1472.4 1247.35 1469.34 1243.9 1466.66 1240.26 1464.36 1236.61 1462.05 1232.68 1460.25 1228.45 1458.97 1224.23 1457.68 1219.4 1457.04 1213.97 1457.04ZM1548.74 1445.82C1546.77 1447.25 1544.49 1448.84 1541.89 1450.6 1539.29 1452.36 1537.06 1454.33 1535.2 1456.52 1533.34 1458.7 1531.9 1461.16 1530.87 1463.89 1529.85 1466.63 1529.33 1469.83 1529.33 1473.51L1529.33 1504.65 1531.86 1506.32C1533.37 1507.82 1534.57 1509.65 1535.48 1511.79 1536.39 1513.94 1536.84 1516.13 1536.84 1518.39 1536.84 1520.38 1536.59 1521.78 1536.1 1522.59L1539.24 1526.07C1540.89 1523.98 1543.31 1522.15 1546.49 1520.59L1554.6 1517.51 1552.08 1515.49C1551.21 1514.54 1550.39 1513.4 1549.63 1512.04 1548.09 1509.34 1547.32 1506.48 1547.32 1503.46 1547.32 1501.14 1547.77 1498.93 1548.66 1496.82 1549.55 1494.71 1550.78 1492.89 1552.34 1491.37 1553.91 1489.84 1555.75 1488.63 1557.88 1487.73 1560 1486.83 1562.21 1486.38 1564.49 1486.38 1566.78 1486.38 1569.01 1486.84 1571.18 1487.76 1573.35 1488.68 1575.19 1489.89 1576.69 1491.39 1578.19 1492.9 1579.4 1494.72 1580.3 1496.87 1581.21 1499.01 1581.66 1501.21 1581.66 1503.46 1581.66 1506.49 1580.89 1509.36 1579.35 1512.04 1578.57 1513.39 1577.75 1514.52 1576.89 1515.46L1574.32 1517.51 1582.14 1520.45C1585.19 1521.92 1587.54 1523.65 1589.18 1525.65L1592.68 1521.67C1592.33 1520.95 1592.15 1519.86 1592.15 1518.39 1592.15 1516.07 1592.6 1513.84 1593.5 1511.72 1594.39 1509.6 1595.59 1507.78 1597.09 1506.28L1599.66 1504.59 1599.66 1473.51C1599.66 1469.9 1599.14 1466.72 1598.1 1463.97 1597.06 1461.21 1595.62 1458.74 1593.76 1456.55 1591.9 1454.36 1589.66 1452.39 1587.06 1450.62 1584.45 1448.86 1582.16 1447.26 1580.19 1445.82L1564.53 1468.26ZM1213.97 1437.48C1219.53 1437.48 1224.79 1438.04 1229.75 1439.18 1234.71 1440.31 1239.41 1441.93 1243.87 1444.05 1248.33 1446.18 1252.6 1448.8 1256.68 1451.93 1260.76 1455.06 1264.08 1458.29 1266.64 1461.61 1269.23 1458.26 1272.56 1455.02 1276.63 1451.9 1280.71 1448.77 1284.97 1446.15 1289.41 1444.04 1293.86 1441.92 1298.55 1440.3 1303.5 1439.17 1308.45 1438.04 1313.7 1437.48 1319.27 1437.48 1325.77 1437.48 1332.07 1438.34 1338.16 1440.07 1344.25 1441.79 1349.92 1444.2 1355.19 1447.29 1360.46 1450.38 1365.25 1454.09 1369.58 1458.42 1373.9 1462.75 1377.61 1467.55 1380.69 1472.81 1383.77 1478.07 1386.17 1483.74 1387.88 1489.81 1389.6 1495.89 1390.46 1502.17 1390.46 1508.65 1390.46 1518.17 1388.66 1527.26 1385.06 1535.92 1381.47 1544.58 1376.31 1552.27 1369.6 1559L1266.64 1661.11 1163.69 1559C1157 1552.3 1151.86 1544.63 1148.27 1535.99 1144.68 1527.35 1142.89 1518.24 1142.89 1508.65 1142.89 1502.08 1143.74 1495.75 1145.45 1489.68 1147.15 1483.6 1149.53 1477.95 1152.58 1472.72 1155.62 1467.49 1159.33 1462.7 1163.69 1458.33 1168.04 1453.97 1172.83 1450.26 1178.06 1447.21 1183.28 1444.16 1188.94 1441.78 1195.05 1440.06 1201.16 1438.34 1207.47 1437.48 1213.97 1437.48ZM1555.45 1422.24 1564.51 1436.95 1573.47 1422.24C1580.2 1425.18 1586.17 1428.07 1591.39 1430.89 1596.6 1433.72 1601.26 1437.07 1605.36 1440.95 1609.45 1444.83 1612.75 1449.4 1615.24 1454.65 1617.74 1459.91 1618.98 1466.19 1618.98 1473.51L1618.98 1481.09C1621.96 1479.6 1626.14 1478.86 1631.52 1478.86 1635.99 1478.86 1640.04 1479.3 1643.67 1480.18 1647.29 1481.07 1650.75 1482.29 1654.02 1483.85 1657.3 1485.42 1660.5 1487.3 1663.63 1489.5 1666.76 1491.7 1670.16 1494.26 1673.85 1497.19L1669.52 1508.82 1686.11 1508.82 1686.11 1525.9C1686.11 1531.79 1685.37 1537.72 1683.89 1543.7 1682.41 1549.67 1680.17 1555.3 1677.16 1560.58 1674.16 1565.85 1670.44 1570.59 1665.98 1574.79 1661.53 1578.99 1656.85 1581.86 1651.97 1583.39 1654.52 1585.57 1656.6 1588.39 1658.21 1591.88 1659.82 1595.36 1661.04 1598.9 1661.87 1602.48 1662.71 1606.07 1663.24 1609.88 1663.46 1613.93 1663.69 1617.98 1663.81 1621.94 1663.81 1625.82 1663.81 1627.7 1663.79 1630.24 1663.75 1633.45 1663.72 1636.66 1663.7 1641.37 1663.7 1647.56L1641.4 1647.56 1641.4 1670 1609.21 1670C1603.9 1670 1599.07 1669.4 1594.72 1668.19 1590.38 1666.99 1586.32 1665.25 1582.55 1662.99 1578.77 1660.73 1575.26 1658.01 1572 1654.83 1568.75 1651.65 1566.24 1648.41 1564.46 1645.13 1562.74 1648.45 1560.25 1651.69 1556.97 1654.86 1553.7 1658.03 1550.15 1660.73 1546.35 1662.97 1542.54 1665.21 1538.41 1666.94 1533.96 1668.16 1529.51 1669.39 1524.74 1670 1519.67 1670L1487.7 1670 1487.7 1647.56 1465.29 1647.56 1465.29 1622.43C1465.29 1618.72 1465.45 1615.03 1465.78 1611.36 1466.1 1607.69 1466.7 1604.14 1467.55 1600.71 1468.41 1597.28 1469.65 1593.87 1471.26 1590.48 1472.88 1587.09 1474.8 1584.71 1477.02 1583.35 1472.03 1581.86 1467.32 1579.02 1462.87 1574.82 1458.42 1570.62 1454.71 1565.89 1451.75 1560.61 1448.78 1555.33 1446.56 1549.73 1445.09 1543.79 1443.61 1537.85 1442.87 1531.89 1442.87 1525.9L1442.87 1508.82 1459.47 1508.82 1455.14 1497.16C1458.79 1494.24 1462.18 1491.68 1465.31 1489.48 1468.44 1487.28 1471.64 1485.4 1474.9 1483.84 1478.17 1482.28 1481.61 1481.06 1485.22 1480.18 1488.84 1479.3 1492.89 1478.86 1497.36 1478.86 1502.64 1478.86 1506.86 1479.6 1510.01 1481.09L1510.01 1473.51C1510.01 1466.13 1511.25 1459.82 1513.73 1454.59 1516.22 1449.35 1519.51 1444.79 1523.6 1440.92 1527.7 1437.04 1532.35 1433.69 1537.55 1430.87 1542.75 1428.05 1548.72 1425.17 1555.45 1422.24ZM1009.62 1314.17C1006.71 1315.25 1002.53 1316.67 997.09 1318.42 991.646 1320.18 987.198 1322.23 983.744 1324.56 980.29 1326.89 978.563 1329.57 978.563 1332.61 978.563 1334.65 979.427 1336.39 981.153 1337.84 982.879 1339.3 984.939 1340.02 987.335 1340.02 991.098 1340.02 994.382 1338.58 997.187 1335.69 999.992 1332.8 1002.47 1329.03 1004.61 1324.38 1006.75 1319.74 1008.42 1316.33 1009.62 1314.17ZM1014.79 1282.38 1004.23 1291.28 990.855 1297.61 1002.52 1294.27C1006.44 1293.27 1010.15 1292.46 1013.67 1291.84 1014.12 1287.34 1014.48 1284.24 1014.75 1282.55ZM1311.36 1219.64 1386.09 1219.64C1390.24 1219.64 1393.12 1220.83 1394.74 1223.2 1396.36 1225.58 1397.17 1227.99 1397.17 1230.45 1397.17 1233.15 1396.19 1235.68 1394.21 1238.03 1392.24 1240.38 1389.53 1241.55 1386.09 1241.55L1311.36 1241.55C1307.62 1241.55 1304.84 1240.33 1303.02 1237.89 1301.19 1235.45 1300.27 1232.97 1300.27 1230.45 1300.27 1227.4 1301.31 1224.84 1303.39 1222.76 1305.46 1220.68 1308.12 1219.64 1311.36 1219.64ZM1162.9 1177.78C1158.54 1177.78 1154.38 1178.04 1150.43 1178.58 1146.47 1179.12 1142.53 1180.14 1138.61 1181.64 1125.81 1186.52 1115.49 1194.72 1107.67 1206.24 1099.85 1217.77 1095.94 1230.99 1095.94 1245.92 1095.94 1259.09 1099.07 1270.36 1105.33 1279.71 1111.58 1289.07 1119.99 1296.26 1130.56 1301.28 1141.12 1306.31 1152.92 1308.82 1165.93 1308.82 1177.82 1308.82 1188.83 1305.47 1198.96 1298.77 1209.08 1292.07 1217.27 1283.1 1223.52 1271.87 1220.77 1262.07 1218.75 1250.33 1217.46 1236.64 1216.17 1222.95 1215.61 1209.03 1215.8 1194.88 1212.83 1191.63 1208.44 1188.68 1202.62 1186.03 1196.8 1183.38 1190.42 1181.34 1183.45 1179.92 1176.49 1178.49 1169.64 1177.78 1162.9 1177.78ZM958.697 1171.42C946.908 1171.77 936.72 1174.54 928.135 1179.71 919.549 1184.89 912.939 1191.82 908.303 1200.49 903.668 1209.16 901.35 1219.15 901.35 1230.45 901.35 1242.34 904.361 1252.74 910.383 1261.65 916.405 1270.56 923.745 1276.62 932.404 1279.82 940.202 1281.85 947.389 1282.87 953.966 1282.87 965.667 1282.87 977.277 1280.12 988.793 1274.62 1000.31 1269.12 1009.55 1261.95 1016.51 1253.1 1016.51 1250.85 1016.33 1247 1015.97 1241.55 1015.61 1236.1 1015.1 1230.22 1014.46 1223.91 1013.82 1217.6 1013.19 1211.85 1012.55 1206.66 1011.91 1201.47 1011.42 1197.75 1011.07 1195.5 1008.32 1190.48 1004.09 1186.15 998.356 1182.5 992.625 1178.85 986.253 1176.09 979.24 1174.22 972.226 1172.36 965.379 1171.42 958.697 1171.42ZM2043.58 1162.21C2046.88 1162.21 2049.65 1163.2 2051.88 1165.18 2054.1 1167.17 2055.22 1169.6 2055.22 1172.48 2055.22 1173.68 2054.73 1175.59 2053.75 1178.21 2049.49 1189.12 2046.14 1200.18 2043.71 1211.38 2041.27 1222.57 2040.05 1233.26 2040.05 1243.43 2040.05 1255.49 2041.99 1266.19 2045.87 1275.54 2049.75 1284.9 2055.77 1292.14 2063.92 1297.27 2072.08 1302.39 2082.72 1304.69 2095.85 1304.17 2108.8 1303.64 2120.33 1299.32 2130.46 1291.21 2140.58 1283.11 2148.61 1271.79 2154.57 1257.25 2160.52 1242.72 2163.49 1226.15 2163.49 1207.54 2163.49 1204.4 2163.35 1201.12 2163.08 1197.7 2162.81 1194.27 2162.49 1190.76 2162.11 1187.16 2161.74 1182.97 2162.86 1180.11 2165.47 1178.58 2168.07 1177.06 2170.52 1176.29 2172.81 1176.29 2176.45 1176.55 2179.41 1177.7 2181.69 1179.74 2183.97 1181.78 2185.1 1184.42 2185.1 1187.66 2185.1 1195.54 2185.33 1203.99 2185.77 1213.01 2186.21 1222.02 2186.84 1231.58 2187.67 1241.68 2188.5 1251.79 2189.46 1261.56 2190.58 1271.01 2191.69 1280.46 2192.96 1288.72 2194.39 1295.8 2195.82 1302.88 2197.4 1308.14 2199.12 1311.58 2199.71 1312.46 2200 1313.28 2200 1314.06 2200 1314.83 2200 1315.5 2200 1316.05 2200 1319.44 2198.66 1322.04 2195.99 1323.86 2193.32 1325.68 2190.5 1326.59 2187.53 1326.59 2185.54 1326.59 2183.56 1326.04 2181.6 1324.93 2179.63 1323.83 2178.13 1321.98 2177.11 1319.41 2174.17 1312.6 2171.85 1305.06 2170.16 1296.78 2168.47 1288.51 2167.59 1281.51 2167.51 1275.79 2166.05 1284.21 2161.82 1292.25 2154.84 1299.91 2147.85 1307.57 2139.87 1313.69 2130.88 1318.29 2121.9 1322.88 2112.24 1325.46 2101.9 1326.04 2082.55 1326.96 2066.7 1323.84 2054.36 1316.67 2042.02 1309.5 2032.94 1299.39 2027.14 1286.34 2021.33 1273.29 2018.43 1258.62 2018.43 1242.33 2018.43 1230.71 2019.73 1218.73 2022.33 1206.38 2024.93 1194.03 2028.59 1182.12 2033.33 1170.65 2035.11 1165.03 2038.53 1162.21 2043.58 1162.21ZM1842.03 1162.21C1845.33 1162.21 1848.1 1163.2 1850.32 1165.18 1852.55 1167.17 1853.67 1169.6 1853.67 1172.48 1853.67 1173.68 1853.18 1175.59 1852.2 1178.21 1847.94 1189.12 1844.59 1200.18 1842.15 1211.38 1839.72 1222.57 1838.5 1233.26 1838.5 1243.43 1838.5 1255.49 1840.44 1266.19 1844.32 1275.54 1848.2 1284.9 1854.21 1292.14 1862.37 1297.27 1870.53 1302.39 1881.17 1304.69 1894.3 1304.17 1907.24 1303.64 1918.78 1299.32 1928.9 1291.21 1939.03 1283.11 1947.06 1271.79 1953.01 1257.25 1958.96 1242.72 1961.94 1226.15 1961.94 1207.54 1961.94 1204.4 1961.8 1201.12 1961.53 1197.7 1961.26 1194.27 1960.94 1190.76 1960.56 1187.16 1960.19 1182.97 1961.31 1180.11 1963.92 1178.58 1966.52 1177.06 1968.97 1176.29 1971.26 1176.29 1974.9 1176.55 1977.86 1177.7 1980.14 1179.74 1982.42 1181.78 1983.55 1184.42 1983.55 1187.66 1983.55 1195.54 1983.77 1203.99 1984.21 1213.01 1984.66 1222.02 1985.29 1231.58 1986.12 1241.68 1986.94 1251.79 1987.91 1261.56 1989.02 1271.01 1990.14 1280.46 1991.41 1288.72 1992.84 1295.8 1994.27 1302.88 1995.84 1308.14 1997.57 1311.58 1998.15 1312.46 1998.45 1313.28 1998.45 1314.06 1998.45 1314.83 1998.45 1315.5 1998.45 1316.05 1998.45 1319.44 1997.11 1322.04 1994.44 1323.86 1991.77 1325.68 1988.95 1326.59 1985.98 1326.59 1983.99 1326.59 1982.01 1326.04 1980.05 1324.93 1978.08 1323.83 1976.58 1321.98 1975.56 1319.41 1972.61 1312.6 1970.3 1305.06 1968.61 1296.78 1966.92 1288.51 1966.04 1281.51 1965.96 1275.79 1964.5 1284.21 1960.27 1292.25 1953.29 1299.91 1946.3 1307.57 1938.31 1313.69 1929.33 1318.29 1920.35 1322.88 1910.69 1325.46 1900.35 1326.04 1881 1326.96 1865.15 1323.84 1852.81 1316.67 1840.46 1309.5 1831.39 1299.39 1825.59 1286.34 1819.78 1273.29 1816.88 1258.62 1816.88 1242.33 1816.88 1230.71 1818.18 1218.73 1820.78 1206.38 1823.37 1194.03 1827.04 1182.12 1831.78 1170.65 1833.56 1165.03 1836.97 1162.21 1842.03 1162.21ZM1162.07 1155.86C1172.23 1155.86 1182.81 1157.23 1193.83 1159.96 1204.85 1162.69 1213.23 1166.29 1218.98 1170.77 1219.35 1169.2 1220.91 1168.07 1223.65 1167.38 1226.38 1166.69 1228.57 1166.65 1230.22 1167.25 1232.97 1167.5 1235.09 1168.74 1236.57 1170.97 1238.05 1173.19 1238.79 1175.33 1238.79 1177.4 1238.58 1182.27 1238.43 1186.39 1238.35 1189.76 1238.28 1193.13 1238.24 1197.49 1238.24 1202.85 1238.24 1223.48 1239.72 1241.64 1242.69 1257.33 1245.67 1273.02 1251.38 1286.85 1259.83 1298.8 1261.06 1300.66 1261.68 1302.63 1261.68 1304.73 1261.68 1307.8 1260.51 1310.33 1258.16 1312.31 1255.82 1314.28 1253.29 1315.27 1250.59 1315.27 1246.89 1315.27 1243.72 1313.56 1241.09 1310.14 1239.49 1307.9 1237.75 1305.1 1235.88 1301.75 1234 1298.39 1233.2 1296.09 1233.48 1294.84 1227.54 1304.94 1218.99 1312.98 1207.82 1318.95 1196.65 1324.92 1184.63 1328.67 1171.75 1330.18 1170.29 1330.37 1168.73 1330.46 1167.06 1330.46 1165.39 1330.46 1163.82 1330.46 1162.35 1330.46 1145.46 1330.46 1130.38 1326.9 1117.1 1319.77 1103.82 1312.65 1093.37 1302.8 1085.75 1290.21 1078.13 1277.62 1074.32 1263.23 1074.32 1247.02 1074.32 1231.96 1077.3 1218.05 1083.25 1205.28 1089.21 1192.51 1097.69 1181.85 1108.71 1173.28 1119.73 1164.72 1133.04 1159.19 1148.62 1156.68 1150.16 1156.54 1152.24 1156.36 1154.85 1156.16 1157.47 1155.96 1159.88 1155.86 1162.07 1155.86ZM1527.37 1153.38C1539.03 1153.38 1550.27 1154.99 1561.11 1158.23 1571.94 1161.46 1581.24 1166.57 1589.02 1173.56 1591.34 1175.89 1592.5 1178.47 1592.5 1181.31 1592.5 1183.63 1591.39 1186.16 1589.16 1188.88 1586.81 1191.23 1584.14 1192.41 1581.14 1192.41 1578.12 1192.41 1575.51 1191.31 1573.33 1189.13 1568.88 1184.68 1562.15 1181.26 1553.15 1178.87 1544.14 1176.48 1534.91 1175.29 1525.44 1175.29 1518.8 1175.29 1512.43 1175.87 1506.31 1177.02 1500.19 1178.18 1494.92 1179.9 1490.5 1182.2 1478.16 1188.21 1468.68 1196.99 1462.06 1208.56 1455.44 1220.13 1452.13 1232.49 1452.13 1245.64 1452.13 1259.19 1455.97 1271.58 1463.66 1282.81 1471.34 1294.04 1482.13 1302.12 1496.02 1307.05 1505.1 1310.26 1514.35 1311.86 1523.78 1311.86 1533.21 1311.86 1542.39 1310.31 1551.32 1307.22 1560.24 1304.12 1567.98 1299.73 1574.53 1294.06 1577.2 1292.12 1579.77 1291.15 1582.25 1291.15 1585.45 1291.15 1588.27 1292.36 1590.69 1294.79 1592.63 1297.46 1593.6 1299.95 1593.6 1302.24 1593.6 1305.34 1592.43 1307.86 1590.08 1309.78 1580.68 1318.02 1570.31 1324.12 1558.98 1328.09 1547.64 1332.06 1536 1334.05 1524.06 1334.05 1513.22 1334.05 1502.17 1332.37 1490.92 1329.01 1478.21 1325.01 1467.21 1318.78 1457.91 1310.32 1448.61 1301.87 1441.58 1292.07 1436.83 1280.93 1432.07 1269.79 1429.69 1258.02 1429.69 1245.64 1429.69 1232.26 1432.47 1219.05 1438.04 1206.01 1443.61 1192.98 1451.28 1182.56 1461.06 1174.76 1469.69 1167.53 1479.88 1162.16 1491.64 1158.65 1503.39 1155.13 1515.31 1153.38 1527.37 1153.38ZM963.343 1149.78C974.67 1149.78 985.421 1151.71 995.594 1155.55 1005.77 1159.4 1014.29 1164.93 1021.14 1172.15 1024.26 1172.15 1026.64 1173.04 1028.29 1174.82 1029.93 1176.59 1030.95 1178.56 1031.35 1180.72 1033.44 1190.24 1035.09 1201.83 1036.31 1215.49 1037.52 1229.16 1038.13 1242.43 1038.13 1255.31 1038.13 1262.09 1037.94 1268.86 1037.55 1275.62 1037.16 1282.38 1036.53 1287.28 1035.65 1290.32 1044.47 1290.32 1048.43 1294.25 1047.51 1302.11 1047.51 1304.84 1046.44 1307.21 1044.31 1309.22 1042.17 1311.23 1039.11 1312.24 1035.12 1312.24 1034.75 1312.05 1034.33 1311.96 1033.84 1311.96 1033.36 1311.96 1032.76 1311.96 1032.04 1311.96 1030.31 1319.67 1027.63 1327.42 1023.99 1335.19 1020.34 1342.97 1015.51 1349.28 1009.49 1354.12 1003.47 1358.96 995.897 1361.38 986.781 1361.38 978.076 1361.38 970.697 1358.44 964.646 1352.57 958.595 1346.69 955.756 1339.17 956.131 1330 957.308 1321.56 961.108 1314.76 967.53 1309.62 970.741 1307.05 974.23 1304.78 978 1302.82L987.378 1298.95 971.305 1303.23C965.447 1304.26 959.576 1304.78 953.689 1304.78 942.395 1304.78 932.486 1302.85 923.962 1298.98 908.436 1292.7 896.907 1283.21 889.374 1270.52 881.841 1257.82 878.075 1244.19 878.075 1229.63 878.075 1214.09 881.823 1200.33 889.319 1188.36 896.816 1176.39 907.046 1166.96 920.011 1160.09 932.976 1153.22 947.42 1149.78 963.343 1149.78ZM1646.84 1124.36C1648.12 1124.12 1649.38 1124.14 1650.62 1124.44 1653.67 1124.68 1656.16 1125.91 1658.1 1128.13 1660.03 1130.36 1660.78 1133.29 1660.34 1136.92 1659.64 1142.94 1658.92 1150.22 1658.18 1158.77 1657.45 1167.31 1656.76 1176.2 1656.12 1185.43 1655.48 1194.67 1654.99 1203.32 1654.64 1211.38 1654.29 1219.44 1654.11 1225.87 1654.11 1230.68 1656.78 1218.59 1663.89 1208.44 1675.44 1200.22 1686.99 1192 1698.96 1187.89 1711.36 1187.89 1731.51 1188.1 1747.74 1192.08 1760.04 1199.81 1772.34 1207.55 1781.53 1218.2 1787.59 1231.76 1793.65 1245.32 1796.68 1260.9 1796.68 1278.5 1796.68 1293.21 1794.74 1307.86 1790.85 1322.44 1789.29 1327.6 1785.88 1330.18 1780.63 1330.18 1777.21 1330.18 1774.33 1328.89 1771.98 1326.31 1769.63 1323.72 1768.82 1321.46 1769.55 1319.51 1772.68 1305.77 1774.24 1292.93 1774.24 1280.98 1774.24 1260.27 1769.46 1243.64 1759.91 1231.09 1750.35 1218.54 1735.84 1212.09 1716.38 1211.73 1705.78 1211.73 1696.7 1214.6 1689.15 1220.34 1681.61 1226.07 1675.07 1234.15 1669.55 1244.59 1665.76 1252.58 1662.8 1261.07 1660.65 1270.03 1658.49 1279 1657.42 1288.36 1657.42 1298.1 1657.42 1301.46 1657.55 1304.72 1657.8 1307.87 1658.06 1311.02 1658.36 1314.31 1658.72 1317.75 1659.14 1321.75 1658.27 1324.79 1656.11 1326.87 1653.96 1328.95 1651.63 1330.24 1649.12 1330.73 1642.25 1330.73 1638.1 1327.52 1636.67 1321.08 1634.82 1312.34 1633.52 1301.38 1632.78 1288.21 1632.04 1275.03 1631.67 1260.93 1631.67 1245.92 1631.67 1232.43 1631.94 1218.79 1632.5 1205 1633.05 1191.21 1633.84 1178.11 1634.86 1165.69 1635.88 1153.26 1637.05 1142.41 1638.37 1133.12 1638.78 1129.86 1640.3 1127.44 1642.94 1125.89 1644.26 1125.11 1645.56 1124.6 1646.84 1124.36ZM737.706 1113.62C752.131 1113.62 765.611 1116.95 778.145 1123.6 790.68 1130.26 801.687 1139.18 811.169 1150.36 820.651 1161.55 827.879 1173.81 832.854 1187.16 837.985 1199.8 841.665 1212.96 843.897 1226.64 846.128 1240.32 847.244 1254.29 847.244 1268.56 847.244 1276.65 846.908 1284.95 846.238 1293.48 845.567 1302 844.589 1310.32 843.304 1318.43 843.072 1321.64 841.785 1323.99 839.441 1325.47 837.096 1326.95 834.715 1327.7 832.296 1327.7 829.351 1327.7 826.629 1326.53 824.131 1324.19 821.633 1321.85 820.659 1318.91 821.21 1315.37 822.15 1308.09 822.891 1300.88 823.432 1293.73 823.974 1286.59 824.245 1279.48 824.245 1272.42 824.245 1258.57 823.148 1244.92 820.953 1231.47 818.758 1218.01 815.292 1205.72 810.554 1194.6 806.127 1183.6 800.166 1173.73 792.673 1164.98 785.18 1156.22 776.681 1149.31 767.177 1144.24 757.674 1139.17 747.483 1136.64 736.604 1136.64 726.036 1136.64 716.351 1138.97 707.549 1143.64 698.747 1148.31 690.89 1154.78 683.977 1163.05 677.065 1171.32 671.219 1180.74 666.44 1191.3 661.662 1201.85 658.133 1211.86 655.855 1221.3L803.891 1221.3C807.803 1221.3 810.629 1222.48 812.368 1224.84 814.108 1227.2 814.977 1229.63 814.977 1232.11 814.977 1234.81 813.989 1237.34 812.013 1239.69 810.036 1242.04 807.329 1243.21 803.891 1243.21L652.785 1243.21C652.583 1245 652.355 1247.75 652.102 1251.48 651.848 1255.2 651.722 1259.51 651.722 1264.42 651.722 1273.49 652.078 1282.49 652.792 1291.42 653.504 1300.35 654.321 1308.12 655.24 1314.74 655.65 1318.94 654.645 1322.15 652.225 1324.37 649.805 1326.59 647.229 1327.7 644.496 1327.7 641.829 1327.7 639.436 1326.89 637.317 1325.26 635.198 1323.64 633.919 1321.51 633.48 1318.86 632.169 1309.87 631.094 1300.95 630.257 1292.1 629.419 1283.25 629 1274.48 629 1265.8 629 1251.91 630.104 1238.48 632.312 1225.49 634.52 1212.51 638.192 1199.24 643.328 1185.67 648.675 1172.22 656.048 1159.99 665.448 1148.97 674.848 1137.96 685.678 1129.31 697.938 1123.04 710.199 1116.76 723.455 1113.62 737.706 1113.62ZM1541.66 928.735C1543.77 928.735 1546.3 929.378 1549.26 930.667 1552.21 931.955 1555.25 933.484 1558.36 935.253 1561.48 937.022 1564.34 938.728 1566.94 940.371 1569.54 942.013 1571.43 943.18 1572.61 943.87L1610.06 943.87C1612.24 943.87 1614.12 944.653 1615.68 946.22 1617.25 947.787 1618.03 949.629 1618.03 951.746 1618.03 953.883 1617.25 955.73 1615.7 957.286 1614.15 958.842 1612.27 959.619 1610.06 959.619L1588.01 959.619 1605.72 974.354 1640.4 974.354C1642.62 974.354 1644.5 975.104 1646.05 976.605 1647.6 978.105 1648.37 979.944 1648.37 982.123 1648.37 984.331 1647.61 986.196 1646.09 987.716 1644.58 989.237 1642.68 989.997 1640.4 989.997L1618.45 989.997 1646.01 1014.69C1647.59 1016.26 1648.37 1018.11 1648.37 1020.23 1648.37 1022.36 1647.6 1024.21 1646.04 1025.77 1644.49 1027.32 1642.61 1028.1 1640.4 1028.1 1638.22 1028.1 1636.36 1027.33 1634.83 1025.8L1610.42 998.147 1610.42 1020.23C1610.42 1022.36 1609.64 1024.21 1608.09 1025.77 1606.53 1027.32 1604.65 1028.1 1602.45 1028.1 1600.27 1028.1 1598.41 1027.33 1596.88 1025.8 1595.35 1024.27 1594.58 1022.41 1594.58 1020.23L1594.58 985.501 1579.97 967.664 1579.97 989.744C1579.97 991.953 1579.21 993.817 1577.69 995.337 1576.18 996.858 1574.28 997.618 1572 997.618 1569.76 997.618 1567.91 996.859 1566.44 995.343 1564.97 993.827 1564.24 991.96 1564.24 989.744L1564.24 957.165C1560.88 954.512 1557 952.107 1552.58 949.949 1548.17 947.791 1543.69 945.796 1539.15 943.965 1537.45 943.208 1536.13 942.263 1535.19 941.13 1534.26 939.997 1533.79 938.455 1533.79 936.504 1533.79 934.282 1534.56 932.431 1536.08 930.952 1537.61 929.474 1539.47 928.735 1541.66 928.735ZM1368.6 897.171 1257.36 1010.82 1264.53 1018.07 1353.56 927.893C1358.03 923.414 1361.55 918.376 1364.13 912.781 1366.7 907.185 1368.19 901.982 1368.6 897.171ZM1487.95 893.042C1486.57 893.042 1485.35 893.57 1484.29 894.625 1483.24 895.68 1482.71 896.939 1482.71 898.399 1482.71 899.235 1483.13 900.513 1483.98 902.235 1484.82 903.957 1485.9 905.833 1487.22 907.865 1488.54 909.896 1490.14 912.171 1492.02 914.689 1493.89 917.208 1495.55 919.356 1496.97 921.134 1498.4 922.911 1499.97 924.82 1501.68 926.861 1503.39 928.902 1504.82 930.544 1505.97 931.787L1505.97 944.229C1505.97 952.497 1507.03 960.403 1509.15 967.946 1511.28 975.49 1514.27 982.577 1518.13 989.207 1522 995.836 1526.63 1001.85 1532.03 1007.26 1537.43 1012.67 1543.43 1017.3 1550.04 1021.16 1556.65 1025.02 1563.71 1028.01 1571.23 1030.13 1578.74 1032.25 1586.61 1033.31 1594.83 1033.31L1668.58 1033.31 1668.58 1012.71C1668.58 1004.56 1667.52 996.694 1665.38 989.115 1663.25 981.537 1660.25 974.434 1656.39 967.806 1652.53 961.179 1647.9 955.161 1642.5 949.751 1637.09 944.343 1631.08 939.706 1624.46 935.84 1617.85 931.974 1610.75 928.973 1603.18 926.837 1595.61 924.7 1587.76 923.632 1579.61 923.632L1512.98 923.632C1509.77 920.072 1506.93 916.726 1504.47 913.596 1502.01 910.466 1499.69 907.159 1497.52 903.674 1496.67 902.278 1495.88 900.927 1495.16 899.621 1494.44 898.315 1493.68 897.152 1492.9 896.132 1491.99 894.976 1491.24 894.172 1490.64 893.72 1490.05 893.268 1489.15 893.042 1487.95 893.042ZM1365.42 871.345 1242.24 995.589 1251.11 1004.63 1368.49 886.128C1368.09 881.023 1367.07 876.095 1365.42 871.345ZM1524 865.522C1523.04 865.522 1522.22 865.856 1521.56 866.523 1520.89 867.191 1520.56 868.043 1520.56 869.079 1520.56 869.668 1520.74 870.557 1521.09 871.75 1521.94 873.844 1523.34 876.451 1525.28 879.572 1527.22 882.693 1529.34 885.762 1531.64 888.778 1533.95 891.794 1536.35 894.701 1538.87 897.499 1541.39 900.298 1543.48 902.453 1545.15 903.965L1559.38 903.965C1554.58 901.932 1549.97 898.621 1545.57 894.031 1541.16 889.442 1537.13 884.235 1533.48 878.411 1532.31 876.571 1531.27 874.762 1530.35 872.984 1529.43 871.207 1528.47 869.57 1527.47 868.074 1526.71 867 1526.13 866.306 1525.74 865.993 1525.34 865.679 1524.77 865.522 1524 865.522ZM1353.49 853.774 1227.02 980.347 1235.88 989.385 1361.2 863.567C1360.07 862.326 1358.71 860.683 1357.1 858.636 1355.49 856.59 1354.28 854.969 1353.49 853.774ZM1282.69 853.252 1279.11 856.297C1276.93 858.337 1274.69 860.59 1272.38 863.057 1270.07 865.524 1267.45 867.898 1264.53 870.179L1255.12 860.76 1181.35 934.721 1190.31 943.764ZM1238.98 846.893 1167.5 918.547C1168.68 919.959 1170.08 921.614 1171.7 923.51 1173.32 925.406 1174.47 927.077 1175.16 928.522L1248.92 854.595C1247.45 853.739 1245.73 852.53 1243.76 850.968 1241.8 849.405 1240.2 848.047 1238.98 846.893ZM1492.39 844.883C1491.52 844.883 1490.73 845.217 1490.02 845.887 1489.31 846.557 1488.95 847.372 1488.95 848.333 1488.95 848.534 1488.96 848.692 1488.98 848.808 1489 848.923 1488.99 848.931 1488.97 848.831 1491.43 859.323 1494.84 869.227 1499.19 878.542 1503.55 887.858 1508.67 896.332 1514.55 903.965L1526.07 903.965C1520.76 899.83 1515.81 893.967 1511.23 886.377 1506.66 878.788 1503.14 871.303 1500.68 863.923 1499.6 860.572 1498.8 857.623 1498.28 855.075 1497.77 852.527 1497.02 850.207 1496.04 848.115 1495.59 847.159 1495.08 846.381 1494.51 845.781 1493.93 845.182 1493.23 844.883 1492.39 844.883ZM1334.81 842.555 1211.8 965.198 1220.75 974.143 1346.71 848.29C1345.19 847.762 1343.26 846.868 1340.91 845.606 1338.55 844.345 1336.52 843.327 1334.81 842.555ZM1204.94 840.015C1200.3 840.554 1195.28 842.119 1189.87 844.709 1184.46 847.299 1179.66 850.689 1175.48 854.879 1171.29 859.07 1167.9 863.884 1165.3 869.321 1162.71 874.758 1161.15 879.814 1160.63 884.49ZM1216.18 839.908 1160.52 895.672C1160.77 900.946 1161.7 905.934 1163.33 910.635L1231.06 842.789C1226.32 841.136 1221.36 840.176 1216.18 839.908ZM1317.05 839.696C1315.19 839.696 1313.3 839.818 1311.38 840.064 1309.45 840.31 1307.79 840.583 1306.38 840.885L1196.57 949.956 1205.53 958.901 1325.67 840.015C1323.17 839.802 1320.3 839.696 1317.05 839.696ZM1463.85 824.667C1462.85 824.667 1462.02 824.98 1461.38 825.608 1460.73 826.235 1460.4 827.072 1460.4 828.117 1460.4 829.883 1460.57 832.015 1460.89 834.513 1461.21 837.011 1461.67 839.903 1462.25 843.189 1462.84 846.475 1463.54 849.904 1464.36 853.478 1465.18 857.051 1465.98 860.196 1466.76 862.912 1467.55 865.628 1468.4 868.254 1469.31 870.789 1470.22 873.324 1471.07 875.31 1471.86 876.746 1472.29 877.562 1472.77 878.157 1473.29 878.531 1473.8 878.905 1474.43 879.092 1475.16 879.092 1476.14 879.092 1476.98 878.755 1477.67 878.083 1478.37 877.41 1478.71 876.596 1478.71 875.641 1478.71 875.434 1478.69 875.214 1478.65 874.979 1478.61 874.744 1478.5 874.426 1478.34 874.025 1476.67 869.271 1475.13 864.519 1473.72 859.772 1472.32 855.024 1471.1 850.087 1470.08 844.962 1469.49 842.027 1469.04 839.178 1468.73 836.415 1468.42 833.652 1467.95 830.914 1467.33 828.2 1467.06 827.061 1466.65 826.188 1466.11 825.579 1465.57 824.971 1464.81 824.667 1463.85 824.667ZM1211.86 820.242C1217.49 820.242 1222.77 820.808 1227.69 821.941 1232.62 823.073 1237.29 824.7 1241.71 826.821 1246.13 828.943 1250.36 831.551 1254.39 834.645 1258.43 837.74 1261.81 840.983 1264.53 844.375 1267.34 840.886 1270.71 837.622 1274.64 834.581 1278.57 831.541 1282.78 828.955 1287.25 826.824 1291.73 824.693 1296.42 823.063 1301.33 821.935 1306.24 820.806 1311.51 820.242 1317.15 820.242 1326.95 820.242 1336.18 822.128 1344.84 825.898 1353.51 829.669 1361.05 834.765 1367.46 841.185 1373.87 847.605 1378.96 855.141 1382.71 863.793 1386.47 872.445 1388.35 881.652 1388.35 891.412 1388.35 900.933 1386.56 910.006 1383 918.631 1379.44 927.257 1374.27 934.967 1367.48 941.76L1264.53 1043.87 1161.57 941.76C1154.81 934.993 1149.66 927.308 1146.1 918.703 1142.55 910.098 1140.77 901.001 1140.77 891.412 1140.77 884.84 1141.63 878.516 1143.33 872.442 1145.04 866.368 1147.42 860.716 1150.46 855.487 1153.51 850.258 1157.21 845.462 1161.57 841.098 1165.93 836.735 1170.72 833.028 1175.94 829.978 1181.16 826.928 1186.83 824.543 1192.94 822.823 1199.04 821.102 1205.35 820.242 1211.86 820.242ZM1462.58 805C1466.3 805 1469.63 805.593 1472.59 806.779 1475.55 807.965 1478.05 809.615 1480.09 811.729 1482.12 813.843 1483.72 816.339 1484.9 819.218 1486.07 822.097 1486.74 824.626 1486.9 826.805 1487.74 825.817 1489.57 825.323 1492.39 825.323 1498.42 825.323 1503.19 826.948 1506.71 830.198 1510.24 833.449 1512.97 837.772 1514.92 843.167 1515.23 844.155 1515.53 845.214 1515.81 846.344 1516.09 847.473 1516.15 848.086 1515.98 848.185 1517.82 846.633 1520.5 845.857 1524 845.857 1528.94 845.857 1532.99 846.992 1536.16 849.262 1539.32 851.532 1541.87 854.278 1543.81 857.5 1545.61 860.264 1547.12 862.771 1548.35 865.021 1549.58 867.271 1551 869.606 1552.59 872.026 1554.59 874.888 1557 877.782 1559.82 880.708 1562.64 883.635 1565.63 886.484 1568.79 889.257 1571.95 892.03 1575.14 894.671 1578.37 897.181 1581.6 899.691 1584.67 902.087 1587.58 904.369 1596.61 904.985 1605.46 906.768 1614.12 909.718 1622.78 912.669 1630.88 916.579 1638.41 921.449 1645.94 926.32 1652.76 932.015 1658.88 938.536 1664.99 945.057 1670.22 952.217 1674.57 960.016 1678.91 967.815 1682.27 976.177 1684.65 985.105 1687.04 994.033 1688.23 1003.2 1688.23 1012.61L1688.23 1052.76 1594.83 1052.76C1584.79 1052.76 1575.15 1051.47 1565.92 1048.88 1556.68 1046.29 1548.05 1042.63 1540.05 1037.93 1532.04 1033.22 1524.73 1027.55 1518.12 1020.93 1511.51 1014.31 1505.85 1006.99 1501.14 998.977 1496.44 990.962 1492.8 982.329 1490.21 973.079 1487.62 963.83 1486.32 954.178 1486.32 944.125L1486.32 939.143C1479.95 931.948 1474.16 924.023 1468.94 915.37 1463.73 906.717 1459.22 897.747 1455.41 888.459 1451.61 879.172 1448.51 869.651 1446.1 859.899 1443.69 850.147 1441.95 840.256 1440.88 830.226 1440.8 829.846 1440.76 829.452 1440.76 829.045 1440.76 828.638 1440.76 828.258 1440.76 827.905 1440.76 825.021 1441.34 822.197 1442.51 819.433 1443.68 816.67 1445.25 814.22 1447.23 812.085 1449.2 809.951 1451.51 808.236 1454.13 806.942 1456.75 805.647 1459.57 805 1462.58 805Z" fill="#FFFFFF" fill-rule="evenodd"/></g></svg>