<svg width="3180" height="681"
  xmlns="http://www.w3.org/2000/svg"
  xmlns:xlink="http://www.w3.org/1999/xlink" xml:space="preserve" overflow="hidden">
  <defs>
    <clipPath id="clip0">
      <rect x="610" y="897" width="3180" height="681"/>
    </clipPath>
  </defs>
  <g clip-path="url(#clip0)" transform="translate(-610 -897)">
    <path d="M1346.6 1525.09C1345.49 1525.09 1344.52 1525.48 1343.7 1526.28 1342.89 1527.08 1342.48 1528.06 1342.48 1529.22 1342.48 1530.39 1342.89 1531.38 1343.71 1532.2 1344.53 1533.02 1345.5 1533.44 1346.6 1533.44 1347.75 1533.44 1348.72 1533.02 1349.52 1532.2 1350.33 1531.37 1350.73 1530.38 1350.73 1529.22 1350.73 1528.1 1350.32 1527.14 1349.5 1526.32 1348.69 1525.5 1347.72 1525.09 1346.6 1525.09ZM1382.48 1513.34C1381.08 1513.34 1379.94 1513.67 1379.07 1514.35 1378.21 1515.03 1377.77 1516.07 1377.77 1517.47 1377.77 1518.66 1378.17 1519.66 1378.95 1520.47 1379.74 1521.28 1380.7 1521.69 1381.82 1521.69 1382.95 1521.69 1383.93 1521.27 1384.77 1520.43 1385.61 1519.59 1386.03 1518.6 1386.03 1517.47 1386.03 1517.05 1385.92 1516.58 1385.72 1516.06 1385.51 1515.54 1385.23 1515.07 1384.89 1514.67 1384.54 1514.26 1384.16 1513.94 1383.73 1513.7 1383.3 1513.46 1382.89 1513.34 1382.48 1513.34ZM1311.31 1513.34C1310.16 1513.34 1309.2 1513.72 1308.43 1514.5 1307.65 1515.27 1307.27 1516.26 1307.27 1517.47 1307.27 1518.66 1307.66 1519.66 1308.45 1520.47 1309.24 1521.28 1310.19 1521.69 1311.31 1521.69 1312.47 1521.69 1313.46 1521.28 1314.28 1520.48 1315.11 1519.67 1315.52 1518.69 1315.52 1517.55 1315.52 1516.38 1315.11 1515.39 1314.29 1514.57 1313.47 1513.75 1312.48 1513.34 1311.31 1513.34ZM1387.73 1483.84C1386.63 1483.84 1385.67 1484.25 1384.84 1485.08 1384.01 1485.91 1383.6 1486.9 1383.6 1488.05 1383.6 1489.22 1384.01 1490.22 1384.83 1491.04 1385.65 1491.86 1386.62 1492.27 1387.73 1492.27 1388.87 1492.27 1389.84 1491.86 1390.65 1491.03 1391.45 1490.2 1391.86 1489.21 1391.86 1488.05 1391.86 1486.91 1391.45 1485.92 1390.63 1485.09 1389.82 1484.25 1388.85 1483.84 1387.73 1483.84ZM1305.4 1483.84C1304.3 1483.84 1303.35 1484.25 1302.55 1485.06 1301.75 1485.88 1301.36 1486.88 1301.36 1488.05 1301.36 1489.25 1301.75 1490.25 1302.54 1491.06 1303.33 1491.87 1304.28 1492.27 1305.4 1492.27 1306.53 1492.27 1307.52 1491.85 1308.35 1491.01 1309.19 1490.17 1309.61 1489.19 1309.61 1488.05 1309.61 1486.94 1309.19 1485.96 1308.34 1485.11 1307.49 1484.26 1306.51 1483.84 1305.4 1483.84ZM1346.6 1474.6C1348.43 1474.6 1350.18 1474.96 1351.84 1475.68 1353.5 1476.4 1354.94 1477.37 1356.17 1478.59 1357.39 1479.82 1358.35 1481.25 1359.06 1482.89 1359.77 1484.54 1360.12 1486.26 1360.12 1488.05 1360.12 1489.84 1359.77 1491.58 1359.05 1493.27 1358.34 1494.96 1357.39 1496.4 1356.21 1497.58 1355.02 1498.77 1353.59 1499.72 1351.9 1500.43 1350.22 1501.15 1348.45 1501.5 1346.6 1501.5 1344.76 1501.5 1343.01 1501.15 1341.36 1500.45 1339.71 1499.75 1338.27 1498.8 1337.04 1497.6 1335.81 1496.4 1334.84 1494.97 1334.14 1493.31 1333.44 1491.65 1333.09 1489.9 1333.09 1488.05 1333.09 1486.18 1333.45 1484.44 1334.17 1482.82 1334.9 1481.21 1335.87 1479.8 1337.1 1478.57 1338.32 1477.35 1339.75 1476.38 1341.4 1475.67 1343.05 1474.96 1344.78 1474.6 1346.6 1474.6ZM1346.6 1466.25C1343.59 1466.25 1340.76 1466.82 1338.11 1467.95 1335.47 1469.08 1333.17 1470.64 1331.22 1472.61 1329.27 1474.59 1327.72 1476.9 1326.56 1479.55 1325.41 1482.2 1324.83 1485.04 1324.83 1488.05 1324.83 1491.14 1325.4 1494 1326.55 1496.64 1327.7 1499.27 1329.26 1501.58 1331.23 1503.55 1333.21 1505.52 1335.5 1507.08 1338.11 1508.22 1340.72 1509.36 1343.55 1509.94 1346.6 1509.94 1349.61 1509.94 1352.43 1509.36 1355.07 1508.2 1357.71 1507.05 1360 1505.48 1361.96 1503.5 1363.91 1501.52 1365.47 1499.19 1366.63 1496.53 1367.8 1493.86 1368.38 1491.04 1368.38 1488.05 1368.38 1485.08 1367.82 1482.28 1366.69 1479.63 1365.55 1476.98 1363.99 1474.65 1361.99 1472.65 1359.99 1470.65 1357.67 1469.08 1355.02 1467.95 1352.38 1466.82 1349.57 1466.25 1346.6 1466.25ZM1093.08 1458.25C1091.01 1458.25 1089.06 1458.65 1087.24 1459.44 1085.41 1460.23 1083.8 1461.32 1082.41 1462.71 1081.03 1464.1 1079.94 1465.71 1079.15 1467.53 1078.36 1469.36 1077.96 1471.34 1077.96 1473.47 1077.96 1475.55 1078.34 1477.52 1079.09 1479.36 1079.84 1481.21 1080.92 1482.85 1082.35 1484.28L1112.08 1514.69 1141.81 1484.28C1143.25 1482.83 1144.35 1481.17 1145.11 1479.31 1145.86 1477.44 1146.24 1475.5 1146.24 1473.47 1146.24 1471.39 1145.84 1469.43 1145.04 1467.59 1144.25 1465.75 1143.15 1464.13 1141.76 1462.73 1140.37 1461.34 1138.76 1460.25 1136.92 1459.45 1135.07 1458.65 1133.11 1458.25 1131.04 1458.25 1129.1 1458.25 1127.35 1458.58 1125.79 1459.23 1124.24 1459.89 1122.78 1460.73 1121.42 1461.75 1120.06 1462.78 1118.73 1464 1117.43 1465.41 1116.13 1466.82 1114.35 1468.41 1112.1 1470.17 1109.92 1468.56 1108.17 1467.02 1106.85 1465.57 1105.54 1464.11 1104.18 1462.86 1102.79 1461.81 1101.4 1460.76 1099.92 1459.9 1098.35 1459.24 1096.78 1458.58 1095.03 1458.25 1093.08 1458.25ZM1381.82 1454.5C1380.7 1454.5 1379.73 1454.9 1378.91 1455.7 1378.1 1456.5 1377.69 1457.48 1377.69 1458.64 1377.69 1459.81 1378.1 1460.8 1378.92 1461.62 1379.74 1462.44 1380.71 1462.85 1381.82 1462.85 1382.95 1462.85 1383.93 1462.43 1384.77 1461.6 1385.61 1460.76 1386.03 1459.77 1386.03 1458.64 1386.03 1457.51 1385.61 1456.54 1384.78 1455.73 1383.94 1454.91 1382.96 1454.5 1381.82 1454.5ZM1311.31 1454.5C1310.22 1454.5 1309.27 1454.91 1308.47 1455.71 1307.67 1456.51 1307.27 1457.49 1307.27 1458.64 1307.27 1459.83 1307.66 1460.83 1308.45 1461.64 1309.24 1462.45 1310.19 1462.85 1311.31 1462.85 1312.49 1462.85 1313.49 1462.42 1314.3 1461.54 1315.11 1460.67 1315.52 1459.64 1315.52 1458.47 1315.52 1457.37 1315.1 1456.44 1314.25 1455.66 1313.39 1454.89 1312.42 1454.5 1311.31 1454.5ZM1093.08 1448.85C1095.26 1448.85 1097.31 1449.1 1099.24 1449.6 1101.16 1450.1 1102.92 1450.79 1104.49 1451.69 1106.07 1452.58 1107.6 1453.66 1109.06 1454.92 1110.53 1456.17 1111.52 1457.32 1112.05 1458.35 1112.68 1457.19 1113.7 1456.02 1115.11 1454.83 1116.52 1453.64 1118.05 1452.6 1119.68 1451.69 1121.32 1450.78 1123.07 1450.08 1124.93 1449.59 1126.8 1449.1 1128.83 1448.85 1131.04 1448.85 1134.42 1448.85 1137.62 1449.5 1140.64 1450.81 1143.67 1452.11 1146.29 1453.87 1148.51 1456.09 1150.73 1458.32 1152.49 1460.93 1153.78 1463.94 1155.07 1466.94 1155.71 1470.12 1155.71 1473.47 1155.71 1476.7 1155.07 1479.86 1153.77 1482.94 1152.47 1486.02 1150.7 1488.68 1148.44 1490.94L1112.08 1526.58 1075.63 1490.94C1073.36 1488.67 1071.6 1486.01 1070.36 1482.95 1069.11 1479.9 1068.49 1476.74 1068.49 1473.47 1068.49 1470.07 1069.13 1466.86 1070.41 1463.84 1071.7 1460.83 1073.44 1458.22 1075.63 1456.03 1077.82 1453.83 1080.43 1452.09 1083.47 1450.8 1086.5 1449.5 1089.71 1448.85 1093.08 1448.85ZM1399.38 1442.67C1397.59 1442.67 1395.72 1442.87 1393.77 1443.28 1391.81 1443.69 1389.88 1444.2 1387.96 1444.81L1385.02 1445.84 1387.13 1446.26C1388.8 1446.98 1390.23 1447.94 1391.42 1449.13 1392.61 1450.33 1393.56 1451.75 1394.27 1453.39 1394.98 1455.04 1395.34 1456.79 1395.34 1458.64 1395.34 1460.51 1394.98 1462.26 1394.27 1463.91 1393.56 1465.55 1392.61 1466.97 1391.42 1468.17 1390.23 1469.36 1388.81 1470.31 1387.16 1471.02 1385.52 1471.73 1383.74 1472.09 1381.82 1472.09 1380.49 1472.09 1379.67 1471.98 1379.35 1471.75L1374.94 1475.94C1375.42 1476.36 1375.84 1477.16 1376.2 1478.36 1376.38 1478.96 1376.52 1479.43 1376.62 1479.78L1376.77 1480.3 1380.97 1476.41C1382.8 1475.2 1385.06 1474.6 1387.73 1474.6 1389.53 1474.6 1391.29 1474.97 1392.99 1475.69 1394.7 1476.41 1396.15 1477.37 1397.33 1478.55 1398.51 1479.73 1399.46 1481.17 1400.18 1482.86 1400.89 1484.55 1401.25 1486.28 1401.25 1488.05 1401.25 1489.84 1400.89 1491.58 1400.18 1493.27 1399.46 1494.96 1398.51 1496.4 1397.33 1497.58 1396.15 1498.77 1394.71 1499.72 1393.02 1500.43 1391.34 1501.15 1389.57 1501.5 1387.73 1501.5 1385.28 1501.5 1383.03 1500.91 1380.99 1499.71 1379.97 1499.12 1379.09 1498.48 1378.35 1497.81L1376.7 1495.87 1374.94 1500.19 1379.29 1504.44C1379.23 1504.3 1379.51 1504.19 1380.14 1504.12 1380.78 1504.05 1381.33 1504.02 1381.82 1504.02 1383.62 1504.02 1385.38 1504.38 1387.08 1505.1 1388.79 1505.83 1390.24 1506.78 1391.42 1507.97 1392.6 1509.15 1393.55 1510.59 1394.27 1512.28 1394.98 1513.97 1395.34 1515.7 1395.34 1517.47 1395.34 1519.34 1394.98 1521.09 1394.27 1522.74 1393.56 1524.38 1392.61 1525.8 1391.42 1527 1390.23 1528.19 1388.81 1529.15 1387.16 1529.86 1385.52 1530.56 1383.74 1530.92 1381.82 1530.92 1379.97 1530.92 1378.22 1530.56 1376.55 1529.86 1374.88 1529.15 1373.45 1528.21 1372.27 1527.02 1371.09 1525.84 1370.15 1524.42 1369.44 1522.74 1368.73 1521.07 1368.38 1519.31 1368.38 1517.47 1368.38 1516.33 1368.52 1515.48 1368.8 1514.91L1366.07 1511.75C1364.86 1513.32 1363.01 1514.7 1360.54 1515.89L1354.36 1518.2 1356.36 1519.8C1357.04 1520.53 1357.69 1521.43 1358.3 1522.49 1359.52 1524.61 1360.12 1526.85 1360.12 1529.22 1360.12 1532.44 1359.15 1535.24 1357.2 1537.64 1355.25 1540.04 1353.2 1541.41 1351.05 1541.76 1352.73 1542.99 1354.66 1545.12 1356.85 1548.16 1359.04 1551.2 1361.31 1553.79 1363.67 1555.94 1366.03 1558.09 1368.63 1559.77 1371.47 1561.01 1374.31 1562.24 1377.76 1562.85 1381.82 1562.85L1391.86 1562.85 1391.86 1545.18 1409.5 1545.18 1409.5 1541.22C1409.5 1539.07 1409.45 1536.99 1409.34 1534.98 1409.23 1532.98 1409 1531.06 1408.63 1529.22 1408.26 1527.39 1407.71 1525.57 1406.97 1523.78 1406.23 1521.98 1405.21 1520.22 1403.91 1518.51L1392.85 1502.21 1407.48 1496.93C1411 1495.7 1413.95 1493.94 1416.33 1491.67 1418.71 1489.39 1420.71 1486.78 1422.32 1483.85 1423.93 1480.91 1425.14 1477.75 1425.94 1474.37 1426.75 1470.98 1427.15 1468.28 1427.15 1466.25L1409.5 1466.25 1415.41 1447.51C1413.46 1446.17 1411.04 1445.03 1408.16 1444.09 1405.28 1443.14 1402.35 1442.67 1399.38 1442.67ZM1346.6 1442.67C1345.51 1442.67 1344.55 1443.09 1343.72 1443.92 1342.89 1444.75 1342.48 1445.74 1342.48 1446.89 1342.48 1448.06 1342.89 1449.05 1343.71 1449.87 1344.53 1450.69 1345.5 1451.1 1346.6 1451.1 1347.75 1451.1 1348.72 1450.69 1349.52 1449.87 1350.33 1449.04 1350.73 1448.05 1350.73 1446.89 1350.73 1445.75 1350.33 1444.76 1349.51 1443.92 1348.7 1443.09 1347.73 1442.67 1346.6 1442.67ZM1293.74 1442.67C1290.77 1442.67 1287.85 1443.14 1284.99 1444.08 1282.12 1445.02 1279.73 1446.15 1277.8 1447.49L1283.71 1466.25 1266.06 1466.25C1266.06 1468.31 1266.46 1471.01 1267.26 1474.37 1268.06 1477.72 1269.25 1480.9 1270.83 1483.89 1272.42 1486.88 1274.4 1489.51 1276.77 1491.78 1279.15 1494.05 1281.85 1495.69 1284.9 1496.71L1300.36 1502.22C1297.69 1505.96 1295.42 1509.25 1293.53 1512.07 1291.64 1514.89 1290.07 1517.24 1288.82 1519.14 1287.56 1521.04 1286.61 1522.77 1285.96 1524.33 1285.31 1525.89 1284.81 1527.68 1284.45 1529.71 1284.1 1531.74 1283.89 1533.94 1283.81 1536.29 1283.74 1538.65 1283.71 1541.62 1283.71 1545.18L1301.36 1545.18 1301.36 1562.85 1311.31 1562.85C1315.36 1562.85 1318.82 1562.22 1321.68 1560.96 1324.53 1559.7 1327.13 1557.99 1329.47 1555.84 1331.81 1553.68 1333.97 1551.24 1335.95 1548.51 1337.94 1545.79 1340.01 1543.54 1342.16 1541.77 1339.98 1541.42 1337.92 1540.03 1335.98 1537.59 1334.05 1535.15 1333.09 1532.36 1333.09 1529.22 1333.09 1526.84 1333.7 1524.6 1334.92 1522.49 1335.54 1521.43 1336.18 1520.54 1336.86 1519.8L1338.83 1518.21 1332.62 1515.91C1330.16 1514.72 1328.32 1513.33 1327.11 1511.75L1324.5 1514.93C1324.58 1514.89 1324.66 1515.19 1324.73 1515.84 1324.8 1516.5 1324.83 1517.04 1324.83 1517.47 1324.83 1519.26 1324.47 1521 1323.76 1522.69 1323.04 1524.38 1322.1 1525.81 1320.91 1527 1319.73 1528.18 1318.29 1529.13 1316.61 1529.85 1314.92 1530.56 1313.16 1530.92 1311.31 1530.92 1309.47 1530.92 1307.71 1530.56 1306.04 1529.86 1304.37 1529.15 1302.94 1528.2 1301.76 1527.02 1300.58 1525.84 1299.64 1524.41 1298.93 1522.74 1298.23 1521.07 1297.87 1519.31 1297.87 1517.47 1297.87 1515.64 1298.23 1513.89 1298.93 1512.22 1299.64 1510.55 1300.58 1509.12 1301.77 1507.94 1302.95 1506.76 1304.38 1505.81 1306.07 1505.09 1307.77 1504.38 1309.51 1504.02 1311.31 1504.02 1311.83 1504.02 1312.42 1504.06 1313.06 1504.13 1313.7 1504.2 1313.99 1504.3 1313.91 1504.44L1318.27 1500.15C1317.85 1499.61 1317.45 1498.81 1317.07 1497.77L1316.47 1495.88 1314.83 1497.79C1314.09 1498.46 1313.2 1499.1 1312.17 1499.7 1310.12 1500.9 1307.86 1501.5 1305.4 1501.5 1303.56 1501.5 1301.8 1501.15 1300.13 1500.44 1298.46 1499.73 1297.04 1498.79 1295.85 1497.61 1294.67 1496.43 1293.73 1495 1293.02 1493.33 1292.32 1491.65 1291.96 1489.9 1291.96 1488.05 1291.96 1486.23 1292.32 1484.48 1293.02 1482.8 1293.73 1481.13 1294.67 1479.71 1295.85 1478.52 1297.04 1477.34 1298.47 1476.39 1300.16 1475.68 1301.85 1474.96 1303.6 1474.6 1305.4 1474.6 1307.83 1474.6 1310.08 1475.21 1312.15 1476.42 1313.19 1477.03 1314.08 1477.66 1314.82 1478.33L1316.46 1480.24 1318.1 1476.29 1313.13 1471.84C1312.85 1472 1312.24 1472.09 1311.31 1472.09 1309.47 1472.09 1307.71 1471.73 1306.04 1471.03 1304.37 1470.32 1302.94 1469.37 1301.76 1468.19 1300.58 1467.01 1299.64 1465.58 1298.93 1463.91 1298.23 1462.24 1297.87 1460.48 1297.87 1458.64 1297.87 1456.81 1298.23 1455.06 1298.93 1453.39 1299.64 1451.72 1300.58 1450.29 1301.76 1449.11 1302.94 1447.93 1304.38 1446.98 1306.07 1446.26L1308.13 1445.84 1305.16 1444.81C1303.22 1444.19 1301.27 1443.68 1299.31 1443.28 1297.34 1442.87 1295.49 1442.67 1293.74 1442.67ZM1081.84 1434.25C1078 1434.25 1074.4 1434.98 1071.04 1436.44 1067.69 1437.9 1064.74 1439.9 1062.19 1442.46 1059.63 1445.01 1057.63 1447.98 1056.17 1451.37 1054.72 1454.75 1053.99 1458.37 1053.99 1462.22 1053.99 1466.02 1054.68 1469.59 1056.07 1472.94 1057.45 1476.29 1059.47 1479.29 1062.12 1481.94L1112.08 1532.69 1162.03 1481.94C1164.64 1479.33 1166.65 1476.3 1168.04 1472.85 1169.43 1469.4 1170.13 1465.86 1170.13 1462.22 1170.13 1458.42 1169.4 1454.82 1167.93 1451.42 1166.47 1448.02 1164.47 1445.04 1161.95 1442.48 1159.42 1439.92 1156.47 1437.91 1153.1 1436.45 1149.74 1434.99 1146.13 1434.25 1142.28 1434.25 1139.19 1434.25 1136.48 1434.63 1134.14 1435.37 1131.8 1436.12 1129.59 1437.17 1127.51 1438.54 1125.42 1439.9 1123.47 1441.48 1121.65 1443.28 1119.83 1445.07 1117.91 1447.01 1115.89 1449.08L1112.08 1452.25 1108.26 1449.08C1106.26 1447.02 1104.35 1445.1 1102.53 1443.3 1100.71 1441.51 1098.77 1439.93 1096.7 1438.58 1094.64 1437.23 1092.39 1436.17 1089.96 1435.41 1087.52 1434.64 1084.82 1434.25 1081.84 1434.25ZM1081.84 1424.85C1085.35 1424.85 1088.56 1425.26 1091.47 1426.06 1094.38 1426.86 1097.07 1427.99 1099.54 1429.45 1102.01 1430.9 1104.35 1432.59 1106.55 1434.51 1108.75 1436.43 1110.59 1438.38 1112.08 1440.36 1113.58 1438.36 1115.43 1436.4 1117.63 1434.48 1119.83 1432.56 1122.16 1430.88 1124.63 1429.43 1127.09 1427.98 1129.77 1426.85 1132.67 1426.05 1135.56 1425.25 1138.77 1424.85 1142.28 1424.85 1147.38 1424.85 1152.22 1425.85 1156.8 1427.85 1161.37 1429.85 1165.34 1432.52 1168.69 1435.88 1172.05 1439.24 1174.72 1443.21 1176.71 1447.77 1178.69 1452.33 1179.69 1457.14 1179.69 1462.22 1179.69 1467.18 1178.72 1471.94 1176.79 1476.52 1174.85 1481.1 1172.14 1485.13 1168.67 1488.61L1112.08 1544.58 1055.48 1488.61C1052.03 1485.15 1049.34 1481.14 1047.41 1476.58 1045.48 1472.02 1044.52 1467.23 1044.52 1462.22 1044.52 1457.09 1045.51 1452.26 1047.48 1447.71 1049.46 1443.17 1052.13 1439.22 1055.48 1435.86 1058.84 1432.5 1062.79 1429.83 1067.35 1427.84 1071.91 1425.85 1076.74 1424.85 1081.84 1424.85ZM1070.6 1410.34C1065.04 1410.34 1059.8 1411.4 1054.9 1413.52 1049.99 1415.65 1045.69 1418.56 1042 1422.25 1038.31 1425.95 1035.4 1430.25 1033.28 1435.16 1031.16 1440.07 1030.1 1445.34 1030.1 1450.97 1030.1 1456.44 1031.13 1461.63 1033.18 1466.57 1035.23 1471.5 1038.16 1475.87 1041.97 1479.69L1112.08 1550.68 1182.18 1479.69C1186.01 1475.85 1188.96 1471.46 1191.02 1466.51 1193.07 1461.56 1194.1 1456.38 1194.1 1450.97 1194.1 1445.39 1193.04 1440.14 1190.91 1435.21 1188.78 1430.29 1185.87 1425.98 1182.18 1422.28 1178.48 1418.58 1174.18 1415.66 1169.25 1413.53 1164.33 1411.4 1159.09 1410.34 1153.51 1410.34 1149.18 1410.34 1145.34 1410.84 1142 1411.85 1138.66 1412.86 1135.57 1414.26 1132.74 1416.05 1129.91 1417.85 1127.13 1420.05 1124.39 1422.67 1121.66 1425.29 1119.02 1427.9 1116.48 1430.5L1112.08 1434.25 1107.43 1430.25C1104.68 1427.44 1102.02 1424.84 1099.45 1422.43 1096.89 1420.03 1094.17 1417.92 1091.3 1416.1 1088.43 1414.29 1085.33 1412.87 1082.01 1411.86 1078.68 1410.84 1074.88 1410.34 1070.6 1410.34ZM1334.2 1401.51C1332.65 1402.63 1330.85 1403.89 1328.81 1405.27 1326.76 1406.65 1325 1408.21 1323.54 1409.93 1322.08 1411.65 1320.94 1413.58 1320.13 1415.73 1319.32 1417.89 1318.92 1420.41 1318.92 1423.31L1318.92 1447.82 1320.91 1449.13C1322.1 1450.32 1323.04 1451.76 1323.76 1453.45 1324.47 1455.13 1324.83 1456.86 1324.83 1458.64 1324.83 1460.2 1324.64 1461.31 1324.25 1461.95L1326.72 1464.69C1328.02 1463.04 1329.92 1461.6 1332.43 1460.38L1338.82 1457.95 1336.83 1456.35C1336.15 1455.61 1335.5 1454.71 1334.9 1453.64 1333.69 1451.51 1333.09 1449.26 1333.09 1446.89 1333.09 1445.06 1333.44 1443.32 1334.14 1441.66 1334.84 1440 1335.81 1438.57 1337.04 1437.37 1338.27 1436.16 1339.72 1435.21 1341.4 1434.5 1343.07 1433.79 1344.81 1433.44 1346.6 1433.44 1348.41 1433.44 1350.16 1433.8 1351.87 1434.52 1353.58 1435.25 1355.02 1436.2 1356.21 1437.38 1357.39 1438.57 1358.34 1440.01 1359.05 1441.7 1359.77 1443.39 1360.12 1445.12 1360.12 1446.89 1360.12 1449.28 1359.52 1451.53 1358.3 1453.64 1357.69 1454.7 1357.05 1455.6 1356.36 1456.33L1354.34 1457.95 1360.5 1460.27C1362.9 1461.42 1364.75 1462.78 1366.04 1464.35L1368.8 1461.22C1368.52 1460.66 1368.38 1459.79 1368.38 1458.64 1368.38 1456.81 1368.73 1455.06 1369.44 1453.39 1370.15 1451.72 1371.09 1450.29 1372.27 1449.11L1374.29 1447.77 1374.29 1423.31C1374.29 1420.47 1373.88 1417.96 1373.07 1415.79 1372.25 1413.62 1371.11 1411.68 1369.65 1409.96 1368.18 1408.23 1366.42 1406.68 1364.37 1405.29 1362.32 1403.9 1360.51 1402.64 1358.97 1401.51L1346.63 1419.17ZM1070.6 1394.94C1074.98 1394.94 1079.12 1395.38 1083.03 1396.28 1086.93 1397.17 1090.64 1398.45 1094.15 1400.12 1097.66 1401.79 1101.02 1403.86 1104.23 1406.32 1107.45 1408.78 1110.06 1411.32 1112.08 1413.94 1114.11 1411.3 1116.74 1408.75 1119.94 1406.29 1123.15 1403.83 1126.51 1401.77 1130.01 1400.1 1133.51 1398.44 1137.2 1397.16 1141.1 1396.27 1144.99 1395.38 1149.13 1394.94 1153.51 1394.94 1158.64 1394.94 1163.6 1395.62 1168.39 1396.98 1173.18 1398.34 1177.65 1400.23 1181.8 1402.67 1185.95 1405.1 1189.72 1408.02 1193.13 1411.43 1196.54 1414.84 1199.45 1418.61 1201.88 1422.76 1204.3 1426.9 1206.19 1431.36 1207.54 1436.14 1208.9 1440.92 1209.57 1445.87 1209.57 1450.97 1209.57 1458.47 1208.15 1465.63 1205.32 1472.44 1202.49 1479.26 1198.43 1485.32 1193.14 1490.61L1112.08 1571 1031.01 1490.61C1025.74 1485.34 1021.7 1479.3 1018.87 1472.5 1016.05 1465.7 1014.63 1458.52 1014.63 1450.97 1014.63 1445.8 1015.3 1440.82 1016.65 1436.04 1017.99 1431.25 1019.86 1426.8 1022.26 1422.69 1024.66 1418.57 1027.58 1414.79 1031.01 1411.36 1034.44 1407.92 1038.21 1405.01 1042.32 1402.6 1046.44 1400.2 1050.9 1398.33 1055.71 1396.97 1060.52 1395.62 1065.48 1394.94 1070.6 1394.94ZM1339.48 1382.94 1346.62 1394.52 1353.67 1382.94C1358.97 1385.26 1363.68 1387.53 1367.78 1389.75 1371.89 1391.98 1375.55 1394.62 1378.78 1397.67 1382.01 1400.73 1384.6 1404.33 1386.56 1408.46 1388.53 1412.6 1389.51 1417.54 1389.51 1423.31L1389.51 1429.27C1391.86 1428.1 1395.15 1427.52 1399.38 1427.52 1402.9 1427.52 1406.09 1427.87 1408.94 1428.56 1411.8 1429.26 1414.52 1430.22 1417.1 1431.45 1419.68 1432.68 1422.2 1434.17 1424.66 1435.9 1427.12 1437.63 1429.81 1439.64 1432.71 1441.95L1429.3 1451.1 1442.37 1451.1 1442.37 1464.55C1442.37 1469.19 1441.78 1473.86 1440.62 1478.56 1439.45 1483.27 1437.68 1487.7 1435.32 1491.85 1432.96 1496.01 1430.02 1499.74 1426.51 1503.04 1423.01 1506.35 1419.33 1508.61 1415.48 1509.82 1417.49 1511.53 1419.13 1513.75 1420.39 1516.5 1421.66 1519.24 1422.63 1522.02 1423.28 1524.84 1423.94 1527.67 1424.35 1530.67 1424.53 1533.86 1424.71 1537.05 1424.8 1540.17 1424.8 1543.22 1424.8 1544.7 1424.79 1546.7 1424.76 1549.23 1424.73 1551.75 1424.72 1555.46 1424.72 1560.33L1407.16 1560.33 1407.16 1578 1381.82 1578C1377.63 1578 1373.83 1577.53 1370.41 1576.58 1366.99 1575.63 1363.79 1574.26 1360.82 1572.48 1357.85 1570.71 1355.08 1568.56 1352.52 1566.06 1349.96 1563.55 1347.98 1561 1346.58 1558.42 1345.23 1561.03 1343.26 1563.59 1340.68 1566.08 1338.1 1568.58 1335.31 1570.7 1332.31 1572.47 1329.31 1574.23 1326.06 1575.59 1322.56 1576.55 1319.06 1577.52 1315.31 1578 1311.31 1578L1286.14 1578 1286.14 1560.33 1268.49 1560.33 1268.49 1540.55C1268.49 1537.63 1268.62 1534.72 1268.88 1531.84 1269.13 1528.95 1269.6 1526.15 1270.27 1523.45 1270.95 1520.75 1271.92 1518.07 1273.2 1515.4 1274.47 1512.73 1275.98 1510.86 1277.73 1509.78 1273.8 1508.61 1270.09 1506.37 1266.58 1503.07 1263.08 1499.76 1260.16 1496.03 1257.83 1491.88 1255.49 1487.72 1253.74 1483.31 1252.58 1478.64 1251.42 1473.96 1250.84 1469.27 1250.84 1464.55L1250.84 1451.1 1263.91 1451.1 1260.5 1441.93C1263.38 1439.63 1266.05 1437.61 1268.51 1435.88 1270.97 1434.15 1273.49 1432.67 1276.06 1431.44 1278.63 1430.21 1281.34 1429.25 1284.19 1428.56 1287.04 1427.87 1290.22 1427.52 1293.74 1427.52 1297.9 1427.52 1301.22 1428.1 1303.7 1429.27L1303.7 1423.31C1303.7 1417.49 1304.68 1412.53 1306.64 1408.41 1308.59 1404.29 1311.18 1400.7 1314.41 1397.65 1317.63 1394.59 1321.29 1391.96 1325.39 1389.74 1329.49 1387.52 1334.19 1385.25 1339.48 1382.94ZM909.697 1297.86C907.407 1298.71 904.12 1299.83 899.833 1301.21 895.547 1302.59 892.044 1304.2 889.325 1306.04 886.605 1307.87 885.245 1309.99 885.245 1312.38 885.245 1313.98 885.925 1315.35 887.284 1316.5 888.643 1317.64 890.265 1318.21 892.152 1318.21 895.115 1318.21 897.7 1317.08 899.909 1314.8 902.118 1312.52 904.067 1309.56 905.754 1305.9 907.442 1302.25 908.756 1299.57 909.697 1297.86ZM913.772 1272.84 905.452 1279.84 894.924 1284.82 904.107 1282.19C907.194 1281.41 910.12 1280.77 912.886 1280.28 913.241 1276.74 913.525 1274.3 913.738 1272.97ZM1147.28 1223.44 1206.13 1223.44C1209.39 1223.44 1211.66 1224.37 1212.94 1226.24 1214.22 1228.11 1214.86 1230.02 1214.86 1231.95 1214.86 1234.08 1214.08 1236.07 1212.52 1237.92 1210.97 1239.77 1208.84 1240.69 1206.13 1240.69L1147.28 1240.69C1144.34 1240.69 1142.16 1239.73 1140.72 1237.81 1139.28 1235.88 1138.56 1233.93 1138.56 1231.95 1138.56 1229.55 1139.38 1227.53 1141.01 1225.89 1142.65 1224.26 1144.74 1223.44 1147.28 1223.44ZM1030.39 1190.48C1026.96 1190.48 1023.68 1190.69 1020.57 1191.12 1017.46 1191.54 1014.35 1192.34 1011.26 1193.52 1001.18 1197.36 993.064 1203.82 986.906 1212.89 980.748 1221.97 977.668 1232.38 977.668 1244.13 977.668 1254.5 980.131 1263.37 985.057 1270.74 989.983 1278.1 996.606 1283.76 1004.92 1287.72 1013.24 1291.67 1022.53 1293.65 1032.78 1293.65 1042.14 1293.65 1050.81 1291.01 1058.78 1285.74 1066.76 1280.46 1073.2 1273.4 1078.12 1264.56 1075.96 1256.84 1074.37 1247.6 1073.35 1236.82 1072.33 1226.05 1071.9 1215.09 1072.04 1203.94 1069.71 1201.39 1066.25 1199.07 1061.67 1196.98 1057.09 1194.89 1052.06 1193.29 1046.58 1192.17 1041.1 1191.04 1035.7 1190.48 1030.39 1190.48ZM869.602 1185.48C860.32 1185.75 852.298 1187.93 845.538 1192.01 838.777 1196.08 833.573 1201.53 829.922 1208.36 826.272 1215.19 824.448 1223.05 824.448 1231.95 824.448 1241.31 826.818 1249.5 831.56 1256.52 836.302 1263.53 842.081 1268.3 848.899 1270.82 855.039 1272.42 860.699 1273.22 865.877 1273.22 875.091 1273.22 884.232 1271.05 893.3 1266.72 902.368 1262.4 909.644 1256.75 915.127 1249.78 915.127 1248.01 914.984 1244.98 914.698 1240.69 914.412 1236.4 914.017 1231.77 913.514 1226.8 913.01 1221.83 912.507 1217.31 912.005 1213.22 911.504 1209.13 911.116 1206.2 910.841 1204.44 908.679 1200.48 905.342 1197.07 900.829 1194.2 896.317 1191.32 891.3 1189.15 885.778 1187.68 880.255 1186.22 874.864 1185.48 869.602 1185.48ZM1723.84 1178.23C1726.44 1178.23 1728.61 1179.01 1730.37 1180.57 1732.12 1182.13 1733 1184.04 1733 1186.31 1733 1187.25 1732.61 1188.76 1731.84 1190.82 1728.49 1199.41 1725.85 1208.12 1723.93 1216.93 1722.02 1225.75 1721.06 1234.16 1721.06 1242.17 1721.06 1251.66 1722.58 1260.09 1725.64 1267.45 1728.69 1274.82 1733.43 1280.52 1739.85 1284.55 1746.27 1288.59 1754.65 1290.4 1764.99 1289.99 1775.19 1289.57 1784.27 1286.17 1792.24 1279.79 1800.21 1273.41 1806.54 1264.49 1811.22 1253.05 1815.91 1241.61 1818.25 1228.56 1818.25 1213.91 1818.25 1211.44 1818.15 1208.86 1817.93 1206.16 1817.72 1203.47 1817.46 1200.7 1817.17 1197.87 1816.88 1194.57 1817.76 1192.32 1819.81 1191.12 1821.86 1189.91 1823.79 1189.31 1825.59 1189.31 1828.46 1189.52 1830.79 1190.42 1832.58 1192.03 1834.38 1193.63 1835.27 1195.71 1835.27 1198.26 1835.27 1204.47 1835.45 1211.12 1835.79 1218.22 1836.14 1225.32 1836.64 1232.84 1837.29 1240.79 1837.94 1248.75 1838.7 1256.44 1839.58 1263.88 1840.45 1271.32 1841.46 1277.83 1842.58 1283.4 1843.71 1288.97 1844.95 1293.11 1846.3 1295.82 1846.77 1296.51 1847 1297.16 1847 1297.77 1847 1298.38 1847 1298.9 1847 1299.34 1847 1302.01 1845.95 1304.06 1843.85 1305.49 1841.74 1306.92 1839.52 1307.64 1837.18 1307.64 1835.62 1307.64 1834.06 1307.2 1832.51 1306.33 1830.96 1305.46 1829.78 1304.01 1828.97 1301.98 1826.66 1296.62 1824.84 1290.69 1823.51 1284.17 1822.18 1277.66 1821.48 1272.15 1821.42 1267.65 1820.27 1274.28 1816.94 1280.61 1811.44 1286.64 1805.94 1292.66 1799.65 1297.49 1792.58 1301.1 1785.5 1304.72 1777.9 1306.75 1769.76 1307.21 1754.52 1307.93 1742.04 1305.47 1732.32 1299.83 1722.6 1294.18 1715.46 1286.22 1710.89 1275.95 1706.32 1265.67 1704.03 1254.13 1704.03 1241.3 1704.03 1232.15 1705.06 1222.72 1707.1 1213 1709.15 1203.27 1712.03 1193.9 1715.76 1184.87 1717.16 1180.44 1719.86 1178.23 1723.84 1178.23ZM1565.14 1178.23C1567.74 1178.23 1569.91 1179.01 1571.67 1180.57 1573.42 1182.13 1574.3 1184.04 1574.3 1186.31 1574.3 1187.25 1573.91 1188.76 1573.14 1190.82 1569.79 1199.41 1567.15 1208.12 1565.23 1216.93 1563.32 1225.75 1562.36 1234.16 1562.36 1242.17 1562.36 1251.66 1563.88 1260.09 1566.94 1267.45 1569.99 1274.82 1574.73 1280.52 1581.15 1284.55 1587.57 1288.59 1595.95 1290.4 1606.29 1289.99 1616.49 1289.57 1625.57 1286.17 1633.54 1279.79 1641.51 1273.41 1647.84 1264.49 1652.52 1253.05 1657.21 1241.61 1659.55 1228.56 1659.55 1213.91 1659.55 1211.44 1659.44 1208.86 1659.23 1206.16 1659.02 1203.47 1658.76 1200.7 1658.47 1197.87 1658.17 1194.57 1659.06 1192.32 1661.11 1191.12 1663.16 1189.91 1665.09 1189.31 1666.89 1189.31 1669.76 1189.52 1672.09 1190.42 1673.88 1192.03 1675.67 1193.63 1676.57 1195.71 1676.57 1198.26 1676.57 1204.47 1676.74 1211.12 1677.09 1218.22 1677.44 1225.32 1677.94 1232.84 1678.59 1240.79 1679.24 1248.75 1680 1256.44 1680.88 1263.88 1681.75 1271.32 1682.75 1277.83 1683.88 1283.4 1685.01 1288.97 1686.25 1293.11 1687.6 1295.82 1688.07 1296.51 1688.3 1297.16 1688.3 1297.77 1688.3 1298.38 1688.3 1298.9 1688.3 1299.34 1688.3 1302.01 1687.25 1304.06 1685.14 1305.49 1683.04 1306.92 1680.82 1307.64 1678.48 1307.64 1676.92 1307.64 1675.36 1307.2 1673.81 1306.33 1672.26 1305.46 1671.08 1304.01 1670.27 1301.98 1667.96 1296.62 1666.14 1290.69 1664.8 1284.17 1663.47 1277.66 1662.78 1272.15 1662.72 1267.65 1661.57 1274.28 1658.24 1280.61 1652.74 1286.64 1647.24 1292.66 1640.95 1297.49 1633.88 1301.1 1626.8 1304.72 1619.2 1306.75 1611.06 1307.21 1595.82 1307.93 1583.34 1305.47 1573.62 1299.83 1563.9 1294.18 1556.76 1286.22 1552.19 1275.95 1547.62 1265.67 1545.33 1254.13 1545.33 1241.3 1545.33 1232.15 1546.36 1222.72 1548.4 1213 1550.45 1203.27 1553.33 1193.9 1557.06 1184.87 1558.46 1180.44 1561.15 1178.23 1565.14 1178.23ZM1029.74 1173.23C1037.73 1173.23 1046.07 1174.3 1054.74 1176.45 1063.42 1178.61 1070.02 1181.44 1074.55 1184.96 1074.84 1183.73 1076.07 1182.84 1078.22 1182.29 1080.38 1181.75 1082.1 1181.72 1083.4 1182.19 1085.57 1182.39 1087.23 1183.37 1088.4 1185.12 1089.56 1186.87 1090.15 1188.56 1090.15 1190.18 1089.98 1194.02 1089.86 1197.27 1089.8 1199.92 1089.74 1202.57 1089.71 1206 1089.71 1210.22 1089.71 1226.46 1090.88 1240.76 1093.22 1253.11 1095.56 1265.47 1100.06 1276.35 1106.71 1285.76 1107.68 1287.22 1108.17 1288.78 1108.17 1290.43 1108.17 1292.85 1107.25 1294.84 1105.4 1296.4 1103.55 1297.95 1101.57 1298.73 1099.44 1298.73 1096.52 1298.73 1094.03 1297.38 1091.96 1294.69 1090.7 1292.92 1089.33 1290.72 1087.85 1288.08 1086.38 1285.44 1085.75 1283.62 1085.97 1282.64 1081.29 1290.6 1074.56 1296.92 1065.76 1301.62 1056.97 1306.33 1047.5 1309.27 1037.36 1310.47 1036.21 1310.61 1034.98 1310.68 1033.67 1310.68 1032.35 1310.68 1031.12 1310.68 1029.96 1310.68 1016.66 1310.68 1004.78 1307.88 994.328 1302.27 983.872 1296.67 975.644 1288.91 969.645 1279 963.645 1269.09 960.645 1257.75 960.645 1245 960.645 1233.14 962.989 1222.19 967.677 1212.13 972.364 1202.08 979.047 1193.68 987.724 1186.94 996.401 1180.2 1006.88 1175.85 1019.15 1173.88 1020.36 1173.76 1022 1173.62 1024.06 1173.46 1026.12 1173.31 1028.01 1173.23 1029.74 1173.23ZM1317.37 1171.27C1326.55 1171.27 1335.41 1172.54 1343.94 1175.09 1352.47 1177.64 1359.79 1181.66 1365.92 1187.16 1367.74 1188.99 1368.66 1191.03 1368.66 1193.26 1368.66 1195.09 1367.78 1197.08 1366.03 1199.22 1364.18 1201.07 1362.07 1202 1359.71 1202 1357.33 1202 1355.28 1201.14 1353.56 1199.42 1350.06 1195.91 1344.76 1193.22 1337.67 1191.34 1330.58 1189.46 1323.31 1188.52 1315.85 1188.52 1310.63 1188.52 1305.61 1188.98 1300.79 1189.89 1295.97 1190.79 1291.82 1192.15 1288.34 1193.97 1278.63 1198.69 1271.16 1205.61 1265.95 1214.72 1260.74 1223.83 1258.13 1233.56 1258.13 1243.91 1258.13 1254.58 1261.16 1264.33 1267.21 1273.17 1273.25 1282.01 1281.75 1288.37 1292.69 1292.25 1299.84 1294.78 1307.12 1296.04 1314.55 1296.04 1321.98 1296.04 1329.2 1294.82 1336.23 1292.39 1343.26 1289.95 1349.35 1286.5 1354.51 1282.03 1356.61 1280.5 1358.63 1279.74 1360.58 1279.74 1363.11 1279.74 1365.32 1280.69 1367.23 1282.6 1368.76 1284.71 1369.53 1286.67 1369.53 1288.47 1369.53 1290.91 1368.6 1292.89 1366.75 1294.41 1359.35 1300.89 1351.19 1305.69 1342.26 1308.82 1333.33 1311.95 1324.17 1313.51 1314.77 1313.51 1306.23 1313.51 1297.53 1312.19 1288.68 1309.54 1278.67 1306.4 1270 1301.49 1262.68 1294.83 1255.36 1288.18 1249.82 1280.46 1246.08 1271.69 1242.33 1262.92 1240.46 1253.66 1240.46 1243.91 1240.46 1233.37 1242.65 1222.97 1247.04 1212.71 1251.42 1202.45 1257.46 1194.25 1265.16 1188.1 1271.95 1182.42 1279.98 1178.19 1289.24 1175.42 1298.5 1172.65 1307.87 1171.27 1317.37 1171.27ZM873.261 1168.44C882.18 1168.44 890.644 1169.96 898.655 1172.98 906.667 1176.01 913.372 1180.37 918.772 1186.05 921.225 1186.05 923.1 1186.75 924.397 1188.15 925.694 1189.55 926.497 1191.1 926.807 1192.8 928.453 1200.29 929.754 1209.41 930.711 1220.18 931.668 1230.94 932.146 1241.38 932.146 1251.52 932.146 1256.86 931.994 1262.19 931.69 1267.51 931.385 1272.83 930.886 1276.69 930.192 1279.09 937.141 1279.09 940.254 1282.18 939.53 1288.37 939.53 1290.51 938.69 1292.38 937.011 1293.96 935.331 1295.55 932.921 1296.34 929.781 1296.34 929.49 1296.19 929.153 1296.12 928.771 1296.12 928.388 1296.12 927.917 1296.12 927.356 1296.12 925.993 1302.19 923.878 1308.29 921.01 1314.41 918.142 1320.54 914.337 1325.5 909.595 1329.31 904.853 1333.12 898.893 1335.03 891.716 1335.03 884.861 1335.03 879.051 1332.72 874.287 1328.09 869.522 1323.47 867.287 1317.54 867.582 1310.32 868.509 1303.68 871.5 1298.33 876.557 1294.28 879.086 1292.26 881.833 1290.47 884.801 1288.92L892.186 1285.88 879.53 1289.25C874.917 1290.06 870.294 1290.47 865.659 1290.47 856.766 1290.47 848.964 1288.95 842.252 1285.9 830.027 1280.96 820.949 1273.49 815.018 1263.49 809.087 1253.5 806.121 1242.77 806.121 1231.3 806.121 1219.07 809.072 1208.24 814.975 1198.81 820.877 1189.39 828.933 1181.97 839.141 1176.56 849.349 1171.15 860.723 1168.44 873.261 1168.44ZM1411.44 1148.43C1412.45 1148.24 1413.44 1148.26 1414.42 1148.49 1416.82 1148.68 1418.78 1149.65 1420.31 1151.4 1421.83 1153.15 1422.42 1155.46 1422.08 1158.32 1421.52 1163.06 1420.95 1168.79 1420.37 1175.51 1419.8 1182.24 1419.26 1189.24 1418.75 1196.51 1418.25 1203.78 1417.86 1210.59 1417.58 1216.93 1417.31 1223.28 1417.17 1228.35 1417.17 1232.13 1419.27 1222.61 1424.86 1214.62 1433.96 1208.15 1443.06 1201.68 1452.49 1198.44 1462.25 1198.44 1478.12 1198.61 1490.89 1201.74 1500.58 1207.83 1510.27 1213.92 1517.5 1222.3 1522.27 1232.98 1527.04 1243.66 1529.43 1255.92 1529.43 1269.78 1529.43 1281.36 1527.9 1292.89 1524.84 1304.37 1523.61 1308.44 1520.92 1310.47 1516.79 1310.47 1514.1 1310.47 1511.83 1309.45 1509.98 1307.42 1508.12 1305.38 1507.49 1303.6 1508.07 1302.06 1510.53 1291.25 1511.76 1281.14 1511.76 1271.73 1511.76 1255.43 1508 1242.34 1500.47 1232.46 1492.95 1222.57 1481.52 1217.49 1466.2 1217.22 1457.85 1217.22 1450.71 1219.47 1444.76 1223.99 1438.82 1228.5 1433.67 1234.87 1429.32 1243.08 1426.34 1249.38 1424.01 1256.05 1422.31 1263.11 1420.62 1270.17 1419.77 1277.54 1419.77 1285.21 1419.77 1287.86 1419.87 1290.42 1420.07 1292.9 1420.28 1295.38 1420.52 1297.97 1420.8 1300.68 1421.13 1303.83 1420.44 1306.22 1418.75 1307.86 1417.05 1309.5 1415.21 1310.51 1413.24 1310.9 1407.83 1310.9 1404.56 1308.37 1403.44 1303.3 1401.98 1296.42 1400.95 1287.79 1400.37 1277.42 1399.79 1267.05 1399.5 1255.95 1399.5 1244.13 1399.5 1233.51 1399.71 1222.77 1400.15 1211.91 1400.59 1201.06 1401.21 1190.74 1402.01 1180.96 1402.81 1171.18 1403.73 1162.64 1404.78 1155.32 1405.1 1152.75 1406.3 1150.85 1408.37 1149.63 1409.41 1149.02 1410.43 1148.61 1411.44 1148.43ZM695.595 1139.97C706.953 1139.97 717.567 1142.59 727.436 1147.83 737.306 1153.07 745.974 1160.09 753.439 1168.9 760.905 1177.7 766.597 1187.36 770.514 1197.87 774.554 1207.82 777.452 1218.18 779.209 1228.95 780.966 1239.72 781.844 1250.72 781.844 1261.95 781.844 1268.32 781.58 1274.86 781.052 1281.57 780.524 1288.28 779.755 1294.83 778.742 1301.21 778.56 1303.74 777.546 1305.59 775.701 1306.76 773.854 1307.93 771.98 1308.51 770.075 1308.51 767.756 1308.51 765.612 1307.59 763.645 1305.75 761.679 1303.91 760.912 1301.59 761.346 1298.81 762.086 1293.08 762.669 1287.4 763.096 1281.77 763.522 1276.15 763.736 1270.55 763.736 1264.99 763.736 1254.09 762.871 1243.34 761.143 1232.75 759.415 1222.16 756.686 1212.48 752.955 1203.72 749.469 1195.07 744.776 1187.29 738.876 1180.4 732.975 1173.51 726.284 1168.07 718.8 1164.08 711.317 1160.09 703.293 1158.09 694.727 1158.09 686.406 1158.09 678.78 1159.93 671.849 1163.61 664.918 1167.28 658.732 1172.38 653.289 1178.89 647.846 1185.4 643.244 1192.81 639.481 1201.12 635.718 1209.44 632.94 1217.31 631.145 1224.75L747.708 1224.75C750.789 1224.75 753.014 1225.67 754.384 1227.53 755.753 1229.39 756.438 1231.3 756.438 1233.26 756.438 1235.38 755.66 1237.37 754.104 1239.22 752.547 1241.07 750.416 1242 747.708 1242L628.728 1242C628.569 1243.4 628.39 1245.57 628.19 1248.5 627.991 1251.43 627.891 1254.83 627.891 1258.69 627.891 1265.83 628.172 1272.92 628.733 1279.95 629.295 1286.98 629.938 1293.1 630.661 1298.31 630.984 1301.62 630.193 1304.14 628.287 1305.89 626.382 1307.64 624.353 1308.51 622.202 1308.51 620.101 1308.51 618.217 1307.87 616.549 1306.59 614.881 1305.32 613.874 1303.64 613.528 1301.55 612.495 1294.48 611.649 1287.45 610.99 1280.49 610.33 1273.52 610 1266.62 610 1259.78 610 1248.85 610.869 1238.27 612.608 1228.05 614.346 1217.83 617.238 1207.38 621.282 1196.7 625.492 1186.11 631.298 1176.47 638.699 1167.8 646.1 1159.13 654.628 1152.33 664.282 1147.38 673.936 1142.44 684.374 1139.97 695.595 1139.97ZM1328.62 994.414C1330.29 994.414 1332.28 994.921 1334.61 995.935 1336.93 996.949 1339.32 998.153 1341.78 999.546 1344.23 1000.94 1346.49 1002.28 1348.53 1003.57 1350.58 1004.87 1352.07 1005.79 1353 1006.33L1382.48 1006.33C1384.2 1006.33 1385.68 1006.95 1386.91 1008.18 1388.14 1009.41 1388.76 1010.86 1388.76 1012.53 1388.76 1014.21 1388.15 1015.67 1386.92 1016.89 1385.7 1018.12 1384.22 1018.73 1382.48 1018.73L1365.12 1018.73 1379.07 1030.33 1406.37 1030.33C1408.12 1030.33 1409.6 1030.92 1410.82 1032.1 1412.04 1033.28 1412.65 1034.73 1412.65 1036.45 1412.65 1038.18 1412.05 1039.65 1410.86 1040.85 1409.66 1042.05 1408.17 1042.64 1406.37 1042.64L1389.09 1042.64 1410.79 1062.08C1412.03 1063.32 1412.65 1064.78 1412.65 1066.44 1412.65 1068.13 1412.04 1069.58 1410.82 1070.81 1409.59 1072.03 1408.11 1072.64 1406.37 1072.64 1404.66 1072.64 1403.2 1072.04 1401.99 1070.83L1382.77 1049.06 1382.77 1066.44C1382.77 1068.13 1382.15 1069.58 1380.93 1070.81 1379.71 1072.03 1378.23 1072.64 1376.49 1072.64 1374.77 1072.64 1373.31 1072.04 1372.1 1070.83 1370.9 1069.62 1370.29 1068.16 1370.29 1066.44L1370.29 1039.11 1358.79 1025.06 1358.79 1042.45C1358.79 1044.18 1358.19 1045.65 1357 1046.85 1355.8 1048.05 1354.31 1048.64 1352.51 1048.64 1350.75 1048.64 1349.29 1048.05 1348.14 1046.85 1346.98 1045.66 1346.4 1044.19 1346.4 1042.45L1346.4 1016.8C1343.76 1014.71 1340.7 1012.81 1337.22 1011.12 1333.75 1009.42 1330.22 1007.85 1326.65 1006.4 1325.31 1005.81 1324.27 1005.06 1323.53 1004.17 1322.8 1003.28 1322.43 1002.07 1322.43 1000.53 1322.43 998.781 1323.03 997.324 1324.23 996.16 1325.43 994.996 1326.9 994.414 1328.62 994.414ZM1192.35 969.565 1104.77 1059.04 1110.41 1064.74 1180.51 993.751C1184.04 990.225 1186.81 986.259 1188.84 981.854 1190.87 977.448 1192.04 973.352 1192.35 969.565ZM1286.34 966.314C1285.25 966.314 1284.28 966.729 1283.45 967.56 1282.62 968.391 1282.21 969.382 1282.21 970.531 1282.21 971.189 1282.54 972.196 1283.21 973.551 1283.87 974.907 1284.72 976.384 1285.76 977.983 1286.8 979.583 1288.06 981.374 1289.54 983.356 1291.02 985.339 1292.32 987.03 1293.44 988.43 1294.56 989.83 1295.8 991.333 1297.15 992.939 1298.49 994.546 1299.62 995.838 1300.52 996.817L1300.52 1006.61C1300.52 1013.12 1301.36 1019.35 1303.03 1025.28 1304.7 1031.22 1307.06 1036.8 1310.1 1042.02 1313.14 1047.24 1316.79 1051.98 1321.04 1056.24 1325.29 1060.49 1330.02 1064.14 1335.22 1067.18 1340.43 1070.22 1345.99 1072.57 1351.91 1074.24 1357.82 1075.91 1364.02 1076.74 1370.5 1076.74L1428.56 1076.74 1428.56 1060.53C1428.56 1054.11 1427.72 1047.92 1426.05 1041.95 1424.37 1035.98 1422.01 1030.39 1418.97 1025.17 1415.93 1019.96 1412.28 1015.22 1408.02 1010.96 1403.77 1006.7 1399.04 1003.05 1393.83 1000.01 1388.61 996.965 1383.03 994.602 1377.07 992.92 1371.11 991.238 1364.92 990.397 1358.51 990.397L1306.05 990.397C1303.51 987.594 1301.28 984.96 1299.34 982.496 1297.4 980.032 1295.58 977.428 1293.87 974.684 1293.2 973.585 1292.58 972.522 1292.01 971.494 1291.44 970.465 1290.85 969.55 1290.23 968.747 1289.51 967.836 1288.92 967.203 1288.46 966.848 1287.99 966.492 1287.28 966.314 1286.34 966.314ZM1189.86 949.232 1092.87 1047.05 1099.85 1054.16 1192.27 960.87C1191.96 956.851 1191.15 952.972 1189.86 949.232ZM1314.72 944.648C1313.96 944.648 1313.32 944.911 1312.8 945.436 1312.27 945.961 1312.01 946.632 1312.01 947.448 1312.01 947.911 1312.15 948.612 1312.43 949.551 1313.1 951.199 1314.2 953.252 1315.73 955.709 1317.26 958.166 1318.93 960.582 1320.74 962.957 1322.55 965.331 1324.45 967.62 1326.43 969.823 1328.41 972.026 1330.06 973.723 1331.38 974.914L1342.58 974.914C1338.8 973.313 1335.17 970.706 1331.7 967.093 1328.23 963.479 1325.06 959.38 1322.18 954.795 1321.27 953.347 1320.44 951.922 1319.72 950.523 1318.99 949.123 1318.24 947.835 1317.45 946.657 1316.85 945.812 1316.4 945.265 1316.09 945.018 1315.78 944.771 1315.32 944.648 1314.72 944.648ZM1180.46 935.399 1080.88 1035.05 1087.86 1042.16 1186.53 943.108C1185.64 942.132 1184.57 940.838 1183.3 939.227 1182.03 937.615 1181.09 936.34 1180.46 935.399ZM1124.71 934.988 1121.89 937.385C1120.18 938.991 1118.41 940.765 1116.59 942.707 1114.77 944.649 1112.71 946.518 1110.41 948.314L1103 940.899 1044.92 999.127 1051.98 1006.25ZM1090.29 929.981 1034.01 986.393C1034.94 987.505 1036.04 988.808 1037.32 990.301 1038.59 991.794 1039.5 993.109 1040.05 994.246L1098.12 936.045C1096.96 935.371 1095.61 934.419 1094.06 933.19 1092.51 931.959 1091.26 930.89 1090.29 929.981ZM1289.83 928.399C1289.15 928.399 1288.52 928.662 1287.96 929.189 1287.4 929.717 1287.12 930.359 1287.12 931.115 1287.12 931.273 1287.13 931.398 1287.14 931.489 1287.16 931.58 1287.16 931.586 1287.14 931.507 1289.07 939.767 1291.76 947.565 1295.19 954.898 1298.62 962.232 1302.65 968.904 1307.28 974.914L1316.35 974.914C1312.17 971.657 1308.27 967.042 1304.67 961.067 1301.07 955.092 1298.3 949.199 1296.36 943.389 1295.51 940.75 1294.88 938.429 1294.47 936.423 1294.07 934.417 1293.48 932.591 1292.71 930.943 1292.35 930.191 1291.95 929.578 1291.5 929.106 1291.04 928.635 1290.49 928.399 1289.83 928.399ZM1165.75 926.566 1068.89 1023.12 1075.94 1030.16 1175.12 931.081C1173.93 930.666 1172.4 929.962 1170.55 928.968 1168.7 927.975 1167.1 927.174 1165.75 926.566ZM1063.5 924.566C1059.84 924.991 1055.89 926.223 1051.63 928.262 1047.37 930.301 1043.59 932.97 1040.29 936.269 1037 939.568 1034.33 943.358 1032.28 947.638 1030.24 951.919 1029.01 955.9 1028.6 959.581ZM1072.34 924.482 1028.52 968.384C1028.71 972.536 1029.45 976.463 1030.73 980.165L1084.06 926.751C1080.33 925.449 1076.43 924.693 1072.34 924.482ZM1151.77 924.315C1150.31 924.315 1148.82 924.411 1147.3 924.605 1145.79 924.799 1144.47 925.014 1143.37 925.251L1056.91 1011.12 1063.96 1018.16 1158.56 924.566C1156.59 924.399 1154.32 924.315 1151.77 924.315ZM1267.36 912.483C1266.57 912.483 1265.92 912.73 1265.41 913.224 1264.9 913.718 1264.65 914.376 1264.65 915.2 1264.65 916.59 1264.77 918.268 1265.03 920.235 1265.28 922.202 1265.64 924.479 1266.1 927.065 1266.56 929.652 1267.11 932.352 1267.76 935.165 1268.4 937.978 1269.03 940.454 1269.65 942.593 1270.27 944.731 1270.94 946.799 1271.66 948.795 1272.38 950.79 1273.05 952.353 1273.66 953.484 1274 954.127 1274.38 954.595 1274.79 954.89 1275.2 955.184 1275.69 955.331 1276.26 955.331 1277.04 955.331 1277.69 955.066 1278.24 954.537 1278.79 954.007 1279.06 953.366 1279.06 952.615 1279.06 952.452 1279.04 952.278 1279.01 952.093 1278.98 951.908 1278.9 951.658 1278.77 951.342 1277.45 947.599 1276.24 943.858 1275.13 940.121 1274.02 936.383 1273.07 932.496 1272.26 928.461 1271.8 926.151 1271.45 923.907 1271.2 921.732 1270.96 919.557 1270.59 917.401 1270.1 915.265 1269.89 914.368 1269.57 913.68 1269.14 913.201 1268.71 912.722 1268.12 912.483 1267.36 912.483ZM1068.94 908.999C1073.38 908.999 1077.53 909.445 1081.41 910.337 1085.29 911.228 1088.97 912.509 1092.45 914.179 1095.93 915.849 1099.26 917.903 1102.43 920.339 1105.61 922.776 1108.27 925.329 1110.41 927.999 1112.63 925.253 1115.28 922.682 1118.38 920.288 1121.47 917.895 1124.78 915.859 1128.31 914.181 1131.83 912.503 1135.52 911.221 1139.39 910.332 1143.26 909.444 1147.41 908.999 1151.85 908.999 1159.56 908.999 1166.83 910.484 1173.65 913.453 1180.48 916.422 1186.41 920.434 1191.46 925.488 1196.51 930.542 1200.51 936.475 1203.47 943.287 1206.43 950.098 1207.91 957.347 1207.91 965.031 1207.91 972.526 1206.5 979.669 1203.7 986.46 1200.89 993.251 1196.82 999.32 1191.48 1004.67L1110.41 1085.06 1029.34 1004.67C1024.02 999.341 1019.96 993.291 1017.17 986.517 1014.37 979.742 1012.97 972.58 1012.97 965.031 1012.97 959.856 1013.64 954.878 1014.98 950.096 1016.33 945.314 1018.2 940.864 1020.6 936.748 1023 932.631 1025.91 928.855 1029.34 925.419 1032.78 921.984 1036.55 919.066 1040.66 916.665 1044.77 914.264 1049.23 912.386 1054.04 911.031 1058.85 909.677 1063.82 908.999 1068.94 908.999ZM1266.36 897C1269.28 897 1271.91 897.467 1274.24 898.4 1276.57 899.334 1278.54 900.633 1280.14 902.297 1281.74 903.961 1283.01 905.927 1283.93 908.193 1284.85 910.46 1285.38 912.451 1285.51 914.167 1286.17 913.389 1287.61 912.999 1289.83 912.999 1294.58 912.999 1298.34 914.279 1301.11 916.838 1303.88 919.397 1306.04 922.801 1307.57 927.048 1307.82 927.826 1308.05 928.66 1308.27 929.549 1308.49 930.438 1308.54 930.921 1308.41 930.999 1309.85 929.777 1311.96 929.166 1314.72 929.166 1318.61 929.166 1321.8 930.06 1324.29 931.847 1326.79 933.634 1328.79 935.795 1330.32 938.332 1331.73 940.508 1332.92 942.482 1333.89 944.253 1334.86 946.025 1335.98 947.863 1337.23 949.768 1338.81 952.021 1340.7 954.3 1342.92 956.603 1345.14 958.907 1347.5 961.15 1349.98 963.334 1352.47 965.517 1354.99 967.596 1357.53 969.573 1360.07 971.549 1362.49 973.435 1364.78 975.231 1371.89 975.717 1378.86 977.12 1385.68 979.443 1392.5 981.766 1398.87 984.844 1404.8 988.678 1410.73 992.513 1416.11 996.997 1420.92 1002.13 1425.74 1007.26 1429.86 1012.9 1433.28 1019.04 1436.7 1025.18 1439.34 1031.77 1441.22 1038.79 1443.09 1045.82 1444.03 1053.04 1444.03 1060.44L1444.03 1092.06 1370.5 1092.06C1362.59 1092.06 1355 1091.04 1347.72 1089 1340.45 1086.96 1333.66 1084.09 1327.35 1080.38 1321.05 1076.67 1315.3 1072.21 1310.09 1067 1304.88 1061.79 1300.43 1056.03 1296.72 1049.71 1293.02 1043.4 1290.15 1036.61 1288.11 1029.33 1286.07 1022.04 1285.05 1014.45 1285.05 1006.53L1285.05 1002.61C1280.04 996.944 1275.47 990.705 1271.37 983.892 1267.26 977.08 1263.71 970.018 1260.72 962.706 1257.72 955.394 1255.28 947.899 1253.38 940.221 1251.48 932.543 1250.11 924.756 1249.27 916.86 1249.21 916.561 1249.18 916.251 1249.18 915.93 1249.18 915.61 1249.18 915.31 1249.18 915.033 1249.18 912.762 1249.64 910.539 1250.56 908.363 1251.47 906.187 1252.71 904.259 1254.27 902.578 1255.83 900.897 1257.64 899.547 1259.7 898.528 1261.77 897.51 1263.99 897 1266.36 897Z" fill="#FFFFFF" fill-rule="evenodd"/>
    <path d="M2087.86 1114 2200 1225.68 2312.14 1114 2324 1125.82 2211.86 1237.5 2324 1349.18 2312.14 1361 2200 1249.32 2087.86 1361 2076 1349.18 2188.14 1237.5 2076 1125.82Z" fill="#FFFFFF" fill-rule="evenodd"/>
    <path d="M3201.77 1391.79 3209.13 1396.7C3201.91 1403.67 3194.95 1409.26 3188.27 1413.5L3180.91 1407.35C3188.82 1402.71 3195.77 1397.52 3201.77 1391.79ZM3245.95 1390.97C3251.68 1396.43 3258.9 1401.75 3267.63 1406.94L3260.67 1413.9C3252.22 1408.79 3244.86 1402.78 3238.59 1395.88ZM2969.42 1379.5 2977.61 1380.73C2977.54 1389.6 2976.45 1398.61 2974.33 1407.76L2966.15 1403.67C2968.13 1396.16 2969.22 1388.1 2969.42 1379.5ZM3000.1 1378.68C3000.92 1384.9 3002.29 1391.04 3004.19 1397.11L2996.42 1401.62C2994.45 1395.34 2993.08 1388.51 2992.33 1381.14ZM3005.42 1373.77 3060.64 1373.77 3060.64 1382.78 3029.56 1382.78C3026.83 1390.83 3024.1 1397.8 3021.38 1403.67 3028.4 1402.57 3035.76 1401.21 3043.46 1399.57 3041.96 1396.84 3040.06 1393.84 3037.74 1390.56L3045.92 1386.06C3051.51 1393.56 3056.55 1402.03 3061.05 1411.45L3052.87 1415.95C3051.3 1412.74 3049.67 1409.74 3047.96 1406.94 3034.6 1410.22 3020.69 1412.95 3006.24 1415.13L3002.15 1406.12C3005.49 1405.71 3008.63 1405.3 3011.56 1404.89 3014.56 1397.93 3017.15 1390.56 3019.33 1382.78L3005.42 1382.78ZM3301.89 1365.58C3300.73 1368.17 3299.6 1370.36 3298.51 1372.13 3303.15 1375.27 3307.34 1378.92 3311.09 1383.09 3313.96 1378.38 3316.21 1372.54 3317.84 1365.58ZM3331.03 1355.34 3369.89 1355.34 3369.89 1381.96C3369.89 1388.24 3366.49 1391.38 3359.67 1391.38L3349.44 1391.38 3346.58 1381.96 3357.62 1381.96C3359.26 1381.96 3360.08 1381.28 3360.08 1379.91L3360.08 1364.35 3340.85 1364.35 3340.85 1402.03C3340.85 1404.76 3342.49 1406.12 3345.76 1406.12L3360.08 1406.12C3364.24 1406.12 3366.55 1404.62 3367.03 1401.62L3368.67 1390.97 3377.26 1396.29 3375.62 1406.12C3374.6 1412.13 3370.23 1415.13 3362.53 1415.13L3343.31 1415.13C3335.12 1415.13 3331.03 1411.58 3331.03 1404.48ZM3298.62 1348.79 3307.92 1349.61C3307.17 1351.99 3306.42 1354.32 3305.67 1356.57L3323.26 1356.57 3328.17 1363.12C3322.99 1388.38 3309.9 1406.26 3288.9 1416.77L3282.35 1408.58C3291.49 1404.62 3299.4 1398.61 3306.08 1390.56 3302.26 1386.19 3298.31 1382.47 3294.22 1379.4 3291.49 1383.29 3288.93 1386.53 3286.55 1389.13L3280.31 1381.96C3289.17 1372.06 3295.27 1361 3298.62 1348.79ZM3030.78 1333.63C3026.97 1342.37 3022.81 1349.47 3018.31 1354.93L3045.92 1354.93C3039.78 1348.24 3034.74 1341.14 3030.78 1333.63ZM3025.06 1321.76 3036.1 1321.76C3042.24 1336.36 3051.37 1348.1 3063.51 1356.98L3057.78 1364.76C3053.96 1362.44 3050.42 1359.57 3047.15 1356.16L3047.15 1363.94 3016.47 1363.94 3016.47 1356.98C3013.67 1360.25 3010.77 1363.09 3007.77 1365.48L3001.33 1357.8C3012.51 1348.79 3020.42 1336.77 3025.06 1321.76ZM3230.81 1321.35 3240.22 1321.35 3240.22 1332.81C3246.9 1331.24 3253.31 1329.06 3259.45 1326.26L3264.36 1333.63C3257.27 1336.7 3249.22 1339.3 3240.22 1341.41L3240.22 1344.69C3240.22 1347.42 3241.59 1348.79 3244.31 1348.79L3256.58 1348.79C3259.79 1348.79 3261.83 1347.28 3262.72 1344.28L3263.95 1339.37 3271.72 1344.69 3270.49 1349.61C3269.2 1354.79 3264.97 1357.39 3257.81 1357.39L3243.09 1357.39C3234.9 1357.39 3230.81 1353.56 3230.81 1345.92ZM3203 1321.35 3212 1321.35 3212 1331.18 3225.9 1331.18 3225.9 1339.78 3212 1339.78 3212 1346.74C3217.31 1346.06 3222.5 1345.24 3227.54 1344.28L3227.54 1352.88 3222.63 1353.7 3227.95 1356.98C3222.77 1362.1 3217.86 1366.6 3213.22 1370.49L3218.13 1374.59C3224.68 1369.06 3231.22 1363.33 3237.77 1357.39L3245.95 1362.3C3236.95 1370.08 3229.72 1375.95 3224.27 1379.91 3232.31 1379.37 3240.22 1378.68 3247.99 1377.86 3246.63 1376.64 3244.59 1375 3241.86 1372.95L3248.81 1367.63C3256.45 1373.22 3262.99 1379.5 3268.45 1386.46L3261.08 1391.79C3258.77 1388.92 3256.72 1386.6 3254.95 1384.83 3245.95 1386.06 3237.22 1387.01 3228.77 1387.69L3228.77 1417.18 3218.95 1417.18 3218.95 1388.92C3206.68 1389.74 3194.54 1390.56 3182.54 1391.38L3178.45 1381.55C3188.95 1381.41 3200.13 1381.14 3212 1380.73 3207.91 1376.91 3202.32 1372.54 3195.23 1367.63L3201.36 1361.48C3203.27 1362.71 3205.18 1364.08 3207.09 1365.58 3211.18 1362.03 3215 1358.21 3218.54 1354.11 3208.18 1356.02 3194.82 1358.07 3178.45 1360.25L3177.23 1351.24 3187.04 1350.01 3187.04 1327.49 3196.04 1327.49 3196.04 1348.79 3203 1347.97ZM3309.35 1320.94 3319.58 1320.94 3319.58 1331.59 3339.21 1331.59 3339.21 1320.94 3349.44 1320.94 3349.44 1331.59 3377.67 1331.59 3377.67 1340.6 3349.44 1340.6 3349.44 1350.83 3339.21 1350.83 3339.21 1340.6 3319.58 1340.6 3319.58 1350.83 3309.35 1350.83 3309.35 1340.6 3281.13 1340.6 3281.13 1331.59 3309.35 1331.59ZM3103.19 1320.94C3106.19 1325.31 3108.91 1329.54 3111.37 1333.63L3128.14 1333.63C3130.87 1329.67 3133.32 1325.44 3135.5 1320.94L3145.32 1324.21C3143.27 1327.69 3141.23 1330.83 3139.18 1333.63L3163.73 1333.63 3163.73 1342.23 3124.46 1342.23 3124.46 1348.79 3158.41 1348.79 3158.41 1357.39 3124.46 1357.39 3124.46 1364.35 3165.77 1364.35 3165.77 1372.95 3124.46 1372.95 3124.46 1380.32 3164.55 1380.32 3164.55 1388.92 3128.55 1388.92C3136.18 1397.8 3149 1404.48 3167 1408.99L3159.64 1417.18C3142.73 1412.81 3129.5 1405.17 3119.96 1394.25 3110.21 1405.1 3096.57 1413.02 3079.05 1418L3072.51 1409.4C3090.64 1404.48 3103.46 1397.66 3110.96 1388.92L3075.78 1388.92 3075.78 1380.32 3114.64 1380.32 3114.64 1372.95 3072.92 1372.95 3072.92 1364.35 3114.64 1364.35 3114.64 1357.39 3081.1 1357.39 3081.1 1348.79 3114.64 1348.79 3114.64 1342.23 3075.78 1342.23 3075.78 1333.63 3099.91 1333.63C3098.55 1331.24 3096.64 1328.24 3094.19 1324.62ZM2984.97 1320.94 2992.74 1325.44C2988.38 1334.32 2983.88 1341.96 2979.24 1348.38 2980.81 1350.15 2982.17 1352.06 2983.33 1354.11 2987.42 1348.79 2991.24 1343.19 2994.79 1337.32L3002.15 1341.82C2997.1 1349.33 2991.38 1356.98 2984.97 1364.76 2987.49 1364.55 2989.95 1364.28 2992.33 1363.94 2991.79 1362.37 2991.1 1360.87 2990.29 1359.43L2997.24 1355.34C3000.1 1360.53 3002.42 1366.12 3004.19 1372.13L2996.42 1376.64C2995.88 1374.45 2995.33 1372.54 2994.79 1370.9 2993.29 1371.18 2991.65 1371.45 2989.88 1371.72L2989.88 1417.18 2980.47 1417.18 2980.47 1373.36C2975.9 1374.04 2971.67 1374.59 2967.79 1375L2965.33 1365.99C2968.47 1365.85 2971.47 1365.71 2974.33 1365.58 2975.56 1364.14 2976.65 1362.78 2977.61 1361.48 2974.33 1356.43 2970.51 1351.24 2966.15 1345.92L2971.88 1338.96 2973.92 1341.82C2978.01 1335.68 2981.7 1328.72 2984.97 1320.94ZM3778.07 1249.44C3779.06 1249.44 3779.82 1249.53 3780.35 1249.71 3784.1 1249.71 3786.65 1250.47 3787.99 1251.99 3789.33 1253.51 3790 1255.52 3790 1258.03 3790 1260.53 3789.46 1262.41 3788.39 1263.66 3787.32 1264.91 3785.98 1265.81 3784.37 1266.34 3781.69 1267.24 3778.03 1267.68 3773.38 1267.68 3769.27 1267.33 3767.22 1265.54 3767.22 1262.32 3767.22 1258.38 3769.45 1254.72 3773.92 1251.32 3775.71 1250.07 3777.09 1249.44 3778.07 1249.44ZM3568.65 1161.7C3561.69 1162.95 3554.67 1164.29 3547.62 1165.72 3540.56 1167.15 3533.9 1169.93 3527.65 1174.04 3514.07 1182.81 3505.23 1199.08 3501.12 1222.88 3501.12 1233.97 3504.07 1241.48 3509.96 1245.41 3514.43 1248.28 3521.93 1249.71 3532.47 1249.71 3543.02 1249.71 3552.31 1248.9 3560.35 1247.29 3568.39 1245.68 3575.53 1242.91 3581.79 1238.97 3595.19 1230.39 3601.89 1217.06 3601.89 1199 3601.89 1188.26 3599.03 1179.5 3593.31 1172.7 3587.06 1165.37 3578.84 1161.7 3568.65 1161.7ZM3562.22 1146.94C3563.29 1146.94 3565.8 1146.94 3569.73 1146.94 3573.66 1146.94 3578.93 1148.1 3585.54 1150.43 3600.19 1155.44 3610.19 1164.29 3615.55 1176.99 3617.7 1182 3618.77 1186.25 3618.77 1189.74 3618.77 1193.23 3618.68 1195.69 3618.5 1197.12 3618.5 1219.48 3610.01 1237.1 3593.04 1249.98 3577.32 1261.78 3557.67 1267.68 3534.08 1267.68 3517.11 1267.68 3504.29 1263.75 3495.62 1255.88 3486.96 1248.01 3482.63 1234.86 3482.63 1216.44 3482.63 1195.33 3491.74 1178.34 3509.96 1165.46 3524.43 1155.26 3541.85 1149.09 3562.22 1146.94ZM2727.48 1144.26C2729.26 1144.26 2730.65 1147.48 2731.63 1153.92 2732.61 1160.36 2733.33 1165.37 2733.78 1168.94 2734.22 1172.52 2734.62 1175.12 2734.98 1176.73 2739.63 1168.32 2748.83 1161.7 2762.59 1156.87 2769.91 1154.54 2776.79 1153.38 2783.22 1153.38 2789.65 1153.38 2795.33 1154.14 2800.24 1155.66 2805.15 1157.18 2809.35 1159.96 2812.84 1163.98 2816.32 1168 2818.06 1173.33 2818.06 1179.94 2822.71 1171.18 2833.16 1163.31 2849.42 1156.33 2864.25 1149.71 2877.56 1146.41 2889.35 1146.41 2906.32 1146.41 2914.63 1152.85 2914.27 1165.72L2919.9 1265.54C2919.9 1266.43 2917.31 1267.06 2912.13 1267.42 2902.12 1268.13 2897.12 1267.24 2897.12 1264.73 2896.94 1261.16 2896.85 1257.58 2896.85 1254L2898.19 1210.8C2898.19 1190.59 2896.23 1174.58 2892.3 1162.77 2880.5 1163.67 2871.44 1165.59 2865.09 1168.54 2858.75 1171.49 2853.17 1175.16 2848.34 1179.54 2843.52 1183.92 2839.23 1189.78 2835.48 1197.12 2827.08 1213.57 2822.89 1235.4 2822.89 1262.59 2821.81 1266.34 2818.33 1268.22 2812.43 1268.22 2808.5 1268.22 2805.29 1267.55 2802.79 1266.21 2800.28 1264.87 2799.3 1263.66 2799.84 1262.59 2803.23 1243.63 2804.93 1228.87 2804.93 1218.31 2804.93 1209.91 2804.08 1201.9 2802.38 1194.3 2800.69 1186.7 2798.59 1177.98 2796.09 1168.14 2770.36 1168.14 2753.03 1178.42 2744.09 1199 2740.16 1208.12 2737.97 1216.66 2737.53 1224.62 2737.08 1232.58 2736.86 1239.38 2736.86 1245.01 2736.86 1250.65 2737.13 1256.68 2737.66 1263.12 2730.34 1266.16 2725.47 1267.68 2723.06 1267.68 2720.64 1267.68 2718.99 1267.42 2718.1 1266.88 2717.21 1266.34 2716.22 1265.09 2715.15 1263.12 2715.15 1257.22 2715.37 1249.8 2715.82 1240.85 2716.27 1231.91 2716.67 1222.34 2717.03 1212.14 2717.38 1201.95 2717.56 1191.66 2717.56 1181.29 2717.56 1170.91 2717.03 1161.43 2715.95 1152.85 2715.95 1147.12 2719.8 1144.26 2727.48 1144.26ZM3441.91 1141.31 3458.79 1141.31C3461.12 1174.76 3463.08 1213.48 3464.69 1257.49 3463.62 1263.03 3459.33 1265.81 3451.82 1265.81 3449.86 1265.81 3447.85 1265.4 3445.79 1264.6 3443.74 1263.79 3442.44 1262.68 3441.91 1261.25ZM2977.35 1141.31 2994.24 1141.31C2996.56 1174.76 2998.52 1213.48 3000.13 1257.49 2999.06 1263.03 2994.77 1265.81 2987.27 1265.81 2985.3 1265.81 2983.29 1265.4 2981.24 1264.6 2979.18 1263.79 2977.89 1262.68 2977.35 1261.25ZM2936.1 1141.31 2952.98 1141.31C2955.31 1174.76 2957.27 1213.48 2958.88 1257.49 2957.81 1263.03 2953.52 1265.81 2946.01 1265.81 2944.05 1265.81 2942.04 1265.4 2939.98 1264.6 2937.93 1263.79 2936.63 1262.68 2936.1 1261.25ZM3647.06 1133.53C3651.53 1133.53 3653.76 1138.8 3653.76 1149.36 3653.76 1153.47 3653.54 1157.45 3653.09 1161.3 3652.65 1165.14 3652.42 1167.78 3652.42 1169.21 3681.37 1147.93 3703.79 1137.28 3719.69 1137.28 3737.74 1137.28 3748.01 1151.86 3750.51 1181.02 3751.58 1191.21 3752.12 1205.35 3752.12 1223.41L3751.85 1244.61C3751.85 1252.48 3752.03 1260.08 3752.39 1267.42 3750.6 1268.49 3749.17 1269.03 3748.1 1269.03 3747.56 1268.85 3746.4 1268.58 3744.62 1268.22 3742.83 1267.86 3740.51 1267.6 3737.65 1267.42 3735.86 1260.26 3734.88 1252.97 3734.7 1245.55 3734.52 1238.12 3734.43 1231.28 3734.43 1225.02L3734.7 1208.66C3734.7 1187.37 3733.54 1171.72 3731.22 1161.7 3732.64 1159.02 3730.5 1157.67 3724.78 1157.67 3718.71 1157.67 3710.85 1159.2 3701.2 1162.24 3691.55 1165.28 3683.69 1168.32 3677.62 1171.36 3663.14 1178.34 3655.1 1185.13 3653.5 1191.75L3653.5 1264.73 3635.54 1264.73C3633.22 1258.65 3632.06 1241.57 3632.06 1213.48 3632.06 1188.44 3632.55 1170.02 3633.53 1158.21 3634.51 1146.41 3635.27 1139.7 3635.81 1138.09 3640.45 1135.05 3644.21 1133.53 3647.06 1133.53ZM3248.8 1104.28C3249.88 1104.64 3251.53 1104.95 3253.76 1105.22 3256 1105.49 3258.27 1105.89 3260.6 1106.43 3266.13 1107.68 3268.46 1110 3267.56 1113.4 3267.56 1119.48 3255.95 1124.31 3232.72 1127.89 3202.71 1132.36 3183.99 1136.12 3176.58 1139.16 3169.16 1142.2 3163.8 1145.33 3160.5 1148.55 3157.19 1151.77 3155.45 1155.62 3155.27 1160.09 3155.27 1160.98 3157.33 1161.97 3161.44 1163.04 3165.55 1164.11 3170.46 1165.41 3176.18 1166.93 3181.89 1168.45 3189.31 1170.46 3198.42 1172.97 3220.57 1179.05 3247.73 1186.74 3279.89 1196.04 3281.68 1199.98 3282.57 1203.65 3282.57 1207.04 3282.57 1216.53 3277.03 1225.65 3265.96 1234.41 3253.45 1244.25 3236.12 1252.57 3213.96 1259.37 3195.56 1264.91 3180.91 1267.68 3170.01 1267.68 3160.9 1267.68 3152.24 1266.07 3144.02 1262.85 3135.8 1259.64 3129.63 1256.51 3125.53 1253.46 3121.42 1250.42 3119.36 1247.25 3119.36 1243.94 3119.36 1240.63 3120.75 1237.68 3123.52 1235.08 3126.28 1232.49 3128.43 1230.7 3129.95 1229.72 3131.47 1228.73 3132.49 1227.97 3133.03 1227.44 3133.92 1243.71 3144.91 1251.85 3165.99 1251.85 3182.61 1251.85 3201.99 1246.67 3224.15 1236.29 3239.87 1229.14 3250.41 1221.8 3255.77 1214.29 3257.56 1211.96 3258.45 1210.04 3258.45 1208.52 3258.45 1207 3258.18 1205.79 3257.65 1204.9L3146.43 1179.94C3143.21 1179.23 3140.09 1177.71 3137.05 1175.38 3131.51 1171.45 3128.74 1167.87 3128.74 1164.65 3128.74 1152.31 3137.5 1141.13 3155 1131.11 3174.3 1120.2 3200.12 1111.97 3232.46 1106.43 3239.78 1105.17 3245.23 1104.46 3248.8 1104.28ZM2922.94 1097.13C2922.84 1097.13 2922.75 1097.14 2922.64 1097.19 2922.24 1097.36 2922.29 1097.76 2922.27 1098.11 2922.2 1100.02 2921.91 1101.91 2921.62 1103.97 2921.13 1106.7 2920.49 1109.4 2919.61 1112.04 2919.03 1113.76 2918.29 1115.42 2917.69 1117.14 2917.24 1118.4 2917.45 1118.66 2918.74 1118.77 2920.59 1118.93 2922.42 1118.81 2924.26 1118.53 2929.6 1117.72 2934.41 1115.66 2938.78 1112.51 2939.89 1111.71 2939.89 1111.46 2938.78 1110.62 2933.48 1106.57 2928.38 1102.28 2923.63 1097.58 2923.42 1097.38 2923.21 1097.15 2922.94 1097.13ZM3008.62 1096.82C3008.34 1096.89 3008.13 1097.19 3007.92 1097.4 3003.44 1101.78 2998.68 1105.83 2993.58 1109.7 2993.28 1109.94 2992.98 1110.17 2992.68 1110.41 2991.8 1111.11 2991.82 1111.52 2992.75 1112.18 2998.69 1116.43 3005.24 1118.74 3012.6 1118.51 3014.2 1118.46 3014.43 1118.16 3013.85 1116.67 3011.53 1110.64 3009.42 1104.55 3009.55 1097.95 3009.56 1097.48 3009.41 1097.02 3008.95 1096.85 3008.83 1096.8 3008.72 1096.8 3008.62 1096.82ZM2554.07 1096.23C2558.72 1097.66 2567.29 1098.38 2579.8 1098.38L2639.56 1097.04C2657.43 1097.04 2669.31 1098.2 2675.21 1100.52L2675.21 1113.67C2670.38 1114.39 2663.77 1114.79 2655.37 1114.88 2646.98 1114.97 2638.04 1115.1 2628.57 1115.28 2602.13 1115.82 2584.09 1117.16 2574.44 1119.31 2571.4 1133.62 2569.97 1143.36 2570.15 1148.55 2570.33 1153.74 2570.51 1157.76 2570.69 1160.63 2571.4 1167.6 2571.76 1175.83 2571.76 1185.31 2583.91 1185.31 2597.8 1184.24 2613.43 1182.09 2629.07 1179.94 2641.17 1178.38 2649.75 1177.4 2658.32 1176.41 2667.17 1175.92 2676.28 1175.92L2676.28 1190.68 2573.64 1203.56 2575.24 1247.56C2592.93 1247.56 2611.02 1246.71 2629.51 1245.01 2648 1243.31 2662.03 1242.06 2671.59 1241.26 2681.15 1240.45 2691.29 1240.05 2702.01 1240.05 2702.01 1243.63 2700.93 1247.02 2698.79 1250.24 2694.5 1255.97 2690.66 1257.67 2687.27 1255.34 2655.82 1258.74 2627.73 1261.42 2602.98 1263.39 2578.24 1265.36 2561.58 1266.7 2553 1267.42ZM3444.86 1095.43C3449.68 1095.43 3453.61 1096.5 3456.65 1098.64 3457.18 1100.61 3457.45 1102.54 3457.45 1104.41 3457.45 1106.29 3456.74 1108.13 3455.31 1109.91 3453.88 1111.7 3451.74 1112.6 3448.88 1112.6 3446.02 1112.6 3443.16 1111.93 3440.3 1110.59 3437.44 1109.24 3435.3 1107.32 3433.87 1104.82 3433.87 1098.56 3437.53 1095.43 3444.86 1095.43ZM3307.2 1088.18C3311.31 1088.18 3314.52 1089.66 3316.85 1092.61 3319.17 1095.56 3320.42 1098.2 3320.6 1100.52L3319.26 1144.8C3319.26 1161.43 3320.06 1173.86 3321.67 1182.09 3337.75 1171.36 3354.37 1165.99 3371.52 1165.99 3377.06 1165.99 3382.95 1166.44 3389.21 1167.33 3402.61 1174.31 3411.36 1181.73 3415.47 1189.6 3417.44 1193.72 3418.69 1198.1 3419.22 1202.75 3419.76 1207.4 3420.12 1212.68 3420.29 1218.58 3421.37 1238.97 3422.71 1254 3424.31 1263.66 3422.71 1266.7 3418.55 1268.22 3411.85 1268.22 3405.15 1268.22 3401.8 1265.81 3401.8 1260.98 3401.8 1239.87 3401.36 1225.38 3400.46 1217.51 3398.85 1200.16 3395.46 1190.86 3390.28 1189.6 3377.41 1187.1 3366.92 1185.85 3358.79 1185.85 3350.66 1185.85 3343.96 1188.31 3338.69 1193.23 3333.42 1198.15 3329.4 1206.28 3326.63 1217.64 3323.86 1229 3321.85 1244.97 3320.6 1265.54L3299.96 1265.54C3300.32 1255.34 3300.5 1245.86 3300.5 1237.1 3300.5 1228.33 3300.32 1217.91 3299.96 1205.84 3299.61 1193.76 3299.16 1180.57 3298.62 1166.26 3297.73 1149.8 3297.28 1135.9 3297.28 1124.54 3297.28 1113.18 3298 1102.76 3299.43 1093.28 3301.21 1089.88 3303.8 1088.18 3307.2 1088.18ZM2965.84 1057C2969.38 1057.01 2972.41 1059.21 2973.15 1062.48 2973.97 1066.07 2972.68 1069.63 2969.23 1071.4 2967.67 1072.21 2967.51 1072.65 2968.08 1074.32 2970.81 1082.36 2974.2 1090.1 2978.87 1097.22 2980.98 1100.43 2983.24 1103.52 2985.98 1106.23 2986.89 1107.13 2987.18 1107.14 2988.16 1106.33 2993.72 1101.77 2999.2 1097.13 3004.05 1091.79 3005.87 1089.78 3007.6 1087.68 3009.17 1085.47 3009.96 1084.35 3009.9 1083.85 3008.96 1082.76 3005.5 1078.74 3007.42 1072.17 3012.55 1070.89 3016.76 1069.84 3020.57 1071.3 3021.81 1075.62 3023 1079.79 3021.6 1083.59 3017 1085.22 3014.44 1086.12 3014.41 1086.09 3014.48 1088.77 3014.74 1098 3016.46 1106.9 3020.38 1115.31 3021.05 1116.74 3021.23 1116.81 3022.74 1116.21 3027.77 1114.24 3032.17 1111.27 3036.2 1107.72 3040.39 1104.04 3044.02 1099.83 3047.42 1095.42 3048.35 1094.21 3048.37 1093.84 3047.37 1092.65 3045.18 1090.07 3045.5 1084.71 3048.22 1082.42 3051.21 1079.91 3055.88 1079.93 3058.62 1082.65 3062.57 1086.55 3061.12 1093.27 3055.93 1095.14 3055.28 1095.37 3054.62 1095.48 3053.95 1095.41 3052.65 1095.28 3051.76 1095.86 3051.06 1096.9 3048.39 1100.91 3045.65 1104.88 3043.02 1108.93 3036.9 1118.33 3031.26 1128.02 3025.96 1137.9 3025.25 1139.22 3024.56 1140.55 3023.84 1141.88 3023.69 1142.16 3023.6 1142.57 3023.12 1142.5 3022.76 1142.19 3022.97 1141.85 3023.07 1141.54 3025.19 1135.13 3027.63 1128.85 3030.4 1122.7 3031.03 1121.3 3031.65 1119.9 3032.26 1118.5 3032.39 1118.2 3032.73 1117.84 3032.36 1117.55 3032.02 1117.28 3031.7 1117.63 3031.41 1117.79 3027.49 1119.93 3023.4 1121.59 3019.03 1122.52 3015.59 1123.25 3012.12 1123.21 3008.64 1123.1 3008.29 1123.09 3007.94 1123.06 3007.5 1123.03 3002.64 1122.52 2998.21 1120.98 2994.03 1118.67 2986.78 1114.66 2981.07 1108.99 2976.41 1102.21 2972.16 1096.04 2968.84 1089.41 2966.56 1082.26 2966.43 1081.85 2966.35 1081.38 2965.85 1081.14 2965.25 1081.38 2965.23 1081.98 2965.07 1082.47 2962.76 1089.56 2959.58 1096.23 2955.31 1102.35 2951.33 1108.06 2946.63 1113.08 2940.83 1116.97 2934.79 1121.02 2928.21 1123.33 2920.83 1123.48 2913.55 1123.62 2906.9 1121.71 2900.6 1118.27 2900.29 1118.1 2899.97 1117.95 2899.66 1117.8 2899.55 1117.76 2899.42 1117.75 2899.3 1117.73 2898.94 1118.18 2899.23 1118.54 2899.39 1118.9 2902.47 1125.64 2905.31 1132.48 2907.77 1139.48 2908.21 1140.74 2908.65 1142.01 2909.07 1143.28 2909.16 1143.54 2909.35 1143.81 2909.11 1144.14 2908.58 1144.21 2908.49 1143.74 2908.31 1143.4 2906.24 1139.37 2904.14 1135.35 2901.92 1131.39 2899.27 1126.65 2896.54 1121.96 2893.7 1117.33 2889.55 1110.54 2885.16 1103.91 2880.68 1097.34 2879.97 1096.31 2879.14 1095.77 2877.83 1095.76 2873.44 1095.7 2871.03 1092.38 2870.67 1088.79 2870.25 1084.56 2873.29 1081.81 2876.12 1081.11 2881.53 1079.78 2885.79 1083.58 2885.77 1088.11 2885.77 1090.11 2885.24 1091.81 2883.93 1093.29 2883.35 1093.94 2883.3 1094.53 2883.84 1095.25 2887.82 1100.55 2892.15 1105.53 2897.37 1109.68 2900.86 1112.46 2904.63 1114.77 2908.75 1116.51 2910.07 1117.07 2910.69 1116.85 2911.27 1115.56 2913.14 1111.38 2914.63 1107.06 2915.59 1102.58 2916.65 1097.58 2917.17 1092.5 2917.06 1087.38 2917.04 1086.23 2916.68 1085.83 2915.47 1085.62 2912.32 1085.08 2909.87 1082.67 2909.47 1079.72 2908.97 1076.05 2910.55 1072.92 2913.66 1071.45 2916.64 1070.03 2920.54 1070.88 2922.64 1073.4 2924.78 1075.95 2924.93 1080 2922.98 1082.68 2921.58 1084.6 2921.58 1084.6 2923.05 1086.57 2927.04 1091.88 2931.64 1096.62 2936.67 1100.93 2938.91 1102.84 2941.18 1104.7 2943.45 1106.56 2944.55 1107.46 2944.8 1107.42 2945.78 1106.4 2950.06 1101.86 2953.51 1096.72 2956.45 1091.24 2959.45 1085.65 2961.79 1079.78 2963.79 1073.77 2964.13 1072.76 2963.92 1072.24 2962.87 1071.81 2959.06 1070.25 2957.59 1066.36 2958.44 1062.75 2959.19 1059.56 2962.5 1056.99 2965.84 1057Z" fill="#FFFFFF" fill-rule="evenodd"/>
  </g>
</svg>