<svg width="825" height="377" xmlns="http://www.w3.org/2000/svg" xmlns:xlink="http://www.w3.org/1999/xlink" xml:space="preserve" overflow="hidden"><defs><clipPath id="clip0"><rect x="963" y="518" width="825" height="377"/></clipPath></defs><g clip-path="url(#clip0)" transform="translate(-963 -518)"><path d="M1375.88 518C1391.23 518.029 1404.37 527.556 1407.58 541.694 1411.12 557.257 1405.54 572.622 1390.59 580.304 1383.81 583.787 1383.14 585.69 1385.59 592.907 1397.41 627.711 1412.11 661.175 1432.39 691.981 1441.52 705.856 1451.32 719.257 1463.21 730.978 1467.14 734.859 1468.4 734.896 1472.68 731.399 1496.78 711.682 1520.57 691.603 1541.56 668.489 1549.46 659.783 1556.97 650.734 1563.79 641.138 1567.22 636.305 1566.97 634.159 1562.87 629.414 1547.88 612.053 1556.17 583.61 1578.44 578.074 1596.68 573.541 1613.24 579.862 1618.58 598.543 1623.74 616.587 1617.67 633.013 1597.73 640.061 1586.64 643.982 1586.51 643.841 1586.83 655.451 1587.93 695.361 1595.39 733.874 1612.41 770.244 1615.32 776.448 1616.07 776.725 1622.64 774.148 1644.43 765.61 1663.52 752.758 1681.01 737.42 1699.19 721.48 1714.91 703.287 1729.64 684.196 1733.67 678.97 1733.77 677.353 1729.43 672.239 1719.93 661.046 1721.32 637.863 1733.13 627.976 1746.11 617.096 1766.34 617.212 1778.23 628.942 1795.34 645.829 1789.05 674.892 1766.56 682.993 1763.76 684 1760.9 684.468 1757.99 684.167 1752.35 683.582 1748.48 686.107 1745.46 690.605 1733.85 707.954 1721.98 725.139 1710.58 742.627 1684.05 783.305 1659.6 825.214 1636.58 867.96 1633.5 873.68 1630.51 879.448 1627.42 885.163 1626.75 886.406 1626.38 888.162 1624.27 887.879 1622.74 886.54 1623.62 885.063 1624.08 883.696 1633.25 855.989 1643.83 828.825 1655.85 802.222 1658.58 796.176 1661.28 790.116 1663.91 784.023 1664.46 782.741 1665.97 781.185 1664.35 779.918 1662.89 778.778 1661.51 780.287 1660.23 780.982 1643.25 790.224 1625.51 797.409 1606.52 801.44 1591.61 804.606 1576.57 804.436 1561.48 803.94 1559.95 803.889 1558.44 803.751 1556.53 803.641 1535.47 801.45 1516.26 794.758 1498.14 784.765 1466.7 767.427 1441.91 742.896 1421.69 713.575 1403.29 686.889 1388.88 658.185 1379.01 627.266 1378.43 625.477 1378.09 623.456 1375.92 622.434 1373.33 623.455 1373.22 626.068 1372.54 628.169 1362.53 658.855 1348.74 687.709 1330.23 714.186 1312.97 738.866 1292.55 760.599 1267.4 777.42 1241.23 794.929 1212.66 804.916 1180.67 805.567 1149.11 806.209 1120.29 797.943 1092.94 783.059 1091.61 782.333 1090.24 781.665 1088.86 781.036 1088.38 780.821 1087.82 780.809 1087.3 780.704 1085.76 782.654 1087 784.226 1087.71 785.775 1101.07 814.934 1113.39 844.52 1124.03 874.787 1125.95 880.259 1127.86 885.739 1129.69 891.242 1130.05 892.346 1130.88 893.515 1129.87 894.973 1127.54 895.261 1127.15 893.221 1126.4 891.769 1117.39 874.324 1108.29 856.936 1098.68 839.807 1087.19 819.3 1075.33 799.015 1063.05 778.969 1045.05 749.603 1025.99 720.942 1006.54 692.521 1003.49 688.05 999.872 685.735 994.223 685.66 975.173 685.407 964.729 671.061 963.172 655.527 961.336 637.218 974.524 625.32 986.791 622.311 1010.24 616.56 1028.72 632.964 1028.66 652.559 1028.63 661.219 1026.34 668.603 1020.65 674.972 1018.13 677.783 1017.94 680.348 1020.27 683.455 1037.55 706.413 1056.33 727.95 1078.94 745.885 1094.08 757.896 1110.43 767.928 1128.29 775.428 1134.04 777.843 1136.71 776.917 1139.23 771.305 1147.34 753.221 1153.81 734.538 1157.94 715.179 1162.55 693.541 1164.8 671.584 1164.33 649.406 1164.23 644.442 1162.67 642.7 1157.43 641.808 1143.79 639.484 1133.13 629.045 1131.4 616.306 1129.24 600.417 1136.12 586.86 1149.57 580.494 1162.51 574.372 1179.41 578.031 1188.54 588.931 1197.81 599.988 1198.44 617.517 1190 629.093 1183.95 637.378 1183.92 637.404 1190.31 645.904 1207.6 668.892 1227.55 689.379 1249.39 708.037 1259.07 716.303 1268.92 724.366 1278.79 732.402 1283.54 736.266 1284.65 736.131 1288.86 731.681 1307.44 712.048 1322.41 689.846 1335.16 666.123 1348.15 641.949 1358.3 616.55 1366.99 590.556 1368.46 586.182 1367.54 583.928 1363 582.07 1346.46 575.304 1340.11 558.485 1343.79 542.873 1347.04 529.068 1361.38 517.972 1375.88 518ZM1189.82 691.611C1189.42 691.582 1188.99 691.652 1188.52 691.856 1186.79 692.604 1187.01 694.329 1186.95 695.821 1186.63 704.106 1185.38 712.289 1184.09 721.182 1181.98 733.014 1179.21 744.666 1175.39 756.087 1172.88 763.559 1169.65 770.736 1167.04 778.152 1165.12 783.625 1166.02 784.724 1171.61 785.201 1179.65 785.887 1187.59 785.406 1195.56 784.189 1218.71 780.658 1239.59 771.74 1258.53 758.145 1263.35 754.687 1263.33 753.578 1258.55 749.934 1235.54 732.415 1213.41 713.873 1192.82 693.554 1191.92 692.671 1191.01 691.698 1189.82 691.611ZM1561.42 690.261C1560.17 690.544 1559.28 691.861 1558.36 692.764 1538.93 711.706 1518.29 729.235 1496.18 745.971 1494.88 747.001 1493.58 748.029 1492.28 749.063 1488.47 752.096 1488.53 753.833 1492.56 756.712 1518.31 775.108 1546.73 785.088 1578.68 784.072 1585.61 783.85 1586.59 782.587 1584.09 776.123 1574 750.025 1564.85 723.714 1565.43 695.159 1565.47 693.13 1564.83 691.117 1562.81 690.376 1562.29 690.187 1561.84 690.167 1561.42 690.261Z" fill="#FFFFFF" fill-rule="evenodd"/></g></svg>