<svg width="1650" height="293"
  xmlns="http://www.w3.org/2000/svg"
  xmlns:xlink="http://www.w3.org/1999/xlink" xml:space="preserve" overflow="hidden">
  <g transform="translate(-1375 -2034)">
    <path d="M1735.84 2266.41 1739.93 2269.14C1735.91 2273.02 1732.04 2276.14 1728.33 2278.49L1724.23 2275.07C1728.63 2272.49 1732.5 2269.6 1735.84 2266.41ZM1760.41 2265.95C1763.59 2268.99 1767.61 2271.96 1772.47 2274.84L1768.6 2278.72C1763.9 2275.87 1759.8 2272.53 1756.31 2268.69ZM1606.61 2259.57 1611.16 2260.25C1611.12 2265.19 1610.51 2270.21 1609.34 2275.3L1604.79 2273.02C1605.89 2268.84 1606.49 2264.35 1606.61 2259.57ZM1623.67 2259.11C1624.13 2262.57 1624.89 2265.99 1625.95 2269.37L1621.62 2271.88C1620.52 2268.38 1619.77 2264.58 1619.35 2260.48ZM1626.63 2256.37 1657.34 2256.37 1657.34 2261.39 1640.05 2261.39C1638.54 2265.87 1637.02 2269.75 1635.5 2273.02 1639.41 2272.41 1643.5 2271.65 1647.79 2270.74 1646.95 2269.22 1645.89 2267.55 1644.6 2265.72L1649.15 2263.21C1652.26 2267.39 1655.07 2272.11 1657.57 2277.35L1653.02 2279.86C1652.15 2278.07 1651.24 2276.4 1650.29 2274.84 1642.86 2276.67 1635.12 2278.19 1627.08 2279.4L1624.81 2274.39C1626.67 2274.16 1628.41 2273.93 1630.04 2273.7 1631.71 2269.83 1633.15 2265.72 1634.37 2261.39L1626.63 2261.39ZM1791.52 2251.81C1790.87 2253.26 1790.25 2254.47 1789.64 2255.46 1792.22 2257.21 1794.55 2259.24 1796.64 2261.56 1798.23 2258.94 1799.48 2255.69 1800.39 2251.81ZM1807.73 2246.11 1829.34 2246.11 1829.34 2260.93C1829.34 2264.43 1827.45 2266.18 1823.66 2266.18L1817.97 2266.18 1816.38 2260.93 1822.52 2260.93C1823.43 2260.93 1823.88 2260.55 1823.88 2259.79L1823.88 2251.13 1813.19 2251.13 1813.19 2272.11C1813.19 2273.63 1814.1 2274.39 1815.92 2274.39L1823.88 2274.39C1826.2 2274.39 1827.49 2273.55 1827.75 2271.88L1828.66 2265.95 1833.44 2268.91 1832.53 2274.39C1831.96 2277.73 1829.53 2279.4 1825.25 2279.4L1814.56 2279.4C1810.01 2279.4 1807.73 2277.43 1807.73 2273.47ZM1789.7 2242.46 1794.88 2242.92C1794.46 2244.25 1794.04 2245.54 1793.62 2246.8L1803.41 2246.8 1806.14 2250.44C1803.26 2264.51 1795.97 2274.46 1784.3 2280.32L1780.66 2275.76C1785.74 2273.55 1790.14 2270.21 1793.85 2265.72 1791.73 2263.29 1789.53 2261.22 1787.25 2259.51 1785.74 2261.67 1784.32 2263.48 1782.99 2264.92L1779.52 2260.93C1784.45 2255.42 1787.84 2249.27 1789.7 2242.46ZM1640.74 2234.03C1638.61 2238.89 1636.3 2242.84 1633.8 2245.88L1649.15 2245.88C1645.74 2242.16 1642.93 2238.21 1640.74 2234.03ZM1637.55 2227.41 1643.69 2227.41C1647.11 2235.55 1652.19 2242.08 1658.94 2247.02L1655.75 2251.36C1653.63 2250.06 1651.66 2248.47 1649.84 2246.57L1649.84 2250.9 1632.77 2250.9 1632.77 2247.02C1631.22 2248.85 1629.61 2250.42 1627.94 2251.76L1624.35 2247.48C1630.57 2242.46 1634.97 2235.77 1637.55 2227.41ZM1751.99 2227.19 1757.22 2227.19 1757.22 2233.57C1760.94 2232.7 1764.5 2231.48 1767.92 2229.92L1770.65 2234.03C1766.7 2235.74 1762.23 2237.18 1757.22 2238.36L1757.22 2240.18C1757.22 2241.7 1757.98 2242.46 1759.5 2242.46L1766.32 2242.46C1768.11 2242.46 1769.24 2241.63 1769.74 2239.95L1770.42 2237.22 1774.74 2240.18 1774.06 2242.92C1773.34 2245.81 1770.99 2247.25 1767.01 2247.25L1758.81 2247.25C1754.26 2247.25 1751.99 2245.12 1751.99 2240.87ZM1736.52 2227.19 1741.52 2227.19 1741.52 2232.66 1749.26 2232.66 1749.26 2237.45 1741.52 2237.45 1741.52 2241.32C1744.48 2240.94 1747.36 2240.49 1750.17 2239.95L1750.17 2244.74 1747.44 2245.2 1750.4 2247.02C1747.52 2249.87 1744.78 2252.38 1742.21 2254.55L1744.94 2256.83C1748.58 2253.75 1752.22 2250.56 1755.86 2247.25L1760.41 2249.99C1755.4 2254.32 1751.38 2257.59 1748.35 2259.79 1752.82 2259.49 1757.22 2259.11 1761.54 2258.65 1760.79 2257.97 1759.65 2257.06 1758.13 2255.92L1762 2252.95C1766.25 2256.07 1769.89 2259.57 1772.92 2263.44L1768.83 2266.41C1767.54 2264.81 1766.4 2263.52 1765.41 2262.53 1760.41 2263.21 1755.55 2263.75 1750.85 2264.13L1750.85 2280.54 1745.39 2280.54 1745.39 2264.81C1738.57 2265.27 1731.82 2265.72 1725.14 2266.18L1722.87 2260.71C1728.71 2260.63 1734.93 2260.48 1741.52 2260.25 1739.25 2258.12 1736.14 2255.69 1732.2 2252.95L1735.61 2249.53C1736.67 2250.22 1737.73 2250.98 1738.79 2251.81 1741.07 2249.84 1743.19 2247.71 1745.16 2245.43 1739.4 2246.49 1731.97 2247.63 1722.87 2248.85L1722.19 2243.83 1727.65 2243.15 1727.65 2230.6 1732.65 2230.6 1732.65 2242.46 1736.52 2242.01ZM1795.67 2226.96 1801.36 2226.96 1801.36 2232.89 1812.28 2232.89 1812.28 2226.96 1817.97 2226.96 1817.97 2232.89 1833.67 2232.89 1833.67 2237.9 1817.97 2237.9 1817.97 2243.6 1812.28 2243.6 1812.28 2237.9 1801.36 2237.9 1801.36 2243.6 1795.67 2243.6 1795.67 2237.9 1779.97 2237.9 1779.97 2232.89 1795.67 2232.89ZM1681.01 2226.96C1682.67 2229.39 1684.19 2231.75 1685.56 2234.03L1694.88 2234.03C1696.4 2231.82 1697.77 2229.47 1698.98 2226.96L1704.44 2228.78C1703.3 2230.72 1702.16 2232.47 1701.03 2234.03L1714.68 2234.03 1714.68 2238.81 1692.84 2238.81 1692.84 2242.46 1711.72 2242.46 1711.72 2247.25 1692.84 2247.25 1692.84 2251.13 1715.81 2251.13 1715.81 2255.92 1692.84 2255.92 1692.84 2260.02 1715.13 2260.02 1715.13 2264.81 1695.11 2264.81C1699.36 2269.75 1706.49 2273.47 1716.5 2275.98L1712.4 2280.54C1703 2278.11 1695.64 2273.86 1690.33 2267.77 1684.91 2273.82 1677.33 2278.23 1667.58 2281L1663.94 2276.21C1674.03 2273.47 1681.16 2269.67 1685.33 2264.81L1665.76 2264.81 1665.76 2260.02 1687.38 2260.02 1687.38 2255.92 1664.17 2255.92 1664.17 2251.13 1687.38 2251.13 1687.38 2247.25 1668.72 2247.25 1668.72 2242.46 1687.38 2242.46 1687.38 2238.81 1665.76 2238.81 1665.76 2234.03 1679.19 2234.03C1678.43 2232.7 1677.36 2231.02 1676 2229.01ZM1615.25 2226.96 1619.58 2229.47C1617.15 2234.41 1614.65 2238.66 1612.07 2242.23 1612.94 2243.22 1613.7 2244.29 1614.34 2245.43 1616.62 2242.46 1618.74 2239.35 1620.71 2236.08L1624.81 2238.59C1622 2242.77 1618.82 2247.02 1615.25 2251.36 1616.66 2251.24 1618.02 2251.09 1619.35 2250.9 1619.05 2250.03 1618.67 2249.19 1618.21 2248.39L1622.08 2246.11C1623.67 2249 1624.96 2252.12 1625.95 2255.46L1621.62 2257.97C1621.32 2256.75 1621.02 2255.69 1620.71 2254.78 1619.88 2254.93 1618.97 2255.08 1617.98 2255.23L1617.98 2280.54 1612.75 2280.54 1612.75 2256.14C1610.21 2256.52 1607.86 2256.83 1605.7 2257.06L1604.33 2252.04C1606.08 2251.96 1607.75 2251.89 1609.34 2251.81 1610.02 2251.01 1610.63 2250.25 1611.16 2249.53 1609.34 2246.72 1607.22 2243.83 1604.79 2240.87L1607.97 2236.99 1609.11 2238.59C1611.39 2235.17 1613.43 2231.29 1615.25 2226.96ZM2056.37 2187.15C2056.91 2187.15 2057.34 2187.2 2057.63 2187.3 2059.72 2187.3 2061.14 2187.72 2061.88 2188.57 2062.63 2189.41 2063 2190.53 2063 2191.93 2063 2193.32 2062.7 2194.37 2062.11 2195.07 2061.51 2195.76 2060.76 2196.26 2059.87 2196.56 2058.38 2197.06 2056.34 2197.31 2053.76 2197.31 2051.47 2197.11 2050.33 2196.11 2050.33 2194.32 2050.33 2192.13 2051.57 2190.09 2054.06 2188.19 2055.05 2187.5 2055.82 2187.15 2056.37 2187.15ZM1939.89 2138.3C1936.02 2138.99 1932.11 2139.74 1928.19 2140.54 1924.26 2141.33 1920.56 2142.88 1917.09 2145.17 1909.53 2150.05 1904.61 2159.11 1902.33 2172.36 1902.33 2178.53 1903.97 2182.72 1907.25 2184.91 1909.73 2186.5 1913.91 2187.3 1919.77 2187.3 1925.63 2187.3 1930.8 2186.85 1935.27 2185.95 1939.74 2185.06 1943.72 2183.51 1947.19 2181.32 1954.65 2176.54 1958.37 2169.12 1958.37 2159.06 1958.37 2153.09 1956.78 2148.21 1953.6 2144.42 1950.13 2140.34 1945.55 2138.3 1939.89 2138.3ZM1936.31 2130.08C1936.91 2130.08 1938.3 2130.08 1940.49 2130.08 1942.67 2130.08 1945.6 2130.73 1949.28 2132.02 1957.43 2134.81 1962.99 2139.74 1965.98 2146.81 1967.17 2149.6 1967.76 2151.97 1967.76 2153.91 1967.76 2155.85 1967.71 2157.22 1967.62 2158.02 1967.62 2170.47 1962.9 2180.28 1953.45 2187.45 1944.71 2194.02 1933.78 2197.31 1920.66 2197.31 1911.22 2197.31 1904.09 2195.12 1899.27 2190.73 1894.45 2186.35 1892.04 2179.03 1892.04 2168.77 1892.04 2157.02 1897.11 2147.56 1907.25 2140.39 1915.3 2134.71 1924.99 2131.27 1936.31 2130.08ZM1472.04 2128.58C1473.04 2128.58 1473.81 2130.38 1474.35 2133.96 1474.9 2137.55 1475.3 2140.34 1475.54 2142.33 1475.79 2144.32 1476.02 2145.77 1476.22 2146.66 1478.8 2141.98 1483.92 2138.3 1491.57 2135.61 1495.64 2134.31 1499.47 2133.66 1503.05 2133.66 1506.62 2133.66 1509.78 2134.09 1512.51 2134.93 1515.24 2135.78 1517.58 2137.32 1519.52 2139.57 1521.45 2141.81 1522.42 2144.77 1522.42 2148.45 1525.01 2143.57 1530.82 2139.19 1539.86 2135.31 1548.11 2131.62 1555.51 2129.78 1562.07 2129.78 1571.51 2129.78 1576.13 2133.37 1575.93 2140.54L1579.06 2196.11C1579.06 2196.61 1577.62 2196.96 1574.74 2197.16 1569.18 2197.56 1566.39 2197.06 1566.39 2195.66 1566.3 2193.67 1566.25 2191.68 1566.25 2189.69L1566.99 2165.64C1566.99 2154.38 1565.9 2145.47 1563.71 2138.89 1557.15 2139.39 1552.11 2140.46 1548.58 2142.1 1545.05 2143.75 1541.95 2145.79 1539.27 2148.23 1536.58 2150.67 1534.2 2153.93 1532.11 2158.02 1527.44 2167.18 1525.11 2179.33 1525.11 2194.47 1524.51 2196.56 1522.57 2197.61 1519.29 2197.61 1517.11 2197.61 1515.32 2197.23 1513.93 2196.48 1512.54 2195.74 1511.99 2195.07 1512.29 2194.47 1514.18 2183.91 1515.12 2175.69 1515.12 2169.82 1515.12 2165.14 1514.65 2160.68 1513.7 2156.45 1512.76 2152.21 1511.59 2147.36 1510.2 2141.88 1495.89 2141.88 1486.25 2147.61 1481.28 2159.06 1479.1 2164.14 1477.88 2168.9 1477.63 2173.33 1477.38 2177.76 1477.26 2181.55 1477.26 2184.68 1477.26 2187.82 1477.41 2191.18 1477.71 2194.77 1473.63 2196.46 1470.92 2197.31 1469.58 2197.31 1468.24 2197.31 1467.32 2197.16 1466.83 2196.86 1466.33 2196.56 1465.78 2195.86 1465.19 2194.77 1465.19 2191.48 1465.31 2187.35 1465.56 2182.37 1465.81 2177.39 1466.03 2172.06 1466.23 2166.38 1466.43 2160.7 1466.53 2154.98 1466.53 2149.2 1466.53 2143.42 1466.23 2138.15 1465.63 2133.37 1465.63 2130.18 1467.77 2128.58 1472.04 2128.58ZM1869.4 2126.94 1878.79 2126.94C1880.08 2145.57 1881.17 2167.13 1882.07 2191.63 1881.47 2194.72 1879.09 2196.26 1874.91 2196.26 1873.82 2196.26 1872.7 2196.04 1871.56 2195.59 1870.42 2195.14 1869.7 2194.52 1869.4 2193.72ZM1611.02 2126.94 1620.41 2126.94C1621.7 2145.57 1622.79 2167.13 1623.69 2191.63 1623.09 2194.72 1620.71 2196.26 1616.53 2196.26 1615.44 2196.26 1614.32 2196.04 1613.18 2195.59 1612.04 2195.14 1611.32 2194.52 1611.02 2193.72ZM1588.07 2126.94 1597.46 2126.94C1598.76 2145.57 1599.85 2167.13 1600.74 2191.63 1600.15 2194.72 1597.76 2196.26 1593.59 2196.26 1592.5 2196.26 1591.38 2196.04 1590.24 2195.59 1589.09 2195.14 1588.37 2194.52 1588.07 2193.72ZM1983.5 2122.61C1985.99 2122.61 1987.23 2125.55 1987.23 2131.42 1987.23 2133.71 1987.1 2135.93 1986.86 2138.07 1986.61 2140.21 1986.48 2141.68 1986.48 2142.48 2002.58 2130.63 2015.05 2124.7 2023.9 2124.7 2033.93 2124.7 2039.65 2132.82 2041.04 2149.05 2041.63 2154.73 2041.93 2162.6 2041.93 2172.66L2041.78 2184.46C2041.78 2188.84 2041.88 2193.07 2042.08 2197.16 2041.09 2197.75 2040.29 2198.05 2039.7 2198.05 2039.4 2197.95 2038.75 2197.8 2037.76 2197.61 2036.76 2197.41 2035.47 2197.26 2033.88 2197.16 2032.89 2193.17 2032.34 2189.11 2032.24 2184.98 2032.14 2180.85 2032.09 2177.04 2032.09 2173.55L2032.24 2164.44C2032.24 2152.59 2031.6 2143.87 2030.3 2138.3 2031.1 2136.8 2029.91 2136.05 2026.73 2136.05 2023.35 2136.05 2018.98 2136.9 2013.61 2138.59 2008.24 2140.29 2003.87 2141.98 2000.49 2143.67 1992.45 2147.56 1987.97 2151.34 1987.08 2155.03L1987.08 2195.66 1977.09 2195.66C1975.8 2192.28 1975.15 2182.77 1975.15 2167.13 1975.15 2153.19 1975.43 2142.93 1975.97 2136.35 1976.52 2129.78 1976.94 2126.04 1977.24 2125.15 1979.82 2123.46 1981.91 2122.61 1983.5 2122.61ZM1762 2106.32C1762.59 2106.52 1763.51 2106.7 1764.75 2106.85 1765.99 2107 1767.26 2107.22 1768.55 2107.52 1771.63 2108.22 1772.93 2109.51 1772.43 2111.4 1772.43 2114.79 1765.97 2117.48 1753.05 2119.47 1736.36 2121.96 1725.95 2124.05 1721.82 2125.75 1717.7 2127.44 1714.72 2129.18 1712.88 2130.97 1711.04 2132.77 1710.07 2134.91 1709.97 2137.4 1709.97 2137.9 1711.12 2138.45 1713.4 2139.04 1715.69 2139.64 1718.42 2140.36 1721.6 2141.21 1724.78 2142.06 1728.9 2143.18 1733.97 2144.57 1746.29 2147.96 1761.4 2152.24 1779.29 2157.42 1780.28 2159.61 1780.78 2161.65 1780.78 2163.54 1780.78 2168.82 1777.7 2173.9 1771.53 2178.78 1764.58 2184.26 1754.94 2188.89 1742.62 2192.68 1732.38 2195.76 1724.23 2197.31 1718.17 2197.31 1713.1 2197.31 1708.29 2196.41 1703.71 2194.62 1699.14 2192.82 1695.72 2191.08 1693.43 2189.39 1691.14 2187.7 1690 2185.93 1690 2184.09 1690 2182.24 1690.77 2180.6 1692.31 2179.16 1693.85 2177.71 1695.04 2176.72 1695.89 2176.17 1696.73 2175.62 1697.31 2175.2 1697.6 2174.9 1698.1 2183.96 1704.21 2188.49 1715.94 2188.49 1725.18 2188.49 1735.96 2185.6 1748.28 2179.83 1757.03 2175.84 1762.89 2171.76 1765.87 2167.58 1766.86 2166.28 1767.36 2165.21 1767.36 2164.36 1767.36 2163.52 1767.21 2162.85 1766.91 2162.35L1705.06 2148.45C1703.27 2148.06 1701.53 2147.21 1699.84 2145.91 1696.76 2143.72 1695.22 2141.73 1695.22 2139.94 1695.22 2133.07 1700.09 2126.84 1709.83 2121.26 1720.56 2115.19 1734.92 2110.61 1752.9 2107.52 1756.98 2106.82 1760.01 2106.42 1762 2106.32ZM1580.75 2102.35C1580.7 2102.34 1580.65 2102.35 1580.59 2102.38 1580.36 2102.47 1580.39 2102.7 1580.38 2102.89 1580.34 2103.95 1580.18 2105.01 1580.02 2106.15 1579.75 2107.67 1579.39 2109.17 1578.9 2110.64 1578.58 2111.61 1578.17 2112.53 1577.83 2113.48 1577.59 2114.19 1577.7 2114.33 1578.42 2114.39 1579.45 2114.48 1580.47 2114.42 1581.49 2114.26 1584.46 2113.81 1587.14 2112.66 1589.57 2110.91 1590.18 2110.46 1590.18 2110.32 1589.57 2109.85 1586.62 2107.6 1583.78 2105.21 1581.14 2102.6 1581.02 2102.48 1580.91 2102.36 1580.75 2102.35ZM1628.41 2102.17C1628.25 2102.21 1628.14 2102.38 1628.02 2102.49 1625.53 2104.93 1622.88 2107.19 1620.04 2109.34 1619.88 2109.48 1619.71 2109.61 1619.54 2109.74 1619.06 2110.13 1619.06 2110.35 1619.58 2110.72 1622.88 2113.09 1626.53 2114.38 1630.63 2114.25 1631.51 2114.22 1631.64 2114.05 1631.32 2113.22 1630.03 2109.86 1628.85 2106.48 1628.93 2102.8 1628.93 2102.54 1628.85 2102.28 1628.59 2102.19 1628.52 2102.16 1628.47 2102.16 1628.41 2102.17ZM1375.6 2101.84C1378.18 2102.64 1382.95 2103.04 1389.91 2103.04L1423.15 2102.29C1433.08 2102.29 1439.69 2102.94 1442.97 2104.23L1442.97 2111.55C1440.29 2111.95 1436.61 2112.18 1431.94 2112.23 1427.27 2112.28 1422.3 2112.35 1417.03 2112.45 1402.33 2112.75 1392.29 2113.5 1386.92 2114.69 1385.24 2122.66 1384.44 2128.09 1384.54 2130.97 1384.64 2133.86 1384.74 2136.1 1384.84 2137.7 1385.24 2141.58 1385.43 2146.16 1385.43 2151.44 1392.19 2151.44 1399.92 2150.84 1408.61 2149.65 1417.31 2148.45 1424.04 2147.58 1428.81 2147.04 1433.58 2146.49 1438.5 2146.21 1443.57 2146.21L1443.57 2154.43 1386.48 2161.6 1387.37 2186.1C1397.21 2186.1 1407.27 2185.63 1417.56 2184.68 1427.84 2183.74 1435.64 2183.04 1440.96 2182.59 1446.27 2182.14 1451.91 2181.92 1457.88 2181.92 1457.88 2183.91 1457.28 2185.8 1456.09 2187.6 1453.7 2190.78 1451.56 2191.73 1449.68 2190.43 1432.19 2192.33 1416.56 2193.82 1402.8 2194.92 1389.04 2196.01 1379.77 2196.76 1375 2197.16ZM1871.04 2101.39C1873.72 2101.39 1875.91 2101.99 1877.6 2103.19 1877.89 2104.28 1878.04 2105.35 1878.04 2106.4 1878.04 2107.45 1877.65 2108.47 1876.85 2109.46 1876.06 2110.46 1874.86 2110.96 1873.27 2110.96 1871.68 2110.96 1870.09 2110.58 1868.5 2109.84 1866.91 2109.09 1865.72 2108.02 1864.93 2106.62 1864.93 2103.14 1866.96 2101.39 1871.04 2101.39ZM1794.47 2097.36C1796.76 2097.36 1798.55 2098.18 1799.84 2099.83 1801.13 2101.47 1801.83 2102.94 1801.93 2104.23L1801.18 2128.88C1801.18 2138.15 1801.63 2145.07 1802.52 2149.65 1811.47 2143.67 1820.71 2140.69 1830.25 2140.69 1833.33 2140.69 1836.61 2140.93 1840.08 2141.43 1847.54 2145.32 1852.41 2149.45 1854.69 2153.83 1855.79 2156.12 1856.48 2158.56 1856.78 2161.15 1857.08 2163.74 1857.28 2166.68 1857.38 2169.97 1857.97 2181.32 1858.72 2189.69 1859.61 2195.07 1858.72 2196.76 1856.41 2197.61 1852.68 2197.61 1848.95 2197.61 1847.09 2196.26 1847.09 2193.57 1847.09 2181.82 1846.84 2173.75 1846.34 2169.37 1845.45 2159.71 1843.56 2154.53 1840.68 2153.83 1833.53 2152.44 1827.69 2151.74 1823.17 2151.74 1818.65 2151.74 1814.92 2153.11 1811.99 2155.85 1809.06 2158.59 1806.82 2163.12 1805.28 2169.44 1803.74 2175.77 1802.62 2184.66 1801.93 2196.11L1790.45 2196.11C1790.65 2190.43 1790.75 2185.16 1790.75 2180.28 1790.75 2175.4 1790.65 2169.59 1790.45 2162.87 1790.25 2156.15 1790 2148.8 1789.7 2140.84 1789.21 2131.67 1788.96 2123.93 1788.96 2117.6 1788.96 2111.28 1789.36 2105.48 1790.15 2100.2 1791.14 2098.31 1792.59 2097.36 1794.47 2097.36ZM1604.62 2080C1606.58 2080 1608.27 2081.23 1608.68 2083.05 1609.14 2085.05 1608.42 2087.03 1606.5 2088.02 1605.63 2088.47 1605.55 2088.71 1605.86 2089.64 1607.38 2094.12 1609.26 2098.43 1611.86 2102.39 1613.03 2104.18 1614.29 2105.9 1615.82 2107.41 1616.32 2107.91 1616.48 2107.92 1617.03 2107.47 1620.12 2104.93 1623.17 2102.34 1625.86 2099.37 1626.88 2098.25 1627.84 2097.08 1628.72 2095.85 1629.16 2095.23 1629.12 2094.95 1628.6 2094.34 1626.67 2092.11 1627.74 2088.45 1630.6 2087.73 1632.93 2087.15 1635.06 2087.96 1635.74 2090.37 1636.4 2092.69 1635.63 2094.8 1633.07 2095.71 1631.65 2096.22 1631.63 2096.2 1631.67 2097.69 1631.81 2102.83 1632.77 2107.79 1634.95 2112.47 1635.32 2113.26 1635.42 2113.3 1636.26 2112.97 1639.06 2111.87 1641.51 2110.22 1643.75 2108.24 1646.08 2106.19 1648.1 2103.85 1649.99 2101.39 1650.5 2100.72 1650.52 2100.51 1649.96 2099.85 1648.74 2098.41 1648.92 2095.43 1650.43 2094.16 1652.1 2092.75 1654.69 2092.77 1656.22 2094.28 1658.41 2096.45 1657.61 2100.19 1654.72 2101.24 1654.36 2101.37 1653.99 2101.43 1653.62 2101.39 1652.9 2101.31 1652.4 2101.64 1652.02 2102.22 1650.53 2104.45 1649 2106.66 1647.54 2108.91 1644.14 2114.15 1641 2119.54 1638.05 2125.04 1637.66 2125.78 1637.27 2126.52 1636.88 2127.26 1636.79 2127.42 1636.74 2127.64 1636.47 2127.61 1636.28 2127.44 1636.39 2127.24 1636.45 2127.07 1637.62 2123.5 1638.98 2120.01 1640.52 2116.58 1640.87 2115.8 1641.22 2115.02 1641.56 2114.24 1641.63 2114.08 1641.82 2113.87 1641.61 2113.71 1641.43 2113.56 1641.25 2113.76 1641.08 2113.85 1638.91 2115.04 1636.63 2115.96 1634.2 2116.48 1632.28 2116.89 1630.35 2116.87 1628.42 2116.8 1628.22 2116.8 1628.03 2116.78 1627.79 2116.76 1625.08 2116.48 1622.62 2115.62 1620.3 2114.34 1616.26 2112.1 1613.08 2108.95 1610.49 2105.17 1608.13 2101.74 1606.28 2098.04 1605.02 2094.06 1604.94 2093.83 1604.9 2093.57 1604.62 2093.44 1604.29 2093.57 1604.28 2093.91 1604.19 2094.18 1602.9 2098.13 1601.14 2101.84 1598.76 2105.25 1596.55 2108.43 1593.93 2111.23 1590.7 2113.39 1587.35 2115.64 1583.68 2116.93 1579.58 2117.01 1575.53 2117.1 1571.84 2116.03 1568.33 2114.12 1568.16 2114.02 1567.98 2113.94 1567.8 2113.86 1567.74 2113.83 1567.67 2113.83 1567.6 2113.81 1567.41 2114.06 1567.57 2114.27 1567.66 2114.47 1569.37 2118.22 1570.95 2122.03 1572.32 2125.92 1572.56 2126.63 1572.81 2127.33 1573.04 2128.04 1573.09 2128.18 1573.19 2128.33 1573.06 2128.52 1572.77 2128.56 1572.72 2128.3 1572.62 2128.11 1571.46 2125.86 1570.3 2123.62 1569.06 2121.42 1567.59 2118.78 1566.07 2116.17 1564.49 2113.59 1562.19 2109.81 1559.74 2106.12 1557.25 2102.46 1556.86 2101.89 1556.39 2101.59 1555.67 2101.58 1553.22 2101.55 1551.89 2099.7 1551.69 2097.7 1551.45 2095.34 1553.14 2093.81 1554.71 2093.43 1557.72 2092.69 1560.09 2094.8 1560.08 2097.32 1560.08 2098.43 1559.79 2099.38 1559.06 2100.2 1558.73 2100.57 1558.71 2100.9 1559.01 2101.3 1561.22 2104.25 1563.63 2107.02 1566.53 2109.33 1568.47 2110.88 1570.57 2112.17 1572.86 2113.13 1573.6 2113.44 1573.94 2113.33 1574.27 2112.6 1575.3 2110.28 1576.14 2107.87 1576.66 2105.38 1577.26 2102.59 1577.55 2099.77 1577.48 2096.91 1577.47 2096.27 1577.27 2096.05 1576.6 2095.94 1574.85 2095.64 1573.48 2094.29 1573.26 2092.65 1572.98 2090.61 1573.87 2088.86 1575.59 2088.04 1577.25 2087.26 1579.42 2087.73 1580.59 2089.13 1581.78 2090.55 1581.86 2092.81 1580.78 2094.3 1580 2095.37 1580 2095.37 1580.82 2096.46 1583.03 2099.42 1585.59 2102.06 1588.39 2104.46 1589.63 2105.52 1590.9 2106.56 1592.16 2107.6 1592.77 2108.09 1592.92 2108.08 1593.46 2107.5 1595.84 2104.98 1597.76 2102.12 1599.39 2099.07 1601.06 2095.95 1602.36 2092.68 1603.48 2089.34 1603.66 2088.78 1603.55 2088.49 1602.96 2088.25 1600.84 2087.38 1600.03 2085.21 1600.5 2083.2 1600.92 2081.43 1602.76 2080 1604.62 2080Z" fill="#FFFFFF" fill-rule="evenodd"/>
    <path d="M2865.64 2314.51C2866.96 2314.51 2868.06 2314.9 2868.95 2315.68 2870.12 2316.71 2870.71 2318.26 2870.71 2320.31 2870.71 2322.32 2870.12 2323.86 2868.95 2324.94 2868.06 2325.73 2866.96 2326.12 2865.64 2326.12 2864.31 2326.12 2863.21 2325.73 2862.33 2324.94 2861.15 2323.86 2860.56 2322.32 2860.56 2320.31 2860.56 2318.26 2861.15 2316.71 2862.33 2315.68 2863.21 2314.9 2864.31 2314.51 2865.64 2314.51ZM2614.57 2293.35C2612.32 2293.35 2610.38 2294.96 2608.76 2298.2 2607.05 2301.53 2606.19 2306.06 2606.19 2311.79 2606.19 2314.43 2606.44 2316.37 2606.93 2317.59 2608.05 2320.44 2609.65 2321.86 2611.71 2321.86 2615.48 2321.86 2618.32 2318.97 2620.23 2313.19 2620.58 2311.23 2620.75 2308.46 2620.75 2304.88 2620.75 2301.84 2620.53 2299.54 2620.09 2297.98 2618.81 2294.89 2616.97 2293.35 2614.57 2293.35ZM2687.65 2293.2C2685.15 2293.2 2682.99 2294.82 2681.18 2298.05 2679.46 2301.09 2678.61 2305.71 2678.61 2311.94 2678.61 2314.78 2678.97 2317.03 2679.71 2318.7 2680.64 2320.8 2682.31 2321.86 2684.71 2321.86 2687.21 2321.86 2689.49 2320.02 2691.55 2316.35 2692.48 2313.41 2693.26 2307.14 2693.9 2297.53 2692.38 2294.64 2690.3 2293.2 2687.65 2293.2ZM2541.72 2292.68C2539.76 2292.68 2537.97 2293.81 2536.35 2296.06 2535.12 2297.68 2534.34 2300.13 2534 2303.41L2549.29 2303.41C2549.29 2300.13 2548.75 2297.66 2547.67 2295.99 2546.2 2293.79 2544.22 2292.68 2541.72 2292.68ZM2575.09 2289.97C2575.93 2289.97 2577.03 2290.33 2578.4 2291.07 2579.92 2291.95 2580.68 2292.9 2580.68 2293.93 2580.68 2294.33 2580.56 2295.72 2580.31 2298.12 2579.92 2303.56 2579.72 2312.03 2579.72 2323.55 2579.72 2325.75 2579.16 2326.85 2578.03 2326.85 2576.81 2326.85 2575.8 2326.27 2575.02 2325.09 2574.43 2324.26 2574.14 2323.11 2574.14 2321.64 2574.53 2313.36 2574.8 2304.2 2574.95 2294.15 2573.82 2293.27 2573.11 2292.61 2572.81 2292.17 2572.91 2291.53 2573.06 2291.07 2573.26 2290.77 2573.89 2290.24 2574.5 2289.97 2575.09 2289.97ZM2659.71 2289.16C2660.79 2289.16 2662.11 2289.55 2663.68 2290.33 2664.47 2290.77 2664.86 2291.39 2664.86 2292.17 2664.86 2292.66 2664.54 2293.42 2663.9 2294.45 2663.22 2295.38 2662.43 2295.84 2661.55 2295.84 2661.11 2295.84 2659.91 2295.65 2657.95 2295.26 2656.14 2295.26 2654.27 2296.31 2652.36 2298.42 2650.45 2300.47 2649.27 2302.82 2648.83 2305.47 2648.49 2307.33 2648.32 2313.28 2648.32 2323.33 2648.32 2325.78 2647.75 2327 2646.63 2327 2645.35 2327 2644.37 2326.61 2643.69 2325.82 2642.8 2324.84 2642.36 2323.69 2642.36 2322.37 2642.36 2321.88 2642.66 2320.95 2643.24 2319.58 2643.73 2310.52 2644.05 2301.77 2644.2 2293.35 2643.47 2292.12 2643.02 2291.29 2642.88 2290.85 2642.88 2290.31 2643.05 2289.94 2643.39 2289.75 2644.13 2289.45 2644.81 2289.3 2645.45 2289.3 2646.28 2289.3 2647.29 2289.84 2648.46 2290.92 2649.25 2291.61 2649.64 2292.34 2649.64 2293.12 2649.64 2293.91 2649.57 2294.91 2649.42 2296.14 2651.18 2293.79 2653.37 2291.85 2655.96 2290.33 2657.34 2289.55 2658.59 2289.16 2659.71 2289.16ZM2687.06 2288.79C2689.56 2288.79 2692.01 2289.67 2694.41 2291.44 2694.9 2289.92 2695.59 2289.16 2696.47 2289.16 2697.5 2289.16 2698.36 2289.48 2699.05 2290.11 2699.68 2290.75 2700 2291.63 2700 2292.76 2700 2293.54 2699.68 2294.91 2699.05 2296.87 2697.48 2309.76 2696.69 2316.54 2696.69 2317.23 2696.69 2320.12 2697.18 2321.56 2698.16 2321.56 2699.05 2321.56 2699.93 2321.17 2700.81 2320.39 2701.5 2319.75 2702.06 2319.43 2702.5 2319.43 2703.28 2319.43 2703.68 2319.97 2703.68 2321.05 2703.68 2321.78 2703.14 2322.66 2702.06 2323.69 2700.25 2325.26 2698.53 2326.04 2696.91 2326.04 2694.85 2326.04 2693.46 2324.7 2692.72 2322 2690.12 2325.14 2687.09 2326.71 2683.61 2326.71 2680.42 2326.71 2677.9 2325.43 2676.03 2322.88 2673.98 2320.09 2672.95 2316.52 2672.95 2312.16 2672.95 2305.74 2674.07 2300.55 2676.33 2296.58 2679.22 2291.39 2682.8 2288.79 2687.06 2288.79ZM2713.38 2288.5C2714.46 2288.5 2715.73 2289.5 2717.2 2291.51 2719.07 2289.75 2720.78 2288.86 2722.35 2288.86 2724.21 2288.86 2725.81 2289.79 2727.13 2291.66 2729.48 2289.75 2731.69 2288.79 2733.75 2288.79 2735.66 2288.79 2737.2 2289.45 2738.38 2290.77 2739.7 2292.34 2740.36 2294.1 2740.36 2296.06 2740.36 2297 2740.29 2298.07 2740.14 2299.3 2739.7 2309.05 2739.48 2316.88 2739.48 2322.81 2739.48 2325.26 2738.87 2326.49 2737.64 2326.49 2736.17 2326.49 2735.07 2325.9 2734.33 2324.72 2733.75 2323.79 2733.45 2322.93 2733.45 2322.15 2733.45 2321.61 2733.7 2320.85 2734.19 2319.87 2734.92 2305.57 2735.29 2297.51 2735.29 2295.7 2735.29 2294.91 2735.04 2294.28 2734.55 2293.79 2734.21 2293.44 2733.72 2293.27 2733.08 2293.27 2730.88 2293.27 2729.33 2294.55 2728.45 2297.09 2727.96 2307.04 2727.62 2316.03 2727.42 2324.06 2727.23 2325.73 2726.61 2326.56 2725.58 2326.56 2724.46 2326.56 2723.55 2326 2722.86 2324.87 2722.33 2324.04 2722.06 2323.3 2722.06 2322.66 2722.06 2322.22 2722.25 2321.29 2722.64 2319.87 2723.04 2311.3 2723.33 2303.53 2723.53 2296.58 2723.28 2294.72 2722.45 2293.79 2721.03 2293.79 2719.7 2293.79 2718.48 2295.33 2717.35 2298.42 2716.67 2307.63 2716.32 2315.37 2716.32 2321.64 2716.32 2324.97 2715.71 2326.63 2714.48 2326.63 2713.16 2326.63 2712.16 2326.07 2711.47 2324.94 2710.83 2323.96 2710.51 2323.15 2710.51 2322.52 2710.51 2322.13 2710.73 2321.22 2711.18 2319.8L2712.43 2292.32C2711.64 2291.34 2711.22 2290.7 2711.18 2290.41 2711.27 2289.92 2711.47 2289.48 2711.76 2289.08 2712.35 2288.69 2712.89 2288.5 2713.38 2288.5ZM2542.38 2288.35C2546.54 2288.35 2549.7 2289.99 2551.86 2293.27 2553.92 2296.36 2554.95 2300.18 2554.95 2304.74 2554.95 2306.69 2553.97 2307.67 2552.01 2307.67L2533.63 2307.67C2533.53 2308.8 2533.48 2310.05 2533.48 2311.42 2533.48 2312.84 2533.68 2314.29 2534.07 2315.76 2535.15 2319.68 2537.57 2321.64 2541.35 2321.64 2544.29 2321.64 2547.47 2319.97 2550.91 2316.64 2551.74 2315.61 2552.42 2315.1 2552.96 2315.1 2554.04 2315.1 2554.58 2315.51 2554.58 2316.35 2554.58 2316.88 2554.09 2317.84 2553.11 2319.21 2549.48 2324.06 2545.73 2326.49 2541.86 2326.49 2537.4 2326.49 2534.02 2324.92 2531.72 2321.78 2529.46 2318.65 2528.34 2314.9 2528.34 2310.54 2528.34 2303 2529.56 2297.66 2532.01 2294.52 2535.1 2290.41 2538.55 2288.35 2542.38 2288.35ZM2496.13 2276.3C2497.16 2276.3 2498.14 2276.64 2499.08 2277.33 2500.55 2278.21 2501.28 2279.16 2501.28 2280.19 2501.28 2280.98 2501.13 2282.15 2500.84 2283.72L2499.3 2321.49 2509.96 2321.49C2511.18 2320.95 2512.04 2320.68 2512.53 2320.68 2514.05 2320.68 2515.47 2321.15 2516.79 2322.08 2517.82 2322.71 2518.34 2323.6 2518.34 2324.72 2518.34 2325.51 2517.58 2325.9 2516.06 2325.9L2496.87 2325.9C2495.55 2325.9 2494.66 2325.58 2494.22 2324.94 2493.68 2324.16 2493.41 2323.5 2493.41 2322.96 2493.41 2322.62 2493.71 2321.44 2494.3 2319.43L2495.55 2280.19C2494.81 2279.7 2494.3 2279.09 2494 2278.36 2494 2277.77 2494.12 2277.3 2494.37 2276.96 2495.11 2276.52 2495.69 2276.3 2496.13 2276.3ZM2800.5 2276C2804.81 2276 2808.2 2278.16 2810.65 2282.47 2811.77 2284.48 2812.34 2286.07 2812.34 2287.25 2812.34 2287.98 2811.94 2288.77 2811.16 2289.6 2810.38 2290.38 2809.47 2290.77 2808.44 2290.77 2807.51 2290.77 2806.9 2289.26 2806.6 2286.22 2804.79 2282.35 2802.93 2280.41 2801.01 2280.41 2798.71 2280.41 2796.7 2281.81 2794.99 2284.6 2792.34 2288.67 2791.02 2295.16 2791.02 2304.07 2791.02 2309.66 2791.38 2313.43 2792.12 2315.39 2793.59 2319.46 2796.19 2321.49 2799.91 2321.49 2802.9 2321.49 2805.74 2319.6 2808.44 2315.83 2809.86 2313.63 2810.84 2312.52 2811.38 2312.52 2812.36 2312.52 2812.85 2313.01 2812.85 2313.99 2812.85 2315.32 2812.19 2316.96 2810.87 2318.92 2807.34 2323.96 2803.59 2326.49 2799.62 2326.49 2794.18 2326.49 2790.33 2324.13 2788.08 2319.43 2786.36 2315.9 2785.5 2311.45 2785.5 2306.06 2785.5 2294.06 2787.56 2285.73 2791.68 2281.07 2794.57 2277.69 2797.51 2276 2800.5 2276ZM2578.62 2275.2C2579.8 2275.2 2580.8 2275.61 2581.64 2276.45 2582.42 2277.23 2582.81 2278.26 2582.81 2279.53 2582.81 2280.71 2582.4 2281.76 2581.56 2282.69 2580.73 2283.47 2579.7 2283.87 2578.47 2283.87 2576.96 2283.87 2575.83 2283.25 2575.09 2282.03 2574.65 2281.25 2574.43 2280.36 2574.43 2279.38 2574.43 2278.11 2574.92 2277.03 2575.9 2276.15 2576.59 2275.51 2577.49 2275.2 2578.62 2275.2ZM2621.7 2273.06C2622.88 2273.06 2624.11 2273.63 2625.38 2274.75 2626.95 2276.08 2627.73 2277.16 2627.73 2277.99 2627.73 2278.58 2627.59 2279.53 2627.29 2280.85 2626.12 2291.93 2625.48 2301.92 2625.38 2310.83 2625.28 2317.79 2625.23 2322.15 2625.23 2323.91 2625.23 2325.78 2624.74 2326.71 2623.76 2326.71 2622.44 2326.71 2621.43 2326.19 2620.75 2325.16 2620.31 2324.53 2620.09 2323.67 2620.09 2322.59 2616.95 2325.29 2614.13 2326.63 2611.63 2326.63 2608.05 2326.63 2605.43 2325.31 2603.77 2322.66 2601.8 2319.58 2600.82 2316.15 2600.82 2312.38 2600.82 2305.32 2601.93 2299.91 2604.13 2296.14 2606.88 2291.34 2610.23 2288.94 2614.2 2288.94 2616.66 2288.94 2618.96 2289.84 2621.12 2291.66 2621.26 2286.95 2621.43 2282.23 2621.63 2277.47 2620.45 2275.76 2619.87 2274.71 2619.87 2274.31 2619.87 2273.48 2620.48 2273.06 2621.7 2273.06ZM2825.79 2272.99C2827.07 2272.99 2828.29 2273.53 2829.47 2274.61 2830.69 2275.59 2831.3 2276.54 2831.3 2277.47 2831.3 2278.06 2831.13 2279.11 2830.79 2280.63 2830.4 2282.49 2830.03 2286.83 2829.69 2293.64 2832.68 2290.16 2835.91 2288.42 2839.39 2288.42 2841.74 2288.42 2843.7 2289.18 2845.27 2290.7 2847.63 2293.05 2848.8 2295.92 2848.8 2299.3 2848.8 2306.94 2848.78 2314.61 2848.73 2322.3 2848.68 2325.19 2848.02 2326.63 2846.74 2326.63 2845.57 2326.63 2844.59 2326.09 2843.8 2325.02 2843.02 2323.94 2842.63 2323.03 2842.63 2322.3 2842.63 2321.71 2842.8 2320.9 2843.14 2319.87 2843.39 2309.19 2843.51 2303.24 2843.51 2302.02 2843.51 2296.04 2841.94 2293.05 2838.8 2293.05 2837.04 2293.05 2835.13 2294.1 2833.07 2296.21 2831.5 2297.78 2830.3 2299.93 2829.47 2302.68 2829.12 2308.65 2828.88 2315.41 2828.73 2322.96 2828.73 2325.26 2828.17 2326.41 2827.04 2326.41 2825.91 2326.41 2825.01 2325.95 2824.32 2325.02 2823.49 2323.89 2823.07 2322.98 2823.07 2322.3 2823.07 2321.71 2823.24 2320.8 2823.58 2319.58 2823.88 2313.45 2824.42 2299.35 2825.2 2277.25 2824.17 2276.13 2823.66 2275.24 2823.66 2274.61 2824.25 2273.53 2824.96 2272.99 2825.79 2272.99ZM2948.26 2214.47 2940.52 2218.67C2942.99 2219.91 2945.57 2220.81 2948.26 2221.37ZM2948.26 2194.12C2935.02 2198.71 2928.4 2202.19 2928.4 2204.55 2928.4 2207.01 2929.97 2209.76 2933.11 2212.79 2937.83 2208.86 2942.88 2204.21 2948.26 2198.83ZM2863.63 2171.58C2868.34 2171.58 2872.66 2172.76 2876.59 2175.11 2880.74 2177.91 2882.81 2180.72 2882.81 2183.52 2882.81 2189.8 2879.45 2192.94 2872.72 2192.94 2869.13 2192.94 2864.75 2192.66 2859.59 2192.1 2850.06 2191.2 2839.9 2190.75 2829.13 2190.75 2822.06 2190.75 2807.37 2192.32 2785.04 2195.46 2778.2 2197.03 2773.82 2197.82 2771.91 2197.82 2766.19 2197.82 2760.19 2195.46 2753.91 2190.75 2749.98 2188.06 2748.02 2185.03 2748.02 2181.67 2748.02 2179.09 2748.75 2177.8 2750.2 2177.8 2751.33 2177.8 2753.96 2178.81 2758.11 2180.83 2791.1 2177.35 2824.03 2175.28 2856.9 2174.61 2859.59 2172.59 2861.84 2171.58 2863.63 2171.58ZM2581.21 2171.58C2585.92 2171.58 2590.24 2172.76 2594.16 2175.11 2598.31 2177.91 2600.39 2180.72 2600.39 2183.52 2600.39 2189.8 2597.02 2192.94 2590.29 2192.94 2586.7 2192.94 2582.33 2192.66 2577.17 2192.1 2567.63 2191.2 2557.48 2190.75 2546.71 2190.75 2539.64 2190.75 2524.94 2192.32 2502.61 2195.46 2495.77 2197.03 2491.4 2197.82 2489.49 2197.82 2483.77 2197.82 2477.76 2195.46 2471.48 2190.75 2467.55 2188.06 2465.59 2185.03 2465.59 2181.67 2465.59 2179.09 2466.32 2177.8 2467.78 2177.8 2468.9 2177.8 2471.54 2178.81 2475.69 2180.83 2508.67 2177.35 2541.6 2175.28 2574.47 2174.61 2577.17 2172.59 2579.41 2171.58 2581.21 2171.58ZM2711.14 2148.87 2710.64 2157.62 2721.07 2157.28C2717.71 2154.7 2714.4 2151.9 2711.14 2148.87ZM2438.48 2136.42C2441.73 2136.42 2445.6 2139.12 2450.09 2144.5 2453.79 2148.53 2455.64 2152.57 2455.64 2156.61 2455.64 2162.33 2452 2165.19 2444.7 2165.19 2431.8 2173.93 2418.79 2180.66 2405.66 2185.37 2403.19 2214.19 2391.25 2234.93 2369.82 2247.61 2361.96 2252.09 2357.14 2254.33 2355.34 2254.33 2353.66 2254.33 2352.82 2253.44 2352.82 2251.64 2352.82 2250.3 2353.66 2248.95 2355.34 2247.61 2375.2 2229.78 2385.64 2206.73 2386.65 2178.47 2382.49 2175 2380.42 2172.48 2380.42 2170.91 2380.42 2169.78 2381.15 2168.49 2382.61 2167.04 2383.95 2165.58 2385.52 2164.85 2387.32 2164.85 2389.67 2164.85 2392.14 2165.63 2394.72 2167.2 2398.76 2169.9 2401.45 2172.48 2402.8 2174.94 2412.11 2168.66 2420.19 2160.93 2427.03 2151.73 2409.98 2151.73 2389.51 2156.55 2365.61 2166.2 2361.57 2167.32 2358.32 2167.88 2355.85 2167.88 2352.71 2167.88 2348.78 2165.92 2344.07 2161.99 2339.36 2157.73 2337 2154.42 2337 2152.07 2337 2149.94 2338.01 2148.87 2340.03 2148.87 2341.71 2148.87 2343.79 2149.54 2346.26 2150.89 2379.58 2143.82 2408.3 2139.68 2432.42 2138.44 2435.22 2137.1 2437.24 2136.42 2438.48 2136.42ZM2976.53 2124.82C2979.56 2124.82 2983.88 2125.83 2989.49 2127.85 2993.53 2129.53 2995.55 2132.78 2995.55 2137.6 2995.55 2142.87 2993.14 2146.18 2988.31 2147.53 2980.91 2149.43 2972.27 2151.28 2962.4 2153.08 2964.3 2156.33 2965.26 2159.02 2965.26 2161.15 2965.26 2162.38 2964.7 2166.36 2963.57 2173.09 2967.95 2172.53 2971.09 2172.25 2973 2172.25 2975.47 2172.25 2978.55 2173.43 2982.25 2175.78 2986.07 2178.59 2987.98 2181.22 2987.98 2183.69 2987.98 2186.27 2985.62 2188.29 2980.91 2189.74 2972.83 2196.02 2966.27 2201.07 2961.22 2204.88L2960.55 2229.61C2970.08 2228.94 2980.07 2228.09 2990.5 2227.08 2996.67 2222.94 3000.94 2220.86 3003.29 2220.86 3006.77 2220.86 3012.04 2223.16 3019.11 2227.76 3023.04 2230.34 3025 2233.7 3025 2237.85 3025 2243.57 3022.2 2246.43 3016.59 2246.43 3013.67 2246.43 3005.98 2245.87 2993.53 2244.75 2984.67 2243.96 2974.12 2243.57 2961.89 2243.57 2953.81 2243.57 2940.46 2246.2 2921.84 2251.47 2918.25 2252.71 2914.27 2253.32 2909.89 2253.32 2906.75 2253.32 2902.32 2251.14 2896.6 2246.76 2893.57 2244.41 2892.05 2242.22 2892.05 2240.2 2892.05 2237.74 2892.95 2236.5 2894.74 2236.5 2896.54 2236.5 2899.12 2237.06 2902.49 2238.19 2913.37 2236.62 2926.05 2234.6 2940.52 2232.13 2939.17 2229.44 2936.59 2226.24 2932.78 2222.54 2924.92 2225.8 2917.07 2228.49 2909.22 2230.62 2916.29 2226.24 2922.62 2221.59 2928.23 2216.66 2925.88 2213.85 2923.35 2210.77 2920.66 2207.41 2916.73 2204.04 2914.77 2200.4 2914.77 2196.47 2914.77 2193 2917.13 2189.8 2921.84 2186.88 2928.12 2183.52 2936.87 2180.21 2948.09 2176.96 2948.09 2166.08 2947.92 2159.13 2947.59 2156.1 2941.64 2156.44 2937.49 2156.61 2935.13 2156.61 2931.88 2156.61 2928.51 2155.49 2925.04 2153.24 2917.74 2148.09 2914.04 2143.82 2913.93 2140.46 2914.04 2139.12 2915.05 2138.16 2916.96 2137.6 2917.97 2137.6 2919.99 2138.22 2923.02 2139.45 2934.91 2137.55 2949.66 2134.85 2967.28 2131.38 2970.98 2127 2974.06 2124.82 2976.53 2124.82ZM2694.99 2123.14C2697.9 2123.14 2702.28 2125.38 2708.11 2129.86 2712.15 2133.12 2714.17 2136.31 2714.17 2139.45 2714.17 2140.46 2713.39 2142.31 2711.82 2145 2715.18 2148.37 2720.9 2151.56 2728.98 2154.59 2737.06 2156.05 2741.1 2159.47 2741.1 2164.85 2741.1 2170.34 2738.07 2173.09 2732.01 2173.09 2730.33 2173.09 2722.81 2172.7 2709.46 2171.91 2706.65 2191.2 2702.73 2206 2697.68 2216.32 2690.84 2230.67 2679.78 2241.66 2664.53 2249.29 2659.37 2252.2 2655.72 2253.66 2653.59 2253.66 2651.91 2253.66 2651.06 2252.93 2651.06 2251.47 2651.06 2249.9 2652.02 2248.45 2653.92 2247.1 2675.47 2227.7 2687.81 2202.98 2690.95 2172.92 2680.18 2174.05 2669.18 2175.78 2657.96 2178.14L2656.45 2196.3C2660.26 2192.38 2663.97 2187.78 2667.56 2182.51L2668.23 2183.02C2666.66 2189.07 2663.91 2195.97 2659.98 2203.7 2659.31 2213.12 2656.9 2217.83 2652.75 2217.83 2648.15 2217.83 2644.67 2214.69 2642.31 2208.41 2640.52 2201.46 2639.62 2196.25 2639.62 2192.77 2639.62 2191.2 2639.9 2187.67 2640.46 2182.17 2636.09 2183.07 2632.66 2183.52 2630.2 2183.52 2627.05 2183.52 2622.17 2181.67 2615.55 2177.97 2611.4 2175.84 2609.33 2173.43 2609.33 2170.74 2609.33 2168.27 2610.45 2167.04 2612.69 2167.04 2613.59 2167.04 2615.89 2167.6 2619.59 2168.72 2626.77 2167.93 2634.01 2166.98 2641.3 2165.86 2640.85 2158.12 2640.24 2151.84 2639.45 2147.02 2638.22 2145 2637.04 2143.1 2635.92 2141.3 2634.46 2140.07 2633.73 2138.83 2633.73 2137.6 2633.73 2135.7 2634.91 2134.74 2637.26 2134.74 2640.41 2134.74 2643.72 2135.86 2647.19 2138.11 2653.25 2142.82 2656.84 2151.23 2657.96 2163.34 2668.96 2161.54 2680.46 2159.97 2692.46 2158.63 2692.35 2149.77 2692.29 2141.92 2692.29 2135.08 2687.47 2131.94 2685.06 2129.3 2685.06 2127.17 2685.06 2125.94 2686.24 2124.93 2688.59 2124.15 2691.28 2123.47 2693.42 2123.14 2694.99 2123.14ZM2622.99 2083.14C2622.88 2083.13 2622.75 2083.15 2622.62 2083.21 2622.13 2083.42 2622.19 2083.91 2622.18 2084.33 2622.09 2086.67 2621.73 2088.99 2621.37 2091.51 2620.77 2094.86 2619.99 2098.15 2618.91 2101.39 2618.2 2103.5 2617.29 2105.53 2616.55 2107.63 2616 2109.18 2616.26 2109.49 2617.84 2109.63 2620.11 2109.82 2622.36 2109.68 2624.61 2109.34 2631.16 2108.34 2637.06 2105.82 2642.42 2101.97 2643.78 2100.99 2643.78 2100.68 2642.43 2099.64 2635.92 2094.69 2629.66 2089.44 2623.84 2083.69 2623.58 2083.44 2623.33 2083.16 2622.99 2083.14ZM2728.08 2082.76C2727.73 2082.83 2727.48 2083.21 2727.22 2083.46 2721.72 2088.82 2715.88 2093.79 2709.63 2098.52 2709.26 2098.81 2708.89 2099.1 2708.53 2099.4 2707.45 2100.26 2707.47 2100.75 2708.61 2101.56 2715.89 2106.77 2723.93 2109.59 2732.96 2109.31 2734.92 2109.24 2735.2 2108.89 2734.49 2107.06 2731.64 2099.67 2729.05 2092.22 2729.22 2084.14 2729.23 2083.57 2729.05 2083 2728.48 2082.79 2728.33 2082.73 2728.2 2082.73 2728.08 2082.76ZM2675.61 2034C2679.95 2034.01 2683.67 2036.7 2684.58 2040.71 2685.58 2045.11 2684 2049.46 2679.77 2051.63 2677.85 2052.62 2677.66 2053.16 2678.35 2055.2 2681.7 2065.05 2685.86 2074.52 2691.59 2083.24 2694.17 2087.17 2696.94 2090.96 2700.31 2094.28 2701.42 2095.38 2701.77 2095.39 2702.98 2094.4 2709.8 2088.82 2716.53 2083.14 2722.46 2076.59 2724.7 2074.13 2726.82 2071.57 2728.75 2068.85 2729.72 2067.48 2729.65 2066.88 2728.49 2065.53 2724.25 2060.62 2726.6 2052.57 2732.9 2051 2738.05 2049.72 2742.74 2051.51 2744.25 2056.8 2745.71 2061.9 2743.99 2066.55 2738.35 2068.55 2735.21 2069.66 2735.18 2069.62 2735.27 2072.9 2735.58 2084.2 2737.69 2095.1 2742.5 2105.39 2743.33 2107.15 2743.54 2107.23 2745.4 2106.5 2751.56 2104.08 2756.96 2100.44 2761.9 2096.1 2767.04 2091.59 2771.49 2086.44 2775.66 2081.04 2776.8 2079.56 2776.82 2079.1 2775.6 2077.65 2772.91 2074.49 2773.3 2067.93 2776.64 2065.13 2780.32 2062.05 2786.04 2062.08 2789.4 2065.4 2794.24 2070.18 2792.46 2078.41 2786.1 2080.7 2785.31 2080.98 2784.5 2081.11 2783.67 2081.03 2782.08 2080.86 2780.98 2081.58 2780.13 2082.85 2776.85 2087.76 2773.49 2092.63 2770.27 2097.58 2762.76 2109.09 2755.85 2120.95 2749.34 2133.05 2748.47 2134.67 2747.62 2136.3 2746.75 2137.92 2746.56 2138.27 2746.45 2138.77 2745.86 2138.69 2745.42 2138.31 2745.67 2137.89 2745.8 2137.5 2748.4 2129.66 2751.39 2121.97 2754.79 2114.44 2755.56 2112.73 2756.32 2111.02 2757.07 2109.29 2757.22 2108.93 2757.65 2108.49 2757.19 2108.13 2756.78 2107.81 2756.39 2108.24 2756.03 2108.43 2751.22 2111.05 2746.21 2113.08 2740.84 2114.22 2736.62 2115.12 2732.36 2115.07 2728.1 2114.93 2727.67 2114.92 2727.24 2114.88 2726.7 2114.84 2720.74 2114.23 2715.31 2112.33 2710.19 2109.5 2701.29 2104.6 2694.28 2097.65 2688.56 2089.35 2683.36 2081.8 2679.29 2073.68 2676.49 2064.93 2676.33 2064.42 2676.23 2063.85 2675.62 2063.56 2674.89 2063.85 2674.86 2064.59 2674.66 2065.18 2671.83 2073.87 2667.93 2082.03 2662.7 2089.53 2657.82 2096.51 2652.04 2102.66 2644.93 2107.42 2637.53 2112.38 2629.45 2115.21 2620.4 2115.39 2611.47 2115.57 2603.32 2113.23 2595.59 2109.02 2595.21 2108.81 2594.83 2108.62 2594.44 2108.45 2594.3 2108.39 2594.14 2108.38 2593.99 2108.35 2593.56 2108.91 2593.91 2109.35 2594.11 2109.79 2597.89 2118.04 2601.37 2126.42 2604.38 2134.98 2604.93 2136.53 2605.47 2138.08 2605.98 2139.64 2606.09 2139.95 2606.32 2140.28 2606.03 2140.69 2605.38 2140.78 2605.26 2140.2 2605.05 2139.79 2602.51 2134.85 2599.93 2129.93 2597.21 2125.08 2593.96 2119.28 2590.61 2113.54 2587.14 2107.86 2582.05 2099.55 2576.65 2091.44 2571.16 2083.39 2570.29 2082.13 2569.27 2081.47 2567.67 2081.45 2562.28 2081.38 2559.33 2077.32 2558.89 2072.92 2558.37 2067.74 2562.1 2064.37 2565.57 2063.52 2572.2 2061.9 2577.43 2066.54 2577.41 2072.08 2577.4 2074.54 2576.75 2076.63 2575.14 2078.43 2574.43 2079.22 2574.38 2079.95 2575.04 2080.83 2579.92 2087.33 2585.24 2093.42 2591.63 2098.5 2595.91 2101.9 2600.54 2104.74 2605.59 2106.86 2607.21 2107.54 2607.97 2107.28 2608.68 2105.69 2610.97 2100.57 2612.81 2095.29 2613.97 2089.81 2615.28 2083.68 2615.91 2077.47 2615.78 2071.19 2615.75 2069.79 2615.31 2069.29 2613.83 2069.04 2609.97 2068.38 2606.96 2065.43 2606.47 2061.82 2605.86 2057.33 2607.8 2053.49 2611.61 2051.69 2615.27 2049.95 2620.04 2050.99 2622.63 2054.08 2625.25 2057.21 2625.43 2062.17 2623.04 2065.44 2621.33 2067.79 2621.32 2067.8 2623.13 2070.2 2628.02 2076.71 2633.66 2082.51 2639.84 2087.79 2642.57 2090.13 2645.36 2092.41 2648.15 2094.68 2649.49 2095.78 2649.81 2095.74 2651 2094.48 2656.25 2088.92 2660.49 2082.64 2664.09 2075.92 2667.77 2069.08 2670.64 2061.89 2673.1 2054.54 2673.51 2053.3 2673.25 2052.66 2671.97 2052.13 2667.29 2050.22 2665.49 2045.46 2666.53 2041.04 2667.45 2037.13 2671.51 2033.99 2675.61 2034Z" fill="#FFFFFF" fill-rule="evenodd"/>
    <path d="M2177.74 2150 2200 2171.9 2222.26 2150 2231 2158.6 2208.74 2180.5 2231 2202.4 2222.26 2211 2200 2189.1 2177.74 2211 2169 2202.4 2191.26 2180.5 2169 2158.6Z" fill="#FFFFFF" fill-rule="evenodd"/>
  </g>
</svg>