<svg width="2752" height="1011" xmlns="http://www.w3.org/2000/svg" xmlns:xlink="http://www.w3.org/1999/xlink" xml:space="preserve" overflow="hidden"><defs><clipPath id="clip0"><rect x="824" y="732" width="2752" height="1011"/></clipPath></defs><g clip-path="url(#clip0)" transform="translate(-824 -732)"><path d="M2174.34 1558.42C2169.61 1558.51 2166.1 1559.45 2163.82 1561.23 2161.55 1563 2160.07 1565.03 2159.39 1567.31 2158.71 1569.59 2158.41 1571.54 2158.48 1573.15 2158.39 1576.05 2159.25 1578.49 2161.07 1580.45 2162.88 1582.41 2166.17 1583.43 2170.94 1583.5 2175.67 1583.31 2178.55 1582 2179.58 1579.56 2180.61 1577.12 2181.02 1574.71 2180.81 1572.34 2180.81 1571.8 2180.78 1570.6 2180.73 1568.75 2180.68 1566.89 2180.62 1564.98 2180.57 1563.03 2180.52 1561.08 2180.49 1559.71 2180.49 1558.9 2179.77 1558.81 2178.9 1558.71 2177.9 1558.6 2176.89 1558.49 2175.71 1558.43 2174.34 1558.42ZM1853.72 1557.77C1851.87 1557.57 1849.55 1557.63 1846.76 1557.93 1843.97 1558.24 1841.47 1559.33 1839.26 1561.22 1837.05 1563.11 1835.88 1566.33 1835.75 1570.88 1835.85 1574.56 1836.87 1577.19 1838.83 1578.77 1840.79 1580.35 1843.1 1581.12 1845.79 1581.08 1849.82 1580.83 1852.28 1579.54 1853.15 1577.21 1854.03 1574.88 1854.38 1572.99 1854.21 1571.53 1854.19 1569.86 1854.1 1567.57 1853.96 1564.65 1853.82 1561.73 1853.74 1559.44 1853.72 1557.77ZM1663.55 1555.83C1657.47 1555.84 1652.63 1557.31 1649.02 1560.26 1645.42 1563.2 1643.57 1567.55 1643.48 1573.31 1643.58 1577.64 1644.91 1580.79 1647.47 1582.73 1650.02 1584.68 1653.17 1585.64 1656.91 1585.61 1662.81 1585.78 1666.35 1583.66 1667.53 1579.25 1668.72 1574.85 1669.06 1567.15 1668.57 1556.15 1668 1556.14 1667.31 1556.08 1666.48 1555.99 1665.66 1555.9 1664.68 1555.84 1663.55 1555.83ZM3233.14 1518.76 3365.21 1518.76C3367.86 1518.91 3369.77 1519.88 3370.94 1521.68 3372.11 1523.48 3372.68 1525.26 3372.66 1527.02 3372.69 1528.78 3372.14 1530.56 3371 1532.36 3369.86 1534.16 3367.93 1535.13 3365.21 1535.27L3232.98 1535.27C3230.41 1535.14 3228.55 1534.19 3227.4 1532.44 3226.24 1530.69 3225.68 1528.93 3225.7 1527.18 3225.66 1525.34 3226.22 1523.52 3227.36 1521.7 3228.5 1519.88 3230.43 1518.9 3233.14 1518.76ZM3109.65 1479.6C3108.25 1479.65 3107.13 1480.12 3106.28 1481.01 3105.42 1481.91 3104.98 1482.95 3104.96 1484.13L3104.96 1570.72C3104.98 1571.9 3105.42 1572.94 3106.28 1573.83 3107.13 1574.73 3108.25 1575.2 3109.65 1575.25L3165.01 1575.25C3166.41 1575.2 3167.53 1574.73 3168.38 1573.83 3169.24 1572.94 3169.68 1571.9 3169.7 1570.72L3169.7 1484.13C3169.68 1482.95 3169.24 1481.91 3168.38 1481.01 3167.53 1480.12 3166.41 1479.65 3165.01 1479.6ZM2312.88 1478.47C2309.41 1479.65 2305.83 1481.45 2302.14 1483.85 2298.45 1486.25 2294.58 1490.39 2290.55 1496.27 2286.78 1502.07 2283.83 1509.2 2281.68 1517.65 2279.54 1526.11 2278.45 1535.54 2278.41 1545.95 2278.34 1547.51 2278.47 1550.42 2278.8 1554.69 2279.13 1558.95 2280.05 1563 2281.57 1566.84 2283.09 1570.67 2285.59 1572.72 2289.09 1572.98 2291.57 1572.8 2293.76 1571.03 2295.67 1567.67 2297.58 1564.31 2299.2 1560.46 2300.53 1556.13 2301.86 1551.8 2302.9 1548.08 2303.65 1544.98 2305.79 1536.18 2307.5 1527.43 2308.78 1518.75 2310.06 1510.06 2311.01 1502.18 2311.64 1495.1 2312.27 1488.02 2312.68 1482.47 2312.88 1478.47ZM2758.93 1471.83 2868.34 1471.83C2870.32 1471.85 2871.91 1472.38 2873.11 1473.41 2874.32 1474.44 2874.94 1475.86 2874.98 1477.66 2874.94 1479.6 2874.32 1481.09 2873.11 1482.11 2871.91 1483.12 2870.32 1483.64 2868.34 1483.64L2828.85 1483.64 2828.85 1570.88 2877.73 1570.88C2879.7 1570.89 2881.29 1571.39 2882.5 1572.4 2883.71 1573.4 2884.33 1574.83 2884.36 1576.71 2884.33 1578.58 2883.71 1580.05 2882.5 1581.1 2881.29 1582.14 2879.7 1582.68 2877.73 1582.69L2749.54 1582.69C2747.57 1582.67 2745.98 1582.15 2744.77 1581.12 2743.56 1580.08 2742.94 1578.67 2742.91 1576.87 2742.94 1574.92 2743.56 1573.43 2744.77 1572.42 2745.98 1571.4 2747.57 1570.89 2749.54 1570.88L2798.42 1570.88 2798.42 1483.64 2758.93 1483.64C2756.96 1483.62 2755.36 1483.1 2754.16 1482.07 2752.95 1481.03 2752.33 1479.62 2752.3 1477.82 2752.33 1475.87 2752.95 1474.39 2754.16 1473.37 2755.36 1472.35 2756.96 1471.84 2758.93 1471.83ZM3090.72 1467.78 3183.94 1467.78C3188.41 1467.9 3192.09 1469.44 3194.99 1472.4 3197.88 1475.35 3199.38 1478.99 3199.48 1483.32L3199.48 1571.53C3199.38 1575.86 3197.88 1579.5 3194.99 1582.45 3192.09 1585.4 3188.41 1586.94 3183.94 1587.06L3090.72 1587.06C3086.25 1586.94 3082.56 1585.4 3079.67 1582.45 3076.78 1579.5 3075.28 1575.86 3075.18 1571.53L3075.18 1483.32C3075.28 1478.99 3076.78 1475.35 3079.67 1472.4 3082.56 1469.44 3086.25 1467.9 3090.72 1467.78ZM2331.82 1463.25C2343.02 1463.15 2353.93 1465.08 2364.55 1469.04 2375.16 1473 2383.95 1479.61 2390.91 1488.86 2397.87 1498.11 2401.48 1510.61 2401.73 1526.37 2401.48 1542.57 2397.58 1555.65 2390.04 1565.62 2382.5 1575.59 2372.86 1582.84 2361.11 1587.39 2355.79 1589.4 2350.85 1590.88 2346.3 1591.82 2341.75 1592.76 2338.92 1593.22 2337.8 1593.21 2336.12 1593.19 2334.64 1592.59 2333.35 1591.43 2332.07 1590.27 2331.4 1588.71 2331.33 1586.74 2331.38 1584.4 2332.13 1582.76 2333.6 1581.82 2335.06 1580.88 2336.95 1580.09 2339.26 1579.46 2347.67 1576.62 2354.32 1572.26 2359.2 1566.35 2364.08 1560.45 2367.55 1553.83 2369.6 1546.49 2371.66 1539.15 2372.66 1531.9 2372.6 1524.75 2372.39 1513.19 2370.41 1504.25 2366.66 1497.95 2362.91 1491.65 2358.67 1487.13 2353.95 1484.39 2349.23 1481.65 2345.3 1479.83 2342.17 1478.95 2340.13 1502.31 2337.32 1522.08 2333.75 1538.26 2330.19 1554.45 2325.21 1566.75 2318.82 1575.17 2312.43 1583.59 2303.98 1587.82 2293.46 1587.87 2284.77 1587.71 2277.54 1585.19 2271.76 1580.31 2265.99 1575.42 2261.66 1569.14 2258.78 1561.45 2255.89 1553.76 2254.45 1545.63 2254.45 1537.05 2254.45 1524.47 2257.28 1512.61 2262.97 1501.45 2268.65 1490.29 2277.21 1481.19 2288.67 1474.15 2300.12 1467.11 2314.51 1463.48 2331.82 1463.25ZM1902.44 1462.6C1903.73 1462.58 1904.95 1463.03 1906.1 1463.94 1907.25 1464.85 1907.86 1466.35 1907.94 1468.43 1907.98 1469.85 1907.62 1471.13 1906.87 1472.27 1906.11 1473.41 1904.75 1474.13 1902.76 1474.42 1901.17 1474.64 1898.86 1474.86 1895.84 1475.09 1892.82 1475.32 1889.88 1475.52 1887.02 1475.69 1884.16 1475.86 1882.18 1475.98 1881.07 1476.04 1881.07 1477.91 1881.09 1480.57 1881.11 1484.02 1881.14 1487.46 1881.17 1490.83 1881.19 1494.12 1881.22 1497.4 1881.23 1499.74 1881.23 1501.12 1882.66 1501.12 1885.19 1501.05 1888.8 1500.9 1892.41 1500.76 1896.31 1500.56 1900.49 1500.31 1901.03 1500.3 1901.94 1500.25 1903.24 1500.15 1904.55 1500.06 1905.46 1500 1906 1499.99 1906.71 1499.93 1907.71 1500.26 1909.01 1500.98 1910.31 1501.71 1911.03 1503.21 1911.18 1505.49 1911.25 1506.66 1911.02 1507.97 1910.47 1509.4 1909.92 1510.83 1908.59 1511.69 1906.48 1511.97 1904.66 1512.13 1902.22 1512.29 1899.15 1512.44 1896.08 1512.59 1892.93 1512.73 1889.7 1512.84 1886.47 1512.96 1883.7 1513.04 1881.4 1513.1 1881.64 1518.95 1881.88 1524.85 1882.12 1530.8 1882.37 1536.75 1882.61 1542.61 1882.85 1548.38 1885.14 1548.92 1888.04 1549.75 1891.55 1550.89 1895.06 1552.03 1899.01 1553.68 1903.41 1555.83 1907.04 1557.51 1909.73 1559.21 1911.48 1560.93 1913.23 1562.65 1914.1 1564.99 1914.09 1567.97 1914.02 1571.62 1912.82 1574.92 1910.49 1577.86 1908.15 1580.8 1905.09 1582.36 1901.3 1582.53 1899.47 1582.56 1897.95 1582.14 1896.75 1581.28 1895.55 1580.41 1893.99 1578.94 1892.08 1576.87 1890.1 1574.83 1888.47 1573.28 1887.18 1572.23 1885.89 1571.19 1884.67 1570.25 1883.5 1569.42 1883.54 1572.9 1882.92 1576.63 1881.67 1580.6 1880.41 1584.57 1877.31 1587.98 1872.39 1590.83 1867.46 1593.69 1859.51 1595.18 1848.54 1595.32 1842.88 1595.39 1837.17 1594.79 1831.43 1593.53 1825.68 1592.26 1820.85 1589.87 1816.94 1586.37 1813.03 1582.88 1810.99 1577.82 1810.83 1571.2 1810.95 1564.37 1813.22 1558.73 1817.65 1554.29 1822.07 1549.85 1827.95 1546.8 1835.27 1545.15 1838.5 1544.45 1841.47 1544.02 1844.17 1543.87 1846.87 1543.72 1849.84 1543.66 1853.07 1543.69 1852.86 1538.14 1852.71 1533.7 1852.62 1530.39 1852.54 1527.07 1852.49 1524.2 1852.5 1521.76 1852.5 1519.33 1852.53 1516.66 1852.59 1513.75 1849.18 1513.8 1845.17 1513.85 1840.54 1513.9 1835.91 1513.94 1831.68 1513.97 1827.84 1513.98 1824.01 1513.98 1821.57 1513.96 1820.54 1513.91 1818.8 1513.85 1817.38 1513.36 1816.27 1512.45 1815.16 1511.54 1814.59 1510.09 1814.55 1508.08 1814.48 1506.4 1814.87 1504.95 1815.71 1503.71 1816.55 1502.48 1818.26 1501.83 1820.86 1501.77 1821.69 1501.77 1823.68 1501.76 1826.83 1501.75 1829.99 1501.73 1833.5 1501.71 1837.35 1501.69 1841.21 1501.67 1844.61 1501.65 1847.54 1501.63 1850.47 1501.62 1852.13 1501.61 1852.51 1501.61L1852.67 1476.85C1851.6 1476.85 1849.59 1476.88 1846.63 1476.93 1843.68 1476.98 1840.74 1477.03 1837.8 1477.09 1834.87 1477.14 1832.89 1477.17 1831.87 1477.17 1827.14 1477.3 1823.73 1477.04 1821.65 1476.4 1819.57 1475.76 1818.55 1473.97 1818.6 1471.02 1818.77 1468 1819.72 1466.15 1821.43 1465.5 1823.14 1464.84 1824.57 1464.58 1825.72 1464.71 1835.73 1464.71 1843.89 1464.71 1850.2 1464.69 1856.5 1464.68 1861.76 1464.63 1865.95 1464.57 1870.15 1464.5 1874.09 1464.39 1877.78 1464.23 1881.46 1464.07 1885.69 1463.86 1890.46 1463.58 1891.2 1463.51 1892.45 1463.4 1894.21 1463.25 1895.97 1463.1 1897.68 1462.96 1899.33 1462.82 1900.98 1462.69 1902.02 1462.61 1902.44 1462.6ZM1794.32 1460.01C1795.67 1459.96 1797.47 1460.16 1799.71 1460.63 1801.95 1461.09 1803.99 1462.16 1805.82 1463.83 1807.65 1465.5 1808.62 1468.11 1808.73 1471.67 1808.71 1472.7 1808.58 1474.43 1808.34 1476.85 1808.1 1479.27 1807.86 1481.68 1807.6 1484.08 1807.34 1486.48 1807.18 1488.17 1807.11 1489.15 1806.51 1495.85 1806.01 1501.96 1805.6 1507.49 1805.19 1513.02 1804.88 1518.56 1804.67 1524.11 1804.46 1529.65 1804.36 1535.8 1804.36 1542.56 1804.38 1548.72 1804.5 1554.12 1804.72 1558.76 1804.94 1563.4 1805.15 1567.71 1805.33 1571.69 1805.43 1572.83 1805.55 1574.71 1805.71 1577.31 1805.87 1579.92 1805.96 1581.71 1805.97 1582.69 1805.86 1586.04 1804.88 1588.52 1803.03 1590.12 1801.18 1591.72 1799.13 1592.76 1796.89 1593.23 1794.64 1593.7 1792.87 1593.91 1791.57 1593.86 1785.2 1593.72 1781.27 1591.98 1779.76 1588.62 1778.24 1585.27 1777.54 1581.13 1777.65 1576.22 1777.48 1571.14 1777.33 1565.84 1777.21 1560.34 1777.08 1554.83 1777.01 1549.5 1777 1544.34 1777 1533.21 1777.25 1522.2 1777.73 1511.32 1778.22 1500.44 1778.95 1488.94 1779.92 1476.85 1779.98 1472.25 1780.82 1468.33 1782.45 1465.09 1784.07 1461.85 1788.03 1460.16 1794.32 1460.01ZM2116.24 1458.88C2117.13 1458.82 2118.72 1458.98 2121.02 1459.38 2123.32 1459.78 2125.49 1460.79 2127.53 1462.43 2129.57 1464.07 2130.66 1466.72 2130.8 1470.37 2130.78 1471.65 2130.58 1473.79 2130.2 1476.78 2129.83 1479.77 2129.44 1482.75 2129.03 1485.71 2128.62 1488.66 2128.35 1490.73 2128.21 1491.9 2127.69 1496.31 2127.16 1502.34 2126.63 1509.98 2126.11 1517.63 2125.83 1526.65 2125.78 1537.05 2125.79 1539.46 2125.85 1543.1 2125.98 1547.97 2126.1 1552.84 2126.26 1557.77 2126.46 1562.77 2126.65 1567.77 2126.86 1571.66 2127.08 1574.44 2127.38 1577.38 2127.54 1579.39 2127.57 1580.45 2127.59 1581.51 2127.59 1582.42 2127.57 1583.18 2127.45 1587.15 2126.46 1590 2124.59 1591.72 2122.73 1593.44 2120.68 1594.49 2118.45 1594.87 2116.23 1595.24 2114.52 1595.39 2113.32 1595.32 2110.58 1595.48 2107.85 1594.92 2105.11 1593.64 2102.37 1592.36 2100.52 1589.41 2099.57 1584.8 2099.14 1582.23 2098.79 1578.07 2098.53 1572.32 2098.27 1566.57 2098.08 1560.72 2097.96 1554.77 2097.84 1548.82 2097.78 1544.26 2097.79 1541.1 2097.78 1537.28 2097.88 1531.74 2098.07 1524.46 2098.26 1517.18 2098.55 1509.39 2098.96 1501.09 2099.37 1492.79 2099.89 1485.2 2100.54 1478.3 2100.88 1473.94 2101.41 1470.32 2102.12 1467.44 2102.84 1464.57 2104.24 1462.42 2106.34 1461 2108.44 1459.59 2111.73 1458.88 2116.24 1458.88ZM3028.24 1458.23C3026.16 1458.28 3024.38 1459 3022.92 1460.4 3021.46 1461.8 3020.7 1463.61 3020.64 1465.84 3020.69 1468 3021.43 1469.79 3022.86 1471.22 3024.29 1472.65 3026.09 1473.39 3028.24 1473.45 3030.4 1473.38 3032.16 1472.62 3033.55 1471.16 3034.93 1469.7 3035.64 1467.93 3035.69 1465.84 3035.63 1463.68 3034.9 1461.89 3033.48 1460.46 3032.07 1459.03 3030.33 1458.29 3028.24 1458.23ZM2034.66 1458.23C2037.37 1458.31 2039.52 1459.21 2041.12 1460.93 2042.71 1462.64 2043.53 1464.71 2043.57 1467.14 2043.7 1468.87 2043.19 1470.46 2042.03 1471.89 2040.87 1473.32 2038.25 1475.84 2034.18 1479.44 2028.99 1483.96 2023.91 1488.63 2018.95 1493.44 2013.98 1498.24 2009.18 1503.23 2004.56 1508.41 2006.59 1507.97 2009.21 1507.55 2012.41 1507.13 2015.61 1506.72 2019.85 1506.49 2025.12 1506.46 2035.82 1506.61 2044.26 1508.39 2050.45 1511.8 2056.64 1515.21 2061.18 1519.36 2064.06 1524.25 2066.94 1529.14 2068.78 1533.89 2069.57 1538.49 2070.35 1543.09 2070.7 1546.66 2070.59 1549.19 2070.36 1561.28 2067.3 1570.7 2061.4 1577.45 2055.5 1584.2 2048.16 1589.03 2039.38 1591.96 2030.6 1594.89 2021.77 1596.67 2012.9 1597.31 2004.03 1597.94 1996.5 1598.2 1990.32 1598.07 1982.17 1598.2 1976.66 1597.93 1973.79 1597.26 1970.92 1596.59 1969.58 1594.7 1969.76 1591.6 1969.93 1588.57 1970.98 1586.73 1972.92 1586.07 1974.86 1585.41 1976.72 1585.15 1978.5 1585.28 1984.35 1585.37 1990.02 1585.2 1995.52 1584.78 2001.02 1584.36 2006.73 1583.18 2012.65 1581.24 2019.81 1578.99 2025.81 1575.15 2030.66 1569.71 2035.51 1564.26 2038.03 1557.1 2038.23 1548.22 2038.04 1538.78 2035.34 1531.8 2030.13 1527.28 2024.93 1522.76 2018.35 1520.51 2010.39 1520.55 2003.2 1520.41 1996.21 1522.38 1989.41 1526.45 1982.61 1530.53 1974.93 1537.51 1966.36 1547.41 1963.3 1550.96 1961.01 1553.33 1959.51 1554.51 1958 1555.7 1956.24 1556.24 1954.23 1556.15 1950.29 1556.01 1946.88 1554.48 1944.01 1551.56 1941.14 1548.64 1939.64 1545.21 1939.5 1541.26 1939.44 1539.22 1939.92 1537.47 1940.94 1536.02 1941.95 1534.57 1943.84 1532.54 1946.62 1529.93 1950.76 1525.83 1955.42 1521.05 1960.6 1515.59 1965.77 1510.13 1970.39 1505.31 1974.46 1501.12 1978.11 1497.47 1981.19 1494.4 1983.7 1491.9 1986.2 1489.4 1988.91 1486.72 1991.82 1483.86 1994.72 1481 1998.59 1477.21 2003.43 1472.48 2000.11 1472.76 1995.99 1473.06 1991.07 1473.38 1986.14 1473.7 1981.22 1473.98 1976.3 1474.22 1971.37 1474.45 1967.25 1474.57 1963.94 1474.58 1961.18 1474.43 1959.33 1473.56 1958.41 1471.99 1957.49 1470.42 1957.07 1469.07 1957.14 1467.95 1957.3 1464.96 1958.28 1463.04 1960.07 1462.16 1961.87 1461.28 1963.54 1460.89 1965.07 1460.99 1974.6 1460.97 1984.07 1460.76 1993.49 1460.38 2002.92 1459.99 2012.43 1459.55 2022.04 1459.04 2022.77 1458.98 2024.02 1458.89 2025.78 1458.76 2027.54 1458.64 2029.29 1458.52 2031.03 1458.41 2032.77 1458.3 2033.98 1458.24 2034.66 1458.23ZM2934.54 1458.07C2941.39 1458.29 2945.68 1459.8 2947.4 1462.62 2949.12 1465.45 2949.85 1468.3 2949.59 1471.18L2949.59 1511.16C2959.66 1509.42 2969.06 1507.03 2977.79 1503.98 2986.52 1500.92 2995.36 1496.95 3004.29 1492.06 3007.56 1490.24 3010.04 1488.99 3011.74 1488.32 3013.43 1487.65 3015.1 1487.33 3016.75 1487.37 3021.22 1487.63 3024.63 1489.33 3026.97 1492.47 3029.31 1495.6 3030.49 1498.59 3030.51 1501.45 3030.59 1505.02 3028.89 1507.71 3025.41 1509.52 3021.93 1511.33 3016.19 1513.17 3008.18 1515.04 3000.02 1517.04 2992.03 1518.74 2984.21 1520.16 2976.39 1521.57 2969.42 1522.67 2963.3 1523.47 2957.19 1524.27 2952.62 1524.75 2949.59 1524.91L2949.59 1567.97C2949.5 1572.57 2950.41 1575.88 2952.34 1577.87 2954.26 1579.87 2957.73 1581.09 2962.75 1581.53 2967.77 1581.96 2974.87 1582.13 2984.06 1582.05 2993.99 1582.05 3001.65 1581.88 3007.04 1581.52 3012.44 1581.16 3017.19 1580.58 3021.29 1579.78 3022.18 1579.58 3023.55 1579.33 3025.39 1579.01 3027.24 1578.69 3028.57 1578.52 3029.38 1578.49 3031.01 1578.5 3032.52 1579.12 3033.93 1580.33 3035.34 1581.54 3036.08 1583.24 3036.18 1585.45 3036.22 1587.68 3035.49 1589.36 3033.99 1590.48 3032.49 1591.61 3029.98 1592.35 3026.46 1592.73 3024.94 1592.89 3022.54 1593.05 3019.27 1593.2 3015.99 1593.34 3011.28 1593.46 3005.12 1593.56 2998.97 1593.65 2990.82 1593.7 2980.66 1593.7 2965.64 1593.87 2953.67 1593.49 2944.74 1592.54 2935.82 1591.6 2929.41 1589.04 2925.51 1584.88 2921.62 1580.71 2919.72 1573.89 2919.81 1564.41L2919.81 1471.02C2919.72 1469.59 2919.9 1467.87 2920.35 1465.87 2920.81 1463.86 2922.08 1462.08 2924.17 1460.53 2926.26 1458.98 2929.72 1458.16 2934.54 1458.07ZM2192.3 1456.62C2197.29 1456.67 2200.91 1457.44 2203.18 1458.92 2205.44 1460.4 2206.86 1462.24 2207.43 1464.46 2208.01 1466.67 2208.25 1468.91 2208.16 1471.18 2208.16 1471.88 2208.12 1473.56 2208.04 1476.22 2207.96 1478.88 2207.88 1481.56 2207.81 1484.27 2207.73 1486.99 2207.69 1488.77 2207.68 1489.63 2210.2 1489.38 2212.8 1489.11 2215.49 1488.82 2218.17 1488.53 2220.37 1488.26 2222.08 1488.01 2222.6 1487.92 2223.39 1487.79 2224.47 1487.63 2225.55 1487.47 2226.26 1487.38 2226.62 1487.37 2227.62 1487.31 2228.73 1487.71 2229.95 1488.56 2231.18 1489.41 2231.85 1491.07 2231.96 1493.52 2232.05 1495.58 2231.54 1497.1 2230.4 1498.1 2229.27 1499.09 2226.94 1499.81 2223.42 1500.27 2219.9 1500.72 2214.6 1501.17 2207.52 1501.61 2207.46 1513.57 2207.43 1522.61 2207.42 1528.7 2207.41 1534.8 2207.44 1539.32 2207.51 1542.27 2207.57 1545.22 2207.68 1547.96 2207.84 1550.49 2209.49 1551.07 2211.9 1552.08 2215.08 1553.52 2218.27 1554.96 2222.54 1557.18 2227.91 1560.2 2230.95 1561.79 2233.37 1563.42 2235.17 1565.09 2236.98 1566.77 2237.9 1569.13 2237.94 1572.17 2237.92 1575.52 2236.91 1578.66 2234.91 1581.58 2232.91 1584.5 2230.03 1586.06 2226.29 1586.25 2224.67 1586.34 2223.26 1585.96 2222.04 1585.12 2220.83 1584.28 2218.85 1582.44 2216.1 1579.62 2214.57 1578.1 2213.29 1576.88 2212.23 1575.96 2211.18 1575.03 2210.25 1574.25 2209.46 1573.63 2209.17 1576.93 2208.22 1580.43 2206.61 1584.13 2205 1587.82 2201.56 1590.98 2196.28 1593.62 2191.01 1596.25 2182.72 1597.62 2171.43 1597.75 2158.28 1597.76 2148.56 1595.71 2142.27 1591.62 2135.98 1587.52 2132.86 1581.31 2132.91 1572.98 2133.11 1565.14 2135.42 1559.11 2139.82 1554.9 2144.23 1550.69 2149.51 1547.8 2155.66 1546.24 2161.81 1544.67 2167.61 1543.93 2173.04 1544.01 2174.51 1544.02 2175.86 1544.05 2177.09 1544.11 2178.32 1544.18 2179.34 1544.25 2180.17 1544.34 2179.9 1537.15 2179.69 1531.31 2179.55 1526.84 2179.4 1522.36 2179.29 1518.37 2179.22 1514.84 2179.14 1511.32 2179.08 1507.4 2179.03 1503.07 2168.65 1503.3 2160.85 1503.44 2155.65 1503.49 2150.44 1503.54 2146.53 1503.56 2143.91 1503.55 2141.53 1503.68 2139.37 1503.42 2137.44 1502.76 2135.5 1502.1 2134.48 1500.26 2134.36 1497.24 2134.4 1495.21 2134.98 1493.65 2136.1 1492.57 2137.23 1491.48 2138.7 1490.94 2140.51 1490.93 2141.55 1490.93 2143.27 1490.96 2145.69 1491.01 2148.1 1491.06 2150.5 1491.12 2152.87 1491.17 2155.25 1491.22 2156.9 1491.25 2157.83 1491.25 2161.43 1491.25 2165.03 1491.21 2168.63 1491.15 2172.23 1491.09 2175.59 1491.01 2178.71 1490.93 2178.7 1489.77 2178.66 1487.84 2178.58 1485.14 2178.5 1482.43 2178.43 1479.75 2178.35 1477.08 2178.27 1474.41 2178.23 1472.55 2178.22 1471.51 2177.98 1468.05 2178.67 1464.76 2180.29 1461.63 2181.91 1458.5 2185.91 1456.83 2192.3 1456.62ZM3443.38 1453.86C3445.69 1453.84 3448.2 1454.21 3450.91 1454.97 3453.61 1455.74 3455.95 1457.03 3457.93 1458.85 3459.9 1460.68 3460.93 1463.17 3461.02 1466.33 3461.04 1468.01 3460.65 1469.9 3459.85 1472.01 3459.06 1474.12 3457.77 1477.03 3456.01 1480.73L3508.93 1480.73C3512.23 1480.76 3515.15 1481.92 3517.69 1484.21 3520.24 1486.5 3521.58 1489.77 3521.72 1494 3521.79 1494.61 3521.27 1497.87 3520.13 1503.79 3519 1509.71 3516.79 1517.05 3513.52 1525.83 3510.25 1534.6 3505.45 1543.57 3499.12 1552.74 3492.78 1561.92 3484.46 1570.07 3474.13 1577.19 3467.46 1581.53 3460.65 1585.03 3453.68 1587.7 3446.72 1590.37 3440.14 1592.41 3433.95 1593.82 3427.76 1595.23 3422.49 1596.21 3418.14 1596.77 3417.64 1596.85 3416.36 1597.03 3414.3 1597.31 3412.25 1597.59 3410.11 1597.86 3407.88 1598.13 3405.66 1598.39 3404.06 1598.54 3403.08 1598.55 3401.2 1598.51 3399.71 1597.91 3398.61 1596.77 3397.52 1595.63 3396.96 1594.23 3396.93 1592.57 3396.96 1590.24 3397.79 1588.67 3399.42 1587.85 3401.05 1587.04 3403.3 1586.4 3406.16 1585.93 3414.22 1584.58 3422.43 1582.39 3430.78 1579.34 3439.14 1576.29 3447.18 1571.73 3454.9 1565.66 3462.63 1559.59 3469.58 1551.35 3475.75 1540.94 3479.74 1533.82 3482.73 1527.11 3484.71 1520.8 3486.7 1514.49 3488.01 1509.21 3488.64 1504.97 3489.27 1500.73 3489.56 1498.15 3489.51 1497.24 3489.52 1495.98 3489.22 1494.9 3488.6 1493.98 3487.98 1493.07 3486.99 1492.59 3485.63 1492.55L3449.37 1492.55C3446.94 1496.5 3443.22 1501.37 3438.22 1507.15 3433.22 1512.93 3426.47 1518.69 3417.97 1524.43 3416.36 1525.47 3414.16 1526.8 3411.37 1528.41 3408.59 1530.02 3405.85 1531.46 3403.16 1532.75 3400.46 1534.03 3398.44 1534.71 3397.09 1534.79 3395.42 1534.76 3393.96 1534.2 3392.73 1533.11 3391.49 1532.01 3390.84 1530.52 3390.78 1528.64 3390.72 1527.14 3391.13 1525.89 3392.02 1524.89 3392.9 1523.9 3394.65 1522.45 3397.26 1520.55 3404.22 1515.23 3409.79 1509.47 3413.99 1503.26 3418.18 1497.05 3421.32 1491.19 3423.42 1485.66 3425.51 1480.13 3426.88 1475.74 3427.52 1472.48 3428.72 1465.82 3430.25 1461.04 3432.11 1458.13 3433.98 1455.22 3437.74 1453.8 3443.38 1453.86ZM2671.37 1453.62C2664.71 1457.47 2644.93 1467.45 2612.02 1483.55 2452.36 1562.68 2372.53 1633.76 2372.53 1696.78 2372.53 1707.64 2376.55 1716.74 2384.61 1724.09 2392.66 1731.45 2402.99 1735.12 2415.59 1735.12 2454.11 1735.12 2491.57 1715.43 2527.99 1676.04 2564.4 1636.65 2610.09 1566.01 2665.07 1464.12 2665.07 1464.12 2667.17 1460.62 2671.37 1453.62ZM3508.22 1453.46C3508.96 1453.33 3509.74 1453.35 3510.55 1453.54 3511.82 1454 3513.75 1455.44 3516.34 1457.88 3518.93 1460.32 3521.32 1462.97 3523.53 1465.82 3525.74 1468.67 3526.92 1470.94 3527.06 1472.64 3527 1474.41 3526.3 1475.97 3524.95 1477.31 3523.61 1478.66 3521.93 1479.37 3519.94 1479.44 3518.34 1479.49 3517.08 1479.02 3516.17 1478.02 3515.26 1477.02 3514.09 1475.17 3512.65 1472.48 3511.7 1470.84 3510.74 1469.33 3509.76 1467.95 3508.79 1466.56 3507.22 1464.4 3505.05 1461.47 3504.79 1461.23 3504.54 1460.86 3504.3 1460.36 3504.06 1459.86 3503.93 1459.2 3503.91 1458.4 3504 1456.59 3504.72 1455.23 3506.08 1454.33 3506.76 1453.88 3507.47 1453.59 3508.22 1453.46ZM1681.35 1452.89C1686.38 1452.96 1689.99 1453.81 1692.17 1455.45 1694.35 1457.08 1695.68 1459.08 1696.16 1461.45 1696.63 1463.82 1696.82 1466.15 1696.73 1468.43 1696.72 1469.48 1696.69 1471.23 1696.65 1473.67 1696.6 1476.12 1696.57 1477.82 1696.57 1478.79 1699.17 1478.79 1701.41 1478.79 1703.3 1478.76 1705.18 1478.75 1707.3 1478.69 1709.63 1478.6 1711.97 1478.51 1715.11 1478.35 1719.06 1478.14 1719.99 1478.08 1721.54 1477.97 1723.72 1477.82 1725.9 1477.67 1728.03 1477.52 1730.1 1477.39 1732.18 1477.25 1733.51 1477.18 1734.11 1477.17 1736.49 1477.3 1738.09 1478.06 1738.93 1479.46 1739.77 1480.86 1740.16 1482.14 1740.1 1483.32 1740.01 1486.19 1739.03 1487.98 1737.17 1488.68 1735.31 1489.39 1733.16 1489.76 1730.72 1489.79 1725.28 1490.06 1719.6 1490.33 1713.66 1490.6 1707.72 1490.87 1702.08 1490.98 1696.73 1490.93 1696.73 1492.14 1696.74 1494.12 1696.77 1496.87 1696.8 1499.63 1696.82 1502.35 1696.85 1505.05 1696.87 1507.75 1696.89 1509.62 1696.89 1510.67 1698.39 1510.66 1700.9 1510.58 1704.42 1510.42 1707.94 1510.26 1711.7 1510.07 1715.72 1509.86 1719.74 1509.65 1723.26 1509.47 1726.27 1509.31 1729.28 1509.15 1731.03 1509.06 1731.52 1509.05 1732.75 1509.01 1733.98 1509.46 1735.21 1510.39 1736.43 1511.32 1737.09 1512.98 1737.19 1515.37 1737.09 1518.4 1736.2 1520.3 1734.52 1521.07 1732.84 1521.84 1730.98 1522.2 1728.94 1522.16 1728.16 1522.23 1725.86 1522.33 1722.04 1522.49 1718.21 1522.64 1713.94 1522.78 1709.24 1522.92 1704.53 1523.05 1700.47 1523.13 1697.05 1523.13 1697.11 1524.47 1697.18 1526.7 1697.26 1529.82 1697.34 1532.94 1697.42 1536.04 1697.49 1539.1 1697.57 1542.17 1697.64 1544.29 1697.7 1545.47 1701.68 1546.73 1706.42 1548.38 1711.9 1550.41 1717.38 1552.44 1723.49 1555.05 1730.23 1558.26 1735.82 1560.95 1739.53 1563.41 1741.34 1565.64 1743.15 1567.87 1743.98 1570.21 1743.82 1572.66 1743.79 1576.29 1742.6 1579.75 1740.24 1583.06 1737.89 1586.36 1734.55 1588.13 1730.23 1588.36 1728.86 1588.41 1727.62 1588.23 1726.52 1587.81 1725.41 1587.39 1723.91 1586.41 1722.02 1584.86 1720.12 1583.31 1717.3 1580.86 1713.56 1577.51 1713.43 1577.33 1711.99 1576.16 1709.25 1573.99 1706.51 1571.83 1702.77 1569.28 1698.02 1566.35 1698.1 1571.97 1697.94 1576.26 1697.54 1579.21 1697.13 1582.17 1696 1585 1694.14 1587.71 1690.6 1592.52 1685.66 1595.73 1679.31 1597.32 1672.96 1598.92 1666.52 1599.65 1659.99 1599.53 1654.63 1599.63 1648.75 1599.06 1642.33 1597.83 1635.91 1596.6 1630.35 1594.08 1625.64 1590.27 1620.93 1586.47 1618.46 1580.76 1618.23 1573.15 1618.37 1566.56 1620.12 1561.16 1623.49 1556.96 1626.86 1552.76 1631.04 1549.47 1636.03 1547.09 1642.07 1544.22 1647.72 1542.47 1652.99 1541.85 1658.26 1541.22 1663.34 1540.97 1668.24 1541.1 1668.16 1539.19 1668.04 1536.42 1667.9 1532.78 1667.75 1529.15 1667.6 1525.94 1667.43 1523.13 1664.48 1523.14 1660.37 1523.13 1655.1 1523.12 1649.84 1523.11 1644.62 1523.08 1639.46 1523.04 1634.3 1522.99 1630.41 1522.92 1627.78 1522.81 1625.8 1522.73 1624.21 1522.16 1623.01 1521.09 1621.8 1520.02 1621.18 1518.44 1621.15 1516.34 1621.02 1515.79 1621.31 1514.66 1622.01 1512.94 1622.72 1511.22 1624.59 1510.25 1627.62 1510.03 1629.99 1510.03 1633.93 1510.09 1639.44 1510.19 1644.95 1510.3 1650.41 1510.4 1655.83 1510.5 1661.25 1510.61 1665.01 1510.66 1667.11 1510.67L1667.11 1490.93C1656.89 1490.93 1648.44 1490.92 1641.78 1490.89 1635.12 1490.85 1629.43 1490.76 1624.71 1490.6 1623.41 1490.64 1621.91 1490.32 1620.21 1489.63 1618.51 1488.94 1617.58 1487.16 1617.42 1484.29 1617.4 1482.98 1617.81 1481.68 1618.68 1480.39 1619.54 1479.1 1621.01 1478.4 1623.09 1478.3 1624.91 1478.31 1627.85 1478.33 1631.9 1478.38 1635.94 1478.43 1640.35 1478.48 1645.12 1478.55 1649.89 1478.61 1654.26 1478.67 1658.25 1478.71 1662.24 1478.76 1665.08 1478.79 1666.79 1478.79 1666.78 1478.13 1666.77 1476.84 1666.74 1474.9 1666.72 1472.96 1666.69 1471.08 1666.67 1469.25 1666.64 1467.42 1666.63 1466.33 1666.62 1466 1666.65 1464.52 1666.94 1462.76 1667.49 1460.73 1668.05 1458.71 1669.36 1456.92 1671.42 1455.36 1673.48 1453.8 1676.79 1452.98 1681.35 1452.89ZM2215.61 1448.85C2216.18 1448.85 2216.7 1448.92 2217.19 1449.05 2217.67 1449.18 2218.12 1449.33 2218.52 1449.49 2219.67 1450.25 2221.08 1452.08 2222.73 1455 2224.39 1457.91 2225.86 1460.93 2227.16 1464.06 2228.45 1467.19 2229.13 1469.46 2229.21 1470.86 2229.12 1472.82 2228.36 1474.36 2226.92 1475.47 2225.48 1476.58 2223.87 1477.15 2222.08 1477.17 2219.83 1477.15 2218.27 1476.38 2217.41 1474.86 2216.55 1473.35 2215.84 1471.2 2215.29 1468.43 2214.79 1466.33 2214.2 1464.26 2213.51 1462.24 2212.81 1460.22 2212.06 1458.23 2211.24 1456.29 2211.07 1455.81 2210.92 1455.35 2210.8 1454.92 2210.67 1454.48 2210.6 1454.02 2210.59 1453.54 2210.62 1452.35 2211.09 1451.29 2212.01 1450.34 2212.93 1449.4 2214.13 1448.9 2215.61 1448.85ZM3028.24 1448.36C3033.14 1448.48 3037.22 1450.18 3040.48 1453.46 3043.75 1456.74 3045.44 1460.86 3045.56 1465.84 3045.45 1470.75 3043.78 1474.85 3040.55 1478.16 3037.32 1481.47 3033.22 1483.19 3028.24 1483.32 3023.27 1483.19 3019.14 1481.47 3015.86 1478.16 3012.59 1474.85 3010.89 1470.75 3010.77 1465.84 3010.9 1460.79 3012.62 1456.65 3015.92 1453.4 3019.23 1450.15 3023.34 1448.47 3028.24 1448.36ZM3525.6 1446.74C3526.51 1447 3528.23 1448.07 3530.76 1449.97 3533.29 1451.86 3535.7 1454.03 3537.97 1456.47 3540.25 1458.9 3541.47 1461.06 3541.62 1462.93 3541.57 1464.69 3540.87 1466.22 3539.54 1467.52 3538.21 1468.82 3536.58 1469.5 3534.66 1469.56 3533.24 1469.62 3532.12 1469.26 3531.31 1468.47 3530.49 1467.68 3529.29 1466.1 3527.71 1463.74 3527.07 1462.84 3525.95 1461.43 3524.35 1459.51 3522.74 1457.58 3521.54 1456.13 3520.75 1455.16 3520.33 1454.68 3519.99 1454.18 3519.71 1453.64 3519.44 1453.11 3519.3 1452.48 3519.29 1451.76 3519.38 1449.96 3520.09 1448.62 3521.41 1447.73 3522.74 1446.85 3524.14 1446.52 3525.6 1446.74ZM2232.6 1446.74C2233.02 1446.74 2233.45 1446.78 2233.9 1446.86 2234.35 1446.95 2234.78 1447.07 2235.19 1447.23 2236.15 1447.79 2237.5 1449.29 2239.24 1451.72 2240.98 1454.15 2242.58 1456.71 2244.04 1459.41 2245.5 1462.11 2246.27 1464.14 2246.36 1465.52 2246.27 1467.56 2245.52 1469.14 2244.09 1470.27 2242.67 1471.4 2241.11 1471.97 2239.4 1471.99 2237.29 1472 2235.76 1471.34 2234.81 1470.01 2233.85 1468.68 2233.01 1466.64 2232.28 1463.9 2231.8 1462.66 2230.94 1460.61 2229.69 1457.75 2228.44 1454.89 2227.74 1452.84 2227.59 1451.6 2227.59 1450.48 2228.02 1449.4 2228.88 1448.38 2229.74 1447.36 2230.98 1446.81 2232.6 1446.74ZM2812.12 1112.77C2780.61 1112.77 2738.86 1144.19 2686.86 1207.04 2634.87 1269.89 2608.87 1320.57 2608.87 1359.08 2608.87 1382.54 2619.02 1394.27 2639.33 1394.27 2659.99 1394.27 2695 1363.11 2744.37 1300.79 2806.69 1222.01 2837.86 1168.26 2837.86 1139.55 2837.86 1121.69 2829.28 1112.77 2812.12 1112.77ZM1839.51 1112.77C1813.96 1112.77 1771.06 1153.91 1710.84 1236.19 1664.27 1299.91 1640.99 1343.68 1640.99 1367.49 1640.99 1385.34 1649.22 1394.27 1665.67 1394.27 1697.89 1394.27 1739.99 1362.85 1791.98 1300 1843.98 1237.15 1869.98 1186.12 1869.98 1146.9 1869.98 1124.15 1859.82 1112.77 1839.51 1112.77ZM3513.24 1111.72C3494.68 1111.72 3470.26 1124.58 3439.97 1150.32 3409.69 1176.05 3380.01 1209.4 3350.95 1250.37 3401.37 1237.41 3444.09 1219.12 3479.1 1195.48 3514.11 1171.85 3531.62 1149.53 3531.62 1128.52 3531.62 1117.32 3525.49 1111.72 3513.24 1111.72ZM2486.99 1111.72C2455.13 1111.72 2416.26 1142.18 2370.39 1203.1 2324.53 1264.02 2301.59 1315.32 2301.59 1356.98 2301.59 1381.14 2313.15 1393.22 2336.26 1393.22 2374.07 1393.22 2415.39 1362.06 2460.2 1299.74 2450.05 1288.53 2444.97 1276.98 2444.97 1265.07 2444.97 1247.92 2451.8 1230.23 2465.45 1212.03 2479.11 1193.82 2492.41 1184.72 2505.37 1184.72 2510.97 1184.72 2514.82 1188.22 2516.92 1195.22 2522.53 1182.97 2525.33 1169.31 2525.33 1154.26 2525.33 1125.9 2512.55 1111.72 2486.99 1111.72ZM1508.2 1053.42C1432.84 1053.42 1359.22 1084.67 1287.36 1147.17 1215.49 1209.66 1179.56 1273.48 1179.56 1338.6 1179.56 1357.51 1185.35 1376.76 1196.92 1396.37 1217.25 1400.22 1236 1402.15 1253.18 1402.15 1335.91 1402.15 1416.71 1373.53 1495.59 1316.28 1574.46 1259.03 1613.9 1200.47 1613.9 1140.6 1613.9 1115.39 1603.91 1094.56 1583.93 1078.1 1563.95 1061.65 1538.7 1053.42 1508.2 1053.42ZM2095.13 985.669C2110.19 985.669 2117.72 993.197 2117.72 1008.25 2117.72 1020.51 2112.55 1031.97 2102.22 1042.65 2091.89 1053.33 2080.6 1058.67 2068.35 1058.67 2052.59 1058.67 2044.71 1050.79 2044.71 1035.04 2044.71 1023.48 2050.14 1012.37 2060.99 1001.69 2071.85 991.008 2083.23 985.669 2095.13 985.669ZM3402.85 978.732C3398.13 978.933 3392.53 979.44 3386.06 980.252 3379.59 981.064 3373.2 982.602 3366.91 984.867 3360.61 987.131 3355.37 990.543 3351.18 995.102 3346.98 999.66 3344.81 1005.79 3344.65 1013.48 3344.87 1020.24 3346.71 1025.16 3350.17 1028.22 3353.62 1031.29 3357.32 1033.22 3361.28 1033.99 3365.24 1034.77 3368.09 1035.1 3369.84 1034.98 3376.24 1034.81 3382.5 1033.42 3388.63 1030.8 3394.75 1028.19 3399.49 1025.38 3402.85 1022.38ZM2688.54 978.732C2683.82 978.933 2678.22 979.44 2671.75 980.252 2665.28 981.064 2658.89 982.602 2652.6 984.867 2646.3 987.131 2641.06 990.543 2636.87 995.102 2632.67 999.66 2630.5 1005.79 2630.34 1013.48 2630.56 1020.24 2632.4 1025.16 2635.85 1028.22 2639.31 1031.29 2643.01 1033.22 2646.97 1033.99 2650.93 1034.77 2653.78 1035.1 2655.53 1034.98 2661.93 1034.81 2668.19 1033.42 2674.31 1030.8 2680.44 1028.19 2685.18 1025.38 2688.54 1022.38ZM1804.33 973.589C1813.78 976.741 1823.06 978.316 1832.16 978.316 1841.62 978.316 1853.17 976.741 1866.83 973.589L1710.84 1225.68C1748.3 1175.96 1775.53 1143.4 1792.51 1128 1809.49 1112.59 1826.38 1104.89 1843.19 1104.89 1861.75 1104.89 1877.33 1112.94 1889.93 1129.05 1902.54 1145.15 1908.84 1165.11 1908.84 1188.92 1908.84 1245.99 1873.3 1297.98 1802.23 1344.9 1744.45 1383.07 1699.29 1402.15 1666.72 1402.15 1644.32 1402.15 1633.11 1391.64 1633.11 1370.64 1633.11 1364.33 1634.86 1355.76 1638.36 1344.9L1437.21 1680.5C1424.96 1677.7 1414.98 1676.3 1407.28 1676.3 1395.72 1676.3 1384.34 1678.4 1373.14 1682.6ZM3126.41 930.107C3116.71 930.435 3109.48 933.689 3104.73 939.87 3099.98 946.052 3096.87 953.198 3095.4 961.309 3093.93 969.421 3093.27 976.536 3093.4 982.653 3093.26 988.568 3093.91 995.604 3095.35 1003.76 3096.79 1011.92 3099.89 1019.15 3104.63 1025.45 3109.38 1031.75 3116.64 1035.07 3126.41 1035.42 3136.12 1035.09 3143.35 1031.81 3148.1 1025.6 3152.85 1019.38 3155.96 1012.2 3157.43 1004.05 3158.9 995.906 3159.56 988.773 3159.42 982.653 3159.57 976.877 3158.94 969.924 3157.52 961.792 3156.11 953.661 3153.03 946.434 3148.29 940.111 3143.55 933.789 3136.26 930.454 3126.41 930.107ZM2916.76 930.107C2907.05 930.435 2899.83 933.689 2895.07 939.87 2890.32 946.052 2887.21 953.198 2885.74 961.309 2884.28 969.421 2883.61 976.536 2883.75 982.653 2883.61 988.568 2884.25 995.604 2885.7 1003.76 2887.14 1011.92 2890.23 1019.15 2894.98 1025.45 2899.72 1031.75 2906.99 1035.07 2916.76 1035.42 2926.46 1035.09 2933.69 1031.81 2938.44 1025.6 2943.19 1019.38 2946.3 1012.2 2947.77 1004.05 2949.24 995.906 2949.91 988.773 2949.77 982.653 2949.92 976.877 2949.28 969.924 2947.87 961.792 2946.46 953.661 2943.38 946.434 2938.64 940.111 2933.89 933.789 2926.6 930.454 2916.76 930.107ZM3257.45 929.89C3249.91 930.132 3243.88 932.303 3239.34 936.404 3234.8 940.505 3231.39 945.089 3229.09 950.155 3226.8 955.222 3225.25 959.323 3224.44 962.46L3224.44 1010.88C3225.07 1013.44 3226.35 1016.64 3228.27 1020.48 3230.2 1024.32 3233.34 1027.76 3237.7 1030.81 3242.06 1033.85 3248.21 1035.46 3256.15 1035.63 3266.14 1035.88 3274.01 1031.96 3279.74 1023.88 3285.47 1015.8 3288.39 1002.05 3288.51 982.653 3288.59 979.486 3288.43 975.058 3288.02 969.371 3287.62 963.683 3286.49 957.824 3284.63 951.793 3282.77 945.763 3279.69 940.65 3275.41 936.455 3271.12 932.26 3265.14 930.072 3257.45 929.89ZM3530.21 920.801C3539.89 920.965 3547.82 922.756 3554 926.173 3560.19 929.59 3564.75 933.646 3567.7 938.342 3570.66 943.037 3572.12 947.385 3572.1 951.386 3572.01 954.123 3571.1 956.249 3569.39 957.764 3567.67 959.28 3565.69 960.049 3563.43 960.072 3559.66 959.9 3557.21 958.615 3556.08 956.217 3554.95 953.82 3554.28 951.341 3554.1 948.781 3554.13 947.793 3553.63 945.788 3552.59 942.765 3551.56 939.743 3549.35 936.854 3545.97 934.096 3542.6 931.339 3537.41 929.865 3530.43 929.673 3524.33 929.565 3519.03 931.139 3514.52 934.396 3510 937.653 3507.63 943.244 3507.4 951.169 3507.31 956.896 3509.02 961.021 3512.53 963.545 3516.05 966.07 3521.94 968.458 3530.21 970.711 3538.43 972.973 3545.99 975.517 3552.89 978.343 3559.79 981.168 3565.34 985.031 3569.53 989.931 3573.73 994.831 3575.88 1001.52 3576 1010.01 3576.05 1015.63 3574.65 1021.08 3571.81 1026.34 3568.98 1031.61 3564.42 1035.96 3558.13 1039.39 3551.84 1042.82 3543.55 1044.6 3533.25 1044.72 3527.73 1044.95 3521.34 1044.12 3514.06 1042.23 3506.78 1040.34 3500.45 1036.05 3495.05 1029.34 3492 1024.94 3490.02 1020.87 3489.11 1017.12 3488.21 1013.38 3487.8 1010.93 3487.89 1009.79 3488.15 1005.69 3489.42 1003.04 3491.72 1001.84 3494.01 1000.64 3495.77 1000.11 3497 1000.24 3500.54 1000.29 3502.94 1001.55 3504.18 1004.04 3505.42 1006.53 3506.35 1009.97 3506.97 1014.35 3508.36 1021.11 3510.82 1026.01 3514.35 1029.04 3517.89 1032.07 3521.56 1033.96 3525.36 1034.7 3529.16 1035.44 3532.15 1035.75 3534.33 1035.63 3542.48 1035.45 3548.61 1033.05 3552.71 1028.41 3556.82 1023.78 3558.87 1018.01 3558.88 1011.1 3558.79 1003.62 3556.58 998.214 3552.25 994.867 3547.93 991.519 3542.03 988.823 3534.55 986.778 3525.06 983.94 3517.07 981.197 3510.6 978.551 3504.12 975.906 3499.23 972.584 3495.92 968.588 3492.61 964.591 3490.94 959.147 3490.93 952.255 3491.02 943.249 3494.47 935.808 3501.29 929.932 3508.1 924.056 3517.74 921.012 3530.21 920.801ZM3376.79 920.8C3382.58 920.702 3388.73 921.788 3395.25 924.059 3401.76 926.33 3407.35 930.374 3412.01 936.192 3416.67 942.01 3419.11 950.191 3419.32 960.736L3419.32 1024.77C3419.34 1025.72 3419.47 1026.92 3419.7 1028.38 3419.94 1029.85 3420.17 1031.1 3420.41 1032.16 3420.7 1033.05 3421.15 1034.3 3421.76 1035.93 3422.38 1037.55 3422.72 1038.75 3422.79 1039.53 3422.72 1041.07 3422 1042.31 3420.62 1043.26 3419.25 1044.21 3417.66 1044.7 3415.85 1044.72 3412.82 1044.54 3410.39 1043.07 3408.57 1040.31 3406.75 1037.55 3405.56 1034.62 3405.02 1031.51 3401.77 1033.96 3396.76 1036.7 3390.01 1039.74 3383.26 1042.78 3374.72 1044.44 3364.41 1044.72 3360.05 1044.86 3354.97 1044.25 3349.18 1042.88 3343.38 1041.51 3338.27 1038.54 3333.85 1033.99 3329.44 1029.44 3327.11 1022.46 3326.87 1013.05 3327.04 1003.69 3329.62 996.219 3334.62 990.642 3339.62 985.066 3346.04 980.876 3353.87 978.071 3361.7 975.267 3369.95 973.343 3378.61 972.3 3387.27 971.257 3395.35 970.588 3402.85 970.293L3402.85 961.604C3402.81 951.255 3400.56 943.39 3396.09 938.009 3391.63 932.628 3385.19 929.922 3376.79 929.89 3369.49 930.113 3363.89 931.816 3359.99 934.999 3356.1 938.182 3353.39 941.51 3351.89 944.983 3350.38 948.456 3349.56 950.738 3349.43 951.83 3349.2 953.626 3348.51 955.518 3347.34 957.504 3346.17 959.491 3343.9 960.568 3340.53 960.736 3337.99 960.654 3335.92 959.785 3334.32 958.129 3332.73 956.472 3331.91 954.518 3331.86 952.264 3331.9 948.661 3333.7 944.43 3337.28 939.569 3340.86 934.709 3346 930.415 3352.69 926.689 3359.38 922.962 3367.42 921 3376.79 920.8ZM3126.41 920.8C3136.96 920.941 3146.03 923.793 3153.63 929.357 3161.23 934.921 3167.09 942.356 3171.19 951.659 3175.29 960.963 3177.37 971.294 3177.41 982.653 3177.36 994.151 3175.27 1004.57 3171.14 1013.9 3167.01 1023.23 3161.14 1030.66 3153.53 1036.21 3145.93 1041.75 3136.89 1044.59 3126.41 1044.72 3115.87 1044.58 3106.8 1041.71 3099.2 1036.11 3091.59 1030.51 3085.74 1023.04 3081.64 1013.7 3077.54 1004.36 3075.46 994.014 3075.41 982.653 3075.46 971.362 3077.52 961.063 3081.59 951.756 3085.67 942.448 3091.5 934.998 3099.1 929.405 3106.7 923.813 3115.8 920.945 3126.41 920.8ZM3005.25 920.8C3007.59 920.827 3009.57 921.586 3011.18 923.076 3012.79 924.566 3013.63 926.625 3013.7 929.253L3013.7 943.566C3014.58 940.695 3015.71 938.137 3017.09 935.891 3018.48 933.647 3020.75 931.361 3023.91 929.036 3026.82 926.891 3030.38 925.004 3034.57 923.374 3038.76 921.744 3043.02 920.886 3047.35 920.8 3052.24 921.108 3055.21 922.444 3056.28 924.81 3057.34 927.176 3057.76 928.729 3057.55 929.47 3057.44 933.42 3055.93 935.868 3053.02 936.812 3050.11 937.755 3046.49 938.198 3042.14 938.139 3031.7 938.804 3024.57 941.164 3020.76 945.221 3016.94 949.278 3014.59 952.995 3013.7 956.373L3013.7 1036.26C3013.62 1038.89 3012.76 1040.95 3011.13 1042.44 3009.5 1043.94 3007.61 1044.7 3005.47 1044.72 3003.23 1044.7 3001.31 1043.94 2999.72 1042.44 2998.14 1040.95 2997.3 1038.89 2997.23 1036.26L2997.23 929.253C2997.32 926.625 2998.17 924.566 2999.78 923.076 3001.39 921.586 3003.21 920.827 3005.25 920.8ZM2916.76 920.8C2927.3 920.941 2936.37 923.793 2943.98 929.357 2951.58 934.921 2957.43 942.356 2961.53 951.659 2965.64 960.963 2967.71 971.294 2967.76 982.653 2967.71 994.151 2965.62 1004.57 2961.49 1013.9 2957.35 1023.23 2951.49 1030.66 2943.88 1036.21 2936.27 1041.75 2927.23 1044.59 2916.76 1044.72 2906.22 1044.58 2897.14 1041.71 2889.54 1036.11 2881.94 1030.51 2876.09 1023.04 2871.98 1013.7 2867.88 1004.36 2865.81 994.014 2865.76 982.653 2865.8 971.362 2867.86 961.063 2871.94 951.756 2876.01 942.448 2881.85 934.998 2889.45 929.405 2897.04 923.813 2906.15 920.945 2916.76 920.8ZM2662.48 920.8C2668.27 920.702 2674.42 921.788 2680.94 924.059 2687.45 926.33 2693.04 930.374 2697.7 936.192 2702.36 942.01 2704.8 950.191 2705.01 960.736L2705.01 1024.77C2705.03 1025.72 2705.16 1026.92 2705.39 1028.38 2705.63 1029.85 2705.86 1031.1 2706.1 1032.16 2706.39 1033.05 2706.84 1034.3 2707.45 1035.93 2708.07 1037.55 2708.41 1038.75 2708.48 1039.53 2708.41 1041.07 2707.69 1042.31 2706.31 1043.26 2704.94 1044.21 2703.35 1044.7 2701.54 1044.72 2698.5 1044.54 2696.08 1043.07 2694.26 1040.31 2692.44 1037.55 2691.25 1034.62 2690.71 1031.51 2687.46 1033.96 2682.45 1036.7 2675.7 1039.74 2668.94 1042.78 2660.41 1044.44 2650.1 1044.72 2645.74 1044.86 2640.66 1044.25 2634.87 1042.88 2629.07 1041.51 2623.96 1038.54 2619.54 1033.99 2615.12 1029.44 2612.8 1022.46 2612.56 1013.05 2612.73 1003.69 2615.31 996.219 2620.31 990.642 2625.31 985.066 2631.73 980.876 2639.56 978.071 2647.39 975.267 2655.64 973.343 2664.3 972.3 2672.96 971.257 2681.04 970.588 2688.54 970.293L2688.54 961.604C2688.5 951.255 2686.25 943.39 2681.78 938.009 2677.31 932.628 2670.88 929.922 2662.48 929.89 2655.18 930.113 2649.58 931.816 2645.68 934.999 2641.79 938.182 2639.08 941.51 2637.58 944.983 2636.07 948.456 2635.25 950.738 2635.11 951.83 2634.89 953.626 2634.2 955.518 2633.02 957.504 2631.85 959.491 2629.59 960.568 2626.22 960.736 2623.68 960.654 2621.61 959.785 2620.01 958.129 2618.42 956.472 2617.6 954.518 2617.55 952.264 2617.58 948.661 2619.39 944.43 2622.97 939.569 2626.55 934.709 2631.69 930.415 2638.38 926.689 2645.07 922.962 2653.1 921 2662.48 920.8ZM3216.21 868.702C3218.45 868.743 3220.36 869.53 3221.95 871.063 3223.54 872.596 3224.37 874.631 3224.44 877.168L3224.44 943.352C3228.16 936.315 3232.26 931.185 3236.77 927.963 3241.27 924.741 3245.6 922.712 3249.76 921.876 3253.93 921.04 3257.36 920.681 3260.06 920.8 3273.21 921.123 3283.16 924.696 3289.9 931.521 3296.65 938.344 3301.18 946.484 3303.49 955.937 3305.8 965.391 3306.88 974.224 3306.71 982.435 3306.66 1001.27 3302.54 1016.3 3294.35 1027.5 3286.16 1038.71 3274.23 1044.45 3258.54 1044.72 3248.61 1044.54 3241.21 1042.63 3236.36 1039.01 3231.51 1035.39 3227.53 1031.15 3224.44 1026.3L3224.44 1036.28C3224.36 1038.91 3223.5 1040.96 3221.87 1042.45 3220.24 1043.94 3218.35 1044.7 3216.21 1044.72 3213.97 1044.7 3212.05 1043.94 3210.46 1042.45 3208.88 1040.96 3208.04 1038.91 3207.97 1036.28L3207.97 877.168C3208.06 874.536 3208.92 872.474 3210.55 870.982 3212.18 869.489 3214.06 868.73 3216.21 868.702ZM2749.65 868.702C2751.99 868.743 2753.97 869.53 2755.58 871.063 2757.19 872.596 2758.03 874.631 2758.1 877.168L2758.1 943.132C2761.14 938.118 2765.59 933.229 2771.43 928.466 2777.27 923.703 2785.78 921.147 2796.97 920.8 2803.2 920.687 2809.32 921.683 2815.32 923.785 2821.32 925.889 2826.3 929.776 2830.28 935.448 2834.25 941.119 2836.31 949.252 2836.46 959.847L2836.46 1036.26C2836.37 1038.89 2835.52 1040.95 2833.92 1042.44 2832.31 1043.94 2830.48 1044.7 2828.44 1044.72 2826.1 1044.7 2824.12 1043.94 2822.51 1042.44 2820.9 1040.95 2820.06 1038.89 2819.99 1036.26L2819.99 958.544C2819.72 948.043 2816.96 940.608 2811.71 936.24 2806.47 931.871 2800.4 929.755 2793.5 929.89 2792.06 929.696 2789.12 930.084 2784.66 931.056 2780.2 932.027 2775.45 934.748 2770.41 939.216 2765.37 943.685 2761.27 951.068 2758.1 961.366L2758.1 1036.26C2758.01 1038.89 2757.15 1040.95 2755.52 1042.44 2753.89 1043.94 2752.01 1044.7 2749.86 1044.72 2747.62 1044.7 2745.71 1043.94 2744.12 1042.44 2742.53 1040.95 2741.7 1038.89 2741.63 1036.26L2741.63 877.168C2741.72 874.536 2742.57 872.474 2744.17 870.982 2745.78 869.489 2747.6 868.73 2749.65 868.702ZM2446.73 868.702C2451.49 868.96 2454.73 870.235 2456.45 872.528 2458.17 874.82 2459.13 876.583 2459.33 877.818L2504.92 1021.06C2505.24 1022.29 2505.58 1023.31 2505.96 1024.13 2506.33 1024.95 2506.78 1025.37 2507.31 1025.41 2507.93 1025.43 2508.43 1025.11 2508.81 1024.46 2509.18 1023.8 2509.62 1022.67 2510.14 1021.06L2554.43 877.818C2555.76 874.209 2557.77 871.768 2560.45 870.493 2563.14 869.218 2565.69 868.621 2568.1 868.702 2572.39 868.73 2575.79 869.869 2578.32 872.121 2580.84 874.373 2582.13 877.574 2582.19 881.725L2582.19 1035.39C2582.08 1038.34 2581.11 1040.63 2579.26 1042.25 2577.42 1043.88 2575.36 1044.7 2573.09 1044.72 2570.72 1044.7 2568.63 1043.88 2566.83 1042.25 2565.03 1040.63 2564.08 1038.34 2563.98 1035.39L2563.98 897.569C2564.01 897.193 2563.96 896.75 2563.82 896.239 2563.68 895.728 2563.3 895.448 2562.68 895.398 2562.26 895.389 2561.91 895.624 2561.62 896.104 2561.34 896.583 2561.04 897.361 2560.73 898.437L2518.6 1034.74C2517.66 1037.72 2515.91 1040.11 2513.37 1041.93 2510.82 1043.74 2507.93 1044.67 2504.71 1044.72 2501.7 1044.72 2498.97 1043.91 2496.51 1042.28 2494.05 1040.65 2492.29 1038.21 2491.25 1034.96L2447.6 897.352C2447.4 896.795 2447.16 896.334 2446.9 895.968 2446.64 895.602 2446.29 895.412 2445.87 895.398 2445.34 895.425 2444.98 895.642 2444.81 896.049 2444.63 896.456 2444.55 896.891 2444.56 897.352L2444.56 1038.65C2444.54 1040.32 2443.99 1041.74 2442.94 1042.9 2441.88 1044.07 2440.48 1044.67 2438.72 1044.72 2436.47 1044.62 2434.89 1043.9 2433.98 1042.58 2433.06 1041.25 2432.62 1039.94 2432.65 1038.65L2432.65 881.725C2432.85 877.384 2434.41 874.128 2437.34 871.958 2440.26 869.788 2443.4 868.702 2446.73 868.702ZM3457.88 859.572C3461.17 859.585 3464.13 860.752 3466.75 863.072 3469.37 865.392 3470.75 868.784 3470.9 873.248 3470.72 879.017 3469.21 884.602 3466.37 890.003 3463.53 895.403 3460.47 899.862 3457.2 903.381 3453.93 906.899 3451.55 908.722 3450.06 908.848 3449.37 908.834 3448.7 908.535 3448.06 907.952 3447.41 907.369 3447.07 906.582 3447.02 905.592 3447.11 905.058 3447.49 904.226 3448.16 903.095 3448.84 901.965 3449.33 901.132 3449.63 900.599 3451.15 898.297 3452.39 895.846 3453.35 893.245 3454.3 890.645 3454.94 888.031 3455.27 885.403 3451.71 884.436 3449.07 882.735 3447.38 880.302 3445.68 877.869 3444.84 875.301 3444.85 872.596 3444.96 868.92 3446.26 865.853 3448.76 863.398 3451.26 860.942 3454.3 859.667 3457.88 859.572ZM2403.26 853.32C2256.2 1098.06 2170.51 1241.96 2146.17 1285.03 2121.84 1328.1 2109.67 1356.63 2109.67 1370.64 2109.67 1386.39 2116.33 1394.27 2129.65 1394.27 2157.27 1394.27 2206.45 1345.42 2277.21 1247.71L2280.28 1243.42 2285.57 1234.48C2303.26 1208.48 2329.78 1182.97 2365.14 1157.93 2414.86 1122.57 2455.83 1104.89 2488.04 1104.89 2518.15 1104.89 2533.21 1120.99 2533.21 1153.21 2533.21 1193.47 2512.02 1241.96 2469.66 1298.69 2476.66 1302.89 2484.54 1304.99 2493.29 1304.99 2509.05 1304.99 2527.46 1297.66 2548.52 1283 2569.58 1268.35 2586.79 1250.72 2600.14 1230.13 2601.1 1228.91 2602 1227.84 2602.84 1226.92L2604.86 1224.92 2615.32 1212.16C2633.86 1192.07 2657.97 1172.77 2687.65 1154.26 2740.52 1121.34 2782.01 1104.89 2812.12 1104.89 2833.13 1104.89 2843.63 1116.44 2843.63 1139.55 2843.63 1145.85 2842.06 1153.38 2838.91 1162.13L2868.32 1109.09C2877.77 1111.54 2886 1112.77 2893 1112.77 2902.11 1112.77 2915.41 1111.54 2932.92 1109.09 2930.47 1112.24 2915.06 1138.5 2886.7 1187.87L2756.45 1412.65C2802.32 1386.78 2838.99 1361.78 2866.48 1337.66 2893.96 1313.53 2925.04 1278.74 2959.7 1233.29 2962.33 1229.79 2964.52 1227.17 2966.27 1225.42L2968.09 1223.85 3036.35 1109.09C3048.26 1111.54 3057.54 1112.77 3064.19 1112.77 3070.84 1112.77 3082.75 1111.54 3099.9 1109.09L2974.91 1314.97C2962.3 1335.97 2956 1354.53 2956 1370.64 2956 1386.39 2962.65 1394.27 2975.96 1394.27 3011.32 1394.27 3068.04 1328.27 3146.12 1196.27L3197.59 1109.09C3208.44 1111.54 3217.55 1112.77 3224.9 1112.77 3233.65 1112.77 3246.08 1111.54 3262.19 1109.09L3178.16 1246.17C3138.24 1311.29 3118.28 1353.13 3118.28 1371.69 3118.28 1386.74 3125.47 1394.27 3139.85 1394.27 3167.9 1394.27 3213.48 1350.09 3276.59 1261.72L3285.26 1249.7 3289.13 1241.46C3309.73 1205.6 3347.49 1172.68 3402.42 1142.7 3448.64 1117.49 3486.28 1104.89 3515.34 1104.89 3527.94 1104.89 3538.71 1108.65 3547.64 1116.18 3556.57 1123.71 3561.03 1132.9 3561.03 1143.75 3561.03 1168.96 3544.58 1190.41 3511.66 1208.09 3478.75 1225.77 3423.78 1242.31 3346.75 1257.72 3322.94 1293.78 3311.04 1323.89 3311.04 1348.05 3311.04 1378.16 3327.33 1393.22 3359.93 1393.22 3415.31 1393.22 3483.12 1339.21 3563.39 1231.19 3567.59 1225.59 3571.09 1222.79 3573.9 1222.79 3575.3 1223.14 3576 1224.19 3576 1225.95 3576 1227 3572.85 1231.54 3566.54 1239.58L3543.94 1267.9C3471.4 1357.4 3409.19 1402.15 3357.33 1402.15 3332.8 1402.15 3312.21 1393.31 3295.56 1375.63 3278.92 1357.94 3270.6 1335.8 3270.6 1309.19 3270.6 1301.31 3271.28 1293.55 3272.66 1285.91L3274.54 1279.02 3267.89 1287.35C3258.36 1299.1 3247.24 1312.47 3234.53 1327.46 3192.47 1377.25 3159.17 1402.15 3134.63 1402.15 3119.2 1402.15 3106.14 1395.93 3095.46 1383.5 3084.77 1371.07 3079.42 1356.11 3079.42 1338.6 3079.42 1324.94 3086.25 1305.86 3099.9 1281.35L3089.4 1295.53C3057.19 1336.85 3033.55 1364.51 3018.5 1378.51 3002.04 1394.27 2986.46 1402.15 2971.75 1402.15 2956.35 1402.15 2943.39 1396.11 2932.89 1384.03 2922.39 1371.95 2917.13 1357.16 2917.13 1339.65 2917.13 1319.34 2925.01 1296.06 2940.77 1269.8L2941.68 1268.26 2940.63 1269.51C2933.53 1277.79 2925.25 1287.22 2915.78 1297.8 2873.37 1344.66 2818.51 1386.44 2751.2 1423.16L2724.94 1470.95C2677.32 1558.83 2623.92 1626.58 2564.75 1674.2 2508.03 1720.07 2459.01 1743 2417.7 1743 2402.64 1743 2390.21 1738.45 2380.41 1729.34 2370.6 1720.24 2365.7 1709.04 2365.7 1695.73 2365.7 1623.96 2446.76 1551.13 2608.87 1477.25 2643.88 1461.15 2666.47 1450.29 2676.62 1444.69L2765.9 1280.3C2727.04 1331.77 2699.64 1364.95 2683.71 1379.83 2667.78 1394.71 2651.41 1402.15 2634.6 1402.15 2616.4 1402.15 2600.9 1394.1 2588.12 1377.99 2575.34 1361.88 2568.95 1342.28 2568.95 1319.17 2568.95 1304.02 2571.43 1289.23 2576.37 1274.79L2582.01 1261.78 2579.66 1264.16C2548.83 1294.88 2520.45 1310.24 2494.52 1310.24 2483.66 1310.24 2474.02 1308.14 2465.61 1303.94 2419.36 1369.41 2375.91 1402.15 2335.26 1402.15 2314.24 1402.15 2296.28 1393.48 2281.39 1376.15 2266.5 1358.82 2259.05 1338.07 2259.05 1313.92 2259.05 1300.44 2261.26 1287.08 2265.68 1273.84L2265.8 1273.56 2259.97 1281.49C2199.89 1361.93 2155.06 1402.15 2125.49 1402.15 2110.41 1402.15 2098.06 1396.46 2088.42 1385.08 2078.78 1373.7 2073.96 1359.26 2073.96 1341.75 2073.96 1322.49 2078.42 1303.85 2087.35 1285.82 2090.14 1280.18 2095.03 1271.22 2102 1258.94L2102.77 1257.59 2097.47 1264.87C2031.57 1356.39 1981.27 1402.15 1946.57 1402.15 1930.09 1402.15 1916.34 1396.28 1905.29 1384.55 1894.25 1372.83 1888.73 1358.21 1888.73 1340.7 1888.73 1320.39 1900.81 1289.58 1924.97 1248.27L2006.9 1109.09C2017.75 1111.54 2026.33 1112.77 2032.63 1112.77 2042.09 1112.77 2055.39 1111.54 2072.55 1109.09L1953.33 1304.99C1936.17 1333.35 1927.59 1355.23 1927.59 1370.64 1927.59 1386.39 1935.83 1394.27 1952.31 1394.27 1983.52 1394.27 2038.39 1338.69 2116.92 1227.52 2118.68 1224.02 2120.43 1222.27 2122.18 1222.27L2123.07 1222.57 2129.22 1212.11C2142.62 1189.38 2159.04 1161.87 2178.47 1129.57 2241.85 1024.18 2295.24 932.799 2338.66 855.421 2349.16 858.222 2358.44 859.622 2366.49 859.622 2379.8 859.622 2392.05 857.521 2403.26 853.32ZM1619.15 748.806C1567.68 748.806 1520.77 760.01 1478.4 782.419 1571.18 812.53 1649.26 827.585 1712.64 827.585 1745.55 827.585 1762.01 818.657 1762.01 800.8 1762.01 787.145 1747.56 775.066 1718.68 764.562 1689.79 754.058 1656.62 748.806 1619.15 748.806ZM1174.83 732C1239.26 732 1325.04 745.13 1432.18 771.39 1480.5 747.931 1536.7 736.201 1600.77 736.201 1648.39 736.201 1689 742.591 1722.62 755.371 1756.23 768.151 1773.04 783.644 1773.04 801.851 1773.04 825.31 1751.5 837.039 1708.44 837.039 1674.47 837.039 1593.77 821.283 1466.32 789.771 1406.8 823.734 1377.04 866.45 1377.04 917.919 1377.04 942.778 1385.61 959.935 1402.77 969.388 1427.63 967.287 1446.36 966.237 1458.97 966.237 1495.38 966.237 1513.59 970.613 1513.59 979.367 1513.59 984.969 1503.95 987.77 1484.67 987.77 1460.13 987.77 1433.48 984.268 1404.74 977.266 1365.83 982.868 1320.61 997.924 1269.08 1022.43 1137.97 1085.11 1072.42 1166.34 1072.42 1266.12 1072.42 1332.3 1108.13 1374.31 1179.56 1392.17 1166.61 1370.81 1160.13 1346.13 1160.13 1318.12 1160.13 1249.14 1195.36 1185.59 1265.81 1127.47 1336.27 1069.35 1413.39 1040.29 1497.17 1040.29 1535.73 1040.29 1566.4 1049.74 1589.18 1068.65 1611.96 1087.56 1623.35 1112.94 1623.35 1144.8 1623.35 1213.08 1585.84 1274.61 1510.82 1329.41 1435.8 1384.2 1351.31 1411.6 1257.36 1411.6 1238.43 1411.6 1220.72 1410.55 1204.24 1408.45 1237.92 1453.62 1287.92 1476.2 1354.23 1476.2 1395.28 1476.2 1428.78 1470.07 1454.75 1457.82L1461.06 1456.77C1463.17 1457.47 1464.22 1458.87 1464.22 1460.97 1464.22 1465.87 1451.24 1471.04 1425.28 1476.46 1399.32 1481.89 1375.64 1484.6 1354.25 1484.6 1280.93 1484.6 1224.97 1458.17 1186.39 1405.3 1132.98 1393.4 1091.18 1373.18 1060.99 1344.64 1030.79 1316.1 1015.7 1282.93 1015.7 1245.12 1015.7 1194.35 1036.71 1146.82 1078.72 1102.53 1120.74 1058.23 1176.76 1024.71 1246.79 1001.95 1289.15 987.945 1337.65 977.791 1392.27 971.489 1353.4 955.033 1333.97 928.948 1333.97 893.235 1333.97 847.368 1362.33 809.028 1419.05 778.217 1337.82 758.61 1270.77 748.806 1217.9 748.806 1114.26 748.806 1025.94 774.716 952.936 826.535 879.934 878.354 843.432 941.027 843.432 1014.55 843.432 1047.47 853.061 1075.65 872.318 1099.11 891.576 1122.57 914.685 1134.3 941.645 1134.3 960.202 1134.3 969.481 1131.32 969.481 1125.37 969.481 1122.22 966.154 1121.17 959.502 1122.22 940.944 1122.22 931.666 1113.64 931.666 1096.49 931.666 1086.68 935.78 1078.28 944.008 1071.28 952.236 1064.27 962.128 1060.77 973.682 1060.77 996.09 1060.77 1007.29 1071.63 1007.29 1093.33 1007.29 1107.69 1000.9 1119.86 988.125 1129.83 975.345 1139.81 959.852 1144.8 941.645 1144.8 909.082 1144.8 881.334 1130.19 858.401 1100.95 835.467 1071.71 824 1036.44 824 995.122 824 933.15 850.96 876.253 904.881 824.434 968.955 762.811 1058.94 732 1174.83 732Z" fill="#FFFFFF" fill-rule="evenodd"/></g></svg>