<?xml version="1.0" encoding="UTF-8" standalone="no"?>
<!-- Created with Inkscape (http://www.inkscape.org/) -->

<svg
   version="1.1"
   id="svg2"
   width="800"
   height="600"
   viewBox="0 0 800 600"
   sodipodi:docname="lunaBenefactions.svg"
   inkscape:version="1.1.2 (0a00cf5339, 2022-02-04)"
   xmlns:inkscape="http://www.inkscape.org/namespaces/inkscape"
   xmlns:sodipodi="http://sodipodi.sourceforge.net/DTD/sodipodi-0.dtd"
   xmlns="http://www.w3.org/2000/svg"
   xmlns:svg="http://www.w3.org/2000/svg">
  <defs
     id="defs6" />
  <sodipodi:namedview
     id="namedview4"
     pagecolor="#ffffff"
     bordercolor="#666666"
     borderopacity="1.0"
     inkscape:pageshadow="2"
     inkscape:pageopacity="0.0"
     inkscape:pagecheckerboard="0"
     showgrid="false"
     inkscape:zoom="1.1983333"
     inkscape:cx="399.72184"
     inkscape:cy="299.58275"
     inkscape:window-width="1920"
     inkscape:window-height="1043"
     inkscape:window-x="0"
     inkscape:window-y="0"
     inkscape:window-maximized="1"
     inkscape:current-layer="svg2" />
  <path
     style="fill:#fff"
     d="m 398,549.34452 c -16.40201,-1.5718 -37.82002,-5.00691 -42.8998,-6.88044 -1.07899,-0.39795 -0.85489,-1.0963 0.97782,-3.04713 6.05475,-6.44499 18.21291,-10.80649 38.70347,-13.88413 10.36995,-1.55754 35.08754,-2.06077 43.64035,-0.88848 4.67961,0.64141 4.71871,0.67893 8.5982,8.25 2.14347,4.18311 4.83313,9.02568 5.97703,10.76127 l 2.0798,3.15561 -3.78843,0.61805 c -12.97813,2.11726 -40.76054,3.1158 -53.28844,1.91525 z m 61.05137,-12.55271 c -5.50477,-8.94495 -5.94086,-10.1882 -3.30137,-9.41188 0.9625,0.28309 4.675,1.24428 8.25,2.13599 6.46492,1.61252 16.3931,4.98267 22.91784,7.77951 l 3.41784,1.46507 -5.41784,1.57401 c -6.73698,1.95725 -18.01455,4.63095 -19.61647,4.65071 -0.65925,0.008 -3.47175,-3.67891 -6.25,-8.19341 z m -110.96804,3.92522 c 0.22917,-0.15563 1.31667,-0.94313 2.41667,-1.75 1.85001,-1.35701 1.89707,-1.33579 0.62756,0.28297 -0.75485,0.9625 -1.84235,1.75 -2.41667,1.75 -0.57432,0 -0.85672,-0.12734 -0.62756,-0.28297 z M 328,533.95733 c -13.77454,-5.22198 -35.23543,-15.76738 -34.50228,-16.95364 1.10715,-1.79141 19.09645,-6.83085 31.50228,-8.82489 21.82983,-3.50882 37.27504,-4.5211 59.11717,-3.87456 11.21056,0.33184 21.50783,0.81908 22.88283,1.08274 1.375,0.26367 7.80919,1.22918 14.29821,2.14558 16.80446,2.37319 16.80572,2.37368 18.19697,7.08555 l 1.18873,4.02598 -13.2983,-0.45101 c -26.63901,-0.90347 -55.54436,5.00194 -80.27644,16.40059 -4.06496,1.87348 -7.66496,3.39236 -8,3.37529 -0.33504,-0.0171 -5.33417,-1.82231 -11.10917,-4.01163 z m 164.04685,-1.08607 c -8.9967,-4.12713 -25.22289,-9.37873 -33.98496,-10.99922 -6.92487,-1.28071 -7.4537,-1.56553 -8.77404,-4.72553 -0.77275,-1.84948 -1.15711,-3.61059 -0.85411,-3.91358 0.303,-0.303 4.20067,0.44932 8.6615,1.67183 9.25291,2.5358 11.6823,2.20134 3.71954,-0.51207 -14.18545,-4.83388 -14.1591,-4.82044 -15.10293,-7.70519 -0.5061,-1.54687 -0.65313,-3.07956 -0.32673,-3.40596 1.03052,-1.03052 29.41045,10.53758 47.61488,19.40857 l 17.5,8.52772 -4.00416,1.74567 c -6.84831,2.98562 -7.75215,2.97985 -14.44899,-0.0922 z m 26.64776,-12.6147 c -8.23231,-5.57528 -16.78023,-14.59208 -20.46946,-21.59228 -2.3836,-4.52283 -2.72188,-6.29399 -2.72341,-14.25949 l -0.002,-9.0952 -2.65239,1.96109 c -1.45881,1.07861 -3.66706,3.93395 -4.90721,6.34521 C 486.70024,486.02715 485.30631,488 484.84278,488 484.37925,488 484,486.24 484,484.08889 c 0,-4.4717 -2.65899,-7.29312 -10.40896,-11.04482 -5.8249,-2.81979 -12.44805,-10.20075 -16.15221,-18.00033 -3.07234,-6.46921 -4.41792,-6.63834 -2.40632,-0.30246 4.74698,14.95151 18.47138,34.11527 33.22562,46.39387 3.21514,2.67567 5.65373,4.86485 5.4191,4.86485 -0.23462,0 -5.54549,-2.19553 -11.80191,-4.87895 -11.0527,-4.74058 -31.58841,-12.29891 -37.09911,-13.65462 -3.54282,-0.87158 -4.24987,-4.51164 -3.47259,-17.87767 0.96486,-16.59159 4.80134,-31.69371 11.45418,-45.08876 1.91216,-3.85 3.61022,-7.14882 3.77346,-7.3307 0.16324,-0.18189 4.72299,0.78142 10.13277,2.14068 5.40979,1.35926 14.11097,3.00153 19.33597,3.64948 13.9787,1.73352 14.3541,1.89729 15.36892,6.7047 1.31601,6.23423 7.19299,13.29138 13.94378,16.74386 10.5303,5.38539 21.21193,3.08392 30.17875,-6.50233 4.52426,-4.83681 9.47948,-13.7556 9.49878,-17.09667 0.0128,-2.21217 0.57394,-2.50708 9.96581,-5.23757 l 7.96377,-2.3153 -1.56182,3.62193 c -3.4222,7.9362 -7.508,21.14383 -10.07866,32.57997 -2.46287,10.95659 -2.71011,13.92912 -2.74308,32.97989 l -0.0362,20.93793 -8,5.19025 c -4.4,2.85464 -11.825,7.2398 -16.5,9.7448 l -8.5,4.55454 -6.80539,-4.6089 z M 493.5,510.9333 c -4.95,-2.14672 -18.225,-6.92645 -29.5,-10.62164 -18.96163,-6.21434 -21.94282,-7.51093 -21.98469,-9.56166 -0.0315,-1.54035 3.28787,-0.57764 21.26534,6.1677 18.48316,6.93507 32.61072,12.95707 38.21935,16.29135 4.71075,2.8005 1.78768,1.96898 -8,-2.27575 z m -220.21803,-5.71246 c -4.51992,-3.12663 -7.89492,-5.96864 -7.5,-6.31559 1.15778,-1.01715 21.67468,-4.75172 35.21803,-6.41052 29.50797,-3.61418 57.932,-2.99691 97,2.10648 1.925,0.25146 4.5125,0.67763 5.75,0.94705 1.2375,0.26941 2.25,0.10627 2.25,-0.36254 0,-0.46881 -0.5625,-0.87492 -1.25,-0.90245 -0.6875,-0.0275 -2.6,-0.32734 -4.25,-0.66623 -3.16814,-0.6507 -23.53176,-3.05577 -34.5,-4.07467 -27.89559,-2.59136 -60.62425,-0.61628 -92.64475,5.59086 l -11.14475,2.1604 -8.06434,-6.85439 c -4.43538,-3.76992 -7.92413,-6.99461 -7.75276,-7.16597 0.79908,-0.79908 21.36668,-4.17439 32.30692,-5.30183 11.44393,-1.17934 50.29266,-0.90873 55.98394,0.38998 1.20134,0.27413 5.02634,0.7754 8.5,1.11392 3.47366,0.33853 6.99074,0.7975 7.81574,1.01995 0.825,0.22244 3.47835,0.68356 5.89634,1.0247 4.19955,0.5925 33.42198,6.92112 37.60366,8.14372 1.1,0.32161 1.68325,0.24959 1.2961,-0.16005 -0.59402,-0.62853 -5.61565,-2.04862 -14.17215,-4.00781 -1.03182,-0.23626 -5.53182,-1.33162 -10,-2.43414 -4.46817,-1.10252 -9.69895,-2.2695 -11.62395,-2.59329 -29.35513,-4.93767 -50.4097,-6.19798 -77.24738,-4.62396 C 271.06368,476.53 257.225,477.68364 252,478.40809 l -9.5,1.31719 -3.38241,-3.11264 C 226.10292,464.636 205.2723,436.24686 194.64286,416 189.8895,406.94583 180,384.32466 180,382.50601 c 0,-1.11107 21.85088,-0.29327 28.24354,1.05705 17.84809,3.77007 46.62002,19.85907 63.83924,35.69833 16.64581,15.31179 36.1539,28.45679 59.41722,40.03668 21.63759,10.77064 36.13782,16.34588 97.14931,37.35331 6.75414,2.32558 7.18608,2.65762 7.81448,6.00731 0.36585,1.95012 0.52016,3.6907 0.34291,3.86794 -0.17725,0.17725 -5.26876,-0.73465 -11.31448,-2.02644 -32.9293,-7.03601 -62.77715,-8.50431 -92.81544,-4.56586 -15.44472,2.02502 -35.7735,6.35993 -44.55251,9.50038 -2.40665,0.86091 -4.88165,1.54405 -5.5,1.5181 -0.61835,-0.026 -4.82238,-2.60535 -9.3423,-5.73197 z M 358,475.38143 c -13.29245,-5.84976 -49.06541,-15.11919 -70.07394,-18.15744 -7.46566,-1.07968 -15.34066,-2.79627 -17.5,-3.81463 -6.15678,-2.9036 -12.8763,-10.23811 -14.86498,-16.22548 -0.94983,-2.85966 -2.12298,-4.95464 -2.607,-4.6555 -1.15092,0.71131 -2.94141,7.22202 -2.9485,10.72162 -0.007,3.33903 -1.72847,3.60905 -2.92616,0.4589 -1.43475,-3.77368 -3.34584,-4.63454 -11.64693,-5.24646 -8.89952,-0.65603 -13.75689,-2.4888 -20.68249,-7.80385 -6.66422,-5.11445 -5.92209,-2.88708 1.17924,3.53926 8.7039,7.87658 21.30697,14.97335 34.19263,19.25382 9.12621,3.03163 14.49285,4.08062 28.79732,5.62889 32.04216,3.46815 51.36265,7.48184 71.82479,14.92108 8.31605,3.02339 13.0259,3.91901 7.25602,1.37979 z m 205.50723,24.63027 c -1.38815,-2.24608 -0.76067,-30.63164 0.88449,-40.0117 3.04498,-17.36122 9.65931,-38.77453 14.0781,-45.57655 0.74194,-1.1421 3.75225,-3.01088 6.68958,-4.15285 2.93733,-1.14197 6.17587,-2.4115 7.19676,-2.82118 1.31272,-0.52679 0.80705,0.62953 -1.72717,3.94953 -14.6273,19.16281 -24.61635,51.73146 -24.62617,80.29203 -0.003,7.57996 -0.96672,10.79448 -2.49559,8.32072 z m 5.39237,-4.2617 c -0.0552,-0.6875 -0.039,-5.075 0.0361,-9.75 0.17162,-10.68808 1.49596,-18.30095 4.76227,-27.37546 6.36805,-17.69184 16.56098,-25.25154 35.61269,-26.41255 l 7.81063,-0.47598 -2.78285,-2.90467 c -3.59518,-3.75257 -12.05347,-6.27931 -18.19988,-5.43685 -7.58284,1.03935 -3.45958,-1.23742 6.96032,-3.84331 14.99472,-3.75001 18.08647,-5.32177 26.36746,-13.40452 4.14353,-4.04434 7.53369,-7.43789 7.53369,-7.54121 0,-0.10333 -4.1625,0.17355 -9.25,0.61527 -11.22223,0.97437 -16.98381,2.77386 -23.33176,7.28708 -5.13461,3.65058 -6.95707,3.85007 -3.85465,0.42193 2.59068,-2.86267 12.79268,-8.34237 19.43641,-10.43968 7.92111,-2.50057 11.4172,-4.9133 15.63925,-10.79299 2.05252,-2.85838 5.76239,-7.62304 8.24414,-10.58812 3.33321,-3.98237 3.89465,-5.06052 2.14859,-4.12606 -1.31603,0.70432 1.14484,-2.7674 5.55217,-7.83282 4.35372,-5.0038 8.04017,-8.73662 8.19211,-8.29515 0.15195,0.44146 -1.3304,6.39221 -3.29409,13.22388 -13.54064,47.10767 -40.63242,89.651 -77.02858,120.96114 -5.08921,4.37804 -9.52322,7.96007 -9.85335,7.96007 -0.33013,0 -0.64542,-0.5625 -0.70064,-1.25 z M 409,482.48138 C 344.18889,460.85195 307.53774,441.99077 279.57702,415.87854 266.2924,403.47217 253.11436,385.41306 246.64711,370.75158 239.77229,355.16613 237.1268,314.7902 241.84755,297.5 c 7.68017,-28.12932 26.71138,-49.0168 50.62334,-55.56104 8.00525,-2.19088 11.68119,-2.25465 33.02911,-0.57306 8.3346,0.65653 22.53636,9.27498 30.10367,18.26866 15.60995,18.55228 17.71816,39.98914 5.71166,58.0777 -4.09415,6.16809 -10.18474,11.55183 -12.19558,10.7802 -0.7657,-0.29383 -3.82276,0.37517 -6.79348,1.48665 -5.75148,2.15191 -17.72595,2.80124 -18.82627,1.02089 -0.34541,-0.55889 0.42417,-1 1.74464,-1 3.48129,0 12.34042,-4.71816 15.16733,-8.07775 1.3524,-1.60724 2.64462,-2.92225 2.8716,-2.92225 0.22697,0 1.22437,1.8 2.21643,4 0.99206,2.2 2.34513,4 3.00682,4 2.24146,0 11.58661,-10.9624 14.18677,-16.64189 8.22411,-17.96383 4.24778,-36.45365 -11.16319,-51.90854 -7.36178,-7.38276 -12.71003,-10.9729 -21.51867,-14.44495 l -5.27555,-2.07942 0.71603,9.2874 c 0.39381,5.10807 1.13034,11.49774 1.63672,14.19926 0.50638,2.70152 0.74826,5.08428 0.53752,5.29502 -0.21074,0.21075 -2.46377,-0.14073 -5.00672,-0.78105 -2.62653,-0.66137 -8.61801,-0.98092 -13.87164,-0.73983 -7.81211,0.3585 -10.2712,0.91647 -15.83721,3.5935 -14.78131,7.10922 -22.87213,21.24298 -22.89901,40.00205 C 269.97135,341.0563 292.28886,361 323.96957,361 c 10.86032,0 23.31857,-2.99002 31.94784,-7.66759 l 6.41742,-3.47861 2.58258,3.30029 c 1.42043,1.81515 4.72009,5.74306 7.33259,8.72869 2.6125,2.98562 4.75,5.75328 4.75,6.15036 0,0.39709 -0.7101,1.3113 -1.57801,2.0316 -0.8679,0.7203 -2.74472,3.5879 -4.1707,6.37245 -3.71132,7.24717 -4.27737,18.85666 -1.30376,26.73963 2.38736,6.32883 8.03461,12.63776 13.73259,15.34163 4.83307,2.29344 15.01616,3.06692 19.76098,1.50099 7.25275,-2.39362 14.47491,-11.26315 14.53694,-17.85277 0.0121,-1.28334 0.37645,-2.18334 0.80971,-2 0.43326,0.18333 4.70623,2.35833 9.49548,4.83333 l 8.70772,4.5 -0.044,13 c -0.0242,7.15 -0.47212,17.5 -0.99535,23 -0.52322,5.5 -1.23931,16.1875 -1.59131,23.75 -0.352,7.5625 -0.79301,13.75 -0.98003,13.75 -1.38181,0 -22.94645,-9.1386 -31.90691,-13.52141 -11.56335,-5.65596 -18.2776,-11.04009 -22.90122,-18.36438 -5.49416,-8.70331 -5.27185,-18.29044 0.54497,-23.50215 l 3.22325,-2.88794 -5.50913,0.45686 c -11.25786,0.93359 -18.25542,9.10579 -15.87879,18.54427 1.41095,5.60337 0.75099,6.47972 -1.76459,2.34318 -1.2745,-2.09574 -2.15479,-6.05118 -2.61845,-11.76553 -0.38416,-4.73462 -1.82355,-12.16986 -3.19863,-16.52277 -2.72153,-8.61516 -2.56089,-11.99737 0.77099,-16.23317 1.71575,-2.18122 1.7719,-2.54696 0.39102,-2.54696 -2.74517,0 -9.15498,3.76234 -11.83398,6.94615 -1.46137,1.73675 -3.05513,5.45351 -3.72771,8.6933 -1.16202,5.5974 -0.7332,8.80253 2.57199,19.22404 0.68929,2.17339 0.57721,2.27123 -1.39347,1.21656 -3.28015,-1.75549 -6.05079,-8.20539 -7.21768,-16.8024 -1.42228,-10.47855 -3.50763,-14.08605 -14.28617,-24.71394 -5.0557,-4.98504 -9.75499,-9.96371 -10.44287,-11.06371 -1.04436,-1.67004 -1.15293,-0.84514 -0.65807,5 0.7778,9.18714 1.96197,13.51568 6.06074,22.154 3.31827,6.99338 4.28149,11.346 2.51084,11.346 -1.4777,0 -7.60023,-7.32028 -8.78812,-10.50734 -0.61348,-1.64596 -2.40081,-6.5278 -3.97183,-10.84852 -2.60905,-7.17555 -3.4626,-8.37949 -9.85641,-13.90263 -11.35528,-9.80899 -15.01829,-14.75094 -19.05845,-25.71266 -2.02133,-5.48426 -1.66836,-0.76032 0.62052,8.30454 5.67103,22.45957 23.42922,47.87611 44.53284,63.73795 25.87438,19.44762 57.59786,35.54321 93.59373,47.48679 15.41222,5.11385 20.80787,7.32051 21.15612,8.65223 0.25711,0.98321 0.17223,1.93609 -0.18864,2.11753 -0.36087,0.18143 -11.68112,-3.3495 -25.15612,-7.84651 z m -261,-3.41651 c -9.20647,-2.81063 -17.45753,-10.20263 -22.25513,-19.93804 -2.6072,-5.29058 -3.20823,-7.83858 -3.53826,-15 -1.33828,-29.03969 18.54779,-54.42496 48.52932,-61.94937 3.97976,-0.99879 7.44908,-2.02914 7.70959,-2.28965 0.26051,-0.26051 -0.40816,-3.30693 -1.48593,-6.76983 -2.82295,-9.07017 -2.83169,-9.04764 3.29041,-8.47852 18.51459,1.72116 35.84346,7.62992 50.05398,17.0673 3.74219,2.48523 6.65433,4.66826 6.47142,4.85118 -0.18291,0.18291 -3.27488,-0.69556 -6.87104,-1.95216 -3.59617,-1.2566 -8.0833,-2.56064 -9.97142,-2.89787 -1.88812,-0.33724 -4.55794,-0.88765 -5.93294,-1.22315 -4.47134,-1.09099 -23.54795,-1.77169 -29.34687,-1.04716 -3.26983,0.40854 -5.65402,1.20296 -5.65523,1.88436 -10e-4,0.64792 -3.55494,2.01586 -7.89731,3.03986 -20.86109,4.91938 -37.5519,21.01258 -43.63568,42.07332 -2.63767,9.13107 -1.68858,23.54347 2.05415,31.19335 5.85383,11.9648 15.31986,17.79353 28.98094,17.84509 15.42992,0.0582 24.82619,-8.57315 24.62841,-22.62358 -0.1814,-12.88605 -7.6778,-22.08077 -18.00234,-22.08077 -8.96765,0 -15.12607,5.8813 -15.12607,14.4454 0,3.7942 0.55362,5.04861 3.62296,8.20901 3.91967,4.03595 3.52912,6.33331 -0.88817,5.22464 -4.32065,-1.08441 -7.08561,-10.64101 -5.31954,-18.38607 1.05392,-4.62197 7.59474,-9.89722 14.06772,-11.34581 6.8897,-1.54185 11.44296,-0.0431 17.12189,5.63583 13.39725,13.39725 6.89713,37.7833 -11.66949,43.77965 -5.32385,1.71941 -14.53616,2.07602 -18.93537,0.73299 z m 371.04427,-33.58108 c -7.80592,-3.52434 -13.44009,-9.87107 -15.03313,-16.93439 l -0.75094,-3.32958 14.1199,-0.46548 14.1199,-0.46548 2.22739,2.59363 2.22739,2.59363 0.61461,-3.07307 c 0.59339,-2.96694 0.87585,-3.11369 8.17836,-4.24899 4.16005,-0.64675 7.77145,-0.96819 8.02533,-0.71431 0.25388,0.25388 -0.87254,3.29629 -2.50316,6.76092 -3.20073,6.80074 -9.2645,13.71093 -14.33018,16.33049 -4.6005,2.37901 -12.722,2.83693 -16.89547,0.95263 z m 177.76153,-2.84008 c -5.07402,-1.41188 -6.30181,-2.17934 -12.1422,-7.58975 -9.75251,-9.03452 -13.26452,-26.07525 -7.6444,-37.09159 2.73381,-5.35872 9.51617,-10.77143 15.7781,-12.59182 2.94305,-0.85557 5.625,-1.28158 5.95988,-0.9467 0.91556,0.91555 -3.11473,5.91079 -5.85434,7.25602 -1.32156,0.64892 -4.52203,1.91665 -7.11215,2.81717 -4.15023,1.44292 -5.02688,2.28636 -7.38416,7.10447 -2.31129,4.72411 -2.605,6.33722 -2.16099,11.86858 1.27089,15.8326 13.3702,27.71553 28.25446,27.74914 24.48819,0.0553 44.75494,-27.95804 38.14065,-52.71923 -2.91364,-10.90745 -8.89428,-18.86471 -19.41893,-25.83691 -14.61185,-9.67983 -26.82807,-13.07205 -46.72172,-12.97377 -11.6074,0.0573 -15.63548,0.4994 -23.56983,2.58662 -27.05609,7.11741 -56.54332,30.22954 -71.35523,55.92832 -2.42381,4.20534 -5.87512,6.82889 -7.21753,5.48648 -0.79518,-0.79517 4.04126,-9.66068 10.70535,-19.6236 18.03179,-26.95782 47.49882,-46.28535 76.43724,-50.13546 34.49191,-4.58899 67.83776,9.77169 80.2816,34.57394 4.8567,9.68009 5.72112,22.41847 2.2778,33.56665 -6.35708,20.58182 -29.45353,35.52442 -47.2536,30.57144 z M 442.02541,420.30103 442,411.10205 l 3.46788,1.44898 c 1.90734,0.79693 3.67634,1.44897 3.93112,1.44897 0.25479,0 3.04437,-3.66263 6.19908,-8.13918 3.15471,-4.47655 10.08547,-12.49186 15.40169,-17.81179 19.56171,-19.5754 29.26327,-41.79505 29.275,-67.04903 0.009,-19.67932 -4.7198,-32.65192 -16.02313,-43.95526 -17.02081,-17.0208 -37.90697,-18.46774 -51.04989,-3.5366 -7.44234,8.45495 -9.45398,21.11704 -4.80984,30.2751 1.31556,2.59422 3.23615,5.47952 4.26799,6.41177 3.52052,3.18077 10.71854,5.76056 16.13555,5.78303 6.5131,0.027 10.19874,-2.92552 10.21432,-8.18259 0.01,-3.26311 3.38789,-11.4875 6.26019,-15.24065 1.39306,-1.82026 1.53336,-1.62024 2.1845,3.11408 0.93094,6.76871 -0.7653,12.56254 -5.07423,17.33201 -4.28105,4.73862 -8.97371,6.42408 -15.89654,5.70958 -14.32717,-1.47869 -23.32763,-12.67126 -22.25417,-27.67428 0.90009,-12.57994 7.80854,-22.41737 19.50255,-27.77107 4.80814,-2.20123 6.4836,-2.45212 13.80846,-2.06766 26.03393,1.36643 45.08248,25.55727 47.09021,59.80254 0.99368,16.94903 -3.07888,33.4865 -11.95821,48.55874 -1.92506,3.26769 -3.3946,6.04806 -3.26564,6.1786 0.12895,0.13054 2.90266,-0.76716 6.16378,-1.99489 4.97694,-1.87368 7.94078,-2.23305 18.452,-2.23734 12.13375,-0.005 12.72937,0.0967 19.17794,3.27207 8.38394,4.12843 15.01187,10.80458 19.05309,19.19175 2.70719,5.61849 3.20503,7.89343 3.56291,16.28107 0.3319,7.77877 0.13977,9.75013 -0.9503,9.75062 -1.02664,4.7e-4 -1.27656,-1.29602 -1.0053,-5.215 0.74173,-10.71591 -3.6937,-22.66793 -11.02717,-29.71459 -11.18156,-10.74425 -27.35765,-12.63945 -45.33384,-5.31135 -11.65582,4.75156 -27.58379,17.9607 -36.25155,30.06358 -4.04013,5.64126 -4.80804,6.25311 -7.11986,5.67288 -1.42522,-0.35771 -2.99976,-0.72817 -3.49898,-0.82326 -0.49922,-0.0951 -2.63367,3.20212 -4.74323,7.32712 l -3.83556,7.5 -0.0254,-9.19897 z M 501,421.96016 c 0,-6.69587 8.22009,-14.56945 16.00671,-15.33196 8.73875,-0.85576 15.62918,3.23307 18.6125,11.04477 1.83378,4.80168 1.83771,4.78461 -1.32748,5.75695 -1.92824,0.59234 -2.59121,-0.0802 -5.22799,-5.30365 C 525.50258,411.07165 522.92935,409 517.72783,409 c -7.01335,0 -12.64964,4.66944 -14.18295,11.75 C 502.76804,424.33733 501,425.17809 501,421.96016 Z m -115.50728,-5.31147 c -10.1161,-4.71083 -15.10661,-14.18126 -14.27787,-27.0949 0.34637,-5.39707 1.16652,-8.48383 3.29154,-12.38821 1.55663,-2.86003 3.32713,-5.61245 3.93445,-6.11648 0.72932,-0.60528 3.30339,1.08375 7.58168,4.97488 l 6.47748,5.8913 6.06856,-0.57715 c 4.4867,-0.4267 6.8668,-0.16436 9.13089,1.00645 4.13082,2.13613 8.00187,6.91881 9.25654,11.43647 1.34135,4.82972 1.31139,5.25878 -0.32337,4.63147 -1.01038,-0.38772 -1.49317,0.78436 -1.84916,4.48923 -1.25628,13.07433 -15.93814,19.96493 -29.29074,13.74694 z M 415,395.93426 c 0,-1.50317 -2.08899,-5.29376 -3.3997,-6.16895 -0.60517,-0.40408 -2.12563,-0.74158 -3.37882,-0.75 C 406.9683,389.00689 403.26863,387.65 400,386 c -6.31528,-3.18794 -8,-3.60912 -8,-2 0,0.55 1.0125,1.00379 2.25,1.00842 1.2375,0.005 6.01386,2.70463 10.61412,6 C 413.30385,397.05416 415,397.87846 415,395.93426 Z M 437.08583,407.75 c -0.4792,-1.2375 -1.64018,-5.76824 -2.57994,-10.0683 -4.32574,-19.79325 -17.06285,-33.8516 -32.07381,-35.40087 -6.49045,-0.66987 -13.64371,0.99177 -18.7939,4.36566 -4.65731,3.05101 -7.44921,1.75654 -2.96522,-1.37484 5.34405,-3.73199 12.46854,-5.74008 20.37479,-5.74277 12.89107,-0.004 23.08171,6.43368 30.75428,19.4294 3.59785,6.09399 8.06234,19.03641 8.83533,25.61328 0.54609,4.64636 0.39897,5.42844 -1.02112,5.42844 -0.91251,0 -2.0512,-1.0125 -2.53041,-2.25 z M 601.5,399.07119 c 6.92783,-7.16094 14.89957,-12.64555 29,-19.95219 l 10,-5.18186 -5.83992,5.28143 c -8.2504,7.46138 -21.6786,16.88473 -31.11119,21.83253 L 595.5,405.27308 Z m -498.73311,-7.73178 c 2.65121,-3.73751 9.55332,-9.60549 17.31482,-14.72057 10.95569,-7.22015 34.06582,-13.74856 47.77876,-13.49708 6.41598,0.11766 6.27997,0.16546 -4.03977,1.41953 -11.26185,1.36857 -15.98266,3.0133 -21.992,7.66204 -3.93251,3.04213 -7.8287,9.91629 -7.8287,13.81239 0,3.61993 -2.16411,0.91159 -2.90277,-3.63274 C 130.50848,378.76092 128,376.31254 128,379.35996 128,381.61884 124.02051,384 120.24538,384 c -4.51364,0 -9.70726,2.32037 -15.15582,6.77121 L 100.52492,394.5 Z m 127.07699,-11.72695 c -12.44698,-8.53993 -31.25539,-15.11185 -46.59476,-16.28085 -4.53798,-0.34584 -8.65351,-1.12443 -9.14562,-1.7302 -0.4921,-0.60578 -1.78813,-5.52425 -2.88005,-10.92993 l -1.98531,-9.82853 2.56877,0.64472 c 5.40735,1.35716 23.68129,10.68201 33.47116,17.07971 5.62206,3.67403 13.98186,9.88688 18.57733,13.80633 17.52944,14.9508 17.92407,15.42783 5.98848,7.23875 z m 0.2181,-4.36246 c -10.01595,-9.22673 -19.47953,-16.2574 -31.25173,-23.21753 -10.54144,-6.23246 -27.26511,-13.45564 -29.32416,-12.6655 -0.67867,0.26042 -5.00317,-0.63075 -9.61001,-1.98039 -18.98406,-5.56165 -29.59628,-7.13142 -49.47001,-7.31766 -19.272424,-0.1806 -26.9385,1.15541 -43.353127,7.55539 -11.821751,4.60924 -15.301234,5.08962 -15.853894,2.18882 -1.186929,-6.22995 33.026092,-12.61895 61.300951,-11.44745 8.25,0.34182 16.575,0.86279 18.5,1.1577 7.52227,1.15243 23.83484,4.70789 30.34579,6.61411 3.76519,1.10234 7.00726,1.84279 7.20461,1.64544 0.19736,-0.19735 -0.043,-3.26675 -0.53407,-6.82088 C 166.66279,321.16615 165.63437,303 166.43336,303 c 3.92098,0 25.53332,21.56665 37.07838,37 8.63099,11.53783 12.62666,16.45488 25.80055,31.75 4.85565,5.6375 8.65939,10.25 8.45276,10.25 -0.20663,0 -3.67301,-3.0375 -7.70307,-6.75 z m 2.27135,-3.5 c -25.16454,-31.35609 -32.86866,-47.42298 -38.48012,-80.25 -4.22491,-24.71573 1.21525,-46.48487 17.61344,-70.48135 3.18769,-4.66475 5.17425,-7.99667 4.41458,-7.40427 -0.75968,0.5924 -3.85623,3.0047 -6.88123,5.36066 -3.025,2.35596 -7.86188,5.40277 -10.74863,6.77068 -6.38168,3.02403 -10.91766,7.95854 -11.84123,12.8816 -0.37868,2.01855 -0.40404,7.67777 -0.0564,12.57606 0.41826,5.89244 0.29065,8.6949 -0.37713,8.2822 -0.5551,-0.34308 -0.77786,-0.99824 -0.495,-1.45591 0.83259,-1.34716 -3.22396,-13.22891 -5.8141,-17.02967 -1.31185,-1.925 -2.70611,-4.51903 -3.09837,-5.76452 -0.99182,-3.14925 -2.26869,-1.97363 -3.08146,2.83714 -0.37746,2.23418 -0.90593,3.84251 -1.17437,3.57407 -0.26845,-0.26844 0.0661,-3.11127 0.74332,-6.31738 0.67727,-3.20612 1.43616,-5.24557 1.68643,-4.53211 0.25026,0.71346 2.16005,-3.78654 4.24397,-10 8.25437,-24.6114 20.54732,-48.15973 37.18833,-71.23785 0.37305,-0.51735 2.73685,-0.83409 5.25289,-0.70385 11.54317,0.59752 21.60786,-9.5488 21.55639,-21.73123 -0.0131,-3.11051 -1.88769,-8.40492 -1.99134,-5.62427 -0.0205,0.55 -0.88968,-0.87742 -1.93152,-3.17204 -2.15197,-4.73969 -5.28844,-7.16592 -10.31891,-7.98225 -4.48843,-0.72837 -7.25559,0.82364 -9.69067,5.43517 -1.08012,2.04551 -1.98375,3.12704 -2.00805,2.40338 -0.0243,-0.72366 0.45847,-2.29866 1.07284,-3.5 4.19166,-8.19636 16.97941,-7.28977 21.46159,1.52152 0.92165,1.81182 1.8316,3.46983 2.02212,3.68446 0.19052,0.21463 2.15958,-1.24787 4.3757,-3.25 2.21612,-2.00213 4.40705,-3.64024 4.86874,-3.64024 0.97517,0 7.32574,13.41325 9.4691,20 4.08668,12.5588 5.18403,20.42067 5.16441,37 -0.0218,18.41017 -1.2282,25.87168 -7.195,44.5 -4.71797,14.7295 -6.1504,17.29714 -14.07026,25.22109 C 217.52812,266.42022 210.5958,304.76191 224.63623,348 c 1.33948,4.125 4.8677,12.5625 7.84048,18.75 2.97277,6.1875 5.28522,11.25 5.13877,11.25 -0.14644,0 -2.52341,-2.8125 -5.28215,-6.25 z m 84.01336,-16.78017 c -25.67333,-4.61099 -41.71857,-24.6045 -38.48303,-47.9526 1.89196,-13.65258 9.30726,-24.97271 19.71343,-30.09432 C 301.61581,274.93517 304.02666,274.5 311,274.5 c 7.42401,0 9.11723,0.34811 13.37595,2.75 2.68178,1.5125 5.06467,2.75 5.29532,2.75 0.23064,0 0.12388,-1.575 -0.23725,-3.5 -0.82537,-4.39964 0.1793,-4.43624 5.73824,-0.20907 10.98077,8.35007 15.54111,24.95118 10.28444,37.43873 -1.48996,3.53951 -1.67223,3.65524 -2.97716,1.89042 -1.3273,-1.79509 -1.51053,-1.73671 -4.06057,1.29385 -3.33983,3.96916 -9.06095,6.93819 -14.91577,7.74069 -5.05566,0.69295 -5.44225,0.062 -2.93392,-4.78859 3.165,-6.12043 1.21482,-12.85702 -4.33255,-14.96612 -3.44246,-1.30883 -6.80791,-0.41964 -9.82285,2.5953 -1.89468,1.89468 -2.41388,3.46731 -2.41388,7.31145 0,6.66145 2.97852,10.9522 9.96527,14.35559 10.42968,5.08052 21.88194,5.84595 31.32622,2.09375 2.08532,-0.8285 3.91869,-1.33753 4.07416,-1.13118 0.15547,0.20635 1.77602,2.85018 3.60122,5.87518 1.82519,3.025 3.94564,6.45842 4.7121,7.62983 1.29501,1.9792 1.13213,2.28407 -2.3031,4.31091 -10.13998,5.98273 -27.47362,9.10449 -39.02918,7.02909 z M 342.13978,309.25 c 0.34947,-6.87557 -0.45725,-11.18326 -3.13862,-16.75952 -2.9583,-6.15215 -9.81763,-14.05024 -8.67654,-9.99048 0.30918,1.1 1.32386,4.7 2.25484,8 2.55805,9.06739 7.47794,21.5 8.50808,21.5 0.50185,0 0.97536,-1.2375 1.05224,-2.75 z m 18.88516,38.28005 c -1.01027,-1.2173 -0.12777,-2.54937 5.13436,-7.75 25.8172,-25.51546 21.8347,-72.54417 -8.40555,-99.2598 -5.92467,-5.23413 -18.63229,-11.71537 -26.50375,-13.51766 L 326,225.80052 v -4.90026 C 326,218.20512 326.27254,216 326.60566,216 c 2.61613,0 13.85902,3.70989 18.81438,6.2083 21.24992,10.71387 36.48576,28.66649 43.5297,51.2917 3.00617,9.65583 3.76469,25.60613 1.68181,35.36509 -2.57754,12.07661 -7.79219,21.32669 -17.69295,31.38491 -4.73716,4.8125 -9.08118,8.75 -9.65337,8.75 -0.57219,0 -1.58932,-0.66148 -2.26029,-1.46995 z M 235.6658,336.75 c -3.13318,-12.794 -3.19753,-33.44162 -0.15038,-48.25 8.29801,-40.32612 40.32593,-66.12697 79.31391,-63.89318 4.21887,0.24172 8.23317,0.63995 8.92067,0.88495 0.84187,0.30002 1.25,2.7793 1.25,7.59342 v 7.14796 l -2.75,-0.64936 c -1.5125,-0.35715 -6.85375,-0.91785 -11.86944,-1.24601 -27.09629,-1.77278 -50.82058,13.01883 -64.41627,40.16222 -7.6481,15.26922 -9.22971,22.57904 -9.35758,43.24869 -0.0587,9.48679 -0.17043,17.24929 -0.2483,17.25 -0.0779,7.2e-4 -0.38955,-1.01119 -0.69261,-2.24869 z m -75.5033,-36.44145 c -4.8662,-1.72047 -4.56031,-2.72182 1.46229,-4.78691 3.7577,-1.28847 3.89407,-1.49964 4.49719,-6.96384 0.34208,-3.0993 0.8374,-5.85052 1.10071,-6.11382 C 167.89304,281.77362 183,297.72584 183,299.10405 c 0,0.6705 -1.11242,0.39662 -2.75,-0.67704 -5.13404,-3.36607 -7.74319,-4.41468 -11,-4.42085 -3.12603,-0.006 -3.25,0.14642 -3.25,3.99384 0,4.47458 0.13637,4.42065 -5.8375,2.30855 z m 1.21874,-25.09227 c -2.26532,-2.63051 -6.76532,-6.2183 -10,-7.97286 L 145.5,264.0533 l 4,-0.20802 c 6.96344,-0.36212 16.95805,0.21277 17.76726,1.02198 0.87691,0.87691 -0.21673,15.13301 -1.16086,15.13225 -0.33352,-2.7e-4 -2.45984,-2.15272 -4.72516,-4.78323 z M 566.77591,277 c -0.296,-0.825 -1.03679,-5.85756 -1.64619,-11.18347 -1.4163,-12.37781 -4.21172,-19.82334 -9.52441,-25.36797 l -4.18049,-4.363 4.35534,-3.06993 c 5.3243,-3.75291 8.93832,-11.02881 9.86048,-19.85153 0.35435,-3.39026 1.00259,-6.1641 1.44054,-6.1641 0.43795,0 1.08481,2.1375 1.43745,4.75 1.1897,8.81351 3.59544,14.56947 7.87872,18.85056 2.25646,2.25531 4.77765,4.33634 5.60265,4.6245 1.12702,0.39366 0.44857,1.58321 -2.72847,4.78392 -4.93449,4.97127 -8.05858,12.40138 -9.45665,22.49102 -1.70506,12.30512 -2.48731,16.03752 -3.03897,14.5 z m -388.32286,-4.28984 c -1.62798,-1.76559 -4.47965,-4.39255 -6.33703,-5.83769 -3.32035,-2.58339 -3.36531,-2.72169 -2.67656,-8.23423 0.67366,-5.39176 2.56054,-8.88899 2.56054,-4.74581 0,1.10575 2.28333,6.34898 5.07406,11.65162 2.79073,5.30264 4.90866,9.80656 4.70651,10.00871 -0.20215,0.20216 -1.69954,-1.07702 -3.32752,-2.8426 z M 519.5523,239.75 c -0.21172,-0.6875 -0.64344,-5.09926 -0.95938,-9.80392 -0.6598,-9.82488 -3.49279,-21.82997 -6.63469,-28.11516 -1.19074,-2.382 -4.25597,-6.51301 -6.81161,-9.18 -4.35192,-4.54155 -4.5248,-4.92208 -2.72582,-6 4.49523,-2.69349 9.89705,-8.34465 12.06393,-12.62079 2.15105,-4.2449 4.13869,-12.36923 4.75923,-19.45301 0.44766,-5.11038 2.50268,-4.08015 3.23763,1.62311 1.79228,13.90816 5.87388,22.87154 12.65011,27.78021 2.19888,1.59286 4.53129,3.08449 5.18313,3.31473 0.66707,0.23561 -0.83962,2.33909 -3.44654,4.81172 -2.54744,2.41621 -5.865,6.8493 -7.37235,9.85131 -2.9948,5.96438 -5.9418,19.14833 -6.99465,31.2918 -0.60448,6.97207 -1.91446,9.85944 -2.94899,6.5 z M 257.45482,227.36735 c 8.98282,-22.10431 13.13688,-44.41761 12.28773,-66.00288 -0.72618,-18.45931 -3.9277,-31.64761 -11.44379,-47.14146 -2.49491,-5.14308 -2.51315,-5.32863 -0.71867,-7.3115 3.50276,-3.87052 15.4471,-12.115055 16.79976,-11.595988 2.15844,0.828271 10.06811,13.563808 12.88895,20.752778 3.84757,9.80561 5.07391,17.90987 5.05891,33.4317 -0.0111,11.49757 -0.47863,16.01066 -2.61554,25.24874 -3.0397,13.14088 -7.51573,24.78238 -13.75273,35.76889 -5.02073,8.84401 -8.73646,12.8996 -14.97963,16.34972 -3.85866,2.13238 -4.20853,2.18201 -3.52499,0.5 z M 278,218.29575 c 0,-0.23963 2.00797,-3.74349 4.46216,-7.78636 13.97489,-23.02134 19.93655,-49.36841 16.47679,-72.81784 -2.21118,-14.98678 -8.02253,-28.76669 -16.43047,-38.960039 l -5.44017,-6.595369 6.60053,-4.168612 C 313.14033,69.354597 347.66215,57.093532 385.5,51.800301 c 18.73337,-2.620658 55.69432,-1.456565 75.87652,2.389747 l 5.87651,1.119944 -8.87651,2.659101 C 393.00891,77.550997 341.62201,133.83285 328.96383,199.70922 c -1.1404,5.93493 -2.25412,11.69078 -2.47495,12.79078 -0.38185,1.90218 -1.24737,2.00541 -17.69519,2.11066 -14.16895,0.0907 -18.51332,0.47295 -24.04369,2.11572 -3.7125,1.10278 -6.75,1.809 -6.75,1.56937 z m -67.56704,-73.22087 c -9.58535,-5.49796 -14.65485,-15.27413 -14.82844,-28.59564 -0.0933,-7.16127 0.24768,-8.73621 3.18223,-14.69736 3.92383,-7.970747 10.09205,-13.822136 19.01857,-18.041669 l 6.30533,-2.980502 -3.67326,-2.496043 c -19.10661,-12.983281 -49.18686,-16.011907 -67.39416,-6.785572 -14.41551,7.304889 -24.64328,26.559967 -22.63707,42.617146 2.35971,18.88647 22.04819,28.78279 33.29611,16.73613 4.93427,-5.28466 6.71782,-14.58545 3.85087,-20.08137 -0.78899,-1.5125 -1.06581,-2.75 -0.61516,-2.75 1.66883,0 3.56202,6.68504 3.56202,12.57784 0,5.14922 -0.43787,6.65192 -2.86583,9.83514 -4.16718,5.46346 -8.18872,7.57887 -14.41629,7.58328 -13.00195,0.009 -22.35037,-9.14723 -24.08972,-23.59498 -2.30559,-19.151248 7.71701,-38.660172 23.91962,-46.559384 9.78064,-4.768326 17.08877,-6.102511 30.45222,-5.559409 6.6,0.268229 14.7,1.234687 18,2.147683 7.71075,2.133299 18.46693,7.08564 24.12185,11.106139 4.31444,3.067451 4.69697,3.147253 13.65845,2.849306 5.07084,-0.168592 11.2447,0.137671 13.7197,0.680585 9.66889,2.120961 24.764,11.532812 22.37258,13.949372 -0.84138,0.85022 -2.46238,0.128878 -6.38905,-2.843103 -6.20169,-4.693887 -15.85804,-8.10612 -25.15216,-8.887937 -10.12949,-0.852089 -10.39074,-0.368256 -3.67276,6.802061 3.22655,3.443809 7.95426,9.317077 10.50602,13.051707 3.89447,5.69975 4.43488,7.03687 3.36502,8.32597 -2.11578,2.54936 -3.35332,1.79191 -7.44335,-4.55582 -2.15254,-3.34073 -7.37172,-9.688803 -11.5982,-14.106823 -8.55855,-8.946438 -7.94086,-8.800531 -17.68029,-4.176311 -7.38129,3.504583 -14.72471,10.483535 -17.93473,17.044574 -6.96139,14.22856 -0.56171,34.17669 13.11039,40.86583 3.03409,1.48444 5.51653,2.87117 5.51653,3.08163 0,1.07714 -3.0334,0.0579 -7.56704,-2.54247 z M 219,146.39976 c 0,-0.77881 14.99622,-18.16565 18.38891,-21.32037 1.43176,-1.33134 2.90684,-2.11698 3.27794,-1.74587 1.06138,1.06138 -1.48521,10.63652 -3.84388,14.45292 C 234.06165,142.25436 226.58345,147 222.30422,147 220.4869,147 219,146.72989 219,146.39976 Z"
     id="path12" />
</svg>
