<svg width="825" height="825"
  xmlns="http://www.w3.org/2000/svg"
  xmlns:xlink="http://www.w3.org/1999/xlink" xml:space="preserve" overflow="hidden">
  <defs>
    <clipPath id="clip0">
      <rect x="1788" y="880" width="825" height="825"/>
    </clipPath>
  </defs>
  <g clip-path="url(#clip0)" transform="translate(-1788 -880)">
    <path d="M2055.73 1697.74C2047.9 1693.7 2040.03 1688.9 2038.24 1687.08L2035 1683.77 2039.71 1679.7C2046.49 1673.84 2055.35 1659.13 2057.37 1650.4 2058.7 1644.64 2058.64 1639.03 2057.13 1626.33 2056.05 1617.23 2055.63 1609.02 2056.2 1608.11 2057.66 1605.74 2060.91 1606.04 2063.15 1608.74 2064.76 1610.68 2067.13 1607.17 2078.27 1586.31 2085.53 1572.7 2094.33 1556.95 2097.82 1551.3 2112.57 1527.43 2131.16 1485.37 2136.02 1464.91 2137.7 1457.86 2142.47 1443.55 2146.63 1433.11 2150.79 1422.68 2154.02 1413.97 2153.81 1413.76 2153.59 1413.54 2145.59 1416.5 2136.03 1420.33 2116.71 1428.06 2115.15 1428.23 2084.25 1425.91 2055.3 1423.74 2050.23 1419.72 2051.53 1399.97 2052.14 1390.69 2053.27 1387.02 2058.57 1377.16 2067.14 1361.19 2079.74 1345.03 2091.02 1335.52 2101.03 1327.09 2111.79 1316.14 2111.79 1314.41 2111.79 1313.82 2110.42 1311.61 2108.75 1309.48 2107.08 1307.36 2105.71 1305.23 2105.71 1304.77 2105.71 1304.3 2109.24 1303.45 2113.55 1302.88 2120.46 1301.96 2122.67 1300.67 2132.01 1292.1 2137.84 1286.75 2145.97 1280.67 2150.07 1278.59 2154.17 1276.51 2157.14 1274.19 2156.67 1273.44 2156.21 1272.68 2156.81 1271.51 2158.02 1270.83 2161.76 1268.72 2161.45 1265.36 2157.41 1264.36 2155.32 1263.84 2152.96 1261.97 2152.18 1260.21 2151.18 1257.98 2148.9 1256.75 2144.73 1256.19 2137.88 1255.27 2136.18 1253.35 2136.14 1246.53 2136.13 1243.89 2135.61 1241.49 2134.98 1241.21 2133.17 1240.41 2117.36 1221.68 2111.45 1213.33 2099.82 1196.91 2090.42 1173.06 2087.44 1152.37 2086.46 1145.6 2085.21 1139.44 2084.66 1138.68 2084.11 1137.92 2080.37 1135.74 2076.34 1133.85 2070.38 1131.04 2068.44 1129.09 2065.9 1123.35 2061.96 1114.44 2062.95 1103.73 2068.09 1099.56 2074.16 1094.63 2083.51 1090.98 2090.16 1090.95 2095.05 1090.92 2098.55 1089.61 2104.3 1085.66L2111.94 1080.41 2105.78 1077.27C2102.4 1075.54 2098.09 1074.44 2096.21 1074.82 2094.32 1075.2 2090.9 1075.92 2088.6 1076.4 2085.14 1077.13 2084.42 1076.76 2084.42 1074.25 2084.42 1072.25 2085.76 1070.87 2088.29 1070.23 2091.84 1069.34 2091.97 1069.04 2089.81 1066.66 2086.64 1063.16 2086.85 1060.16 2090.61 1055.38 2095.4 1049.3 2101.26 1050.02 2109.62 1057.72 2114.42 1062.14 2117.05 1066.09 2118.28 1070.71 2119.7 1076.03 2120.66 1077.26 2123.09 1076.91 2125.08 1076.62 2126.45 1074.9 2127.06 1071.91 2129.13 1061.8 2133.58 1058.29 2144.34 1058.24 2147.69 1058.23 2150.56 1057.4 2150.92 1056.33 2151.38 1055 2150.3 1054.69 2147.27 1055.29 2143.56 1056.01 2141.55 1054.79 2132.78 1046.53 2126.65 1040.75 2122.38 1035.42 2122.05 1033.13 2121.59 1029.93 2121.19 1030.39 2119.58 1035.98 2117.94 1041.65 2118.02 1043.77 2120.13 1050.22 2121.49 1054.39 2122.31 1058.09 2121.95 1058.45 2121.37 1059.04 2117.8 1053.99 2112.19 1044.63 2111.16 1042.9 2110.31 1039.82 2110.29 1037.77 2110.26 1032.52 2107.7 1035.52 2105.09 1043.86L2102.97 1050.62 2102.82 1044.1C2102.65 1036.75 2105.85 1027.95 2110.5 1023L2113.62 1019.68 2108.86 1015.38C2106.25 1013.01 2102.43 1006.97 2100.38 1001.95L2096.66 992.829 2096.35 998.912C2096.19 1002.26 2096 1008.59 2095.94 1012.98 2095.88 1017.37 2095.42 1020.96 2094.92 1020.96 2094.42 1020.96 2092.88 1017.46 2091.49 1013.18 2088.13 1002.76 2088.27 991.06 2091.86 984.026 2093.44 980.922 2094.16 978.383 2093.45 978.383 2090.39 978.383 2081.26 990.026 2079.29 996.451 2077.73 1001.54 2077.09 1002.43 2076.99 999.673 2076.75 993.242 2083.93 980.194 2092.87 970.823L2101.38 961.897 2094.53 953.492C2090.77 948.869 2084.75 939.15 2081.15 931.894 2075.82 921.142 2074.52 916.838 2074.11 908.624 2073.45 895.16 2077.09 888.661 2085.32 888.661 2097.28 888.661 2118.36 903.958 2136.57 925.851L2140.3 930.346 2149.24 925.605 2158.17 920.865 2164.88 924.311 2171.6 927.756 2178.99 918.87C2198.42 895.526 2213.54 885.87 2237.59 881.453 2255.06 878.246 2275.07 880.439 2289.37 887.124 2299.55 891.881 2319.52 905.096 2323.98 910.023 2325.46 911.656 2327.93 912.992 2329.48 912.992 2331.02 912.992 2332.28 913.676 2332.28 914.513 2332.28 915.349 2334.69 916.034 2337.63 916.034 2340.57 916.034 2346.99 917.151 2351.9 918.516 2362.65 921.505 2369.91 920.483 2376.33 915.078 2380.46 911.606 2380.94 911.497 2380.94 914.04 2380.94 915.6 2379.88 918.398 2378.57 920.258 2376.35 923.428 2376.4 923.637 2379.4 923.637 2382.98 923.637 2391.94 928.07 2397.67 932.676 2400.76 935.167 2400.98 935.742 2398.81 935.769 2397.34 935.787 2396.15 936.517 2396.15 937.39 2396.15 938.263 2395.29 938.782 2394.25 938.542 2393.2 938.302 2389.89 939.983 2386.88 942.277 2383.87 944.571 2380.62 946.448 2379.66 946.448 2377.52 946.448 2377.51 946.74 2379.38 951.671 2381.17 956.366 2380.06 956.689 2376.62 952.475 2375.11 950.622 2370.25 948.485 2364.52 947.153 2359.25 945.929 2352.75 943.816 2350.07 942.457 2341.98 938.347 2332.28 929.7 2332.28 926.59 2332.28 924.98 2330.91 922.808 2329.24 921.763 2327.57 920.719 2326.2 918.773 2326.2 917.438 2326.2 914.093 2304.91 898.422 2291.98 892.252 2278.2 885.67 2266.41 883.548 2249.41 884.585 2221.81 886.27 2200.6 897.769 2180.23 922.102L2174.04 929.493 2178.76 932.268C2182.63 934.544 2183.33 935.764 2182.68 939.062 2181.93 942.819 2182.32 943.148 2188.61 944.091 2196.28 945.241 2211.38 954.647 2217.84 962.294 2220.82 965.818 2225.5 968.511 2233.94 971.55 2254.24 978.86 2272.98 991.958 2272.97 998.831 2272.96 1002.73 2267.54 1011.84 2265.22 1011.84 2264.14 1011.84 2264.42 1010.44 2265.96 1008.09 2269.77 1002.28 2268.93 998.237 2262.71 992.372 2256.74 986.736 2242.25 979.345 2233.8 977.623 2228.94 976.632 2229.02 976.776 2237.88 985.231 2248.42 995.282 2252.6 1003.25 2254.04 1016 2254.93 1023.79 2255.87 1025.93 2260.23 1030.05 2263.06 1032.72 2265.74 1036.73 2266.19 1038.96 2266.64 1041.19 2267.66 1045.11 2268.47 1047.68 2271.41 1057.04 2270.2 1057.79 2263.47 1050.79 2259.23 1046.38 2254.92 1043.55 2250.93 1042.56 2235.59 1038.74 2231.66 1039.14 2237.41 1043.91 2238.76 1045.03 2242.53 1051.56 2245.79 1058.42 2252.34 1072.22 2259.23 1079.46 2264.27 1077.86 2278.52 1073.33 2287.03 1066.28 2290.37 1056.22 2297.7 1034.16 2299.24 1008.43 2294.16 993.162 2290.39 981.853 2283.25 968.558 2277.85 962.795 2275.69 960.495 2274.67 958.613 2275.58 958.613 2277.63 958.613 2298.58 979.055 2302.83 985.211L2305.98 989.757 2308.86 984.45C2311.22 980.129 2311.74 976.036 2311.7 962.415 2311.66 947.397 2311.22 944.757 2307.44 936.58L2303.23 927.473 2307.99 932.018C2310.61 934.518 2314.87 939.814 2317.45 943.787 2320.04 947.759 2322.79 951.01 2323.58 951.01 2324.94 951.01 2324.08 943.291 2322.08 937.596 2320.84 934.062 2333.32 946.121 2336.95 951.969 2338.58 954.588 2340.56 959.72 2341.35 963.375 2342.14 967.029 2344.27 974.267 2346.09 979.459L2349.39 988.9 2356.15 980.219C2362.46 972.114 2362.88 971.011 2362.42 963.554 2362.15 959.103 2362.56 955.776 2363.34 956.039 2367.45 957.416 2376.59 973.931 2379.42 985.089 2382.97 999.138 2383.38 1020.3 2380.26 1029.06L2378.18 1034.87 2384.12 1034C2387.39 1033.52 2392.84 1032.72 2396.22 1032.22 2399.82 1031.69 2405.21 1029.16 2409.19 1026.12L2416 1020.92 2412.94 1026.92C2411.25 1030.22 2409.18 1033.35 2408.34 1033.87 2407.49 1034.39 2405.36 1038.18 2403.59 1042.28 2400.02 1050.59 2387.94 1062.87 2381.83 1064.41 2376.12 1065.84 2376.95 1067.16 2385.45 1070.22 2390.63 1072.08 2396.11 1072.77 2402.94 1072.42 2408.41 1072.14 2412.88 1072.36 2412.88 1072.92 2412.87 1075.11 2402.25 1080.34 2394.02 1082.2L2385.36 1084.17 2389.45 1087.92C2395.09 1093.11 2402.24 1104.55 2402.18 1108.32 2402.14 1111.42 2402.13 1111.42 2400.46 1108.4 2398.34 1104.58 2392.9 1098.52 2391.58 1098.52 2391.04 1098.52 2390.87 1100.74 2391.21 1103.46L2391.84 1108.4 2388.85 1103.72C2384.47 1096.86 2376.09 1093.42 2363.45 1093.31 2353.68 1093.23 2351.13 1093.96 2332.28 1102.24 2314.23 1110.17 2310.54 1111.27 2301.72 1111.35 2292.53 1111.44 2290.3 1110.75 2275.44 1103.31 2263.21 1097.19 2256.98 1094.98 2250.24 1094.37 2241.29 1093.56 2241.28 1093.56 2240.78 1097.93 2240.2 1103.07 2236.46 1104.36 2232.78 1100.69 2228.29 1096.19 2230.44 1092.03 2239.52 1087.59 2246.52 1084.17 2247.8 1082.93 2247.37 1079.99 2246.67 1075.19 2241.75 1070.15 2232.68 1064.92 2226 1061.06 2216.71 1058.98 2216.71 1061.34 2216.71 1061.8 2217.81 1064.3 2219.16 1066.9 2220.88 1070.23 2221.42 1074.39 2221 1081.05 2220.43 1089.98 2220.61 1090.59 2224.53 1092.84 2227.18 1094.36 2228.83 1096.74 2229.15 1099.51 2229.93 1106.31 2244.86 1113.98 2269.94 1120.47 2281.23 1123.39 2294.06 1127.17 2298.46 1128.87 2308.9 1132.92 2309.73 1132.85 2307.91 1128.07 2305.99 1123.01 2306.01 1122.85 2308.77 1122.85 2310.08 1122.85 2312.38 1125.83 2314.03 1129.69 2317.67 1138.18 2320.68 1138.84 2319.21 1130.83 2318.64 1127.7 2317.56 1123.5 2316.82 1121.5 2314.96 1116.49 2316.53 1115.55 2320.36 1119.38 2322.27 1121.29 2324.08 1125.8 2324.82 1130.51 2326.91 1143.7 2329.23 1142.98 2330.61 1128.71 2331.45 1120.1 2331.71 1119.55 2333.8 1122.08 2335.06 1123.59 2336.43 1129 2336.84 1134.11 2337.51 1142.29 2338 1143.44 2341.02 1143.87 2343.18 1144.17 2344.45 1143.56 2344.45 1142.22 2344.45 1141.05 2346.01 1139.26 2347.91 1138.24 2353.98 1134.99 2358.38 1122.79 2357.98 1110.33 2357.76 1103.48 2358.24 1099.24 2359.3 1098.89 2362.05 1097.97 2364.11 1103.67 2365.17 1115.13 2365.73 1121.09 2366.54 1125.59 2366.98 1125.15 2367.42 1124.71 2368.66 1118.79 2369.75 1112 2370.83 1105.2 2372.12 1099.23 2372.61 1098.74 2374.92 1096.43 2376.41 1103.47 2376.03 1114.87 2375.81 1121.77 2376.08 1127.42 2376.65 1127.42 2377.22 1127.41 2379.9 1123.99 2382.61 1119.81 2385.32 1115.63 2388.19 1112.21 2389 1112.21 2391.66 1112.21 2388.76 1123.13 2384.42 1129.5 2382.09 1132.92 2379.66 1136.54 2379.02 1137.55 2376.73 1141.17 2380.65 1140.93 2388.31 1136.98 2392.61 1134.77 2396.59 1133.43 2397.15 1133.99 2398.83 1135.67 2391.5 1142.45 2385.79 1144.52 2381.8 1145.95 2379.83 1148 2377.74 1152.87 2373.95 1161.71 2367.11 1165.85 2358.35 1164.61 2353.8 1163.97 2352.04 1164.19 2352.74 1165.31 2354.78 1168.61 2351.93 1169.7 2347.3 1167.39 2343.01 1165.25 2342.14 1165.26 2337.81 1167.5 2335.19 1168.86 2331.88 1170.81 2330.45 1171.83 2328.38 1173.31 2326.41 1173.19 2320.57 1171.19 2316.56 1169.82 2308.22 1168.26 2302.05 1167.71 2290.67 1166.71 2274.51 1163.93 2261.25 1160.68 2250.18 1157.97 2240.7 1152.67 2230.91 1143.71 2221.41 1135.01 2211.63 1128.44 2210.25 1129.82 2209.79 1130.28 2206.24 1131.62 2202.37 1132.78L2195.32 1134.9 2192.87 1129.75C2190.52 1124.82 2190.25 1124.7 2186.91 1126.89 2184.69 1128.35 2182.49 1132.35 2180.92 1137.81 2179.55 1142.54 2176.4 1150 2173.91 1154.38 2171.41 1158.76 2169.55 1163.55 2169.77 1165.03 2169.98 1166.5 2169.65 1169.2 2169.04 1171.03 2168.19 1173.54 2169.2 1176.03 2173.19 1181.26 2176.1 1185.07 2178.89 1189.5 2179.41 1191.12 2181.07 1196.34 2187.23 1199.16 2194.6 1198.06 2204.66 1196.55 2210.63 1198.32 2210.63 1202.81 2210.63 1205.64 2211.44 1206.49 2214.14 1206.49 2216.07 1206.49 2219.77 1208.06 2222.37 1209.98L2227.1 1213.47 2245.86 1210.59C2260.88 1208.29 2279.37 1203.52 2295.03 1197.91 2296.93 1197.23 2302.52 1206.89 2304.61 1214.47 2305.85 1218.97 2305.74 1220.41 2304.08 1221.34 2302.38 1222.29 2302.68 1223.92 2305.73 1230.09 2310.23 1239.2 2311.01 1249.41 2307.5 1253.29 2305.21 1255.82 2305.25 1256.75 2308.04 1265.7 2311.14 1275.65 2310.84 1281 2307.19 1281 2304.48 1281 2303.1 1285.59 2303.42 1293.58 2303.97 1307.69 2303.54 1309.94 2299.98 1311.26 2297.74 1312.08 2295.48 1315.34 2293.41 1320.71 2290.6 1327.97 2289.79 1328.86 2286.29 1328.49 2283.65 1328.21 2281.58 1329.14 2280.07 1331.29 2278.49 1333.54 2276.88 1334.22 2274.75 1333.55 2272.34 1332.78 2270.72 1333.99 2267.08 1339.29 2264.54 1342.98 2258.93 1349.17 2254.63 1353.04 2248.82 1358.26 2247.55 1360.08 2249.71 1360.08 2251.31 1360.08 2254.94 1358.37 2257.77 1356.28 2260.6 1354.19 2264.43 1352.48 2266.27 1352.48 2268.12 1352.48 2272.6 1350.77 2276.24 1348.69 2279.88 1346.61 2283.64 1344.9 2284.6 1344.89 2286.75 1344.87 2301.42 1357.93 2303.4 1361.62 2304.46 1363.6 2304.02 1365.36 2301.73 1368.28 2299.61 1370.97 2299.25 1372.22 2300.62 1372.17 2301.72 1372.12 2308.39 1364.56 2315.43 1355.35L2328.24 1338.61 2332.66 1343.03 2337.07 1347.44 2324.03 1365.46C2316.86 1375.38 2310.99 1383.98 2310.99 1384.59 2310.99 1385.2 2313.41 1386.49 2316.35 1387.47 2329.98 1391.96 2340.28 1409.03 2340.51 1427.49L2340.64 1437.88 2334.56 1440.08C2331.22 1441.29 2323.96 1442.69 2318.43 1443.2L2308.38 1444.12 2307.28 1432.94C2305.9 1418.88 2304.71 1416.72 2297.67 1415.45 2294.54 1414.89 2291.04 1413.66 2289.89 1412.73 2288.74 1411.79 2284.97 1410.31 2281.52 1409.44 2275.99 1408.04 2275.2 1407.29 2274.78 1403 2274.5 1400.14 2272.96 1397.19 2271.02 1395.84 2266.41 1392.6 2245.9 1392.82 2233.86 1396.22 2224.41 1398.89 2224.38 1398.92 2216.25 1411.8 2211.77 1418.9 2203.64 1430.99 2198.19 1438.66 2189.93 1450.27 2188.1 1453.97 2187.29 1460.71 2185.82 1472.79 2179.44 1496.47 2174.85 1506.83 2167.42 1523.61 2156.96 1537.01 2128.94 1565.64 2113.65 1581.26 2101.15 1594.69 2101.15 1595.49 2101.15 1597.67 2104.18 1599.64 2112.1 1602.6 2116.03 1604.07 2120.36 1606.5 2121.72 1608.01 2124.04 1610.57 2123.72 1611.69 2116.86 1624.94 2109.31 1639.52 2107.86 1640.66 2100.77 1637.65 2098.9 1636.86 2098.11 1637.22 2098.11 1638.85 2098.11 1640.13 2107.65 1647.85 2119.3 1656.01 2141.22 1671.34 2140.89 1670.93 2136.39 1677.64 2135.34 1679.21 2130.19 1677.1 2113.26 1668.16 2101.28 1661.83 2091.33 1656.81 2091.13 1657.01 2090.94 1657.21 2090.33 1662.85 2089.78 1669.54 2088.67 1682.96 2085.99 1692.81 2081.4 1700.34 2077.26 1707.12 2073.1 1706.7 2055.73 1697.74ZM2174.24 1353.26C2176.7 1347.42 2178.54 1342.17 2178.33 1341.6 2178.11 1341.03 2172.12 1345.99 2165.01 1352.61L2152.09 1364.65 2160.93 1364.27 2169.77 1363.88ZM2255.47 1081.23C2258.23 1079.22 2258.22 1079.1 2255.1 1077.43 2250.61 1075.02 2250.17 1075.21 2250.17 1079.51 2250.17 1083.82 2251.39 1084.22 2255.47 1081.23ZM2218.93 1076.85C2215.19 1064.38 2204.27 1053.57 2193.88 1052.04 2187.28 1051.08 2182.61 1053.64 2186.65 1056.02 2188.09 1056.88 2191.45 1060.73 2194.1 1064.59 2200.75 1074.25 2203.97 1077.21 2207.97 1077.34 2209.85 1077.39 2212.76 1078.03 2214.43 1078.75 2219.26 1080.82 2220.03 1080.5 2218.93 1076.85ZM2113.82 1070.01C2112.1 1066.48 2108.82 1063.14 2105.24 1061.26 2099.5 1058.24 2099.44 1058.24 2097.24 1061.2 2094.14 1065.37 2094.87 1066.44 2104.26 1071.45 2108.82 1073.89 2113.23 1076.55 2114.05 1077.37 2116.83 1080.13 2116.69 1075.89 2113.82 1070.01ZM2247.62 1010.27C2246.12 1007.74 2242.62 1003.46 2239.84 1000.77L2234.78 995.871 2237.62 1002.24C2240.27 1008.15 2246.26 1014.71 2249.11 1014.83 2249.79 1014.86 2249.11 1012.81 2247.62 1010.27ZM2118.98 950.105C2121.65 949.57 2124.91 947.502 2126.21 945.509 2127.85 943.019 2130.02 941.886 2133.17 941.886 2137.37 941.886 2137.61 941.617 2136.02 938.651 2134.68 936.154 2134.73 935.14 2136.25 934.202 2141.28 931.097 2116.44 905.67 2100.71 897.805 2084.19 889.551 2078.34 892.287 2078.34 908.263 2078.34 920.905 2084.28 935.334 2095.81 950.674L2102.9 960.095 2108.51 955.586C2111.59 953.106 2116.3 950.64 2118.98 950.105Z" fill="#fff" fill-rule="evenodd"/>
  </g>
</svg>