<svg width="2021" height="1042"
  xmlns="http://www.w3.org/2000/svg"
  xmlns:xlink="http://www.w3.org/1999/xlink" xml:space="preserve" overflow="hidden">
  <defs>
    <clipPath id="clip0">
      <rect x="1192" y="719" width="2021" height="1042"/>
    </clipPath>
  </defs>
  <g clip-path="url(#clip0)" transform="translate(-1192 -719)">
    <path d="M2321.74 1392.06C2273.32 1393.43 2245.82 1440.84 2257.29 1485.67 2262.88 1507.54 2278.82 1516.86 2305.45 1513.69 2321.72 1509.29 2340.88 1503.75 2342.82 1485.88 2346.11 1455.59 2343.73 1424.68 2343.73 1394.44 2336.01 1392.61 2328.66 1391.87 2321.74 1392.06ZM2993.87 1296.31C2980.96 1294.32 2966.38 1299.12 2952.59 1311.04 2935.06 1332.15 2927.79 1356.5 2928.28 1384.31 2965.88 1384.31 3002.18 1384.31 3043.64 1384.31 3037.22 1362 3033.88 1340.95 3025.2 1322.39 3018.05 1307.1 3006.79 1298.31 2993.87 1296.31ZM2130.61 1272.02C2141.3 1270.25 2144.88 1275.96 2144.9 1292.73 2144.96 1364.31 2144.92 1435.88 2144.92 1509.18 2144.92 1563.01 2144.92 1615.12 2144.92 1667.22 2144.91 1722.31 2124.66 1747.48 2069.57 1757.53 2037.64 1763.35 2005.62 1763.28 1976.16 1746.09 1951.71 1731.82 1939.34 1710.81 1941.36 1682.15 1942.51 1665.81 1954.61 1652.65 1970.13 1650.47 1996.93 1646.69 2012.06 1668.37 2001.37 1695.24 1991.36 1720.4 2000.19 1734.57 2026.73 1733.1 2033.74 1732.71 2043.6 1726.63 2046.41 1720.52 2050.96 1710.62 2052.27 1698.56 2052.31 1687.39 2052.71 1579.17 2052.56 1470.95 2052.54 1362.72 2052.54 1331.48 2051.07 1330.06 2019.31 1329.96 2014.19 1329.94 2009.07 1329.95 2002.45 1329.95 2002.45 1320.33 2002.45 1311.54 2002.45 1301.63 2018.73 1300.03 2035.98 1300.06 2052.36 1296.3 2074.45 1291.24 2096.41 1284.58 2117.42 1276.14 2122.7 1274.02 2127.05 1272.61 2130.61 1272.02ZM2679.28 1271.52C2697.77 1270.29 2716.5 1273.41 2735.45 1281.06 2764.91 1292.96 2777.13 1311.78 2777.16 1343.27 2777.19 1391.94 2777.15 1440.61 2777.19 1489.29 2777.19 1494.43 2776.27 1500.05 2778.01 1504.59 2779.59 1508.71 2783.98 1514.02 2787.59 1514.39 2790.67 1514.71 2796.86 1509.09 2797.37 1505.5 2798.92 1494.41 2804.39 1487.84 2815.11 1489.1 2820.9 1489.79 2830.9 1495.66 2830.7 1498.62 2830.11 1507.27 2827.72 1518.27 2821.78 1523.61 2800.52 1542.7 2752.13 1545.15 2727.35 1530.68 2713.01 1522.31 2710.12 1508.94 2710.14 1493.92 2710.21 1442.38 2708.59 1390.78 2710.69 1339.33 2712.22 1301.91 2679.31 1287.47 2649.93 1301.58 2618.72 1316.57 2596.62 1333.22 2601.77 1374.47 2606.55 1412.82 2602.93 1452.22 2603.29 1492.6 2606.93 1507.63 2617.37 1511.46 2629.51 1512.22 2638.02 1512.76 2646.58 1512.33 2656.69 1512.33 2657.09 1518.73 2657.42 1524.04 2657.84 1530.71 2598.97 1530.71 2541.46 1530.71 2482.94 1530.71 2482.94 1525.07 2482.94 1519.7 2482.94 1512.26 2492.38 1512.26 2501.45 1512.92 2510.41 1512.13 2529.63 1510.43 2536.75 1502.73 2536.85 1483.35 2537.08 1435.25 2536.96 1387.15 2536.91 1339.05 2536.89 1316.27 2534.31 1313.75 2511.25 1313.26 2507.87 1313.18 2504.49 1312.96 2499.9 1312.76 2499.9 1306.47 2499.9 1300.65 2499.9 1298.95 2530.46 1289.87 2559.16 1281.32 2587.88 1272.85 2597.04 1270.15 2602.46 1273.12 2602.71 1283.21 2602.82 1287.77 2602.73 1292.33 2602.73 1299.63 2611.11 1295.19 2617.9 1291.66 2624.63 1288.01 2642.57 1278.3 2660.8 1272.74 2679.28 1271.52ZM2314.62 1271.41C2332.39 1272.49 2349.99 1276.16 2367.26 1282.94 2398.7 1295.27 2409.71 1312.24 2409.72 1345.71 2409.73 1394.93 2409.72 1444.15 2409.73 1493.37 2409.73 1497.38 2408.72 1501.79 2410.08 1505.28 2411.53 1508.98 2415.24 1511.8 2417.96 1515.01 2421.01 1512.24 2424.81 1509.93 2426.89 1506.56 2428.54 1503.9 2427.73 1499.84 2428.64 1496.57 2432.42 1483.14 2442.51 1480.41 2454.18 1483.58 2466.51 1486.93 2471.56 1498.18 2465.56 1507.58 2458.67 1518.35 2448.02 1529.59 2436.48 1533.96 2404.86 1545.94 2374.62 1541.4 2349.12 1515.76 2316.63 1537.57 2281.02 1544.01 2242.8 1537.19 2188.7 1527.54 2165.36 1472.32 2197.82 1427.36 2226.19 1388.06 2268.84 1375.73 2314.72 1371.88 2323.69 1371.13 2332.78 1371.77 2343.55 1371.77 2343.55 1356.63 2344.21 1343.04 2343.37 1329.54 2342.52 1315.77 2334.42 1306.53 2321.99 1300.8 2298.35 1289.92 2256.05 1296.74 2240.16 1314.59 2241.13 1316.29 2241.82 1318.63 2243.36 1320.01 2254.61 1330.16 2258.39 1341.51 2249.02 1354.8 2240.15 1367.4 2227.76 1369.21 2213.92 1365.07 2198.98 1360.61 2195.85 1348.96 2196.56 1335.37 2196.8 1330.88 2198.01 1326.43 2199.19 1320.65 2210.8 1291.84 2234.21 1280.78 2260.9 1275.44 2278.88 1271.84 2296.84 1270.33 2314.62 1271.41ZM2996.67 1175.98C3069.78 1174.48 3158.58 1210.2 3196.95 1288.6 3225.98 1347.93 3215.12 1418.79 3168.44 1470.55 3118.41 1526.04 3054.93 1551.79 2981.04 1546.15 2906.86 1540.49 2839.84 1482.95 2860.15 1372.72 2876.91 1281.74 2988.82 1238.66 3062.07 1295.12 3093.55 1319.37 3107.66 1352.86 3110.65 1391.74 3111.8 1406.71 3103.5 1410.21 3090.51 1410.14 3042.94 1409.86 2995.37 1410.03 2947.8 1410.03 2941.67 1410.03 2935.53 1410.03 2929.62 1410.03 2922.31 1484.89 2970.67 1526.28 3046.42 1511.83 3087.37 1504.01 3123.36 1486.27 3153.23 1454.79 3236.9 1361.2 3186.74 1225.87 3057.53 1193.11 3051.98 1191.7 3046.35 1190.53 3040.7 1189.69 3029.9 1188.09 3022.5 1189.38 3020.57 1203.46 3018.53 1218.37 3007.53 1225.94 2991.93 1224.13 2978.47 1222.56 2971.63 1213.82 2971.07 1200.94 2970.49 1187.68 2981.81 1176.28 2996.67 1175.98ZM2743.67 1087.26C2728.65 1093.47 2713.13 1098.72 2698.74 1106.15 2681.77 1114.92 2666.26 1126.75 2661.18 1146.2 2659.19 1153.82 2660.32 1166.21 2665.24 1170.55 2670.08 1174.84 2684.24 1175.22 2689.5 1171.13 2702.7 1160.87 2713.19 1147.12 2726.11 1132.67 2733.22 1118.9 2740.34 1105.14 2747.45 1091.38 2746.19 1090.01 2744.93 1088.64 2743.67 1087.26ZM2224.96 920.1C2199.72 922.594 2178.72 939.764 2166.25 969.648 2166.31 985.892 2163.8 1002.69 2167.11 1018.24 2170.88 1035.95 2189.2 1045.5 2206.84 1043.65 2227.01 1041.53 2250.81 1026.84 2251.16 1014.29 2252.02 983.61 2251.44 952.889 2251.44 922.569 2242.25 920.067 2233.37 919.268 2224.96 920.1ZM2556.86 800.656C2577.68 803.292 2593.43 818.926 2592.33 837.521 2591.44 852.606 2581.34 864.906 2567.65 866.203 2552.24 867.663 2539.46 864.611 2533.95 846.931 2532.73 843.017 2524.06 838.603 2519.34 839.121 2504.24 840.776 2491.15 858.268 2491.03 875.029 2490.82 903.664 2490.97 932.3 2490.97 962.655 2490.97 978.117 2490.97 991.863 2490.97 1005.61 2490.99 1035.2 2494.23 1038.85 2524.7 1042.33 2524.7 1047.32 2524.7 1052.5 2524.7 1058.59 2520.33 1058.89 2516.43 1059.37 2512.54 1059.38 2471.96 1059.43 2431.38 1059.41 2389.57 1059.41 2389.25 1053.24 2389.01 1048.43 2388.71 1042.79 2391.66 1042.17 2393.72 1041.53 2395.83 1041.32 2419.4 1039 2423.92 1034.05 2423.93 1010.12 2423.95 962.587 2423.95 915.051 2423.92 867.515 2423.91 842.303 2423.88 842.314 2397.76 841.853 2394.91 841.803 2392.07 841.533 2387.11 841.24 2386.81 835.374 2386.5 829.527 2386.37 826.938 2417.66 818.031 2446.97 809.583 2476.36 801.388 2485.42 798.861 2490.82 802.063 2490.97 812.19 2491.03 816.036 2491.65 819.874 2492.28 826.515 2511.88 809.606 2531.35 797.427 2556.86 800.656ZM2214.61 799.329C2237.49 799.836 2260.25 804.966 2282.69 815.16 2305.86 825.685 2318.47 843.081 2317.74 870.602 2316.42 920.979 2317.35 971.414 2317.39 1021.83 2317.4 1026.39 2316.75 1031.34 2318.28 1035.4 2319.42 1038.4 2323.56 1041.99 2326.48 1042.09 2329.16 1042.19 2332.76 1038.46 2334.56 1035.55 2336.25 1032.81 2336.09 1028.95 2336.78 1025.58 2339.69 1011.27 2350.25 1009.22 2361.75 1011.72 2374.51 1014.49 2378.58 1025.51 2373.88 1035.63 2369.64 1044.76 2361.59 1054.44 2352.72 1058.71 2318.65 1075.12 2286.19 1071.58 2257.12 1044.29 2226.34 1065.06 2192.3 1071.27 2155.87 1066.42 2127.09 1062.58 2103.52 1050.64 2095.39 1020.94 2086.89 989.838 2094.55 961.771 2119.22 939.896 2146.81 915.438 2179.92 903.845 2216.22 900.934 2226.99 900.071 2237.89 900.802 2250.79 900.802 2250.79 883.8 2252.77 867.706 2249.98 852.492 2248.49 844.409 2240.03 835.685 2232.41 831.015 2210.74 817.738 2168.23 823.796 2147.89 841.911 2149.57 844.468 2150.95 847.555 2153.18 849.785 2163 859.591 2165.06 870.247 2157.66 882.347 2149.71 895.361 2137.16 895.951 2124.31 893.877 2110.93 891.718 2105.64 881.827 2104.25 869.412 2103.87 866.029 2104.33 862.553 2104.66 857.762 2110.08 833.741 2124.71 818.829 2145.72 811.239 2168.7 802.94 2191.72 798.823 2214.61 799.329ZM2812.52 786.126C2855.06 786.126 2896.63 786.126 2938.99 786.126 2938.99 792.131 2938.99 797.159 2938.99 802.196 2938.07 802.841 2937.07 804.114 2936.22 804.025 2902.08 800.438 2885.27 817.598 2873.03 848.521 2846.31 915.995 2815.85 981.991 2786.96 1048.61 2785.16 1052.75 2783.64 1057.03 2780.66 1064.66 2810.14 1057.84 2837.57 1052.95 2864.1 1045.05 2906.74 1032.33 2949.29 1018.96 2990.9 1003.26 3014.59 994.324 3034.66 978.602 3046.07 954.189 3065.7 912.208 3044.76 871.606 2999.16 863.964 2963.1 857.922 2921.24 885.253 2913.41 919.947 2909.38 937.821 2913.34 941.848 2931.38 939.245 2944.91 937.294 2955.07 942.588 2960.08 955.581 2964.5 967.032 2962.12 977.574 2951.75 984.421 2940.04 992.145 2928.73 989.123 2918.99 979.846 2895.94 957.872 2893.78 913.204 2914.35 886.783 2949.46 841.715 3024.75 838.653 3063.49 880.816 3083.14 902.199 3085.66 926.564 3074.48 952.532 3063.65 977.688 3045.44 995.823 3020.7 1007.97 2963.19 1036.21 2901.13 1049.97 2839.62 1065.49 2821.32 1070.11 2802.64 1073.37 2784.67 1078.99 2778.2 1081.01 2771.23 1087.03 2768.1 1093.09 2758.92 1110.82 2752.41 1129.93 2743.29 1147.7 2729.73 1174.15 2710.18 1194.3 2679.47 1200.43 2645.96 1207.1 2622.01 1180.71 2631.95 1147.85 2639.46 1123.03 2657.77 1107.13 2679.89 1096.72 2699.92 1087.3 2721.51 1081.04 2742.66 1074.16 2758.19 1069.12 2768.27 1051.78 2761.41 1037.35 2727.55 966.073 2693.3 894.977 2658.88 823.964 2649.16 803.9 2629.79 804.499 2610.01 804.13 2609.72 798.256 2609.44 792.847 2609.11 786.26 2662.15 786.26 2713.97 786.26 2766.63 786.26 2766.91 791.946 2767.17 796.967 2767.56 804.711 2760.18 804.711 2753.53 804.212 2746.97 804.809 2730.7 806.29 2726.95 812.568 2733.83 827.25 2747.91 857.276 2762.35 887.133 2777.17 918.235 2784.37 933.232 2791.04 947.054 2799.28 964.093 2811.17 936.667 2821.91 912.035 2832.54 887.358 2840.46 868.977 2848.29 850.558 2856.06 832.118 2862.97 815.761 2860.01 809.593 2842.07 806.039 2832.7 804.181 2822.91 804.423 2812.52 803.66 2812.52 797.643 2812.52 792.275 2812.52 786.126ZM1919.96 719.061C1940.19 719.732 1960.1 725.92 1979.47 739.473 1999.62 753.581 2009.96 772.21 2009.72 797.575 2009.08 864.58 2009.48 931.596 2009.54 998.606 2009.55 1005.47 2008.23 1013.16 2010.86 1018.96 2013.67 1025.15 2020.43 1029.54 2025.46 1034.71 2029.62 1030.3 2033.61 1025.71 2037.98 1021.51 2043.2 1016.51 2048.15 1009.13 2054.31 1007.81 2060.23 1006.53 2071.93 1010.21 2073.28 1014.29 2075.77 1021.82 2075.74 1035.72 2071.09 1039.04 2056.18 1049.7 2039.37 1061.39 2021.98 1063.99 2001.25 1067.09 1978.65 1063.42 1957.81 1058.6 1933.72 1053.03 1924.4 1037.95 1924.36 1013.32 1924.24 942.87 1924.31 872.422 1924.3 801.974 1924.3 797.392 1924.54 792.787 1924.16 788.233 1921.45 754.794 1898.96 741.277 1869.48 756.995 1853.47 765.53 1838.94 777.114 1824.72 788.532 1820.77 791.701 1818.52 799.179 1818.49 804.698 1818.08 873.425 1818.11 942.155 1818.41 1010.88 1818.44 1016.88 1819.84 1023.7 1823.02 1028.55 1825.28 1031.99 1831.92 1034.73 1836.05 1034.11 1839.73 1033.57 1845.01 1028.3 1845.5 1024.58 1847.05 1012.71 1853.11 1005.93 1864.5 1007.39 1871.41 1008.27 1883.09 1013.4 1883.27 1017.09 1883.71 1026.07 1881.44 1038.12 1875.42 1043.98 1851.61 1067.14 1820.88 1069.1 1790.15 1064.66 1752.13 1059.17 1730.45 1047.79 1731.76 998.318 1733.59 929.636 1732.28 860.87 1732.2 792.141 1732.15 753.51 1708.22 740.18 1674.03 758.768 1646.63 773.665 1630.13 791.406 1633.64 827.078 1637.59 867.261 1635.74 908.396 1632.6 948.821 1625.1 1045.19 1546.74 1125.13 1450.66 1137.71 1380.81 1146.84 1317.38 1132.14 1262.57 1086.84 1193.67 1029.89 1172.3 937.92 1211.48 857.237 1224.53 830.374 1244.64 806.848 1262.38 782.418 1266.88 776.223 1273.98 770.494 1281.1 767.941 1292.93 763.696 1305.56 764.48 1312.98 776.935 1319.79 788.357 1319.01 800.317 1309.51 810.102 1299.58 820.326 1286.17 823.373 1275.32 814.493 1260.75 802.569 1253.77 809.098 1245.27 820.977 1178.98 913.611 1211.74 1046.1 1311.76 1088.93 1421.46 1135.9 1545.63 1052.69 1547.69 930.469 1548.41 887.526 1547.85 844.56 1547.8 801.604 1547.77 776.942 1544.58 773.783 1520.04 773.625 1513.75 773.584 1507.47 773.619 1499.79 773.619 1499.79 765.425 1499.79 757.784 1499.79 748.145 1512.11 747.325 1525.42 748.162 1537.85 745.245 1561.66 739.655 1585.49 733.29 1608.35 724.682 1628.11 717.239 1632.06 718.136 1634.78 739.296 1635.06 741.477 1635.73 743.608 1636.67 747.732 1674.6 726.399 1713.4 712.449 1758.22 722.733 1777.15 732.897 1794.7 742.748 1815.05 754.166 1826.19 748.349 1841.79 738.672 1858.53 731.761 1879.17 723.24 1899.72 718.391 1919.96 719.061Z" fill="#C4517A" fill-rule="evenodd"/>
    <path d="M2090.36 1229C2089.04 1241.18 2088.64 1252.07 2086.56 1262.64 2085.8 1266.5 2081.03 1269.57 2078.09 1273 2075.12 1269.47 2070.31 1266.3 2069.54 1262.35 2067.39 1251.22 2067.66 1239.64 2065.6 1228.48 2061.02 1203.58 2050.91 1195.08 2025.97 1190.92 2020.57 1190.01 2015.97 1184.31 2011 1180.81 2015.8 1177.87 2020.32 1173.04 2025.44 1172.31 2048.37 1169.04 2059.6 1160.43 2064.75 1138.16 2067.3 1127.12 2067.08 1115.46 2069.45 1104.37 2070.54 1099.23 2074.83 1094.77 2077.67 1090 2080.78 1094.43 2085.31 1098.46 2086.65 1103.37 2088.74 1110.96 2088.56 1119.16 2089.49 1127.09 2093.03 1157.06 2103.53 1167.44 2133.23 1172.36 2137.54 1173.08 2141.1 1178.35 2145 1181.51 2141.05 1184.73 2137.15 1190.66 2133.16 1190.72 2108.05 1191.08 2095.91 1205.16 2090.36 1229Z" fill="#FED708" fill-rule="evenodd"/>
  </g>
</svg>