<svg width="1650" height="661"
  xmlns="http://www.w3.org/2000/svg"
  xmlns:xlink="http://www.w3.org/1999/xlink" xml:space="preserve" overflow="hidden">
  <defs>
    <clipPath id="clip0">
      <rect x="1375" y="907" width="1650" height="661"/>
    </clipPath>
  </defs>
  <g clip-path="url(#clip0)" transform="translate(-1375 -907)">
    <path d="M2263.16 1476.29C2263.37 1476.14 2265.34 1476.77 2267.53 1477.69 2279.88 1482.91 2298.11 1487.73 2311.33 1489.29 2329.43 1491.43 2341.55 1488.96 2350.99 1481.24 2354.27 1478.55 2358.23 1473.29 2360.32 1468.82L2361.84 1465.59 2364.25 1469.21C2368.48 1475.56 2373.33 1479.44 2380.34 1482.06 2389.57 1485.51 2401.28 1485.66 2416.46 1482.52L2422.44 1481.28 2419.19 1484.37C2414.95 1488.4 2404.33 1497.02 2395.84 1503.34 2371.1 1521.76 2341.12 1537.67 2310.52 1548.63 2303.84 1551.02 2277.28 1558.67 2271.78 1559.79 2232.2 1567.85 2199.6 1569.55 2162.97 1565.45 2150.02 1564.01 2125.45 1559.69 2127.11 1559.15 2134.36 1556.81 2159.59 1547.35 2161.72 1546.18 2170.86 1541.16 2177.21 1531.12 2177.72 1520.89L2177.91 1517.03 2181.78 1518.98C2189.45 1522.84 2199.99 1524.15 2209.12 1522.4 2225.74 1519.21 2242.72 1505.62 2258.26 1483.1 2260.74 1479.51 2262.94 1476.44 2263.16 1476.29ZM2475.34 1055.13 2476.6 1056.97C2482.52 1065.61 2492.28 1083.17 2498.55 1096.45 2507.46 1115.33 2512.78 1130.02 2518.69 1152.04 2524.36 1173.18 2527.18 1188.92 2528.88 1208.96 2533.95 1268.57 2523.06 1327.39 2496.92 1381.62 2490.4 1395.15 2472.27 1425.75 2470.49 1426.23 2470.27 1426.29 2468.36 1421.57 2466.27 1415.74 2450.08 1370.74 2439.46 1342.79 2430.68 1322.08 2424.77 1308.15 2411.86 1281.92 2409.1 1278.21 2407.82 1276.49 2406.45 1273.84 2405.7 1271.63 2404.36 1267.68 2401.75 1262.72 2400.06 1260.88 2399.19 1259.94 2399.09 1259.41 2399.38 1257.41 2400.74 1247.97 2398.71 1239.37 2393.13 1230.97L2390.77 1227.4 2391.48 1223.55C2391.88 1221.43 2392.06 1217.68 2391.9 1215.22L2391.6 1210.74 2378.46 1175.89C2371.24 1156.73 2364.96 1140.2 2364.51 1139.17L2363.7 1137.29 2392.63 1129.53C2436.76 1117.7 2446.32 1113.97 2457.23 1104.37 2462.6 1099.64 2467.18 1093.33 2469.68 1087.21 2471.81 1081.99 2473.74 1072.42 2474.65 1062.53ZM1870.54 1216.62 1875.35 1223.39C1887.75 1240.85 1896.88 1247.81 1911.16 1250.69 1925.37 1253.57 1935.52 1252 1979.91 1240.11L2009.08 1232.3 2009.37 1234.61C2009.63 1236.61 2012.81 1255.68 2016.41 1276.83 2017.04 1280.51 2018.64 1287.64 2019.97 1292.67 2022.53 1302.32 2024.52 1306.82 2028.76 1312.54L2030.52 1314.93 2029.36 1317.4C2024.86 1326.98 2023.88 1336.11 2026.36 1345.31 2028.19 1352.1 2031.41 1357.54 2036.25 1362.02L2038.64 1364.23 2039.35 1369.59C2039.75 1372.53 2039.91 1376.26 2039.72 1377.86 2039.23 1381.92 2041.29 1411.9 2043.02 1425.96 2045.81 1448.49 2052.35 1488.79 2059.54 1527.66 2060.36 1532.07 2060.91 1535.89 2060.78 1536.16 2060.64 1536.43 2057.8 1535.35 2054.46 1533.75 2034.99 1524.41 2010.04 1508.43 1991.6 1493.5 1944.48 1455.35 1909.6 1405.85 1888.5 1347.23 1884.92 1337.29 1877.16 1308.32 1875.41 1298.37 1870.7 1271.65 1868.94 1245.65 1870.24 1221.96ZM1905.3 1089.76C1905.62 1089.92 1906.08 1090.38 1906.81 1091.19 1915.9 1101.37 1932.94 1108.26 1955.39 1110.84 1962.42 1111.64 1974.85 1112.03 1981.08 1111.64L1984.58 1111.42 1985.82 1117.54C1986.51 1120.91 1987.02 1123.75 1986.97 1123.85 1986.91 1123.96 1976.29 1127.24 1963.36 1131.15 1918.65 1144.67 1892.24 1153.38 1881.47 1158.17 1880.44 1158.63 1879.55 1158.85 1879.51 1158.67 1879.35 1158.1 1882.75 1145.82 1885.28 1137.78 1890.25 1122.01 1897.41 1104.34 1904.59 1090.11 1904.78 1089.74 1904.97 1089.6 1905.3 1089.76ZM2381.94 961.956 2384.79 963.904C2402.36 975.92 2418.66 989.288 2432.57 1003.09 2436.99 1007.48 2438.39 1009.16 2437.74 1009.27 2437.24 1009.36 2434.29 1009.79 2431.17 1010.23 2418.2 1012.06 2393.33 1017.33 2352.26 1026.94 2339.11 1030.02 2328.27 1032.49 2328.16 1032.43 2328.06 1032.37 2327.04 1029.49 2325.89 1026.03 2324.18 1020.89 2323.92 1019.66 2324.46 1019.32 2324.82 1019.1 2328.53 1017.06 2332.7 1014.79 2342.76 1009.33 2352.45 1003.5 2357.06 1000.14 2371.05 989.938 2378.25 979.651 2381.15 965.758ZM2114.61 918.738C2124.34 916.131 2134.07 913.752 2139.05 912.875 2183.61 905.024 2224.73 905.492 2267.7 914.339 2272.1 915.246 2277.54 916.487 2279.8 917.098L2283.9 918.209 2280.13 920.414C2266.82 928.192 2240.23 938.357 2195.39 952.807 2185.38 956.035 2095.01 980.834 2084.27 983.302 2025.64 996.775 1995.53 1002.13 1975.09 1002.7 1966.42 1002.94 1966.26 1003.77 1976.79 994.097 2009.64 963.921 2046.86 941.559 2090.19 925.968 2095.16 924.18 2104.88 921.345 2114.61 918.738Z" fill="#483560" fill-rule="evenodd" fill-opacity="0.501961"/>
    <path d="M2236.47 1373.62C2228.33 1375.81 2232.92 1400.34 2242.51 1405.88 2252.71 1411.77 2253.77 1409 2248.65 1389.91 2245.97 1379.88 2240.49 1372.55 2236.47 1373.62ZM2254.41 1338.46C2243.19 1341.74 2245.46 1343.64 2264.48 1346.86 2297.15 1352.39 2316.94 1346.86 2289.94 1339.75 2278.38 1336.71 2262.39 1336.13 2254.41 1338.46ZM2203.36 1352.14C2195.28 1354.11 2181.73 1362.6 2173.24 1371.03 2153.41 1390.68 2173.31 1385.57 2198.84 1364.45 2213.7 1352.15 2214.72 1349.37 2203.36 1352.14ZM2383.92 1296.6 2394.68 1318.34C2400.6 1330.29 2413.88 1363.32 2424.18 1391.74L2442.9 1443.4 2417.32 1450.25C2403.25 1454.02 2390.79 1454.72 2389.63 1451.81 2388.47 1448.89 2383.92 1431 2379.53 1412.03 2375.13 1393.07 2365.82 1371.46 2358.83 1364.01 2347.66 1352.1 2348.41 1347.21 2365.02 1323.53ZM2070.27 1380.64 2100.1 1394.51C2126.47 1406.78 2129.43 1410.52 2125.65 1426.7 2123.3 1436.77 2127.01 1461.64 2133.89 1481.97L2146.42 1518.93 2119.58 1528.55 2092.74 1538.18 2083.05 1483.62C2077.73 1453.61 2072.67 1418.16 2071.82 1404.85ZM2360.47 1246.24C2363.34 1244.93 2366.54 1245.96 2368.16 1250.2 2369.24 1253.02 2366.54 1257.71 2362.15 1260.6 2357.77 1263.49 2354.44 1261.57 2354.75 1256.33 2355.06 1251.21 2357.6 1247.55 2360.47 1246.24ZM2063.2 1325.07C2067.01 1324.05 2072.25 1326.42 2074.84 1330.35 2077.44 1334.28 2074.09 1338.96 2067.4 1340.75 2060.72 1342.54 2055.48 1340.16 2055.76 1335.47 2056.04 1330.77 2059.39 1326.09 2063.2 1325.07ZM2254.28 1270.88C2251.59 1271.82 2246.69 1279.13 2241.71 1290.14 2235.07 1304.82 2230.5 1320.11 2231.56 1324.13 2232.62 1328.14 2239.11 1320.05 2246 1306.14 2252.89 1292.23 2257.45 1276.93 2256.15 1272.15 2255.83 1270.95 2255.17 1270.56 2254.28 1270.88ZM2170.45 1289.68C2163.05 1291.67 2172.13 1304.23 2191.36 1318.62 2202.73 1327.13 2213.22 1332.03 2214.67 1329.51 2217.31 1324.94 2176.41 1288.09 2170.45 1289.68ZM2164.55 1197.89C2167.68 1196.7 2171.52 1199.55 2179.13 1205.27L2194.45 1216.8 2201.96 1199.16C2209.41 1181.63 2209.59 1181.6 2228.19 1194.95 2238.49 1202.34 2249.88 1219.43 2253.5 1232.93 2259.82 1256.51 2260.75 1256.97 2277.59 1244.83 2287.22 1237.87 2305.13 1231.73 2317.39 1231.17 2337.14 1230.27 2339.79 1232.63 2340.67 1251.94 2341.47 1269.51 2344.82 1273.87 2357.97 1274.47 2366.94 1274.88 2374.96 1277.77 2375.8 1280.88 2378.24 1290.02 2359.44 1315.46 2339.74 1329.68 2322.37 1342.22 2322.25 1343.62 2337.08 1360.25 2345.64 1369.84 2357.45 1386.54 2363.33 1397.37 2373.65 1416.37 2373.2 1417.12 2350.57 1418.58 2329.46 1419.94 2327.59 1421.91 2331.94 1438.14 2334.6 1448.07 2333.33 1457.12 2329.12 1458.25 2315.72 1461.84 2273.63 1450.11 2263.85 1440.06 2255.81 1431.81 2251.73 1434.65 2236.47 1459.12 2214.14 1494.92 2192.85 1502.57 2186.06 1477.23 2181.71 1460.99 2179.1 1460.23 2160.15 1469.6 2139.81 1479.66 2139.05 1479.24 2138.49 1457.62 2138.17 1445.3 2139.98 1425.21 2142.52 1412.99 2146.68 1392.94 2145.65 1390.69 2132.02 1390.07 2112.77 1389.2 2071.81 1371.8 2069.61 1363.57 2068.68 1360.12 2074.12 1353.34 2081.68 1348.5 2092.77 1341.41 2093.49 1335.95 2085.4 1320.34 2076.5 1303.17 2077.61 1299.81 2095.17 1290.71 2106.07 1285.07 2124.65 1281.43 2136.47 1282.64 2157.12 1284.74 2157.7 1283.88 2151.38 1260.29 2147.77 1246.79 2149.08 1226.3 2154.31 1214.75 2159.03 1204.32 2161.43 1199.09 2164.55 1197.89ZM2061.66 1068.67 2063.67 1094.98C2064.78 1109.46 2068.78 1124.22 2072.57 1127.78 2081.87 1136.54 2251.83 1091 2255.5 1078.76 2257 1073.78 2253.08 1059 2246.81 1045.91L2235.39 1022.12 2148.53 1045.39ZM2327.98 931.276C2340.86 927.595 2345.22 933.369 2349.33 948.685 2353.07 962.65 2348.94 969.136 2328.69 981.072 2314.76 989.281 2299.09 997.164 2293.86 998.588 2287.07 1000.44 2287.65 1010.9 2295.86 1035.23L2307.37 1069.28 2375.4 1053.3C2412.82 1044.51 2443.78 1038.62 2444.21 1040.22 2444.64 1041.81 2444.04 1052.39 2442.89 1063.73 2440.87 1083.53 2438.43 1084.98 2381.51 1100.23L2322.24 1116.11 2341.45 1166.84 2360.65 1217.57 2342.15 1217.57C2331.98 1217.58 2319.92 1218.53 2315.36 1219.69 2310.57 1220.91 2299.55 1202.35 2289.28 1175.76L2271.5 1129.71 2178.11 1154.73 2084.72 1179.76 2092.35 1228.53C2096.91 1257.7 2096.55 1278.26 2091.46 1279.69 2086.78 1281 2075.87 1286.16 2067.22 1291.15 2051.52 1300.21 2051.46 1300.1 2042.66 1246.81L2033.85 1193.39 1974.37 1209.32C1917.24 1224.63 1914.42 1224.6 1902.77 1208.46 1896.1 1199.21 1890.29 1190.35 1889.86 1188.75 1889.44 1187.16 1919.2 1176.78 1956 1165.68L2022.9 1145.5 2015.84 1110.26C2010.8 1085.08 2006.06 1075.74 1999.26 1077.53 1972.17 1084.66 1930.71 1078.59 1927.73 1067.05 1920.66 1039.68 1928.71 1033.85 1973.72 1033.78 2032.25 1033.68 2243.17 977.218 2293.82 948.094 2309.46 939.097 2320.25 933.485 2327.98 931.276Z" fill="#BFA995" fill-rule="evenodd" fill-opacity="0.501961"/>
    <path d="M2823.55 1376.27C2821.57 1376.27 2819.79 1377.45 2818.22 1379.8 2816.89 1382.29 2816.22 1385.17 2816.22 1388.45 2816.22 1392.37 2816.63 1395.16 2817.46 1396.82 2818.39 1398.48 2819.86 1399.31 2821.89 1399.31 2824.75 1399.31 2826.32 1397.03 2826.6 1392.46 2826.78 1387.99 2826.87 1384.27 2826.87 1381.32 2826.87 1379.8 2826.53 1378.51 2825.84 1377.45 2825.24 1376.66 2824.47 1376.27 2823.55 1376.27ZM2362.64 1375.44C2361.16 1375.44 2359.8 1376.27 2358.56 1377.93 2357.68 1379.36 2357.15 1381.25 2356.97 1383.6L2367.62 1383.33C2367.62 1381.16 2367.18 1379.24 2366.31 1377.58 2365.38 1376.15 2364.16 1375.44 2362.64 1375.44ZM2517.04 1375.37C2515.19 1375.37 2513.76 1376.48 2512.75 1378.69 2511.73 1380.95 2511.22 1384.16 2511.22 1388.31 2511.22 1392.46 2511.73 1395.67 2512.75 1397.93 2513.76 1400.14 2515.19 1401.25 2517.04 1401.25 2518.88 1401.25 2520.31 1400.14 2521.33 1397.93 2522.34 1395.67 2522.85 1392.46 2522.85 1388.31 2522.85 1384.16 2522.34 1380.95 2521.33 1378.69 2520.31 1376.48 2518.88 1375.37 2517.04 1375.37ZM2286.13 1375.37C2284.29 1375.37 2282.86 1376.48 2281.84 1378.69 2280.83 1380.95 2280.32 1384.16 2280.32 1388.31 2280.32 1392.46 2280.83 1395.67 2281.84 1397.93 2282.86 1400.14 2284.29 1401.25 2286.13 1401.25 2287.98 1401.25 2289.41 1400.14 2290.42 1397.93 2291.43 1395.67 2291.94 1392.46 2291.94 1388.31 2291.94 1384.16 2291.43 1380.95 2290.42 1378.69 2289.41 1376.48 2287.98 1375.37 2286.13 1375.37ZM2667.22 1370.8C2667.96 1370.8 2669.09 1371.29 2670.61 1372.26 2672.59 1373.41 2673.58 1374.65 2673.58 1375.99 2673.58 1377.88 2673.49 1379.48 2673.31 1380.77 2673.21 1382.98 2673.17 1386.3 2673.17 1390.73 2673.17 1394.98 2673.21 1398.78 2673.31 1402.15 2673.31 1405.2 2672.01 1406.72 2669.43 1406.72 2667.86 1406.72 2666.66 1406.19 2665.83 1405.13 2664.82 1403.83 2664.31 1402.43 2664.31 1400.9 2664.31 1400.03 2664.84 1398.94 2665.9 1397.65L2665.9 1375.85C2664.24 1374.98 2663.41 1374.08 2663.41 1373.16 2663.41 1372.56 2663.9 1372 2664.87 1371.49 2665.6 1371.03 2666.39 1370.8 2667.22 1370.8ZM2981.97 1370.73C2985.75 1370.73 2989.99 1372.53 2994.7 1376.13 3000.97 1379.68 3005.54 1381.46 3008.4 1381.46 3011.26 1381.46 3014.3 1380.35 3017.53 1378.14 3020.02 1376.29 3021.82 1375.37 3022.92 1375.37 3024.31 1375.37 3025 1376.02 3025 1377.31 3025 1378.6 3022.72 1381.09 3018.15 1384.78 3014.32 1387.92 3010.29 1389.49 3006.04 1389.49 3002.26 1389.49 2998.02 1387.69 2993.31 1384.09 2987.04 1380.54 2982.47 1378.76 2979.61 1378.76 2976.75 1378.76 2973.71 1379.87 2970.48 1382.08 2967.99 1383.93 2966.19 1384.85 2965.08 1384.85 2963.7 1384.85 2963.01 1384.2 2963.01 1382.91 2963.01 1381.62 2965.29 1379.13 2969.86 1375.44 2973.69 1372.3 2977.72 1370.73 2981.97 1370.73ZM2024.23 1370.73C2028.01 1370.73 2032.26 1372.53 2036.96 1376.13 2043.24 1379.68 2047.8 1381.46 2050.66 1381.46 2053.52 1381.46 2056.57 1380.35 2059.79 1378.14 2062.28 1376.29 2064.08 1375.37 2065.19 1375.37 2066.57 1375.37 2067.27 1376.02 2067.27 1377.31 2067.27 1378.6 2064.98 1381.09 2060.42 1384.78 2056.59 1387.92 2052.55 1389.49 2048.31 1389.49 2044.53 1389.49 2040.28 1387.69 2035.58 1384.09 2029.31 1380.54 2024.74 1378.76 2021.88 1378.76 2019.02 1378.76 2015.98 1379.87 2012.75 1382.08 2010.26 1383.93 2008.46 1384.85 2007.35 1384.85 2005.97 1384.85 2005.28 1384.2 2005.28 1382.91 2005.28 1381.62 2007.56 1379.13 2012.13 1375.44 2015.95 1372.3 2019.99 1370.73 2024.23 1370.73ZM2822.72 1370.11C2824.94 1370.11 2826.8 1370.85 2828.33 1372.32 2829.2 1370.99 2830.01 1370.32 2830.75 1370.32 2831.76 1370.32 2832.8 1370.62 2833.86 1371.22 2834.97 1371.77 2835.52 1372.67 2835.52 1373.92 2835.52 1375.25 2835.17 1376.75 2834.48 1378.41 2834.11 1379.43 2833.93 1385.33 2833.93 1396.13 2833.93 1398.67 2834.85 1399.94 2836.7 1399.94 2837.39 1399.94 2838.15 1399.43 2838.98 1398.41 2839.63 1397.77 2840.23 1397.44 2840.78 1397.44 2841.43 1397.44 2841.75 1397.91 2841.75 1398.83 2841.75 1400.12 2840.89 1401.76 2839.19 1403.74 2837.67 1405.59 2835.98 1406.51 2834.14 1406.51 2831.46 1406.51 2829.41 1405.08 2827.98 1402.22 2825.77 1405.17 2823.23 1406.65 2820.37 1406.65 2817.05 1406.65 2814.35 1405.43 2812.27 1402.98 2810.01 1399.47 2808.88 1394.65 2808.88 1388.52 2808.88 1383.81 2809.69 1380.08 2811.31 1377.31 2814.12 1372.51 2817.92 1370.11 2822.72 1370.11ZM2440.88 1370.11C2442.82 1370.11 2444.52 1370.48 2446 1371.22 2449.78 1373.29 2451.67 1376.68 2451.67 1381.39L2451.67 1399.24C2451.67 1402.1 2451.37 1403.97 2450.77 1404.85 2449.99 1406.14 2448.9 1406.79 2447.52 1406.79 2446.14 1406.79 2444.98 1406.09 2444.06 1404.71 2443.23 1403.42 2442.82 1402.27 2442.82 1401.25 2442.82 1400.56 2443.23 1399.5 2444.06 1398.07L2444.06 1381.81C2444.06 1380.01 2443.39 1378.46 2442.05 1377.17 2441.5 1376.66 2440.62 1376.41 2439.43 1376.41 2437.53 1376.41 2435.69 1378.18 2433.89 1381.74L2433.89 1402.29C2433.89 1403.49 2433.52 1404.62 2432.78 1405.68 2432.32 1406.42 2431.63 1406.79 2430.71 1406.79 2429.42 1406.79 2428.13 1405.93 2426.83 1404.23 2426 1403.12 2425.59 1402.06 2425.59 1401.04 2425.59 1400.21 2425.91 1399.43 2426.56 1398.69L2426.56 1375.09C2425.54 1374.12 2425.04 1373.25 2425.04 1372.46 2425.04 1371.91 2425.36 1371.45 2426 1371.08 2426.79 1370.53 2427.57 1370.25 2428.36 1370.25 2429.79 1370.25 2431.28 1371.38 2432.85 1373.64 2435.94 1371.29 2438.62 1370.11 2440.88 1370.11ZM2517.04 1369.97C2521.56 1369.97 2525.13 1372.16 2527.76 1376.55 2529.79 1379.87 2530.8 1383.79 2530.8 1388.31 2530.8 1392.83 2529.79 1396.75 2527.76 1400.07 2525.18 1404.46 2521.6 1406.65 2517.04 1406.65 2512.47 1406.65 2508.9 1404.46 2506.31 1400.07 2504.28 1396.75 2503.27 1392.83 2503.27 1388.31 2503.27 1383.79 2504.28 1379.87 2506.31 1376.55 2508.94 1372.16 2512.52 1369.97 2517.04 1369.97ZM2286.13 1369.97C2290.65 1369.97 2294.23 1372.16 2296.85 1376.55 2298.88 1379.87 2299.9 1383.79 2299.9 1388.31 2299.9 1392.83 2298.88 1396.75 2296.85 1400.07 2294.27 1404.46 2290.7 1406.65 2286.13 1406.65 2281.56 1406.65 2277.99 1404.46 2275.41 1400.07 2273.38 1396.75 2272.36 1392.83 2272.36 1388.31 2272.36 1383.79 2273.38 1379.87 2275.41 1376.55 2278.04 1372.16 2281.61 1369.97 2286.13 1369.97ZM2599.91 1369.9C2601.94 1369.9 2603.58 1370.57 2604.82 1371.91 2606.76 1373.94 2607.73 1376.2 2607.73 1378.69L2607.73 1402.7C2607.59 1405.33 2606.51 1406.65 2604.48 1406.65 2603.51 1406.65 2602.59 1406.07 2601.71 1404.92 2600.88 1403.81 2600.46 1402.66 2600.46 1401.46 2600.46 1400.58 2600.67 1399.34 2601.09 1397.72L2601.09 1378.14C2600.53 1376.71 2599.7 1375.99 2598.6 1375.99 2597.72 1375.99 2597.1 1376.78 2596.73 1378.35L2596.73 1401.18C2596.73 1404.83 2595.58 1406.65 2593.27 1406.65 2591.93 1406.65 2590.92 1405.93 2590.22 1404.5 2589.53 1403.17 2589.19 1401.87 2589.19 1400.63 2589.23 1399.89 2589.53 1399.11 2590.09 1398.28L2590.09 1378.07C2589.72 1376.92 2588.91 1376.34 2587.66 1376.34 2586.93 1376.34 2586.28 1376.92 2585.73 1378.07L2585.73 1402.63C2585.54 1405.36 2584.32 1406.72 2582.06 1406.72 2580.95 1406.72 2580.03 1406.21 2579.29 1405.2 2578.51 1404.23 2578.12 1403.28 2578.12 1402.36 2578.12 1401.48 2578.44 1400.35 2579.09 1398.97L2579.09 1374.54C2577.93 1373.8 2577.36 1373.18 2577.36 1372.67 2577.36 1372.21 2577.75 1371.73 2578.53 1371.22 2579.36 1370.66 2580.05 1370.39 2580.61 1370.39 2582.18 1370.39 2583.44 1371.15 2584.41 1372.67 2586.12 1370.96 2587.71 1370.11 2589.19 1370.11 2591.4 1370.11 2592.97 1370.92 2593.89 1372.53 2595.87 1370.78 2597.88 1369.9 2599.91 1369.9ZM2362.64 1369.83C2364.95 1369.83 2367.04 1370.46 2368.94 1371.7 2373.46 1374.89 2375.72 1379.31 2375.72 1384.99 2375.72 1386.19 2375.46 1387.13 2374.96 1387.83 2374.17 1388.84 2372.97 1389.35 2371.36 1389.35L2356.62 1389.69C2356.62 1392.74 2357.15 1395.11 2358.21 1396.82 2359.87 1398.85 2361.81 1399.87 2364.02 1399.87 2367.3 1399.87 2370.18 1398.34 2372.67 1395.3 2373.23 1394.28 2373.89 1393.78 2374.68 1393.78 2375.65 1393.78 2376.13 1394.22 2376.13 1395.09 2376.13 1395.78 2375.81 1396.94 2375.16 1398.55 2372.21 1403.95 2368.01 1406.65 2362.57 1406.65 2358.88 1406.65 2355.63 1405.17 2352.82 1402.22 2349.82 1398.07 2348.32 1393.73 2348.32 1389.21 2348.32 1382.94 2350.23 1377.77 2354.06 1373.71 2356.51 1371.13 2359.37 1369.83 2362.64 1369.83ZM2756.8 1369.76C2757.77 1369.76 2758.99 1370.48 2760.46 1371.91 2761.89 1373.57 2762.61 1374.86 2762.61 1375.79 2762.61 1376.98 2761.92 1379.01 2760.53 1381.87 2755.97 1393.41 2752 1402.8 2748.63 1410.04 2746.65 1414.01 2743.95 1415.99 2740.54 1415.99 2738.14 1415.99 2736.25 1415.64 2734.87 1414.95 2733.39 1414.17 2732.65 1413.18 2732.65 1411.98 2732.65 1409.9 2733.25 1408.33 2734.45 1407.27 2735.47 1406.53 2736.53 1406.16 2737.63 1406.16 2738.42 1406.16 2738.97 1406.69 2739.29 1407.76 2739.57 1408.63 2740.29 1409.07 2741.44 1409.07 2742.08 1409.07 2742.78 1408.42 2743.51 1407.13 2744.39 1405.61 2745.2 1403.7 2745.94 1401.39 2742.11 1393.78 2738.56 1386.49 2735.28 1379.52 2734.31 1377.95 2733.83 1376.34 2733.83 1374.68 2733.83 1373.57 2734.4 1372.62 2735.56 1371.84 2737.13 1371.01 2738.44 1370.6 2739.5 1370.6 2740.61 1370.6 2741.46 1371.56 2742.06 1373.5 2744.09 1380.24 2746.3 1386.6 2748.7 1392.6 2750.69 1386.14 2752.67 1379.94 2754.65 1373.99 2753.68 1373.25 2753.2 1372.58 2753.2 1371.98 2753.2 1371.47 2753.59 1370.99 2754.38 1370.53 2755.21 1370.02 2756.01 1369.76 2756.8 1369.76ZM2207.41 1363.74C2205.52 1363.74 2204.05 1364.55 2202.99 1366.17 2201.32 1368.7 2200.49 1374.15 2200.49 1382.5 2200.49 1390.85 2201.32 1396.29 2202.99 1398.83 2204.05 1400.44 2205.52 1401.25 2207.41 1401.25 2209.3 1401.25 2210.78 1400.44 2211.84 1398.83 2213.5 1396.29 2214.33 1390.85 2214.33 1382.5 2214.33 1374.15 2213.5 1368.7 2211.84 1366.17 2210.78 1364.55 2209.3 1363.74 2207.41 1363.74ZM2207.41 1358.14C2211.01 1358.14 2214.22 1359.8 2217.03 1363.12 2220.49 1367.37 2222.22 1373.82 2222.22 1382.5 2222.22 1391.17 2220.49 1397.63 2217.03 1401.87 2214.22 1405.2 2211.01 1406.86 2207.41 1406.86 2203.82 1406.86 2200.61 1405.2 2197.8 1401.87 2194.34 1397.63 2192.61 1391.17 2192.61 1382.5 2192.61 1373.82 2194.34 1367.37 2197.8 1363.12 2200.61 1359.8 2203.82 1358.14 2207.41 1358.14ZM2669.71 1355.58C2671.14 1355.58 2672.36 1356.09 2673.38 1357.1 2674.39 1358.16 2674.9 1359.38 2674.9 1360.77 2674.9 1362.11 2674.48 1363.31 2673.65 1364.37 2672.55 1365.47 2671.28 1366.03 2669.85 1366.03 2668.42 1366.03 2667.13 1365.52 2665.97 1364.51 2664.91 1363.58 2664.38 1362.27 2664.38 1360.56 2664.38 1359.41 2664.77 1358.37 2665.56 1357.45 2666.66 1356.2 2668.05 1355.58 2669.71 1355.58ZM2561.64 1246.42C2579.4 1247.26 2597.11 1249.26 2614.77 1252.43 2632.43 1255.59 2648.81 1259.62 2663.92 1264.51 2679.03 1269.4 2691.64 1274.85 2701.75 1280.87 2709.07 1285.33 2714.76 1290.08 2718.84 1295.13 2722.91 1300.18 2724.98 1305.11 2725.04 1309.91 2725.12 1314.57 2723.86 1318.41 2721.24 1321.43 2718.63 1324.45 2714.15 1326.01 2707.82 1326.12 2703.15 1325.99 2698.23 1324.22 2693.05 1320.8 2687.88 1317.38 2682.11 1313.07 2675.75 1307.88 2658.2 1294.96 2640.29 1284.33 2622.03 1275.97 2603.76 1267.61 2583.07 1260.01 2559.95 1253.18ZM2572.78 1152.88C2595.25 1153.27 2614.87 1155.2 2631.65 1158.67 2648.42 1162.14 2661.21 1165.84 2670.01 1169.77 2677.39 1172.91 2683.31 1176.67 2687.78 1181.04 2692.24 1185.41 2694.54 1190.77 2694.66 1197.12 2694.64 1201.14 2693.4 1204.59 2690.94 1207.46 2688.48 1210.34 2684.88 1211.85 2680.14 1211.98 2676.58 1211.97 2672.98 1210.97 2669.33 1208.98 2665.69 1206.99 2661.08 1204.05 2655.49 1200.16 2647.17 1194.7 2636.39 1188.48 2623.17 1181.5 2609.94 1174.52 2592.58 1167.12 2571.09 1159.3ZM1874.83 1113.53C1874.81 1118.13 1874.08 1124.62 1872.66 1133.02 1879.57 1132.19 1887.25 1131.58 1895.71 1131.19 1886.58 1127.89 1879.62 1122 1874.83 1113.53ZM1609.78 1113.53C1609.76 1118.13 1609.03 1124.62 1607.61 1133.02 1614.52 1132.19 1622.2 1131.58 1630.66 1131.19 1621.53 1127.89 1614.57 1122 1609.78 1113.53ZM2212.57 1099.19C2218.17 1099.26 2224.07 1100.25 2230.27 1102.17 2236.48 1104.09 2241.78 1106.53 2246.18 1109.5 2250.58 1112.47 2252.88 1115.56 2253.08 1118.78 2253.16 1122.4 2252.08 1125.46 2249.83 1127.98 2247.59 1130.5 2243.72 1132.05 2238.23 1132.62 2231.36 1133.31 2220.36 1134.38 2205.23 1135.83 2190.09 1137.28 2173.52 1139.03 2155.51 1141.07 2161.39 1143.61 2166.26 1146.45 2170.11 1149.59 2173.97 1152.73 2175.97 1156.08 2176.11 1159.64 2175.95 1162.8 2175.09 1166.19 2173.53 1169.81 2171.98 1173.43 2170.7 1177.59 2169.69 1182.26 2168.49 1189.81 2167.35 1199.28 2166.27 1210.67 2165.2 1222.06 2164.31 1233.64 2163.62 1245.41 2175.52 1244.23 2186.91 1243.22 2197.8 1242.37 2208.69 1241.53 2218.56 1240.85 2227.42 1240.34 2235.92 1239.53 2241.97 1238.46 2245.57 1237.14 2249.17 1235.81 2252.01 1235.08 2254.09 1234.94 2259.77 1235.06 2266.2 1236.62 2273.38 1239.62 2280.55 1242.62 2286.83 1246.33 2292.21 1250.75 2297.58 1255.17 2300.41 1259.58 2300.69 1263.98 2300.64 1267.93 2299.46 1271.1 2297.14 1273.48 2294.82 1275.87 2291.61 1277.09 2287.52 1277.15 2281.69 1276.77 2271.83 1275.09 2257.94 1272.13 2244.04 1269.17 2226.67 1267.24 2205.82 1266.35 2193.85 1266.04 2179.85 1266.46 2163.82 1267.6 2147.78 1268.73 2131.93 1270.38 2116.26 1272.52 2100.6 1274.67 2087.35 1277.12 2076.51 1279.85 2069.18 1282.03 2062.91 1284.17 2057.69 1286.27 2052.47 1288.37 2047.72 1289.49 2043.43 1289.65 2037.11 1289.1 2030.5 1285.72 2023.59 1279.52 2016.68 1273.31 2011.93 1267.57 2009.33 1262.29 2008.17 1259.69 2007.28 1256.79 2006.67 1253.6 2006.06 1250.41 2005.59 1246.33 2005.28 1241.36L2010.68 1239.33C2014.83 1244 2019.35 1247.84 2024.22 1250.86 2029.1 1253.87 2034.71 1255.44 2041.06 1255.54 2048.13 1255.47 2060.24 1254.68 2077.4 1253.18 2094.55 1251.67 2113.84 1249.87 2135.26 1247.77 2135.93 1235.8 2136.44 1223.11 2136.78 1209.7 2137.11 1196.29 2137.28 1185.12 2137.28 1176.19 2137.29 1169.17 2136.6 1163.11 2135.21 1157.99 2133.83 1152.88 2131.7 1148.25 2128.84 1144.11 2117.54 1145.86 2107.9 1147.41 2099.93 1148.75 2091.96 1150.09 2085.62 1150.79 2080.9 1150.86 2076.46 1150.74 2072.17 1149.21 2068.03 1146.26 2063.89 1143.31 2060.19 1139.67 2056.93 1135.33 2054.19 1131.91 2051.66 1128.11 2049.33 1123.93 2047.01 1119.75 2045.16 1115.44 2043.76 1111.01L2048.49 1107.64C2054.02 1112.29 2059.67 1116.07 2065.46 1118.99 2071.24 1121.91 2077.4 1123.41 2083.94 1123.51 2092.44 1123.49 2103.21 1122.85 2116.27 1121.57 2129.32 1120.28 2143.3 1118.46 2158.21 1116.08 2173.71 1113.53 2184.84 1110.97 2191.59 1108.4 2198.33 1105.83 2202.91 1103.67 2205.3 1101.92 2207.7 1100.17 2210.12 1099.26 2212.57 1099.19ZM2486.53 1072.9C2491.99 1073.24 2497.28 1074.24 2502.4 1075.89 2511.67 1079 2520.22 1084.1 2528.05 1091.17 2535.89 1098.25 2540.05 1104.86 2540.55 1111.01 2540.21 1115.67 2538.1 1119.36 2534.22 1122.07 2530.33 1124.79 2526.7 1128.98 2523.33 1134.65 2504.3 1173.86 2478.55 1210.43 2446.1 1244.35 2413.65 1278.29 2373.22 1306.33 2324.81 1328.48L2320.09 1321.39C2347.85 1302.46 2372.78 1281.49 2394.87 1258.47 2416.96 1235.45 2435.72 1212.52 2451.13 1189.69 2466.54 1166.86 2478.12 1146.26 2485.85 1127.9 2489.9 1117.82 2491.93 1109.94 2491.93 1104.26 2492.11 1099.55 2490.57 1095.38 2487.29 1091.76 2484.01 1088.15 2477.91 1083.98 2468.97 1079.27L2470.66 1073.19C2475.78 1072.65 2481.07 1072.55 2486.53 1072.9ZM2586.96 1070.83C2607 1071.62 2626.59 1073.49 2645.74 1076.44 2664.9 1079.39 2680.86 1083.71 2693.64 1089.4 2703.62 1094.09 2710.59 1098.98 2714.58 1104.09 2718.56 1109.2 2720.47 1114.77 2720.31 1120.8 2720.31 1124.05 2719.14 1127.19 2716.81 1130.22 2714.48 1133.25 2711.04 1134.95 2706.47 1135.33 2701.84 1135.32 2697.76 1134.15 2694.23 1131.82 2690.7 1129.49 2686.12 1126.05 2680.48 1121.48 2667.3 1111.74 2653.56 1103.53 2639.25 1096.83 2624.93 1090.13 2607.05 1083.6 2585.61 1077.24ZM2828.17 1059.01C2833.46 1059.06 2839.24 1059.86 2845.52 1061.44 2851.79 1063.01 2857.22 1065.07 2861.81 1067.61 2866.4 1070.16 2868.8 1072.92 2869.02 1075.89 2869.04 1079.38 2868.67 1082.96 2867.93 1086.66 2867.18 1090.35 2866.98 1094.53 2867.34 1099.19 2867.72 1102.79 2868.56 1108.09 2869.87 1115.11 2871.18 1122.12 2872.7 1129.54 2874.43 1137.35 2885.44 1134.45 2897.36 1131.28 2910.16 1127.85 2922.97 1124.41 2934.71 1121.22 2945.37 1118.27 2956.04 1115.32 2963.68 1113.12 2968.28 1111.69 2972.11 1110.26 2975.5 1108.39 2978.45 1106.07 2981.4 1103.76 2984.2 1102.48 2986.85 1102.23 2991.47 1102.54 2996.71 1104.66 3002.59 1108.6 3008.47 1112.53 3013.62 1117.11 3018.04 1122.32 3022.45 1127.53 3024.77 1132.2 3025 1136.34 3024.57 1139.97 3022.14 1142.59 3017.7 1144.19 3013.26 1145.79 3009.39 1147.9 3006.09 1150.52 2998.05 1158.9 2987.55 1169.33 2974.57 1181.8 2961.59 1194.27 2946.78 1206.13 2930.13 1217.38L2924.39 1212.66C2935.4 1199.56 2945.29 1186.08 2954.06 1172.22 2962.83 1158.36 2969.26 1146.74 2973.35 1137.35 2974.49 1134.88 2974.65 1133.33 2973.85 1132.71 2973.05 1132.09 2971.53 1132.06 2969.29 1132.62 2964.22 1133.72 2956.7 1135.66 2946.76 1138.44 2936.82 1141.22 2925.88 1144.36 2913.95 1147.86 2902.02 1151.35 2890.53 1154.72 2879.49 1157.95 2883.39 1173.29 2887.52 1188.98 2891.86 1205.01 2896.2 1221.05 2900.29 1235.86 2904.15 1249.45 2908 1263.04 2911.15 1273.85 2913.59 1281.88 2915.26 1287.23 2916.99 1293.08 2918.78 1299.44 2920.57 1305.8 2921.54 1310.98 2921.69 1314.97 2921.72 1320.55 2920.48 1324.76 2917.98 1327.59 2915.47 1330.43 2911.54 1331.85 2906.16 1331.86 2899.06 1331.69 2893.51 1329.07 2889.49 1324.01 2885.48 1318.94 2883.04 1312.44 2882.19 1304.5 2880.54 1293.46 2878.07 1279.76 2874.78 1263.42 2871.49 1247.08 2867.84 1230.23 2863.83 1212.88 2859.83 1195.53 2855.93 1179.81 2852.14 1165.72 2843.08 1168.51 2834.45 1171.28 2826.23 1174.03 2818.02 1176.78 2811.91 1178.96 2807.92 1180.57 2801.25 1183.52 2796.02 1186.5 2792.22 1189.52 2788.42 1192.55 2784.54 1194.18 2780.57 1194.42 2774.49 1194.05 2768.17 1191.25 2761.62 1186.02 2755.07 1180.79 2750.36 1175.38 2747.48 1169.77 2746.49 1167.51 2745.78 1164.51 2745.33 1160.78 2744.89 1157.04 2744.59 1152.95 2744.45 1148.5L2749.85 1146.47C2752.77 1149.85 2755.88 1152.96 2759.17 1155.8 2762.47 1158.63 2766.68 1160.14 2771.79 1160.31 2775.22 1160.37 2780.85 1159.65 2788.67 1158.15 2796.49 1156.65 2805.5 1154.68 2815.68 1152.23 2825.87 1149.79 2836.22 1147.2 2846.74 1144.44 2843.77 1133.67 2840.6 1122.72 2837.25 1111.6 2833.89 1100.49 2830.98 1092.07 2828.51 1086.36 2826.32 1082.23 2822.85 1079.09 2818.09 1076.95 2813.33 1074.8 2807.23 1073.1 2799.81 1071.84L2799.14 1066.44C2803.83 1064.36 2808.54 1062.61 2813.28 1061.2 2818.01 1059.8 2822.98 1059.07 2828.17 1059.01ZM1554.33 1053C1565.82 1053 1577.68 1058.6 1589.9 1069.81 1604.09 1081.84 1611.19 1091.18 1611.19 1097.83 1621.8 1107.67 1635.87 1115.27 1653.4 1120.61 1681.87 1128.2 1696.11 1139.08 1696.11 1153.23L1692.11 1165.22 1815.71 1141.47C1815.12 1128.59 1814.41 1114.26 1813.56 1098.5 1802.48 1087.71 1796.94 1078.39 1796.94 1070.53 1796.94 1063.43 1799.65 1058.75 1805.08 1056.48 1810.72 1054.16 1815.48 1053 1819.38 1053 1830.87 1053 1842.73 1058.6 1854.95 1069.81 1869.14 1081.84 1876.24 1091.18 1876.24 1097.83 1886.85 1107.67 1900.92 1115.27 1918.45 1120.61 1946.92 1128.2 1961.16 1139.08 1961.16 1153.23 1961.16 1172.06 1951.74 1181.48 1932.9 1181.48 1914.91 1181.48 1894.14 1180.89 1870.57 1179.69 1869.58 1199.93 1869.09 1214.8 1869.09 1224.31 1869.09 1244.2 1871.47 1286.94 1876.24 1352.51 1876.24 1367.93 1870.27 1385.54 1858.33 1405.34 1850.93 1416.45 1842.86 1422 1834.12 1422 1822.78 1422 1813.92 1413.68 1807.52 1397.05 1782.11 1376.66 1759.96 1351.67 1741.07 1322.09L1745.87 1315.87C1773.9 1332.93 1798.52 1341.73 1819.73 1342.24L1818.53 1225.74C1783.95 1276.14 1755.95 1307.63 1734.55 1320.23 1698.86 1342.48 1671.86 1353.6 1653.55 1353.6 1644.55 1353.6 1640.05 1350.29 1640.05 1343.67 1640.05 1338.77 1644.67 1333.34 1653.92 1327.39 1695.33 1299.09 1742.55 1252.69 1795.59 1188.19 1771.6 1196.64 1754.08 1203.42 1743.04 1208.53 1731.23 1213.75 1721.36 1216.35 1713.44 1216.35 1706.17 1216.35 1695.07 1210.95 1680.15 1200.15 1673.19 1193.84 1667.97 1188.27 1664.49 1183.43L1663.62 1181.36 1605.52 1179.69C1604.53 1199.93 1604.04 1214.8 1604.04 1224.31 1604.04 1244.2 1606.42 1286.94 1611.19 1352.51 1611.19 1367.93 1605.22 1385.54 1593.28 1405.34 1585.88 1416.45 1577.81 1422 1569.07 1422 1557.73 1422 1548.87 1413.68 1542.47 1397.05 1517.06 1376.66 1494.91 1351.67 1476.02 1322.09L1480.82 1315.87C1508.85 1332.93 1533.47 1341.73 1554.68 1342.24L1553.48 1225.74C1518.9 1276.14 1490.9 1307.63 1469.5 1320.23 1433.81 1342.48 1406.81 1353.6 1388.5 1353.6 1379.5 1353.6 1375 1350.29 1375 1343.67 1375 1338.77 1379.62 1333.34 1388.88 1327.39 1430.28 1299.09 1477.5 1252.69 1530.54 1188.19 1506.55 1196.64 1489.03 1203.42 1477.99 1208.53 1466.18 1213.75 1456.31 1216.35 1448.39 1216.35 1441.12 1216.35 1430.02 1210.95 1415.1 1200.15 1401.18 1187.53 1394.22 1177.85 1394.22 1171.11 1394.22 1163.9 1398.13 1160.29 1405.93 1160.29 1409.82 1160.29 1416.1 1162.08 1424.79 1165.66 1463.25 1157.81 1505.2 1149.74 1550.66 1141.47 1550.07 1128.59 1549.36 1114.26 1548.51 1098.5 1537.43 1087.71 1531.89 1078.39 1531.89 1070.53 1531.89 1063.43 1534.6 1058.75 1540.03 1056.48 1545.67 1054.16 1550.43 1053 1554.33 1053Z" fill="#FFFFFF" fill-rule="evenodd"/>
  </g>
</svg>