<svg width="1650" height="949"
  xmlns="http://www.w3.org/2000/svg"
  xmlns:xlink="http://www.w3.org/1999/xlink" xml:space="preserve" overflow="hidden">
  <g transform="translate(-1375 -763)">
    <path d="M1795.38 1602.45C1795.34 1602.33 1794.14 1603.32 1792.72 1604.65L1790.14 1607.05 1791.9 1606.98 1793.67 1606.9 1794.57 1604.78C1795.06 1603.61 1795.43 1602.56 1795.38 1602.45ZM2127.91 1583.12 2127.91 1603.07 2148.51 1603.07 2148.51 1583.12ZM2012.3 1567.88C2014.58 1567.81 2016.9 1569.03 2017.85 1571.6 2020.6 1578.99 2021.97 1587.15 2021.63 1595.65 2020.34 1627.76 1994.21 1653.78 1961.99 1654.98 1952.1 1655.24 1941.02 1652.66 1936.63 1650.77 1931.31 1648.28 1929.16 1644.24 1928.21 1640.9 1927.53 1637.89 1927.95 1634.54 1928.56 1632.14 1929.93 1627.67 1931.56 1622.61 1933.28 1617.03 1935.52 1610.07 1937.92 1602.34 1940.5 1594.1 1941.53 1590.75 1945.92 1589.98 1947.98 1592.81L1953.65 1600.54C1955.8 1603.46 1957.86 1606.29 1959.92 1609.13 1960.95 1610.59 1961.99 1612.05 1963.02 1613.42 1963.02 1613.42 1967.92 1619.95 1971.1 1621.83 1972.73 1622.69 1974.45 1623.38 1976.17 1623.64 1979.69 1624.24 1983.21 1623.81 1986.31 1622.26 1989.4 1620.8 1992.06 1618.23 1993.61 1615.22 1994.3 1614.11 1995.5 1609.99 1995.76 1609.21 1999.54 1596.51 2003.15 1584.66 2006.24 1574.52L2007.02 1571.95C2007.79 1569.33 2010.03 1567.96 2012.3 1567.88ZM1810.74 1549.66C1809.84 1549.18 1809.75 1549.22 1809.75 1550.08 1809.75 1550.94 1810 1551.02 1810.81 1550.42 1811.37 1550.02 1811.36 1549.99 1810.74 1549.66ZM1779.17 1546.42C1778.55 1547.25 1778.69 1547.46 1780.57 1548.47 1781.48 1548.95 1782.36 1549.48 1782.53 1549.65 1783.08 1550.2 1783.06 1549.35 1782.48 1548.18L1782.48 1548.18C1782.14 1547.47 1781.48 1546.8 1780.77 1546.43 1779.62 1545.83 1779.61 1545.83 1779.17 1546.42ZM1798.5 1544.59C1797.18 1544.39 1796.24 1544.91 1797.05 1545.38 1797.34 1545.55 1798.01 1546.32 1798.54 1547.09 1799.87 1549.02 1800.51 1549.62 1801.31 1549.64 1801.69 1549.65 1802.27 1549.78 1802.61 1549.92 1803.57 1550.34 1803.73 1550.27 1803.51 1549.54 1802.76 1547.05 1800.57 1544.89 1798.5 1544.59ZM1806.68 1533.36 1807.24 1534.63C1807.77 1535.81 1808.97 1537.13 1809.54 1537.15 1809.68 1537.16 1809.54 1536.75 1809.24 1536.24 1808.94 1535.73 1808.24 1534.88 1807.69 1534.34ZM2107.32 1532.9 2169.11 1532.9 2169.11 1543.04 2179.4 1543.04 2179.4 1553.02 2189.7 1553.02 2189.7 1563 2200 1563 2200 1623.2 2189.7 1623.2 2189.7 1633.17 2179.4 1633.17 2179.4 1643.15 2169.11 1643.15 2169.11 1653.13 2107.15 1653.13 2107.15 1643.15 2096.85 1643.15 2096.85 1633.17 2086.55 1633.17 2086.55 1623.2 2076.42 1623.2 2076.42 1562.83 2086.72 1562.83 2086.72 1552.85 2097.02 1552.85 2097.02 1542.88 2107.32 1542.88ZM1957.69 1531.08C1967.31 1530.73 1976.17 1532.37 1984.24 1536.14 1987.17 1537.6 1989.74 1539.49 1990.78 1540.26 1994.81 1543.36 1996.96 1546.88 1997.91 1550.31 1998.94 1554.17 1998.42 1558.21 1997.31 1561.22 1996.7 1562.67 1986.31 1589.98 1983.04 1598.65 1981.49 1602.34 1976.68 1602.43 1975.05 1599.42L1975.05 1599.34 1969.38 1590.32C1965.6 1584.4 1961.81 1578.39 1958.12 1572.46 1958.12 1572.46 1956.23 1569.72 1956.14 1569.54 1955.03 1568.08 1953.48 1566.71 1951.85 1565.59 1948.49 1563.36 1944.54 1562.33 1940.67 1562.59 1936.81 1562.76 1933.03 1564.22 1929.93 1566.71 1929.16 1567.4 1928.38 1568 1927.78 1568.77 1925.81 1570.83 1923.92 1575.47 1923.92 1575.47 1919.1 1587.83 1910.6 1609.81 1910.6 1609.9 1908.36 1615.22 1901.74 1615.14 1899.94 1609.73 1898.48 1604.06 1897.45 1597.02 1897.7 1590.84 1898.31 1574.78 1905.44 1559.15 1916.87 1548.16 1927.7 1537.77 1942.48 1531.59 1957.69 1531.08ZM1776.38 1513C1775.68 1513.32 1775.39 1514.26 1775.39 1515.86 1775.39 1518.38 1776.57 1521.26 1778.88 1524.33L1780.3 1526.21 1781.42 1525.31C1782.04 1524.82 1782.98 1524.32 1783.51 1524.22 1784.05 1524.11 1784.7 1523.7 1784.96 1523.3 1785.29 1522.8 1785.72 1522.57 1786.35 1522.57 1787.19 1522.57 1787.24 1522.52 1786.92 1521.93 1786.65 1521.43 1786.67 1521.23 1786.97 1521.04 1787.97 1520.42 1783.01 1515.34 1779.86 1513.77 1778.21 1512.94 1777.09 1512.67 1776.38 1513ZM1807.24 1510.5C1810.73 1509.86 1814.73 1510.3 1817.6 1511.63 1819.63 1512.58 1823.63 1515.22 1824.52 1516.21 1824.81 1516.53 1825.31 1516.8 1825.62 1516.8 1825.92 1516.8 1826.18 1516.94 1826.18 1517.1 1826.18 1517.27 1826.66 1517.41 1827.25 1517.41 1827.83 1517.41 1829.12 1517.63 1830.1 1517.9 1832.25 1518.5 1833.7 1518.3 1834.99 1517.22 1835.81 1516.52 1835.91 1516.5 1835.91 1517.01 1835.91 1517.32 1835.7 1517.88 1835.44 1518.25 1834.99 1518.89 1835 1518.93 1835.6 1518.93 1836.32 1518.93 1838.11 1519.81 1839.26 1520.73 1839.87 1521.23 1839.92 1521.35 1839.48 1521.35 1839.19 1521.36 1838.95 1521.5 1838.95 1521.68 1838.95 1521.85 1838.78 1521.95 1838.57 1521.91 1838.36 1521.86 1837.7 1522.19 1837.1 1522.65 1836.5 1523.11 1835.85 1523.49 1835.65 1523.49 1835.23 1523.49 1835.22 1523.54 1835.6 1524.53 1835.96 1525.47 1835.73 1525.53 1835.05 1524.69 1834.74 1524.32 1833.77 1523.89 1832.63 1523.63 1831.57 1523.38 1830.27 1522.96 1829.74 1522.69 1828.12 1521.87 1826.18 1520.14 1826.18 1519.52 1826.18 1519.2 1825.9 1518.76 1825.57 1518.55 1825.23 1518.34 1824.96 1517.96 1824.96 1517.69 1824.96 1517.02 1820.7 1513.89 1818.12 1512.66 1815.36 1511.34 1813 1510.92 1809.6 1511.12 1804.08 1511.46 1799.84 1513.76 1795.77 1518.62L1794.53 1520.1 1795.47 1520.65C1796.25 1521.11 1796.39 1521.35 1796.25 1522.01 1796.11 1522.76 1796.18 1522.83 1797.44 1523.02 1798.97 1523.24 1802 1525.12 1803.29 1526.65 1803.88 1527.36 1804.82 1527.89 1806.51 1528.5 1810.57 1529.96 1814.32 1532.58 1814.31 1533.95 1814.31 1534.73 1813.23 1536.55 1812.76 1536.55 1812.55 1536.55 1812.6 1536.27 1812.91 1535.8 1813.67 1534.64 1813.51 1533.83 1812.26 1532.66 1811.07 1531.54 1808.17 1530.06 1806.48 1529.72 1805.51 1529.52 1805.52 1529.55 1807.3 1531.24 1809.4 1533.24 1810.24 1534.84 1810.53 1537.38 1810.71 1538.94 1810.89 1539.37 1811.77 1540.19 1812.33 1540.72 1812.87 1541.53 1812.96 1541.97 1813.05 1542.42 1813.25 1543.2 1813.41 1543.72 1814 1545.58 1813.76 1545.74 1812.41 1544.34 1811.57 1543.46 1810.7 1542.89 1809.91 1542.69 1806.84 1541.93 1806.05 1542.01 1807.2 1542.96 1807.47 1543.19 1808.23 1544.49 1808.88 1545.86 1810.19 1548.62 1811.57 1550.06 1812.58 1549.74 1815.42 1548.84 1817.13 1547.43 1817.8 1545.42 1819.26 1541.01 1819.57 1535.87 1818.55 1532.82 1817.8 1530.56 1816.37 1527.9 1815.29 1526.75 1814.86 1526.29 1814.65 1525.92 1814.84 1525.92 1815.25 1525.92 1819.44 1530 1820.29 1531.23L1820.92 1532.14 1821.49 1531.08C1821.96 1530.22 1822.07 1529.4 1822.06 1526.68 1822.05 1523.68 1821.97 1523.15 1821.21 1521.51L1820.37 1519.69 1821.32 1520.6C1821.84 1521.1 1822.69 1522.16 1823.21 1522.95 1823.73 1523.75 1824.28 1524.4 1824.44 1524.4 1824.71 1524.4 1824.54 1522.86 1824.14 1521.72 1823.89 1521.01 1826.38 1523.42 1827.11 1524.59 1827.44 1525.11 1827.83 1526.14 1827.99 1526.87 1828.15 1527.6 1828.57 1529.05 1828.94 1530.08L1829.6 1531.97 1830.95 1530.23C1832.21 1528.61 1832.3 1528.39 1832.21 1526.9 1832.15 1526.01 1832.23 1525.35 1832.39 1525.4 1833.21 1525.68 1835.04 1528.98 1835.6 1531.21 1836.32 1534.01 1836.4 1538.24 1835.77 1539.99L1835.36 1541.15 1836.55 1540.98C1837.2 1540.89 1838.29 1540.73 1838.97 1540.63 1839.69 1540.52 1840.76 1540.01 1841.56 1539.41L1842.92 1538.37 1842.31 1539.57C1841.97 1540.23 1841.56 1540.85 1841.39 1540.96 1841.22 1541.06 1840.79 1541.82 1840.44 1542.64 1839.73 1544.3 1837.31 1546.75 1836.09 1547.06 1834.95 1547.34 1835.11 1547.61 1836.81 1548.22 1837.85 1548.59 1838.94 1548.73 1840.31 1548.66 1841.4 1548.6 1842.3 1548.65 1842.3 1548.76 1842.3 1549.2 1840.17 1550.24 1838.53 1550.61L1836.79 1551.01 1837.61 1551.76C1838.74 1552.79 1840.17 1555.08 1840.16 1555.83 1840.15 1556.45 1840.15 1556.45 1839.81 1555.85 1839.39 1555.09 1838.3 1553.87 1838.04 1553.87 1837.93 1553.87 1837.9 1554.32 1837.96 1554.86L1838.09 1555.85 1837.49 1554.91C1836.62 1553.54 1834.94 1552.86 1832.41 1552.83 1830.46 1552.82 1829.95 1552.96 1826.18 1554.62 1822.57 1556.2 1821.83 1556.42 1820.06 1556.44 1818.23 1556.46 1817.78 1556.32 1814.81 1554.83 1812.36 1553.61 1811.12 1553.17 1809.77 1553.04 1807.98 1552.88 1807.98 1552.88 1807.88 1553.76 1807.76 1554.78 1807.01 1555.04 1806.28 1554.31 1805.38 1553.41 1805.81 1552.58 1807.62 1551.69 1809.02 1551.01 1809.28 1550.76 1809.19 1550.17 1809.05 1549.21 1808.07 1548.2 1806.26 1547.16 1804.92 1546.39 1803.06 1545.97 1803.06 1546.44 1803.06 1546.54 1803.28 1547.04 1803.55 1547.55 1803.9 1548.22 1804 1549.05 1803.92 1550.38 1803.81 1552.17 1803.84 1552.29 1804.62 1552.74 1805.16 1553.04 1805.49 1553.52 1805.55 1554.07 1805.7 1555.43 1808.69 1556.96 1813.71 1558.26 1815.97 1558.84 1818.53 1559.6 1819.41 1559.94 1821.5 1560.75 1821.67 1560.73 1821.3 1559.78 1820.92 1558.77 1820.92 1558.74 1821.47 1558.74 1821.74 1558.74 1822.2 1559.33 1822.53 1560.1 1823.26 1561.8 1823.86 1561.93 1823.56 1560.33 1823.45 1559.7 1823.23 1558.86 1823.08 1558.47 1822.71 1557.46 1823.03 1557.28 1823.79 1558.04 1824.17 1558.42 1824.54 1559.33 1824.69 1560.27 1825.1 1562.9 1825.57 1562.76 1825.84 1559.91 1826.01 1558.19 1826.06 1558.08 1826.48 1558.58 1826.73 1558.88 1827.01 1559.97 1827.09 1560.98 1827.22 1562.62 1827.32 1562.85 1827.93 1562.94 1828.36 1563 1828.61 1562.87 1828.61 1562.61 1828.61 1562.37 1828.92 1562.01 1829.3 1561.81 1830.52 1561.16 1831.4 1558.72 1831.32 1556.23 1831.27 1554.86 1831.37 1554.02 1831.58 1553.95 1832.13 1553.76 1832.54 1554.9 1832.76 1557.19 1832.87 1558.38 1833.03 1559.28 1833.12 1559.2 1833.21 1559.11 1833.45 1557.93 1833.67 1556.57 1833.89 1555.21 1834.14 1554.02 1834.24 1553.92 1834.7 1553.46 1835 1554.86 1834.93 1557.14 1834.88 1558.52 1834.94 1559.65 1835.05 1559.65 1835.17 1559.65 1835.7 1558.96 1836.24 1558.13 1836.79 1557.29 1837.36 1556.61 1837.52 1556.61 1838.05 1556.61 1837.47 1558.79 1836.61 1560.06 1836.14 1560.75 1835.65 1561.47 1835.53 1561.67 1835.07 1562.4 1835.85 1562.35 1837.38 1561.56 1838.24 1561.12 1839.04 1560.85 1839.15 1560.96 1839.49 1561.3 1838.02 1562.65 1836.88 1563.07 1836.08 1563.35 1835.69 1563.76 1835.27 1564.73 1834.51 1566.5 1833.14 1567.33 1831.39 1567.08 1830.48 1566.95 1830.13 1567 1830.27 1567.22 1830.68 1567.88 1830.11 1568.1 1829.18 1567.64 1828.32 1567.21 1828.15 1567.21 1827.28 1567.66 1826.76 1567.93 1826.1 1568.32 1825.81 1568.52 1825.4 1568.82 1825 1568.79 1823.83 1568.4 1823.03 1568.12 1821.36 1567.81 1820.13 1567.7 1817.85 1567.5 1814.62 1566.94 1811.97 1566.3 1809.76 1565.75 1807.86 1564.69 1805.9 1562.9 1804 1561.17 1802.05 1559.85 1801.77 1560.13 1801.68 1560.22 1800.97 1560.49 1800.19 1560.72L1798.78 1561.14 1798.29 1560.11C1797.82 1559.13 1797.77 1559.11 1797.1 1559.54 1796.66 1559.83 1796.22 1560.63 1795.9 1561.72 1795.63 1562.67 1795 1564.16 1794.5 1565.04 1794 1565.91 1793.63 1566.87 1793.67 1567.16 1793.72 1567.46 1793.65 1568 1793.53 1568.36 1793.36 1568.86 1793.56 1569.36 1794.36 1570.41 1794.94 1571.17 1795.5 1572.05 1795.6 1572.38 1795.93 1573.42 1797.17 1573.98 1798.64 1573.76 1800.65 1573.46 1801.85 1573.82 1801.85 1574.71 1801.85 1575.28 1802.01 1575.45 1802.55 1575.45 1802.93 1575.45 1803.67 1575.76 1804.19 1576.15L1805.14 1576.84 1808.89 1576.27C1811.9 1575.81 1815.6 1574.86 1818.73 1573.73 1819.11 1573.6 1820.22 1575.53 1820.64 1577.04 1820.89 1577.94 1820.87 1578.23 1820.54 1578.42 1820.2 1578.61 1820.26 1578.93 1820.87 1580.16 1821.77 1581.99 1821.92 1584.03 1821.22 1584.8 1820.76 1585.31 1820.77 1585.49 1821.33 1587.28 1821.95 1589.27 1821.89 1590.34 1821.16 1590.34 1820.62 1590.34 1820.34 1591.26 1820.4 1592.85 1820.52 1595.67 1820.43 1596.12 1819.72 1596.38 1819.27 1596.55 1818.82 1597.2 1818.4 1598.27 1817.84 1599.72 1817.68 1599.9 1816.98 1599.83 1816.45 1599.77 1816.04 1599.96 1815.73 1600.39 1815.42 1600.84 1815.1 1600.97 1814.67 1600.84 1814.19 1600.69 1813.86 1600.93 1813.14 1601.99 1812.63 1602.72 1811.51 1603.96 1810.65 1604.73 1809.48 1605.78 1809.23 1606.14 1809.66 1606.14 1809.98 1606.14 1810.71 1605.8 1811.27 1605.38 1811.84 1604.96 1812.61 1604.62 1812.98 1604.62 1813.34 1604.62 1814.24 1604.28 1814.97 1603.87 1815.7 1603.45 1816.45 1603.11 1816.64 1603.11 1817.07 1603.1 1820.01 1605.71 1820.4 1606.45 1820.61 1606.84 1820.52 1607.2 1820.07 1607.78 1819.64 1608.32 1819.57 1608.57 1819.84 1608.56 1820.07 1608.55 1821.4 1607.04 1822.81 1605.2L1825.37 1601.85 1826.25 1602.73 1827.14 1603.62 1824.53 1607.22C1823.09 1609.2 1821.92 1610.92 1821.92 1611.04 1821.92 1611.16 1822.4 1611.42 1822.99 1611.61 1825.72 1612.51 1827.78 1615.92 1827.82 1619.61L1827.85 1621.69 1826.63 1622.13C1825.96 1622.37 1824.51 1622.65 1823.41 1622.75L1821.4 1622.93 1821.18 1620.7C1820.9 1617.89 1820.66 1617.46 1819.25 1617.21 1818.63 1617.09 1817.93 1616.85 1817.7 1616.66 1817.47 1616.47 1816.71 1616.18 1816.03 1616 1814.92 1615.72 1814.76 1615.57 1814.68 1614.72 1814.62 1614.15 1814.31 1613.56 1813.92 1613.29 1813 1612.64 1808.9 1612.68 1806.49 1613.36 1804.6 1613.9 1804.6 1613.9 1802.97 1616.48 1802.07 1617.9 1800.45 1620.31 1799.36 1621.84 1797.71 1624.16 1797.34 1624.9 1797.18 1626.25 1796.88 1628.66 1795.61 1633.4 1794.69 1635.46 1793.2 1638.82 1791.11 1641.5 1785.51 1647.22 1782.45 1650.34 1779.95 1653.02 1779.95 1653.18 1779.95 1653.62 1780.55 1654.01 1782.14 1654.6 1782.92 1654.9 1783.79 1655.38 1784.06 1655.68 1784.53 1656.19 1784.46 1656.42 1783.09 1659.07 1781.58 1661.98 1781.29 1662.21 1779.87 1661.61 1779.5 1661.45 1779.34 1661.52 1779.34 1661.85 1779.34 1662.1 1781.25 1663.65 1783.58 1665.28 1787.96 1668.34 1787.9 1668.26 1787 1669.6 1786.79 1669.91 1785.76 1669.49 1782.37 1667.7 1779.98 1666.44 1777.98 1665.44 1777.94 1665.48 1777.91 1665.52 1777.78 1666.64 1777.67 1667.98 1777.45 1670.66 1776.92 1672.63 1776 1674.13 1775.17 1675.49 1774.34 1675.41 1770.86 1673.61 1769.3 1672.81 1767.72 1671.85 1767.37 1671.48L1766.72 1670.82 1767.66 1670.01C1769.02 1668.84 1770.79 1665.9 1771.19 1664.16 1771.46 1663 1771.45 1661.88 1771.14 1659.35 1770.93 1657.53 1770.84 1655.89 1770.96 1655.7 1771.25 1655.23 1771.9 1655.29 1772.35 1655.83 1772.67 1656.22 1773.14 1655.51 1775.37 1651.35 1776.82 1648.63 1778.58 1645.48 1779.28 1644.35 1782.23 1639.58 1785.95 1631.18 1786.92 1627.09 1787.26 1625.68 1788.21 1622.82 1789.04 1620.73 1789.88 1618.65 1790.52 1616.91 1790.48 1616.87 1790.44 1616.82 1788.84 1617.42 1786.92 1618.18 1783.06 1619.72 1782.75 1619.76 1776.57 1619.3 1770.78 1618.86 1769.76 1618.06 1770.02 1614.11 1770.15 1612.26 1770.37 1611.52 1771.43 1609.55 1773.15 1606.36 1775.67 1603.13 1777.92 1601.23 1779.92 1599.55 1782.08 1597.36 1782.08 1597.01 1782.08 1596.9 1781.8 1596.45 1781.47 1596.03 1781.13 1595.6 1780.86 1595.18 1780.86 1595.09 1780.86 1594.99 1781.57 1594.82 1782.43 1594.71 1783.81 1594.53 1784.25 1594.27 1786.12 1592.56 1787.29 1591.49 1788.91 1590.27 1789.73 1589.86 1790.55 1589.44 1791.15 1588.98 1791.05 1588.83 1790.96 1588.68 1791.08 1588.44 1791.32 1588.31 1792.07 1587.88 1792.01 1587.21 1791.2 1587.01 1790.78 1586.91 1790.31 1586.54 1790.15 1586.18 1789.96 1585.74 1789.5 1585.49 1788.67 1585.38 1787.29 1585.2 1786.95 1584.81 1786.95 1583.45 1786.94 1582.92 1786.84 1582.44 1786.71 1582.39 1786.35 1582.23 1783.19 1578.48 1782.01 1576.82 1779.68 1573.54 1777.8 1568.77 1777.21 1564.63 1777.01 1563.28 1776.76 1562.05 1776.65 1561.9 1776.54 1561.75 1775.79 1561.31 1774.99 1560.93 1773.79 1560.37 1773.41 1559.98 1772.9 1558.84 1772.11 1557.06 1772.31 1554.92 1773.34 1554.08 1774.55 1553.1 1776.42 1552.37 1777.75 1552.36 1778.73 1552.36 1779.43 1552.09 1780.58 1551.3L1782.11 1550.25 1780.88 1549.63C1780.2 1549.28 1779.34 1549.06 1778.96 1549.14 1778.58 1549.21 1777.9 1549.36 1777.44 1549.45 1776.75 1549.6 1776.6 1549.53 1776.6 1549.02 1776.6 1548.63 1776.87 1548.35 1777.38 1548.22 1778.09 1548.04 1778.11 1547.98 1777.68 1547.51 1777.05 1546.81 1777.09 1546.21 1777.84 1545.25 1778.8 1544.04 1779.97 1544.18 1781.64 1545.72 1782.6 1546.6 1783.13 1547.39 1783.38 1548.32 1783.66 1549.38 1783.85 1549.63 1784.34 1549.56 1784.73 1549.5 1785.01 1549.15 1785.13 1548.56 1785.54 1546.54 1786.43 1545.83 1788.59 1545.83 1789.26 1545.82 1789.83 1545.66 1789.9 1545.44 1789.99 1545.18 1789.78 1545.12 1789.17 1545.23 1788.43 1545.38 1788.03 1545.14 1786.27 1543.48 1785.05 1542.33 1784.19 1541.26 1784.13 1540.81 1784.04 1540.17 1783.96 1540.26 1783.63 1541.38 1783.31 1542.51 1783.32 1542.93 1783.74 1544.22 1784.02 1545.05 1784.18 1545.8 1784.11 1545.87 1783.99 1545.98 1783.28 1544.98 1782.16 1543.1 1781.95 1542.76 1781.78 1542.14 1781.78 1541.73 1781.77 1540.69 1781.26 1541.28 1780.74 1542.95L1780.31 1544.3 1780.28 1543C1780.25 1541.53 1780.89 1539.77 1781.82 1538.78L1782.44 1538.12 1781.49 1537.26C1780.97 1536.79 1780.2 1535.58 1779.79 1534.58L1779.05 1532.75 1778.99 1533.97C1778.96 1534.64 1778.92 1535.9 1778.91 1536.78 1778.89 1537.66 1778.8 1538.38 1778.7 1538.38 1778.6 1538.38 1778.29 1537.68 1778.02 1536.82 1777.34 1534.74 1777.37 1532.4 1778.09 1531 1778.41 1530.38 1778.55 1529.87 1778.41 1529.87 1777.8 1529.87 1775.97 1532.19 1775.58 1533.48 1775.26 1534.5 1775.14 1534.67 1775.12 1534.12 1775.07 1532.84 1776.5 1530.23 1778.29 1528.36L1779.99 1526.57 1778.62 1524.89C1777.87 1523.97 1776.67 1522.03 1775.95 1520.58 1774.88 1518.43 1774.62 1517.57 1774.54 1515.93 1774.41 1513.24 1775.14 1511.94 1776.78 1511.94 1779.17 1511.94 1783.39 1515 1787.03 1519.37L1787.78 1520.27 1789.57 1519.32 1791.35 1518.37 1792.7 1519.06 1794.04 1519.75 1795.52 1517.97C1799.4 1513.31 1802.43 1511.38 1807.24 1510.5ZM2741.23 1303.58C2729.83 1303.58 2719.96 1306.66 2711.64 1312.82 2703.31 1318.98 2698.07 1326.37 2695.92 1335 2694.99 1338.69 2691.6 1353.17 2685.74 1378.43 2682.97 1393.21 2679.58 1407.84 2675.57 1422.32 2675.57 1433.71 2679.42 1442.57 2687.13 1448.88 2694.84 1455.2 2703.01 1458.35 2711.64 1458.35 2719.04 1458.35 2726.97 1455.74 2735.45 1450.5 2743.93 1445.26 2749.4 1439.87 2751.87 1434.33 2754.33 1422.01 2757.88 1407.99 2762.5 1392.29 2768.67 1371.65 2772.68 1355.02 2774.53 1342.39 2767.74 1333.76 2763.12 1323.29 2760.65 1310.97 2760.65 1309.74 2760.42 1308.74 2759.96 1307.97 2759.5 1307.2 2758.5 1306.66 2756.95 1306.35 2752.33 1304.5 2747.09 1303.58 2741.23 1303.58ZM2107.94 1281.4C2109.79 1281.4 2112.95 1282.33 2117.42 1284.17 2121.89 1286.02 2124.74 1287.56 2125.98 1288.79L2121.81 1303.58C2120.89 1307.28 2118.81 1314.9 2115.57 1326.45 2112.34 1338 2109.33 1349.93 2106.55 1362.25 2116.11 1345.62 2126.05 1331.84 2136.38 1320.9 2146.71 1309.97 2156.19 1301.96 2164.82 1296.88 2173.45 1291.8 2180.08 1289.26 2184.7 1289.26 2188.09 1289.26 2192.41 1291.1 2197.65 1294.8 2202.89 1298.5 2205.51 1301.58 2205.51 1304.04 2202.74 1320.98 2198.73 1340.08 2193.49 1361.33 2206.13 1344.08 2221.23 1326.91 2238.81 1309.82 2256.38 1292.72 2269.79 1284.17 2279.04 1284.17 2283.35 1284.17 2287.98 1285.87 2292.91 1289.26 2297.84 1292.65 2300.46 1296.65 2300.77 1301.27 2290.91 1331.76 2283.28 1356.86 2277.88 1376.58 2272.49 1396.29 2269.79 1414 2269.79 1429.71 2269.79 1438.95 2271.33 1445.65 2274.41 1449.81 2277.5 1453.97 2283.04 1456.04 2291.06 1456.04 2309.86 1456.04 2328.05 1445.8 2345.62 1425.32 2354.41 1415.08 2362.16 1403.93 2368.86 1391.88L2382.31 1361.12 2387.84 1336.84C2393.39 1311.9 2396.78 1296.96 2398.02 1292.03 2402.02 1285.25 2407.57 1281.86 2414.66 1281.86 2419.29 1281.86 2421.6 1283.4 2421.6 1286.48 2419.44 1294.18 2416.44 1306.43 2412.58 1323.21 2408.73 1340 2405.72 1353.17 2403.57 1362.72 2395.24 1400.91 2389.54 1425.4 2386.46 1436.18 2386.46 1443.26 2388.54 1448.73 2392.7 1452.58 2396.86 1456.43 2402.33 1458.35 2409.12 1458.35 2424.53 1458.35 2440.02 1452.89 2455.59 1441.95 2471.16 1431.02 2484.87 1418.31 2496.74 1403.84L2511.24 1383.43 2522.32 1335.46C2526.02 1318.83 2528.95 1305.89 2531.11 1296.65 2532.34 1291.72 2534.04 1288.33 2536.2 1286.48 2538.35 1284.64 2541.74 1283.71 2546.37 1283.71 2550.38 1283.71 2554.38 1284.48 2558.39 1286.02L2523.25 1433.87C2523.25 1438.49 2525.17 1442.8 2529.03 1446.8 2532.88 1450.81 2537.12 1452.81 2541.74 1452.81 2548.53 1452.81 2559.01 1448.34 2573.19 1439.41 2587.37 1430.48 2596.93 1422.78 2601.86 1416.31 2608.64 1399.68 2614.19 1383.05 2618.51 1366.41 2622.82 1349.78 2627.75 1328.68 2633.3 1303.12L2637.93 1281.86C2641.93 1281.86 2646.48 1283.48 2651.57 1286.72 2656.66 1289.95 2659.81 1293.57 2661.05 1297.57 2657.35 1309.89 2653.8 1322.83 2650.41 1336.38 2648.87 1341.62 2645.63 1353.09 2640.7 1370.8 2635.77 1388.51 2629.3 1410.15 2621.28 1435.72 2603.4 1492.08 2585.75 1539.13 2568.33 1576.86 2550.92 1614.59 2527.1 1646.55 2496.89 1672.73 2466.68 1698.91 2429.07 1712 2384.06 1712 2361.56 1712 2342.75 1708.61 2327.65 1701.84 2312.54 1695.06 2301.37 1686.28 2294.12 1675.5 2286.88 1664.72 2283.25 1652.86 2283.25 1639.93 2283.25 1635.61 2283.72 1632.3 2284.64 1629.99 2285.57 1627.68 2286.34 1625.6 2286.95 1623.76 2296.51 1643.16 2309.23 1657.87 2325.1 1667.88 2340.98 1677.89 2362.02 1682.89 2388.22 1682.89 2423.37 1682.89 2453.73 1673.88 2479.32 1655.87 2504.91 1637.85 2526.95 1611.51 2545.44 1576.86 2563.94 1542.21 2580.59 1498.09 2595.38 1444.49 2586.14 1452.81 2575.58 1459.97 2563.71 1465.98 2551.84 1471.98 2542.05 1474.99 2534.35 1474.99 2528.49 1474.99 2522.86 1473.14 2517.47 1469.44 2512.07 1465.75 2507.6 1461.05 2504.06 1455.35 2500.51 1449.65 2498.74 1444.34 2498.74 1439.41L2503.7 1417.2 2496.86 1426.36C2487.53 1436.91 2477.71 1446.19 2467.38 1454.2 2446.73 1470.21 2426.07 1478.22 2405.42 1478.22 2394.63 1478.22 2384.99 1474.6 2376.52 1467.36 2368.04 1460.13 2363.8 1449.42 2363.8 1435.25L2367.24 1423.12 2336.84 1455.58C2319.58 1469.13 2302.62 1475.91 2285.97 1475.91 2274.26 1475.91 2264.62 1472.14 2257.07 1464.59 2249.52 1457.04 2245.74 1445.57 2245.74 1430.17 2245.74 1417.54 2247.82 1403.3 2251.99 1387.44 2256.15 1371.57 2261.77 1352.71 2268.86 1330.84 2271.02 1324.99 2273.03 1318.83 2274.87 1312.36 2274.87 1311.43 2274.26 1310.59 2273.03 1309.82 2271.79 1309.05 2270.56 1308.66 2269.33 1308.66 2265.32 1308.66 2257.38 1314.44 2245.51 1325.99 2233.64 1337.54 2221.62 1350.78 2209.44 1365.72 2197.27 1380.66 2189.17 1391.98 2185.17 1399.68 2182.08 1409.23 2177 1429.25 2169.91 1459.74 2168.67 1464.98 2167.67 1468.52 2166.9 1470.37 2166.13 1472.21 2164.82 1473.14 2162.97 1473.14 2160.2 1473.14 2157.04 1471.44 2153.49 1468.06 2149.95 1464.67 2148.17 1461.28 2148.17 1457.89 2148.17 1454.5 2149.71 1447.11 2152.8 1435.72 2165.74 1388.28 2176.23 1347.16 2184.24 1312.36 2182.39 1309.89 2180.08 1308.66 2177.3 1308.66 2172.68 1308.66 2164.82 1314.36 2153.72 1325.76 2142.62 1337.15 2131.06 1351.55 2119.04 1368.95 2107.02 1386.36 2097.15 1403.53 2089.45 1420.47 2084.82 1435.56 2080.66 1452.96 2076.96 1472.68 2073.88 1472.68 2069.87 1471.6 2064.94 1469.44 2060.01 1467.29 2057.54 1465.13 2057.54 1462.97 2057.54 1460.51 2059.08 1453.58 2062.16 1442.18L2064.47 1433.23 2041.14 1457.89C2023.88 1471.44 2006.62 1478.22 1989.35 1478.22 1977.64 1478.22 1968.47 1474.76 1961.84 1467.83 1955.21 1460.9 1951.9 1451.58 1951.9 1439.87 1951.9 1435.87 1952.21 1432.64 1952.82 1430.17 1946.04 1441.26 1937.18 1451.65 1926.23 1461.36 1915.29 1471.06 1904.58 1475.91 1894.09 1475.91 1885.16 1475.91 1876.37 1472.37 1867.74 1465.28 1859.11 1458.2 1853.86 1450.96 1852.02 1443.57 1851.71 1429.71 1853.63 1413.85 1857.8 1395.98 1861.96 1378.12 1871.44 1343.47 1886.23 1292.03 1888.08 1286.18 1890.24 1283.25 1892.71 1283.25 1895.17 1283.25 1898.41 1284.48 1902.42 1286.95 1906.43 1289.41 1908.43 1291.87 1908.43 1294.34 1908.43 1295.57 1908.04 1297.26 1907.27 1299.42 1906.5 1301.58 1905.96 1303.27 1905.66 1304.5 1885.93 1371.03 1875.6 1415.08 1874.67 1436.64 1876.21 1440.64 1879.53 1444.72 1884.62 1448.88 1889.7 1453.04 1894.09 1455.12 1897.79 1455.12 1901.8 1455.12 1907.35 1452.73 1914.44 1447.96 1921.53 1443.18 1929.08 1435.33 1937.1 1424.4 1945.12 1413.46 1952.51 1399.22 1959.3 1381.66 1967.31 1360.41 1976.25 1329.3 1986.12 1288.33 1986.73 1284.94 1988.43 1283.25 1991.2 1283.25 1993.67 1283.25 1996.98 1284.56 2001.14 1287.18 2005.31 1289.8 2007.39 1292.8 2007.39 1296.19 2007.39 1298.96 2006 1304.5 2003.23 1312.82 2000.45 1321.14 1998.76 1326.37 1998.14 1328.53 1990.74 1350.09 1984.81 1369.11 1980.34 1385.59 1975.87 1402.07 1973.63 1416.77 1973.63 1429.71 1973.63 1449.73 1980.57 1459.74 1994.44 1459.74 2003.38 1459.74 2013.71 1455.97 2025.42 1448.42 2037.14 1440.87 2049.08 1430.02 2061.26 1415.85L2072.81 1400.77 2101.47 1289.26C2102.09 1286.48 2102.86 1284.48 2103.78 1283.25 2104.71 1282.02 2106.09 1281.4 2107.94 1281.4ZM2773.14 1267.54C2776.22 1267.54 2779.77 1268 2783.77 1268.93 2782.23 1277.55 2781.46 1284.94 2781.46 1291.1 2781.46 1308.97 2786.86 1324.06 2797.65 1336.38 2808.44 1348.7 2823.08 1354.86 2841.58 1354.86 2855.45 1354.86 2867.39 1351.17 2877.41 1343.77L2885.05 1336.11 2888.65 1320.01C2892 1305.05 2894.14 1295.73 2895.06 1292.03 2899.07 1285.25 2904.62 1281.87 2911.71 1281.87 2916.33 1281.87 2918.64 1283.4 2918.64 1286.48 2916.49 1294.19 2913.48 1306.43 2909.63 1323.22 2905.77 1340 2902.77 1353.17 2900.61 1362.72 2892.29 1400.91 2886.58 1425.4 2883.5 1436.18 2883.5 1443.26 2885.58 1448.73 2889.74 1452.58 2893.91 1456.43 2899.38 1458.35 2906.16 1458.35 2921.57 1458.35 2937.06 1452.89 2952.63 1441.95 2968.2 1431.02 2981.92 1418.31 2993.79 1403.84 3005.66 1389.36 3014.52 1376.89 3020.38 1366.41 3022.23 1367.03 3023.46 1368.03 3024.08 1369.42 3024.69 1370.8 3025 1373.19 3025 1376.58 3025 1381.2 3023.46 1385.97 3020.38 1390.9 3003.73 1417.08 2985.08 1438.18 2964.42 1454.2 2943.77 1470.21 2923.11 1478.22 2902.46 1478.22 2891.67 1478.22 2882.04 1474.6 2873.56 1467.36 2865.08 1460.13 2860.84 1449.42 2860.84 1435.25 2864.31 1424.17 2869.69 1402.94 2876.97 1371.58L2880.03 1358.14 2871.4 1365.03C2860.77 1370.26 2849.13 1372.88 2836.49 1372.88 2819.53 1372.88 2804.58 1368.26 2791.64 1359.02 2789.79 1367.95 2787.47 1377.04 2784.7 1386.28 2783.77 1389.67 2781.77 1397.45 2778.69 1409.61 2775.6 1421.78 2773.45 1432.64 2772.21 1442.18 2770.06 1447.11 2765.74 1452.43 2759.27 1458.12 2752.79 1463.82 2745.09 1468.67 2736.15 1472.68 2727.21 1476.68 2718.42 1478.68 2709.79 1478.68 2700.23 1478.68 2690.98 1476.22 2682.04 1471.29 2673.1 1466.36 2665.78 1459.74 2660.08 1451.42 2654.37 1443.11 2651.52 1433.87 2651.52 1423.7 2655.84 1410.77 2659.38 1398.6 2662.16 1387.2 2664.93 1375.81 2667.55 1364.26 2670.02 1352.55L2674.64 1329.45C2676.18 1322.37 2680.35 1315.36 2687.13 1308.43 2693.91 1301.5 2702.16 1295.8 2711.87 1291.34 2721.58 1286.87 2731.37 1284.64 2741.23 1284.64 2744.93 1284.64 2750.17 1285.25 2756.95 1286.48 2757.88 1279.4 2759.5 1274.47 2761.81 1271.7 2764.12 1268.93 2767.9 1267.54 2773.14 1267.54ZM2931.13 1183.92C2936.06 1183.92 2939.68 1185.46 2942 1188.54 2944.31 1191.62 2945.46 1195.31 2945.46 1199.63 2945.46 1205.79 2943.38 1211.41 2939.22 1216.49 2935.06 1221.57 2929.9 1224.11 2923.73 1224.11 2919.42 1224.11 2916.02 1222.65 2913.56 1219.72 2911.09 1216.8 2909.86 1213.02 2909.86 1208.4 2909.86 1202.24 2911.86 1196.62 2915.87 1191.54 2919.88 1186.46 2924.96 1183.92 2931.13 1183.92ZM2434.09 1183.92C2439.02 1183.92 2442.64 1185.46 2444.95 1188.54 2447.26 1191.62 2448.42 1195.31 2448.42 1199.63 2448.42 1205.79 2446.34 1211.41 2442.18 1216.49 2438.02 1221.57 2432.85 1224.11 2426.69 1224.11 2422.37 1224.11 2418.98 1222.65 2416.51 1219.72 2414.05 1216.8 2412.81 1213.02 2412.81 1208.4 2412.81 1202.24 2414.82 1196.62 2418.83 1191.54 2422.83 1186.46 2427.92 1183.92 2434.09 1183.92ZM1803.15 1167.75C1780.65 1167.75 1762.69 1172.83 1749.28 1182.99 1742.58 1188.08 1737.55 1193.93 1734.2 1200.55L1730.97 1214.78 1729.81 1224.55 1730.09 1228.29 1732.17 1240.8C1734.18 1246.54 1737.18 1251.99 1741.19 1257.15L1743.91 1260.2 1752.01 1261.98C1761.87 1261.98 1773.66 1257.97 1787.38 1249.96 1801.1 1241.96 1814.12 1230.79 1826.46 1216.47L1844.39 1185.78 1838.53 1177.22C1830.98 1170.9 1819.18 1167.75 1803.15 1167.75ZM2568.82 1099.35C2559.27 1099.35 2550.63 1101.89 2542.93 1106.97 2535.22 1112.05 2528.9 1118.21 2523.97 1125.45 2519.04 1132.69 2515.95 1139.08 2514.72 1144.62L2496.22 1226.86C2496.84 1234.56 2499.92 1241.49 2505.47 1247.65 2511.02 1253.81 2517.03 1256.89 2523.51 1256.89 2528.75 1256.89 2535.14 1255.05 2542.7 1251.35 2550.25 1247.65 2557.34 1242.34 2563.97 1235.41 2570.6 1228.48 2575.14 1220.55 2577.61 1211.62L2586.4 1173.73C2587.63 1167.57 2589.79 1157.64 2592.87 1143.93 2595.95 1130.22 2598.42 1119.68 2600.27 1112.28 2591.64 1103.66 2581.15 1099.35 2568.82 1099.35ZM1695.13 1099.35C1685.57 1099.35 1676.94 1101.89 1669.23 1106.97 1661.53 1112.05 1655.21 1118.21 1650.27 1125.45 1645.34 1132.69 1642.26 1139.08 1641.03 1144.62L1622.53 1226.86C1623.15 1234.56 1626.23 1241.49 1631.78 1247.65 1637.33 1253.81 1643.34 1256.89 1649.81 1256.89 1655.05 1256.89 1661.45 1255.05 1669 1251.35 1676.56 1247.65 1683.65 1242.34 1690.27 1235.41 1696.9 1228.48 1701.45 1220.55 1703.91 1211.62L1712.7 1173.73C1713.93 1167.57 1716.09 1157.64 1719.17 1143.93 1722.26 1130.22 1724.72 1119.68 1726.57 1112.28 1717.94 1103.66 1707.46 1099.35 1695.13 1099.35ZM1542.39 948.268C1560.27 948.268 1575.53 951.348 1588.17 957.509 1600.81 963.669 1608.98 970.906 1612.68 979.223 1612.68 988.464 1611.3 999.089 1608.52 1011.1 1605.75 1023.11 1604.05 1030.2 1603.43 1032.35 1599.43 1032.35 1595.57 1031.74 1591.87 1030.51L1593.26 1021.27C1593.88 1015.72 1594.19 1011.26 1594.19 1007.87 1594.19 993.7 1590.41 983.458 1582.86 977.144 1575.3 970.83 1563.51 967.673 1547.48 967.673 1524.98 967.673 1507.02 972.755 1493.61 982.92 1480.2 993.084 1473.5 1006.33 1473.5 1022.65 1473.5 1035.28 1477.5 1046.75 1485.52 1057.07 1493.53 1067.39 1505.86 1079.94 1522.51 1094.73L1532.22 1103.5C1551.95 1121.37 1565.44 1135.85 1572.68 1146.93 1579.93 1158.02 1583.55 1170.81 1583.55 1185.28 1583.55 1206.23 1577.15 1223.86 1564.36 1238.18 1551.57 1252.5 1535.54 1263.13 1516.27 1270.06 1497 1276.99 1477.66 1280.46 1458.24 1280.46 1440.36 1280.46 1422.78 1277.84 1405.52 1272.6 1388.26 1267.37 1378.08 1261.67 1375 1255.51 1376.54 1248.12 1377.93 1238.03 1379.16 1225.25 1380.4 1212.46 1381.01 1202.68 1381.01 1195.91 1383.48 1193.75 1387.02 1192.67 1391.65 1192.67 1391.65 1210.23 1393.57 1223.94 1397.43 1233.79 1401.28 1243.65 1407.68 1250.81 1416.62 1255.28 1425.56 1259.74 1438.2 1261.98 1454.54 1261.98 1483.51 1261.98 1507.64 1255.89 1526.9 1243.73 1546.17 1231.56 1555.8 1214.23 1555.8 1191.75 1555.8 1180.05 1552.41 1168.42 1545.63 1156.87 1538.85 1145.32 1526.83 1131.53 1509.56 1115.52L1497.08 1103.97C1481.05 1089.49 1469.26 1076.94 1461.7 1066.31 1454.15 1055.69 1450.37 1042.83 1450.37 1027.73 1450.37 1012.95 1454.15 999.475 1461.7 987.309 1469.26 975.142 1480.05 965.594 1494.07 958.663 1508.1 951.733 1524.21 948.268 1542.39 948.268ZM2103.94 763C2127.99 763 2148.33 770.316 2164.98 784.946 2181.63 799.576 2189.95 821.676 2189.95 851.245 2189.95 852.785 2189.33 854.171 2188.1 855.403 2178.85 833.843 2166.6 818.442 2151.34 809.202 2136.08 799.962 2117.81 795.341 2096.54 795.341 2075.58 795.341 2054.23 804.736 2032.5 823.524 2010.76 842.313 1989.57 869.187 1968.92 904.146 1948.26 939.105 1928.99 980.455 1911.11 1028.2 1902.17 1051.91 1894.31 1077.86 1887.53 1106.05 1882.44 1127.18 1876.4 1153.73 1869.41 1185.7L1864.65 1207.69 1864.19 1211.18C1862.81 1217.18 1861.69 1221.96 1860.84 1225.5L1860.29 1227.71 1857.94 1238.41C1880.13 1208.23 1907.72 1173.89 1940.71 1135.38 1973.69 1096.88 1992.65 1077.63 1997.59 1077.63 2007.76 1077.63 2015.93 1080.71 2022.09 1086.87 2000.82 1102.89 1974.77 1128.15 1943.95 1162.64 1949.19 1182.97 1954.35 1199.76 1959.44 1213 1964.52 1226.25 1971.23 1237.57 1979.55 1246.96 1987.88 1256.35 1998.2 1261.05 2010.53 1261.05 2018.55 1261.05 2028.95 1255.51 2041.75 1244.42 2054.54 1233.33 2066.49 1218.85 2077.58 1200.99L2090.31 1168.95 2093.63 1156.52C2098.37 1139.2 2104.44 1117.67 2111.84 1091.95 2113.69 1086.1 2115.85 1083.18 2118.31 1083.18 2120.78 1083.18 2124.02 1084.41 2128.02 1086.87 2132.03 1089.34 2134.04 1091.8 2134.04 1094.26 2134.04 1095.5 2133.65 1097.19 2132.88 1099.35 2132.11 1101.5 2131.57 1103.2 2131.26 1104.43 2111.53 1170.96 2101.2 1215 2100.28 1236.56 2101.82 1240.57 2105.13 1244.65 2110.22 1248.81 2115.31 1252.97 2119.7 1255.05 2123.4 1255.05 2127.41 1255.05 2132.96 1252.66 2140.05 1247.88 2147.14 1243.11 2154.69 1235.26 2162.71 1224.32 2170.72 1213.39 2178.12 1199.14 2184.9 1181.59 2192.92 1160.33 2201.86 1129.22 2211.72 1088.26 2212.34 1084.87 2214.03 1083.18 2216.81 1083.18 2219.27 1083.18 2222.59 1084.49 2226.75 1087.1 2230.91 1089.72 2232.99 1092.72 2232.99 1096.11 2232.99 1098.88 2231.61 1104.43 2228.83 1112.75 2226.06 1121.06 2224.36 1126.3 2223.74 1128.45 2216.35 1150.01 2210.41 1169.03 2205.94 1185.51 2201.47 1201.99 2199.24 1216.7 2199.24 1229.64 2199.24 1249.66 2206.17 1259.67 2220.04 1259.67 2228.99 1259.67 2239.31 1255.89 2251.03 1248.35 2262.74 1240.8 2274.69 1229.94 2286.86 1215.77 2292.95 1208.69 2298.79 1201.07 2304.38 1192.91L2308.69 1185.88 2317.71 1145.43C2323.8 1118.56 2328.23 1099.96 2331 1089.64 2331.62 1086.87 2332.31 1085.02 2333.08 1084.1 2333.86 1083.18 2335.17 1082.71 2337.02 1082.71 2338.25 1082.71 2340.87 1083.72 2344.88 1085.72 2348.88 1087.72 2352.12 1089.8 2354.59 1091.95L2346.26 1118.75 2343.49 1127.99C2350.58 1116.9 2358.75 1107.97 2368 1101.19 2377.25 1094.42 2387.11 1091.03 2397.59 1091.03 2400.67 1091.03 2403.76 1091.34 2406.84 1091.95 2409.92 1092.57 2412.08 1093.34 2413.31 1094.26 2413.31 1109.36 2417.24 1120.52 2425.11 1127.76 2432.97 1135 2443.99 1138.62 2458.17 1138.62 2470.81 1138.62 2481.29 1136.46 2489.61 1132.15L2499.5 1124.72 2507.55 1111.13C2515.11 1102.66 2524.28 1095.65 2535.07 1090.11 2545.86 1084.56 2556.8 1081.79 2567.9 1081.79 2582.08 1081.79 2594.56 1086.56 2605.35 1096.11 2608.13 1088.72 2610.21 1084.1 2611.6 1082.25 2612.98 1080.4 2615.06 1079.33 2617.84 1079.02L2640.5 1076.71 2641.88 1077.63C2635.72 1082.56 2631.25 1090.26 2628.47 1100.73 2618.92 1136.46 2612.37 1162.8 2608.82 1179.74 2605.28 1196.68 2603.5 1211.62 2603.5 1224.55 2603.5 1237.49 2605.2 1246.96 2608.59 1252.97 2611.98 1258.97 2617.69 1261.98 2625.7 1261.98 2635.56 1261.98 2647.36 1257.97 2661.08 1249.96 2674.79 1241.96 2687.82 1230.79 2700.15 1216.47 2712.48 1202.14 2721.88 1186.05 2728.36 1168.19 2732.36 1168.19 2734.37 1172.19 2734.37 1180.2 2734.37 1194.37 2728.13 1209.31 2715.64 1225.01 2703.16 1240.72 2688.05 1253.89 2670.32 1264.52 2652.6 1275.14 2636.34 1280.46 2621.54 1280.46 2609.52 1280.46 2600.27 1276.76 2593.79 1269.37 2587.32 1261.98 2583.47 1252.43 2582.23 1240.72 2574.53 1251.81 2564.82 1260.9 2553.1 1267.98 2541.39 1275.07 2530.91 1278.61 2521.66 1278.61 2513.64 1278.61 2505.7 1275.91 2497.84 1270.52 2489.98 1265.13 2483.58 1258.51 2478.65 1250.66 2473.72 1242.8 2471.1 1235.33 2470.79 1228.25L2490.61 1146.63 2483.37 1151.09C2473.66 1154.79 2463.87 1156.64 2454.01 1156.64 2438.59 1156.64 2425.41 1152.63 2414.47 1144.62 2403.53 1136.62 2396.51 1125.37 2393.43 1110.9 2379.56 1112.44 2366.84 1121.22 2355.28 1137.23 2343.72 1153.25 2335.63 1170.65 2331 1189.44 2330.39 1192.52 2328.07 1201.99 2324.07 1217.85 2320.06 1233.72 2316.21 1252.43 2312.51 1273.99 2312.2 1274.91 2311.81 1275.61 2311.35 1276.07 2310.89 1276.53 2309.89 1276.76 2308.35 1276.76 2306.19 1276.76 2302.95 1275.84 2298.63 1273.99 2294.32 1272.14 2292.16 1270.14 2292.16 1267.98 2292.16 1263.67 2292.93 1257.97 2294.47 1250.89L2300.82 1221.78 2266.75 1257.82C2249.49 1271.37 2232.22 1278.15 2214.96 1278.15 2203.24 1278.15 2194.07 1274.68 2187.44 1267.75 2180.82 1260.82 2177.5 1251.5 2177.5 1239.8 2177.5 1235.79 2177.81 1232.56 2178.43 1230.1 2171.65 1241.19 2162.78 1251.58 2151.84 1261.28 2140.89 1270.99 2130.18 1275.84 2119.7 1275.84 2110.76 1275.84 2101.97 1272.29 2093.34 1265.21 2084.71 1258.13 2079.47 1250.89 2077.62 1243.5L2079.74 1226.08 2073.48 1234.95C2066.58 1243.34 2059.09 1251.2 2050.99 1258.51 2034.81 1273.14 2019.32 1280.46 2004.52 1280.46 1985.72 1280.46 1970.69 1272.53 1959.44 1256.66 1948.18 1240.8 1937.01 1216.39 1925.91 1183.43 1898.17 1215.77 1875.35 1245.34 1857.47 1272.14 1853.47 1278.3 1850.69 1281.38 1849.15 1281.38 1846.68 1281.38 1843.37 1279.46 1839.21 1275.61 1835.05 1271.76 1832.81 1268.44 1832.5 1265.67 1832.27 1261.05 1833.95 1249.46 1837.53 1230.89L1837.85 1229.3 1821.25 1246.67C1813.7 1253.26 1805.49 1259.2 1796.63 1264.52 1787.77 1269.83 1779.27 1273.81 1771.14 1276.47L1760.66 1278.26 1778.18 1294.8 1787.89 1303.58C1807.62 1321.44 1821.11 1335.92 1828.36 1347.01 1835.6 1358.1 1839.22 1370.88 1839.22 1385.36 1839.22 1406.3 1832.83 1423.93 1820.03 1438.26 1807.24 1452.58 1791.21 1463.2 1771.94 1470.14 1752.67 1477.07 1733.33 1480.53 1713.91 1480.53 1696.03 1480.53 1678.46 1477.91 1661.19 1472.68 1643.93 1467.44 1633.76 1461.74 1630.67 1455.58 1632.21 1448.19 1633.6 1438.1 1634.83 1425.32 1636.07 1412.54 1636.68 1402.76 1636.68 1395.98 1639.15 1393.83 1642.7 1392.75 1647.32 1392.75 1647.32 1410.3 1649.25 1424.01 1653.1 1433.87 1656.95 1443.72 1663.35 1450.88 1672.29 1455.35 1681.23 1459.82 1693.87 1462.05 1710.21 1462.05 1739.19 1462.05 1763.31 1455.97 1782.58 1443.8 1801.84 1431.63 1811.48 1414.31 1811.48 1391.82 1811.48 1380.12 1808.09 1368.49 1801.3 1356.94 1794.52 1345.39 1782.5 1331.61 1765.24 1315.59L1752.75 1304.04C1736.72 1289.56 1724.93 1277.01 1717.38 1266.39L1713.94 1259.27 1712.35 1256.66 1712.03 1255.3 1708.88 1248.77 1707.88 1241.34 1679.41 1267.98C1667.69 1275.07 1657.21 1278.61 1647.96 1278.61 1639.95 1278.61 1632.01 1275.91 1624.15 1270.52 1616.29 1265.13 1609.89 1258.51 1604.96 1250.66 1600.03 1242.8 1597.41 1235.33 1597.1 1228.25L1619.76 1134.92C1621.6 1127.53 1626.31 1119.6 1633.86 1111.13 1641.41 1102.66 1650.58 1095.65 1661.37 1090.11 1672.16 1084.56 1683.11 1081.79 1694.2 1081.79 1708.38 1081.79 1720.87 1086.56 1731.66 1096.11 1734.43 1088.72 1736.52 1084.1 1737.9 1082.25 1739.29 1080.4 1741.37 1079.33 1744.14 1079.02L1766.8 1076.71 1768.19 1077.63C1762.02 1082.56 1757.55 1090.26 1754.78 1100.73 1747.61 1127.53 1742.14 1149.04 1738.35 1165.27L1738.08 1166.48 1749.75 1158.74C1763.77 1151.81 1779.88 1148.34 1798.07 1148.34 1815.95 1148.34 1831.21 1151.42 1843.85 1157.58L1852.26 1163 1852.56 1161.66C1856.53 1144.91 1860.86 1127.53 1865.57 1109.51 1874.97 1073.47 1883.52 1044.52 1891.23 1022.65 1920.82 939.49 1953.12 875.424 1988.11 830.454 2023.1 785.485 2061.71 763 2103.94 763Z" fill="#FFFFFF" fill-rule="evenodd"/>
  </g>
</svg>