<svg width="1650" height="949" xmlns="http://www.w3.org/2000/svg" xmlns:xlink="http://www.w3.org/1999/xlink" xml:space="preserve" overflow="hidden"><defs><clipPath id="clip0"><rect x="1375" y="763" width="1650" height="949"/></clipPath></defs><g clip-path="url(#clip0)" transform="translate(-1375 -763)"><path d="M1795.9 1603.57C1795.65 1603.53 1795.21 1603.79 1794.42 1604.34 1792.87 1605.41 1792.28 1606.77 1793.11 1607.38 1794.21 1608.18 1796.38 1606.29 1796.27 1604.64 1796.23 1603.96 1796.16 1603.61 1795.9 1603.57ZM2127.91 1583.12 2127.91 1603.07 2148.51 1603.07 2148.51 1583.12ZM2012.3 1567.88C2014.58 1567.81 2016.9 1569.03 2017.85 1571.6 2020.6 1578.99 2021.97 1587.15 2021.63 1595.65 2020.34 1627.76 1994.21 1653.78 1961.99 1654.98 1952.1 1655.23 1941.02 1652.66 1936.63 1650.77 1931.31 1648.28 1929.16 1644.24 1928.21 1640.9 1927.53 1637.89 1927.95 1634.54 1928.56 1632.14 1929.93 1627.67 1931.56 1622.61 1933.28 1617.03 1935.52 1610.07 1937.92 1602.34 1940.5 1594.1 1941.53 1590.75 1945.92 1589.98 1947.98 1592.81L1953.65 1600.54C1955.8 1603.46 1957.86 1606.29 1959.92 1609.13 1960.95 1610.59 1961.99 1612.05 1963.02 1613.42 1963.02 1613.42 1967.92 1619.95 1971.1 1621.83 1972.73 1622.69 1974.45 1623.38 1976.17 1623.64 1979.69 1624.24 1983.21 1623.81 1986.31 1622.26 1989.4 1620.8 1992.06 1618.23 1993.61 1615.22 1994.3 1614.11 1995.5 1609.99 1995.76 1609.21 1999.54 1596.5 2003.15 1584.66 2006.24 1574.52L2007.02 1571.95C2007.79 1569.33 2010.03 1567.96 2012.3 1567.88ZM1801.31 1545.15C1799.74 1544.52 1798.7 1544.74 1798.7 1545.7 1798.7 1546.31 1802.06 1549.71 1802.8 1549.86 1803.16 1549.93 1803.72 1550.04 1804.04 1550.11 1804.47 1550.2 1804.8 1550.58 1805.25 1551.54 1806.15 1553.44 1806.99 1553.83 1807.83 1552.72 1808.27 1552.15 1808.72 1551.86 1809.34 1551.75 1811.42 1551.38 1811.36 1550.5 1809.15 1548.52 1807.33 1546.89 1806.47 1546.55 1805.05 1546.93 1803.91 1547.22 1803.36 1547.05 1802.75 1546.2 1802.49 1545.83 1801.84 1545.36 1801.31 1545.15ZM1781.96 1545.14C1783.23 1545.89 1783.25 1546.06 1782.18 1546.69 1781.3 1547.21 1781.28 1547.25 1781.25 1548.56 1781.23 1549.33 1781.16 1549.4 1780.44 1549.47 1778.12 1549.69 1777.54 1546.6 1779.62 1545.16 1780.74 1544.4 1780.69 1544.4 1781.96 1545.14ZM2107.32 1532.9 2169.11 1532.9 2169.11 1543.04 2179.4 1543.04 2179.4 1553.02 2189.7 1553.02 2189.7 1563 2200 1563 2200 1623.2 2189.7 1623.2 2189.7 1633.17 2179.4 1633.17 2179.4 1643.15 2169.11 1643.15 2169.11 1653.13 2107.14 1653.13 2107.14 1643.15 2096.85 1643.15 2096.85 1633.17 2086.55 1633.17 2086.55 1623.2 2076.42 1623.2 2076.42 1562.83 2086.72 1562.83 2086.72 1552.85 2097.02 1552.85 2097.02 1542.88 2107.32 1542.88ZM1957.69 1531.08C1967.31 1530.73 1976.17 1532.37 1984.24 1536.14 1987.17 1537.6 1989.74 1539.49 1990.78 1540.26 1994.81 1543.36 1996.96 1546.88 1997.91 1550.31 1998.94 1554.17 1998.42 1558.21 1997.31 1561.22 1996.7 1562.67 1986.31 1589.98 1983.04 1598.65 1981.49 1602.34 1976.68 1602.43 1975.05 1599.42L1975.05 1599.34 1969.38 1590.32C1965.6 1584.4 1961.81 1578.39 1958.12 1572.46 1958.12 1572.46 1956.23 1569.72 1956.14 1569.54 1955.03 1568.08 1953.48 1566.71 1951.85 1565.59 1948.49 1563.36 1944.54 1562.33 1940.67 1562.59 1936.81 1562.76 1933.03 1564.22 1929.93 1566.71 1929.16 1567.4 1928.38 1568 1927.78 1568.77 1925.81 1570.83 1923.92 1575.47 1923.92 1575.47 1919.1 1587.83 1910.6 1609.81 1910.6 1609.9 1908.36 1615.22 1901.74 1615.14 1899.94 1609.73 1898.48 1604.06 1897.45 1597.02 1897.7 1590.84 1898.31 1574.78 1905.44 1559.15 1916.87 1548.16 1927.7 1537.77 1942.48 1531.59 1957.69 1531.08ZM1811.45 1530.7C1811.66 1530.36 1812.16 1530.5 1813.07 1531.16 1815.67 1533.08 1816.45 1534.14 1815.81 1534.91 1815.37 1535.44 1815.16 1535.34 1814.85 1534.48 1814.69 1534.04 1814.27 1533.52 1813.9 1533.31 1813.54 1533.1 1813.21 1532.69 1813.16 1532.39 1813.11 1532.04 1812.84 1531.77 1812.37 1531.62 1811.62 1531.38 1811.25 1531.02 1811.45 1530.7ZM1794.07 1519.07C1795.17 1519.38 1796.26 1520.06 1796.92 1521.02 1797.28 1521.54 1797.65 1521.96 1797.74 1521.96 1797.83 1521.96 1798.05 1522.23 1798.23 1522.56 1798.46 1522.98 1798.93 1523.27 1799.85 1523.54 1801.21 1523.93 1802.54 1524.81 1804.52 1526.61 1805.18 1527.21 1806.35 1528.05 1807.14 1528.49 1808.45 1529.21 1808.57 1529.34 1808.57 1530.08 1808.57 1530.62 1808.79 1531.15 1809.22 1531.67 1809.58 1532.1 1809.87 1532.58 1809.87 1532.73 1809.87 1532.89 1810.2 1533.31 1810.61 1533.66 1811.27 1534.25 1811.33 1534.4 1811.18 1535.26 1810.99 1536.4 1812.12 1538.94 1813.65 1540.78 1815.51 1543.03 1815.08 1545.58 1813.11 1544.03 1811.03 1542.4 1807.73 1541.73 1808.87 1543.17 1809 1543.33 1809.23 1543.87 1809.4 1544.38 1809.56 1544.89 1810.06 1545.71 1810.52 1546.21 1811.07 1546.82 1811.39 1547.44 1811.47 1548.07 1811.91 1551.39 1818.42 1549.44 1819.36 1545.71 1821.17 1538.52 1821.33 1535.75 1820.09 1533.25 1819.7 1532.47 1819.38 1531.64 1819.38 1531.42 1819.38 1531.19 1819.06 1530.67 1818.67 1530.27 1817.89 1529.48 1817.69 1528.22 1818.3 1527.99 1818.79 1527.8 1820.72 1529.48 1821.2 1530.5 1822.64 1533.57 1824.91 1528.46 1823.54 1525.2 1822.7 1523.19 1823.2 1521.53 1824.39 1522.41 1824.81 1522.72 1825.42 1522.91 1826 1522.91 1827.56 1522.91 1829.18 1524.89 1829.49 1527.19 1830.04 1531.26 1832.01 1532.59 1833.06 1529.59 1833.9 1527.21 1834.07 1526.95 1834.78 1526.95 1835.51 1526.95 1836.02 1527.32 1836.02 1527.85 1836.02 1528.03 1836.34 1528.97 1836.73 1529.94 1837.63 1532.19 1838.1 1536.12 1837.71 1538.22 1837.11 1541.46 1837.68 1541.97 1840.46 1540.71 1841.53 1540.22 1842.8 1540.1 1843.03 1540.47 1843.6 1541.39 1840.4 1545.72 1838.34 1546.8 1836.81 1547.62 1837.64 1548.45 1840.16 1548.63 1842.87 1548.83 1843.24 1549.56 1841.09 1550.48 1839.32 1551.24 1838.93 1552.72 1840.3 1553.43 1841.15 1553.87 1841.3 1554.86 1840.55 1555.09 1840.03 1555.26 1838.56 1554.67 1837.8 1554 1836.2 1552.58 1831.39 1552.68 1829.18 1554.18 1828.83 1554.42 1827.73 1554.9 1826.75 1555.25 1825.77 1555.59 1824.49 1556.05 1823.9 1556.28 1821.5 1557.19 1817.82 1556.3 1814.37 1553.97 1813.15 1553.14 1810.22 1553.12 1809.37 1553.93 1807.95 1555.28 1807.9 1556.25 1809.23 1556.53 1809.65 1556.61 1810.63 1556.99 1811.42 1557.36 1812.2 1557.73 1813.75 1558.2 1814.87 1558.39 1815.98 1558.59 1817.58 1559.04 1818.43 1559.4 1819.63 1559.9 1820.49 1560.07 1822.22 1560.15 1823.68 1560.22 1824.58 1560.38 1824.8 1560.59 1825.47 1561.26 1826.14 1560.54 1825.53 1559.81 1825.17 1559.37 1827.12 1559.52 1828 1560 1828.45 1560.24 1828.48 1560.33 1828.51 1561.75 1828.6 1565.31 1833.41 1560.26 1833.41 1556.6 1833.41 1555.78 1833.47 1555.7 1834.18 1555.57 1835.46 1555.33 1836.26 1555.77 1836.26 1556.7 1836.26 1557.69 1836.62 1558.06 1837.57 1558.06 1838.93 1558.06 1839.29 1559.02 1838.28 1559.96 1837.34 1560.85 1837.9 1562.1 1839.23 1562.1 1840.08 1562.1 1839.97 1562.43 1838.99 1562.78 1838.51 1562.96 1838.01 1563.36 1837.82 1563.74 1837.63 1564.1 1837.3 1564.54 1837.08 1564.73 1836.85 1564.91 1836.42 1565.46 1836.12 1565.94 1835.51 1566.91 1832.65 1567.8 1830.15 1567.8 1829.34 1567.8 1828.61 1567.99 1827.84 1568.4L1826.71 1569 1825.16 1568.52C1824.27 1568.24 1822.94 1568.04 1822.03 1568.04 1821.16 1568.04 1819.38 1567.78 1818.08 1567.47 1816.77 1567.16 1814.98 1566.79 1814.11 1566.64 1811.97 1566.28 1809.33 1564.91 1807.34 1563.13 1803.99 1560.12 1803.99 1560.12 1801.95 1560.82L1800.84 1561.2 1800 1560.46C1798.91 1559.51 1797.75 1559.83 1797.75 1561.07 1797.75 1561.28 1797.49 1562.01 1797.18 1562.67 1796.87 1563.34 1796.44 1564.26 1796.23 1564.72 1796.02 1565.17 1795.64 1565.92 1795.37 1566.37 1794.69 1567.55 1794.73 1569.23 1795.46 1570.1 1795.77 1570.47 1796.24 1571.2 1796.52 1571.72 1797.44 1573.49 1798.73 1574.3 1800.14 1574 1801.86 1573.63 1801.85 1573.63 1803.41 1574.93 1805.68 1576.82 1806.22 1576.94 1810.47 1576.47 1812.43 1576.25 1814.57 1575.87 1815.22 1575.62 1817.37 1574.81 1819.64 1574.19 1820.16 1574.26 1821 1574.38 1822.49 1577.18 1822.18 1578.06 1821.99 1578.62 1822.07 1579.12 1822.56 1580.63 1823.27 1582.76 1823.31 1583.39 1822.87 1584.88 1822.65 1585.6 1822.62 1586.24 1822.76 1586.9 1823.27 1589.34 1823.26 1589.48 1822.49 1590.94 1821.82 1592.2 1821.77 1592.42 1822.02 1593.15 1822.4 1594.32 1822.13 1595.29 1820.99 1596.83 1820.43 1597.57 1819.81 1598.49 1819.6 1598.86 1819.21 1599.56 1817.16 1600.86 1816 1601.14 1815.65 1601.23 1815.22 1601.47 1815.05 1601.68 1814.88 1601.9 1814.35 1602.46 1813.86 1602.93 1813.37 1603.41 1812.96 1603.92 1812.96 1604.07 1812.96 1604.23 1812.64 1604.58 1812.25 1604.86 1811.46 1605.42 1811.35 1605.75 1811.9 1605.96 1812.3 1606.11 1815.82 1604.6 1816.74 1603.88 1818.07 1602.83 1820.27 1604.04 1821.27 1606.37 1821.53 1606.97 1821.86 1607.47 1822 1607.47 1822.47 1607.47 1824.2 1605.94 1824.48 1605.29 1824.98 1604.11 1826.5 1602.68 1827.16 1602.76 1828.62 1602.94 1828.53 1604.91 1827.01 1606.3 1826.61 1606.67 1826.28 1607.07 1826.28 1607.2 1826.28 1607.34 1825.74 1608.05 1825.09 1608.8 1823.42 1610.71 1823.55 1611.34 1825.89 1612.66 1826.99 1613.27 1827.3 1613.62 1827.93 1614.88 1828.34 1615.7 1828.82 1616.63 1829 1616.95 1830.67 1619.86 1829.45 1622.37 1826.11 1622.88 1823.09 1623.35 1822.71 1623.09 1822.71 1620.59 1822.71 1618.94 1822.31 1617.92 1821.65 1617.92 1821.47 1617.92 1820.65 1617.56 1819.82 1617.13 1818.99 1616.69 1817.99 1616.25 1817.6 1616.16 1816.66 1615.93 1816.35 1615.65 1816.18 1614.85 1815.45 1611.53 1806.69 1612.53 1804.88 1616.14 1804.55 1616.79 1803.99 1617.62 1803.63 1617.97 1803.27 1618.32 1802.98 1618.75 1802.98 1618.93 1802.98 1619.1 1802.67 1619.61 1802.3 1620.06 1801.93 1620.52 1801.44 1621.24 1801.22 1621.67 1801 1622.11 1800.66 1622.52 1800.47 1622.59 1799.7 1622.89 1798.71 1625.58 1798.24 1628.68 1797.95 1630.58 1797.56 1632.18 1797.19 1632.95 1796.88 1633.63 1796.54 1634.57 1796.44 1635.02 1796.35 1635.48 1795.96 1636.34 1795.59 1636.94 1795.21 1637.54 1794.9 1638.15 1794.9 1638.3 1794.9 1638.45 1794.6 1638.92 1794.23 1639.35 1793.87 1639.78 1793.27 1640.6 1792.91 1641.17 1792.54 1641.74 1789.83 1644.61 1786.9 1647.55 1780.78 1653.67 1780.87 1653.49 1783.23 1654.66 1784.07 1655.08 1785 1655.67 1785.31 1655.97L1785.86 1656.52 1785.27 1657.95C1784.95 1658.73 1784.68 1659.49 1784.68 1659.64 1784.67 1659.96 1782.13 1662.34 1781.8 1662.34 1781.11 1662.34 1781.66 1663.47 1782.59 1663.96 1783.15 1664.25 1783.94 1664.73 1784.35 1665.02 1784.76 1665.31 1785.4 1665.73 1785.78 1665.96 1787.22 1666.82 1788.6 1667.98 1788.68 1668.37 1788.97 1669.91 1787.93 1670.52 1786.61 1669.6 1786.12 1669.27 1785.6 1668.99 1785.45 1668.99 1785.31 1668.99 1784.87 1668.72 1784.48 1668.4 1784.1 1668.08 1783.31 1667.61 1782.74 1667.36 1782.17 1667.12 1781.55 1666.74 1781.37 1666.53 1780.36 1665.31 1779.25 1666.23 1779.11 1668.42 1778.98 1670.42 1778.19 1673.39 1777.54 1674.26 1777.28 1674.62 1777.07 1675.02 1777.07 1675.15 1777.07 1675.65 1774.52 1675.45 1774.39 1674.94 1774.31 1674.63 1773.86 1674.36 1772.99 1674.11 1772.29 1673.9 1771.29 1673.43 1770.77 1673.05 1770.24 1672.68 1769.58 1672.3 1769.29 1672.22 1768.09 1671.84 1768.37 1670.84 1770.2 1668.94 1770.74 1668.38 1771.44 1667.39 1771.76 1666.73 1772.08 1666.08 1772.49 1665.28 1772.68 1664.95 1773.13 1664.16 1773.13 1661.32 1772.67 1659.82 1772 1657.61 1772.43 1655.92 1773.66 1655.92 1774.13 1655.92 1775.16 1655.02 1775.16 1654.61 1775.16 1654.46 1775.38 1654.14 1775.64 1653.9 1775.9 1653.67 1776.24 1653.04 1776.39 1652.5 1776.54 1651.97 1776.96 1651.15 1777.32 1650.68 1777.68 1650.22 1778.08 1649.44 1778.22 1648.95 1778.35 1648.47 1778.79 1647.69 1779.19 1647.24 1779.59 1646.78 1779.92 1646.26 1779.92 1646.08 1779.92 1645.9 1780.19 1645.43 1780.52 1645.04 1780.85 1644.65 1781.28 1643.92 1781.49 1643.42 1781.7 1642.92 1782.06 1642.29 1782.3 1642.03 1782.54 1641.77 1782.96 1640.95 1783.24 1640.21 1783.51 1639.47 1783.89 1638.74 1784.08 1638.59 1784.26 1638.43 1784.59 1637.72 1784.8 1636.99 1785.01 1636.27 1785.43 1635.29 1785.74 1634.82 1786.04 1634.34 1786.37 1633.58 1786.46 1633.12 1786.55 1632.67 1786.89 1631.83 1787.22 1631.26 1787.57 1630.64 1787.96 1629.38 1788.16 1628.17 1788.36 1627.04 1788.76 1625.58 1789.07 1624.93 1789.37 1624.27 1789.7 1623.34 1789.79 1622.86 1789.88 1622.37 1790.27 1621.47 1790.66 1620.85 1792.66 1617.71 1791.56 1616.76 1787.92 1618.49 1784.84 1619.96 1783.51 1620.22 1781.56 1619.71 1780.37 1619.4 1779.48 1619.32 1778.42 1619.43 1774.91 1619.78 1772.12 1618.64 1771.56 1616.63 1771.12 1615.04 1771.62 1611.87 1772.53 1610.43 1772.93 1609.8 1773.26 1609.14 1773.26 1608.98 1773.26 1608.81 1773.57 1608.32 1773.94 1607.89 1774.32 1607.46 1774.8 1606.79 1775.02 1606.4 1775.62 1605.33 1777.03 1603.67 1778.46 1602.35 1779.16 1601.7 1780.53 1600.42 1781.49 1599.5L1783.25 1597.82 1783.25 1596.49C1783.25 1595.04 1783.28 1595.02 1785.39 1594.55 1785.72 1594.48 1786.71 1593.75 1787.58 1592.93 1789.4 1591.22 1790.9 1590.12 1791.92 1589.76 1793.95 1589.03 1793.47 1587.31 1790.85 1585.9 1788.84 1584.82 1788.39 1584.35 1788.12 1583 1788.02 1582.55 1787.61 1581.85 1787.2 1581.44 1786.47 1580.73 1785.69 1579.83 1784.13 1577.9 1783.71 1577.38 1783.16 1576.55 1782.91 1576.06 1782.66 1575.57 1782.38 1575.17 1782.28 1575.17 1782.18 1575.17 1781.87 1574.55 1781.59 1573.8 1781.31 1573.05 1780.88 1572.15 1780.63 1571.81 1780.38 1571.46 1779.97 1570.39 1779.71 1569.43 1779.45 1568.47 1779.07 1567.1 1778.87 1566.39 1778.66 1565.67 1778.49 1564.7 1778.49 1564.22 1778.49 1562.75 1778.08 1561.97 1777.07 1561.51 1775.34 1560.73 1773.74 1558.52 1773.74 1556.91 1773.74 1554.75 1775.61 1553.28 1779.35 1552.49 1781.24 1552.09 1781.76 1551.81 1782.8 1550.63 1783.52 1549.82 1783.84 1549.64 1784.81 1549.53 1785.86 1549.41 1786 1549.31 1786.58 1548.33 1787 1547.61 1787.6 1547.03 1788.42 1546.56 1789.83 1545.76 1789.81 1545.62 1788.17 1544.05 1785.54 1541.52 1785.65 1541.57 1784.87 1542.63 1784.17 1543.57 1783.71 1543.52 1782.81 1542.4 1781.92 1541.3 1781.89 1541.05 1782.56 1540.34 1783.82 1539 1783.55 1537.36 1781.87 1536.13 1780.5 1535.12 1780.38 1535.1 1779.8 1535.74 1779.08 1536.54 1778.94 1536.29 1778.97 1534.25 1778.99 1533.17 1778.94 1531.85 1778.85 1531.31 1778.52 1529.31 1780.83 1526.6 1784.64 1524.53 1786.12 1523.72 1787.49 1522.83 1787.68 1522.57 1787.87 1522.3 1788.26 1521.71 1788.55 1521.27 1788.84 1520.82 1789.39 1520.35 1789.79 1520.22 1790.18 1520.09 1790.8 1519.74 1791.17 1519.43 1791.87 1518.85 1792.97 1518.77 1794.07 1519.07ZM1826.89 1516.97C1827.33 1516.97 1829.86 1517.61 1831.31 1518.1 1833.12 1518.7 1833.15 1518.7 1834.69 1518.31 1836.69 1517.81 1836.53 1517.78 1837.73 1518.79 1838.29 1519.26 1839.16 1519.9 1839.65 1520.21 1840.73 1520.9 1840.81 1521.57 1839.87 1522.06 1839.5 1522.25 1838.72 1522.8 1838.15 1523.28 1837.2 1524.07 1837.01 1524.14 1836.03 1524.02 1833.29 1523.7 1831.88 1523.34 1831.21 1522.78 1830.83 1522.46 1830.42 1522.2 1830.29 1522.2 1829.95 1522.2 1827.7 1520.04 1827.7 1519.71 1827.7 1519.55 1827.48 1519.22 1827.21 1518.97 1826.43 1518.27 1826.2 1517.71 1826.53 1517.31 1826.68 1517.13 1826.85 1516.97 1826.89 1516.97ZM1799.65 1516.01C1799.65 1516.13 1799.48 1516.4 1799.26 1516.62 1798.79 1517.08 1798.32 1516.6 1798.74 1516.09 1799.04 1515.74 1799.65 1515.68 1799.65 1516.01ZM1778.45 1512.43C1779.06 1512.4 1779.65 1512.52 1779.77 1512.82 1779.86 1513.06 1779.76 1513.17 1779.44 1513.17 1779.19 1513.17 1778.61 1513.35 1778.14 1513.57 1777.12 1514.06 1776.62 1513.77 1777.05 1512.96 1777.22 1512.65 1777.84 1512.46 1778.45 1512.43ZM1803.04 1512.39C1804.03 1512.2 1804.85 1512.22 1804.99 1512.44 1805.16 1512.72 1804.21 1513.41 1803.65 1513.41 1803.43 1513.41 1802.75 1513.84 1802.15 1514.36 1800.96 1515.39 1800.13 1515.6 1800.13 1514.86 1800.13 1514.59 1800.41 1514.3 1800.85 1514.12 1801.24 1513.96 1801.78 1513.52 1802.04 1513.16 1802.3 1512.79 1802.75 1512.45 1803.04 1512.39ZM1808.79 1510.77C1809.44 1511.03 1809.01 1511.21 1807.34 1511.4 1805.87 1511.57 1805.12 1511.24 1805.86 1510.77 1806.26 1510.52 1808.15 1510.52 1808.79 1510.77ZM2741.23 1303.58C2729.83 1303.58 2719.96 1306.66 2711.64 1312.82 2703.31 1318.98 2698.07 1326.37 2695.92 1335 2694.99 1338.69 2691.6 1353.17 2685.74 1378.43 2682.97 1393.21 2679.58 1407.84 2675.57 1422.32 2675.57 1433.71 2679.42 1442.57 2687.13 1448.88 2694.84 1455.2 2703.01 1458.35 2711.64 1458.35 2719.04 1458.35 2726.97 1455.74 2735.45 1450.5 2743.93 1445.26 2749.4 1439.87 2751.87 1434.33 2754.33 1422.01 2757.88 1407.99 2762.5 1392.29 2768.67 1371.65 2772.68 1355.02 2774.53 1342.39 2767.74 1333.76 2763.12 1323.29 2760.65 1310.97 2760.65 1309.74 2760.42 1308.74 2759.96 1307.97 2759.5 1307.2 2758.5 1306.66 2756.95 1306.35 2752.33 1304.5 2747.09 1303.58 2741.23 1303.58ZM2107.94 1281.4C2109.79 1281.4 2112.95 1282.33 2117.42 1284.17 2121.89 1286.02 2124.74 1287.56 2125.98 1288.79L2121.81 1303.58C2120.89 1307.28 2118.81 1314.9 2115.57 1326.45 2112.34 1338 2109.33 1349.93 2106.55 1362.25 2116.11 1345.62 2126.05 1331.84 2136.38 1320.9 2146.71 1309.97 2156.19 1301.96 2164.82 1296.88 2173.45 1291.8 2180.08 1289.26 2184.7 1289.26 2188.09 1289.26 2192.41 1291.1 2197.65 1294.8 2202.89 1298.5 2205.51 1301.58 2205.51 1304.04 2202.74 1320.98 2198.73 1340.08 2193.49 1361.33 2206.13 1344.08 2221.23 1326.91 2238.81 1309.82 2256.38 1292.72 2269.79 1284.17 2279.04 1284.17 2283.35 1284.17 2287.98 1285.87 2292.91 1289.26 2297.84 1292.64 2300.46 1296.65 2300.77 1301.27 2290.91 1331.76 2283.27 1356.86 2277.88 1376.58 2272.49 1396.29 2269.79 1414 2269.79 1429.71 2269.79 1438.95 2271.33 1445.65 2274.41 1449.81 2277.49 1453.96 2283.04 1456.04 2291.06 1456.04 2309.86 1456.04 2328.05 1445.8 2345.62 1425.32 2354.41 1415.08 2362.16 1403.93 2368.86 1391.88L2382.31 1361.12 2387.84 1336.84C2393.39 1311.9 2396.78 1296.96 2398.02 1292.03 2402.02 1285.25 2407.57 1281.86 2414.66 1281.86 2419.29 1281.86 2421.6 1283.4 2421.6 1286.48 2419.44 1294.18 2416.44 1306.43 2412.58 1323.21 2408.73 1340 2405.72 1353.17 2403.57 1362.72 2395.24 1400.91 2389.54 1425.4 2386.46 1436.18 2386.46 1443.26 2388.54 1448.73 2392.7 1452.58 2396.86 1456.43 2402.33 1458.35 2409.12 1458.35 2424.53 1458.35 2440.02 1452.89 2455.59 1441.95 2471.16 1431.02 2484.87 1418.31 2496.74 1403.84L2511.24 1383.43 2522.32 1335.46C2526.02 1318.83 2528.95 1305.89 2531.11 1296.65 2532.34 1291.72 2534.04 1288.33 2536.2 1286.48 2538.35 1284.64 2541.74 1283.71 2546.37 1283.71 2550.38 1283.71 2554.38 1284.48 2558.39 1286.02L2523.25 1433.87C2523.25 1438.49 2525.17 1442.8 2529.03 1446.8 2532.88 1450.81 2537.12 1452.81 2541.74 1452.81 2548.53 1452.81 2559.01 1448.34 2573.19 1439.41 2587.37 1430.48 2596.93 1422.78 2601.86 1416.31 2608.64 1399.68 2614.19 1383.05 2618.51 1366.41 2622.82 1349.78 2627.75 1328.68 2633.3 1303.12L2637.93 1281.86C2641.93 1281.86 2646.48 1283.48 2651.57 1286.72 2656.66 1289.95 2659.81 1293.57 2661.05 1297.57 2657.35 1309.89 2653.8 1322.83 2650.41 1336.38 2648.87 1341.62 2645.63 1353.09 2640.7 1370.8 2635.77 1388.51 2629.3 1410.15 2621.28 1435.72 2603.4 1492.08 2585.75 1539.13 2568.33 1576.86 2550.92 1614.59 2527.1 1646.55 2496.89 1672.73 2466.68 1698.91 2429.07 1712 2384.06 1712 2361.56 1712 2342.75 1708.61 2327.65 1701.84 2312.54 1695.06 2301.37 1686.28 2294.12 1675.5 2286.88 1664.72 2283.25 1652.86 2283.25 1639.93 2283.25 1635.61 2283.72 1632.3 2284.64 1629.99 2285.57 1627.68 2286.34 1625.6 2286.95 1623.76 2296.51 1643.16 2309.23 1657.87 2325.1 1667.88 2340.98 1677.89 2362.02 1682.89 2388.22 1682.89 2423.37 1682.89 2453.73 1673.88 2479.32 1655.87 2504.91 1637.85 2526.95 1611.51 2545.44 1576.86 2563.94 1542.21 2580.59 1498.09 2595.38 1444.49 2586.14 1452.81 2575.58 1459.97 2563.71 1465.98 2551.84 1471.98 2542.05 1474.99 2534.35 1474.99 2528.49 1474.99 2522.86 1473.14 2517.47 1469.44 2512.07 1465.75 2507.6 1461.05 2504.06 1455.35 2500.51 1449.65 2498.74 1444.34 2498.74 1439.41L2503.7 1417.2 2496.86 1426.36C2487.53 1436.91 2477.71 1446.19 2467.38 1454.2 2446.73 1470.21 2426.07 1478.22 2405.42 1478.22 2394.63 1478.22 2384.99 1474.6 2376.51 1467.36 2368.04 1460.12 2363.8 1449.42 2363.8 1435.25L2367.24 1423.12 2336.84 1455.58C2319.57 1469.13 2302.62 1475.91 2285.97 1475.91 2274.26 1475.91 2264.62 1472.14 2257.07 1464.59 2249.52 1457.04 2245.74 1445.57 2245.74 1430.17 2245.74 1417.54 2247.82 1403.3 2251.99 1387.43 2256.15 1371.57 2261.77 1352.71 2268.86 1330.84 2271.02 1324.99 2273.02 1318.83 2274.87 1312.36 2274.87 1311.43 2274.26 1310.59 2273.02 1309.82 2271.79 1309.05 2270.56 1308.66 2269.33 1308.66 2265.32 1308.66 2257.38 1314.44 2245.51 1325.99 2233.64 1337.54 2221.62 1350.78 2209.44 1365.72 2197.27 1380.66 2189.17 1391.98 2185.17 1399.68 2182.08 1409.23 2177 1429.25 2169.91 1459.74 2168.67 1464.98 2167.67 1468.52 2166.9 1470.37 2166.13 1472.21 2164.82 1473.14 2162.97 1473.14 2160.2 1473.14 2157.04 1471.44 2153.49 1468.06 2149.95 1464.67 2148.17 1461.28 2148.17 1457.89 2148.17 1454.5 2149.71 1447.11 2152.8 1435.72 2165.74 1388.28 2176.23 1347.16 2184.24 1312.36 2182.39 1309.89 2180.08 1308.66 2177.3 1308.66 2172.68 1308.66 2164.82 1314.36 2153.72 1325.76 2142.62 1337.15 2131.06 1351.55 2119.04 1368.95 2107.02 1386.36 2097.15 1403.53 2089.45 1420.47 2084.82 1435.56 2080.66 1452.96 2076.96 1472.68 2073.88 1472.68 2069.87 1471.6 2064.94 1469.44 2060.01 1467.29 2057.54 1465.13 2057.54 1462.97 2057.54 1460.51 2059.08 1453.58 2062.16 1442.18L2064.46 1433.23 2041.14 1457.89C2023.88 1471.44 2006.62 1478.22 1989.35 1478.22 1977.64 1478.22 1968.47 1474.76 1961.84 1467.83 1955.21 1460.9 1951.9 1451.58 1951.9 1439.87 1951.9 1435.87 1952.21 1432.64 1952.82 1430.17 1946.04 1441.26 1937.18 1451.65 1926.23 1461.36 1915.29 1471.06 1904.58 1475.91 1894.09 1475.91 1885.16 1475.91 1876.37 1472.37 1867.74 1465.28 1859.11 1458.2 1853.86 1450.96 1852.02 1443.57 1851.71 1429.71 1853.63 1413.85 1857.8 1395.98 1861.96 1378.12 1871.44 1343.47 1886.23 1292.03 1888.08 1286.18 1890.24 1283.25 1892.71 1283.25 1895.17 1283.25 1898.41 1284.48 1902.42 1286.95 1906.43 1289.41 1908.43 1291.87 1908.43 1294.34 1908.43 1295.57 1908.04 1297.26 1907.27 1299.42 1906.5 1301.58 1905.96 1303.27 1905.66 1304.5 1885.93 1371.03 1875.6 1415.08 1874.67 1436.64 1876.21 1440.64 1879.53 1444.72 1884.62 1448.88 1889.7 1453.04 1894.09 1455.12 1897.79 1455.12 1901.8 1455.12 1907.35 1452.73 1914.44 1447.96 1921.53 1443.18 1929.08 1435.33 1937.1 1424.4 1945.12 1413.46 1952.51 1399.22 1959.3 1381.66 1967.31 1360.41 1976.25 1329.3 1986.12 1288.33 1986.73 1284.94 1988.43 1283.25 1991.2 1283.25 1993.67 1283.25 1996.98 1284.56 2001.14 1287.18 2005.31 1289.8 2007.39 1292.8 2007.39 1296.19 2007.39 1298.96 2006 1304.5 2003.23 1312.82 2000.45 1321.14 1998.76 1326.37 1998.14 1328.53 1990.74 1350.09 1984.81 1369.11 1980.34 1385.59 1975.87 1402.07 1973.63 1416.77 1973.63 1429.71 1973.63 1449.73 1980.57 1459.74 1994.44 1459.74 2003.38 1459.74 2013.71 1455.97 2025.42 1448.42 2037.14 1440.87 2049.08 1430.02 2061.26 1415.85L2072.81 1400.77 2101.47 1289.26C2102.09 1286.48 2102.86 1284.48 2103.78 1283.25 2104.71 1282.02 2106.09 1281.4 2107.94 1281.4ZM2773.14 1267.54C2776.22 1267.54 2779.77 1268 2783.77 1268.93 2782.23 1277.55 2781.46 1284.94 2781.46 1291.1 2781.46 1308.97 2786.86 1324.06 2797.65 1336.38 2808.44 1348.7 2823.08 1354.86 2841.58 1354.86 2855.45 1354.86 2867.39 1351.17 2877.41 1343.77L2885.05 1336.11 2888.65 1320.01C2892 1305.05 2894.14 1295.72 2895.06 1292.03 2899.07 1285.25 2904.62 1281.86 2911.71 1281.86 2916.33 1281.86 2918.64 1283.4 2918.64 1286.48 2916.49 1294.18 2913.48 1306.43 2909.63 1323.21 2905.77 1340 2902.77 1353.17 2900.61 1362.72 2892.29 1400.91 2886.58 1425.4 2883.5 1436.18 2883.5 1443.26 2885.58 1448.73 2889.74 1452.58 2893.91 1456.43 2899.38 1458.35 2906.16 1458.35 2921.57 1458.35 2937.06 1452.89 2952.63 1441.95 2968.2 1431.02 2981.92 1418.31 2993.79 1403.84 3005.66 1389.36 3014.52 1376.89 3020.38 1366.41 3022.23 1367.03 3023.46 1368.03 3024.08 1369.42 3024.69 1370.8 3025 1373.19 3025 1376.58 3025 1381.2 3023.46 1385.97 3020.38 1390.9 3003.73 1417.08 2985.08 1438.18 2964.42 1454.2 2943.77 1470.21 2923.11 1478.22 2902.46 1478.22 2891.67 1478.22 2882.04 1474.6 2873.56 1467.36 2865.08 1460.12 2860.84 1449.42 2860.84 1435.25 2864.31 1424.17 2869.69 1402.94 2876.97 1371.58L2880.03 1358.14 2871.4 1365.03C2860.77 1370.26 2849.13 1372.88 2836.49 1372.88 2819.53 1372.88 2804.58 1368.26 2791.64 1359.02 2789.79 1367.95 2787.47 1377.04 2784.7 1386.28 2783.77 1389.67 2781.77 1397.44 2778.69 1409.61 2775.6 1421.78 2773.45 1432.64 2772.21 1442.18 2770.06 1447.11 2765.74 1452.42 2759.27 1458.12 2752.79 1463.82 2745.09 1468.67 2736.15 1472.68 2727.21 1476.68 2718.42 1478.68 2709.79 1478.68 2700.23 1478.68 2690.98 1476.22 2682.04 1471.29 2673.1 1466.36 2665.78 1459.74 2660.08 1451.42 2654.37 1443.11 2651.52 1433.87 2651.52 1423.7 2655.84 1410.77 2659.38 1398.6 2662.16 1387.2 2664.93 1375.81 2667.55 1364.26 2670.02 1352.55L2674.64 1329.45C2676.18 1322.37 2680.35 1315.36 2687.13 1308.43 2693.91 1301.5 2702.16 1295.8 2711.87 1291.34 2721.58 1286.87 2731.37 1284.64 2741.23 1284.64 2744.93 1284.64 2750.17 1285.25 2756.95 1286.48 2757.88 1279.4 2759.5 1274.47 2761.81 1271.7 2764.12 1268.93 2767.9 1267.54 2773.14 1267.54ZM2931.13 1183.92C2936.06 1183.92 2939.68 1185.46 2942 1188.54 2944.31 1191.62 2945.46 1195.31 2945.46 1199.63 2945.46 1205.79 2943.38 1211.41 2939.22 1216.49 2935.06 1221.57 2929.9 1224.11 2923.73 1224.11 2919.42 1224.11 2916.02 1222.65 2913.56 1219.72 2911.09 1216.8 2909.86 1213.02 2909.86 1208.4 2909.86 1202.24 2911.86 1196.62 2915.87 1191.54 2919.88 1186.46 2924.96 1183.92 2931.13 1183.92ZM2434.09 1183.92C2439.02 1183.92 2442.64 1185.46 2444.95 1188.54 2447.26 1191.62 2448.42 1195.31 2448.42 1199.63 2448.42 1205.79 2446.34 1211.41 2442.18 1216.49 2438.02 1221.57 2432.85 1224.11 2426.69 1224.11 2422.37 1224.11 2418.98 1222.65 2416.51 1219.72 2414.05 1216.8 2412.81 1213.02 2412.81 1208.4 2412.81 1202.24 2414.82 1196.62 2418.83 1191.54 2422.83 1186.46 2427.92 1183.92 2434.09 1183.92ZM1803.15 1167.75C1780.65 1167.75 1762.69 1172.83 1749.28 1182.99 1742.58 1188.08 1737.55 1193.93 1734.2 1200.55L1730.97 1214.78 1729.81 1224.55 1730.09 1228.29 1732.17 1240.8C1734.18 1246.54 1737.18 1251.99 1741.19 1257.15L1743.91 1260.2 1752.01 1261.98C1761.87 1261.98 1773.66 1257.97 1787.38 1249.96 1801.1 1241.96 1814.12 1230.79 1826.46 1216.47L1844.39 1185.78 1838.53 1177.22C1830.98 1170.9 1819.18 1167.75 1803.15 1167.75ZM2568.82 1099.35C2559.27 1099.35 2550.63 1101.89 2542.93 1106.97 2535.22 1112.05 2528.9 1118.21 2523.97 1125.45 2519.04 1132.69 2515.95 1139.08 2514.72 1144.62L2496.22 1226.86C2496.84 1234.56 2499.92 1241.49 2505.47 1247.65 2511.02 1253.81 2517.03 1256.89 2523.51 1256.89 2528.75 1256.89 2535.14 1255.05 2542.7 1251.35 2550.25 1247.65 2557.34 1242.34 2563.97 1235.41 2570.6 1228.48 2575.14 1220.55 2577.61 1211.62L2586.4 1173.73C2587.63 1167.57 2589.79 1157.64 2592.87 1143.93 2595.95 1130.22 2598.42 1119.68 2600.27 1112.28 2591.64 1103.66 2581.15 1099.35 2568.82 1099.35ZM1695.13 1099.35C1685.57 1099.35 1676.94 1101.89 1669.23 1106.97 1661.53 1112.05 1655.21 1118.21 1650.27 1125.45 1645.34 1132.69 1642.26 1139.08 1641.03 1144.62L1622.53 1226.86C1623.15 1234.56 1626.23 1241.49 1631.78 1247.65 1637.33 1253.81 1643.34 1256.89 1649.81 1256.89 1655.05 1256.89 1661.45 1255.05 1669 1251.35 1676.55 1247.65 1683.65 1242.34 1690.27 1235.41 1696.9 1228.48 1701.45 1220.55 1703.91 1211.62L1712.7 1173.73C1713.93 1167.57 1716.09 1157.64 1719.17 1143.93 1722.26 1130.22 1724.72 1119.68 1726.57 1112.28 1717.94 1103.66 1707.46 1099.35 1695.13 1099.35ZM1542.39 948.268C1560.27 948.268 1575.53 951.348 1588.17 957.508 1600.81 963.668 1608.98 970.906 1612.68 979.223 1612.68 988.464 1611.29 999.089 1608.52 1011.1 1605.75 1023.11 1604.05 1030.2 1603.43 1032.35 1599.43 1032.35 1595.57 1031.74 1591.87 1030.51L1593.26 1021.27C1593.88 1015.72 1594.19 1011.26 1594.19 1007.87 1594.19 993.7 1590.41 983.458 1582.86 977.144 1575.3 970.83 1563.51 967.673 1547.48 967.673 1524.98 967.673 1507.02 972.755 1493.61 982.919 1480.2 993.084 1473.49 1006.33 1473.49 1022.65 1473.49 1035.28 1477.5 1046.75 1485.52 1057.07 1493.53 1067.39 1505.86 1079.94 1522.51 1094.73L1532.22 1103.5C1551.95 1121.37 1565.44 1135.85 1572.68 1146.93 1579.93 1158.02 1583.55 1170.8 1583.55 1185.28 1583.55 1206.23 1577.15 1223.86 1564.36 1238.18 1551.57 1252.5 1535.54 1263.13 1516.27 1270.06 1497 1276.99 1477.66 1280.46 1458.24 1280.46 1440.36 1280.46 1422.78 1277.84 1405.52 1272.6 1388.26 1267.37 1378.08 1261.67 1375 1255.51 1376.54 1248.12 1377.93 1238.03 1379.16 1225.25 1380.4 1212.46 1381.01 1202.68 1381.01 1195.91 1383.48 1193.75 1387.02 1192.67 1391.65 1192.67 1391.65 1210.23 1393.57 1223.94 1397.43 1233.79 1401.28 1243.65 1407.68 1250.81 1416.62 1255.28 1425.56 1259.74 1438.2 1261.98 1454.54 1261.98 1483.51 1261.98 1507.64 1255.89 1526.9 1243.73 1546.17 1231.56 1555.8 1214.23 1555.8 1191.75 1555.8 1180.05 1552.41 1168.42 1545.63 1156.87 1538.85 1145.32 1526.83 1131.53 1509.56 1115.52L1497.08 1103.97C1481.05 1089.49 1469.26 1076.94 1461.7 1066.31 1454.15 1055.69 1450.37 1042.83 1450.37 1027.73 1450.37 1012.95 1454.15 999.475 1461.7 987.309 1469.26 975.142 1480.05 965.594 1494.07 958.663 1508.1 951.733 1524.21 948.268 1542.39 948.268ZM2103.94 763C2127.99 763 2148.33 770.315 2164.98 784.946 2181.63 799.576 2189.95 821.676 2189.95 851.245 2189.95 852.785 2189.33 854.171 2188.1 855.403 2178.85 833.843 2166.6 818.442 2151.34 809.202 2136.08 799.961 2117.81 795.341 2096.54 795.341 2075.58 795.341 2054.23 804.736 2032.5 823.524 2010.76 842.313 1989.57 869.187 1968.92 904.146 1948.26 939.105 1928.99 980.455 1911.11 1028.2 1902.17 1051.91 1894.31 1077.86 1887.53 1106.05 1882.44 1127.18 1876.4 1153.73 1869.41 1185.7L1864.65 1207.69 1864.19 1211.18C1862.81 1217.18 1861.69 1221.96 1860.84 1225.5L1860.29 1227.71 1857.94 1238.41C1880.13 1208.23 1907.72 1173.89 1940.71 1135.38 1973.69 1096.88 1992.65 1077.63 1997.59 1077.63 2007.76 1077.63 2015.93 1080.71 2022.09 1086.87 2000.82 1102.89 1974.77 1128.15 1943.95 1162.64 1949.19 1182.97 1954.35 1199.76 1959.44 1213 1964.52 1226.25 1971.23 1237.57 1979.55 1246.96 1987.87 1256.35 1998.2 1261.05 2010.53 1261.05 2018.55 1261.05 2028.95 1255.51 2041.75 1244.42 2054.54 1233.33 2066.49 1218.85 2077.58 1200.99L2090.31 1168.95 2093.63 1156.52C2098.37 1139.2 2104.44 1117.67 2111.84 1091.95 2113.69 1086.1 2115.85 1083.18 2118.31 1083.18 2120.78 1083.18 2124.02 1084.41 2128.02 1086.87 2132.03 1089.34 2134.04 1091.8 2134.04 1094.26 2134.04 1095.5 2133.65 1097.19 2132.88 1099.35 2132.11 1101.5 2131.57 1103.2 2131.26 1104.43 2111.53 1170.96 2101.2 1215 2100.28 1236.56 2101.82 1240.57 2105.13 1244.65 2110.22 1248.81 2115.31 1252.97 2119.7 1255.05 2123.4 1255.05 2127.41 1255.05 2132.96 1252.66 2140.05 1247.88 2147.14 1243.11 2154.69 1235.26 2162.71 1224.32 2170.72 1213.39 2178.12 1199.14 2184.9 1181.59 2192.92 1160.33 2201.86 1129.22 2211.72 1088.26 2212.34 1084.87 2214.03 1083.18 2216.81 1083.18 2219.27 1083.18 2222.59 1084.49 2226.75 1087.1 2230.91 1089.72 2232.99 1092.72 2232.99 1096.11 2232.99 1098.88 2231.61 1104.43 2228.83 1112.75 2226.06 1121.06 2224.36 1126.3 2223.74 1128.45 2216.35 1150.01 2210.41 1169.03 2205.94 1185.51 2201.47 1201.99 2199.24 1216.7 2199.24 1229.64 2199.24 1249.66 2206.17 1259.67 2220.04 1259.67 2228.99 1259.67 2239.31 1255.89 2251.03 1248.35 2262.74 1240.8 2274.69 1229.94 2286.86 1215.77 2292.95 1208.69 2298.79 1201.07 2304.38 1192.9L2308.69 1185.88 2317.71 1145.43C2323.8 1118.56 2328.23 1099.96 2331 1089.64 2331.62 1086.87 2332.31 1085.02 2333.08 1084.1 2333.86 1083.18 2335.17 1082.71 2337.02 1082.71 2338.25 1082.71 2340.87 1083.72 2344.88 1085.72 2348.88 1087.72 2352.12 1089.8 2354.59 1091.95L2346.26 1118.75 2343.49 1127.99C2350.58 1116.9 2358.75 1107.97 2368 1101.19 2377.25 1094.42 2387.11 1091.03 2397.59 1091.03 2400.67 1091.03 2403.76 1091.34 2406.84 1091.95 2409.92 1092.57 2412.08 1093.34 2413.31 1094.26 2413.31 1109.36 2417.24 1120.52 2425.11 1127.76 2432.97 1135 2443.99 1138.62 2458.17 1138.62 2470.81 1138.62 2481.29 1136.46 2489.61 1132.15L2499.5 1124.72 2507.55 1111.13C2515.11 1102.66 2524.28 1095.65 2535.07 1090.11 2545.86 1084.56 2556.8 1081.79 2567.9 1081.79 2582.08 1081.79 2594.56 1086.56 2605.35 1096.11 2608.13 1088.72 2610.21 1084.1 2611.6 1082.25 2612.98 1080.4 2615.06 1079.33 2617.84 1079.02L2640.5 1076.71 2641.88 1077.63C2635.72 1082.56 2631.25 1090.26 2628.47 1100.73 2618.92 1136.46 2612.37 1162.8 2608.82 1179.74 2605.28 1196.68 2603.5 1211.62 2603.5 1224.55 2603.5 1237.49 2605.2 1246.96 2608.59 1252.97 2611.98 1258.97 2617.69 1261.98 2625.7 1261.98 2635.56 1261.98 2647.36 1257.97 2661.08 1249.96 2674.79 1241.96 2687.82 1230.79 2700.15 1216.47 2712.48 1202.14 2721.88 1186.05 2728.36 1168.19 2732.36 1168.19 2734.37 1172.19 2734.37 1180.2 2734.37 1194.37 2728.13 1209.31 2715.64 1225.01 2703.16 1240.72 2688.05 1253.89 2670.32 1264.52 2652.6 1275.14 2636.34 1280.46 2621.54 1280.46 2609.52 1280.46 2600.27 1276.76 2593.79 1269.37 2587.32 1261.98 2583.47 1252.43 2582.23 1240.72 2574.53 1251.81 2564.82 1260.9 2553.1 1267.98 2541.39 1275.07 2530.91 1278.61 2521.66 1278.61 2513.64 1278.61 2505.7 1275.91 2497.84 1270.52 2489.98 1265.13 2483.58 1258.51 2478.65 1250.66 2473.72 1242.8 2471.1 1235.33 2470.79 1228.25L2490.61 1146.63 2483.37 1151.09C2473.66 1154.79 2463.87 1156.64 2454.01 1156.64 2438.59 1156.64 2425.41 1152.63 2414.47 1144.62 2403.53 1136.62 2396.51 1125.37 2393.43 1110.9 2379.56 1112.44 2366.84 1121.22 2355.28 1137.23 2343.72 1153.25 2335.63 1170.65 2331 1189.44 2330.39 1192.52 2328.07 1201.99 2324.07 1217.85 2320.06 1233.72 2316.21 1252.43 2312.51 1273.99 2312.2 1274.91 2311.81 1275.61 2311.35 1276.07 2310.89 1276.53 2309.89 1276.76 2308.35 1276.76 2306.19 1276.76 2302.95 1275.84 2298.63 1273.99 2294.32 1272.14 2292.16 1270.14 2292.16 1267.98 2292.16 1263.67 2292.93 1257.97 2294.47 1250.89L2300.82 1221.78 2266.75 1257.82C2249.49 1271.37 2232.22 1278.15 2214.96 1278.15 2203.24 1278.15 2194.07 1274.68 2187.44 1267.75 2180.82 1260.82 2177.5 1251.5 2177.5 1239.8 2177.5 1235.79 2177.81 1232.56 2178.43 1230.1 2171.65 1241.19 2162.78 1251.58 2151.84 1261.28 2140.89 1270.99 2130.18 1275.84 2119.7 1275.84 2110.76 1275.84 2101.97 1272.29 2093.34 1265.21 2084.71 1258.13 2079.47 1250.89 2077.62 1243.5L2079.74 1226.08 2073.48 1234.95C2066.58 1243.34 2059.09 1251.2 2050.99 1258.51 2034.81 1273.14 2019.32 1280.46 2004.52 1280.46 1985.72 1280.46 1970.69 1272.52 1959.44 1256.66 1948.18 1240.8 1937.01 1216.39 1925.91 1183.43 1898.17 1215.77 1875.35 1245.34 1857.47 1272.14 1853.47 1278.3 1850.69 1281.38 1849.15 1281.38 1846.68 1281.38 1843.37 1279.46 1839.21 1275.61 1835.05 1271.76 1832.81 1268.44 1832.5 1265.67 1832.27 1261.05 1833.95 1249.46 1837.53 1230.89L1837.85 1229.3 1821.25 1246.67C1813.7 1253.26 1805.49 1259.2 1796.63 1264.52 1787.77 1269.83 1779.27 1273.81 1771.14 1276.47L1760.65 1278.26 1778.18 1294.8 1787.89 1303.58C1807.62 1321.44 1821.11 1335.92 1828.36 1347.01 1835.6 1358.1 1839.22 1370.88 1839.22 1385.36 1839.22 1406.3 1832.83 1423.93 1820.03 1438.26 1807.24 1452.58 1791.21 1463.2 1771.94 1470.14 1752.67 1477.07 1733.33 1480.53 1713.91 1480.53 1696.03 1480.53 1678.46 1477.91 1661.19 1472.68 1643.93 1467.44 1633.76 1461.74 1630.67 1455.58 1632.21 1448.19 1633.6 1438.1 1634.83 1425.32 1636.07 1412.54 1636.68 1402.76 1636.68 1395.98 1639.15 1393.83 1642.7 1392.75 1647.32 1392.75 1647.32 1410.3 1649.25 1424.01 1653.1 1433.87 1656.95 1443.72 1663.35 1450.88 1672.29 1455.35 1681.23 1459.82 1693.87 1462.05 1710.21 1462.05 1739.19 1462.05 1763.31 1455.97 1782.58 1443.8 1801.84 1431.63 1811.48 1414.31 1811.48 1391.82 1811.48 1380.12 1808.09 1368.49 1801.3 1356.94 1794.52 1345.39 1782.5 1331.61 1765.24 1315.59L1752.75 1304.04C1736.72 1289.56 1724.93 1277.01 1717.38 1266.39L1713.94 1259.27 1712.35 1256.66 1712.03 1255.3 1708.88 1248.77 1707.88 1241.34 1679.41 1267.98C1667.69 1275.07 1657.21 1278.61 1647.96 1278.61 1639.95 1278.61 1632.01 1275.91 1624.15 1270.52 1616.29 1265.13 1609.89 1258.51 1604.96 1250.66 1600.03 1242.8 1597.4 1235.33 1597.1 1228.25L1619.76 1134.92C1621.6 1127.53 1626.31 1119.6 1633.86 1111.13 1641.41 1102.66 1650.58 1095.65 1661.37 1090.11 1672.16 1084.56 1683.11 1081.79 1694.2 1081.79 1708.38 1081.79 1720.87 1086.56 1731.66 1096.11 1734.43 1088.72 1736.52 1084.1 1737.9 1082.25 1739.29 1080.4 1741.37 1079.33 1744.14 1079.02L1766.8 1076.71 1768.19 1077.63C1762.02 1082.56 1757.55 1090.26 1754.78 1100.73 1747.61 1127.53 1742.14 1149.04 1738.35 1165.27L1738.08 1166.48 1749.75 1158.74C1763.77 1151.81 1779.88 1148.34 1798.07 1148.34 1815.95 1148.34 1831.21 1151.42 1843.85 1157.58L1852.26 1163 1852.56 1161.66C1856.53 1144.91 1860.86 1127.53 1865.57 1109.51 1874.97 1073.47 1883.52 1044.52 1891.23 1022.65 1920.82 939.49 1953.12 875.424 1988.11 830.454 2023.1 785.485 2061.71 763 2103.94 763Z" fill="#FFFFFF" fill-rule="evenodd"/></g></svg>