<svg width="1650" height="1035"
  xmlns="http://www.w3.org/2000/svg"
  xmlns:xlink="http://www.w3.org/1999/xlink" xml:space="preserve" overflow="hidden">
  <defs>
    <clipPath id="clip0">
      <rect x="1375" y="720" width="1650" height="1035"/>
    </clipPath>
  </defs>
  <g clip-path="url(#clip0)" transform="translate(-1375 -720)">
    <path d="M2749.66 1551.13C2752.54 1550.55 2755.55 1550.59 2757.53 1551.49 2760.15 1552.68 2762.06 1554.11 2763.35 1555.74 2767.2 1560.61 2765.45 1567.22 2760.59 1574.18 2751.91 1578.63 2744.26 1577.59 2740.66 1569.67 2738.78 1565.51 2739.67 1557.63 2742.59 1554.47 2744.04 1552.9 2746.79 1551.71 2749.66 1551.13ZM2803.51 1538.97C2807.93 1539.75 2811.99 1542.34 2815.51 1546.35 2817.4 1548.5 2818.71 1550.74 2819.51 1553 2821.89 1559.78 2819.56 1566.82 2813.85 1572.66 2804.99 1581.71 2795.07 1580.74 2784.97 1571.89 2777.39 1557.35 2778.87 1549.18 2789.34 1542.42 2794.31 1539.21 2799.09 1538.18 2803.51 1538.97ZM2254.7 1535.38C2258.01 1535.87 2261.24 1537.07 2263.18 1538.75 2266.12 1541.3 2266.2 1550.65 2263.87 1555.02 2259.48 1563.29 2251.62 1561.92 2243.79 1556.43 2237.56 1548.22 2238.09 1540.15 2245.74 1536.25 2248 1535.11 2251.39 1534.89 2254.7 1535.38ZM1985.54 1531.69C1991.16 1532.64 1996.17 1537.18 2001.53 1541.24 2001.15 1552.85 1996.38 1559.54 1985.04 1557.33 1976.19 1555.61 1972.39 1548.73 1975.59 1540.37 1977.06 1536.55 1982.67 1531.21 1985.54 1531.69ZM2923.91 1529.35C2927.15 1528.67 2930.57 1528.68 2932.99 1529.55 2933.86 1529.86 2934.7 1530.65 2935.47 1531.74 2936.23 1532.82 2936.92 1534.2 2937.48 1535.69 2938.6 1538.66 2939.18 1542.08 2938.78 1544.48 2937.32 1553.35 2930.06 1555.92 2920.5 1552.78 2911.71 1547.23 2910.28 1539.28 2915.89 1533.22 2917.59 1531.38 2920.66 1530.02 2923.91 1529.35ZM2121.6 1505.34C2126.76 1505.88 2132.26 1507.48 2137.96 1510.18 2141.91 1513.91 2145.07 1517.66 2147.46 1521.4 2154.64 1532.63 2154.88 1543.83 2148.43 1554.62 2140.07 1568.62 2124.17 1574.94 2109.42 1570.12 2091.89 1564.4 2081.42 1543.72 2087.68 1527.22 2093.63 1511.54 2106.1 1503.72 2121.6 1505.34ZM2870.37 1502.57C2876.6 1503.51 2883.2 1507.97 2888.36 1515.6 2891.15 1527.97 2888.15 1537.12 2876.66 1541.37 2867.32 1544.83 2857.35 1542.61 2853.59 1533.8 2850.79 1527.25 2851.08 1516.79 2854.56 1510.69 2858.26 1504.23 2864.13 1501.64 2870.37 1502.57ZM2325.5 1498.16C2330.15 1498.41 2334.93 1499.61 2339.63 1501.84 2346.17 1504.93 2351.33 1510.49 2354.47 1517.12 2357.61 1523.75 2358.73 1531.46 2357.16 1538.88 2353.66 1555.48 2340.84 1564.46 2319.2 1564.61 2295.38 1556.83 2285.32 1538.75 2293.14 1519.46 2298.91 1505.24 2311.58 1497.42 2325.5 1498.16ZM2762.82 1495.15C2769.17 1495.36 2777.02 1501.23 2781.11 1506.89 2787.71 1516.02 2782.29 1524.44 2774 1531.72 2763.48 1535.83 2753.8 1535.28 2748.33 1526.22 2745.15 1520.96 2743.61 1511.84 2746.1 1506.81 2748.85 1501.22 2757.15 1494.96 2762.82 1495.15ZM2983.42 1491.84C2985.75 1492.83 2987.62 1494.79 2988.97 1497.55 2989.88 1499.38 2990.55 1501.57 2990.97 1504.05 2989.7 1513.68 2985.02 1520.39 2976.27 1517.95 2971.32 1516.58 2965.43 1509.69 2964.78 1504.67 2964.28 1500.79 2970.48 1493.73 2975.14 1492.02 2978.31 1490.85 2981.09 1490.86 2983.42 1491.84ZM2050.52 1485.28C2053.73 1485.47 2057.13 1486.34 2059.29 1487.66 2061.28 1488.88 2062.66 1490.28 2063.53 1491.81 2066.12 1496.4 2064.05 1502.2 2059.83 1507.94 2050.93 1513.61 2042.53 1512.28 2038.87 1504.18 2036.83 1499.66 2039.18 1490.53 2042.89 1486.92 2044.29 1485.56 2047.31 1485.08 2050.52 1485.28ZM2280.21 1475.11C2285.87 1477.82 2289.87 1481.48 2291.87 1485.66 2293.86 1489.85 2293.85 1494.57 2291.48 1499.39 2288.42 1505.63 2279.38 1512.57 2273.05 1512.54 2266.74 1512.52 2257.9 1505.5 2254.71 1499.24 2247.72 1485.51 2260.58 1473.36 2280.21 1475.11ZM1995.95 1472.05C1995.77 1472.49 1995.58 1472.94 1994.92 1473.06 1994.45 1472.73 1994.45 1472.92 1994.45 1473.01 1994.95 1472.75 1995.45 1472.4 1995.95 1472.05ZM2347.44 1464.43C2350.52 1464.53 2353.59 1465.27 2355.58 1466.6 2358.82 1468.76 2360.77 1477.11 2359.28 1481.27 2355.65 1491.4 2347.33 1491.51 2337.8 1486.28 2331.48 1478.41 2332.13 1470.59 2339.26 1466.15 2341.27 1464.89 2344.36 1464.34 2347.44 1464.43ZM2020.76 1455.92C2023.05 1456.75 2025.5 1459 2027.38 1461.68 2029.26 1464.36 2030.59 1467.47 2030.65 1469.98 2030.87 1478.8 2023.96 1482.69 2013.94 1481.01 2004.24 1477.2 2001.18 1470.17 2006 1462.81 2008.68 1458.72 2016.98 1454.56 2020.76 1455.92ZM2081.92 1452.84C2085.58 1453.55 2089.43 1455.01 2093.33 1457.3 2101.51 1468.54 2100.42 1479.36 2090.62 1486.17 2085.32 1489.86 2075.28 1490.09 2068.76 1487.85 2059.36 1484.64 2056.88 1475.26 2059.31 1465.63 2061.87 1455.51 2070.97 1450.73 2081.92 1452.84ZM2918.85 1443.7C2927.75 1443.63 2936.65 1447.22 2943.56 1454.49 2947.08 1458.19 2949.62 1462.22 2951.19 1466.41 2955.89 1478.98 2951.81 1492.99 2939.05 1503.89 2919.65 1513.84 2903.99 1511.77 2894.15 1498.8 2883.37 1484.57 2883.36 1466.38 2894.14 1454.87 2901.05 1447.49 2909.95 1443.76 2918.85 1443.7ZM2858.6 1414.69C2864.56 1414.03 2872.41 1417.28 2877.1 1421.4 2878.8 1422.9 2880.19 1424.63 2881.22 1426.5 2884.3 1432.09 2884.08 1438.88 2879.22 1444.15 2874.72 1449.03 2866.8 1453.27 2860.41 1453.27 2851.2 1453.25 2844.06 1447.07 2842.99 1435.49 2842.69 1423.53 2848.38 1415.83 2858.6 1414.69ZM2979.53 1414.52C2986.89 1414.66 2993.64 1417.57 2996.52 1423.29 2997.48 1425.2 2998.01 1427.42 2998 1429.95 2997.96 1437.27 2994.26 1447.76 2988.77 1450.97 2983.27 1454.17 2972.67 1451.81 2965.96 1448.51 2962.03 1446.58 2961.35 1438.06 2959.4 1431.46 2962.04 1419.84 2969.05 1414.33 2979.53 1414.52ZM2925.76 1395.86C2928.16 1398.85 2929.88 1401.77 2930.95 1404.49 2934.17 1412.64 2931.51 1418.99 2923.5 1420.12 2918.69 1420.8 2911.7 1418.57 2908.62 1415.09 2906.09 1412.22 2905.81 1403.28 2908.22 1401.07 2912.17 1397.46 2919.12 1397.14 2925.76 1395.86ZM2886.26 1366.23C2888.63 1368.11 2890.37 1370.08 2891.53 1372.06 2895.01 1377.98 2893.27 1384 2887.49 1388.14 2883.46 1391.04 2872.44 1390.17 2869.33 1386.71 2866.25 1383.3 2867.47 1373.63 2870.14 1368.4 2871.54 1365.65 2880.06 1366.52 2886.26 1366.23ZM2565.78 1360.5C2570.32 1361.47 2573.95 1363.26 2576.11 1365.79 2578.27 1368.33 2578.96 1371.62 2577.62 1375.61 2576.05 1380.3 2569.84 1386.27 2565.52 1386.44 2561.01 1386.61 2553.75 1381.41 2552.14 1376.95 2548.53 1366.98 2554.24 1361.16 2565.78 1360.5ZM2609.48 1345.24C2613.77 1344.82 2618.26 1346.04 2622.77 1348.48 2625 1349.69 2626.88 1351.39 2628.35 1353.4 2632.77 1359.44 2633.55 1368.31 2629.35 1375.25 2622.76 1386.17 2613.03 1387.78 2601.04 1381.76 2590.64 1370.91 2589.55 1360.56 2597.39 1351.85 2601.1 1347.73 2605.19 1345.67 2609.48 1345.24ZM2583.51 1310.89C2587.45 1310.68 2593.79 1312.31 2595.15 1314.59 2597.83 1319.09 2598.6 1328.12 2595.76 1331.83 2589.96 1339.4 2581.46 1339.86 2574.17 1330.17 2575.8 1323.23 2576.61 1315.94 2580.64 1311.76 2581.15 1311.23 2582.2 1310.96 2583.51 1310.89ZM2407.31 1272.92C2410.73 1272.55 2416.37 1273.81 2418.75 1275.86 2421.87 1278.55 2423.6 1285.33 2422.72 1289.67 2420.6 1300.21 2409.73 1301.57 2398.1 1292.51 2399.82 1285.54 2400.87 1278.44 2404.83 1273.86 2405.27 1273.34 2406.17 1273.04 2407.31 1272.92ZM2018.39 1260.22C2022.38 1260.25 2025.98 1262.1 2028.8 1266.07 2031.96 1270.49 2033.11 1279.91 2030.44 1283.97 2027.41 1288.57 2018.93 1292.18 2013.11 1291.79 2001.77 1291.05 1998.34 1278.58 2005.65 1265.27 2010.02 1261.97 2014.4 1260.18 2018.39 1260.22ZM1952.07 1257.41C1963.97 1256.41 1972.82 1260.59 1979.46 1269.82 1988.93 1282.99 1988.9 1297.75 1979.37 1310.72 1970.93 1322.22 1956.2 1327.12 1942.51 1321.99 1930.1 1317.34 1921.37 1308.99 1920.05 1294.84 1918.61 1279.49 1924.31 1267.94 1939.11 1260.14 1943.79 1258.65 1948.1 1257.75 1952.07 1257.41ZM2452.96 1251.62C2460.45 1251.87 2467.73 1256.47 2470.91 1263.95 2474.87 1273.26 2472.76 1281.83 2464.72 1287.59 2454.46 1294.95 2444.64 1292.6 2435.66 1282.68 2431.07 1267.28 2434.75 1257.1 2445.55 1252.87 2447.95 1251.93 2450.47 1251.53 2452.96 1251.62ZM2653.82 1242.47C2670.44 1242.35 2682.55 1248.42 2688.52 1263.34 2693.93 1276.86 2691.84 1289.3 2680.81 1299.72 2670.57 1309.39 2657.15 1311.97 2644.1 1306.4 2632.93 1301.63 2624.06 1287.9 2624.35 1275.82 2624.7 1260.64 2632.35 1249.82 2646.5 1244.58 2648.58 1243.81 2650.71 1243.21 2653.82 1242.47ZM2237.85 1233.8C2244.99 1234.25 2250.3 1239.14 2254.29 1247.46 2255.76 1263.71 2249.66 1272.65 2237.71 1273.4 2226.28 1274.12 2216.35 1265.88 2215.77 1254.88 2215.22 1244.53 2220.62 1237.85 2230.08 1234.88 2232.89 1234 2235.47 1233.65 2237.85 1233.8ZM2021.05 1203.73C2027.31 1205.52 2033.32 1210.94 2037.25 1219.55 2038.76 1232.19 2032.83 1239.5 2022.35 1242.58 2013.19 1245.27 2005.92 1241.32 2000.95 1233.05 1995.82 1224.53 1997.39 1216.72 2003.37 1209.62 2008.29 1203.76 2014.79 1201.94 2021.05 1203.73ZM2296.15 1200.84C2300.96 1200.25 2306.72 1201.65 2313.45 1205.12 2315.74 1207.94 2317.49 1210.66 2318.69 1213.27 2322.31 1221.12 2321.07 1228.07 2315.27 1234.14 2308.44 1241.3 2296.07 1242.21 2288.64 1236.09 2280.53 1229.42 2278.74 1217.32 2284.55 1208.46 2287.47 1204 2291.33 1201.42 2296.15 1200.84ZM2253.55 1173.63C2257.88 1174.18 2262.12 1176.38 2266 1179.94 2268.28 1182.02 2269.88 1184.36 2270.81 1186.85 2273.6 1194.33 2270.33 1203.21 2261.03 1210.91 2248.15 1216.63 2239.5 1212.82 2233.74 1201.62 2228.52 1191.46 2232.65 1182.95 2240.6 1177.21 2244.81 1174.17 2249.22 1173.08 2253.55 1173.63ZM2704.03 1172.71C2709.86 1174.58 2714.58 1177.48 2717.4 1181.22 2720.22 1184.96 2721.15 1189.54 2719.41 1194.77 2717.12 1201.66 2709.15 1208.84 2702.08 1211.45 2692.89 1214.85 2685.09 1208.53 2681.35 1199.29 2675.92 1185.93 2685.26 1174.54 2704.03 1172.71ZM2757.23 1169.16C2760.68 1169.42 2763.67 1171.52 2765.74 1175.25 2768.28 1179.81 2767.96 1188.79 2764.94 1192.71 2762.57 1195.78 2753.04 1196.31 2748.55 1194.13 2740.33 1190.15 2740.49 1182.3 2746.01 1174.05 2749.9 1170.45 2753.79 1168.89 2757.23 1169.16ZM2395.42 1158.8C2399.32 1159.66 2403.11 1161.29 2405.76 1163.38 2407.81 1164.99 2409.31 1166.82 2410.31 1168.8 2413.3 1174.75 2411.75 1182.12 2406.66 1189.36 2397.9 1191.45 2388.92 1195.38 2381.95 1193.11 2377.07 1191.53 2371.99 1181.27 2372.41 1175.26 2372.83 1169.26 2378.98 1160.61 2384.46 1158.84 2387.53 1157.84 2391.53 1157.93 2395.42 1158.8ZM2663.06 1144.02C2666.85 1144.54 2672.58 1147.18 2673.02 1149.17 2674.33 1155.06 2674.19 1164.47 2670.52 1167.59 2663.05 1173.93 2654.89 1170.57 2649.69 1160.61 2652.82 1154.34 2655.37 1147.73 2660.19 1144.31 2660.75 1143.91 2661.8 1143.85 2663.06 1144.02ZM2448.54 1141.72C2452.25 1141.99 2456.22 1144.4 2460.09 1148.44 2459.06 1155.52 2459.07 1163.27 2455.21 1167.31 2453 1169.62 2442.36 1167.74 2439.39 1164.35 2436.43 1160.98 2436.04 1151.95 2438.55 1147.89 2441.37 1143.33 2444.82 1141.45 2448.54 1141.72ZM2421.37 1121.65C2425.75 1122.44 2428.59 1124.64 2429.93 1127.84 2431.27 1131.04 2431.11 1135.23 2429.49 1140 2423.9 1148.85 2415.91 1150.08 2409.94 1144.48 2406.31 1141.08 2404.75 1132.2 2406.55 1127.37 2407.83 1123.93 2416.65 1120.81 2421.37 1121.65ZM2385.87 1117.61C2387.8 1118.06 2389.48 1119.15 2390.84 1120.81 2393.56 1124.13 2395.01 1129.71 2394.65 1136.92 2388.04 1139.58 2381.7 1142.89 2375.79 1142.24 2372.91 1141.93 2368.32 1133.73 2369.05 1130.01 2369.95 1125.48 2374.92 1120.05 2379.41 1118.29 2381.77 1117.36 2383.95 1117.16 2385.87 1117.61ZM2061.93 1116.82C2064.82 1117.29 2067.73 1118.35 2069.73 1119.74 2071.9 1121.24 2073.34 1122.94 2074.07 1124.75 2076.27 1130.2 2072.09 1136.72 2062.14 1142.31 2056.31 1138.85 2049.37 1136.06 2047.43 1131.25 2046.07 1127.89 2050.36 1119.57 2054.27 1117.5 2056.18 1116.49 2059.04 1116.35 2061.93 1116.82ZM2727.58 1091.14C2737.14 1091.59 2745.37 1095.6 2751.11 1101.92 2753.97 1105.07 2756.22 1108.8 2757.69 1112.94 2759.17 1117.09 2759.88 1121.64 2759.67 1126.45 2758.9 1144.42 2743.74 1158.28 2725.28 1157.82 2722.63 1157.76 2719.98 1157.3 2716.4 1156.65 2696.84 1146.79 2689.24 1132.52 2693.74 1115.52 2697.62 1100.85 2712.1 1090.42 2727.58 1091.14ZM2272.97 1083.8C2277.8 1083.48 2283.1 1083.95 2288.8 1085.26 2298.52 1090.56 2305 1097.52 2308.05 1105.3 2311.09 1113.09 2310.69 1121.71 2306.62 1130.33 2299.1 1146.3 2280.93 1153.91 2265.24 1147.68 2248.21 1140.92 2239.51 1123.88 2244.33 1106.71 2248.21 1092.89 2258.47 1084.78 2272.97 1083.8ZM2850.63 1078.67C2855.73 1079.17 2859.63 1080.89 2861.97 1083.52 2864.31 1086.15 2865.09 1089.68 2863.95 1093.81 2862.59 1098.75 2855.88 1104.77 2850.96 1105.38 2847.08 1105.86 2840.07 1099.63 2838.35 1094.94 2835.14 1086.2 2841.56 1081.26 2850.63 1078.67ZM2093.73 1063.04C2099.23 1064.05 2103.53 1067.32 2105.84 1072.57 2110.73 1083.67 2106.15 1096.75 2094.27 1099.28 2087.77 1100.66 2078.07 1098.25 2073.28 1093.82 2065.39 1086.5 2065.5 1076.33 2074.39 1067.01 2081.53 1063.26 2088.23 1062.02 2093.73 1063.04ZM2008.51 1044.84C2018.86 1043.35 2029.68 1046.44 2036.83 1053.51 2039.56 1056.2 2041.76 1059.13 2043.44 1062.21 2048.49 1071.48 2048.79 1082.21 2044 1092.45 2038.54 1104.13 2025.81 1112.15 2013.02 1111.24 1997.98 1110.18 1987.19 1103.03 1982.05 1087.17 1979.2 1068.26 1985.36 1054.21 1998.48 1047.88 2001.67 1046.35 2005.07 1045.34 2008.51 1044.84ZM1774.65 1032C1779.38 1030.88 1784.03 1032.16 1788.98 1035.69 1791.36 1037.38 1793.24 1039.23 1794.63 1041.2 1798.82 1047.12 1798.69 1054.15 1794.81 1061.52 1789.41 1071.8 1779.96 1074.32 1769.76 1070.07 1757.91 1065.13 1755.21 1055.48 1759.79 1042.7 1765.1 1036.64 1769.92 1033.12 1774.65 1032ZM2822.79 1026.87C2827.83 1026.01 2832.87 1027.3 2838.03 1032.16 2840.11 1034.12 2841.69 1036.28 2842.78 1038.56 2846.06 1045.39 2844.91 1053.22 2839.5 1059.47 2831.27 1068.96 2821.6 1068.75 2807.11 1058.47 2806.41 1050.49 2806.69 1042.82 2807.61 1034.49 2812.72 1030.74 2817.75 1027.73 2822.79 1026.87ZM2884.56 1006.02C2892.55 1006.2 2900.56 1009.49 2907.24 1015.85 2910.3 1018.75 2912.7 1022.21 2914.42 1025.95 2919.57 1037.19 2918.56 1051.05 2910.44 1060.46 2906.52 1065.02 2900.82 1068.04 2894.81 1072.19 2884.33 1071.43 2874.97 1070.24 2864.56 1068.98 2846.77 1045.94 2846.3 1029.19 2861.98 1014.82 2868.6 1008.76 2876.57 1005.84 2884.56 1006.02ZM2402.59 983.03C2410.77 982.277 2416.75 986.573 2420.94 995.006 2425.9 1004.98 2422.26 1013.57 2414.18 1019.58 2405.48 1026.05 2396.54 1023.8 2388.86 1016.71 2379.71 1008.27 2381.22 996.827 2393.66 985.499 2396.89 984.093 2399.87 983.281 2402.59 983.03ZM2584.38 974.478C2587.84 973.935 2591.78 974.999 2595.97 977.973 2601.53 990.47 2599.1 999.871 2589.95 1000.69 2585.28 1001.12 2578.59 998.395 2575.81 994.786 2573.42 991.681 2573.41 984.064 2575.67 980.624 2577.94 977.171 2580.92 975.021 2584.38 974.478ZM2870.42 969.464C2871.81 971.483 2872.73 974.073 2874.54 975.669 2876.27 977.201 2877.62 978.837 2878.58 980.513 2881.45 985.544 2880.74 990.949 2876.1 995.078 2872.37 998.403 2863.83 999.596 2859.02 997.722 2850.46 994.39 2850.84 986.419 2854.81 978.835 2855.61 977.302 2856.17 975.643 2856.79 973.097 2857.56 971.553 2858.38 970.953 2860.58 970.948 2864.81 970.958 2867.66 970.372 2870.52 969.789 2870.52 969.789 2870.37 969.578 2870.42 969.464ZM2443.6 961.152C2448.48 960.524 2453 964.258 2456.3 970.435 2459.14 981.236 2454.53 987.73 2445.34 987.997 2440.62 988.137 2432.43 983.092 2431.73 979.298 2430.83 974.392 2434.41 966.473 2438.64 963.306 2440.31 962.056 2441.97 961.362 2443.6 961.152ZM1825.62 958.235C1831.38 957.196 1839.2 958.607 1843.79 962.023 1845.68 963.433 1847.24 965.042 1848.43 966.823 1852 972.165 1852.26 979.048 1848.35 986.693 1841.59 996.228 1832.57 999.994 1823.76 994.504 1818.03 990.936 1813.06 983.059 1811.71 976.315 1809.84 967.052 1816.71 959.844 1825.62 958.235ZM1769.09 957.994C1778.22 960.019 1784.83 963.537 1789 968.483 1793.17 973.429 1794.89 979.802 1794.22 987.536 1793.12 1000.4 1782.87 1010.86 1770.2 1012.03 1756.28 1013.32 1744.1 1004.45 1740.83 990.662 1736.76 973.441 1747.89 960.04 1769.09 957.994ZM2611.85 925.541C2616.79 925.134 2621.53 927.013 2626.18 931.087 2628.32 932.968 2629.88 934.944 2630.93 936.986 2634.08 943.112 2632.68 949.831 2629.04 956.336 2624.29 964.844 2611.63 967.607 2603.23 963.009 2593.25 957.554 2590.65 947.722 2596.33 933.713 2601.77 928.642 2606.91 925.948 2611.85 925.541ZM2681.66 905.736C2685.95 904.475 2694.4 907.941 2696.86 911.913 2701.61 919.617 2698.62 927.254 2688.64 931.484 2678.07 932.945 2672.39 927.373 2672.38 919.214 2672.38 914.467 2677.42 906.982 2681.66 905.736ZM2741.25 888.304C2743.67 888.782 2746.16 889.841 2748.71 891.535 2752.88 894.298 2755.96 897.753 2757.51 901.813 2759.05 905.873 2759.05 910.539 2757.04 915.724 2753.25 925.521 2743.06 930.707 2733.44 927.842 2720.65 924.037 2716.84 915.318 2721.45 898.235 2727.36 890.658 2734 886.868 2741.25 888.304ZM2401.95 887.183C2406.34 887.457 2410.76 888.612 2414.96 890.732 2422.25 894.407 2427.6 900.308 2430.52 907.279 2433.44 914.249 2433.93 922.288 2431.51 930.238 2426.32 947.314 2412.28 955.316 2390.75 952.644 2368.65 942.983 2360.79 924.919 2369.72 906.264 2375.84 893.47 2388.77 886.36 2401.95 887.183ZM2720.24 853.32C2722.99 853.438 2725.89 854.116 2727.93 855.155 2730.36 856.396 2732.08 857.994 2733.1 859.825 2736.16 865.316 2732.93 872.896 2723.84 879.168 2717.78 876.12 2710.66 873.956 2708.28 869.343 2706.56 866.027 2709.8 857.758 2713.38 854.843 2714.86 853.644 2717.48 853.202 2720.24 853.32ZM1845.07 850.747C1848.14 850.781 1851.47 851.29 1855 852.301 1857.67 854.667 1859.8 857.1 1861.41 859.549 1866.22 866.897 1866.22 874.404 1861.24 880.784 1854.38 889.593 1845.49 892.518 1835.42 886.613 1826.26 881.237 1822.88 872.777 1826.39 862.583 1829.06 854.828 1835.87 850.647 1845.07 850.747ZM1948.09 840.32C1950.62 840.281 1953.19 840.906 1955.63 842.341 1958.82 844.221 1962 847.44 1964.45 851.086 1966.9 854.732 1968.62 858.805 1968.9 862.392 1969.83 874.099 1960.36 879.766 1947.8 880.56 1932.31 874.937 1926.95 866.404 1930.62 854.759 1933.2 846.548 1940.5 840.44 1948.09 840.32ZM2615.4 798.161C2618.3 798.512 2621.27 799.297 2624.31 800.543 2630.88 803.232 2635.97 807.053 2639.53 811.976 2643.09 816.899 2645.12 822.923 2645.56 830.018 2645.81 833.968 2645.05 837.976 2644.2 843.521 2638.79 850.584 2633.94 856.086 2629.08 861.589 2602.11 868.467 2584.21 860.627 2579.55 839.261 2576.71 826.203 2580.06 814.698 2590.96 806.012 2598.56 799.958 2606.68 797.106 2615.4 798.161ZM2760.48 792.262C2763.02 791.938 2765.66 792.069 2768.24 792.719 2773.85 794.126 2777.85 797.356 2780.01 802.164 2782.17 806.971 2782.49 813.356 2780.73 821.071 2772.76 831.741 2763.64 835.023 2752.45 828.828 2743.19 823.7 2741.76 815.066 2744.13 805.895 2746.1 798.325 2752.86 793.237 2760.48 792.262ZM1890.96 786C1898.33 785.975 1905.82 788.305 1911.64 792.997 1915.11 795.801 1917.88 799.174 1919.91 802.872 1926 813.965 1925.42 827.986 1917.35 838.399 1905.42 853.799 1885.6 854.618 1867.17 839.537 1855.82 820.708 1857.35 805.13 1870.96 793.135 1876.33 788.406 1883.59 786.026 1890.96 786Z" fill="#E27FAF" fill-rule="evenodd" fill-opacity="0.501961"/>
    <path d="M1991.64 1165.35C1976.95 1165.59 1962.71 1168.25 1952.51 1183.36 1970.06 1188.18 1978.89 1200.45 1977.29 1216.02 1975.89 1229.77 1963.33 1239.14 1950.41 1240.76 1926.46 1243.76 1923.12 1223.03 1917.94 1204.48 1913.94 1213.55 1910.91 1220.42 1907.12 1229.06 1876.35 1292.79 1837.09 1350.5 1784.3 1400.84 1790.15 1399.98 1794.02 1399.32 1797.91 1398.85 1850.36 1392.51 1902.85 1386.49 1955.23 1379.63 1965.94 1378.22 1977.09 1375.29 1986.6 1370.31 2043.23 1340.65 2070.76 1288.36 2061.58 1229.87 2060.08 1220.28 2057.16 1211.41 2053.08 1203.52 2040.84 1179.84 2018.13 1164.91 1991.64 1165.35ZM2591.3 893.342C2595.58 894.538 2599.85 895.734 2604.83 897.394 2605.91 899.899 2606.29 901.941 2607.09 904.699 2601.28 903.645 2595.06 901.877 2588.71 898.839 2589.49 896.16 2590.39 894.75 2591.3 893.342ZM2586.88 892.63C2588.83 891.685 2589.64 891.839 2590.84 892.89 2590.39 894.75 2589.49 896.16 2588.05 898.214 2585.93 898.253 2584.35 897.646 2582.15 896.418 2582.98 894.96 2584.41 894.124 2586.88 892.63ZM2575.06 884.172C2579.45 886.005 2583.09 888.277 2586.29 891.92 2584.41 894.125 2582.98 894.96 2581.55 895.796 2577.84 893.45 2574.14 891.107 2570.12 887.966 2571.3 886.318 2572.81 885.466 2575.06 884.172ZM2557.42 857.299C2563.19 865.463 2568.96 873.626 2574.53 883.202 2572.81 885.465 2571.3 886.318 2569.8 887.169 2563.84 878.795 2557.87 870.425 2552.7 860.603 2554.8 858.534 2556.1 857.917 2557.42 857.299ZM2554.63 850.227C2556.21 851.709 2556.74 853.543 2557.35 856.339 2556.1 857.917 2554.8 858.534 2552.46 859.522 2550.88 858.046 2550.32 856.204 2549.68 853.392 2550.93 851.811 2552.26 851.195 2554.63 850.227ZM2551.87 835.856C2554.11 839.539 2554.79 843.795 2554.53 849.314 2552.26 851.195 2550.93 851.812 2549.6 852.425 2548.71 848.043 2547.81 843.664 2547.06 838.45 2548.25 837.219 2549.28 836.821 2551.87 835.856ZM2616.32 765.9C2638.37 765.935 2658.75 776.044 2669.54 793.534 2679.32 809.388 2679.83 825.711 2671.27 841.78 2662.87 857.564 2648.61 863.511 2630.19 861.933 2634.16 856.231 2639.01 850.726 2644.59 844.641 2663.45 840.363 2671.67 820.87 2662.78 802.658 2650.42 777.325 2615.83 766.861 2589.1 779.843 2566.42 790.855 2555.08 808.839 2552.09 835.055 2549.28 836.821 2548.25 837.219 2547.21 837.615 2545.42 806.072 2564.2 778.666 2594.02 769.322 2601.44 766.995 2608.98 765.888 2616.32 765.9ZM2620.36 720.061C2629.76 719.731 2639.5 720.747 2649.57 723.279 2685.67 732.353 2705.44 758.446 2712.81 793.828 2720.26 829.614 2708.52 859.628 2681.99 884.107 2661.32 903.187 2636.48 909.076 2607.88 905.163 2606.29 901.941 2605.91 899.899 2605.53 897.858 2670.82 908.008 2716.89 847.014 2701.89 792.415 2688.06 742.055 2639.82 720.352 2591.73 740.493 2525.83 768.093 2492.74 854.04 2504.3 918.324 2509.81 949.026 2522.78 978.413 2532.69 1008.29 2539.41 1028.54 2547.56 1048.35 2553.47 1068.83 2559.35 1089.18 2563.23 1110.12 2567.91 1130.49 2582.66 1106.62 2597.79 1082.45 2612.45 1058.01 2614 1055.42 2613.29 1051.11 2612.82 1047.72 2610.44 1030.42 2613.61 1014.41 2620.87 998.415 2632.54 972.723 2642.75 946.366 2653.65 920.114 2670.86 939.532 2671.7 965.616 2670.6 990.846 2695.97 972.262 2720.75 951.831 2747.72 934.871 2793.19 906.273 2842.29 887.07 2897.41 890.081 2941.32 892.48 2977.57 913.252 3000.07 943.97 3022.57 974.689 3031.31 1015.35 3020.19 1057.54 2997.79 1142.49 2888.31 1178.11 2825.92 1120.75 2791.03 1088.67 2786.95 1034.93 2816.42 995.672 2844.85 957.805 2892.55 947.23 2931.42 970.738 2972.67 995.686 2983.86 1053.7 2945.52 1086.36 2923.04 1105.5 2893.58 1103.26 2872.19 1079.14 2869.82 1076.48 2867.73 1073.57 2865.67 1070.05 2875.19 1070.52 2884.55 1071.71 2893.9 1072.89 2907.97 1094.06 2929.85 1087.11 2944.47 1071.3 2967.78 1046.07 2961.65 1004.02 2931.26 981.309 2913.76 968.228 2893.97 963.341 2871.42 969.029 2870.59 969.792 2870.73 970.003 2870.22 969.259 2866.79 969.083 2863.87 969.647 2860.19 970.389 2858.6 971.167 2857.77 971.768 2856.95 972.369 2830.88 984.337 2816.2 1005.58 2807.71 1033.84 2806.9 1043.08 2806.62 1050.76 2806.34 1058.44 2810.14 1110.34 2861.21 1146.58 2916.2 1136.38 2975.8 1125.32 3016.23 1072.94 3010.44 1014.28 3004.38 952.882 2954.41 907.545 2893.97 907.079 2835.31 906.629 2785.89 931.195 2739.74 963.459 2703.22 988.992 2670.28 1019.09 2643.29 1054.89 2628.38 1074.68 2614.9 1095.56 2599.15 1118.29 2619.29 1114.82 2635.87 1111.97 2652.44 1109.12 2652.92 1111.05 2653.39 1112.98 2653.86 1114.91 2649.27 1116.52 2644.72 1118.25 2640.08 1119.72 2611.35 1128.82 2597.39 1147.54 2598.53 1177.27 2599.22 1195.08 2599.1 1211.6 2577.26 1217.17 2575.71 1217.56 2573.97 1220.29 2573.68 1222.15 2568.23 1256.71 2554.06 1287.48 2532.95 1314.95 2541.86 1320.84 2550.06 1326.26 2559.15 1332.27 2556.01 1334.5 2555.12 1335.56 2554.66 1335.4 2533.86 1328.02 2517.07 1332.02 2500 1347.54 2484.13 1361.99 2464.04 1371.79 2444.31 1384.61 2466.19 1387.04 2487.2 1388.68 2508 1391.8 2590.02 1404.11 2672.02 1416.64 2753.91 1429.78 2765.09 1431.57 2776.04 1436.39 2786.42 1441.26 2815.74 1454.99 2844.7 1469.48 2875.95 1484.72 2852.86 1493.14 2833.89 1503.29 2810.74 1489.46 2759.1 1458.59 2699.67 1458.85 2642.45 1452.21 2532.63 1439.48 2422.28 1433.69 2311.69 1433.28 2307.28 1433.26 2302.86 1433.53 2296.69 1433.72 2300.52 1438.04 2303.1 1441.49 2306.24 1444.32 2309.44 1447.21 2313.19 1449.51 2317.12 1452.37 2289.55 1460.67 2261.46 1455.81 2238.29 1439.93 2233.84 1436.88 2227.79 1434.06 2222.7 1434.41 2144.62 1439.71 2066.58 1445.55 1988.53 1451.33 1986.02 1451.52 1983.55 1452.44 1978.46 1453.64 1984.72 1460.43 1989.71 1465.85 1994.69 1472.35 1994.68 1473.44 1994.68 1473.25 1994.68 1473.25 1980.66 1477.5 1966.03 1476.84 1955.29 1467.68 1943.45 1457.58 1931.86 1457.47 1918.53 1460.58 1915.29 1461.34 1911.89 1461.37 1908.12 1464.74 1917.19 1466.89 1926.25 1469.07 1935.33 1471.18 1971.05 1479.46 2003.9 1493.81 2031.41 1518.5 2094.3 1574.95 2088.85 1674.02 2022.78 1727.03 1982.12 1759.65 1921.36 1763.57 1881.34 1739.68 1840.69 1715.41 1820.2 1664.2 1835.08 1621 1850.6 1575.91 1897.09 1546.74 1943.95 1552.7 1982.73 1557.62 2012.21 1593.29 2010.64 1633.39 2009.02 1674.78 1980.53 1706.19 1943.14 1707.83 1915.84 1709.03 1897.87 1696.47 1894.76 1669.36 1892.95 1653.67 1896.07 1636.85 1899.92 1621.26 1902.62 1610.35 1912.98 1604.48 1924.94 1604.98 1935.81 1605.43 1944.61 1609.73 1949.53 1620.41 1957.52 1637.73 1947.1 1655.93 1927.2 1658.71 1923.29 1659.26 1919.29 1659.12 1915.51 1659.29 1907.5 1680.63 1917.99 1695.84 1940.67 1696.44 1975.31 1697.36 2004.3 1663.25 2001.53 1624.85 1997.77 1572.67 1942.48 1543.62 1894.06 1568.4 1851.76 1590.03 1831.95 1630.27 1843.03 1672 1854.68 1715.89 1895.81 1745.19 1943.73 1743.74 2030.75 1741.12 2088.6 1640.12 2046.07 1564.11 2027.29 1530.56 1996.77 1510.75 1961.09 1498.95 1890.06 1475.46 1818.51 1476.04 1746.69 1495.7 1700.32 1508.4 1654.38 1521.8 1611.64 1544.93 1599.99 1551.24 1584.87 1551.21 1571.28 1553.76 1569.47 1554.1 1567.1 1552.76 1565.3 1551.68 1533.7 1532.74 1502.15 1513.72 1468.13 1493.23 1502.15 1480.42 1534.78 1468.09 1567.45 1455.86 1574.11 1453.37 1580.79 1449.85 1587.67 1449.24 1608.36 1447.43 1616.71 1433.92 1622.51 1416.42 1643.54 1352.99 1654.78 1288.34 1645.08 1221.56 1639.02 1179.81 1625.65 1140.65 1591.67 1112.58 1550.52 1078.59 1504.11 1076.03 1457.44 1097.35 1414.26 1117.09 1388.16 1151.4 1387.78 1201.02 1387.42 1249.41 1420.84 1288.28 1468.57 1296.31 1510.98 1303.45 1554 1277.99 1569.23 1236.52 1579.11 1209.62 1576.56 1184.51 1556.03 1163.36 1535.63 1142.33 1510.31 1136.42 1482.39 1143.87 1452.99 1151.72 1434.43 1174.91 1436.05 1199.89 1436.94 1213.67 1445.06 1223.26 1457.71 1224.81 1465.72 1225.79 1471.93 1225.44 1473.11 1214.05 1474.73 1198.5 1486.23 1188.95 1499.58 1188.97 1513.34 1188.98 1525.18 1198.16 1527.39 1211.08 1529.61 1224.03 1524.39 1233.88 1513.18 1240.2 1494.74 1250.62 1455.43 1246.83 1439.07 1233.43 1422.1 1219.52 1418.98 1192.45 1431.75 1169.95 1452.44 1133.54 1502.49 1120.66 1541.73 1141.67 1579.8 1162.05 1594 1207.94 1573.76 1247.78 1555.4 1283.91 1526.09 1305.07 1485.03 1306.61 1444.24 1308.14 1412.4 1290.38 1390.67 1256.2 1362.31 1211.61 1373.53 1148.12 1415.6 1108.65 1473.84 1054.01 1564.17 1056.19 1618.55 1114.09 1644.76 1142 1657.64 1176.74 1663.82 1213.69 1675.94 1286.17 1665.95 1356.7 1642.15 1425.67 1641.44 1427.71 1640.87 1429.8 1640.09 1432.34 1687.03 1423.82 1730.67 1411.43 1768.55 1380.41 1808.72 1347.52 1844.36 1311.32 1867.72 1265.17 1904.01 1193.47 1901.06 1123.43 1851.27 1057.98 1847.71 1053.3 1841.83 1050.35 1836.9 1046.78 1823.53 1037.1 1810.09 1027.51 1795.03 1016.7 1812.89 1009.11 1835.21 1013.78 1844.18 1026.47 1858.04 1046.04 1871.51 1066.01 1883.43 1086.8 1900.89 1117.28 1906.46 1150.96 1905.37 1186.52 1907.18 1185.84 1908.95 1185.71 1909.23 1185 1936.19 1116.75 1952 1046.91 1936.85 973.295 1932.3 951.2 1926.02 930.346 1908 913.238 1895.79 901.649 1889.79 883.511 1882.49 867.152 1901.22 872.167 1918.5 880.863 1924.8 898.464 1936.12 930.121 1947.02 962.551 1952.39 995.589 1962.39 1057.19 1949.35 1116.93 1928.59 1177.17 1932.35 1174.76 1935.33 1173.43 1937.57 1171.32 1974.54 1136.53 2031.73 1146.23 2057.37 1190.06 2084.18 1235.91 2074.29 1310.48 2025.47 1356.16 2019.11 1362.11 2012.48 1367.75 2004.15 1375.16 2011.16 1375.11 2015.52 1375.13 2019.87 1375.05 2080.4 1373.88 2140.92 1372.33 2201.45 1371.64 2240.42 1371.2 2279.63 1374.8 2318.31 1371.61 2371.32 1367.25 2422.91 1355.03 2468.11 1324.27 2525.24 1285.4 2547.39 1230.85 2541.82 1163.04 2538.34 1120.69 2517.72 1089 2483.36 1066.22 2430.32 1031.06 2372.35 1048.8 2346.34 1107.07 2330.31 1143 2334.71 1179.63 2359.74 1205.15 2373.99 1219.68 2391.29 1229.13 2413.97 1226.55 2413.17 1221.88 2412.54 1218.45 2412 1215.02 2410.16 1203.28 2413.66 1193.96 2424.37 1187.98 2435.01 1182.04 2443.67 1185.33 2452.09 1193.11 2461.22 1201.54 2465.78 1211 2460.13 1222.81 2454.15 1235.29 2443.86 1242.31 2429.96 1244.28 2409.36 1247.21 2390.06 1243.58 2372.92 1233.67 2371.66 1249.42 2372.19 1265.34 2368.74 1280.34 2363.79 1301.89 2345.65 1313.67 2321.73 1314.29 2297.76 1314.91 2275.47 1302.02 2268.41 1283.36 2264.73 1273.64 2267.3 1265.67 2276.06 1260.28 2283.34 1255.79 2298.53 1259.5 2298.94 1266.72 2299.24 1271.8 2292.82 1277.45 2288.95 1282.5 2287.81 1283.98 2285.14 1284.27 2283.17 1285.11 2291.04 1302.93 2316.45 1309.77 2337.54 1300.42 2352.14 1293.94 2358.97 1282.16 2360.48 1266.96 2362.3 1248.68 2358.75 1231.12 2348.71 1215.84 2308.92 1155.23 2332.94 1095.36 2369.69 1060.84 2389.97 1041.78 2409.65 1035.65 2447.64 1036.02 2448.3 1026.8 2448.95 1017.62 2449.6 1008.44 2455.32 1028.57 2457.47 1029.95 2478.11 1035.51 2483.6 1036.99 2487.76 1043.75 2492.29 1048.32 2493.75 1049.78 2494.02 1052.49 2495.55 1053.79 2509.51 1065.61 2523.63 1077.24 2540 1090.84 2534.11 1072.11 2528.76 1055.12 2523.44 1038.13 2511.23 999.171 2494.21 960.972 2487.93 921.083 2477.88 857.226 2498.34 800.019 2545.56 754.804 2567.12 734.159 2592.18 721.051 2620.36 720.061Z" fill="#595959" fill-rule="evenodd" fill-opacity="0.501961"/>
    <path d="M2892.46 1327.34 2871.31 1363.26C2880.78 1365.8 2888.61 1370.7 2894.78 1377.96 2894.51 1366.14 2893.82 1350.7 2892.72 1331.64ZM2871.65 1280.75C2850.02 1281.47 2831.54 1283.16 2816.2 1285.83 2802.24 1309.17 2788.12 1328.51 2773.81 1343.84 2796.87 1343.84 2816.79 1345.85 2833.56 1349.89 2846.52 1327.8 2859.22 1304.76 2871.65 1280.75ZM2598.72 1239.81C2590.76 1257.79 2579.81 1273.5 2565.88 1286.92 2572.74 1281.2 2578.92 1276.74 2584.42 1273.54 2589.72 1270.22 2594.33 1267.13 2598.25 1264.25 2598.56 1255.12 2598.72 1246.97 2598.72 1239.81ZM2598.72 1183.67 2596.24 1184.58 2598.49 1184.71 2598.86 1184.82ZM2786.48 1067.33C2786.48 1094.39 2783.91 1114.71 2778.77 1128.29 2778.77 1149.07 2773.78 1159.46 2763.79 1159.46 2756.28 1159.46 2747.41 1154.34 2737.18 1144.12 2727.71 1134.66 2721.67 1125.23 2719.07 1115.85 2716.63 1108.51 2713.35 1103.08 2709.21 1099.54 2701.47 1092.71 2697.59 1086.96 2697.59 1082.3 2697.59 1073.06 2703.87 1068.44 2716.42 1068.44 2724.94 1068.44 2733.76 1071.48 2742.88 1077.55 2750.2 1082.57 2756.16 1089.26 2760.76 1097.6 2763.51 1095.92 2772.08 1085.83 2786.48 1067.33ZM2942.27 1020.89C2950.14 1020.89 2959.51 1025.04 2970.39 1033.36 2981.82 1041.72 2987.54 1049.79 2987.54 1057.55 2987.54 1065.5 2981.12 1072.36 2968.3 1078.15 2935.13 1121.59 2895.91 1152.41 2850.65 1170.61L2837.29 1175.36 2837.78 1175.69C2840.34 1177.58 2843.07 1179.78 2845.98 1182.3 2854.05 1188.09 2858.09 1193.91 2858.09 1199.75 2858.09 1203.92 2856.08 1210.04 2852.06 1218.08 2847.48 1228.27 2841.78 1237.71 2834.96 1246.41 2843.64 1245.64 2855.59 1244.87 2870.8 1244.08L2884.58 1243.42 2880.69 1238.83C2876.1 1232.63 2873.64 1226.51 2873.31 1220.49 2877.21 1209.16 2884.4 1203.5 2894.89 1203.5 2900.87 1203.5 2910.09 1208.65 2922.54 1218.97 2930.25 1222.89 2934.11 1227.85 2934.11 1233.86 2934.11 1236.41 2932.82 1239.13 2930.25 1242.02 2943.46 1242.02 2953.2 1241.5 2959.48 1240.45 2970.43 1238.57 2976.81 1237.62 2978.62 1237.62 2984.85 1237.62 2994.99 1242.93 3009.02 1253.56 3019.67 1258.94 3025 1265.58 3025 1273.49 3025 1282.37 3017.07 1286.81 3001.21 1286.81 2993.9 1286.81 2983.99 1286.26 2971.48 1285.15 2954.96 1283.68 2936.63 1282.03 2916.5 1280.2L2895.32 1322.39 2897.15 1327.64C2910.23 1363.98 2922.21 1388.82 2933.1 1402.17 2943.68 1413.57 2948.98 1424.42 2948.98 1434.71 2948.98 1449.41 2943.8 1456.76 2933.45 1456.76 2923.89 1456.76 2910.7 1449.17 2893.87 1433.99 2876.43 1418.34 2861.34 1407.44 2848.6 1401.28 2834.48 1418.91 2819.1 1431.61 2802.46 1439.38 2781.2 1449.87 2765.01 1455.11 2753.88 1455.11 2741.35 1455.11 2730.41 1452.08 2721.06 1446.01 2709.87 1438.86 2702.41 1431.04 2698.69 1422.56L2704.87 1412.62C2717.51 1418.14 2729.07 1420.89 2739.55 1420.89 2766.32 1420.89 2790.53 1409.15 2812.16 1385.66 2800 1380.88 2786.52 1377.1 2771.74 1374.31 2754.89 1378.35 2744.53 1380.37 2740.66 1380.37 2734.98 1380.37 2729.7 1376.85 2724.83 1369.82 2722.46 1366.27 2721.27 1361.49 2721.27 1355.5 2721.27 1345.18 2724.26 1339.36 2730.23 1338.04 2733.78 1336.84 2736.3 1336.06 2737.79 1335.7 2750.1 1321.01 2761.67 1306 2772.5 1290.66 2759.98 1295.31 2745.49 1299.32 2729.04 1302.68 2714.06 1305.68 2702.32 1307.17 2693.84 1307.17 2680.84 1307.17 2669.88 1307.35 2660.96 1307.72L2655.72 1299.87C2660.19 1291.7 2674.12 1283.43 2697.52 1275.04 2717.04 1267.53 2747.56 1259.88 2789.07 1252.08 2796.65 1238.24 2803.8 1222.29 2810.5 1204.22 2803.16 1197.79 2799.49 1192.63 2799.49 1188.74 2799.49 1183.91 2801.24 1179.53 2804.74 1175.6 2809.34 1169.99 2814.23 1167.18 2819.43 1167.18 2822.46 1167.18 2826.19 1168.44 2830.62 1170.96L2835.05 1173.89 2843.85 1165.97C2873.85 1137.18 2902.22 1097.5 2928.94 1046.9 2923.15 1045.27 2915.79 1044.45 2906.86 1044.45 2884.3 1048.43 2869.69 1063.53 2863.05 1089.75 2858.85 1107.62 2852.57 1116.55 2844.21 1116.55 2837.8 1116.55 2831.67 1114.4 2825.81 1110.11 2817.67 1104.68 2812.07 1097.2 2809.01 1087.66 2806.11 1079.69 2802.48 1073.84 2798.12 1070.1 2789.85 1063.15 2785.72 1057.13 2785.72 1052.05 2785.72 1044.28 2790.9 1040.39 2801.25 1040.39 2804.09 1040.39 2808.09 1040.94 2813.24 1042.05 2821.48 1043.42 2827.61 1046.12 2831.64 1050.15 2836.2 1054.33 2839.49 1058.23 2841.51 1061.85 2868.81 1041.56 2891.52 1029.35 2909.64 1025.21 2921.33 1022.33 2932.21 1020.89 2942.27 1020.89ZM2614.26 1009C2623.29 1009 2633.64 1015.03 2645.32 1027.09 2656.65 1038.82 2662.32 1048.05 2662.32 1054.78 2662.32 1059.71 2660.76 1067.27 2657.63 1077.45 2654.84 1090.32 2652.37 1103.11 2650.2 1115.85 2655.62 1119.2 2660.5 1121.71 2664.84 1123.38 2677.48 1127.44 2683.81 1133.74 2683.81 1142.28 2683.81 1151.59 2677.98 1159.16 2666.33 1164.98 2660.17 1168.07 2653.19 1170.76 2645.41 1173.06 2643.77 1194.77 2642.8 1214.19 2642.49 1231.34 2645.04 1224.82 2657.52 1210.33 2679.96 1187.86 2668.4 1222.56 2655.53 1249.48 2641.33 1268.63 2642.47 1360.22 2643.05 1409.28 2643.05 1415.82 2643.05 1426.59 2639.57 1436.87 2632.61 1446.66 2623.44 1459.55 2614.94 1466 2607.09 1466 2597.58 1466 2591.72 1458.73 2589.52 1444.19 2575.66 1421.59 2564.96 1389.72 2557.41 1348.56 2575.86 1374.33 2590.37 1391.57 2600.92 1400.3 2600.56 1367.04 2600.37 1333.72 2600.37 1300.34 2589.57 1314.55 2571.99 1330.55 2547.63 1348.35 2530.09 1365.88 2519.61 1374.64 2516.2 1374.64 2511.54 1374.64 2505.41 1371.69 2497.82 1365.8 2491.27 1360.67 2488 1354.59 2488 1347.57 2488 1340.09 2490.88 1333.22 2496.64 1326.98 2498.39 1324.95 2502.35 1321.22 2508.52 1315.78 2527.89 1293.53 2551.88 1260.08 2580.48 1215.43 2584.2 1211.04 2586.05 1205.92 2586.05 1200.07 2586.05 1194.9 2586.89 1191.03 2588.56 1188.45L2590.42 1186.72 2589.19 1187.17C2585.11 1188.67 2580.12 1190.51 2574.23 1192.68 2561.25 1197.31 2552.01 1199.63 2546.49 1199.63 2540.61 1199.63 2531.12 1197.13 2518 1192.13 2504.24 1186.82 2497.36 1179.74 2497.36 1170.91 2497.36 1164.24 2500.89 1160.9 2507.93 1160.9 2513.61 1160.9 2518.1 1161.63 2521.4 1163.1 2543.49 1158.53 2570.38 1150.46 2602.06 1138.88 2602.42 1109.99 2604.06 1081.16 2607 1052.41 2594.13 1039 2587.7 1029.22 2587.7 1023.07 2594.12 1013.69 2602.98 1009 2614.26 1009Z" fill="#FFFFFF" fill-rule="evenodd"/>
    <path d="M1627.93 1241.61C1605.43 1241.61 1580.09 1244.07 1551.92 1249L1547.47 1249.88 1554.58 1251.6C1560.06 1253.38 1565.54 1256.04 1571.01 1259.6 1581.1 1266.75 1587.57 1270.32 1590.4 1270.32 1600.07 1270.32 1619.3 1266.06 1648.1 1257.53 1671.33 1249.95 1689.34 1245.21 1702.13 1243.32L1711.66 1242.5 1702.64 1242.23C1684.36 1241.81 1659.46 1241.61 1627.93 1241.61ZM1584.31 1201.94C1559.24 1212.01 1535.45 1218.92 1512.94 1222.66 1537.56 1218.31 1561.34 1214.2 1584.31 1210.32ZM1584.31 1106.08C1580.1 1108.59 1574.28 1111.28 1566.85 1114.12L1555.41 1118.19 1559.57 1117.92C1566.76 1117.15 1575.01 1115.98 1584.31 1114.43ZM1512.05 1091.74 1513.72 1099.71C1515.01 1106.31 1515.83 1111.74 1516.19 1115.98L1516.37 1121.07 1517.95 1118.54C1519.55 1117.07 1522.07 1116.33 1525.5 1116.33 1529.69 1116.33 1534.9 1117.25 1541.14 1119.09L1544.74 1118.86 1552.78 1112C1561.08 1105.13 1568.51 1099.43 1575.09 1094.87L1579.7 1091.89 1568.41 1093.6C1553.83 1095.67 1543.2 1096.7 1536.51 1096.7 1532.41 1096.7 1527.73 1096.11 1522.48 1094.93ZM1578.4 1039.95C1548.55 1045.83 1530.73 1048.77 1524.95 1048.77 1519.97 1048.77 1515.27 1048.32 1510.85 1047.41L1499.09 1043.55 1500.47 1045.86C1502.04 1051.54 1503.49 1056.91 1504.82 1061.99L1508.39 1075.97 1508.79 1075.6C1513.5 1072.55 1521.03 1070.57 1531.38 1069.66 1541.5 1068.52 1559.14 1065.34 1584.31 1060.11L1584.31 1047.81C1580.74 1044.24 1578.77 1041.62 1578.4 1039.95ZM1709.86 1028.38C1681.39 1028.38 1650.08 1030.22 1615.92 1033.89 1623.45 1035.51 1627.49 1039.34 1628.04 1045.37 1628.04 1047.29 1627.85 1049.64 1627.48 1052.41 1631.5 1051.03 1638.1 1050.12 1647.29 1049.7 1663.08 1053.89 1670.98 1059.97 1670.98 1067.94 1670.98 1075.38 1664.73 1080.49 1652.22 1083.27 1644.52 1084.74 1635.54 1087.96 1625.28 1092.95L1625.28 1109.16C1626.72 1108.54 1629.88 1107.77 1634.79 1106.85 1639.98 1103.25 1644.48 1101.46 1648.3 1101.46 1656.49 1101.46 1662.59 1104.76 1666.61 1111.37 1667.13 1107.03 1671.97 1098.94 1681.12 1087.1 1697.8 1062.61 1707.38 1043.03 1709.86 1028.38ZM1687.39 993C1705.01 993 1716.8 993.372 1722.76 994.114 1726.95 993.74 1730.39 993.553 1733.1 993.553 1740.45 993.553 1748.69 999.234 1757.8 1010.6 1764.53 1019.17 1767.89 1027.26 1767.89 1034.89 1767.89 1040.34 1762.77 1049.17 1752.53 1061.39 1739.68 1085.27 1723.96 1107.82 1705.37 1129.02 1696.21 1139.43 1684.72 1144.64 1670.88 1144.64 1664.34 1144.64 1660.05 1142.06 1658.01 1136.92 1647.76 1138.69 1636.48 1140.47 1624.18 1142.27L1624.18 1151.59C1632.87 1149.84 1642.07 1148.75 1651.76 1148.33 1669.71 1151.47 1678.69 1158.1 1678.69 1168.22 1678.69 1176.42 1671.09 1181.23 1655.9 1182.66 1647.94 1183.35 1637.21 1186 1623.7 1190.61 1623.21 1195.04 1622.82 1200.4 1622.53 1206.69 1646.14 1206.01 1665.45 1205.33 1680.46 1204.65 1686.51 1200.87 1691.94 1198.98 1696.76 1198.98 1703.42 1198.98 1713.39 1202.1 1726.65 1208.35 1736.52 1212.58 1741.46 1219.41 1741.46 1228.83 1741.46 1237.6 1733.87 1242.23 1718.71 1242.71L1717.01 1242.66 1725.76 1243.33C1738.77 1245.24 1753.08 1250.02 1768.69 1257.68 1802.23 1270.35 1819 1285.44 1819 1302.93 1819 1316.96 1813.09 1323.98 1801.28 1323.98 1797.34 1323.98 1791.56 1323.06 1783.96 1321.22 1754.88 1322.32 1718.77 1322.87 1675.63 1322.87 1713 1306.25 1736.31 1294.77 1745.56 1288.41 1729.35 1279.06 1716.36 1274.38 1706.57 1274.38 1699.25 1274.38 1679.19 1280.88 1646.37 1293.87 1630.66 1300.04 1617.4 1304.68 1606.6 1307.77L1603.46 1308.53 1611.51 1312.37C1622.56 1318.48 1628.09 1325.4 1628.09 1333.13 1628.09 1336.5 1627.17 1341.24 1625.32 1347.35 1629.76 1346.3 1634.65 1345.42 1639.99 1344.68 1638.99 1344.96 1635.5 1339.42 1629.53 1328.07 1652.49 1334.16 1667.62 1338.02 1674.89 1339.63 1692.88 1342.44 1701.87 1349.45 1701.87 1360.68 1701.87 1371.74 1694.13 1378.18 1678.64 1380.01 1660.26 1381.85 1641.35 1383.91 1621.9 1386.17 1619.97 1401.23 1615.75 1412.54 1609.25 1420.08 1639.8 1417.93 1675.14 1416.68 1715.28 1416.31 1720.94 1414.06 1727.08 1412.93 1733.7 1412.93 1741.2 1412.93 1751.57 1416.23 1764.79 1422.84 1779.37 1430.14 1786.67 1438.43 1786.67 1447.73 1786.67 1458.82 1781.31 1464.37 1770.59 1464.37 1767.06 1464.37 1755.39 1462.9 1735.57 1459.96 1720.52 1457.76 1696.41 1456.66 1663.22 1456.66 1621.75 1456.66 1589.01 1459.2 1564.98 1464.28 1508.54 1476.09 1478.43 1482 1474.64 1482 1455.95 1482 1438.66 1472.31 1422.78 1452.93 1423.77 1439.11 1428.42 1432.21 1436.75 1432.21 1442.23 1433.21 1449.8 1436.88 1459.45 1443.21 1493.95 1438.44 1528.19 1432.77 1562.17 1426.18 1569.82 1416.68 1573.65 1405.17 1573.65 1391.64 1554.67 1394.21 1539.84 1395.5 1529.16 1395.5 1510.53 1395.5 1494.52 1388.16 1481.14 1373.47 1481.14 1365.8 1485.44 1360.58 1494.05 1357.81 1500.54 1359.06 1507.13 1360.91 1513.83 1363.38 1528.25 1363.05 1548.19 1360.27 1573.65 1355.05 1573.65 1350.88 1573.13 1346.33 1572.09 1341.41 1562.65 1336.88 1557.66 1330.89 1557.12 1323.41 1557.83 1320.06 1558.93 1317.12 1560.41 1314.61L1565.7 1308.69 1565.54 1308.63C1560.24 1306.11 1554.97 1302.34 1549.75 1297.32 1537.49 1286.07 1529.38 1280.45 1525.42 1280.45 1517.92 1280.45 1503.6 1288.69 1482.47 1305.18 1456.6 1324.68 1438.44 1334.44 1427.97 1334.44 1409.07 1334.44 1395.41 1328.54 1386.98 1316.74 1378.99 1305.55 1375 1293.6 1375 1280.89 1375 1270.56 1382.08 1263.74 1396.25 1260.41L1404.83 1264.96C1408.59 1281.39 1416.67 1289.61 1429.07 1289.61 1443.09 1289.61 1459.25 1284.68 1477.55 1274.81 1485.46 1270.5 1492.64 1266.73 1499.12 1263.49L1514 1256.52 1511.89 1256.95C1502.14 1258.84 1495.85 1259.79 1493.02 1259.79 1481.15 1259.79 1470.11 1252.84 1459.87 1238.95 1460.42 1227.73 1464.5 1222.12 1472.09 1222.12 1477.51 1222.12 1486.24 1221.62 1498.29 1220.62 1513.31 1215.61 1527.99 1210.28 1542.33 1204.61L1573.52 1191.26 1566.18 1192.23C1549.65 1194.3 1537.92 1195.33 1531.01 1195.33 1518.74 1195.33 1508.06 1192.04 1498.96 1185.46L1498.96 1175.03C1504.6 1171.28 1514.43 1169.01 1528.45 1168.21 1540.21 1167.49 1558.83 1164.52 1584.31 1159.29L1584.31 1146.29C1567.9 1148.86 1556.38 1150.15 1549.73 1150.15 1535.04 1150.15 1527.37 1146.29 1526.71 1138.58 1526.71 1152.54 1521.9 1159.52 1512.28 1159.52 1497.36 1159.52 1485.94 1145.28 1478.05 1116.81 1464.06 1075.6 1456.01 1052.89 1453.89 1048.66 1446.5 1035.03 1442.81 1025.66 1442.81 1020.57 1442.81 1013.94 1445.8 1008.23 1451.8 1003.43L1460.63 1003.43C1465.52 1006.68 1469.3 1010.36 1471.95 1014.48 1473.39 1016.64 1475.04 1018.61 1476.89 1020.4L1479.18 1022.19 1479.42 1020.24C1481.09 1014.26 1485.25 1010.67 1491.91 1009.46 1499.41 1010.99 1505.47 1012.09 1510.09 1012.75 1591.26 999.585 1650.36 993 1687.39 993Z" fill="#FFFFFF" fill-rule="evenodd"/>
    <path d="M1960.72 1309.43C1949.73 1313.8 1937.37 1316.45 1923.63 1317.38L1922.32 1337.72 1928.47 1333.96C1931.35 1332.59 1934.71 1331.33 1938.55 1330.17 1945.42 1327.98 1952.81 1321.07 1960.72 1309.43ZM2034.56 1239.39C1988.73 1247.02 1952.69 1257.4 1926.45 1270.53L1924.56 1292.12C1934.49 1285.73 1946.54 1280.29 1960.71 1275.8 1983.07 1269.41 1996.16 1266.21 1999.97 1266.21 2005.6 1266.21 2012.2 1268.95 2019.77 1274.41 2025.39 1278.5 2028.2 1284.07 2028.2 1291.12 2028.2 1297.65 2018.01 1303.82 1997.62 1309.65 1979.4 1320.51 1962.03 1331.03 1945.51 1341.2 1950.98 1341.21 1961.04 1341.21 1975.67 1341.21 1989.64 1337.54 1999.95 1335.7 2006.59 1335.7 2011.58 1335.7 2018.1 1338.72 2026.15 1344.76 2034.5 1351.26 2038.68 1358.38 2038.68 1366.13 2038.68 1374 2030.08 1379.62 2012.87 1382.98 1998.54 1394.16 1984.91 1403.27 1971.97 1410.3 1996.77 1424.29 2019.64 1431.77 2040.59 1432.75 2041.74 1421.47 2042.31 1402.39 2042.31 1375.5 2042.31 1313.75 2039.73 1268.38 2034.56 1239.39ZM1870.93 1127.52C1876.89 1127.52 1879.87 1133.43 1879.87 1145.26 1879.87 1155.29 1881.66 1161.32 1885.24 1163.36 1901.25 1159.98 1922.83 1150.42 1949.98 1134.68 1935.87 1159.56 1921.89 1178.75 1908.05 1192.23 1904.66 1206.21 1899.47 1213.2 1892.46 1213.2 1886.31 1213.2 1881.03 1211.92 1876.6 1209.34 1865.54 1203.94 1858.09 1197.4 1854.25 1189.72 1849.84 1180.93 1847.64 1171.45 1847.64 1161.26 1847.64 1154.05 1850.25 1146.33 1855.46 1138.08 1859.43 1131.04 1864.58 1127.52 1870.93 1127.52ZM2107.81 1074.5C2073.22 1074.5 2040.85 1076.15 2010.71 1079.46L1978.19 1084.09 1983.04 1087.04C1985.36 1088.64 1987.8 1090.51 1990.35 1092.65 2001.25 1101.88 2006.71 1111.6 2006.71 1121.82 2006.71 1126.4 2006.34 1143.09 2005.6 1171.89 2021.63 1160.52 2036.27 1142.31 2049.51 1117.28 2043.39 1115.97 2034.56 1114.03 2023.01 1111.49L2023.01 1098.37C2041.17 1092.62 2053.91 1089.74 2061.24 1089.74 2070.75 1089.74 2079.31 1092.89 2086.92 1099.2 2093.96 1105.28 2098.23 1112.42 2099.73 1120.61 2121.91 1109.31 2139.29 1094.82 2151.86 1077.15 2142.11 1075.38 2127.42 1074.5 2107.81 1074.5ZM2089.01 1040.21C2104.56 1040.21 2118.77 1040.42 2131.63 1040.86 2134.96 1041.15 2143.03 1041.3 2155.83 1041.3 2164.95 1041.3 2179 1049.2 2197.98 1065 2209.33 1074.66 2215 1086.24 2215 1099.76 2215 1108.66 2205.64 1113.1 2186.92 1113.1 2148.64 1131.49 2118.27 1140.68 2095.8 1140.68 2057.51 1168.14 2027.32 1183.21 2005.21 1185.89 2004.21 1201.23 1998.83 1210.54 1989.06 1213.81 1998.27 1209.88 2011.02 1206.47 2027.3 1203.57 2034.95 1199.74 2041.46 1197.83 2046.84 1197.83 2055.13 1197.83 2065.34 1204.27 2077.47 1217.14 2088.16 1228.56 2093.51 1238.33 2093.51 1246.45 2093.51 1251.02 2092.39 1259.18 2090.14 1270.94 2090.14 1354.08 2091.23 1402.09 2093.42 1414.97 2095.36 1426.35 2096.33 1436.17 2096.33 1444.44 2096.33 1453.29 2093.46 1463.79 2087.73 1475.93 2078.65 1493.98 2069.46 1503 2060.13 1503 2052.65 1503 2045.88 1497.35 2039.81 1486.06 2005.63 1467.14 1978.22 1444.84 1957.56 1419.18 1952.29 1422.43 1942.31 1424.45 1927.64 1425.25 1938.41 1414.68 1945.4 1408.78 1948.59 1407.56 1945.92 1406.39 1942.44 1400.08 1938.12 1388.63 1948.14 1392.31 1954.59 1395.62 1957.46 1398.56 1965.5 1389.97 1972.47 1383.24 1978.36 1378.37 1968.42 1378.37 1958.2 1377.36 1947.71 1375.34 1939.82 1373.46 1933.29 1370.79 1928.1 1367.32L1920.85 1360.49 1916.84 1422.69C1916.84 1441.94 1915.38 1456.95 1912.47 1467.71 1907.61 1481.31 1901.46 1488.11 1894.02 1488.11 1884.75 1488.11 1877.45 1481.03 1872.11 1466.86 1868.55 1457.42 1866.76 1447.92 1866.76 1438.37 1866.76 1431.28 1868.81 1421.45 1872.91 1408.88 1877.75 1357.46 1883.34 1312.26 1889.68 1273.29 1891.11 1264.05 1899.6 1243.86 1915.17 1212.7L1928.42 1215.64 1927.31 1237.53C1940.13 1229.32 1954.21 1223.69 1969.54 1220.63 1963.68 1220.48 1959.62 1214.52 1957.34 1202.76 1946.07 1193.3 1938.74 1180.62 1935.35 1164.73 1947.12 1167.79 1955.21 1169.44 1959.62 1169.69L1959.09 1120.44C1947.68 1109.02 1941.97 1101.4 1941.97 1097.56 1941.97 1095.23 1942.62 1093.09 1943.9 1091.11L1944.5 1090.56 1926.95 1094.35C1903.25 1100.92 1887.69 1104.59 1880.29 1105.36 1852.52 1106.75 1837.33 1109.57 1834.72 1113.84 1831.81 1130.17 1825.84 1147.19 1816.79 1164.88 1807.23 1194.33 1796.88 1209.06 1785.73 1209.06 1776.88 1209.06 1770.34 1203.64 1766.11 1192.82 1764.04 1187.4 1763 1178.99 1763 1167.59 1763 1158.14 1767.63 1147.13 1776.88 1134.55 1789.61 1116.61 1797.49 1102.34 1800.53 1091.73 1805.24 1069.83 1810.61 1058.87 1816.64 1058.87 1825.11 1058.87 1830.62 1070.44 1833.15 1093.59 1844.34 1082.14 1866.94 1072.08 1900.94 1063.42 1961.66 1047.94 2024.35 1040.21 2089.01 1040.21ZM1936.62 972C1950.95 972 1961.9 973.408 1969.47 976.225 1985.5 982.25 1996.85 990.836 2003.51 1001.98 2006.46 1007.09 2007.93 1015.32 2007.93 1026.7 2007.93 1038.9 2002.56 1045 1991.81 1045 1985.31 1045 1979.12 1042.79 1973.24 1038.38 1965.18 1038.38 1953.12 1036.23 1937.06 1031.94 1948.16 1025.19 1955.71 1020.24 1959.7 1017.1 1950.39 1008.47 1941.95 1003.01 1934.4 1000.71 1923.3 997.332 1917.75 991.658 1917.75 983.683 1917.75 975.894 1924.04 972 1936.62 972Z" fill="#FFFFFF" fill-rule="evenodd"/>
    <path d="M2320.9 1130.59C2319.61 1129.68 2317.2 1127.91 2315.56 1128.69 2314.22 1129.33 2312.74 1132.81 2312.06 1134.17 2312.06 1134.17 2305.88 1148.42 2305.88 1148.42 2297.56 1169.51 2293.27 1198.7 2308.49 1217.77 2308.49 1217.77 2299.73 1206.33 2299.73 1206.33 2296.41 1203.45 2286.66 1198.35 2282.41 1196.32 2278.1 1194.28 2273.94 1191.99 2269.37 1190.54 2252.45 1185.18 2238.87 1186.72 2222.8 1193.62 2224.97 1205.17 2229.02 1209.58 2230.87 1215.91 2226.71 1216.69 2219.88 1220.38 2216.6 1223.05 2215.14 1224.23 2212.93 1226.16 2213.64 1228.28 2214.19 1229.94 2218.21 1232.81 2219.69 1234.03 2226.35 1239.51 2231.02 1242.73 2238.32 1247.24 2249.2 1253.96 2264.5 1259.86 2277.44 1259.88 2283.23 1259.89 2285.99 1259.71 2291.72 1258.38 2291.72 1258.38 2299.17 1256.17 2299.17 1256.17 2295.47 1257.73 2292.58 1259.07 2288.61 1260.04 2285.34 1260.84 2283.16 1260.49 2279.92 1262.18 2277.64 1263.37 2273.45 1266.65 2271.23 1268.32 2254.65 1280.74 2245.77 1296.78 2245.77 1317.47 2245.77 1317.47 2255.71 1319.15 2255.71 1319.15 2255.71 1319.15 2268.74 1319.95 2268.74 1319.95 2268.74 1319.95 2268.18 1326.76 2268.18 1326.76 2267.94 1330.97 2269.28 1337.59 2270.61 1341.62 2275.69 1340.83 2288.78 1334.43 2293.58 1331.71 2308.84 1323.07 2322.04 1313.61 2330.35 1297.66 2331.61 1295.25 2332.98 1290.96 2333.63 1288.4 2334.65 1284.89 2335.47 1276.18 2335.84 1275.05 2335.84 1275.05 2335.42 1281.34 2335.22 1286.97 2335.07 1291.62 2335.19 1295.8 2335.19 1295.8 2335.2 1308.47 2342.59 1322.79 2351.34 1331.71 2357.33 1337.84 2363.31 1342.05 2371.2 1345.42 2372.88 1346.13 2377.45 1347.97 2379.14 1347.39 2380.76 1346.82 2381.56 1344.32 2382.23 1342.86 2384.05 1338.91 2386.97 1330.98 2387.34 1326.76 2393.23 1327.66 2395.16 1329.76 2402.87 1329.86 2404.39 1329.87 2408.08 1330.19 2408.93 1328.87 2409.82 1327.79 2409.02 1323.23 2408.93 1321.81 2408.93 1321.81 2404.95 1303.23 2404.95 1303.23 2404.95 1303.23 2401.66 1293.32 2401.66 1293.32 2396.8 1280.08 2390.18 1267.89 2378.65 1259.2 2369.6 1252.38 2366.85 1253.33 2361.89 1250.59 2370.67 1252.36 2373.4 1255.36 2378.65 1256.64 2390.45 1259.5 2407.5 1256.92 2418.39 1251.67 2427.07 1247.49 2433.26 1243.22 2439.45 1235.73 2440.83 1234.07 2444.38 1229.78 2444.5 1227.68 2444.61 1225.51 2442.25 1223.94 2440.75 1222.73 2436.77 1219.55 2431.36 1215.46 2426.46 1214.06 2430.57 1206.77 2434.96 1201.88 2435.16 1193 2435.16 1193 2416.53 1191.15 2416.53 1191.15 2416.53 1191.15 2401.63 1191.15 2401.63 1191.15 2388.72 1191.16 2371.23 1195.99 2360.64 1203.39 2353.98 1208.04 2352.45 1210.49 2347.6 1216.53 2347.6 1216.53 2350.95 1211.58 2350.95 1211.58 2353.25 1208.71 2356.02 1206.89 2357.72 1203.53 2360.41 1198.2 2362.38 1189.66 2363.21 1183.71 2365.95 1164.03 2362.9 1146.3 2351.33 1129.84 2343.51 1132.07 2337.87 1138.3 2331.46 1142.84 2329.26 1138.37 2325 1133.44 2320.9 1130.59Z" stroke="#FFFFFF" stroke-width="22.9167" stroke-miterlimit="8" fill="#FFFFFF" fill-rule="evenodd"/>
    <path d="M2320.4 1130.09C2319.11 1129.18 2316.7 1127.41 2315.06 1128.19 2313.72 1128.83 2312.24 1132.31 2311.56 1133.67 2311.56 1133.67 2305.38 1147.92 2305.38 1147.92 2297.06 1169.01 2292.77 1198.2 2307.99 1217.27 2307.99 1217.27 2299.23 1205.83 2299.23 1205.83 2295.91 1202.95 2286.16 1197.85 2281.91 1195.82 2277.6 1193.78 2273.44 1191.49 2268.87 1190.04 2251.95 1184.68 2238.37 1186.22 2222.3 1193.12 2224.47 1204.67 2228.52 1209.08 2230.37 1215.42 2226.21 1216.19 2219.38 1219.88 2216.1 1222.55 2214.64 1223.73 2212.43 1225.66 2213.14 1227.78 2213.69 1229.44 2217.71 1232.31 2219.19 1233.53 2225.85 1239.01 2230.52 1242.23 2237.82 1246.74 2248.7 1253.46 2264 1259.36 2276.94 1259.38 2282.73 1259.39 2285.49 1259.21 2291.22 1257.88 2291.22 1257.88 2298.67 1255.67 2298.67 1255.67 2294.97 1257.23 2292.08 1258.57 2288.11 1259.54 2284.84 1260.34 2282.66 1259.99 2279.42 1261.68 2277.14 1262.87 2272.95 1266.15 2270.73 1267.82 2254.15 1280.24 2245.27 1296.28 2245.27 1316.97 2245.27 1316.97 2255.21 1318.65 2255.21 1318.65 2255.21 1318.65 2268.24 1319.45 2268.24 1319.45 2268.24 1319.45 2267.68 1326.26 2267.68 1326.26 2267.44 1330.47 2268.78 1337.09 2270.11 1341.12 2275.19 1340.33 2288.28 1333.93 2293.08 1331.21 2308.34 1322.57 2321.54 1313.11 2329.85 1297.16 2331.11 1294.75 2332.48 1290.46 2333.13 1287.9 2334.15 1284.39 2334.97 1275.68 2335.34 1274.55 2335.34 1274.55 2334.92 1280.84 2334.72 1286.47 2334.57 1291.12 2334.69 1295.3 2334.69 1295.3 2334.7 1307.97 2342.09 1322.29 2350.84 1331.21 2356.83 1337.34 2362.81 1341.55 2370.7 1344.92 2372.38 1345.63 2376.95 1347.47 2378.64 1346.89 2380.26 1346.32 2381.06 1343.82 2381.73 1342.36 2383.55 1338.41 2386.47 1330.48 2386.84 1326.26 2392.73 1327.17 2394.66 1329.26 2402.37 1329.36 2403.89 1329.37 2407.58 1329.69 2408.43 1328.37 2409.32 1327.3 2408.52 1322.73 2408.43 1321.31 2408.43 1321.31 2404.45 1302.73 2404.45 1302.73 2404.45 1302.73 2401.16 1292.82 2401.16 1292.82 2396.3 1279.58 2389.68 1267.39 2378.15 1258.7 2369.1 1251.88 2366.35 1252.83 2361.39 1250.09 2370.17 1251.86 2372.9 1254.86 2378.15 1256.14 2389.95 1259 2407 1256.42 2417.89 1251.17 2426.57 1246.99 2432.76 1242.72 2438.95 1235.23 2440.33 1233.57 2443.88 1229.28 2444 1227.18 2444.11 1225.01 2441.75 1223.44 2440.25 1222.23 2436.27 1219.05 2430.86 1214.96 2425.96 1213.56 2430.07 1206.27 2434.46 1201.38 2434.66 1192.5 2434.66 1192.5 2416.03 1190.64 2416.03 1190.64 2416.03 1190.64 2401.13 1190.64 2401.13 1190.64 2388.22 1190.66 2370.73 1195.49 2360.14 1202.89 2353.48 1207.54 2351.95 1209.99 2347.1 1216.03 2347.1 1216.03 2350.45 1211.08 2350.45 1211.08 2352.75 1208.21 2355.52 1206.39 2357.22 1203.03 2359.91 1197.7 2361.88 1189.16 2362.71 1183.21 2365.45 1163.53 2362.4 1145.8 2350.83 1129.34 2343.01 1131.57 2337.37 1137.8 2330.96 1142.34 2328.76 1137.87 2324.5 1132.94 2320.4 1130.09Z" fill="#E27FAF" fill-rule="evenodd"/>
    <path d="M2546.08 1549.58C2541.83 1549.58 2538.19 1551.95 2535.17 1556.68 2531.98 1561.67 2530.39 1568.73 2530.39 1577.88 2530.39 1584.75 2531.12 1589.61 2532.6 1592.47 2534.64 1596.47 2537.83 1598.47 2542.16 1598.47 2546.9 1598.47 2550.78 1596.27 2553.8 1591.85 2556.66 1587.61 2558.09 1581.64 2558.09 1573.96 2558.09 1564.81 2556.86 1558.44 2554.41 1554.85 2551.96 1551.33 2549.18 1549.58 2546.08 1549.58ZM2113.66 1549.45C2109.49 1549.45 2105.9 1552.15 2102.88 1557.54 2100.02 1562.61 2098.59 1570.33 2098.59 1580.7 2098.59 1585.44 2099.2 1589.2 2100.42 1591.98 2101.98 1595.49 2104.75 1597.25 2108.76 1597.25 2112.93 1597.25 2116.73 1594.18 2120.16 1588.06 2121.71 1583.15 2123.02 1572.7 2124.08 1556.68 2121.55 1551.86 2118.07 1549.45 2113.66 1549.45ZM1868.53 1549.45C1864.36 1549.45 1860.76 1552.15 1857.74 1557.54 1854.88 1562.61 1853.45 1570.33 1853.45 1580.7 1853.45 1585.44 1854.06 1589.2 1855.29 1591.98 1856.84 1595.49 1859.62 1597.25 1863.62 1597.25 1867.79 1597.25 1871.59 1594.18 1875.02 1588.06 1876.57 1583.15 1877.88 1572.7 1878.94 1556.68 1876.41 1551.86 1872.94 1549.45 1868.53 1549.45ZM2600.13 1544.06C2601.52 1544.06 2603.36 1544.67 2605.65 1545.9 2608.18 1547.37 2609.45 1548.96 2609.45 1550.68 2609.45 1551.33 2609.24 1553.66 2608.83 1557.66 2608.18 1566.73 2607.85 1580.87 2607.85 1600.07 2607.85 1603.74 2606.91 1605.58 2605.03 1605.58 2602.99 1605.58 2601.32 1604.6 2600.01 1602.64 2599.03 1601.25 2598.54 1599.33 2598.54 1596.88 2599.19 1583.07 2599.64 1567.8 2599.89 1551.05 2598.01 1549.58 2596.82 1548.47 2596.33 1547.74 2596.49 1546.68 2596.74 1545.9 2597.07 1545.41 2598.13 1544.51 2599.15 1544.06 2600.13 1544.06ZM2416.28 1544.06C2417.67 1544.06 2419.51 1544.67 2421.79 1545.9 2424.33 1547.37 2425.59 1548.96 2425.59 1550.68 2425.59 1551.33 2425.39 1553.66 2424.98 1557.66 2424.33 1566.73 2424 1580.87 2424 1600.07 2424 1603.74 2423.06 1605.58 2421.18 1605.58 2419.14 1605.58 2417.46 1604.6 2416.16 1602.64 2415.18 1601.25 2414.69 1599.33 2414.69 1596.88 2415.34 1583.07 2415.79 1567.8 2416.03 1551.05 2414.16 1549.58 2412.97 1548.47 2412.48 1547.74 2412.64 1546.68 2412.89 1545.9 2413.22 1545.41 2414.28 1544.51 2415.3 1544.06 2416.28 1544.06ZM2498.15 1543.33C2499.38 1543.33 2500.89 1544.35 2502.69 1546.39 2504.16 1547.86 2504.9 1549.29 2504.9 1550.68 2504.9 1551.91 2504.28 1553.66 2503.06 1555.95 2492.19 1581.68 2483.98 1600.07 2478.42 1611.09 2476.05 1615.59 2474.34 1618.45 2473.27 1619.67 2471.88 1621.22 2469.68 1622 2466.65 1622 2463.55 1622 2461.1 1621.14 2459.3 1619.43 2458.32 1618.45 2457.83 1617.34 2457.83 1616.12 2457.83 1613.5 2459.01 1612.2 2461.38 1612.2 2462.2 1612.2 2463.3 1612.61 2464.69 1613.42 2467.47 1613.34 2469.11 1612.85 2469.6 1611.95L2475.6 1599.45 2459.55 1553.99C2458.65 1551.7 2458.2 1550.07 2458.2 1549.09 2458.2 1547.53 2458.89 1546.27 2460.28 1545.29 2461.34 1544.39 2462.9 1543.94 2464.94 1543.94 2467.06 1543.94 2468.37 1545.9 2468.86 1549.82 2472.21 1563.3 2475.97 1576.54 2480.14 1589.53 2485.45 1576.54 2490.51 1563.59 2495.34 1550.68 2494.35 1548.8 2493.78 1547.37 2493.62 1546.39 2493.78 1545.49 2494.15 1544.76 2494.72 1544.18 2495.87 1543.61 2497.01 1543.33 2498.15 1543.33ZM2067.09 1542.71C2068.88 1542.71 2071.09 1543.37 2073.7 1544.67 2075.01 1545.41 2075.67 1546.43 2075.67 1547.74 2075.67 1548.56 2075.13 1549.82 2074.07 1551.54 2072.93 1553.09 2071.62 1553.87 2070.15 1553.87 2069.41 1553.87 2067.41 1553.54 2064.14 1552.89 2061.12 1552.89 2058.02 1554.64 2054.83 1558.15 2051.64 1561.59 2049.68 1565.51 2048.95 1569.92 2048.37 1573.02 2048.09 1582.95 2048.09 1599.7 2048.09 1603.78 2047.15 1605.82 2045.27 1605.82 2043.14 1605.82 2041.51 1605.17 2040.37 1603.86 2038.9 1602.23 2038.16 1600.31 2038.16 1598.1 2038.16 1597.29 2038.65 1595.73 2039.63 1593.45 2040.45 1578.33 2040.98 1563.75 2041.22 1549.7 2040 1547.66 2039.26 1546.27 2039.02 1545.53 2039.02 1544.63 2039.3 1544.02 2039.88 1543.69 2041.1 1543.2 2042.24 1542.96 2043.31 1542.96 2044.7 1542.96 2046.37 1543.86 2048.33 1545.66 2049.64 1546.8 2050.29 1548.02 2050.29 1549.33 2050.29 1550.64 2050.17 1552.31 2049.93 1554.36 2052.87 1550.43 2056.5 1547.21 2060.83 1544.67 2063.12 1543.37 2065.21 1542.71 2067.09 1542.71ZM2310.01 1542.47C2311.4 1542.47 2313.16 1543.25 2315.28 1544.8 2317.74 1546.68 2318.96 1548.27 2318.96 1549.58 2318.96 1550.31 2318.59 1552.6 2317.86 1556.44 2317.12 1561.83 2316.47 1569.47 2315.9 1579.35 2315.41 1587.77 2315.16 1594.39 2315.16 1599.21 2315.16 1603.21 2314.43 1605.21 2312.96 1605.21 2310.59 1605.21 2308.87 1604.19 2307.81 1602.15 2307.4 1601.41 2307.15 1599.98 2307.07 1597.86 2301.68 1602.76 2296.98 1605.21 2292.98 1605.21 2287.5 1605.21 2283.66 1602.8 2281.46 1597.98 2279.9 1594.63 2279.13 1590.87 2279.13 1586.71 2279.13 1581.64 2279.78 1569.35 2281.09 1549.82 2279.45 1548.19 2278.39 1546.92 2277.9 1546.02 2277.98 1545.21 2278.31 1544.51 2278.88 1543.94 2280.11 1543.2 2281.25 1542.84 2282.31 1542.84 2283.46 1542.84 2285.17 1543.65 2287.46 1545.29 2289.67 1547 2290.77 1548.43 2290.77 1549.58 2290.77 1550.8 2290.48 1552.64 2289.91 1555.09 2287.79 1568.57 2286.73 1578.25 2286.73 1584.13 2286.73 1588.63 2286.93 1591.4 2287.34 1592.47 2288.56 1595.73 2290.4 1597.37 2292.85 1597.37 2297.35 1597.37 2300.94 1595.61 2303.64 1592.1 2306.17 1588.75 2307.6 1584.54 2307.93 1579.48L2309.4 1550.07C2307.85 1548.35 2306.75 1546.84 2306.09 1545.53 2306.17 1544.72 2306.5 1544.02 2307.07 1543.45 2308.05 1542.8 2309.03 1542.47 2310.01 1542.47ZM2003.6 1542.47C2004.98 1542.47 2006.74 1543.25 2008.87 1544.8 2011.32 1546.68 2012.54 1548.27 2012.54 1549.58 2012.54 1550.31 2012.18 1552.6 2011.44 1556.44 2010.7 1561.83 2010.05 1569.47 2009.48 1579.35 2008.99 1587.77 2008.74 1594.39 2008.74 1599.21 2008.74 1603.21 2008.01 1605.21 2006.54 1605.21 2004.17 1605.21 2002.45 1604.19 2001.39 1602.15 2000.98 1601.41 2000.74 1599.98 2000.65 1597.86 1995.26 1602.76 1990.56 1605.21 1986.56 1605.21 1981.08 1605.21 1977.24 1602.8 1975.04 1597.98 1973.48 1594.63 1972.71 1590.87 1972.71 1586.71 1972.71 1581.64 1973.36 1569.35 1974.67 1549.82 1973.04 1548.19 1971.97 1546.92 1971.48 1546.02 1971.56 1545.21 1971.89 1544.51 1972.46 1543.94 1973.69 1543.2 1974.83 1542.84 1975.9 1542.84 1977.04 1542.84 1978.76 1543.65 1981.04 1545.29 1983.25 1547 1984.35 1548.43 1984.35 1549.58 1984.35 1550.8 1984.07 1552.64 1983.49 1555.09 1981.37 1568.57 1980.31 1578.25 1980.31 1584.13 1980.31 1588.63 1980.51 1591.4 1980.92 1592.47 1982.15 1595.73 1983.98 1597.37 1986.44 1597.37 1990.93 1597.37 1994.53 1595.61 1997.22 1592.1 1999.76 1588.75 2001.18 1584.54 2001.51 1579.48L2002.98 1550.07C2001.43 1548.35 2000.33 1546.84 1999.67 1545.53 1999.76 1544.72 2000.08 1544.02 2000.65 1543.45 2001.63 1542.8 2002.61 1542.47 2003.6 1542.47ZM2112.68 1542.1C2116.85 1542.1 2120.93 1543.57 2124.94 1546.51 2125.75 1543.98 2126.9 1542.71 2128.37 1542.71 2130.08 1542.71 2131.51 1543.25 2132.66 1544.31 2133.72 1545.37 2134.25 1546.84 2134.25 1548.72 2134.25 1550.03 2133.72 1552.31 2132.66 1555.58 2130.04 1577.07 2128.74 1588.38 2128.74 1589.53 2128.74 1594.35 2129.55 1596.76 2131.19 1596.76 2132.66 1596.76 2134.13 1596.1 2135.6 1594.8 2136.74 1593.73 2137.68 1593.2 2138.42 1593.2 2139.73 1593.2 2140.38 1594.1 2140.38 1595.9 2140.38 1597.12 2139.48 1598.59 2137.68 1600.31 2134.66 1602.92 2131.8 1604.23 2129.1 1604.23 2125.67 1604.23 2123.34 1601.98 2122.12 1597.49 2117.79 1602.72 2112.72 1605.33 2106.92 1605.33 2101.61 1605.33 2097.4 1603.21 2094.3 1598.96 2090.86 1594.31 2089.15 1588.34 2089.15 1581.07 2089.15 1570.37 2091.03 1561.71 2094.79 1555.09 2099.61 1546.43 2105.57 1542.1 2112.68 1542.1ZM1867.55 1542.1C1871.71 1542.1 1875.8 1543.57 1879.8 1546.51 1880.62 1543.98 1881.76 1542.71 1883.23 1542.71 1884.95 1542.71 1886.38 1543.25 1887.52 1544.31 1888.59 1545.37 1889.12 1546.84 1889.12 1548.72 1889.12 1550.03 1888.59 1552.31 1887.52 1555.58 1884.91 1577.07 1883.6 1588.38 1883.6 1589.53 1883.6 1594.35 1884.42 1596.76 1886.05 1596.76 1887.52 1596.76 1889 1596.1 1890.47 1594.8 1891.61 1593.73 1892.55 1593.2 1893.28 1593.2 1894.59 1593.2 1895.25 1594.1 1895.25 1595.9 1895.25 1597.12 1894.35 1598.59 1892.55 1600.31 1889.53 1602.92 1886.67 1604.23 1883.97 1604.23 1880.54 1604.23 1878.21 1601.98 1876.98 1597.49 1872.65 1602.72 1867.59 1605.33 1861.79 1605.33 1856.47 1605.33 1852.27 1603.21 1849.16 1598.96 1845.73 1594.31 1844.01 1588.34 1844.01 1581.07 1844.01 1570.37 1845.89 1561.71 1849.65 1555.09 1854.47 1546.43 1860.44 1542.1 1867.55 1542.1ZM2546.81 1541.73C2553.27 1541.73 2558.66 1545.25 2562.99 1552.27 2565.61 1556.6 2566.92 1564.45 2566.92 1575.8 2566.92 1584.79 2564.5 1592.18 2559.68 1597.98 2554.78 1603.37 2548.98 1606.07 2542.28 1606.07 2533.54 1606.07 2527.65 1602.23 2524.63 1594.55 2522.75 1589.81 2521.81 1584.5 2521.81 1578.62 2521.81 1566.37 2524.47 1557.17 2529.78 1551.05 2535.09 1544.84 2540.77 1541.73 2546.81 1541.73ZM2340.41 1541.61C2342.21 1541.61 2344.33 1543.29 2346.78 1546.64 2349.89 1543.69 2352.75 1542.22 2355.36 1542.22 2358.47 1542.22 2361.12 1543.78 2363.33 1546.88 2367.25 1543.69 2370.93 1542.1 2374.36 1542.1 2377.55 1542.1 2380.12 1543.2 2382.08 1545.41 2384.29 1548.02 2385.39 1550.97 2385.39 1554.23 2385.39 1555.79 2385.27 1557.58 2385.02 1559.63 2384.29 1575.88 2383.92 1588.95 2383.92 1598.84 2383.92 1602.92 2382.9 1604.97 2380.86 1604.97 2378.41 1604.97 2376.57 1603.99 2375.34 1602.03 2374.36 1600.47 2373.87 1599.04 2373.87 1597.74 2373.87 1596.84 2374.28 1595.57 2375.1 1593.94 2376.32 1570.08 2376.94 1556.64 2376.94 1553.62 2376.94 1552.31 2376.53 1551.25 2375.71 1550.43 2375.14 1549.86 2374.32 1549.58 2373.26 1549.58 2369.58 1549.58 2367.01 1551.7 2365.54 1555.95 2364.72 1572.53 2364.15 1587.52 2363.82 1600.92 2363.49 1603.7 2362.47 1605.09 2360.76 1605.09 2358.88 1605.09 2357.37 1604.15 2356.22 1602.27 2355.32 1600.88 2354.87 1599.66 2354.87 1598.59 2354.87 1597.86 2355.2 1596.31 2355.85 1593.94 2356.51 1579.64 2357 1566.69 2357.32 1555.09 2356.92 1551.99 2355.53 1550.43 2353.16 1550.43 2350.95 1550.43 2348.91 1553.01 2347.03 1558.15 2345.89 1573.51 2345.31 1586.42 2345.31 1596.88 2345.31 1602.43 2344.29 1605.21 2342.25 1605.21 2340.04 1605.21 2338.37 1604.27 2337.22 1602.39 2336.16 1600.76 2335.63 1599.41 2335.63 1598.35 2335.63 1597.7 2336 1596.18 2336.73 1593.82L2338.82 1547.98C2337.51 1546.35 2336.81 1545.29 2336.73 1544.8 2336.9 1543.98 2337.22 1543.25 2337.71 1542.59 2338.69 1541.94 2339.59 1541.61 2340.41 1541.61ZM2239.41 1520.66C2248.32 1520.66 2254.29 1525.31 2257.31 1534.63 2257.88 1536.51 2258.17 1537.98 2258.17 1539.04 2258.17 1541.24 2257.35 1542.71 2255.72 1543.45 2254.74 1543.86 2253.35 1544.06 2251.55 1544.06 2249.67 1544.06 2248.69 1541.57 2248.61 1536.59 2247.3 1530.71 2244.36 1527.76 2239.78 1527.76 2237.09 1527.76 2234.59 1528.91 2232.31 1531.2 2229.94 1533.4 2228.75 1536.83 2228.75 1541.49 2228.75 1545.57 2230.26 1548.92 2233.29 1551.54 2237.21 1554.89 2241.62 1557.91 2246.52 1560.61 2255.51 1565.59 2260.01 1573.84 2260.01 1585.36 2260.01 1590.42 2258.09 1595.04 2254.25 1599.21 2250 1603.62 2244.44 1605.82 2237.58 1605.82 2232.02 1605.82 2227.49 1604.03 2223.97 1600.43 2220.95 1597.41 2218.91 1593.28 2217.84 1588.06 2217.27 1585.6 2216.99 1583.93 2216.99 1583.03 2216.99 1581.56 2217.76 1580.42 2219.31 1579.6 2220.21 1578.78 2221.6 1578.37 2223.48 1578.37 2225.52 1578.37 2226.55 1580.74 2226.55 1585.48 2227.77 1594.31 2231.33 1598.72 2237.21 1598.72 2241.38 1598.72 2244.81 1597.37 2247.5 1594.67 2250.28 1591.81 2251.67 1588.22 2251.67 1583.89 2251.67 1577.11 2248.28 1571.63 2241.5 1567.47 2232.76 1562.08 2227.24 1558.03 2224.95 1555.34 2221.85 1551.5 2220.29 1547.08 2220.29 1542.1 2220.29 1534.18 2222.87 1528.29 2228.02 1524.46 2231.2 1521.92 2235 1520.66 2239.41 1520.66ZM1810.43 1520.66C1819.34 1520.66 1825.3 1525.31 1828.32 1534.63 1828.9 1536.51 1829.18 1537.98 1829.18 1539.04 1829.18 1541.24 1828.36 1542.71 1826.73 1543.45 1825.75 1543.86 1824.36 1544.06 1822.56 1544.06 1820.68 1544.06 1819.7 1541.57 1819.62 1536.59 1818.31 1530.71 1815.37 1527.76 1810.8 1527.76 1808.1 1527.76 1805.61 1528.91 1803.32 1531.2 1800.95 1533.4 1799.77 1536.83 1799.77 1541.49 1799.77 1545.57 1801.28 1548.92 1804.3 1551.54 1808.22 1554.89 1812.64 1557.91 1817.54 1560.61 1826.53 1565.59 1831.02 1573.84 1831.02 1585.36 1831.02 1590.42 1829.1 1595.04 1825.26 1599.21 1821.01 1603.62 1815.45 1605.82 1808.59 1605.82 1803.03 1605.82 1798.5 1604.03 1794.99 1600.43 1791.96 1597.41 1789.92 1593.28 1788.86 1588.06 1788.29 1585.6 1788 1583.93 1788 1583.03 1788 1581.56 1788.78 1580.42 1790.33 1579.6 1791.23 1578.78 1792.62 1578.37 1794.5 1578.37 1796.54 1578.37 1797.56 1580.74 1797.56 1585.48 1798.79 1594.31 1802.34 1598.72 1808.22 1598.72 1812.39 1598.72 1815.82 1597.37 1818.52 1594.67 1821.3 1591.81 1822.69 1588.22 1822.69 1583.89 1822.69 1577.11 1819.3 1571.63 1812.51 1567.47 1803.77 1562.08 1798.25 1558.03 1795.97 1555.34 1792.86 1551.5 1791.31 1547.08 1791.31 1542.1 1791.31 1534.18 1793.88 1528.29 1799.03 1524.46 1802.22 1521.92 1806.02 1520.66 1810.43 1520.66ZM2606.01 1519.43C2607.97 1519.43 2609.65 1520.13 2611.04 1521.51 2612.35 1522.82 2613 1524.54 2613 1526.66 2613 1528.62 2612.31 1530.38 2610.92 1531.93 2609.53 1533.24 2607.81 1533.89 2605.77 1533.89 2603.24 1533.89 2601.36 1532.87 2600.13 1530.83 2599.4 1529.52 2599.03 1528.05 2599.03 1526.42 2599.03 1524.29 2599.84 1522.49 2601.48 1521.02 2602.62 1519.96 2604.13 1519.43 2606.01 1519.43ZM2422.16 1519.43C2424.12 1519.43 2425.8 1520.13 2427.19 1521.51 2428.5 1522.82 2429.15 1524.54 2429.15 1526.66 2429.15 1528.62 2428.45 1530.38 2427.07 1531.93 2425.68 1533.24 2423.96 1533.89 2421.92 1533.89 2419.38 1533.89 2417.51 1532.87 2416.28 1530.83 2415.54 1529.52 2415.18 1528.05 2415.18 1526.42 2415.18 1524.29 2415.99 1522.49 2417.63 1521.02 2418.77 1519.96 2420.28 1519.43 2422.16 1519.43ZM1915.71 1516C1917.19 1516 1918.94 1516.69 1920.99 1518.08 1923.11 1519.55 1924.17 1521.11 1924.17 1522.74 1924.17 1523.72 1923.93 1525.11 1923.44 1526.91 1922.46 1539.98 1921.76 1552.8 1921.35 1565.39 1927.89 1559.99 1934.59 1553.87 1941.45 1547 1941.45 1545.94 1941.49 1544.8 1941.58 1543.57 1942.23 1542.43 1943.37 1541.86 1945.01 1541.86 1946.48 1541.86 1947.99 1542.71 1949.54 1544.43 1950.93 1546.06 1951.63 1547.58 1951.63 1548.96 1951.63 1549.7 1950.85 1550.6 1949.3 1551.66 1944.15 1555.99 1938.39 1560.93 1932.02 1566.49L1953.71 1596.02C1954.77 1597.41 1955.3 1598.51 1955.3 1599.33 1955.3 1600.39 1954.65 1601.49 1953.34 1602.64 1951.71 1603.86 1950.16 1604.48 1948.69 1604.48 1947.46 1604.48 1946.36 1603.62 1945.38 1601.9L1926.38 1571.02 1920.99 1575.31 1920.37 1600.92C1920.29 1604.03 1919.27 1605.58 1917.31 1605.58 1915.27 1605.58 1913.63 1604.6 1912.41 1602.64 1911.59 1601.25 1911.18 1599.78 1911.18 1598.23 1911.18 1597.33 1911.59 1595.37 1912.41 1592.34 1913.22 1567.59 1913.75 1544.31 1914 1522.49 1913.18 1521.51 1912.41 1520.45 1911.67 1519.31 1911.67 1518.66 1911.79 1518.08 1912.04 1517.59 1913.34 1516.53 1914.57 1516 1915.71 1516Z" fill="#FFFFFF" fill-rule="evenodd"/>
  </g>
</svg>