<svg width="254" height="243"
  xmlns="http://www.w3.org/2000/svg"
  xmlns:xlink="http://www.w3.org/1999/xlink" xml:space="preserve" overflow="hidden">
  <defs>
    <clipPath id="clip0">
      <rect x="1253" y="1349" width="254" height="243"/>
    </clipPath>
  </defs>
  <g clip-path="url(#clip0)" transform="translate(-1253 -1349)">
    <path d="M1371.9 1363.59C1370.61 1362.68 1368.2 1360.91 1366.56 1361.69 1365.22 1362.33 1363.74 1365.81 1363.06 1367.17 1363.06 1367.17 1356.88 1381.42 1356.88 1381.42 1348.56 1402.51 1344.27 1431.7 1359.49 1450.77 1359.49 1450.77 1350.73 1439.33 1350.73 1439.33 1347.41 1436.45 1337.66 1431.35 1333.41 1429.32 1329.1 1427.28 1324.94 1424.99 1320.37 1423.54 1303.45 1418.18 1289.87 1419.72 1273.8 1426.62 1275.97 1438.17 1280.02 1442.58 1281.87 1448.92 1277.71 1449.69 1270.88 1453.38 1267.6 1456.05 1266.14 1457.23 1263.93 1459.16 1264.64 1461.28 1265.19 1462.94 1269.21 1465.81 1270.69 1467.03 1277.35 1472.51 1282.02 1475.73 1289.32 1480.24 1300.2 1486.96 1315.5 1492.86 1328.44 1492.88 1334.23 1492.89 1336.99 1492.71 1342.72 1491.38 1342.72 1491.38 1350.17 1489.17 1350.17 1489.17 1346.47 1490.73 1343.58 1492.07 1339.61 1493.04 1336.34 1493.84 1334.16 1493.49 1330.92 1495.18 1328.64 1496.37 1324.45 1499.65 1322.23 1501.32 1305.65 1513.74 1296.77 1529.78 1296.77 1550.47 1296.77 1550.47 1306.71 1552.15 1306.71 1552.15 1306.71 1552.15 1319.74 1552.95 1319.74 1552.95 1319.74 1552.95 1319.18 1559.76 1319.18 1559.76 1318.94 1563.97 1320.29 1570.59 1321.61 1574.62 1326.69 1573.83 1339.78 1567.43 1344.58 1564.71 1359.84 1556.07 1373.04 1546.61 1381.35 1530.66 1382.61 1528.25 1383.98 1523.96 1384.63 1521.4 1385.65 1517.89 1386.47 1509.18 1386.84 1508.05 1386.84 1508.05 1386.42 1514.34 1386.22 1519.97 1386.07 1524.62 1386.19 1528.8 1386.19 1528.8 1386.2 1541.47 1393.59 1555.79 1402.34 1564.71 1408.33 1570.84 1414.31 1575.05 1422.2 1578.42 1423.88 1579.13 1428.45 1580.97 1430.14 1580.39 1431.76 1579.82 1432.56 1577.32 1433.23 1575.86 1435.05 1571.91 1437.97 1563.98 1438.34 1559.76 1444.23 1560.66 1446.16 1562.76 1453.87 1562.86 1455.39 1562.87 1459.08 1563.19 1459.93 1561.87 1460.82 1560.8 1460.02 1556.23 1459.93 1554.81 1459.93 1554.81 1455.95 1536.23 1455.95 1536.23 1455.95 1536.23 1452.66 1526.32 1452.66 1526.32 1447.8 1513.08 1441.18 1500.89 1429.65 1492.2 1420.6 1485.38 1417.85 1486.33 1412.89 1483.59 1421.67 1485.36 1424.4 1488.36 1429.65 1489.64 1441.45 1492.5 1458.5 1489.92 1469.39 1484.67 1478.07 1480.49 1484.26 1476.22 1490.45 1468.73 1491.83 1467.07 1495.38 1462.78 1495.5 1460.68 1495.61 1458.51 1493.25 1456.94 1491.75 1455.73 1487.77 1452.55 1482.36 1448.46 1477.46 1447.06 1481.57 1439.77 1485.96 1434.88 1486.16 1426 1486.16 1426 1467.53 1424.15 1467.53 1424.15 1467.53 1424.15 1452.63 1424.15 1452.63 1424.15 1439.72 1424.16 1422.23 1428.99 1411.64 1436.39 1404.98 1441.04 1403.45 1443.49 1398.6 1449.53 1398.6 1449.53 1401.95 1444.58 1401.95 1444.58 1404.25 1441.71 1407.02 1439.89 1408.72 1436.53 1411.41 1431.2 1413.38 1422.66 1414.21 1416.71 1416.95 1397.03 1413.9 1379.3 1402.33 1362.84 1394.51 1365.07 1388.87 1371.3 1382.46 1375.84 1380.26 1371.37 1376 1366.44 1371.9 1363.59Z" stroke="#FFFFFF" stroke-width="22.9167" stroke-miterlimit="8" fill="#FFFFFF" fill-rule="evenodd"/>
    <path d="M1371.4 1363.09C1370.11 1362.18 1367.7 1360.41 1366.06 1361.19 1364.72 1361.83 1363.24 1365.31 1362.56 1366.67 1362.56 1366.67 1356.38 1380.92 1356.38 1380.92 1348.06 1402.01 1343.77 1431.2 1358.99 1450.27 1358.99 1450.27 1350.23 1438.83 1350.23 1438.83 1346.91 1435.95 1337.16 1430.85 1332.91 1428.82 1328.6 1426.78 1324.44 1424.49 1319.87 1423.04 1302.95 1417.68 1289.37 1419.22 1273.3 1426.12 1275.47 1437.67 1279.52 1442.08 1281.37 1448.41 1277.21 1449.19 1270.38 1452.88 1267.1 1455.55 1265.64 1456.73 1263.43 1458.66 1264.14 1460.78 1264.69 1462.44 1268.71 1465.31 1270.19 1466.53 1276.85 1472.01 1281.52 1475.23 1288.82 1479.74 1299.7 1486.46 1315 1492.36 1327.94 1492.38 1333.73 1492.39 1336.49 1492.21 1342.22 1490.88 1342.22 1490.88 1349.67 1488.67 1349.67 1488.67 1345.97 1490.23 1343.08 1491.57 1339.11 1492.54 1335.84 1493.34 1333.66 1492.99 1330.42 1494.68 1328.14 1495.87 1323.95 1499.15 1321.73 1500.82 1305.15 1513.24 1296.27 1529.28 1296.27 1549.97 1296.27 1549.97 1306.2 1551.65 1306.2 1551.65 1306.2 1551.65 1319.24 1552.45 1319.24 1552.45 1319.24 1552.45 1318.68 1559.26 1318.68 1559.26 1318.44 1563.47 1319.79 1570.09 1321.11 1574.12 1326.19 1573.33 1339.28 1566.93 1344.08 1564.21 1359.34 1555.57 1372.54 1546.11 1380.85 1530.16 1382.11 1527.75 1383.47 1523.46 1384.13 1520.9 1385.15 1517.39 1385.97 1508.68 1386.34 1507.55 1386.34 1507.55 1385.92 1513.84 1385.72 1519.47 1385.57 1524.12 1385.69 1528.3 1385.69 1528.3 1385.7 1540.97 1393.09 1555.28 1401.84 1564.21 1407.83 1570.34 1413.81 1574.55 1421.7 1577.92 1423.38 1578.63 1427.95 1580.47 1429.64 1579.89 1431.26 1579.32 1432.06 1576.82 1432.73 1575.36 1434.55 1571.41 1437.47 1563.48 1437.84 1559.26 1443.72 1560.16 1445.66 1562.26 1453.37 1562.36 1454.89 1562.37 1458.58 1562.69 1459.43 1561.37 1460.32 1560.29 1459.52 1555.73 1459.43 1554.31 1459.43 1554.31 1455.45 1535.73 1455.45 1535.73 1455.45 1535.73 1452.16 1525.82 1452.16 1525.82 1447.3 1512.58 1440.68 1500.39 1429.15 1491.7 1420.1 1484.88 1417.35 1485.83 1412.39 1483.09 1421.17 1484.86 1423.9 1487.86 1429.15 1489.14 1440.95 1492 1458 1489.42 1468.89 1484.17 1477.57 1479.99 1483.76 1475.72 1489.95 1468.23 1491.33 1466.57 1494.88 1462.28 1495 1460.18 1495.11 1458.01 1492.75 1456.44 1491.25 1455.23 1487.27 1452.05 1481.86 1447.96 1476.96 1446.56 1481.07 1439.27 1485.46 1434.38 1485.66 1425.5 1485.66 1425.5 1467.03 1423.64 1467.03 1423.64 1467.03 1423.64 1452.13 1423.64 1452.13 1423.64 1439.22 1423.66 1421.73 1428.49 1411.14 1435.89 1404.48 1440.54 1402.95 1442.99 1398.1 1449.03 1398.1 1449.03 1401.45 1444.08 1401.45 1444.08 1403.75 1441.21 1406.52 1439.39 1408.22 1436.03 1410.91 1430.7 1412.88 1422.16 1413.71 1416.21 1416.45 1396.53 1413.4 1378.8 1401.83 1362.34 1394.01 1364.57 1388.37 1370.8 1381.96 1375.34 1379.76 1370.87 1375.5 1365.94 1371.4 1363.09Z" fill="#E27FAF" fill-rule="evenodd"/>
  </g>
</svg>