<svg width="1650" height="531"
  xmlns="http://www.w3.org/2000/svg"
  xmlns:xlink="http://www.w3.org/1999/xlink" xml:space="preserve" overflow="hidden">
  <defs>
    <clipPath id="clip0">
      <rect x="1375" y="972" width="1650" height="531"/>
    </clipPath>
  </defs>
  <g clip-path="url(#clip0)" transform="translate(-1375 -972)">
    <path d="M2892.46 1327.34 2871.31 1363.26C2880.78 1365.8 2888.61 1370.7 2894.78 1377.96 2894.51 1366.14 2893.82 1350.7 2892.72 1331.64ZM2871.65 1280.75C2850.02 1281.47 2831.54 1283.16 2816.2 1285.83 2802.24 1309.17 2788.12 1328.51 2773.81 1343.84 2796.87 1343.84 2816.79 1345.85 2833.56 1349.89 2846.52 1327.8 2859.22 1304.76 2871.65 1280.75ZM2598.72 1239.81C2590.76 1257.79 2579.81 1273.5 2565.88 1286.92 2572.74 1281.2 2578.92 1276.74 2584.42 1273.54 2589.72 1270.22 2594.33 1267.13 2598.25 1264.25 2598.56 1255.12 2598.72 1246.97 2598.72 1239.81ZM2598.72 1183.67 2596.24 1184.58 2598.49 1184.71 2598.86 1184.82ZM2786.48 1067.33C2786.48 1094.39 2783.91 1114.71 2778.77 1128.29 2778.77 1149.07 2773.78 1159.46 2763.79 1159.46 2756.28 1159.46 2747.41 1154.34 2737.18 1144.12 2727.71 1134.66 2721.67 1125.23 2719.07 1115.85 2716.63 1108.51 2713.35 1103.08 2709.21 1099.54 2701.47 1092.71 2697.59 1086.96 2697.59 1082.3 2697.59 1073.06 2703.87 1068.44 2716.42 1068.44 2724.94 1068.44 2733.76 1071.48 2742.88 1077.55 2750.2 1082.57 2756.16 1089.26 2760.76 1097.6 2763.51 1095.92 2772.08 1085.83 2786.48 1067.33ZM2942.27 1020.89C2950.14 1020.89 2959.51 1025.04 2970.39 1033.36 2981.82 1041.72 2987.54 1049.79 2987.54 1057.55 2987.54 1065.5 2981.12 1072.36 2968.3 1078.15 2935.13 1121.59 2895.91 1152.41 2850.65 1170.61L2837.29 1175.36 2837.78 1175.69C2840.34 1177.58 2843.07 1179.78 2845.98 1182.3 2854.05 1188.09 2858.09 1193.91 2858.09 1199.75 2858.09 1203.92 2856.08 1210.04 2852.06 1218.08 2847.48 1228.27 2841.78 1237.71 2834.96 1246.41 2843.64 1245.64 2855.59 1244.87 2870.8 1244.08L2884.58 1243.42 2880.69 1238.83C2876.1 1232.63 2873.64 1226.51 2873.31 1220.49 2877.21 1209.16 2884.4 1203.5 2894.89 1203.5 2900.87 1203.5 2910.09 1208.65 2922.54 1218.97 2930.25 1222.89 2934.11 1227.85 2934.11 1233.86 2934.11 1236.41 2932.82 1239.13 2930.25 1242.02 2943.46 1242.02 2953.2 1241.5 2959.48 1240.45 2970.43 1238.57 2976.81 1237.62 2978.62 1237.62 2984.85 1237.62 2994.99 1242.93 3009.02 1253.56 3019.67 1258.94 3025 1265.58 3025 1273.49 3025 1282.37 3017.07 1286.81 3001.21 1286.81 2993.9 1286.81 2983.99 1286.26 2971.48 1285.15 2954.96 1283.68 2936.63 1282.03 2916.5 1280.2L2895.32 1322.39 2897.15 1327.64C2910.23 1363.98 2922.21 1388.82 2933.1 1402.17 2943.68 1413.57 2948.98 1424.42 2948.98 1434.71 2948.98 1449.41 2943.8 1456.76 2933.45 1456.76 2923.89 1456.76 2910.7 1449.17 2893.87 1433.99 2876.43 1418.34 2861.34 1407.44 2848.6 1401.28 2834.48 1418.91 2819.1 1431.61 2802.46 1439.38 2781.2 1449.87 2765.01 1455.11 2753.88 1455.11 2741.35 1455.11 2730.41 1452.08 2721.06 1446.01 2709.87 1438.86 2702.41 1431.04 2698.69 1422.56L2704.87 1412.62C2717.51 1418.14 2729.07 1420.89 2739.55 1420.89 2766.32 1420.89 2790.53 1409.15 2812.16 1385.66 2800 1380.88 2786.52 1377.1 2771.74 1374.31 2754.89 1378.35 2744.53 1380.37 2740.66 1380.37 2734.98 1380.37 2729.7 1376.85 2724.83 1369.82 2722.46 1366.27 2721.27 1361.49 2721.27 1355.5 2721.27 1345.18 2724.26 1339.36 2730.23 1338.04 2733.78 1336.84 2736.3 1336.06 2737.79 1335.7 2750.1 1321.01 2761.67 1306 2772.5 1290.66 2759.98 1295.31 2745.49 1299.32 2729.04 1302.68 2714.06 1305.68 2702.32 1307.17 2693.84 1307.17 2680.84 1307.17 2669.88 1307.35 2660.96 1307.72L2655.72 1299.87C2660.19 1291.7 2674.12 1283.43 2697.52 1275.04 2717.04 1267.53 2747.56 1259.88 2789.07 1252.08 2796.65 1238.24 2803.8 1222.29 2810.5 1204.22 2803.16 1197.79 2799.49 1192.63 2799.49 1188.74 2799.49 1183.91 2801.24 1179.53 2804.74 1175.6 2809.34 1169.99 2814.23 1167.18 2819.43 1167.18 2822.46 1167.18 2826.19 1168.44 2830.62 1170.96L2835.05 1173.89 2843.85 1165.97C2873.85 1137.18 2902.22 1097.5 2928.94 1046.9 2923.15 1045.27 2915.79 1044.45 2906.86 1044.45 2884.3 1048.43 2869.69 1063.53 2863.05 1089.75 2858.85 1107.62 2852.57 1116.55 2844.21 1116.55 2837.8 1116.55 2831.67 1114.4 2825.81 1110.11 2817.67 1104.68 2812.07 1097.2 2809.01 1087.66 2806.11 1079.69 2802.48 1073.84 2798.12 1070.1 2789.85 1063.15 2785.72 1057.13 2785.72 1052.05 2785.72 1044.28 2790.9 1040.39 2801.25 1040.39 2804.09 1040.39 2808.09 1040.94 2813.24 1042.05 2821.48 1043.42 2827.61 1046.12 2831.64 1050.15 2836.2 1054.33 2839.49 1058.23 2841.51 1061.85 2868.81 1041.56 2891.52 1029.35 2909.64 1025.21 2921.33 1022.33 2932.21 1020.89 2942.27 1020.89ZM2614.26 1009C2623.29 1009 2633.64 1015.03 2645.32 1027.09 2656.65 1038.82 2662.32 1048.05 2662.32 1054.78 2662.32 1059.71 2660.76 1067.27 2657.63 1077.45 2654.84 1090.32 2652.37 1103.11 2650.2 1115.85 2655.62 1119.2 2660.5 1121.71 2664.84 1123.38 2677.48 1127.44 2683.81 1133.74 2683.81 1142.28 2683.81 1151.59 2677.98 1159.16 2666.33 1164.98 2660.17 1168.07 2653.19 1170.76 2645.41 1173.06 2643.77 1194.77 2642.8 1214.19 2642.49 1231.34 2645.04 1224.82 2657.52 1210.33 2679.96 1187.86 2668.4 1222.56 2655.53 1249.48 2641.33 1268.63 2642.47 1360.22 2643.05 1409.28 2643.05 1415.82 2643.05 1426.59 2639.57 1436.87 2632.61 1446.66 2623.44 1459.55 2614.94 1466 2607.09 1466 2597.58 1466 2591.72 1458.73 2589.52 1444.19 2575.66 1421.59 2564.96 1389.72 2557.41 1348.56 2575.86 1374.33 2590.37 1391.57 2600.92 1400.3 2600.56 1367.04 2600.37 1333.72 2600.37 1300.34 2589.57 1314.55 2571.99 1330.55 2547.63 1348.35 2530.09 1365.88 2519.61 1374.64 2516.2 1374.64 2511.54 1374.64 2505.41 1371.69 2497.82 1365.8 2491.27 1360.67 2488 1354.59 2488 1347.57 2488 1340.09 2490.88 1333.22 2496.64 1326.98 2498.39 1324.95 2502.35 1321.22 2508.52 1315.78 2527.89 1293.53 2551.88 1260.08 2580.48 1215.43 2584.2 1211.04 2586.05 1205.92 2586.05 1200.07 2586.05 1194.9 2586.89 1191.03 2588.56 1188.45L2590.42 1186.72 2589.19 1187.17C2585.11 1188.67 2580.12 1190.51 2574.23 1192.68 2561.25 1197.31 2552.01 1199.63 2546.49 1199.63 2540.61 1199.63 2531.12 1197.13 2518 1192.13 2504.24 1186.82 2497.36 1179.74 2497.36 1170.91 2497.36 1164.24 2500.89 1160.9 2507.93 1160.9 2513.61 1160.9 2518.1 1161.63 2521.4 1163.1 2543.49 1158.53 2570.38 1150.46 2602.06 1138.88 2602.42 1109.99 2604.06 1081.16 2607 1052.41 2594.13 1039 2587.7 1029.22 2587.7 1023.07 2594.12 1013.69 2602.98 1009 2614.26 1009Z" fill="#FFFFFF" fill-rule="evenodd"/>
    <path d="M1627.93 1241.61C1605.43 1241.61 1580.09 1244.07 1551.92 1249L1547.47 1249.88 1554.58 1251.6C1560.06 1253.38 1565.54 1256.04 1571.01 1259.6 1581.1 1266.75 1587.57 1270.32 1590.4 1270.32 1600.07 1270.32 1619.3 1266.06 1648.1 1257.53 1671.33 1249.95 1689.34 1245.21 1702.13 1243.32L1711.66 1242.5 1702.64 1242.23C1684.36 1241.81 1659.46 1241.61 1627.93 1241.61ZM1584.31 1201.94C1559.24 1212.01 1535.45 1218.92 1512.94 1222.66 1537.56 1218.31 1561.34 1214.2 1584.31 1210.32ZM1584.31 1106.08C1580.1 1108.59 1574.28 1111.28 1566.85 1114.12L1555.41 1118.19 1559.57 1117.92C1566.76 1117.15 1575.01 1115.98 1584.31 1114.43ZM1512.05 1091.74 1513.72 1099.71C1515.01 1106.31 1515.83 1111.74 1516.19 1115.98L1516.37 1121.07 1517.95 1118.54C1519.55 1117.07 1522.07 1116.33 1525.5 1116.33 1529.69 1116.33 1534.9 1117.25 1541.14 1119.09L1544.74 1118.86 1552.78 1112C1561.08 1105.13 1568.51 1099.43 1575.09 1094.87L1579.7 1091.89 1568.41 1093.6C1553.83 1095.67 1543.2 1096.7 1536.51 1096.7 1532.41 1096.7 1527.73 1096.11 1522.48 1094.93ZM1578.4 1039.95C1548.55 1045.83 1530.73 1048.77 1524.95 1048.77 1519.97 1048.77 1515.27 1048.32 1510.85 1047.41L1499.09 1043.55 1500.47 1045.86C1502.04 1051.54 1503.49 1056.91 1504.82 1061.99L1508.39 1075.97 1508.79 1075.6C1513.5 1072.55 1521.03 1070.57 1531.38 1069.66 1541.5 1068.52 1559.14 1065.34 1584.31 1060.11L1584.31 1047.81C1580.74 1044.24 1578.77 1041.62 1578.4 1039.95ZM1709.86 1028.38C1681.39 1028.38 1650.08 1030.22 1615.92 1033.89 1623.45 1035.51 1627.49 1039.34 1628.04 1045.37 1628.04 1047.29 1627.85 1049.64 1627.48 1052.41 1631.5 1051.03 1638.1 1050.12 1647.29 1049.7 1663.08 1053.89 1670.98 1059.97 1670.98 1067.94 1670.98 1075.38 1664.73 1080.49 1652.22 1083.27 1644.52 1084.74 1635.54 1087.96 1625.28 1092.95L1625.28 1109.16C1626.72 1108.54 1629.88 1107.77 1634.79 1106.85 1639.98 1103.25 1644.48 1101.46 1648.3 1101.46 1656.49 1101.46 1662.59 1104.76 1666.61 1111.37 1667.13 1107.03 1671.97 1098.94 1681.12 1087.1 1697.8 1062.61 1707.38 1043.03 1709.86 1028.38ZM1687.39 993C1705.01 993 1716.8 993.372 1722.76 994.114 1726.95 993.74 1730.39 993.553 1733.1 993.553 1740.45 993.553 1748.69 999.234 1757.8 1010.6 1764.53 1019.17 1767.89 1027.26 1767.89 1034.89 1767.89 1040.34 1762.77 1049.17 1752.53 1061.39 1739.68 1085.27 1723.96 1107.82 1705.37 1129.02 1696.21 1139.43 1684.72 1144.64 1670.88 1144.64 1664.34 1144.64 1660.05 1142.06 1658.01 1136.92 1647.76 1138.69 1636.48 1140.47 1624.18 1142.27L1624.18 1151.59C1632.87 1149.84 1642.07 1148.75 1651.76 1148.33 1669.71 1151.47 1678.69 1158.1 1678.69 1168.22 1678.69 1176.42 1671.09 1181.23 1655.9 1182.66 1647.94 1183.35 1637.21 1186 1623.7 1190.61 1623.21 1195.04 1622.82 1200.4 1622.53 1206.69 1646.14 1206.01 1665.45 1205.33 1680.46 1204.65 1686.51 1200.87 1691.94 1198.98 1696.76 1198.98 1703.42 1198.98 1713.39 1202.1 1726.65 1208.35 1736.52 1212.58 1741.46 1219.41 1741.46 1228.83 1741.46 1237.6 1733.87 1242.23 1718.71 1242.71L1717.01 1242.66 1725.76 1243.33C1738.77 1245.24 1753.08 1250.02 1768.69 1257.68 1802.23 1270.35 1819 1285.44 1819 1302.93 1819 1316.96 1813.09 1323.98 1801.28 1323.98 1797.34 1323.98 1791.56 1323.06 1783.96 1321.22 1754.88 1322.32 1718.77 1322.87 1675.63 1322.87 1713 1306.25 1736.31 1294.77 1745.56 1288.41 1729.35 1279.06 1716.36 1274.38 1706.57 1274.38 1699.25 1274.38 1679.19 1280.88 1646.37 1293.87 1630.66 1300.04 1617.4 1304.68 1606.6 1307.77L1603.46 1308.53 1611.51 1312.37C1622.56 1318.48 1628.09 1325.4 1628.09 1333.13 1628.09 1336.5 1627.17 1341.24 1625.32 1347.35 1629.76 1346.3 1634.65 1345.42 1639.99 1344.68 1638.99 1344.96 1635.5 1339.42 1629.53 1328.07 1652.49 1334.16 1667.62 1338.02 1674.89 1339.63 1692.88 1342.44 1701.87 1349.45 1701.87 1360.68 1701.87 1371.74 1694.13 1378.18 1678.64 1380.01 1660.26 1381.85 1641.35 1383.91 1621.9 1386.17 1619.97 1401.23 1615.75 1412.54 1609.25 1420.08 1639.8 1417.93 1675.14 1416.68 1715.28 1416.31 1720.94 1414.06 1727.08 1412.93 1733.7 1412.93 1741.2 1412.93 1751.57 1416.23 1764.79 1422.84 1779.37 1430.14 1786.67 1438.43 1786.67 1447.73 1786.67 1458.82 1781.31 1464.37 1770.59 1464.37 1767.06 1464.37 1755.39 1462.9 1735.57 1459.96 1720.52 1457.76 1696.41 1456.66 1663.22 1456.66 1621.75 1456.66 1589.01 1459.2 1564.98 1464.28 1508.54 1476.09 1478.43 1482 1474.64 1482 1455.95 1482 1438.66 1472.31 1422.78 1452.93 1423.77 1439.11 1428.42 1432.21 1436.75 1432.21 1442.23 1433.21 1449.8 1436.88 1459.45 1443.21 1493.95 1438.44 1528.19 1432.77 1562.17 1426.18 1569.82 1416.68 1573.65 1405.17 1573.65 1391.64 1554.67 1394.21 1539.84 1395.5 1529.16 1395.5 1510.53 1395.5 1494.52 1388.16 1481.14 1373.47 1481.14 1365.8 1485.44 1360.58 1494.05 1357.81 1500.54 1359.06 1507.13 1360.91 1513.83 1363.38 1528.25 1363.05 1548.19 1360.27 1573.65 1355.05 1573.65 1350.88 1573.13 1346.33 1572.09 1341.41 1562.65 1336.88 1557.66 1330.89 1557.12 1323.41 1557.83 1320.06 1558.93 1317.12 1560.41 1314.61L1565.7 1308.69 1565.54 1308.63C1560.24 1306.11 1554.97 1302.34 1549.75 1297.32 1537.49 1286.07 1529.38 1280.45 1525.42 1280.45 1517.92 1280.45 1503.6 1288.69 1482.47 1305.18 1456.6 1324.68 1438.44 1334.44 1427.97 1334.44 1409.07 1334.44 1395.41 1328.54 1386.98 1316.74 1378.99 1305.55 1375 1293.6 1375 1280.89 1375 1270.56 1382.08 1263.74 1396.25 1260.41L1404.83 1264.96C1408.59 1281.39 1416.67 1289.61 1429.07 1289.61 1443.09 1289.61 1459.25 1284.68 1477.55 1274.81 1485.46 1270.5 1492.64 1266.73 1499.12 1263.49L1514 1256.52 1511.89 1256.95C1502.14 1258.84 1495.85 1259.79 1493.02 1259.79 1481.15 1259.79 1470.11 1252.84 1459.87 1238.95 1460.42 1227.73 1464.5 1222.12 1472.09 1222.12 1477.51 1222.12 1486.24 1221.62 1498.29 1220.62 1513.31 1215.61 1527.99 1210.28 1542.33 1204.61L1573.52 1191.26 1566.18 1192.23C1549.65 1194.3 1537.92 1195.33 1531.01 1195.33 1518.74 1195.33 1508.06 1192.04 1498.96 1185.46L1498.96 1175.03C1504.6 1171.28 1514.43 1169.01 1528.45 1168.21 1540.21 1167.49 1558.83 1164.52 1584.31 1159.29L1584.31 1146.29C1567.9 1148.86 1556.38 1150.15 1549.73 1150.15 1535.04 1150.15 1527.37 1146.29 1526.71 1138.58 1526.71 1152.54 1521.9 1159.52 1512.28 1159.52 1497.36 1159.52 1485.94 1145.28 1478.05 1116.81 1464.06 1075.6 1456.01 1052.89 1453.89 1048.66 1446.5 1035.03 1442.81 1025.66 1442.81 1020.57 1442.81 1013.94 1445.8 1008.23 1451.8 1003.43L1460.63 1003.43C1465.52 1006.68 1469.3 1010.36 1471.95 1014.48 1473.39 1016.64 1475.04 1018.61 1476.89 1020.4L1479.18 1022.19 1479.42 1020.24C1481.09 1014.26 1485.25 1010.67 1491.91 1009.46 1499.41 1010.99 1505.47 1012.09 1510.09 1012.75 1591.26 999.585 1650.36 993 1687.39 993Z" fill="#FFFFFF" fill-rule="evenodd"/>
    <path d="M1960.72 1309.43C1949.73 1313.8 1937.37 1316.45 1923.63 1317.38L1922.32 1337.72 1928.47 1333.96C1931.35 1332.59 1934.71 1331.33 1938.55 1330.17 1945.42 1327.98 1952.81 1321.07 1960.72 1309.43ZM2034.56 1239.39C1988.73 1247.02 1952.69 1257.4 1926.45 1270.53L1924.56 1292.12C1934.49 1285.73 1946.54 1280.29 1960.71 1275.8 1983.07 1269.41 1996.16 1266.21 1999.97 1266.21 2005.6 1266.21 2012.2 1268.95 2019.77 1274.41 2025.39 1278.5 2028.2 1284.07 2028.2 1291.12 2028.2 1297.65 2018.01 1303.82 1997.62 1309.65 1979.4 1320.51 1962.03 1331.03 1945.51 1341.2 1950.98 1341.21 1961.04 1341.21 1975.67 1341.21 1989.64 1337.54 1999.95 1335.7 2006.59 1335.7 2011.58 1335.7 2018.1 1338.72 2026.15 1344.76 2034.5 1351.26 2038.68 1358.38 2038.68 1366.13 2038.68 1374 2030.08 1379.62 2012.87 1382.98 1998.54 1394.16 1984.91 1403.27 1971.97 1410.3 1996.77 1424.29 2019.64 1431.77 2040.59 1432.75 2041.74 1421.47 2042.31 1402.39 2042.31 1375.5 2042.31 1313.75 2039.73 1268.38 2034.56 1239.39ZM1870.93 1127.52C1876.89 1127.52 1879.87 1133.43 1879.87 1145.26 1879.87 1155.29 1881.66 1161.32 1885.24 1163.36 1901.25 1159.98 1922.83 1150.42 1949.98 1134.68 1935.87 1159.56 1921.89 1178.75 1908.05 1192.23 1904.66 1206.21 1899.47 1213.2 1892.46 1213.2 1886.31 1213.2 1881.03 1211.92 1876.6 1209.34 1865.54 1203.94 1858.09 1197.4 1854.25 1189.72 1849.84 1180.93 1847.64 1171.45 1847.64 1161.26 1847.64 1154.05 1850.25 1146.33 1855.46 1138.08 1859.43 1131.04 1864.58 1127.52 1870.93 1127.52ZM2107.81 1074.5C2073.22 1074.5 2040.85 1076.15 2010.71 1079.46L1978.19 1084.09 1983.04 1087.04C1985.36 1088.64 1987.8 1090.51 1990.35 1092.65 2001.25 1101.88 2006.71 1111.6 2006.71 1121.82 2006.71 1126.4 2006.34 1143.09 2005.6 1171.89 2021.63 1160.52 2036.27 1142.31 2049.51 1117.28 2043.39 1115.97 2034.56 1114.03 2023.01 1111.49L2023.01 1098.37C2041.17 1092.62 2053.91 1089.74 2061.24 1089.74 2070.75 1089.74 2079.31 1092.89 2086.92 1099.2 2093.96 1105.28 2098.23 1112.42 2099.73 1120.61 2121.91 1109.31 2139.29 1094.82 2151.86 1077.15 2142.11 1075.38 2127.42 1074.5 2107.81 1074.5ZM2089.01 1040.21C2104.56 1040.21 2118.77 1040.42 2131.63 1040.86 2134.96 1041.15 2143.03 1041.3 2155.83 1041.3 2164.95 1041.3 2179 1049.2 2197.98 1065 2209.33 1074.66 2215 1086.24 2215 1099.76 2215 1108.66 2205.64 1113.1 2186.92 1113.1 2148.64 1131.49 2118.27 1140.68 2095.8 1140.68 2057.51 1168.14 2027.32 1183.21 2005.21 1185.89 2004.21 1201.23 1998.83 1210.54 1989.06 1213.81 1998.27 1209.88 2011.02 1206.47 2027.3 1203.57 2034.95 1199.74 2041.46 1197.83 2046.84 1197.83 2055.13 1197.83 2065.34 1204.27 2077.47 1217.14 2088.16 1228.56 2093.51 1238.33 2093.51 1246.45 2093.51 1251.02 2092.39 1259.18 2090.14 1270.94 2090.14 1354.08 2091.23 1402.09 2093.42 1414.97 2095.36 1426.35 2096.33 1436.17 2096.33 1444.44 2096.33 1453.29 2093.46 1463.79 2087.73 1475.93 2078.65 1493.98 2069.46 1503 2060.13 1503 2052.65 1503 2045.88 1497.35 2039.81 1486.06 2005.63 1467.14 1978.22 1444.84 1957.56 1419.18 1952.29 1422.43 1942.31 1424.45 1927.64 1425.25 1938.41 1414.68 1945.4 1408.78 1948.59 1407.56 1945.92 1406.39 1942.44 1400.08 1938.12 1388.63 1948.14 1392.31 1954.59 1395.62 1957.46 1398.56 1965.5 1389.97 1972.47 1383.24 1978.36 1378.37 1968.42 1378.37 1958.2 1377.36 1947.71 1375.34 1939.82 1373.46 1933.29 1370.79 1928.1 1367.32L1920.85 1360.49 1916.84 1422.69C1916.84 1441.94 1915.38 1456.95 1912.47 1467.71 1907.61 1481.31 1901.46 1488.11 1894.02 1488.11 1884.75 1488.11 1877.45 1481.03 1872.11 1466.86 1868.55 1457.42 1866.76 1447.92 1866.76 1438.37 1866.76 1431.28 1868.81 1421.45 1872.91 1408.88 1877.75 1357.46 1883.34 1312.26 1889.68 1273.29 1891.11 1264.05 1899.6 1243.86 1915.17 1212.7L1928.42 1215.64 1927.31 1237.53C1940.13 1229.32 1954.21 1223.69 1969.54 1220.63 1963.68 1220.48 1959.62 1214.52 1957.34 1202.76 1946.07 1193.3 1938.74 1180.62 1935.35 1164.73 1947.12 1167.79 1955.21 1169.44 1959.62 1169.69L1959.09 1120.44C1947.68 1109.02 1941.97 1101.4 1941.97 1097.56 1941.97 1095.23 1942.62 1093.09 1943.9 1091.11L1944.5 1090.56 1926.95 1094.35C1903.25 1100.92 1887.69 1104.59 1880.29 1105.36 1852.52 1106.75 1837.33 1109.57 1834.72 1113.84 1831.81 1130.17 1825.84 1147.19 1816.79 1164.88 1807.23 1194.33 1796.88 1209.06 1785.73 1209.06 1776.88 1209.06 1770.34 1203.64 1766.11 1192.82 1764.04 1187.4 1763 1178.99 1763 1167.59 1763 1158.14 1767.63 1147.13 1776.88 1134.55 1789.61 1116.61 1797.49 1102.34 1800.53 1091.73 1805.24 1069.83 1810.61 1058.87 1816.64 1058.87 1825.11 1058.87 1830.62 1070.44 1833.15 1093.59 1844.34 1082.14 1866.94 1072.08 1900.94 1063.42 1961.66 1047.94 2024.35 1040.21 2089.01 1040.21ZM1936.62 972C1950.95 972 1961.9 973.408 1969.47 976.225 1985.5 982.25 1996.85 990.836 2003.51 1001.98 2006.46 1007.09 2007.93 1015.32 2007.93 1026.7 2007.93 1038.9 2002.56 1045 1991.81 1045 1985.31 1045 1979.12 1042.79 1973.24 1038.38 1965.18 1038.38 1953.12 1036.23 1937.06 1031.94 1948.16 1025.19 1955.71 1020.24 1959.7 1017.1 1950.39 1008.47 1941.95 1003.01 1934.4 1000.71 1923.3 997.332 1917.75 991.658 1917.75 983.683 1917.75 975.894 1924.04 972 1936.62 972Z" fill="#FFFFFF" fill-rule="evenodd"/>
    <path d="M2320.9 1130.59C2319.61 1129.68 2317.2 1127.91 2315.56 1128.69 2314.22 1129.33 2312.74 1132.81 2312.06 1134.17 2312.06 1134.17 2305.88 1148.42 2305.88 1148.42 2297.56 1169.51 2293.27 1198.7 2308.49 1217.77 2308.49 1217.77 2299.73 1206.33 2299.73 1206.33 2296.41 1203.45 2286.66 1198.35 2282.41 1196.32 2278.1 1194.28 2273.94 1191.99 2269.37 1190.54 2252.45 1185.18 2238.87 1186.72 2222.8 1193.62 2224.97 1205.17 2229.02 1209.58 2230.87 1215.91 2226.71 1216.69 2219.88 1220.38 2216.6 1223.05 2215.14 1224.23 2212.93 1226.16 2213.64 1228.28 2214.19 1229.94 2218.21 1232.81 2219.69 1234.03 2226.35 1239.51 2231.02 1242.73 2238.32 1247.24 2249.2 1253.96 2264.5 1259.86 2277.44 1259.88 2283.23 1259.89 2285.99 1259.71 2291.72 1258.38 2291.72 1258.38 2299.17 1256.17 2299.17 1256.17 2295.47 1257.73 2292.58 1259.07 2288.61 1260.04 2285.34 1260.84 2283.16 1260.49 2279.92 1262.18 2277.64 1263.37 2273.45 1266.65 2271.23 1268.32 2254.65 1280.74 2245.77 1296.78 2245.77 1317.47 2245.77 1317.47 2255.71 1319.15 2255.71 1319.15 2255.71 1319.15 2268.74 1319.95 2268.74 1319.95 2268.74 1319.95 2268.18 1326.76 2268.18 1326.76 2267.94 1330.97 2269.28 1337.59 2270.61 1341.62 2275.69 1340.83 2288.78 1334.43 2293.58 1331.71 2308.84 1323.07 2322.04 1313.61 2330.35 1297.66 2331.61 1295.25 2332.98 1290.96 2333.63 1288.4 2334.65 1284.89 2335.47 1276.18 2335.84 1275.05 2335.84 1275.05 2335.42 1281.34 2335.22 1286.97 2335.07 1291.62 2335.19 1295.8 2335.19 1295.8 2335.2 1308.47 2342.59 1322.79 2351.34 1331.71 2357.33 1337.84 2363.31 1342.05 2371.2 1345.42 2372.88 1346.13 2377.45 1347.97 2379.14 1347.39 2380.76 1346.82 2381.56 1344.32 2382.23 1342.86 2384.05 1338.91 2386.97 1330.98 2387.34 1326.76 2393.23 1327.66 2395.16 1329.76 2402.87 1329.86 2404.39 1329.87 2408.08 1330.19 2408.93 1328.87 2409.82 1327.79 2409.02 1323.23 2408.93 1321.81 2408.93 1321.81 2404.95 1303.23 2404.95 1303.23 2404.95 1303.23 2401.66 1293.32 2401.66 1293.32 2396.8 1280.08 2390.18 1267.89 2378.65 1259.2 2369.6 1252.38 2366.85 1253.33 2361.89 1250.59 2370.67 1252.36 2373.4 1255.36 2378.65 1256.64 2390.45 1259.5 2407.5 1256.92 2418.39 1251.67 2427.07 1247.49 2433.26 1243.22 2439.45 1235.73 2440.83 1234.07 2444.38 1229.78 2444.5 1227.68 2444.61 1225.51 2442.25 1223.94 2440.75 1222.73 2436.77 1219.55 2431.36 1215.46 2426.46 1214.06 2430.57 1206.77 2434.96 1201.88 2435.16 1193 2435.16 1193 2416.53 1191.15 2416.53 1191.15 2416.53 1191.15 2401.63 1191.15 2401.63 1191.15 2388.72 1191.16 2371.23 1195.99 2360.64 1203.39 2353.98 1208.04 2352.45 1210.49 2347.6 1216.53 2347.6 1216.53 2350.95 1211.58 2350.95 1211.58 2353.25 1208.71 2356.02 1206.89 2357.72 1203.53 2360.41 1198.2 2362.38 1189.66 2363.21 1183.71 2365.95 1164.03 2362.9 1146.3 2351.33 1129.84 2343.51 1132.07 2337.87 1138.3 2331.46 1142.84 2329.26 1138.37 2325 1133.44 2320.9 1130.59Z" stroke="#FFFFFF" stroke-width="22.9167" stroke-miterlimit="8" fill="#FFFFFF" fill-rule="evenodd"/>
    <path d="M2320.4 1130.09C2319.11 1129.18 2316.7 1127.41 2315.06 1128.19 2313.72 1128.83 2312.24 1132.31 2311.56 1133.67 2311.56 1133.67 2305.38 1147.92 2305.38 1147.92 2297.06 1169.01 2292.77 1198.2 2307.99 1217.27 2307.99 1217.27 2299.23 1205.83 2299.23 1205.83 2295.91 1202.95 2286.16 1197.85 2281.91 1195.82 2277.6 1193.78 2273.44 1191.49 2268.87 1190.04 2251.95 1184.68 2238.37 1186.22 2222.3 1193.12 2224.47 1204.67 2228.52 1209.08 2230.37 1215.42 2226.21 1216.19 2219.38 1219.88 2216.1 1222.55 2214.64 1223.73 2212.43 1225.66 2213.14 1227.78 2213.69 1229.44 2217.71 1232.31 2219.19 1233.53 2225.85 1239.01 2230.52 1242.23 2237.82 1246.74 2248.7 1253.46 2264 1259.36 2276.94 1259.38 2282.73 1259.39 2285.49 1259.21 2291.22 1257.88 2291.22 1257.88 2298.67 1255.67 2298.67 1255.67 2294.97 1257.23 2292.08 1258.57 2288.11 1259.54 2284.84 1260.34 2282.66 1259.99 2279.42 1261.68 2277.14 1262.87 2272.95 1266.15 2270.73 1267.82 2254.15 1280.24 2245.27 1296.28 2245.27 1316.97 2245.27 1316.97 2255.21 1318.65 2255.21 1318.65 2255.21 1318.65 2268.24 1319.45 2268.24 1319.45 2268.24 1319.45 2267.68 1326.26 2267.68 1326.26 2267.44 1330.47 2268.78 1337.09 2270.11 1341.12 2275.19 1340.33 2288.28 1333.93 2293.08 1331.21 2308.34 1322.57 2321.54 1313.11 2329.85 1297.16 2331.11 1294.75 2332.48 1290.46 2333.13 1287.9 2334.15 1284.39 2334.97 1275.68 2335.34 1274.55 2335.34 1274.55 2334.92 1280.84 2334.72 1286.47 2334.57 1291.12 2334.69 1295.3 2334.69 1295.3 2334.7 1307.97 2342.09 1322.29 2350.84 1331.21 2356.83 1337.34 2362.81 1341.55 2370.7 1344.92 2372.38 1345.63 2376.95 1347.47 2378.64 1346.89 2380.26 1346.32 2381.06 1343.82 2381.73 1342.36 2383.55 1338.41 2386.47 1330.48 2386.84 1326.26 2392.73 1327.17 2394.66 1329.26 2402.37 1329.36 2403.89 1329.37 2407.58 1329.69 2408.43 1328.37 2409.32 1327.3 2408.52 1322.73 2408.43 1321.31 2408.43 1321.31 2404.45 1302.73 2404.45 1302.73 2404.45 1302.73 2401.16 1292.82 2401.16 1292.82 2396.3 1279.58 2389.68 1267.39 2378.15 1258.7 2369.1 1251.88 2366.35 1252.83 2361.39 1250.09 2370.17 1251.86 2372.9 1254.86 2378.15 1256.14 2389.95 1259 2407 1256.42 2417.89 1251.17 2426.57 1246.99 2432.76 1242.72 2438.95 1235.23 2440.33 1233.57 2443.88 1229.28 2444 1227.18 2444.11 1225.01 2441.75 1223.44 2440.25 1222.23 2436.27 1219.05 2430.86 1214.96 2425.96 1213.56 2430.07 1206.27 2434.46 1201.38 2434.66 1192.5 2434.66 1192.5 2416.03 1190.64 2416.03 1190.64 2416.03 1190.64 2401.13 1190.64 2401.13 1190.64 2388.22 1190.66 2370.73 1195.49 2360.14 1202.89 2353.48 1207.54 2351.95 1209.99 2347.1 1216.03 2347.1 1216.03 2350.45 1211.08 2350.45 1211.08 2352.75 1208.21 2355.52 1206.39 2357.22 1203.03 2359.91 1197.7 2361.88 1189.16 2362.71 1183.21 2365.45 1163.53 2362.4 1145.8 2350.83 1129.34 2343.01 1131.57 2337.37 1137.8 2330.96 1142.34 2328.76 1137.87 2324.5 1132.94 2320.4 1130.09Z" fill="#E27FAF" fill-rule="evenodd"/>
  </g>
</svg>