<svg width="1650" height="1035"
  xmlns="http://www.w3.org/2000/svg"
  xmlns:xlink="http://www.w3.org/1999/xlink" xml:space="preserve" overflow="hidden">
  <defs>
    <clipPath id="clip0">
      <rect x="1375" y="720" width="1650" height="1035"/>
    </clipPath>
  </defs>
  <g clip-path="url(#clip0)" transform="translate(-1375 -720)">
    <path d="M2749.66 1551.13C2752.54 1550.55 2755.55 1550.59 2757.53 1551.49 2760.15 1552.68 2762.06 1554.11 2763.35 1555.74 2767.2 1560.61 2765.45 1567.22 2760.59 1574.18 2751.91 1578.63 2744.26 1577.59 2740.66 1569.67 2738.78 1565.51 2739.67 1557.63 2742.59 1554.47 2744.04 1552.9 2746.79 1551.71 2749.66 1551.13ZM2803.51 1538.97C2807.93 1539.75 2811.99 1542.34 2815.51 1546.35 2817.4 1548.5 2818.71 1550.74 2819.51 1553 2821.89 1559.78 2819.56 1566.82 2813.85 1572.66 2804.99 1581.71 2795.07 1580.74 2784.97 1571.89 2777.39 1557.35 2778.87 1549.18 2789.34 1542.42 2794.31 1539.21 2799.09 1538.18 2803.51 1538.97ZM2254.7 1535.38C2258.01 1535.87 2261.24 1537.07 2263.18 1538.75 2266.12 1541.3 2266.2 1550.65 2263.87 1555.02 2259.48 1563.29 2251.62 1561.92 2243.79 1556.43 2237.56 1548.22 2238.09 1540.15 2245.74 1536.25 2248 1535.11 2251.39 1534.89 2254.7 1535.38ZM1985.54 1531.69C1991.16 1532.64 1996.17 1537.18 2001.53 1541.24 2001.15 1552.85 1996.38 1559.54 1985.04 1557.33 1976.19 1555.61 1972.39 1548.73 1975.59 1540.37 1977.06 1536.55 1982.67 1531.21 1985.54 1531.69ZM2923.91 1529.35C2927.15 1528.67 2930.57 1528.68 2932.99 1529.55 2933.86 1529.86 2934.7 1530.65 2935.47 1531.74 2936.23 1532.82 2936.92 1534.2 2937.48 1535.69 2938.6 1538.66 2939.18 1542.08 2938.78 1544.48 2937.32 1553.35 2930.06 1555.92 2920.5 1552.78 2911.71 1547.23 2910.28 1539.28 2915.89 1533.22 2917.59 1531.38 2920.66 1530.02 2923.91 1529.35ZM2121.6 1505.34C2126.76 1505.88 2132.26 1507.48 2137.96 1510.18 2141.91 1513.91 2145.07 1517.66 2147.46 1521.4 2154.64 1532.63 2154.88 1543.83 2148.43 1554.62 2140.07 1568.62 2124.17 1574.94 2109.42 1570.12 2091.89 1564.4 2081.42 1543.72 2087.68 1527.22 2093.63 1511.54 2106.1 1503.72 2121.6 1505.34ZM2870.37 1502.57C2876.6 1503.51 2883.2 1507.97 2888.36 1515.6 2891.15 1527.97 2888.15 1537.12 2876.66 1541.37 2867.32 1544.83 2857.35 1542.61 2853.59 1533.8 2850.79 1527.25 2851.08 1516.79 2854.56 1510.69 2858.26 1504.23 2864.13 1501.64 2870.37 1502.57ZM2325.5 1498.16C2330.15 1498.41 2334.93 1499.61 2339.63 1501.84 2346.17 1504.93 2351.33 1510.49 2354.47 1517.12 2357.61 1523.75 2358.73 1531.46 2357.16 1538.88 2353.66 1555.48 2340.84 1564.46 2319.2 1564.61 2295.38 1556.83 2285.32 1538.75 2293.14 1519.46 2298.91 1505.24 2311.58 1497.42 2325.5 1498.16ZM2762.82 1495.15C2769.17 1495.36 2777.02 1501.23 2781.11 1506.89 2787.71 1516.02 2782.29 1524.44 2774 1531.72 2763.48 1535.83 2753.8 1535.28 2748.33 1526.22 2745.15 1520.96 2743.61 1511.84 2746.1 1506.81 2748.85 1501.22 2757.15 1494.96 2762.82 1495.15ZM2983.42 1491.84C2985.75 1492.83 2987.62 1494.79 2988.97 1497.55 2989.88 1499.38 2990.55 1501.57 2990.97 1504.05 2989.7 1513.68 2985.02 1520.39 2976.27 1517.95 2971.32 1516.58 2965.43 1509.69 2964.78 1504.67 2964.28 1500.79 2970.48 1493.73 2975.14 1492.02 2978.31 1490.85 2981.09 1490.86 2983.42 1491.84ZM2050.52 1485.28C2053.73 1485.47 2057.13 1486.34 2059.29 1487.66 2061.28 1488.88 2062.66 1490.28 2063.53 1491.81 2066.12 1496.4 2064.05 1502.2 2059.83 1507.94 2050.93 1513.61 2042.53 1512.28 2038.87 1504.18 2036.83 1499.66 2039.18 1490.53 2042.89 1486.92 2044.29 1485.56 2047.31 1485.08 2050.52 1485.28ZM2280.21 1475.11C2285.87 1477.82 2289.87 1481.48 2291.87 1485.66 2293.86 1489.85 2293.85 1494.57 2291.48 1499.39 2288.42 1505.63 2279.38 1512.57 2273.05 1512.54 2266.74 1512.52 2257.9 1505.5 2254.71 1499.24 2247.72 1485.51 2260.58 1473.36 2280.21 1475.11ZM1995.95 1472.05C1995.77 1472.49 1995.58 1472.94 1994.92 1473.06 1994.45 1472.73 1994.45 1472.92 1994.45 1473.01 1994.95 1472.75 1995.45 1472.4 1995.95 1472.05ZM2347.44 1464.43C2350.52 1464.53 2353.59 1465.27 2355.58 1466.6 2358.82 1468.76 2360.77 1477.11 2359.28 1481.27 2355.65 1491.4 2347.33 1491.51 2337.8 1486.28 2331.48 1478.41 2332.13 1470.59 2339.26 1466.15 2341.27 1464.89 2344.36 1464.34 2347.44 1464.43ZM2020.76 1455.92C2023.05 1456.75 2025.5 1459 2027.38 1461.68 2029.26 1464.36 2030.59 1467.47 2030.65 1469.98 2030.87 1478.8 2023.96 1482.69 2013.94 1481.01 2004.24 1477.2 2001.18 1470.17 2006 1462.81 2008.68 1458.72 2016.98 1454.56 2020.76 1455.92ZM2081.92 1452.84C2085.58 1453.55 2089.43 1455.01 2093.33 1457.3 2101.51 1468.54 2100.42 1479.36 2090.62 1486.17 2085.32 1489.86 2075.28 1490.09 2068.76 1487.85 2059.36 1484.64 2056.88 1475.26 2059.31 1465.63 2061.87 1455.51 2070.97 1450.73 2081.92 1452.84ZM2918.85 1443.7C2927.75 1443.63 2936.65 1447.22 2943.56 1454.49 2947.08 1458.19 2949.62 1462.22 2951.19 1466.41 2955.89 1478.98 2951.81 1492.99 2939.05 1503.89 2919.65 1513.84 2903.99 1511.77 2894.15 1498.8 2883.37 1484.57 2883.36 1466.38 2894.14 1454.87 2901.05 1447.49 2909.95 1443.76 2918.85 1443.7ZM2858.6 1414.69C2864.56 1414.03 2872.41 1417.28 2877.1 1421.4 2878.8 1422.9 2880.19 1424.63 2881.22 1426.5 2884.3 1432.09 2884.08 1438.88 2879.22 1444.15 2874.72 1449.03 2866.8 1453.27 2860.41 1453.27 2851.2 1453.25 2844.06 1447.07 2842.99 1435.49 2842.69 1423.53 2848.38 1415.83 2858.6 1414.69ZM2979.53 1414.52C2986.89 1414.66 2993.64 1417.57 2996.52 1423.29 2997.48 1425.2 2998.01 1427.42 2998 1429.95 2997.96 1437.27 2994.26 1447.76 2988.77 1450.97 2983.27 1454.17 2972.67 1451.81 2965.96 1448.51 2962.03 1446.58 2961.35 1438.06 2959.4 1431.46 2962.04 1419.84 2969.05 1414.33 2979.53 1414.52ZM2925.76 1395.86C2928.16 1398.85 2929.88 1401.77 2930.95 1404.49 2934.17 1412.64 2931.51 1418.99 2923.5 1420.12 2918.69 1420.8 2911.7 1418.57 2908.62 1415.09 2906.09 1412.22 2905.81 1403.28 2908.22 1401.07 2912.17 1397.46 2919.12 1397.14 2925.76 1395.86ZM2886.26 1366.23C2888.63 1368.11 2890.37 1370.08 2891.53 1372.06 2895.01 1377.98 2893.27 1384 2887.49 1388.14 2883.46 1391.04 2872.44 1390.17 2869.33 1386.71 2866.25 1383.3 2867.47 1373.63 2870.14 1368.4 2871.54 1365.65 2880.06 1366.52 2886.26 1366.23ZM2565.78 1360.5C2570.32 1361.47 2573.95 1363.26 2576.11 1365.79 2578.27 1368.33 2578.96 1371.62 2577.62 1375.61 2576.05 1380.3 2569.84 1386.27 2565.52 1386.44 2561.01 1386.61 2553.75 1381.41 2552.14 1376.95 2548.53 1366.98 2554.24 1361.16 2565.78 1360.5ZM2609.48 1345.24C2613.77 1344.82 2618.26 1346.04 2622.77 1348.48 2625 1349.69 2626.88 1351.39 2628.35 1353.4 2632.77 1359.44 2633.55 1368.31 2629.35 1375.25 2622.76 1386.17 2613.03 1387.78 2601.04 1381.76 2590.64 1370.91 2589.55 1360.56 2597.39 1351.85 2601.1 1347.73 2605.19 1345.67 2609.48 1345.24ZM2583.51 1310.89C2587.45 1310.68 2593.79 1312.31 2595.15 1314.59 2597.83 1319.09 2598.6 1328.12 2595.76 1331.83 2589.96 1339.4 2581.46 1339.86 2574.17 1330.17 2575.8 1323.23 2576.61 1315.94 2580.64 1311.76 2581.15 1311.23 2582.2 1310.96 2583.51 1310.89ZM2407.31 1272.92C2410.73 1272.55 2416.37 1273.81 2418.75 1275.86 2421.87 1278.55 2423.6 1285.33 2422.72 1289.67 2420.6 1300.21 2409.73 1301.57 2398.1 1292.51 2399.82 1285.54 2400.87 1278.44 2404.83 1273.86 2405.27 1273.34 2406.17 1273.04 2407.31 1272.92ZM2018.39 1260.22C2022.38 1260.25 2025.98 1262.1 2028.8 1266.07 2031.96 1270.49 2033.11 1279.91 2030.44 1283.97 2027.41 1288.57 2018.93 1292.18 2013.11 1291.79 2001.77 1291.05 1998.34 1278.58 2005.65 1265.27 2010.02 1261.97 2014.4 1260.18 2018.39 1260.22ZM1952.07 1257.41C1963.97 1256.41 1972.82 1260.59 1979.46 1269.82 1988.93 1282.99 1988.9 1297.75 1979.37 1310.72 1970.93 1322.22 1956.2 1327.12 1942.51 1321.99 1930.1 1317.34 1921.37 1308.99 1920.05 1294.84 1918.61 1279.49 1924.31 1267.94 1939.11 1260.14 1943.79 1258.65 1948.1 1257.75 1952.07 1257.41ZM2452.96 1251.62C2460.45 1251.87 2467.73 1256.47 2470.91 1263.95 2474.87 1273.26 2472.76 1281.83 2464.72 1287.59 2454.46 1294.95 2444.64 1292.6 2435.66 1282.68 2431.07 1267.28 2434.75 1257.1 2445.55 1252.87 2447.95 1251.93 2450.47 1251.53 2452.96 1251.62ZM2653.82 1242.47C2670.44 1242.35 2682.55 1248.42 2688.52 1263.34 2693.93 1276.86 2691.84 1289.3 2680.81 1299.72 2670.57 1309.39 2657.15 1311.97 2644.1 1306.4 2632.93 1301.63 2624.06 1287.9 2624.35 1275.82 2624.7 1260.64 2632.35 1249.82 2646.5 1244.58 2648.58 1243.81 2650.71 1243.21 2653.82 1242.47ZM2237.85 1233.8C2244.99 1234.25 2250.3 1239.14 2254.29 1247.46 2255.76 1263.71 2249.66 1272.65 2237.71 1273.4 2226.28 1274.12 2216.35 1265.88 2215.77 1254.88 2215.22 1244.53 2220.62 1237.85 2230.08 1234.88 2232.89 1234 2235.47 1233.65 2237.85 1233.8ZM2021.05 1203.73C2027.31 1205.52 2033.32 1210.94 2037.25 1219.55 2038.76 1232.19 2032.83 1239.5 2022.35 1242.58 2013.19 1245.27 2005.92 1241.32 2000.95 1233.05 1995.82 1224.53 1997.39 1216.72 2003.37 1209.62 2008.29 1203.76 2014.79 1201.94 2021.05 1203.73ZM2296.15 1200.84C2300.96 1200.25 2306.72 1201.65 2313.45 1205.12 2315.74 1207.94 2317.49 1210.66 2318.69 1213.27 2322.31 1221.12 2321.07 1228.07 2315.27 1234.14 2308.44 1241.3 2296.07 1242.21 2288.64 1236.09 2280.53 1229.42 2278.74 1217.32 2284.55 1208.46 2287.47 1204 2291.33 1201.42 2296.15 1200.84ZM2253.55 1173.63C2257.88 1174.18 2262.12 1176.38 2266 1179.94 2268.28 1182.02 2269.88 1184.36 2270.81 1186.85 2273.6 1194.33 2270.33 1203.21 2261.03 1210.91 2248.15 1216.63 2239.5 1212.82 2233.74 1201.62 2228.52 1191.46 2232.65 1182.95 2240.6 1177.21 2244.81 1174.17 2249.22 1173.08 2253.55 1173.63ZM2704.03 1172.71C2709.86 1174.58 2714.58 1177.48 2717.4 1181.22 2720.22 1184.96 2721.15 1189.54 2719.41 1194.77 2717.12 1201.66 2709.15 1208.84 2702.08 1211.45 2692.89 1214.85 2685.09 1208.53 2681.35 1199.29 2675.92 1185.93 2685.26 1174.54 2704.03 1172.71ZM2757.23 1169.16C2760.68 1169.42 2763.67 1171.52 2765.74 1175.25 2768.28 1179.81 2767.96 1188.79 2764.94 1192.71 2762.57 1195.78 2753.04 1196.31 2748.55 1194.13 2740.33 1190.15 2740.49 1182.3 2746.01 1174.05 2749.9 1170.45 2753.79 1168.89 2757.23 1169.16ZM2395.42 1158.8C2399.32 1159.66 2403.11 1161.29 2405.76 1163.38 2407.81 1164.99 2409.31 1166.82 2410.31 1168.8 2413.3 1174.75 2411.75 1182.12 2406.66 1189.36 2397.9 1191.45 2388.92 1195.38 2381.95 1193.11 2377.07 1191.53 2371.99 1181.27 2372.41 1175.26 2372.83 1169.26 2378.98 1160.61 2384.46 1158.84 2387.53 1157.84 2391.53 1157.93 2395.42 1158.8ZM2663.06 1144.02C2666.85 1144.54 2672.58 1147.18 2673.02 1149.17 2674.33 1155.06 2674.19 1164.47 2670.52 1167.59 2663.05 1173.93 2654.89 1170.57 2649.69 1160.61 2652.82 1154.34 2655.37 1147.73 2660.19 1144.31 2660.75 1143.91 2661.8 1143.85 2663.06 1144.02ZM2448.54 1141.72C2452.25 1141.99 2456.22 1144.4 2460.09 1148.44 2459.06 1155.52 2459.07 1163.27 2455.21 1167.31 2453 1169.62 2442.36 1167.74 2439.39 1164.35 2436.43 1160.98 2436.04 1151.95 2438.55 1147.89 2441.37 1143.33 2444.82 1141.45 2448.54 1141.72ZM2421.37 1121.65C2425.75 1122.44 2428.59 1124.64 2429.93 1127.84 2431.27 1131.04 2431.11 1135.23 2429.49 1140 2423.9 1148.85 2415.91 1150.08 2409.94 1144.48 2406.31 1141.08 2404.75 1132.2 2406.55 1127.37 2407.83 1123.93 2416.65 1120.81 2421.37 1121.65ZM2385.87 1117.61C2387.8 1118.06 2389.48 1119.15 2390.84 1120.81 2393.56 1124.13 2395.01 1129.71 2394.65 1136.92 2388.04 1139.58 2381.7 1142.89 2375.79 1142.24 2372.91 1141.93 2368.32 1133.73 2369.05 1130.01 2369.95 1125.48 2374.92 1120.05 2379.41 1118.29 2381.77 1117.36 2383.95 1117.16 2385.87 1117.61ZM2061.93 1116.82C2064.82 1117.29 2067.73 1118.35 2069.73 1119.74 2071.9 1121.24 2073.34 1122.94 2074.07 1124.75 2076.27 1130.2 2072.09 1136.72 2062.14 1142.31 2056.31 1138.85 2049.37 1136.06 2047.43 1131.25 2046.07 1127.89 2050.36 1119.57 2054.27 1117.5 2056.18 1116.49 2059.04 1116.35 2061.93 1116.82ZM2727.58 1091.14C2737.14 1091.59 2745.37 1095.6 2751.11 1101.92 2753.97 1105.07 2756.22 1108.8 2757.69 1112.94 2759.17 1117.09 2759.88 1121.64 2759.67 1126.45 2758.9 1144.42 2743.74 1158.28 2725.28 1157.82 2722.63 1157.76 2719.98 1157.3 2716.4 1156.65 2696.84 1146.79 2689.24 1132.52 2693.74 1115.52 2697.62 1100.85 2712.1 1090.42 2727.58 1091.14ZM2272.97 1083.8C2277.8 1083.48 2283.1 1083.95 2288.8 1085.26 2298.52 1090.56 2305 1097.52 2308.05 1105.3 2311.09 1113.09 2310.69 1121.71 2306.62 1130.33 2299.1 1146.3 2280.93 1153.91 2265.24 1147.68 2248.21 1140.92 2239.51 1123.88 2244.33 1106.71 2248.21 1092.89 2258.47 1084.78 2272.97 1083.8ZM2850.63 1078.67C2855.73 1079.17 2859.63 1080.89 2861.97 1083.52 2864.31 1086.15 2865.09 1089.68 2863.95 1093.81 2862.59 1098.75 2855.88 1104.77 2850.96 1105.38 2847.08 1105.86 2840.07 1099.63 2838.35 1094.94 2835.14 1086.2 2841.56 1081.26 2850.63 1078.67ZM2093.73 1063.04C2099.23 1064.05 2103.53 1067.32 2105.84 1072.57 2110.73 1083.67 2106.15 1096.75 2094.27 1099.28 2087.77 1100.66 2078.07 1098.25 2073.28 1093.82 2065.39 1086.5 2065.5 1076.33 2074.39 1067.01 2081.53 1063.26 2088.23 1062.02 2093.73 1063.04ZM2008.51 1044.84C2018.86 1043.35 2029.68 1046.44 2036.83 1053.51 2039.56 1056.2 2041.76 1059.13 2043.44 1062.21 2048.49 1071.48 2048.79 1082.21 2044 1092.45 2038.54 1104.13 2025.81 1112.15 2013.02 1111.24 1997.98 1110.18 1987.19 1103.03 1982.05 1087.17 1979.2 1068.26 1985.36 1054.21 1998.48 1047.88 2001.67 1046.35 2005.07 1045.34 2008.51 1044.84ZM1774.65 1032C1779.38 1030.88 1784.03 1032.16 1788.98 1035.69 1791.36 1037.38 1793.24 1039.23 1794.63 1041.2 1798.82 1047.12 1798.69 1054.15 1794.81 1061.52 1789.41 1071.8 1779.96 1074.32 1769.76 1070.07 1757.91 1065.13 1755.21 1055.48 1759.79 1042.7 1765.1 1036.64 1769.92 1033.12 1774.65 1032ZM2822.79 1026.87C2827.83 1026.01 2832.87 1027.3 2838.03 1032.16 2840.11 1034.12 2841.69 1036.28 2842.78 1038.56 2846.06 1045.39 2844.91 1053.22 2839.5 1059.47 2831.27 1068.96 2821.6 1068.75 2807.11 1058.47 2806.41 1050.49 2806.69 1042.82 2807.61 1034.49 2812.72 1030.74 2817.75 1027.73 2822.79 1026.87ZM2884.56 1006.02C2892.55 1006.2 2900.56 1009.49 2907.24 1015.85 2910.3 1018.75 2912.7 1022.21 2914.42 1025.95 2919.57 1037.19 2918.56 1051.05 2910.44 1060.46 2906.52 1065.02 2900.82 1068.04 2894.81 1072.19 2884.33 1071.43 2874.97 1070.24 2864.56 1068.98 2846.77 1045.94 2846.3 1029.19 2861.98 1014.82 2868.6 1008.76 2876.57 1005.84 2884.56 1006.02ZM2402.59 983.03C2410.77 982.277 2416.75 986.573 2420.94 995.006 2425.9 1004.98 2422.26 1013.57 2414.18 1019.58 2405.48 1026.05 2396.54 1023.8 2388.86 1016.71 2379.71 1008.27 2381.22 996.827 2393.66 985.499 2396.89 984.093 2399.87 983.281 2402.59 983.03ZM2584.38 974.478C2587.84 973.935 2591.78 974.999 2595.97 977.973 2601.53 990.47 2599.1 999.871 2589.95 1000.69 2585.28 1001.12 2578.59 998.395 2575.81 994.786 2573.42 991.681 2573.41 984.064 2575.67 980.624 2577.94 977.171 2580.92 975.021 2584.38 974.478ZM2870.42 969.464C2871.81 971.483 2872.73 974.073 2874.54 975.669 2876.27 977.201 2877.62 978.837 2878.58 980.513 2881.45 985.544 2880.74 990.949 2876.1 995.078 2872.37 998.403 2863.83 999.596 2859.02 997.722 2850.46 994.39 2850.84 986.419 2854.81 978.835 2855.61 977.302 2856.17 975.643 2856.79 973.097 2857.56 971.553 2858.38 970.953 2860.58 970.948 2864.81 970.958 2867.66 970.372 2870.52 969.789 2870.52 969.789 2870.37 969.578 2870.42 969.464ZM2443.6 961.152C2448.48 960.524 2453 964.258 2456.3 970.435 2459.14 981.236 2454.53 987.73 2445.34 987.997 2440.62 988.137 2432.43 983.092 2431.73 979.298 2430.83 974.392 2434.41 966.473 2438.64 963.306 2440.31 962.056 2441.97 961.362 2443.6 961.152ZM1825.62 958.235C1831.38 957.196 1839.2 958.607 1843.79 962.023 1845.68 963.433 1847.24 965.042 1848.43 966.823 1852 972.165 1852.26 979.048 1848.35 986.693 1841.59 996.228 1832.57 999.994 1823.76 994.504 1818.03 990.936 1813.06 983.059 1811.71 976.315 1809.84 967.052 1816.71 959.844 1825.62 958.235ZM1769.09 957.994C1778.22 960.019 1784.83 963.537 1789 968.483 1793.17 973.429 1794.89 979.802 1794.22 987.536 1793.12 1000.4 1782.87 1010.86 1770.2 1012.03 1756.28 1013.32 1744.1 1004.45 1740.83 990.662 1736.76 973.441 1747.89 960.04 1769.09 957.994ZM2611.85 925.541C2616.79 925.134 2621.53 927.013 2626.18 931.087 2628.32 932.968 2629.88 934.944 2630.93 936.986 2634.08 943.112 2632.68 949.831 2629.04 956.336 2624.29 964.844 2611.63 967.607 2603.23 963.009 2593.25 957.554 2590.65 947.722 2596.33 933.713 2601.77 928.642 2606.91 925.948 2611.85 925.541ZM2681.66 905.736C2685.95 904.475 2694.4 907.941 2696.86 911.913 2701.61 919.617 2698.62 927.254 2688.64 931.484 2678.07 932.945 2672.39 927.373 2672.38 919.214 2672.38 914.467 2677.42 906.982 2681.66 905.736ZM2741.25 888.304C2743.67 888.782 2746.16 889.841 2748.71 891.535 2752.88 894.298 2755.96 897.753 2757.51 901.813 2759.05 905.873 2759.05 910.539 2757.04 915.724 2753.25 925.521 2743.06 930.707 2733.44 927.842 2720.65 924.037 2716.84 915.318 2721.45 898.235 2727.36 890.658 2734 886.868 2741.25 888.304ZM2401.95 887.183C2406.34 887.457 2410.76 888.612 2414.96 890.732 2422.25 894.407 2427.6 900.308 2430.52 907.279 2433.44 914.249 2433.93 922.288 2431.51 930.238 2426.32 947.314 2412.28 955.316 2390.75 952.644 2368.65 942.983 2360.79 924.919 2369.72 906.264 2375.84 893.47 2388.77 886.36 2401.95 887.183ZM2720.24 853.32C2722.99 853.438 2725.89 854.116 2727.93 855.155 2730.36 856.396 2732.08 857.994 2733.1 859.825 2736.16 865.316 2732.93 872.896 2723.84 879.168 2717.78 876.12 2710.66 873.956 2708.28 869.343 2706.56 866.027 2709.8 857.758 2713.38 854.843 2714.86 853.644 2717.48 853.202 2720.24 853.32ZM1845.07 850.747C1848.14 850.781 1851.47 851.29 1855 852.301 1857.67 854.667 1859.8 857.1 1861.41 859.549 1866.22 866.897 1866.22 874.404 1861.24 880.784 1854.38 889.593 1845.49 892.518 1835.42 886.613 1826.26 881.237 1822.88 872.777 1826.39 862.583 1829.06 854.828 1835.87 850.647 1845.07 850.747ZM1948.09 840.32C1950.62 840.281 1953.19 840.906 1955.63 842.341 1958.82 844.221 1962 847.44 1964.45 851.086 1966.9 854.732 1968.62 858.805 1968.9 862.392 1969.83 874.099 1960.36 879.766 1947.8 880.56 1932.31 874.937 1926.95 866.404 1930.62 854.759 1933.2 846.548 1940.5 840.44 1948.09 840.32ZM2615.4 798.161C2618.3 798.512 2621.27 799.297 2624.31 800.543 2630.88 803.232 2635.97 807.053 2639.53 811.976 2643.09 816.899 2645.12 822.923 2645.56 830.018 2645.81 833.968 2645.05 837.976 2644.2 843.521 2638.79 850.584 2633.94 856.086 2629.08 861.589 2602.11 868.467 2584.21 860.627 2579.55 839.261 2576.71 826.203 2580.06 814.698 2590.96 806.012 2598.56 799.958 2606.68 797.106 2615.4 798.161ZM2760.48 792.262C2763.02 791.938 2765.66 792.069 2768.24 792.719 2773.85 794.126 2777.85 797.356 2780.01 802.164 2782.17 806.971 2782.49 813.356 2780.73 821.071 2772.76 831.741 2763.64 835.023 2752.45 828.828 2743.19 823.7 2741.76 815.066 2744.13 805.895 2746.1 798.325 2752.86 793.237 2760.48 792.262ZM1890.96 786C1898.33 785.975 1905.82 788.305 1911.64 792.997 1915.11 795.801 1917.88 799.174 1919.91 802.872 1926 813.965 1925.42 827.986 1917.35 838.399 1905.42 853.799 1885.6 854.618 1867.17 839.537 1855.82 820.708 1857.35 805.13 1870.96 793.135 1876.33 788.406 1883.59 786.026 1890.96 786Z" fill="#E27FAF" fill-rule="evenodd" fill-opacity="0.25098"/>
    <path d="M1991.64 1165.35C1976.95 1165.59 1962.71 1168.25 1952.51 1183.36 1970.06 1188.18 1978.89 1200.45 1977.29 1216.02 1975.89 1229.77 1963.33 1239.14 1950.41 1240.76 1926.46 1243.76 1923.12 1223.03 1917.94 1204.48 1913.94 1213.55 1910.91 1220.42 1907.12 1229.06 1876.35 1292.79 1837.09 1350.5 1784.3 1400.84 1790.15 1399.98 1794.02 1399.32 1797.91 1398.85 1850.36 1392.51 1902.85 1386.49 1955.23 1379.63 1965.94 1378.22 1977.09 1375.29 1986.6 1370.31 2043.23 1340.65 2070.76 1288.36 2061.58 1229.87 2060.08 1220.28 2057.16 1211.41 2053.08 1203.52 2040.84 1179.84 2018.13 1164.91 1991.64 1165.35ZM2591.3 893.342C2595.58 894.538 2599.85 895.734 2604.83 897.394 2605.91 899.899 2606.29 901.941 2607.09 904.699 2601.28 903.645 2595.06 901.877 2588.71 898.839 2589.49 896.16 2590.39 894.75 2591.3 893.342ZM2586.88 892.63C2588.83 891.685 2589.64 891.839 2590.84 892.89 2590.39 894.75 2589.49 896.16 2588.05 898.214 2585.93 898.253 2584.35 897.646 2582.15 896.418 2582.98 894.96 2584.41 894.124 2586.88 892.63ZM2575.06 884.172C2579.45 886.005 2583.09 888.277 2586.29 891.92 2584.41 894.125 2582.98 894.96 2581.55 895.796 2577.84 893.45 2574.14 891.107 2570.12 887.966 2571.3 886.318 2572.81 885.466 2575.06 884.172ZM2557.42 857.299C2563.19 865.463 2568.96 873.626 2574.53 883.202 2572.81 885.465 2571.3 886.318 2569.8 887.169 2563.84 878.795 2557.87 870.425 2552.7 860.603 2554.8 858.534 2556.1 857.917 2557.42 857.299ZM2554.63 850.227C2556.21 851.709 2556.74 853.543 2557.35 856.339 2556.1 857.917 2554.8 858.534 2552.46 859.522 2550.88 858.046 2550.32 856.204 2549.68 853.392 2550.93 851.811 2552.26 851.195 2554.63 850.227ZM2551.87 835.856C2554.11 839.539 2554.79 843.795 2554.53 849.314 2552.26 851.195 2550.93 851.812 2549.6 852.425 2548.71 848.043 2547.81 843.664 2547.06 838.45 2548.25 837.219 2549.28 836.821 2551.87 835.856ZM2616.32 765.9C2638.37 765.935 2658.75 776.044 2669.54 793.534 2679.32 809.388 2679.83 825.711 2671.27 841.78 2662.87 857.564 2648.61 863.511 2630.19 861.933 2634.16 856.231 2639.01 850.726 2644.59 844.641 2663.45 840.363 2671.67 820.87 2662.78 802.658 2650.42 777.325 2615.83 766.861 2589.1 779.843 2566.42 790.855 2555.08 808.839 2552.09 835.055 2549.28 836.821 2548.25 837.219 2547.21 837.615 2545.42 806.072 2564.2 778.666 2594.02 769.322 2601.44 766.995 2608.98 765.888 2616.32 765.9ZM2620.36 720.061C2629.76 719.731 2639.5 720.747 2649.57 723.279 2685.67 732.353 2705.44 758.446 2712.81 793.828 2720.26 829.614 2708.52 859.628 2681.99 884.107 2661.32 903.187 2636.48 909.076 2607.88 905.163 2606.29 901.941 2605.91 899.899 2605.53 897.858 2670.82 908.008 2716.89 847.014 2701.89 792.415 2688.06 742.055 2639.82 720.352 2591.73 740.493 2525.83 768.093 2492.74 854.04 2504.3 918.324 2509.81 949.026 2522.78 978.413 2532.69 1008.29 2539.41 1028.54 2547.56 1048.35 2553.47 1068.83 2559.35 1089.18 2563.23 1110.12 2567.91 1130.49 2582.66 1106.62 2597.79 1082.45 2612.45 1058.01 2614 1055.42 2613.29 1051.11 2612.82 1047.72 2610.44 1030.42 2613.61 1014.41 2620.87 998.415 2632.54 972.723 2642.75 946.366 2653.65 920.114 2670.86 939.532 2671.7 965.616 2670.6 990.846 2695.97 972.262 2720.75 951.831 2747.72 934.871 2793.19 906.273 2842.29 887.07 2897.41 890.081 2941.32 892.48 2977.57 913.252 3000.07 943.97 3022.57 974.689 3031.31 1015.35 3020.19 1057.54 2997.79 1142.49 2888.31 1178.11 2825.92 1120.75 2791.03 1088.67 2786.95 1034.93 2816.42 995.672 2844.85 957.805 2892.55 947.23 2931.42 970.738 2972.67 995.686 2983.86 1053.7 2945.52 1086.36 2923.04 1105.5 2893.58 1103.26 2872.19 1079.14 2869.82 1076.48 2867.73 1073.57 2865.67 1070.05 2875.19 1070.52 2884.55 1071.71 2893.9 1072.89 2907.97 1094.06 2929.85 1087.11 2944.47 1071.3 2967.78 1046.07 2961.65 1004.02 2931.26 981.309 2913.76 968.228 2893.97 963.341 2871.42 969.029 2870.59 969.792 2870.73 970.003 2870.22 969.259 2866.79 969.083 2863.87 969.647 2860.19 970.389 2858.6 971.167 2857.77 971.768 2856.95 972.369 2830.88 984.337 2816.2 1005.58 2807.71 1033.84 2806.9 1043.08 2806.62 1050.76 2806.34 1058.44 2810.14 1110.34 2861.21 1146.58 2916.2 1136.38 2975.8 1125.32 3016.23 1072.94 3010.44 1014.28 3004.38 952.882 2954.41 907.545 2893.97 907.079 2835.31 906.629 2785.89 931.195 2739.74 963.459 2703.22 988.992 2670.28 1019.09 2643.29 1054.89 2628.38 1074.68 2614.9 1095.56 2599.15 1118.29 2619.29 1114.82 2635.87 1111.97 2652.44 1109.12 2652.92 1111.05 2653.39 1112.98 2653.86 1114.91 2649.27 1116.52 2644.72 1118.25 2640.08 1119.72 2611.35 1128.82 2597.39 1147.54 2598.53 1177.27 2599.22 1195.08 2599.1 1211.6 2577.26 1217.17 2575.71 1217.56 2573.97 1220.29 2573.68 1222.15 2568.23 1256.71 2554.06 1287.48 2532.95 1314.95 2541.86 1320.84 2550.06 1326.26 2559.15 1332.27 2556.01 1334.5 2555.12 1335.56 2554.66 1335.4 2533.86 1328.02 2517.07 1332.02 2500 1347.54 2484.13 1361.99 2464.04 1371.79 2444.31 1384.61 2466.19 1387.04 2487.2 1388.68 2508 1391.8 2590.02 1404.11 2672.02 1416.64 2753.91 1429.78 2765.09 1431.57 2776.04 1436.39 2786.42 1441.26 2815.74 1454.99 2844.7 1469.48 2875.95 1484.72 2852.86 1493.14 2833.89 1503.29 2810.74 1489.46 2759.1 1458.59 2699.67 1458.85 2642.45 1452.21 2532.63 1439.48 2422.28 1433.69 2311.69 1433.28 2307.28 1433.26 2302.86 1433.53 2296.69 1433.72 2300.52 1438.04 2303.1 1441.49 2306.24 1444.32 2309.44 1447.21 2313.19 1449.51 2317.12 1452.37 2289.55 1460.67 2261.46 1455.81 2238.29 1439.93 2233.84 1436.88 2227.79 1434.06 2222.7 1434.41 2144.62 1439.71 2066.58 1445.55 1988.53 1451.33 1986.02 1451.52 1983.55 1452.44 1978.46 1453.64 1984.72 1460.43 1989.71 1465.85 1994.69 1472.35 1994.68 1473.44 1994.68 1473.25 1994.68 1473.25 1980.66 1477.5 1966.03 1476.84 1955.29 1467.68 1943.45 1457.58 1931.86 1457.47 1918.53 1460.58 1915.29 1461.34 1911.89 1461.37 1908.12 1464.74 1917.19 1466.89 1926.25 1469.07 1935.33 1471.18 1971.05 1479.46 2003.9 1493.81 2031.41 1518.5 2094.3 1574.95 2088.85 1674.02 2022.78 1727.03 1982.12 1759.65 1921.36 1763.57 1881.34 1739.68 1840.69 1715.41 1820.2 1664.2 1835.08 1621 1850.6 1575.91 1897.09 1546.74 1943.95 1552.7 1982.73 1557.62 2012.21 1593.29 2010.64 1633.39 2009.02 1674.78 1980.53 1706.19 1943.14 1707.83 1915.84 1709.03 1897.87 1696.47 1894.76 1669.36 1892.95 1653.67 1896.07 1636.85 1899.92 1621.26 1902.62 1610.35 1912.98 1604.48 1924.94 1604.98 1935.81 1605.43 1944.61 1609.73 1949.53 1620.41 1957.52 1637.73 1947.1 1655.93 1927.2 1658.71 1923.29 1659.26 1919.29 1659.12 1915.51 1659.29 1907.5 1680.63 1917.99 1695.84 1940.67 1696.44 1975.31 1697.36 2004.3 1663.25 2001.53 1624.85 1997.77 1572.67 1942.48 1543.62 1894.06 1568.4 1851.76 1590.03 1831.95 1630.27 1843.03 1672 1854.68 1715.89 1895.81 1745.19 1943.73 1743.74 2030.75 1741.12 2088.6 1640.12 2046.07 1564.11 2027.29 1530.56 1996.77 1510.75 1961.09 1498.95 1890.06 1475.46 1818.51 1476.04 1746.69 1495.7 1700.32 1508.4 1654.38 1521.8 1611.64 1544.93 1599.99 1551.24 1584.87 1551.21 1571.28 1553.76 1569.47 1554.1 1567.1 1552.76 1565.3 1551.68 1533.7 1532.74 1502.15 1513.72 1468.13 1493.23 1502.15 1480.42 1534.78 1468.09 1567.45 1455.86 1574.11 1453.37 1580.79 1449.85 1587.67 1449.24 1608.36 1447.43 1616.71 1433.92 1622.51 1416.42 1643.54 1352.99 1654.78 1288.34 1645.08 1221.56 1639.02 1179.81 1625.65 1140.65 1591.67 1112.58 1550.52 1078.59 1504.11 1076.03 1457.44 1097.35 1414.26 1117.09 1388.16 1151.4 1387.78 1201.02 1387.42 1249.41 1420.84 1288.28 1468.57 1296.31 1510.98 1303.45 1554 1277.99 1569.23 1236.52 1579.11 1209.62 1576.56 1184.51 1556.03 1163.36 1535.63 1142.33 1510.31 1136.42 1482.39 1143.87 1452.99 1151.72 1434.43 1174.91 1436.05 1199.89 1436.94 1213.67 1445.06 1223.26 1457.71 1224.81 1465.72 1225.79 1471.93 1225.44 1473.11 1214.05 1474.73 1198.5 1486.23 1188.95 1499.58 1188.97 1513.34 1188.98 1525.18 1198.16 1527.39 1211.08 1529.61 1224.03 1524.39 1233.88 1513.18 1240.2 1494.74 1250.62 1455.43 1246.83 1439.07 1233.43 1422.1 1219.52 1418.98 1192.45 1431.75 1169.95 1452.44 1133.54 1502.49 1120.66 1541.73 1141.67 1579.8 1162.05 1594 1207.94 1573.76 1247.78 1555.4 1283.91 1526.09 1305.07 1485.03 1306.61 1444.24 1308.14 1412.4 1290.38 1390.67 1256.2 1362.31 1211.61 1373.53 1148.12 1415.6 1108.65 1473.84 1054.01 1564.17 1056.19 1618.55 1114.09 1644.76 1142 1657.64 1176.74 1663.82 1213.69 1675.94 1286.17 1665.95 1356.7 1642.15 1425.67 1641.44 1427.71 1640.87 1429.8 1640.09 1432.34 1687.03 1423.82 1730.67 1411.43 1768.55 1380.41 1808.72 1347.52 1844.36 1311.32 1867.72 1265.17 1904.01 1193.47 1901.06 1123.43 1851.27 1057.98 1847.71 1053.3 1841.83 1050.35 1836.9 1046.78 1823.53 1037.1 1810.09 1027.51 1795.03 1016.7 1812.89 1009.11 1835.21 1013.78 1844.18 1026.47 1858.04 1046.04 1871.51 1066.01 1883.43 1086.8 1900.89 1117.28 1906.46 1150.96 1905.37 1186.52 1907.18 1185.84 1908.95 1185.71 1909.23 1185 1936.19 1116.75 1952 1046.91 1936.85 973.295 1932.3 951.2 1926.02 930.346 1908 913.238 1895.79 901.649 1889.79 883.511 1882.49 867.152 1901.22 872.167 1918.5 880.863 1924.8 898.464 1936.12 930.121 1947.02 962.551 1952.39 995.589 1962.39 1057.19 1949.35 1116.93 1928.59 1177.17 1932.35 1174.76 1935.33 1173.43 1937.57 1171.32 1974.54 1136.53 2031.73 1146.23 2057.37 1190.06 2084.18 1235.91 2074.29 1310.48 2025.47 1356.16 2019.11 1362.11 2012.48 1367.75 2004.15 1375.16 2011.16 1375.11 2015.52 1375.13 2019.87 1375.05 2080.4 1373.88 2140.92 1372.33 2201.45 1371.64 2240.42 1371.2 2279.63 1374.8 2318.31 1371.61 2371.32 1367.25 2422.91 1355.03 2468.11 1324.27 2525.24 1285.4 2547.39 1230.85 2541.82 1163.04 2538.34 1120.69 2517.72 1089 2483.36 1066.22 2430.32 1031.06 2372.35 1048.8 2346.34 1107.07 2330.31 1143 2334.71 1179.63 2359.74 1205.15 2373.99 1219.68 2391.29 1229.13 2413.97 1226.55 2413.17 1221.88 2412.54 1218.45 2412 1215.02 2410.16 1203.28 2413.66 1193.96 2424.37 1187.98 2435.01 1182.04 2443.67 1185.33 2452.09 1193.11 2461.22 1201.54 2465.78 1211 2460.13 1222.81 2454.15 1235.29 2443.86 1242.31 2429.96 1244.28 2409.36 1247.21 2390.06 1243.58 2372.92 1233.67 2371.66 1249.42 2372.19 1265.34 2368.74 1280.34 2363.79 1301.89 2345.65 1313.67 2321.73 1314.29 2297.76 1314.91 2275.47 1302.02 2268.41 1283.36 2264.73 1273.64 2267.3 1265.67 2276.06 1260.28 2283.34 1255.79 2298.53 1259.5 2298.94 1266.72 2299.24 1271.8 2292.82 1277.45 2288.95 1282.5 2287.81 1283.98 2285.14 1284.27 2283.17 1285.11 2291.04 1302.93 2316.45 1309.77 2337.54 1300.42 2352.14 1293.94 2358.97 1282.16 2360.48 1266.96 2362.3 1248.68 2358.75 1231.12 2348.71 1215.84 2308.92 1155.23 2332.94 1095.36 2369.69 1060.84 2389.97 1041.78 2409.65 1035.65 2447.64 1036.02 2448.3 1026.8 2448.95 1017.62 2449.6 1008.44 2455.32 1028.57 2457.47 1029.95 2478.11 1035.51 2483.6 1036.99 2487.76 1043.75 2492.29 1048.32 2493.75 1049.78 2494.02 1052.49 2495.55 1053.79 2509.51 1065.61 2523.63 1077.24 2540 1090.84 2534.11 1072.11 2528.76 1055.12 2523.44 1038.13 2511.23 999.171 2494.21 960.972 2487.93 921.083 2477.88 857.226 2498.34 800.019 2545.56 754.804 2567.12 734.159 2592.18 721.051 2620.36 720.061Z" fill="#595959" fill-rule="evenodd" fill-opacity="0.25098"/>
  </g>
</svg>