<svg width="1173" height="203"
  xmlns="http://www.w3.org/2000/svg"
  xmlns:xlink="http://www.w3.org/1999/xlink" xml:space="preserve" overflow="hidden">
  <defs>
    <clipPath id="clip0">
      <rect x="1025" y="263" width="1173" height="203"/>
    </clipPath>
  </defs>
  <g clip-path="url(#clip0)" transform="translate(-1025 -263)">
    <path d="M2022.01 423.37C2016.47 426.348 2011.33 429.291 2006.6 432.201 2001.86 435.11 1998.08 438.257 1995.24 441.64 1992.4 445.023 1990.98 448.948 1990.98 453.414 1990.98 454.497 1991.39 455.782 1992.2 457.271 1993.01 458.76 1994.43 459.504 1996.46 459.504 1998.48 459.504 2001.9 456.831 2006.7 451.486 2011.5 446.14 2016.6 436.768 2022.01 423.37ZM2117.3 343.185C2114.6 343.185 2111.83 345.148 2108.99 349.072 2106.15 352.997 2104.73 357.936 2104.73 363.891 2104.73 367.816 2105.3 371.774 2106.45 375.767 2107.6 379.759 2109.32 383.108 2111.62 385.815 2115 380.808 2117.81 375.564 2120.04 370.083 2122.27 364.602 2123.39 359.425 2123.39 354.553 2123.39 350.628 2122.81 347.753 2121.66 345.926 2120.51 344.099 2119.06 343.185 2117.3 343.185ZM2115.88 337.704C2121.43 337.704 2125.14 339.193 2127.04 342.17 2128.93 345.148 2129.88 348.869 2129.88 353.335 2129.88 358.613 2128.59 364.466 2126.02 370.895 2123.45 377.323 2120.21 383.514 2116.29 389.469 2118.72 390.822 2121.29 391.499 2124 391.499 2126.16 391.499 2128.59 391.059 2131.3 390.179 2134 389.3 2136.67 387.777 2139.31 385.612 2141.94 383.447 2144.07 380.537 2145.7 376.883L2146.59 377.63 2148.72 370.692C2150.61 365.481 2152.81 360.576 2155.31 355.974 2157.81 351.373 2160.48 347.617 2163.32 344.708 2166.16 341.798 2168.93 340.343 2171.63 340.343 2172.85 340.343 2173.9 340.715 2174.78 341.459 2175.66 342.204 2176.1 343.32 2176.1 344.809 2176.1 346.433 2175.05 349.072 2172.95 352.726 2170.86 356.38 2168.39 360.576 2165.55 365.312 2162.71 370.049 2160.24 375.022 2158.15 380.233 2156.05 385.443 2155 390.416 2155 395.153 2155 400.025 2155.81 403.273 2157.44 404.897 2159.06 406.521 2161.56 407.333 2164.94 407.333 2169.54 407.333 2174.44 405.032 2179.65 400.431 2184.85 395.83 2190.36 387.777 2196.17 376.274L2198 378.304C2194.08 389.943 2188.43 398.875 2181.06 405.1 2173.7 411.325 2166.02 414.438 2158.04 414.438 2152.77 414.438 2148.85 412.78 2146.28 409.465 2143.71 406.149 2142.43 402.123 2142.43 397.386 2142.43 395.83 2142.57 394.071 2142.86 392.108L2144.11 385.841 2143.24 387.058C2141.33 389.309 2139.14 391.093 2136.67 392.413 2131.74 395.052 2127.04 396.371 2122.58 396.371 2120.82 396.371 2119.13 396.202 2117.5 395.864 2115.88 395.525 2114.33 395.018 2112.84 394.341 2108.24 400.431 2103.21 405.506 2097.73 409.566 2092.25 413.626 2086.95 415.656 2081.81 415.656 2075.99 415.656 2071.87 413.863 2069.44 410.277 2067 406.69 2065.79 402.326 2065.79 397.183L2066.43 393.04 2064.91 395.255C2060.78 400.059 2056.15 404.187 2051.01 407.638 2045.88 411.089 2040.81 413.964 2035.8 416.265 2032.29 424.927 2028.47 433.047 2024.34 440.625 2020.22 448.204 2015.89 454.328 2011.36 458.997 2006.83 463.666 2002.2 466 1997.47 466 1994.09 466 1991.12 465.087 1988.55 463.26 1985.98 461.433 1984.69 458.76 1984.69 455.241 1984.69 450.911 1985.77 447.053 1987.94 443.67 1990.1 440.287 1993.01 437.174 1996.66 434.332 2000.31 431.49 2004.5 428.783 2009.23 426.212 2013.97 423.641 2018.9 421.069 2024.04 418.498 2025.93 413.491 2027.86 407.908 2029.82 401.751 2031.78 395.593 2033.64 388.792 2035.4 381.349 2031.07 388.386 2026.44 394.443 2021.5 399.518 2016.57 404.593 2011.33 407.13 2005.79 407.13 2003.22 407.13 2000.68 406.555 1998.18 405.405 1995.68 404.254 1993.62 402.461 1991.99 400.025 1991.18 398.807 1990.57 397.42 1990.17 395.864L1989.58 390.836 1988.01 393.732C1985.18 398.198 1981.93 401.988 1978.25 405.1 1970.88 411.325 1963.2 414.438 1955.23 414.438 1949.95 414.438 1946.03 412.78 1943.46 409.465 1940.89 406.149 1939.61 402.123 1939.61 397.386L1939.86 394.282 1938.99 396.067C1935.61 401.683 1931.65 406.318 1927.12 409.972 1922.59 413.626 1917.62 415.453 1912.21 415.453 1907.48 415.453 1904.03 413.998 1901.87 411.089 1899.71 408.179 1898.63 404.694 1898.63 400.634 1898.63 397.251 1899.13 393.868 1900.15 390.484 1901.16 387.101 1902.17 383.785 1903.19 380.537 1904.2 377.289 1904.71 374.379 1904.71 371.808 1904.71 369.102 1904.1 367.207 1902.88 366.124 1901.67 365.041 1900.32 364.5 1898.83 364.5 1895.45 364.5 1891.76 367.139 1887.77 372.417 1883.79 377.695 1878.61 385.139 1872.26 394.747 1870.1 397.995 1868.27 401.277 1866.78 404.593 1865.3 407.908 1863.88 410.92 1862.52 413.626 1861.44 413.626 1860.09 413.491 1858.47 413.22 1856.84 412.949 1855.39 412.51 1854.11 411.901 1852.82 411.292 1852.18 410.514 1852.18 409.566 1852.18 408.619 1852.82 406.352 1854.11 402.766 1855.39 399.179 1856.88 394.984 1858.57 390.179 1860.26 385.375 1861.75 380.503 1863.03 375.564 1864.31 370.624 1864.96 366.395 1864.96 362.876 1864.96 360.576 1864.59 358.714 1863.84 357.293 1863.1 355.873 1861.78 355.162 1859.89 355.162 1856.91 355.162 1853.33 356.955 1849.14 360.542 1844.95 364.128 1840.62 368.831 1836.16 374.65 1831.7 380.469 1827.47 386.864 1823.48 393.834 1819.49 400.803 1816.28 407.739 1813.85 414.641 1812.63 414.641 1811.14 414.438 1809.38 414.032 1807.63 413.626 1806.11 413.085 1804.82 412.408 1803.54 411.731 1802.89 411.055 1802.89 410.378 1802.89 409.566 1803.6 407.164 1805.02 403.172 1805.73 401.176 1806.49 398.976 1807.31 396.574L1809.06 391.284 1804.79 397.488C1800.19 403.104 1795.32 407.468 1790.18 410.581 1785.04 413.694 1780.04 415.25 1775.17 415.25 1771.66 415.25 1768.85 414.573 1766.76 413.22 1764.66 411.867 1763.17 410.04 1762.29 407.739 1761.42 405.438 1760.98 402.935 1760.98 400.228 1760.98 398.604 1761.11 396.946 1761.38 395.255 1761.65 393.563 1761.99 391.837 1762.4 390.078 1759.96 394.544 1757.33 398.705 1754.49 402.563 1751.65 406.419 1748.67 409.499 1745.56 411.799 1742.45 414.1 1739.21 415.25 1735.83 415.25 1731.23 415.25 1727.54 413.186 1724.77 409.059 1722 404.931 1720.62 400.16 1720.62 394.747 1720.62 390.822 1721.26 386.289 1722.54 381.146 1723.83 376.003 1725.42 370.928 1727.31 365.921 1729.2 360.914 1731.16 356.786 1733.19 353.538 1735.22 350.29 1736.98 348.666 1738.46 348.666 1739.14 348.666 1740.29 349.038 1741.91 349.782 1743.53 350.527 1744.89 351.508 1745.97 352.726 1744.48 355.027 1742.65 358.545 1740.49 363.282 1738.33 368.019 1736.44 373.094 1734.81 378.507 1733.19 383.92 1732.38 388.928 1732.38 393.529 1732.38 394.612 1732.51 396.27 1732.78 398.502 1733.05 400.736 1733.73 402.732 1734.81 404.491 1735.89 406.25 1737.52 407.13 1739.68 407.13 1742.25 407.13 1744.89 405.811 1747.59 403.172 1750.29 400.533 1753.03 397.115 1755.8 392.92 1758.58 388.725 1761.25 384.191 1763.82 379.319 1766.38 374.447 1768.78 369.778 1771.02 365.312 1773.25 360.846 1775.11 357.124 1776.59 354.147 1777.4 354.282 1778.59 354.553 1780.14 354.959 1781.7 355.365 1783.12 355.906 1784.4 356.583 1785.69 357.26 1786.33 358.207 1786.33 359.425 1786.33 359.966 1785.65 361.76 1784.3 364.805 1782.95 367.85 1781.36 371.571 1779.53 375.97 1777.71 380.368 1776.12 384.8 1774.77 389.266 1773.42 393.732 1772.74 397.657 1772.74 401.04 1772.74 403.476 1773.25 405.438 1774.26 406.927 1775.27 408.416 1777 409.16 1779.43 409.16 1782.27 409.16 1785.72 407.874 1789.78 405.303 1793.83 402.732 1797.96 398.976 1802.15 394.037 1806.34 389.097 1810.06 383.176 1813.3 376.274L1813.41 376.35 1814.76 371.605C1816.18 365.786 1816.89 360.643 1816.89 356.177 1817.7 355.23 1818.98 354.282 1820.74 353.335 1822.5 352.388 1824.33 351.914 1826.22 351.914 1828.11 351.914 1829.5 352.388 1830.38 353.335 1831.26 354.282 1831.7 355.568 1831.7 357.192 1831.7 358.951 1831.19 361.963 1830.17 366.225 1829.16 370.489 1827.91 375.191 1826.42 380.334 1829.13 376.003 1832.2 371.571 1835.65 367.037 1839.1 362.504 1842.71 358.342 1846.5 354.553 1850.29 350.764 1854.11 347.685 1857.96 345.317 1861.81 342.948 1865.57 341.764 1869.22 341.764 1873.41 341.764 1876.28 343.286 1877.84 346.332 1879.39 349.376 1880.17 352.997 1880.17 357.192 1880.17 360.576 1879.8 364.128 1879.05 367.85 1878.31 371.571 1877.46 375.022 1876.52 378.203 1875.57 381.383 1874.69 383.92 1873.88 385.815 1876.72 380.672 1879.86 375.699 1883.31 370.895 1886.76 366.09 1890.51 362.166 1894.57 359.12 1898.63 356.076 1902.95 354.553 1907.55 354.553 1911.88 354.553 1914.88 355.839 1916.57 358.41 1918.26 360.982 1919.11 364.026 1919.11 367.545 1919.11 371.064 1918.5 374.921 1917.28 379.116 1916.07 383.311 1914.82 387.371 1913.53 391.296 1912.25 395.221 1911.61 398.604 1911.61 401.446 1911.61 403.205 1912.04 404.796 1912.92 406.216 1913.8 407.638 1915.39 408.348 1917.69 408.348 1921.48 408.348 1925.03 406.622 1928.34 403.172 1931.65 399.721 1934.73 395.525 1937.57 390.585L1943.17 379.6 1945.9 370.692C1947.79 365.481 1949.99 360.576 1952.49 355.974 1954.99 351.373 1957.66 347.617 1960.5 344.708 1963.34 341.798 1966.11 340.343 1968.81 340.343 1970.03 340.343 1971.08 340.715 1971.96 341.459 1972.84 342.204 1973.28 343.32 1973.28 344.809 1973.28 346.433 1972.23 349.072 1970.13 352.726 1968.04 356.38 1965.57 360.576 1962.73 365.312 1959.89 370.049 1957.42 375.022 1955.33 380.233 1953.23 385.443 1952.18 390.416 1952.18 395.153 1952.18 400.025 1952.99 403.273 1954.62 404.897 1956.24 406.521 1958.74 407.333 1962.12 407.333 1966.72 407.333 1971.62 405.032 1976.83 400.431 1980.73 396.98 1984.81 391.588 1989.05 384.255L1990.74 381.115 1991.49 377.492C1992.77 372.485 1994.36 367.613 1996.25 362.876 1998.15 358.139 2000.11 354.215 2002.14 351.102 2004.16 347.989 2005.92 346.433 2007.41 346.433 2007.95 346.433 2008.93 346.636 2010.35 347.042 2011.77 347.448 2013.12 348.023 2014.41 348.767 2015.69 349.512 2016.33 350.29 2016.33 351.102 2015.12 352.862 2013.76 355.365 2012.28 358.613 2010.79 361.861 2009.34 365.481 2007.92 369.474 2006.5 373.466 2005.31 377.357 2004.37 381.146 2003.42 384.936 2002.95 388.183 2002.95 390.89 2002.95 393.326 2003.49 395.288 2004.57 396.777 2005.65 398.266 2007.54 399.01 2010.25 399.01 2012.82 399.01 2015.69 397.758 2018.87 395.255 2022.05 392.751 2025.22 389.537 2028.4 385.612 2031.58 381.687 2034.52 377.492 2037.22 373.026 2037.63 371.537 2038 370.015 2038.34 368.459 2038.68 366.902 2038.98 365.312 2039.25 363.688 2039.66 361.794 2040.64 359.594 2042.19 357.09 2043.75 354.587 2046.21 353.335 2049.59 353.335 2050.27 353.335 2050.95 353.369 2051.62 353.437 2052.3 353.504 2053.04 353.674 2053.85 353.944 2053.85 356.109 2053.21 360.136 2051.93 366.022 2050.64 371.91 2048.82 378.778 2046.45 386.627 2044.09 394.477 2041.28 402.529 2038.03 410.784 2044.39 408.348 2050.61 404.322 2056.69 398.705 2059.74 395.897 2062.49 392.624 2064.96 388.886L2068.11 383.504 2073.19 371.605C2075.42 367.68 2077.92 364.5 2080.69 362.064 2083.47 359.628 2086.27 358.41 2089.11 358.41 2089.79 358.41 2090.5 358.511 2091.24 358.714 2091.98 358.917 2092.69 359.154 2093.37 359.425 2092.15 360.508 2090.7 362.504 2089.01 365.413 2087.32 368.323 2085.73 371.639 2084.24 375.361 2082.76 379.082 2081.5 382.77 2080.49 386.424 2079.48 390.078 2078.97 393.191 2078.97 395.762 2078.97 399.822 2079.65 402.766 2081 404.593 2082.35 406.419 2084.11 407.333 2086.27 407.333 2089.11 407.333 2092.49 405.811 2096.41 402.766 2100.33 399.721 2104.19 395.83 2107.97 391.093 2104.19 387.98 2101.25 383.887 2099.15 378.812 2097.05 373.736 2096.01 368.56 2096.01 363.282 2096.01 358.816 2096.78 354.621 2098.34 350.696 2099.89 346.771 2102.16 343.625 2105.13 341.256 2108.11 338.888 2111.69 337.704 2115.88 337.704ZM2188.87 304.209C2190.9 304.209 2192.52 304.683 2193.74 305.63 2194.96 306.577 2195.57 308.201 2195.57 310.502 2195.57 313.074 2194.18 315.543 2191.41 317.911 2188.64 320.28 2185.63 321.464 2182.38 321.464 2180.22 321.464 2178.29 320.923 2176.6 319.84 2174.91 318.757 2174.07 317.066 2174.07 314.765 2174.07 311.923 2175.72 309.453 2179.04 307.356 2182.35 305.258 2185.63 304.209 2188.87 304.209ZM1986.05 304.209C1988.08 304.209 1989.7 304.683 1990.92 305.63 1992.14 306.577 1992.75 308.201 1992.75 310.502 1992.75 313.074 1991.36 315.543 1988.59 317.911 1985.82 320.28 1982.81 321.464 1979.56 321.464 1977.4 321.464 1975.47 320.923 1973.78 319.84 1972.09 318.757 1971.25 317.066 1971.25 314.765 1971.25 311.923 1972.9 309.453 1976.22 307.356 1979.53 305.258 1982.81 304.209 1986.05 304.209ZM1286.65 280.661C1285.3 280.661 1282.96 283.029 1279.65 287.766 1276.34 292.503 1272.59 298.762 1268.39 306.544 1264.2 314.325 1260.15 322.75 1256.22 331.817 1262.44 326.81 1267.89 321.126 1272.55 314.765 1277.22 308.404 1280.83 302.28 1283.4 296.394 1285.97 290.507 1287.26 285.871 1287.26 282.488 1287.26 281.811 1287.22 281.338 1287.15 281.067 1287.09 280.797 1286.92 280.661 1286.65 280.661ZM1287.86 264.218C1289.76 264.218 1291.28 265.504 1292.43 268.075 1293.58 270.646 1294.15 273.759 1294.15 277.413 1294.15 282.014 1293.14 287.191 1291.11 292.942 1289.08 298.694 1286.21 304.48 1282.49 310.299 1278.77 316.118 1274.38 321.6 1269.31 326.742 1264.24 331.885 1258.73 336.283 1252.78 339.937 1248.31 350.899 1244.97 361.557 1242.74 371.91 1240.51 382.262 1239.39 390.958 1239.39 397.995 1241.55 392.582 1244.16 386.627 1247.2 380.131 1250.24 373.635 1253.72 367.41 1257.64 361.455 1261.57 355.5 1265.82 350.628 1270.42 346.839 1275.02 343.05 1279.82 341.155 1284.82 341.155 1289.82 341.155 1294.08 342.914 1297.6 346.433 1301.12 349.952 1302.87 354.215 1302.87 359.222 1302.87 363.553 1301.76 367.241 1299.53 370.286 1297.3 373.33 1294.59 375.767 1291.41 377.594 1288.24 379.421 1285.06 380.774 1281.88 381.653 1278.7 382.533 1276.1 382.973 1274.07 382.973 1274.21 384.056 1274.61 386.018 1275.29 388.86 1275.97 391.702 1276.95 394.68 1278.23 397.792 1279.51 400.905 1281.1 403.578 1283 405.811 1284.89 408.044 1287.19 409.16 1289.89 409.16 1293.81 409.16 1297.53 407.671 1301.05 404.694 1304.56 401.717 1307.91 397.758 1311.09 392.819 1312.68 390.349 1314.21 387.718 1315.68 384.927L1316.49 383.225 1316.9 381.146C1318.19 376.003 1319.78 370.928 1321.67 365.921 1323.56 360.914 1325.52 356.786 1327.55 353.538 1329.58 350.29 1331.34 348.666 1332.82 348.666 1333.5 348.666 1334.65 349.038 1336.27 349.782 1337.9 350.527 1339.25 351.508 1340.33 352.726 1338.84 355.027 1337.02 358.545 1334.85 363.282 1332.69 368.019 1330.8 373.094 1329.17 378.507 1327.55 383.92 1326.74 388.928 1326.74 393.529 1326.74 394.612 1326.88 396.27 1327.15 398.502 1327.42 400.736 1328.09 402.732 1329.17 404.491 1330.26 406.25 1331.88 407.13 1334.04 407.13 1336.61 407.13 1339.25 405.811 1341.95 403.172 1344.66 400.533 1347.39 397.115 1350.17 392.92 1352.94 388.725 1355.61 384.191 1358.18 379.319 1360.75 374.447 1363.15 369.778 1365.38 365.312 1367.61 360.846 1369.47 357.124 1370.95 354.147 1371.77 354.282 1372.95 354.553 1374.5 354.959 1376.06 355.365 1377.48 355.906 1378.76 356.583 1380.05 357.26 1380.69 358.207 1380.69 359.425 1380.69 359.966 1380.01 361.76 1378.66 364.805 1377.31 367.85 1375.72 371.571 1373.9 375.97 1372.07 380.368 1370.48 384.8 1369.13 389.266 1367.78 393.732 1367.1 397.657 1367.1 401.04 1367.1 403.476 1367.61 405.438 1368.62 406.927 1369.64 408.416 1371.36 409.16 1373.79 409.16 1376.63 409.16 1380.08 407.874 1384.14 405.303 1388.19 402.732 1392.32 398.976 1396.51 394.037 1400.7 389.097 1404.42 383.176 1407.67 376.274L1408 376.507 1411.96 367.951C1415 361.185 1418.01 353.471 1420.99 344.809 1419.63 343.456 1418.96 341.832 1418.96 339.937 1418.96 335.877 1420.11 332.561 1422.41 329.99 1424.7 327.419 1426.39 326.133 1427.48 326.133 1428.96 326.133 1429.81 326.776 1430.01 328.062 1430.21 329.347 1430.32 330.328 1430.32 331.005 1430.32 331.682 1429.94 333.001 1429.2 334.963 1428.46 336.926 1428.08 338.11 1428.08 338.516 1428.08 340.411 1429.13 342.136 1431.23 343.693 1433.32 345.249 1435.72 347.008 1438.43 348.97 1441.13 350.933 1443.53 353.301 1445.63 356.076 1447.72 358.85 1448.77 362.402 1448.77 366.733 1448.77 370.793 1447.93 374.921 1446.24 379.116 1444.55 383.311 1442.86 387.304 1441.17 391.093 1439.48 394.883 1438.63 398.198 1438.63 401.04 1438.63 403.476 1439.24 405.1 1440.46 405.912 1441.67 406.724 1443.09 407.13 1444.72 407.13 1447.96 407.13 1451.31 406.115 1454.76 404.085 1458.2 402.055 1461.55 399.484 1464.79 396.371 1468.04 393.259 1470.95 389.976 1473.52 386.526 1476.09 383.074 1477.98 379.86 1479.2 376.883L1479.39 377.032 1483.44 369.474C1487.23 363.993 1491.52 358.985 1496.32 354.452 1501.12 349.918 1506.19 346.298 1511.53 343.591 1516.87 340.884 1522.18 339.531 1527.45 339.531 1532.73 339.531 1537.12 340.918 1540.64 343.693 1544.15 346.467 1545.91 350.155 1545.91 354.756 1545.91 358.139 1545 360.44 1543.17 361.658 1541.35 362.876 1538.95 363.485 1535.97 363.485 1536.24 362.402 1536.48 361.218 1536.68 359.933 1536.88 358.647 1536.98 357.463 1536.98 356.38 1536.98 353.268 1536.24 350.594 1534.75 348.362 1533.27 346.129 1530.7 345.012 1527.05 345.012 1523.26 345.012 1519.41 346.332 1515.49 348.97 1511.56 351.609 1507.78 355.128 1504.13 359.526 1500.48 363.925 1497.23 368.696 1494.39 373.838 1491.55 378.981 1489.32 384.056 1487.7 389.063 1486.08 394.071 1485.27 398.536 1485.27 402.461 1485.27 407.739 1487.09 410.378 1490.74 410.378 1493.85 410.378 1497.23 408.923 1500.88 406.013 1504.53 403.104 1508.29 399.382 1512.14 394.849 1515.99 390.315 1519.68 385.612 1523.19 380.74 1526.71 375.868 1529.82 371.402 1532.52 367.342 1533.06 366.53 1533.4 366.124 1533.54 366.124 1534.35 366.259 1535.4 366.53 1536.68 366.936 1537.97 367.342 1539.08 367.883 1540.03 368.56 1540.97 369.237 1541.45 370.117 1541.45 371.199 1541.45 372.417 1540.84 374.075 1539.62 376.173 1538.4 378.27 1537.05 380.672 1535.57 383.379 1534.08 386.086 1532.73 388.826 1531.51 391.601 1530.29 394.375 1529.68 396.98 1529.68 399.416 1529.68 401.446 1530.22 403.442 1531.31 405.405 1532.39 407.367 1534.15 408.348 1536.58 408.348 1540.23 408.348 1545.03 405.675 1550.98 400.33 1556.93 394.984 1562.95 386.965 1569.03 376.274L1571.06 378.304C1568.22 385.612 1564.57 392.04 1560.11 397.589 1555.64 403.138 1550.88 407.468 1545.81 410.581 1540.74 413.694 1535.77 415.25 1530.9 415.25 1525.9 415.25 1522.21 413.761 1519.85 410.784 1517.48 407.807 1516.3 404.559 1516.3 401.04 1516.3 400.228 1516.36 399.315 1516.5 398.299 1516.64 397.285 1516.77 396.236 1516.91 395.153 1511.09 403.003 1505.78 408.89 1500.98 412.814 1496.18 416.739 1491.28 418.701 1486.28 418.701 1482.09 418.701 1478.54 417.314 1475.63 414.539 1472.72 411.765 1471.27 407.536 1471.27 401.852L1473.16 392.677 1471.29 395.661C1466.82 401.142 1461.85 405.641 1456.38 409.16 1450.9 412.679 1445.26 414.438 1439.44 414.438 1434.85 414.438 1431.23 413.22 1428.59 410.784 1425.96 408.348 1424.64 405.168 1424.64 401.243 1424.64 397.183 1425.58 392.92 1427.48 388.454 1429.37 383.988 1431.23 379.556 1433.05 375.158 1434.88 370.759 1435.79 366.801 1435.79 363.282 1435.79 358.951 1434.54 355.737 1432.04 353.64 1429.54 351.542 1427 349.613 1424.43 347.854 1421.32 355.839 1418.08 363.417 1414.7 370.59 1411.32 377.763 1408.55 383.176 1406.38 386.83L1406.26 386.593 1405.38 388.429C1403.52 391.66 1401.45 394.68 1399.15 397.488 1394.55 403.104 1389.68 407.468 1384.54 410.581 1379.41 413.694 1374.4 415.25 1369.53 415.25 1366.02 415.25 1363.21 414.573 1361.12 413.22 1359.02 411.867 1357.53 410.04 1356.66 407.739 1355.78 405.438 1355.34 402.935 1355.34 400.228 1355.34 398.604 1355.47 396.946 1355.74 395.255 1356.01 393.563 1356.35 391.837 1356.76 390.078 1354.32 394.544 1351.69 398.705 1348.85 402.563 1346.01 406.419 1343.03 409.499 1339.92 411.799 1336.81 414.1 1333.57 415.25 1330.19 415.25 1325.59 415.25 1321.91 413.186 1319.13 409.059 1316.36 404.931 1314.98 400.16 1314.98 394.747L1315.13 392.765 1313.22 396.879C1309.3 402.766 1304.93 407.57 1300.13 411.292 1295.33 415.013 1290.57 416.874 1285.84 416.874 1282.05 416.874 1278.81 415.588 1276.1 413.017 1273.4 410.446 1271.27 407.198 1269.71 403.273 1268.16 399.348 1267.01 395.322 1266.26 391.194 1265.52 387.067 1265.15 383.447 1265.15 380.334 1266.64 380.334 1268.8 379.962 1271.64 379.218 1274.48 378.473 1277.39 377.323 1280.36 375.767 1283.33 374.21 1285.87 372.18 1287.97 369.677 1290.06 367.173 1291.11 364.229 1291.11 360.846 1291.11 358.004 1290.1 355.771 1288.07 354.147 1286.04 352.523 1283.67 351.711 1280.97 351.711 1276.78 351.711 1272.86 353.166 1269.2 356.076 1265.55 358.985 1262.28 362.775 1259.37 367.444 1256.46 372.113 1253.86 377.086 1251.56 382.364 1249.26 387.642 1247.3 392.65 1245.68 397.386 1244.06 402.123 1242.7 406.047 1241.62 409.16 1240.81 411.596 1239.66 413.254 1238.17 414.133 1236.69 415.013 1235.13 415.453 1233.51 415.453 1231.21 415.453 1229.55 414.506 1228.54 412.611 1227.53 410.717 1226.92 408.314 1226.71 405.405 1226.51 402.495 1226.41 399.484 1226.41 396.371L1227.22 385.753 1225.87 388.606C1224.04 391.82 1222.01 394.815 1219.78 397.589 1215.32 403.138 1210.55 407.468 1205.48 410.581 1200.41 413.694 1195.44 415.25 1190.58 415.25 1185.57 415.25 1181.89 413.761 1179.52 410.784 1177.16 407.807 1175.97 404.559 1175.97 401.04 1175.97 400.228 1176.04 399.315 1176.18 398.299 1176.31 397.285 1176.45 396.236 1176.58 395.153 1170.77 403.003 1165.46 408.89 1160.66 412.814 1155.86 416.739 1150.96 418.701 1145.96 418.701 1141.76 418.701 1138.22 417.314 1135.31 414.539 1132.4 411.765 1130.95 407.536 1130.95 401.852 1130.95 396.98 1132.03 391.736 1134.19 386.12 1136.36 380.503 1139.33 374.954 1143.12 369.474 1146.9 363.993 1151.2 358.985 1156 354.452 1160.8 349.918 1165.87 346.298 1171.21 343.591 1176.55 340.884 1181.85 339.531 1187.13 339.531 1192.4 339.531 1196.8 340.918 1200.31 343.693 1203.83 346.467 1205.59 350.155 1205.59 354.756 1205.59 358.139 1204.67 360.44 1202.85 361.658 1201.02 362.876 1198.62 363.485 1195.65 363.485 1195.92 362.402 1196.15 361.218 1196.36 359.933 1196.56 358.647 1196.66 357.463 1196.66 356.38 1196.66 353.268 1195.92 350.594 1194.43 348.362 1192.94 346.129 1190.37 345.012 1186.72 345.012 1182.94 345.012 1179.08 346.332 1175.16 348.97 1171.24 351.609 1167.45 355.128 1163.8 359.526 1160.15 363.925 1156.91 368.696 1154.07 373.838 1151.23 378.981 1149 384.056 1147.38 389.063 1145.75 394.071 1144.94 398.536 1144.94 402.461 1144.94 407.739 1146.77 410.378 1150.42 410.378 1153.53 410.378 1156.91 408.923 1160.56 406.013 1164.21 403.104 1167.96 399.382 1171.82 394.849 1175.67 390.315 1179.35 385.612 1182.87 380.74 1186.38 375.868 1189.49 371.402 1192.2 367.342 1192.74 366.53 1193.08 366.124 1193.21 366.124 1194.02 366.259 1195.07 366.53 1196.36 366.936 1197.64 367.342 1198.76 367.883 1199.7 368.56 1200.65 369.237 1201.12 370.117 1201.12 371.199 1201.12 372.417 1200.51 374.075 1199.3 376.173 1198.08 378.27 1196.73 380.672 1195.24 383.379 1193.75 386.086 1192.4 388.826 1191.18 391.601 1189.97 394.375 1189.36 396.98 1189.36 399.416 1189.36 401.446 1189.9 403.442 1190.98 405.405 1192.06 407.367 1193.82 408.348 1196.26 408.348 1199.91 408.348 1204.71 405.675 1210.66 400.33 1216.6 394.984 1222.62 386.965 1228.71 376.274L1228.96 376.527 1229.86 372.011C1232.16 362.808 1235.23 353.234 1239.09 343.286 1242.94 333.339 1247.17 323.697 1251.76 314.359 1256.36 305.021 1260.96 296.563 1265.55 288.984 1270.15 281.405 1274.41 275.383 1278.33 270.917 1282.25 266.451 1285.43 264.218 1287.86 264.218ZM1689.1 263C1697.08 263 1702.62 264.929 1705.73 268.785 1708.84 272.643 1710.4 277.481 1710.4 283.3 1710.4 288.172 1709.55 293.416 1707.86 299.033 1706.17 304.649 1704.11 309.994 1701.68 315.07 1699.24 320.145 1696.94 324.441 1694.78 327.96 1692.35 327.419 1690.62 326.37 1689.61 324.813 1688.6 323.257 1688.09 321.397 1688.09 319.231 1688.09 316.389 1688.7 313.141 1689.91 309.487 1691.13 305.833 1692.52 302.044 1694.07 298.119 1695.63 294.194 1697.01 290.371 1698.23 286.649 1699.45 282.928 1700.05 279.578 1700.05 276.601 1700.05 273.894 1699.24 271.763 1697.62 270.206 1696 268.65 1693.02 267.872 1688.7 267.872 1682.34 267.872 1676.46 269.361 1671.05 272.338 1665.64 275.315 1660.91 279.138 1656.85 283.808 1652.8 288.477 1649.65 293.382 1647.42 298.525 1645.19 303.668 1644.08 308.337 1644.08 312.532 1644.08 317.539 1645.53 321.836 1648.44 325.422 1651.34 329.009 1655.1 332.257 1659.69 335.167 1664.29 338.076 1669.19 340.986 1674.4 343.896 1679.6 346.805 1684.51 350.019 1689.1 353.538 1693.7 357.057 1697.45 361.218 1700.36 366.022 1703.27 370.827 1704.72 376.68 1704.72 383.582 1704.72 390.619 1703.16 396.811 1700.05 402.157 1696.94 407.502 1692.79 412.002 1687.58 415.656 1682.38 419.31 1676.66 422.084 1670.44 423.979 1664.22 425.874 1658 426.821 1651.78 426.821 1644.48 426.821 1637.59 425.502 1631.1 422.862 1624.61 420.224 1619.37 416.198 1615.38 410.784 1611.39 405.371 1609.39 398.604 1609.39 390.484 1609.39 383.447 1610.78 377.966 1613.55 374.041 1616.32 370.117 1619.74 367.342 1623.79 365.718 1627.85 364.094 1631.7 363.282 1635.36 363.282 1631.7 367.207 1628.93 371.537 1627.04 376.274 1625.15 381.011 1624.2 385.748 1624.2 390.484 1624.2 395.491 1625.32 400.16 1627.55 404.491 1629.78 408.822 1633.19 412.307 1637.79 414.945 1642.39 417.585 1648.2 418.904 1655.23 418.904 1661.32 418.904 1667.27 417.788 1673.08 415.555 1678.89 413.322 1683.66 410.006 1687.38 405.608 1691.1 401.209 1692.96 395.762 1692.96 389.266 1692.96 383.447 1691.47 378.44 1688.49 374.244 1685.52 370.049 1681.7 366.327 1677.03 363.079 1672.37 359.831 1667.4 356.718 1662.13 353.741 1656.85 350.764 1651.89 347.617 1647.22 344.302 1642.56 340.986 1638.74 337.163 1635.76 332.832 1632.79 328.501 1631.3 323.291 1631.3 317.201 1631.3 311.517 1632.65 305.563 1635.36 299.337 1638.06 293.112 1641.95 287.225 1647.02 281.676 1652.09 276.127 1658.17 271.628 1665.27 268.176 1672.37 264.726 1680.31 263 1689.1 263ZM1104.71 263C1112.69 263 1118.23 264.929 1121.34 268.785 1124.45 272.643 1126 277.481 1126 283.3 1126 288.172 1125.16 293.416 1123.47 299.033 1121.78 304.649 1119.72 309.994 1117.28 315.07 1114.85 320.145 1112.55 324.441 1110.39 327.96 1107.95 327.419 1106.23 326.37 1105.22 324.813 1104.2 323.257 1103.69 321.397 1103.69 319.231 1103.69 316.389 1104.3 313.141 1105.52 309.487 1106.74 305.833 1108.12 302.044 1109.68 298.119 1111.23 294.194 1112.62 290.371 1113.83 286.649 1115.05 282.928 1115.66 279.578 1115.66 276.601 1115.66 273.894 1114.85 271.763 1113.23 270.206 1111.6 268.65 1108.63 267.872 1104.3 267.872 1097.95 267.872 1092.07 269.361 1086.66 272.338 1081.25 275.315 1076.52 279.138 1072.46 283.808 1068.4 288.477 1065.26 293.382 1063.03 298.525 1060.8 303.668 1059.68 308.337 1059.68 312.532 1059.68 317.539 1061.14 321.836 1064.04 325.422 1066.95 329.009 1070.7 332.257 1075.3 335.167 1079.9 338.076 1084.8 340.986 1090 343.896 1095.21 346.805 1100.11 350.019 1104.71 353.538 1109.31 357.057 1113.06 361.218 1115.96 366.022 1118.87 370.827 1120.33 376.68 1120.33 383.582 1120.33 390.619 1118.77 396.811 1115.66 402.157 1112.55 407.502 1108.39 412.002 1103.19 415.656 1097.98 419.31 1092.27 422.084 1086.05 423.979 1079.83 425.874 1073.61 426.821 1067.39 426.821 1060.09 426.821 1053.19 425.502 1046.7 422.862 1040.21 420.224 1034.97 416.198 1030.98 410.784 1026.99 405.371 1025 398.604 1025 390.484 1025 383.447 1026.39 377.966 1029.16 374.041 1031.93 370.117 1035.34 367.342 1039.4 365.718 1043.46 364.094 1047.31 363.282 1050.96 363.282 1047.31 367.207 1044.54 371.537 1042.65 376.274 1040.75 381.011 1039.81 385.748 1039.81 390.484 1039.81 395.491 1040.92 400.16 1043.15 404.491 1045.38 408.822 1048.8 412.307 1053.4 414.945 1057.99 417.585 1063.81 418.904 1070.84 418.904 1076.92 418.904 1082.87 417.788 1088.69 415.555 1094.5 413.322 1099.27 410.006 1102.98 405.608 1106.7 401.209 1108.56 395.762 1108.56 389.266 1108.56 383.447 1107.07 378.44 1104.1 374.244 1101.12 370.049 1097.31 366.327 1092.64 363.079 1087.98 359.831 1083.01 356.718 1077.73 353.741 1072.46 350.764 1067.49 347.617 1062.83 344.302 1058.16 340.986 1054.34 337.163 1051.37 332.832 1048.39 328.501 1046.9 323.291 1046.9 317.201 1046.9 311.517 1048.26 305.563 1050.96 299.337 1053.67 293.112 1057.55 287.225 1062.62 281.676 1067.69 276.127 1073.78 271.628 1080.88 268.176 1087.98 264.726 1095.92 263 1104.71 263Z" fill="#FFFFFF" fill-rule="evenodd"/>
  </g>
</svg>