<svg width="1650" height="387"
  xmlns="http://www.w3.org/2000/svg"
  xmlns:xlink="http://www.w3.org/1999/xlink" xml:space="preserve" overflow="hidden">
  <defs>
    <clipPath id="clip0">
      <rect x="1375" y="1044" width="1650" height="387"/>
    </clipPath>
  </defs>
  <g clip-path="url(#clip0)" transform="translate(-1375 -1044)">
    <g>
      <g>
        <g>
          <g>
            <path d="M642.74 638.847C642.136 638.421 641.007 637.591 640.238 637.957 639.611 638.257 638.917 639.887 638.599 640.524 638.599 640.524 635.703 647.2 635.703 647.2 631.805 657.081 629.795 670.757 636.926 679.691 636.926 679.691 632.822 674.331 632.822 674.331 631.267 672.982 626.699 670.593 624.708 669.642 622.688 668.686 620.739 667.613 618.598 666.934 610.671 664.423 604.309 665.144 596.78 668.377 597.797 673.788 599.694 675.854 600.561 678.824 598.612 679.185 595.412 680.914 593.875 682.165 593.191 682.718 592.156 683.622 592.489 684.615 592.746 685.393 594.63 686.737 595.323 687.309 598.443 689.876 600.631 691.385 604.051 693.498 609.148 696.646 616.317 699.41 622.379 699.42 625.092 699.424 626.385 699.34 629.069 698.717 629.069 698.717 632.56 697.682 632.56 697.682 630.826 698.412 629.472 699.04 627.612 699.495 626.08 699.87 625.059 699.706 623.541 700.497 622.473 701.055 620.51 702.592 619.47 703.374 611.702 709.193 607.542 716.708 607.542 726.401 607.542 726.401 612.198 727.188 612.198 727.188 612.198 727.188 618.303 727.563 618.303 727.563 618.303 727.563 618.041 730.753 618.041 730.753 617.928 732.726 618.561 735.827 619.179 737.715 621.559 737.345 627.692 734.347 629.941 733.072 637.09 729.024 643.274 724.592 647.168 717.12 647.758 715.991 648.4 713.981 648.704 712.781 649.182 711.137 649.566 707.056 649.74 706.527 649.74 706.527 649.543 709.474 649.449 712.112 649.379 714.29 649.435 716.248 649.435 716.248 649.44 722.184 652.902 728.893 657.001 733.072 659.808 735.944 662.609 737.917 666.306 739.496 667.093 739.828 669.234 740.69 670.026 740.419 670.785 740.151 671.16 738.98 671.474 738.296 672.326 736.446 673.694 732.73 673.868 730.753 676.627 731.175 677.531 732.159 681.143 732.206 681.856 732.21 683.584 732.36 683.983 731.742 684.4 731.241 684.025 729.099 683.983 728.434 683.983 728.434 682.118 719.729 682.118 719.729 682.118 719.729 680.577 715.087 680.577 715.087 678.3 708.884 675.198 703.172 669.796 699.101 665.556 695.906 664.268 696.351 661.944 695.067 666.058 695.897 667.337 697.302 669.796 697.902 675.325 699.242 683.313 698.033 688.415 695.573 692.481 693.615 695.381 691.615 698.281 688.105 698.928 687.328 700.591 685.318 700.647 684.334 700.699 683.317 699.593 682.582 698.89 682.015 697.026 680.525 694.491 678.609 692.195 677.953 694.121 674.538 696.178 672.247 696.271 668.086 696.271 668.086 687.543 667.22 687.543 667.22 687.543 667.22 680.562 667.22 680.562 667.22 674.514 667.224 666.32 669.487 661.359 672.954 658.238 675.133 657.521 676.28 655.249 679.11 655.249 679.11 656.819 676.791 656.819 676.791 657.896 675.446 659.194 674.594 659.99 673.02 661.251 670.522 662.174 666.521 662.563 663.734 663.846 654.514 662.417 646.207 656.997 638.496 653.333 639.54 650.691 642.459 647.688 644.586 646.657 642.492 644.661 640.182 642.74 638.847Z" stroke="#FFFFFF" stroke-width="10.7366" stroke-miterlimit="8" fill="#FFFFFF" fill-rule="evenodd" transform="matrix(1 0 0 1.00135 787.965 672.135)"/>
            <path d="M642.506 638.613C641.902 638.186 640.772 637.357 640.004 637.722 639.376 638.022 638.683 639.653 638.364 640.29 638.364 640.29 635.469 646.966 635.469 646.966 631.571 656.847 629.561 670.522 636.692 679.457 636.692 679.457 632.588 674.097 632.588 674.097 631.032 672.748 626.464 670.358 624.473 669.407 622.454 668.452 620.505 667.379 618.364 666.7 610.437 664.188 604.075 664.91 596.546 668.142 597.562 673.554 599.46 675.62 600.327 678.585 598.378 678.951 595.178 680.68 593.641 681.931 592.957 682.483 591.922 683.388 592.254 684.381 592.512 685.159 594.395 686.503 595.089 687.075 598.209 689.642 600.397 691.151 603.817 693.264 608.914 696.412 616.082 699.176 622.145 699.186 624.857 699.19 626.151 699.106 628.835 698.483 628.835 698.483 632.325 697.447 632.325 697.447 630.592 698.178 629.238 698.806 627.378 699.26 625.846 699.635 624.825 699.471 623.307 700.263 622.238 700.821 620.275 702.357 619.235 703.14 611.468 708.958 607.307 716.473 607.307 726.167 607.307 726.167 611.959 726.954 611.959 726.954 611.959 726.954 618.069 727.328 618.069 727.328 618.069 727.328 617.806 730.519 617.806 730.519 617.694 732.491 618.326 735.593 618.945 737.481 621.325 737.111 627.458 734.112 629.706 732.838 636.856 728.79 643.04 724.358 646.933 716.886 647.524 715.757 648.161 713.747 648.47 712.547 648.948 710.903 649.332 706.822 649.505 706.293 649.505 706.293 649.309 709.24 649.215 711.877 649.145 714.056 649.201 716.014 649.201 716.014 649.206 721.95 652.668 728.654 656.767 732.838 659.574 735.71 662.375 737.682 666.072 739.261 666.859 739.594 669 740.456 669.792 740.184 670.551 739.917 670.925 738.746 671.239 738.062 672.092 736.211 673.46 732.496 673.633 730.519 676.388 730.941 677.297 731.925 680.909 731.971 681.621 731.976 683.35 732.126 683.748 731.508 684.165 731.002 683.791 728.865 683.748 728.2 683.748 728.2 681.884 719.495 681.884 719.495 681.884 719.495 680.342 714.852 680.342 714.852 678.065 708.649 674.964 702.938 669.562 698.867 665.322 695.672 664.034 696.117 661.71 694.833 665.823 695.662 667.102 697.068 669.562 697.668 675.09 699.008 683.078 697.799 688.18 695.339 692.247 693.381 695.147 691.38 698.047 687.871 698.694 687.093 700.357 685.084 700.413 684.1 700.465 683.083 699.359 682.347 698.656 681.781 696.792 680.291 694.257 678.375 691.961 677.719 693.887 674.303 695.943 672.012 696.037 667.852 696.037 667.852 687.309 666.981 687.309 666.981 687.309 666.981 680.328 666.981 680.328 666.981 674.28 666.99 666.086 669.253 661.124 672.72 658.004 674.898 657.287 676.046 655.015 678.876 655.015 678.876 656.584 676.557 656.584 676.557 657.662 675.212 658.96 674.359 659.756 672.785 661.017 670.288 661.94 666.287 662.328 663.5 663.612 654.279 662.183 645.973 656.763 638.261 653.099 639.306 650.456 642.225 647.453 644.352 646.423 642.258 644.427 639.948 642.506 638.613Z" fill="#E27FAF" fill-rule="evenodd" transform="matrix(1 0 0 1.00135 787.965 672.135)"/>
          </g>
        </g>
      </g>
    </g>
    <g>
      <g>
        <g>
          <g>
            <path d="M642.74 638.847C642.136 638.421 641.007 637.591 640.238 637.957 639.611 638.257 638.917 639.887 638.599 640.524 638.599 640.524 635.703 647.2 635.703 647.2 631.805 657.081 629.795 670.757 636.926 679.691 636.926 679.691 632.822 674.331 632.822 674.331 631.267 672.982 626.699 670.593 624.708 669.642 622.688 668.686 620.739 667.613 618.598 666.934 610.671 664.423 604.309 665.144 596.78 668.377 597.797 673.788 599.694 675.854 600.561 678.824 598.612 679.185 595.412 680.914 593.875 682.165 593.191 682.718 592.156 683.622 592.489 684.615 592.746 685.393 594.63 686.737 595.323 687.309 598.443 689.876 600.631 691.385 604.051 693.498 609.148 696.646 616.317 699.41 622.379 699.42 625.092 699.424 626.385 699.34 629.069 698.717 629.069 698.717 632.56 697.682 632.56 697.682 630.826 698.412 629.472 699.04 627.612 699.495 626.08 699.87 625.059 699.706 623.541 700.497 622.473 701.055 620.51 702.592 619.47 703.374 611.702 709.193 607.542 716.708 607.542 726.401 607.542 726.401 612.198 727.188 612.198 727.188 612.198 727.188 618.303 727.563 618.303 727.563 618.303 727.563 618.041 730.753 618.041 730.753 617.928 732.726 618.561 735.827 619.179 737.715 621.559 737.345 627.692 734.347 629.941 733.072 637.09 729.024 643.274 724.592 647.168 717.12 647.758 715.991 648.4 713.981 648.704 712.781 649.182 711.137 649.566 707.056 649.74 706.527 649.74 706.527 649.543 709.474 649.449 712.112 649.379 714.29 649.435 716.248 649.435 716.248 649.44 722.184 652.902 728.893 657.001 733.072 659.808 735.944 662.609 737.917 666.306 739.496 667.093 739.828 669.234 740.69 670.026 740.419 670.785 740.151 671.16 738.98 671.474 738.296 672.326 736.446 673.694 732.73 673.868 730.753 676.627 731.175 677.531 732.159 681.143 732.206 681.856 732.21 683.584 732.36 683.983 731.742 684.4 731.241 684.025 729.099 683.983 728.434 683.983 728.434 682.118 719.729 682.118 719.729 682.118 719.729 680.577 715.087 680.577 715.087 678.3 708.884 675.198 703.172 669.796 699.101 665.556 695.906 664.268 696.351 661.944 695.067 666.058 695.897 667.337 697.302 669.796 697.902 675.325 699.242 683.313 698.033 688.415 695.573 692.481 693.615 695.381 691.615 698.281 688.105 698.928 687.328 700.591 685.318 700.647 684.334 700.699 683.317 699.593 682.582 698.89 682.015 697.026 680.525 694.491 678.609 692.195 677.953 694.121 674.538 696.178 672.247 696.271 668.086 696.271 668.086 687.543 667.22 687.543 667.22 687.543 667.22 680.562 667.22 680.562 667.22 674.514 667.224 666.32 669.487 661.359 672.954 658.238 675.133 657.521 676.28 655.249 679.11 655.249 679.11 656.819 676.791 656.819 676.791 657.896 675.446 659.194 674.594 659.99 673.02 661.251 670.522 662.174 666.521 662.563 663.734 663.846 654.514 662.417 646.207 656.997 638.496 653.333 639.54 650.691 642.459 647.688 644.586 646.657 642.492 644.661 640.182 642.74 638.847Z" stroke="#FFFFFF" stroke-width="10.7366" stroke-miterlimit="8" fill="#FFFFFF" fill-rule="evenodd" transform="matrix(1 0 0 1.00135 2318.96 672.135)"/>
            <path d="M642.506 638.613C641.902 638.186 640.772 637.357 640.004 637.722 639.376 638.022 638.683 639.653 638.364 640.29 638.364 640.29 635.469 646.966 635.469 646.966 631.571 656.847 629.561 670.522 636.692 679.457 636.692 679.457 632.588 674.097 632.588 674.097 631.032 672.748 626.464 670.358 624.473 669.407 622.454 668.452 620.505 667.379 618.364 666.7 610.437 664.188 604.075 664.91 596.546 668.142 597.562 673.554 599.46 675.62 600.327 678.585 598.378 678.951 595.178 680.68 593.641 681.931 592.957 682.483 591.922 683.388 592.254 684.381 592.512 685.159 594.395 686.503 595.089 687.075 598.209 689.642 600.397 691.151 603.817 693.264 608.914 696.412 616.082 699.176 622.145 699.186 624.857 699.19 626.151 699.106 628.835 698.483 628.835 698.483 632.325 697.447 632.325 697.447 630.592 698.178 629.238 698.806 627.378 699.26 625.846 699.635 624.825 699.471 623.307 700.263 622.238 700.821 620.275 702.357 619.235 703.14 611.468 708.958 607.307 716.473 607.307 726.167 607.307 726.167 611.959 726.954 611.959 726.954 611.959 726.954 618.069 727.328 618.069 727.328 618.069 727.328 617.806 730.519 617.806 730.519 617.694 732.491 618.326 735.593 618.945 737.481 621.325 737.111 627.458 734.112 629.706 732.838 636.856 728.79 643.04 724.358 646.933 716.886 647.524 715.757 648.161 713.747 648.47 712.547 648.948 710.903 649.332 706.822 649.505 706.293 649.505 706.293 649.309 709.24 649.215 711.877 649.145 714.056 649.201 716.014 649.201 716.014 649.206 721.95 652.668 728.654 656.767 732.838 659.574 735.71 662.375 737.682 666.072 739.261 666.859 739.594 669 740.456 669.792 740.184 670.551 739.917 670.925 738.746 671.239 738.062 672.092 736.211 673.46 732.496 673.633 730.519 676.388 730.941 677.297 731.925 680.909 731.971 681.621 731.976 683.35 732.126 683.748 731.508 684.165 731.002 683.791 728.865 683.748 728.2 683.748 728.2 681.884 719.495 681.884 719.495 681.884 719.495 680.342 714.852 680.342 714.852 678.065 708.649 674.964 702.938 669.562 698.867 665.322 695.672 664.034 696.117 661.71 694.833 665.823 695.662 667.102 697.068 669.562 697.668 675.09 699.008 683.078 697.799 688.18 695.339 692.247 693.381 695.147 691.38 698.047 687.871 698.694 687.093 700.357 685.084 700.413 684.1 700.465 683.083 699.359 682.347 698.656 681.781 696.792 680.291 694.257 678.375 691.961 677.719 693.887 674.303 695.943 672.012 696.037 667.852 696.037 667.852 687.309 666.981 687.309 666.981 687.309 666.981 680.328 666.981 680.328 666.981 674.28 666.99 666.086 669.253 661.124 672.72 658.004 674.898 657.287 676.046 655.015 678.876 655.015 678.876 656.584 676.557 656.584 676.557 657.662 675.212 658.96 674.359 659.756 672.785 661.017 670.288 661.94 666.287 662.328 663.5 663.612 654.279 662.183 645.973 656.763 638.261 653.099 639.306 650.456 642.225 647.453 644.352 646.423 642.258 644.427 639.948 642.506 638.613Z" fill="#E27FAF" fill-rule="evenodd" transform="matrix(1 0 0 1.00135 2318.96 672.135)"/>
          </g>
        </g>
      </g>
    </g>
    <path d="M2282.15 1400.94C2278.11 1401.42 2274.6 1402.78 2271.63 1405.04 2268.65 1407.3 2267.17 1410.56 2267.17 1414.84 2267.17 1419.2 2268.36 1422.78 2270.73 1425.59 2273.11 1428.41 2277.43 1429.81 2283.7 1429.81 2289.01 1429.81 2293.23 1428.96 2296.36 1427.26 2299.49 1425.55 2301.77 1423.36 2303.2 1420.66 2304.62 1417.97 2305.34 1415.16 2305.34 1412.23 2305.34 1408.98 2304.47 1406.56 2302.72 1404.98 2300.98 1403.4 2298.16 1402.45 2294.28 1402.13ZM2364.87 1338.92C2361.7 1338.92 2358.81 1339.91 2356.19 1341.89 2353.57 1343.87 2351.26 1346.47 2349.23 1349.67 2347.21 1352.88 2345.53 1356.43 2344.18 1360.31 2342.83 1364.19 2341.82 1368.05 2341.15 1371.89 2340.47 1375.73 2340.14 1379.24 2340.14 1382.41 2340.14 1386.76 2340.49 1390.25 2341.21 1392.86 2341.92 1395.48 2342.91 1397.4 2344.18 1398.62 2345.45 1399.85 2346.88 1400.47 2348.46 1400.47 2350.6 1400.47 2352.66 1399.67 2354.64 1398.09 2356.63 1396.51 2358.47 1394.51 2360.17 1392.09 2361.88 1389.67 2363.31 1387.18 2364.46 1384.6 2365.6 1382.03 2366.38 1379.79 2366.77 1377.89L2373.91 1343.2C2373.04 1341.77 2371.77 1340.7 2370.1 1339.99 2368.44 1339.28 2366.69 1338.92 2364.87 1338.92ZM2174.05 1338.92C2170.88 1338.92 2167.99 1339.91 2165.37 1341.89 2162.76 1343.87 2160.44 1346.47 2158.42 1349.67 2156.39 1352.88 2154.71 1356.43 2153.36 1360.31 2152.01 1364.19 2151 1368.05 2150.33 1371.89 2149.66 1375.73 2149.32 1379.24 2149.32 1382.41 2149.32 1386.76 2149.68 1390.25 2150.39 1392.86 2151.1 1395.48 2152.09 1397.4 2153.36 1398.62 2154.63 1399.85 2156.06 1400.47 2157.64 1400.47 2159.78 1400.47 2161.84 1399.67 2163.83 1398.09 2165.81 1396.51 2167.65 1394.51 2169.36 1392.09 2171.06 1389.67 2172.49 1387.18 2173.64 1384.6 2174.79 1382.03 2175.56 1379.79 2175.96 1377.89L2183.09 1343.2C2182.22 1341.77 2180.95 1340.7 2179.29 1339.99 2177.62 1339.28 2175.88 1338.92 2174.05 1338.92ZM1925.16 1338.92C1921.99 1338.92 1919.09 1339.91 1916.48 1341.89 1913.86 1343.87 1911.54 1346.47 1909.52 1349.67 1907.5 1352.88 1905.82 1356.43 1904.47 1360.31 1903.12 1364.19 1902.11 1368.05 1901.44 1371.89 1900.76 1375.73 1900.42 1379.24 1900.42 1382.41 1900.42 1386.76 1900.78 1390.25 1901.49 1392.86 1902.21 1395.48 1903.2 1397.4 1904.47 1398.62 1905.74 1399.85 1907.16 1400.47 1908.75 1400.47 1910.89 1400.47 1912.95 1399.67 1914.93 1398.09 1916.91 1396.51 1918.76 1394.51 1920.46 1392.09 1922.17 1389.67 1923.59 1387.18 1924.74 1384.6 1925.89 1382.03 1926.67 1379.79 1927.06 1377.89L1934.2 1343.2C1933.32 1341.77 1932.06 1340.7 1930.39 1339.99 1928.73 1339.28 1926.98 1338.92 1925.16 1338.92ZM1679.03 1338.92C1675.86 1338.92 1672.97 1339.91 1670.35 1341.89 1667.73 1343.87 1665.42 1346.47 1663.39 1349.67 1661.37 1352.88 1659.69 1356.43 1658.34 1360.31 1656.99 1364.19 1655.98 1368.05 1655.31 1371.89 1654.63 1375.73 1654.3 1379.24 1654.3 1382.41 1654.3 1386.76 1654.65 1390.25 1655.37 1392.86 1656.08 1395.48 1657.07 1397.4 1658.34 1398.62 1659.61 1399.85 1661.03 1400.47 1662.62 1400.47 1664.76 1400.47 1666.82 1399.67 1668.8 1398.09 1670.79 1396.51 1672.63 1394.51 1674.33 1392.09 1676.04 1389.67 1677.46 1387.18 1678.61 1384.6 1679.76 1382.03 1680.54 1379.79 1680.93 1377.89L1688.07 1343.2C1687.2 1341.77 1685.93 1340.7 1684.26 1339.99 1682.6 1339.28 1680.85 1338.92 1679.03 1338.92ZM2496.07 1338.8C2492.9 1338.8 2490.08 1339.73 2487.63 1341.59 2485.17 1343.46 2483.05 1345.93 2481.26 1349.02 2479.48 1352.11 2478.03 1355.53 2476.92 1359.3 2475.81 1363.06 2475 1366.84 2474.49 1370.64 2473.97 1374.45 2473.71 1377.97 2473.71 1381.22 2473.71 1388.98 2474.68 1394.47 2476.63 1397.67 2478.57 1400.88 2481.16 1402.49 2484.42 1402.49 2487.67 1402.49 2490.52 1401.55 2492.98 1399.69 2495.43 1397.83 2497.56 1395.36 2499.34 1392.27 2501.12 1389.18 2502.59 1385.77 2503.74 1382.05 2504.89 1378.33 2505.72 1374.56 2506.24 1370.76 2506.75 1366.96 2507.01 1363.44 2507.01 1360.19 2507.01 1355.04 2506.59 1350.9 2505.76 1347.77 2504.93 1344.64 2503.72 1342.37 2502.13 1340.94 2500.55 1339.51 2498.53 1338.8 2496.07 1338.8ZM2301.41 1338.8C2299.04 1338.8 2296.96 1339.38 2295.17 1340.53 2293.39 1341.67 2291.86 1343.2 2290.59 1345.1 2289.32 1347 2288.27 1349.1 2287.44 1351.4 2286.61 1353.69 2286.01 1355.99 2285.66 1358.29 2285.3 1360.58 2285.12 1362.68 2285.12 1364.58 2285.12 1369.65 2285.8 1373.3 2287.14 1375.52 2288.49 1377.73 2290.36 1378.84 2292.73 1378.84 2294.95 1378.84 2296.92 1378.27 2298.62 1377.12 2300.32 1375.97 2301.79 1374.43 2303.02 1372.49 2304.25 1370.54 2305.26 1368.39 2306.05 1366.01 2306.84 1363.63 2307.44 1361.22 2307.84 1358.76 2308.23 1356.31 2308.43 1354.01 2308.43 1351.87 2308.43 1348.94 2308.17 1346.51 2307.66 1344.56 2307.14 1342.62 2306.37 1341.18 2305.34 1340.23 2304.31 1339.28 2303 1338.8 2301.41 1338.8ZM1773.42 1338.8 1795.54 1338.8 1787.69 1374.33C1787.38 1375.75 1787.04 1377.4 1786.68 1379.26 1786.32 1381.12 1786.01 1382.94 1785.73 1384.72 1785.45 1386.51 1785.31 1387.99 1785.31 1389.18 1785.31 1392.51 1785.81 1395.16 1786.8 1397.14 1787.79 1399.12 1789.63 1400.11 1792.33 1400.11 1794.23 1400.11 1796.19 1399.4 1798.22 1397.97 1800.24 1396.54 1802.16 1394.68 1803.98 1392.39 1805.81 1390.09 1807.35 1387.69 1808.62 1385.2 1809.89 1382.7 1810.76 1380.39 1811.24 1378.25L1819.68 1338.8 1831.22 1338.8 1823.01 1376.94C1822.85 1377.81 1822.61 1379.08 1822.3 1380.74 1821.98 1382.41 1821.72 1384.11 1821.52 1385.85 1821.33 1387.59 1821.23 1389.02 1821.23 1390.13 1821.23 1393.22 1821.68 1395.53 1822.59 1397.08 1823.51 1398.62 1824.83 1399.4 1826.58 1399.4 1827.93 1399.4 1829.17 1399.14 1830.32 1398.62 1831.47 1398.11 1832.8 1397.3 1834.31 1396.19L1834.9 1397.02C1833.16 1398.53 1830.96 1400.01 1828.3 1401.48 1825.65 1402.94 1822.81 1403.67 1819.8 1403.67 1817.74 1403.67 1815.95 1403.16 1814.45 1402.13 1812.94 1401.1 1811.79 1399.73 1811 1398.03 1810.21 1396.33 1809.81 1394.45 1809.81 1392.39 1809.81 1391.75 1809.83 1391.06 1809.87 1390.31 1809.91 1389.55 1809.97 1388.76 1810.05 1387.93 1810.13 1387.1 1810.21 1386.25 1810.29 1385.38L1809.93 1385.38C1807.95 1388.86 1805.85 1391.97 1803.63 1394.7 1801.41 1397.44 1798.91 1399.59 1796.14 1401.18 1793.36 1402.76 1790.15 1403.55 1786.5 1403.55 1783.41 1403.55 1780.93 1402.94 1779.07 1401.71 1777.21 1400.49 1775.86 1398.86 1775.03 1396.84 1774.2 1394.82 1773.78 1392.66 1773.78 1390.37 1773.78 1388.39 1774.02 1386.21 1774.49 1383.83 1774.97 1381.46 1775.44 1379.28 1775.92 1377.3L1781.39 1352.7C1781.63 1351.59 1781.87 1350.29 1782.1 1348.78 1782.34 1347.28 1782.46 1346.21 1782.46 1345.57 1782.46 1343.2 1781.65 1341.67 1780.02 1341 1778.4 1340.33 1776.43 1339.99 1774.14 1339.99L1773.18 1339.99ZM2421.1 1337.73C2425.47 1337.73 2428.99 1338.29 2431.69 1339.4 2434.38 1340.51 2436.39 1341.93 2437.69 1343.67 2439 1345.42 2439.66 1347.2 2439.66 1349.02 2439.66 1351.48 2438.8 1353.32 2437.1 1354.54 2435.39 1355.77 2433.27 1356.39 2430.74 1356.39 2430.82 1355.75 2430.88 1355.14 2430.92 1354.54 2430.96 1353.95 2430.97 1353.38 2430.97 1352.82 2430.97 1348.94 2430.16 1345.65 2428.54 1342.96 2426.91 1340.27 2424.16 1338.92 2420.27 1338.92 2415.91 1338.92 2412.86 1340.19 2411.12 1342.72 2409.37 1345.26 2408.5 1348.15 2408.5 1351.4 2408.5 1353.85 2408.94 1355.89 2409.81 1357.52 2410.68 1359.14 2412.01 1360.58 2413.79 1361.85 2415.58 1363.12 2417.85 1364.39 2420.63 1365.65 2423.56 1366.92 2426.08 1368.41 2428.18 1370.11 2430.28 1371.81 2431.93 1373.79 2433.12 1376.05 2434.3 1378.31 2434.9 1380.98 2434.9 1384.07 2434.9 1387.87 2433.91 1391.26 2431.93 1394.23 2429.94 1397.2 2427.11 1399.52 2423.42 1401.18 2419.74 1402.84 2415.36 1403.67 2410.28 1403.67 2406.32 1403.67 2402.87 1403.14 2399.94 1402.07 2397 1401 2394.73 1399.46 2393.1 1397.44 2391.48 1395.42 2390.66 1393.02 2390.66 1390.25 2390.66 1388.11 2391.16 1386.47 2392.15 1385.32 2393.14 1384.17 2394.27 1383.4 2395.54 1383 2396.81 1382.6 2397.92 1382.41 2398.87 1382.41 2398.79 1383.04 2398.73 1383.67 2398.69 1384.31 2398.65 1384.94 2398.63 1385.57 2398.63 1386.21 2398.63 1389.22 2399.05 1391.95 2399.88 1394.41 2400.71 1396.86 2402.02 1398.82 2403.8 1400.29 2405.59 1401.75 2407.91 1402.49 2410.76 1402.49 2414.96 1402.49 2418.31 1401.26 2420.81 1398.8 2423.3 1396.35 2424.55 1392.98 2424.55 1388.7 2424.55 1386.25 2424.16 1384.17 2423.36 1382.47 2422.57 1380.76 2421.3 1379.24 2419.56 1377.89 2417.81 1376.54 2415.48 1375.2 2412.54 1373.85 2409.61 1372.43 2407.07 1370.9 2404.93 1369.28 2402.79 1367.65 2401.13 1365.73 2399.94 1363.52 2398.75 1361.3 2398.15 1358.6 2398.15 1355.44 2398.15 1352.03 2399.09 1349 2400.95 1346.35 2402.81 1343.69 2405.47 1341.59 2408.92 1340.05 2412.36 1338.51 2416.43 1337.73 2421.1 1337.73ZM2246.46 1337.73C2249.63 1337.73 2252.13 1338.35 2253.95 1339.57 2255.77 1340.8 2257.1 1342.41 2257.93 1344.39 2258.77 1346.37 2259.18 1348.54 2259.18 1350.92 2259.18 1352.9 2258.93 1355.06 2258.41 1357.4 2257.89 1359.73 2257.44 1361.93 2257.04 1363.99L2253.95 1378.01C2253.47 1380.23 2253.1 1382.47 2252.82 1384.72 2252.54 1386.98 2252.4 1389.14 2252.4 1391.2 2252.4 1393.65 2252.84 1395.57 2253.71 1396.96 2254.58 1398.35 2256.01 1399.04 2257.99 1399.04 2258.87 1399.04 2259.72 1398.92 2260.55 1398.68 2261.38 1398.45 2262.22 1398.11 2263.05 1397.67 2263.88 1397.24 2264.73 1396.66 2265.6 1395.95L2266.32 1396.9C2264.42 1398.49 2262.29 1400.01 2259.96 1401.48 2257.62 1402.94 2254.9 1403.67 2251.81 1403.67 2248.32 1403.67 2245.65 1402.54 2243.78 1400.29 2241.92 1398.03 2240.99 1395.2 2240.99 1391.79 2240.99 1389.89 2241.17 1387.65 2241.52 1385.08 2241.88 1382.51 2242.46 1379.4 2243.25 1375.75L2245.27 1366.49C2245.51 1365.38 2245.82 1363.97 2246.22 1362.27 2246.62 1360.56 2246.97 1358.76 2247.29 1356.86 2247.61 1354.96 2247.77 1353.18 2247.77 1351.51 2247.77 1350.17 2247.61 1348.74 2247.29 1347.24 2246.97 1345.73 2246.28 1344.43 2245.21 1343.32 2244.14 1342.21 2242.53 1341.65 2240.39 1341.65 2238.25 1341.65 2236.17 1342.37 2234.15 1343.79 2232.13 1345.22 2230.29 1346.96 2228.62 1349.02 2226.96 1351.08 2225.59 1353.06 2224.52 1354.96 2223.45 1356.86 2222.83 1358.29 2222.68 1359.24L2213.4 1402.49 2202.34 1402.49 2213.16 1350.92C2213.4 1349.81 2213.58 1348.72 2213.7 1347.65 2213.82 1346.58 2213.88 1345.89 2213.88 1345.57 2213.88 1343.2 2213.06 1341.67 2211.44 1341 2209.81 1340.33 2207.85 1339.99 2205.55 1339.99L2204.6 1339.99 2204.84 1338.8 2226.84 1338.8 2223.63 1353.77 2223.86 1353.77C2226.08 1350.29 2228.34 1347.36 2230.64 1344.98 2232.94 1342.6 2235.4 1340.8 2238.02 1339.57 2240.63 1338.35 2243.45 1337.73 2246.46 1337.73ZM1995.22 1337.73C1999.58 1337.73 2003.11 1338.29 2005.8 1339.4 2008.5 1340.51 2010.5 1341.93 2011.81 1343.67 2013.12 1345.42 2013.77 1347.2 2013.77 1349.02 2013.77 1351.48 2012.92 1353.32 2011.21 1354.54 2009.51 1355.77 2007.39 1356.39 2004.85 1356.39 2004.93 1355.75 2004.99 1355.14 2005.03 1354.54 2005.07 1353.95 2005.09 1353.38 2005.09 1352.82 2005.09 1348.94 2004.28 1345.65 2002.65 1342.96 2001.03 1340.27 1998.27 1338.92 1994.39 1338.92 1990.03 1338.92 1986.98 1340.19 1985.23 1342.72 1983.49 1345.26 1982.61 1348.15 1982.61 1351.4 1982.61 1353.85 1983.05 1355.89 1983.92 1357.52 1984.79 1359.14 1986.12 1360.58 1987.91 1361.85 1989.69 1363.12 1991.97 1364.39 1994.74 1365.65 1997.68 1366.92 2000.19 1368.41 2002.3 1370.11 2004.4 1371.81 2006.04 1373.79 2007.23 1376.05 2008.42 1378.31 2009.01 1380.98 2009.01 1384.07 2009.01 1387.87 2008.02 1391.26 2006.04 1394.23 2004.06 1397.2 2001.23 1399.52 1997.54 1401.18 1993.85 1402.84 1989.47 1403.67 1984.4 1403.67 1980.43 1403.67 1976.99 1403.14 1974.05 1402.07 1971.12 1401 1968.84 1399.46 1967.22 1397.44 1965.59 1395.42 1964.78 1393.02 1964.78 1390.25 1964.78 1388.11 1965.27 1386.47 1966.26 1385.32 1967.25 1384.17 1968.38 1383.4 1969.65 1383 1970.92 1382.6 1972.03 1382.41 1972.98 1382.41 1972.9 1383.04 1972.84 1383.67 1972.8 1384.31 1972.76 1384.94 1972.74 1385.57 1972.74 1386.21 1972.74 1389.22 1973.16 1391.95 1973.99 1394.41 1974.83 1396.86 1976.13 1398.82 1977.92 1400.29 1979.7 1401.75 1982.02 1402.49 1984.87 1402.49 1989.08 1402.49 1992.43 1401.26 1994.92 1398.8 1997.42 1396.35 1998.67 1392.98 1998.67 1388.7 1998.67 1386.25 1998.27 1384.17 1997.48 1382.47 1996.69 1380.76 1995.42 1379.24 1993.67 1377.89 1991.93 1376.54 1989.59 1375.2 1986.66 1373.85 1983.72 1372.43 1981.19 1370.9 1979.05 1369.28 1976.91 1367.65 1975.24 1365.73 1974.05 1363.52 1972.86 1361.3 1972.27 1358.6 1972.27 1355.44 1972.27 1352.03 1973.2 1349 1975.06 1346.35 1976.93 1343.69 1979.58 1341.59 1983.03 1340.05 1986.48 1338.51 1990.54 1337.73 1995.22 1337.73ZM2496.78 1337.61C2500.98 1337.61 2504.79 1338.45 2508.2 1340.11 2511.61 1341.77 2514.32 1344.41 2516.34 1348.01 2518.37 1351.61 2519.38 1356.35 2519.38 1362.21 2519.38 1365.61 2518.94 1369.2 2518.07 1372.96 2517.2 1376.72 2515.85 1380.43 2514.03 1384.07 2512.2 1387.71 2509.9 1391 2507.13 1393.93 2504.35 1396.86 2501.06 1399.22 2497.26 1401 2493.45 1402.78 2489.09 1403.67 2484.18 1403.67 2477.44 1403.67 2471.95 1401.63 2467.71 1397.55 2463.47 1393.48 2461.35 1387.32 2461.35 1379.08 2461.35 1375.59 2461.8 1371.93 2462.71 1368.09 2463.62 1364.25 2465.01 1360.53 2466.88 1356.92 2468.74 1353.32 2471.08 1350.05 2473.89 1347.12 2476.71 1344.19 2480.02 1341.87 2483.82 1340.17 2487.63 1338.47 2491.95 1337.61 2496.78 1337.61ZM2363.44 1337.61C2366.69 1337.61 2369.27 1338.07 2371.17 1338.98 2373.08 1339.89 2374.78 1341.06 2376.29 1342.49L2382.59 1338.92 2386.4 1338.92 2378.31 1376.94C2378.15 1377.81 2377.91 1379.08 2377.6 1380.74 2377.28 1382.41 2377.02 1384.11 2376.82 1385.85 2376.62 1387.59 2376.53 1389.02 2376.53 1390.13 2376.53 1393.3 2376.94 1395.67 2377.77 1397.26 2378.61 1398.84 2379.81 1399.63 2381.4 1399.63 2382.75 1399.63 2384.16 1399.28 2385.62 1398.56 2387.09 1397.85 2388.69 1396.86 2390.44 1395.59L2391.15 1396.54C2390.04 1397.57 2388.54 1398.64 2386.63 1399.75 2384.73 1400.86 2382.71 1401.79 2380.57 1402.54 2378.43 1403.3 2376.37 1403.67 2374.38 1403.67 2371.53 1403.67 2369.27 1402.8 2367.61 1401.06 2365.94 1399.32 2365.11 1396.9 2365.11 1393.81 2365.11 1392.23 2365.19 1390.78 2365.35 1389.48 2365.51 1388.17 2365.74 1386.53 2366.06 1384.54L2365.94 1384.54C2363.17 1390.64 2359.9 1395.36 2356.13 1398.68 2352.37 1402.01 2348.1 1403.67 2343.35 1403.67 2339.86 1403.67 2336.97 1402.72 2334.67 1400.82 2332.37 1398.92 2330.68 1396.33 2329.61 1393.04 2328.54 1389.75 2328.01 1386.05 2328.01 1381.93 2328.01 1378.21 2328.5 1374.31 2329.49 1370.23 2330.48 1366.15 2331.97 1362.19 2333.95 1358.35 2335.94 1354.51 2338.35 1351.02 2341.21 1347.89 2344.06 1344.76 2347.35 1342.27 2351.08 1340.41 2354.8 1338.54 2358.93 1337.61 2363.44 1337.61ZM2172.63 1337.61C2175.88 1337.61 2178.45 1338.07 2180.36 1338.98 2182.26 1339.89 2183.96 1341.06 2185.47 1342.49L2191.77 1338.92 2195.58 1338.92 2187.49 1376.94C2187.33 1377.81 2187.09 1379.08 2186.78 1380.74 2186.46 1382.41 2186.2 1384.11 2186 1385.85 2185.81 1387.59 2185.71 1389.02 2185.71 1390.13 2185.71 1393.3 2186.12 1395.67 2186.96 1397.26 2187.79 1398.84 2189 1399.63 2190.58 1399.63 2191.93 1399.63 2193.34 1399.28 2194.8 1398.56 2196.27 1397.85 2197.88 1396.86 2199.62 1395.59L2200.33 1396.54C2199.22 1397.57 2197.72 1398.64 2195.81 1399.75 2193.91 1400.86 2191.89 1401.79 2189.75 1402.54 2187.61 1403.3 2185.55 1403.67 2183.57 1403.67 2180.71 1403.67 2178.45 1402.8 2176.79 1401.06 2175.12 1399.32 2174.29 1396.9 2174.29 1393.81 2174.29 1392.23 2174.37 1390.78 2174.53 1389.48 2174.69 1388.17 2174.92 1386.53 2175.24 1384.54L2175.12 1384.54C2172.35 1390.64 2169.08 1395.36 2165.31 1398.68 2161.55 1402.01 2157.29 1403.67 2152.53 1403.67 2149.04 1403.67 2146.15 1402.72 2143.85 1400.82 2141.55 1398.92 2139.86 1396.33 2138.79 1393.04 2137.72 1389.75 2137.19 1386.05 2137.19 1381.93 2137.19 1378.21 2137.68 1374.31 2138.68 1370.23 2139.67 1366.15 2141.15 1362.19 2143.13 1358.35 2145.12 1354.51 2147.53 1351.02 2150.39 1347.89 2153.24 1344.76 2156.53 1342.27 2160.26 1340.41 2163.98 1338.54 2168.11 1337.61 2172.63 1337.61ZM1923.73 1337.61C1926.98 1337.61 1929.56 1338.07 1931.46 1338.98 1933.36 1339.89 1935.07 1341.06 1936.57 1342.49L1942.88 1338.92 1946.68 1338.92 1938.6 1376.94C1938.44 1377.81 1938.2 1379.08 1937.88 1380.74 1937.57 1382.41 1937.31 1384.11 1937.11 1385.85 1936.91 1387.59 1936.81 1389.02 1936.81 1390.13 1936.81 1393.3 1937.23 1395.67 1938.06 1397.26 1938.89 1398.84 1940.1 1399.63 1941.69 1399.63 1943.04 1399.63 1944.44 1399.28 1945.91 1398.56 1947.38 1397.85 1948.98 1396.86 1950.73 1395.59L1951.44 1396.54C1950.33 1397.57 1948.82 1398.64 1946.92 1399.75 1945.02 1400.86 1943 1401.79 1940.86 1402.54 1938.72 1403.3 1936.65 1403.67 1934.67 1403.67 1931.82 1403.67 1929.56 1402.8 1927.89 1401.06 1926.23 1399.32 1925.4 1396.9 1925.4 1393.81 1925.4 1392.23 1925.48 1390.78 1925.63 1389.48 1925.79 1388.17 1926.03 1386.53 1926.35 1384.54L1926.23 1384.54C1923.45 1390.64 1920.18 1395.36 1916.42 1398.68 1912.65 1402.01 1908.39 1403.67 1903.64 1403.67 1900.15 1403.67 1897.25 1402.72 1894.95 1400.82 1892.66 1398.92 1890.97 1396.33 1889.9 1393.04 1888.83 1389.75 1888.3 1386.05 1888.3 1381.93 1888.3 1378.21 1888.79 1374.31 1889.78 1370.23 1890.77 1366.15 1892.26 1362.19 1894.24 1358.35 1896.22 1354.51 1898.64 1351.02 1901.49 1347.89 1904.35 1344.76 1907.64 1342.27 1911.36 1340.41 1915.09 1338.54 1919.21 1337.61 1923.73 1337.61ZM1879.75 1337.61C1883.08 1337.61 1885.54 1338.39 1887.12 1339.93 1888.71 1341.48 1889.5 1343.44 1889.5 1345.81 1889.5 1347.63 1889.14 1349.24 1888.43 1350.62 1887.72 1352.01 1886.61 1353.06 1885.1 1353.77 1883.59 1354.49 1881.69 1354.84 1879.39 1354.84 1879.47 1354.21 1879.51 1353.59 1879.51 1353 1879.51 1352.41 1879.51 1351.83 1879.51 1351.28 1879.51 1349.3 1879.33 1347.59 1878.98 1346.17 1878.62 1344.74 1878.01 1343.63 1877.13 1342.84 1876.26 1342.05 1875.07 1341.65 1873.57 1341.65 1871.9 1341.65 1870.24 1342.39 1868.57 1343.85 1866.91 1345.32 1865.34 1347.16 1863.87 1349.38 1862.41 1351.59 1861.18 1353.87 1860.19 1356.21 1859.2 1358.54 1858.5 1360.58 1858.11 1362.33L1849.55 1402.49 1838.49 1402.49 1849.31 1350.92C1849.55 1349.81 1849.72 1348.72 1849.84 1347.65 1849.96 1346.58 1850.02 1345.89 1850.02 1345.57 1850.02 1343.2 1849.01 1341.67 1846.99 1341 1844.97 1340.33 1842.81 1339.99 1840.51 1339.99L1839.56 1339.99 1839.79 1338.8 1861.56 1338.8 1858.82 1355.91 1859.06 1355.91C1860.64 1352.66 1862.33 1349.65 1864.11 1346.88 1865.9 1344.11 1868.04 1341.87 1870.53 1340.17 1873.03 1338.47 1876.1 1337.61 1879.75 1337.61ZM1677.6 1337.61C1680.85 1337.61 1683.43 1338.07 1685.33 1338.98 1687.24 1339.89 1688.94 1341.06 1690.45 1342.49L1696.75 1338.92 1700.55 1338.92 1692.47 1376.94C1692.31 1377.81 1692.07 1379.08 1691.75 1380.74 1691.44 1382.41 1691.18 1384.11 1690.98 1385.85 1690.78 1387.59 1690.68 1389.02 1690.68 1390.13 1690.68 1393.3 1691.1 1395.67 1691.93 1397.26 1692.77 1398.84 1693.97 1399.63 1695.56 1399.63 1696.91 1399.63 1698.31 1399.28 1699.78 1398.56 1701.25 1397.85 1702.85 1396.86 1704.6 1395.59L1705.31 1396.54C1704.2 1397.57 1702.69 1398.64 1700.79 1399.75 1698.89 1400.86 1696.87 1401.79 1694.73 1402.54 1692.59 1403.3 1690.53 1403.67 1688.54 1403.67 1685.69 1403.67 1683.43 1402.8 1681.77 1401.06 1680.1 1399.32 1679.27 1396.9 1679.27 1393.81 1679.27 1392.23 1679.35 1390.78 1679.51 1389.48 1679.66 1388.17 1679.9 1386.53 1680.22 1384.54L1680.1 1384.54C1677.33 1390.64 1674.06 1395.36 1670.29 1398.68 1666.52 1402.01 1662.26 1403.67 1657.51 1403.67 1654.02 1403.67 1651.13 1402.72 1648.83 1400.82 1646.53 1398.92 1644.84 1396.33 1643.77 1393.04 1642.7 1389.75 1642.17 1386.05 1642.17 1381.93 1642.17 1378.21 1642.66 1374.31 1643.65 1370.23 1644.64 1366.15 1646.13 1362.19 1648.11 1358.35 1650.09 1354.51 1652.51 1351.02 1655.37 1347.89 1658.22 1344.76 1661.51 1342.27 1665.24 1340.41 1668.96 1338.54 1673.08 1337.61 1677.6 1337.61ZM2326.86 1332.98C2328.84 1332.98 2330.33 1333.5 2331.32 1334.52 2332.31 1335.55 2332.81 1336.86 2332.81 1338.45 2332.81 1340.19 2332.31 1341.85 2331.32 1343.44 2330.33 1345.02 2328.49 1345.81 2325.79 1345.81 2325.79 1343.91 2325.42 1342.31 2324.66 1341 2323.91 1339.69 2322.62 1339.04 2320.8 1339.04 2319.77 1339.04 2318.74 1339.32 2317.71 1339.87 2316.68 1340.43 2315.76 1341.18 2314.97 1342.13 2316.32 1343.63 2317.37 1345.32 2318.12 1347.18 2318.88 1349.04 2319.25 1351.12 2319.25 1353.42 2319.25 1356.11 2318.72 1358.98 2317.65 1362.03 2316.58 1365.08 2314.93 1367.97 2312.71 1370.7 2310.49 1373.44 2307.66 1375.67 2304.21 1377.42 2300.76 1379.16 2296.7 1380.03 2292.02 1380.03 2291.23 1380.03 2290.43 1380.01 2289.64 1379.97 2288.85 1379.93 2288.08 1379.83 2287.32 1379.67 2286.57 1379.52 2285.84 1379.36 2285.12 1379.2 2282.9 1379.99 2281.22 1380.94 2280.07 1382.05 2278.92 1383.16 2278.34 1384.58 2278.34 1386.33 2278.34 1387.91 2279.1 1389.02 2280.6 1389.65 2282.11 1390.29 2284.09 1390.72 2286.55 1390.96L2297.25 1392.03C2301.22 1392.43 2304.57 1393.24 2307.3 1394.47 2310.04 1395.69 2312.12 1397.4 2313.54 1399.57 2314.97 1401.75 2315.68 1404.43 2315.68 1407.59 2315.68 1411.16 2315.01 1414.39 2313.66 1417.28 2312.31 1420.17 2310.29 1422.62 2307.6 1424.64 2304.9 1426.66 2301.55 1428.23 2297.55 1429.34 2293.55 1430.45 2288.85 1431 2283.46 1431 2277.67 1431 2272.85 1430.43 2269.01 1429.28 2265.17 1428.13 2262.29 1426.43 2260.39 1424.17 2258.49 1421.91 2257.53 1419.12 2257.53 1415.79 2257.53 1412.62 2258.47 1409.91 2260.33 1407.65 2262.19 1405.4 2264.83 1403.63 2268.24 1402.37 2271.65 1401.1 2275.69 1400.43 2280.37 1400.35 2276.8 1399.16 2274.38 1397.67 2273.11 1395.89 2271.84 1394.11 2271.21 1392.23 2271.21 1390.25 2271.21 1387.87 2272.24 1385.57 2274.3 1383.36 2276.36 1381.14 2279.57 1379.63 2283.93 1378.84 2280.76 1377.65 2278.34 1375.79 2276.68 1373.26 2275.02 1370.72 2274.18 1367.67 2274.18 1364.11 2274.18 1361.34 2274.74 1358.41 2275.85 1355.32 2276.96 1352.23 2278.64 1349.34 2280.9 1346.64 2283.16 1343.95 2286.03 1341.77 2289.52 1340.11 2293.01 1338.45 2297.09 1337.61 2301.77 1337.61 2304.15 1337.61 2306.39 1337.91 2308.49 1338.51 2310.59 1339.1 2312.43 1340.07 2314.02 1341.42 2315.05 1339.83 2316.22 1338.41 2317.53 1337.14 2318.84 1335.87 2320.28 1334.86 2321.87 1334.11 2323.45 1333.36 2325.12 1332.98 2326.86 1332.98ZM2043.87 1317.65 2068.13 1317.65 2083 1390.37 2125.57 1317.65 2146.38 1317.65 2146.14 1318.84 2144.59 1318.84C2141.9 1318.84 2139.5 1319.34 2137.4 1320.33 2135.3 1321.32 2133.85 1323.67 2133.06 1327.4L2119.03 1393.22C2118.95 1393.69 2118.85 1394.27 2118.73 1394.94 2118.61 1395.61 2118.55 1396.15 2118.55 1396.54 2118.55 1398.53 2119.36 1399.81 2120.99 1400.41 2122.62 1401 2124.66 1401.3 2127.11 1401.3L2128.66 1401.3 2128.42 1402.49 2096.79 1402.49 2097.03 1401.3 2097.39 1401.3C2099.13 1401.3 2100.66 1401.14 2101.96 1400.82 2103.27 1400.51 2104.4 1399.81 2105.35 1398.74 2106.3 1397.67 2107.02 1396.03 2107.49 1393.81L2122 1326.09 2077.29 1402.49 2073.84 1402.49 2058.14 1324.19 2043.52 1393.22C2043.44 1393.69 2043.34 1394.27 2043.22 1394.94 2043.1 1395.61 2043.04 1396.15 2043.04 1396.54 2043.04 1398.53 2044.11 1399.81 2046.25 1400.41 2048.39 1401 2051.13 1401.3 2054.46 1401.3L2056 1401.3 2055.76 1402.49 2026.04 1402.49 2026.27 1401.3 2027.82 1401.3C2030.04 1401.3 2032.12 1401.12 2034.06 1400.76 2036 1400.41 2037.69 1399.67 2039.12 1398.56 2040.54 1397.46 2041.57 1395.71 2042.21 1393.34L2056.36 1326.92C2056.52 1326.45 2056.64 1325.85 2056.72 1325.14 2056.8 1324.43 2056.83 1323.91 2056.83 1323.59 2056.83 1321.53 2055.74 1320.23 2053.56 1319.67 2051.38 1319.12 2048.59 1318.84 2045.18 1318.84L2043.64 1318.84ZM1962.84 1317.65 1974.14 1317.65 1963.44 1345.57 1961.65 1345.57ZM2675.56 1317.53C2672.23 1317.53 2669.27 1318.86 2666.7 1321.52 2664.12 1324.17 2661.9 1327.69 2660.04 1332.09 2658.18 1336.49 2656.63 1341.36 2655.4 1346.7 2654.17 1352.05 2653.26 1357.5 2652.67 1363.04 2652.07 1368.58 2651.77 1373.73 2651.77 1378.49 2651.77 1384.51 2652.21 1389.28 2653.08 1392.8 2653.95 1396.33 2655.24 1398.84 2656.95 1400.35 2658.65 1401.85 2660.77 1402.6 2663.31 1402.6 2666.08 1402.6 2668.6 1401.67 2670.86 1399.81 2673.12 1397.95 2675.12 1395.4 2676.87 1392.15 2678.61 1388.9 2680.12 1385.2 2681.38 1381.04 2682.65 1376.88 2683.7 1372.51 2684.54 1367.91 2685.37 1363.32 2685.98 1358.74 2686.38 1354.19 2686.77 1349.63 2686.97 1345.34 2686.97 1341.3 2686.97 1335.36 2686.58 1330.64 2685.78 1327.16 2684.99 1323.67 2683.74 1321.2 2682.04 1319.73 2680.33 1318.27 2678.17 1317.53 2675.56 1317.53ZM2796.53 1316.47C2803.98 1316.47 2809.59 1318.01 2813.35 1321.1 2817.12 1324.19 2819 1328.43 2819 1333.81 2819 1337.46 2818.03 1341.08 2816.09 1344.68 2814.14 1348.29 2811.19 1352.05 2807.23 1355.97 2803.26 1359.89 2798.15 1364.23 2791.89 1368.98L2760.37 1392.98 2798.9 1392.98C2801.36 1392.98 2803.34 1392.56 2804.85 1391.73 2806.36 1390.9 2807.58 1389.79 2808.54 1388.41 2809.49 1387.02 2810.24 1385.57 2810.79 1384.07L2811.51 1382.17 2812.7 1382.17 2807.94 1402.49 2756.45 1402.49 2758.95 1392.86 2787.25 1367.67C2791.29 1364.11 2794.58 1360.82 2797.12 1357.81 2799.66 1354.8 2801.64 1351.97 2803.07 1349.32 2804.49 1346.66 2805.48 1344.01 2806.04 1341.36 2806.59 1338.7 2806.87 1335.95 2806.87 1333.1 2806.87 1327.55 2805.94 1323.59 2804.08 1321.22 2802.21 1318.84 2799.54 1317.65 2796.05 1317.65 2793.35 1317.65 2791.04 1318.17 2789.09 1319.2 2787.15 1320.23 2785.51 1321.71 2784.16 1323.65 2782.81 1325.59 2781.72 1327.97 2780.89 1330.78 2780.06 1333.59 2779.44 1336.78 2779.04 1340.35 2776.59 1340.35 2774.57 1339.75 2772.98 1338.56 2771.39 1337.38 2770.6 1335.44 2770.6 1332.74 2770.6 1329.97 2771.61 1327.36 2773.63 1324.9 2775.66 1322.45 2778.61 1320.43 2782.49 1318.84 2786.38 1317.26 2791.05 1316.47 2796.53 1316.47ZM2735.68 1316.47C2743.14 1316.47 2748.75 1318.01 2752.51 1321.1 2756.28 1324.19 2758.16 1328.43 2758.16 1333.81 2758.16 1337.46 2757.19 1341.08 2755.25 1344.68 2753.3 1348.29 2750.35 1352.05 2746.39 1355.97 2742.42 1359.89 2737.31 1364.23 2731.05 1368.98L2699.53 1392.98 2738.06 1392.98C2740.52 1392.98 2742.5 1392.56 2744.01 1391.73 2745.51 1390.9 2746.74 1389.79 2747.69 1388.41 2748.65 1387.02 2749.4 1385.57 2749.95 1384.07L2750.67 1382.17 2751.86 1382.17 2747.1 1402.49 2695.61 1402.49 2698.11 1392.86 2726.41 1367.67C2730.45 1364.11 2733.74 1360.82 2736.28 1357.81 2738.82 1354.8 2740.8 1351.97 2742.22 1349.32 2743.65 1346.66 2744.64 1344.01 2745.2 1341.36 2745.75 1338.7 2746.03 1335.95 2746.03 1333.1 2746.03 1327.55 2745.1 1323.59 2743.24 1321.22 2741.37 1318.84 2738.7 1317.65 2735.21 1317.65 2732.51 1317.65 2730.19 1318.17 2728.25 1319.2 2726.31 1320.23 2724.67 1321.71 2723.32 1323.65 2721.97 1325.59 2720.88 1327.97 2720.05 1330.78 2719.21 1333.59 2718.6 1336.78 2718.2 1340.35 2715.75 1340.35 2713.72 1339.75 2712.14 1338.56 2710.55 1337.38 2709.76 1335.44 2709.76 1332.74 2709.76 1329.97 2710.77 1327.36 2712.79 1324.9 2714.81 1322.45 2717.77 1320.43 2721.65 1318.84 2725.54 1317.26 2730.21 1316.47 2735.68 1316.47ZM2614 1316.47C2621.46 1316.47 2627.06 1318.01 2630.83 1321.1 2634.6 1324.19 2636.48 1328.43 2636.48 1333.81 2636.48 1337.46 2635.51 1341.08 2633.56 1344.68 2631.62 1348.29 2628.67 1352.05 2624.71 1355.97 2620.74 1359.89 2615.63 1364.23 2609.37 1368.98L2577.85 1392.98 2616.38 1392.98C2618.84 1392.98 2620.82 1392.56 2622.33 1391.73 2623.83 1390.9 2625.06 1389.79 2626.01 1388.41 2626.96 1387.02 2627.72 1385.57 2628.27 1384.07L2628.99 1382.17 2630.18 1382.17 2625.42 1402.49 2573.93 1402.49 2576.43 1392.86 2604.73 1367.67C2608.77 1364.11 2612.06 1360.82 2614.6 1357.81 2617.13 1354.8 2619.12 1351.97 2620.54 1349.32 2621.97 1346.66 2622.96 1344.01 2623.52 1341.36 2624.07 1338.7 2624.35 1335.95 2624.35 1333.1 2624.35 1327.55 2623.42 1323.59 2621.55 1321.22 2619.69 1318.84 2617.02 1317.65 2613.53 1317.65 2610.83 1317.65 2608.51 1318.17 2606.57 1319.2 2604.63 1320.23 2602.98 1321.71 2601.64 1323.65 2600.29 1325.59 2599.2 1327.97 2598.37 1330.78 2597.53 1333.59 2596.92 1336.78 2596.52 1340.35 2594.06 1340.35 2592.04 1339.75 2590.46 1338.56 2588.87 1337.38 2588.08 1335.44 2588.08 1332.74 2588.08 1329.97 2589.09 1327.36 2591.11 1324.9 2593.13 1322.45 2596.09 1320.43 2599.97 1318.84 2603.86 1317.26 2608.53 1316.47 2614 1316.47ZM1623.33 1316.47C1627.93 1316.47 1631.92 1317 1635.29 1318.07 1638.65 1319.14 1641.27 1320.64 1643.13 1322.58 1645 1324.53 1645.93 1326.76 1645.93 1329.3 1645.93 1331.75 1645.19 1333.73 1643.73 1335.24 1642.26 1336.74 1639.9 1337.5 1636.65 1337.5 1636.65 1335.36 1636.55 1333.14 1636.36 1330.84 1636.16 1328.54 1635.66 1326.39 1634.87 1324.37 1634.08 1322.35 1632.77 1320.72 1630.94 1319.5 1629.12 1318.27 1626.58 1317.65 1623.33 1317.65 1620.16 1317.65 1617.29 1318.37 1614.71 1319.79 1612.14 1321.22 1610.07 1323.38 1608.53 1326.27 1606.98 1329.16 1606.21 1332.86 1606.21 1337.38 1606.21 1340.31 1606.75 1342.76 1607.82 1344.74 1608.89 1346.72 1610.53 1348.54 1612.75 1350.21 1614.97 1351.87 1617.71 1353.65 1620.96 1355.55 1624.92 1357.85 1628.21 1360.17 1630.83 1362.51 1633.44 1364.84 1635.38 1367.34 1636.65 1369.99 1637.92 1372.64 1638.56 1375.55 1638.56 1378.72 1638.56 1382.68 1637.84 1386.21 1636.41 1389.3 1634.99 1392.39 1632.93 1395 1630.23 1397.14 1627.54 1399.28 1624.27 1400.9 1620.42 1402.01 1616.58 1403.12 1612.23 1403.67 1607.4 1403.67 1601.61 1403.67 1596.76 1402.9 1592.83 1401.36 1588.91 1399.81 1585.95 1397.73 1583.97 1395.12 1581.99 1392.51 1581 1389.69 1581 1386.68 1581 1383.67 1581.95 1381.42 1583.85 1379.91 1585.76 1378.41 1587.86 1377.65 1590.16 1377.65 1590.16 1382.09 1590.69 1386.21 1591.76 1390.01 1592.83 1393.81 1594.64 1396.84 1597.17 1399.1 1599.71 1401.36 1603.12 1402.49 1607.4 1402.49 1611.68 1402.49 1615.23 1401.67 1618.04 1400.05 1620.86 1398.43 1622.94 1396.13 1624.29 1393.16 1625.63 1390.19 1626.31 1386.64 1626.31 1382.53 1626.31 1380.15 1625.95 1378.01 1625.24 1376.11 1624.52 1374.21 1623.1 1372.29 1620.96 1370.35 1618.82 1368.41 1615.6 1366.25 1611.32 1363.87 1607.99 1361.97 1605.06 1359.89 1602.52 1357.63 1599.99 1355.38 1598 1352.76 1596.58 1349.79 1595.15 1346.82 1594.44 1343.36 1594.44 1339.4 1594.44 1336.15 1595.09 1333.12 1596.4 1330.31 1597.71 1327.5 1599.61 1325.06 1602.11 1323 1604.6 1320.94 1607.64 1319.34 1611.2 1318.19 1614.77 1317.04 1618.82 1316.47 1623.33 1316.47ZM2675.91 1316.35C2680.12 1316.35 2683.92 1317.3 2687.33 1319.2 2690.74 1321.1 2693.45 1324.05 2695.48 1328.05 2697.5 1332.05 2698.51 1337.22 2698.51 1343.55 2698.51 1348.39 2698.07 1353.53 2697.2 1359 2696.33 1364.47 2694.98 1369.83 2693.16 1375.1 2691.33 1380.37 2689.03 1385.18 2686.26 1389.53 2683.48 1393.89 2680.18 1397.36 2676.33 1399.93 2672.49 1402.51 2668.11 1403.79 2663.19 1403.79 2656.37 1403.79 2650.84 1401.34 2646.6 1396.43 2642.36 1391.52 2640.24 1384.39 2640.24 1375.04 2640.24 1370.13 2640.7 1364.96 2641.61 1359.53 2642.52 1354.11 2643.91 1348.84 2645.77 1343.73 2647.63 1338.62 2649.97 1334.01 2652.78 1329.89 2655.6 1325.77 2658.93 1322.49 2662.77 1320.03 2666.62 1317.57 2671 1316.35 2675.91 1316.35ZM1714.93 1312.19 1736.81 1312.19 1732.17 1334.05C1731.78 1335.87 1731.28 1338.19 1730.69 1341 1730.09 1343.81 1729.44 1346.86 1728.72 1350.15 1728.01 1353.44 1727.3 1356.68 1726.58 1359.89 1725.87 1363.1 1725.24 1366.03 1724.68 1368.68 1724.13 1371.34 1723.69 1373.42 1723.37 1374.92L1747.87 1353.77C1751.28 1350.84 1753.58 1348.7 1754.77 1347.36 1755.96 1346.01 1756.55 1344.66 1756.55 1343.32 1756.55 1342.29 1755.86 1341.48 1754.47 1340.88 1753.08 1340.29 1750.29 1339.99 1746.09 1339.99L1746.32 1338.8 1772.6 1338.8 1772.37 1339.99C1769.19 1339.99 1765.94 1341.18 1762.61 1343.55 1759.29 1345.93 1755.52 1348.9 1751.32 1352.47L1739.06 1363.01 1752.15 1388.35C1753.66 1391.12 1754.91 1393.55 1755.9 1395.65 1756.89 1397.75 1757.98 1399.36 1759.17 1400.47 1760.36 1401.57 1761.86 1402.13 1763.69 1402.13L1763.45 1403.32 1762.61 1403.32C1758.33 1403.24 1754.91 1402.88 1752.33 1402.25 1749.75 1401.61 1747.65 1400.45 1746.03 1398.74 1744.4 1397.04 1742.8 1394.53 1741.21 1391.2L1731 1369.98 1723.02 1376.82 1717.66 1402.49 1706.61 1402.49 1722.9 1325.26C1723.29 1323.67 1723.57 1322.37 1723.73 1321.34 1723.89 1320.31 1723.97 1319.52 1723.97 1318.96 1723.97 1316.58 1723.15 1315.06 1721.53 1314.39 1719.9 1313.71 1717.94 1313.38 1715.64 1313.38L1714.69 1313.38ZM2559.53 1311C2564.6 1311 2568.42 1311.81 2571 1313.44 2573.58 1315.06 2574.87 1317.18 2574.87 1319.79 2574.87 1322.41 2574.01 1324.35 2572.31 1325.61 2570.6 1326.88 2568.17 1327.52 2565 1327.52 2565.07 1323.32 2564.76 1319.71 2564.04 1316.7 2563.33 1313.69 2561.75 1312.19 2559.29 1312.19 2557.31 1312.19 2555.68 1312.8 2554.41 1314.03 2553.14 1315.26 2552.05 1317.26 2551.14 1320.03 2550.23 1322.8 2549.3 1326.52 2548.35 1331.2L2546.8 1338.8 2560 1338.8 2559.76 1339.99 2546.56 1339.99 2533.01 1403.44C2531.9 1408.74 2530.53 1413.18 2528.9 1416.74 2527.28 1420.31 2525.4 1423.12 2523.26 1425.18 2521.12 1427.24 2518.72 1428.72 2516.06 1429.63 2513.41 1430.54 2510.45 1431 2507.2 1431 2506.01 1431 2504.77 1430.9 2503.46 1430.7 2502.15 1430.51 2501.1 1430.29 2500.31 1430.05L2500.54 1428.86C2501.18 1429.02 2502.03 1429.2 2503.1 1429.4 2504.17 1429.59 2505.14 1429.69 2506.01 1429.69 2508.79 1429.69 2511.11 1428.82 2512.97 1427.08 2514.83 1425.34 2516.44 1422.54 2517.79 1418.7 2519.13 1414.86 2520.48 1409.81 2521.83 1403.55L2535.5 1339.99 2524.56 1339.99 2524.68 1339.28 2535.62 1338.8 2536.93 1332.27C2538.28 1325.46 2540.76 1320.21 2544.36 1316.53 2547.97 1312.84 2553.02 1311 2559.53 1311Z" fill="#FFFFFF" fill-rule="evenodd"/>
    <path d="M2222.82 1186.94 2214.61 1201.19C2219.22 1202.92 2223.98 1205 2228.87 1207.45 2226.71 1200.25 2224.7 1193.42 2222.82 1186.94ZM2113.51 1182.62 2098.17 1196.22C2099.9 1203.42 2105.02 1209.04 2113.51 1213.07ZM2211.59 1169.88C2204.53 1170.17 2197.48 1170.75 2190.42 1171.61 2185.38 1179.09 2180.27 1185.79 2175.08 1191.69 2181.99 1192.41 2189.27 1193.85 2196.9 1196.01 2203.38 1186.36 2208.28 1177.65 2211.59 1169.88ZM2113.51 1152.18 2100.55 1169.88 2113.51 1159.3ZM1741.23 1129.94C1741.8 1129.94 1742.95 1131.3 1744.68 1134.04 1755.63 1134.9 1762.33 1135.84 1764.77 1136.85 1771.11 1139.72 1774.28 1143.97 1774.28 1149.58 1774.28 1154.62 1769.45 1157.14 1759.81 1157.14 1747.71 1160.45 1735.47 1162.97 1723.08 1164.7 1732.44 1159.95 1740 1155.41 1745.76 1151.1 1739.57 1146.35 1736.47 1141.74 1736.47 1137.28 1736.47 1134.83 1737.05 1132.89 1738.2 1131.45 1739.21 1130.44 1740.22 1129.94 1741.23 1129.94ZM2354.2 1118.71C2340.23 1125.04 2327.92 1133.54 2317.26 1144.19 2307.18 1155.7 2302.14 1164.63 2302.14 1170.96 2302.14 1177.29 2306.46 1183.84 2315.1 1190.61 2323.6 1182.69 2332.53 1169.81 2341.89 1151.96 2347.65 1141.02 2351.76 1129.94 2354.2 1118.71ZM1971.76 1118.71C1957.79 1125.04 1945.48 1133.54 1934.82 1144.19 1924.74 1155.7 1919.7 1164.63 1919.7 1170.96 1919.7 1177.29 1924.02 1183.84 1932.66 1190.61 1941.16 1182.69 1950.09 1169.81 1959.45 1151.96 1965.21 1141.02 1969.32 1129.94 1971.76 1118.71ZM2817.15 1108.13C2818.73 1108.13 2819.52 1109.21 2819.52 1111.37 2819.52 1113.24 2817.79 1118.56 2814.34 1127.35 2803.1 1152.54 2785.97 1173.26 2762.92 1189.53 2753.27 1196.44 2736.28 1208.32 2711.94 1225.16 2708.19 1228.61 2704.31 1230.34 2700.27 1230.34 2697.1 1230.34 2692.57 1228.18 2686.66 1223.86 2677.45 1216.81 2672.84 1210.98 2672.84 1206.37 2672.84 1200.9 2673.99 1198.17 2676.29 1198.17 2677.88 1198.17 2682.49 1200.25 2690.12 1204.43 2703.8 1199.1 2723.89 1187.08 2750.39 1168.37 2773.72 1150.81 2793.96 1132.38 2811.1 1113.09 2813.26 1109.78 2815.27 1108.13 2817.15 1108.13ZM1494.86 1098.63C1488.67 1098.63 1484.06 1103.74 1481.03 1113.96 1477.58 1122.45 1475.85 1137.13 1475.85 1158.01 1475.85 1178.88 1477.58 1193.56 1481.03 1202.05 1484.06 1212.27 1488.67 1217.38 1494.86 1217.38 1501.05 1217.38 1505.66 1212.27 1508.69 1202.05 1511.28 1193.56 1512.57 1178.88 1512.57 1158.01 1512.57 1137.13 1511.28 1122.45 1508.69 1113.96 1505.66 1103.74 1501.05 1098.63 1494.86 1098.63ZM2610.66 1090.85C2614.7 1090.85 2620.6 1094.31 2628.38 1101.22 2634.28 1107.12 2637.24 1112.3 2637.24 1116.77 2637.24 1121.95 2633.56 1125.62 2626.22 1127.78 2608.94 1144.47 2597.92 1154.84 2593.17 1158.87 2585.68 1165.2 2576.17 1171.03 2564.65 1176.36 2574.16 1181.83 2580.64 1188.16 2584.09 1195.36 2586.69 1201.26 2587.98 1206.52 2587.98 1211.12 2587.98 1216.02 2586.97 1219.83 2584.96 1222.57 2583.23 1225.16 2580.64 1226.45 2577.18 1226.45 2574.59 1226.45 2571.2 1224.65 2567.03 1221.05 2560.26 1221.34 2551.4 1221.49 2540.45 1221.49L2540.24 1220.19C2547.87 1216.59 2554.35 1212.35 2559.68 1207.45 2551.33 1196.94 2536.42 1184.28 2514.96 1169.45 2511.36 1167.72 2509.56 1165.42 2509.56 1162.54 2509.56 1159.52 2511.36 1158.01 2514.96 1158.01 2521.16 1158.01 2533.25 1161.46 2551.26 1168.37 2558.31 1162.61 2564.43 1157 2569.62 1151.53 2578.98 1142.46 2588.92 1130.01 2599.43 1114.17 2580.28 1114.75 2552.34 1121.66 2515.61 1134.9 2509.42 1136.77 2504.38 1137.71 2500.49 1137.71 2495.45 1137.71 2489.11 1135.26 2481.48 1130.37 2476.87 1127.35 2474.21 1124.97 2473.49 1123.24 2472.77 1121.37 2472.41 1119.21 2472.41 1116.77 2472.41 1113.02 2474.21 1111.15 2477.81 1111.15 2479.39 1111.15 2482.99 1112.59 2488.61 1115.47 2526.92 1105.11 2563.28 1098.63 2597.7 1096.04 2604.04 1092.58 2608.36 1090.85 2610.66 1090.85ZM2689.47 1085.89C2699.27 1085.89 2707.26 1087.69 2713.45 1091.29 2721.95 1098.63 2726.2 1106.83 2726.2 1115.9 2726.2 1120.65 2724.47 1123.96 2721.01 1125.83 2718.56 1127.13 2714.68 1127.85 2709.35 1127.99 2702.15 1131.59 2694.3 1135.12 2685.8 1138.57L2685.15 1137.71C2691.49 1131.23 2696.53 1123.89 2700.27 1115.69 2694.37 1108.92 2688.97 1104.75 2684.07 1103.16 2677.73 1101.29 2674.57 1099.28 2674.57 1097.12 2674.57 1094.96 2675.65 1092.65 2677.81 1090.21 2680.4 1087.33 2684.29 1085.89 2689.47 1085.89ZM2364.57 1085.46C2366.16 1085.46 2367.74 1087.11 2369.33 1090.42 2370.05 1091.72 2370.91 1094.6 2371.92 1099.06 2374.08 1098.92 2376.02 1098.84 2377.75 1098.84 2387.98 1098.84 2398.27 1101.43 2408.64 1106.62 2429.96 1118.56 2440.62 1136.63 2440.62 1160.81 2440.62 1186.58 2426.65 1205.8 2398.71 1218.46 2384.88 1224.8 2374.73 1227.96 2368.25 1227.96 2366.08 1227.96 2365 1227.17 2365 1225.59 2365 1223.72 2367.31 1221.49 2371.92 1218.9 2400.72 1196.58 2415.12 1174.2 2415.12 1151.74 2415.12 1142.68 2411.74 1134.04 2404.97 1125.83 2396.91 1118.49 2387.83 1114.82 2377.75 1114.82 2376.17 1114.82 2374.58 1114.97 2373 1115.25 2364.36 1150.81 2351.68 1178.73 2334.98 1199.03 2330.22 1204.93 2325.47 1209.61 2320.72 1213.07 2317.69 1215.51 2313.01 1216.74 2306.68 1216.74 2301.35 1216.74 2298.32 1214.36 2297.6 1209.61 2297.32 1207.16 2296.52 1200.18 2295.23 1188.67 2292.92 1181.04 2291.27 1175.42 2290.26 1171.82 2289.11 1166.21 2288.53 1161.89 2288.53 1158.87 2288.53 1149.08 2295.95 1137.64 2310.78 1124.54 2325.18 1113.02 2341.24 1105.03 2358.96 1100.57 2359.1 1090.49 2360.97 1085.46 2364.57 1085.46ZM1982.13 1085.46C1983.72 1085.46 1985.3 1087.11 1986.89 1090.42 1987.61 1091.72 1988.47 1094.6 1989.48 1099.06 1991.64 1098.92 1993.58 1098.84 1995.31 1098.84 2005.54 1098.84 2015.83 1101.43 2026.2 1106.62 2047.52 1118.56 2058.18 1136.63 2058.18 1160.81 2058.18 1186.58 2044.21 1205.8 2016.27 1218.46 2002.44 1224.8 1992.29 1227.96 1985.81 1227.96 1983.65 1227.96 1982.57 1227.17 1982.57 1225.59 1982.57 1223.72 1984.87 1221.49 1989.48 1218.9 2018.28 1196.58 2032.68 1174.2 2032.68 1151.74 2032.68 1142.68 2029.3 1134.04 2022.53 1125.83 2014.47 1118.49 2005.39 1114.82 1995.31 1114.82 1993.73 1114.82 1992.14 1114.97 1990.56 1115.25 1981.92 1150.81 1969.24 1178.73 1952.54 1199.03 1947.78 1204.93 1943.03 1209.61 1938.28 1213.07 1935.25 1215.51 1930.57 1216.74 1924.24 1216.74 1918.91 1216.74 1915.88 1214.36 1915.16 1209.61 1914.88 1207.16 1914.08 1200.18 1912.79 1188.67 1910.48 1181.04 1908.83 1175.42 1907.82 1171.82 1906.67 1166.21 1906.09 1161.89 1906.09 1158.87 1906.09 1149.08 1913.51 1137.64 1928.34 1124.54 1942.74 1113.02 1958.8 1105.03 1976.52 1100.57 1976.66 1090.49 1978.53 1085.46 1982.13 1085.46ZM1656.87 1083.08C1666.09 1083.08 1673.87 1085.67 1680.2 1090.85 1688.41 1097.76 1692.52 1107.12 1692.52 1118.92 1692.52 1129 1687.48 1140.01 1677.4 1151.96 1665.01 1166.21 1653.92 1181.69 1644.13 1198.38 1641.53 1202.99 1640.02 1206.59 1639.59 1209.18L1660.76 1209.18C1666.38 1204.72 1670.41 1202.49 1672.86 1202.49 1677.18 1202.49 1682.36 1205.36 1688.41 1211.12 1690.14 1212.99 1691 1215.8 1691 1219.54 1691 1226.74 1687.19 1230.34 1679.56 1230.34L1639.37 1230.34C1635.49 1230.48 1630.16 1230.56 1623.39 1230.56 1617.77 1230.56 1614.96 1227.17 1614.96 1220.41 1614.96 1213.64 1617.91 1205.08 1623.82 1194.71 1633.61 1177.29 1644.13 1160.45 1655.36 1144.19 1662.42 1132.67 1665.95 1124.54 1665.95 1119.79 1665.95 1111.87 1664.72 1106.69 1662.27 1104.24 1659.97 1101.79 1656.58 1100.57 1652.12 1100.57 1645.93 1100.57 1641.75 1103.81 1639.59 1110.29 1642.18 1114.03 1643.48 1117.56 1643.48 1120.87 1643.48 1124.75 1642.4 1127.71 1640.24 1129.72 1637.36 1132.74 1633.61 1134.25 1629 1134.25 1625.12 1134.25 1622.38 1133.46 1620.8 1131.88 1617.48 1128.86 1615.83 1124.54 1615.83 1118.92 1615.83 1108.13 1620.65 1098.77 1630.3 1090.85 1637.65 1085.67 1646.5 1083.08 1656.87 1083.08ZM1578.13 1083.08C1587.35 1083.08 1595.13 1085.67 1601.47 1090.85 1609.68 1097.76 1613.78 1107.12 1613.78 1118.92 1613.78 1129 1608.74 1140.01 1598.66 1151.96 1586.27 1166.21 1575.18 1181.69 1565.39 1198.38 1562.8 1202.99 1561.28 1206.59 1560.85 1209.18L1582.02 1209.18C1587.64 1204.72 1591.67 1202.49 1594.12 1202.49 1598.44 1202.49 1603.63 1205.36 1609.68 1211.12 1611.4 1212.99 1612.27 1215.8 1612.27 1219.54 1612.27 1226.74 1608.45 1230.34 1600.82 1230.34L1560.64 1230.34C1556.75 1230.48 1551.42 1230.56 1544.65 1230.56 1539.03 1230.56 1536.22 1227.17 1536.22 1220.41 1536.22 1213.64 1539.18 1205.08 1545.08 1194.71 1554.88 1177.29 1565.39 1160.45 1576.62 1144.19 1583.68 1132.67 1587.21 1124.54 1587.21 1119.79 1587.21 1111.87 1585.98 1106.69 1583.54 1104.24 1581.23 1101.79 1577.85 1100.57 1573.38 1100.57 1567.19 1100.57 1563.01 1103.81 1560.85 1110.29 1563.44 1114.03 1564.74 1117.56 1564.74 1120.87 1564.74 1124.75 1563.66 1127.71 1561.5 1129.72 1558.62 1132.74 1554.88 1134.25 1550.27 1134.25 1546.38 1134.25 1543.64 1133.46 1542.06 1131.88 1538.74 1128.86 1537.09 1124.54 1537.09 1118.92 1537.09 1108.13 1541.91 1098.77 1551.56 1090.85 1558.91 1085.67 1567.77 1083.08 1578.13 1083.08ZM1416.91 1083.08C1426.13 1083.08 1433.9 1085.67 1440.24 1090.85 1448.45 1097.76 1452.56 1107.12 1452.56 1118.92 1452.56 1129 1447.51 1140.01 1437.43 1151.96 1425.05 1166.21 1413.96 1181.69 1404.16 1198.38 1401.57 1202.99 1400.06 1206.59 1399.63 1209.18L1420.8 1209.18C1426.42 1204.72 1430.45 1202.49 1432.9 1202.49 1437.22 1202.49 1442.4 1205.36 1448.45 1211.12 1450.18 1212.99 1451.04 1215.8 1451.04 1219.54 1451.04 1226.74 1447.23 1230.34 1439.59 1230.34L1399.41 1230.34C1395.52 1230.48 1390.19 1230.56 1383.43 1230.56 1377.81 1230.56 1375 1227.17 1375 1220.41 1375 1213.64 1377.95 1205.08 1383.86 1194.71 1393.65 1177.29 1404.16 1160.45 1415.4 1144.19 1422.45 1132.67 1425.98 1124.54 1425.98 1119.79 1425.98 1111.87 1424.76 1106.69 1422.31 1104.24 1420.01 1101.79 1416.62 1100.57 1412.16 1100.57 1405.96 1100.57 1401.79 1103.81 1399.63 1110.29 1402.22 1114.03 1403.52 1117.56 1403.52 1120.87 1403.52 1124.75 1402.44 1127.71 1400.28 1129.72 1397.4 1132.74 1393.65 1134.25 1389.04 1134.25 1385.15 1134.25 1382.42 1133.46 1380.83 1131.88 1377.52 1128.86 1375.86 1124.54 1375.86 1118.92 1375.86 1108.13 1380.69 1098.77 1390.34 1090.85 1397.68 1085.67 1406.54 1083.08 1416.91 1083.08ZM1494.86 1082.65C1508.83 1082.65 1519.7 1090.49 1527.48 1106.19 1532.95 1120.44 1535.69 1137.71 1535.69 1158.01 1535.69 1178.3 1532.95 1195.58 1527.48 1209.83 1519.7 1225.52 1508.83 1233.36 1494.86 1233.36 1480.89 1233.36 1470.02 1225.52 1462.24 1209.83 1455.9 1195.58 1452.73 1178.3 1452.73 1158.01 1452.73 1137.71 1455.9 1120.44 1462.24 1106.19 1470.02 1090.49 1480.89 1082.65 1494.86 1082.65ZM2927.57 1073.37C2931.03 1073.37 2934.92 1075.31 2939.24 1079.19 2945.72 1084.81 2948.96 1090.06 2948.96 1094.96 2948.96 1097.4 2945.93 1104.89 2939.88 1117.41 2953.13 1115.69 2964.15 1114.25 2972.94 1113.09 2976.39 1111.51 2978.91 1110.72 2980.5 1110.72 2985.54 1110.72 2991.01 1114.53 2996.92 1122.16 3000.08 1126.63 3001.67 1130.66 3001.67 1134.25 3001.67 1138.14 2999.44 1142.68 2994.97 1147.86 2988.78 1169.16 2984.03 1183.7 2980.71 1191.47 2966.6 1221.41 2951.84 1236.38 2936.43 1236.38 2928.65 1236.38 2924.76 1230.84 2924.76 1219.76 2919.86 1210.11 2916.19 1199.39 2913.74 1187.59L2914.61 1186.94C2922.24 1195 2930.59 1201.69 2939.67 1207.02 2945 1203.71 2951.91 1192.77 2960.41 1174.2 2967.9 1155.34 2972.29 1140.66 2973.58 1130.15 2958.03 1131.59 2943.84 1134.25 2931.03 1138.14 2920.66 1166.64 2909.42 1188.02 2897.33 1202.27 2889.12 1211.48 2878.39 1219.76 2865.14 1227.1 2860.38 1229.26 2857 1230.34 2854.98 1230.34 2853.11 1230.34 2852.18 1229.33 2852.18 1227.32 2852.18 1225.59 2853.26 1223.86 2855.42 1222.13 2877.6 1202.7 2894.59 1177.29 2906.4 1145.91 2896.89 1148.94 2889.98 1150.45 2885.66 1150.45 2881.77 1150.45 2877.31 1148.07 2872.27 1143.32 2867.37 1138.14 2864.92 1134.4 2864.92 1132.1 2864.92 1129.79 2866.07 1128.64 2868.38 1128.64 2870.39 1128.64 2872.91 1129.5 2875.94 1131.23 2886.88 1128.5 2899.41 1125.91 2913.53 1123.46 2917.7 1110.22 2920.66 1098.2 2922.39 1087.4 2919.79 1084.38 2918.5 1082.07 2918.5 1080.49 2918.5 1078.48 2919.22 1076.82 2920.66 1075.52 2922.24 1074.08 2924.55 1073.37 2927.57 1073.37ZM3008.58 1072.29C3013.05 1072.29 3017.15 1073.22 3020.9 1075.09 3023.63 1077.4 3025 1080.85 3025 1085.46 3025 1089.06 3023.13 1090.85 3019.38 1090.85 3015.49 1090.85 3010.38 1088.34 3004.04 1083.3 3002.89 1083.59 3002.32 1084.31 3002.32 1085.46 3002.32 1088.91 3003.32 1091.93 3005.34 1094.53 3006.93 1097.12 3007.72 1099.56 3007.72 1101.87 3007.72 1105.75 3005.41 1107.7 3000.8 1107.7 2996.48 1107.7 2992.88 1106.76 2990 1104.89 2985.97 1101.87 2982.08 1097.98 2978.34 1093.23 2975.6 1091.79 2974.23 1090.28 2974.23 1088.7 2974.23 1085.67 2977.91 1084.16 2985.25 1084.16 2987.7 1084.16 2990.58 1085.1 2993.89 1086.97 2995.91 1077.18 3000.8 1072.29 3008.58 1072.29ZM2238.38 1061.27C2240.68 1061.27 2244.79 1063.15 2250.69 1066.89 2258.04 1071.93 2261.71 1076.75 2261.71 1081.35 2261.71 1084.95 2258.18 1087.9 2251.12 1090.21 2236.43 1106.19 2219.01 1117.77 2198.84 1124.97 2205.33 1130.44 2208.57 1134.61 2208.57 1137.49 2208.57 1140.23 2205.69 1146.35 2199.93 1155.85L2216.34 1154.55 2216.56 1152.39C2214.98 1149.66 2214.18 1147.35 2214.18 1145.48 2214.18 1143.76 2215.34 1141.81 2217.64 1139.65 2220.38 1137.06 2222.39 1135.77 2223.69 1135.77 2226.42 1135.77 2229.67 1137.06 2233.41 1139.65 2237.87 1143.11 2240.11 1145.63 2240.11 1147.21 2240.11 1148.94 2239.75 1150.59 2239.03 1152.18L2243.78 1152.18C2248.53 1148 2251.77 1145.91 2253.5 1145.91 2256.67 1145.91 2260.99 1147.64 2266.46 1151.1 2270.64 1153.83 2272.73 1157.43 2272.73 1161.89 2272.73 1167.65 2269.77 1170.53 2263.87 1170.53 2255.8 1170.53 2244.93 1170.24 2231.25 1169.67L2225.42 1181.97C2231.18 1192.34 2235.71 1199.82 2239.03 1204.43 2243.06 1210.19 2247.45 1215.22 2252.2 1219.54 2255.95 1223.29 2257.82 1227.03 2257.82 1230.77 2257.82 1238.26 2253.79 1242 2245.72 1242 2237.66 1242 2223.26 1234.3 2202.52 1218.9 2189.56 1230.41 2178.47 1236.17 2169.25 1236.17 2164.21 1236.17 2159.1 1235.52 2153.91 1234.23 2149.3 1233.07 2147 1231.78 2147 1230.34 2147 1229.04 2148.15 1228.4 2150.45 1228.4 2160.1 1227.68 2172.13 1221.63 2186.53 1210.26 2182.79 1208.53 2178.18 1207.16 2172.71 1206.16 2167.09 1206.88 2162.84 1207.24 2159.96 1207.24 2155.35 1207.24 2153.05 1204.93 2153.05 1200.33 2153.05 1196.44 2153.91 1192.77 2155.64 1189.31 2156.79 1187.44 2159.96 1186.36 2165.14 1186.08 2167.74 1182.62 2169.9 1179.24 2171.62 1175.93 2165.14 1178.37 2160.1 1179.6 2156.5 1179.6 2152.9 1178.88 2147.65 1178.52 2140.73 1178.52 2137.13 1178.52 2135.33 1177.29 2135.33 1174.85 2135.48 1171.54 2139.29 1168.8 2146.78 1166.64 2159.02 1163.48 2170.4 1160.6 2180.91 1158.01 2183.22 1152.82 2185.59 1146.63 2188.04 1139.44 2184.44 1137.13 2182.64 1134.76 2182.64 1132.31 2182.64 1130.44 2184.3 1128.43 2187.61 1126.27 2190.49 1124.39 2193.08 1123.46 2195.39 1123.46 2210.51 1110.36 2223.04 1093.52 2232.98 1072.93 2226.64 1077.97 2219.15 1085.17 2210.51 1094.53 2209.5 1102.01 2207.41 1105.75 2204.25 1105.75 2199.93 1105.75 2197.04 1103.74 2195.6 1099.71 2191.28 1086.9 2188.33 1080.49 2186.75 1080.49 2184.59 1080.49 2183.51 1086.32 2183.51 1097.98 2183.94 1103.59 2184.15 1107.55 2184.15 1109.86 2184.15 1117.05 2182.14 1120.65 2178.11 1120.65 2168.17 1120.65 2161.62 1113.67 2158.45 1099.71 2157.15 1096.4 2155.21 1093.66 2152.61 1091.5 2150.17 1089.63 2148.94 1087.62 2148.94 1085.46 2148.94 1082.29 2151.25 1080.71 2155.85 1080.71 2158.74 1080.71 2165.58 1083.8 2176.38 1089.99 2177.82 1084.09 2179.04 1079.48 2180.05 1076.17 2181.35 1073.29 2183.79 1071.85 2187.4 1071.85 2191 1071.85 2195.24 1072.57 2200.14 1074.01 2202.88 1074.73 2205.47 1077.11 2207.92 1081.14 2214.83 1075.09 2221.17 1070.2 2226.93 1066.46 2233.12 1063 2236.94 1061.27 2238.38 1061.27ZM2116.11 1058.25C2119.42 1058.25 2123.31 1059.83 2127.77 1063 2134.97 1067.9 2138.57 1072.43 2138.57 1076.6 2138.57 1078.91 2137.42 1085.1 2135.12 1095.17 2142.46 1098.63 2146.13 1102.8 2146.13 1107.7 2146.13 1114.46 2140.88 1120.51 2130.36 1125.83 2129.07 1132.89 2128.42 1139.36 2128.42 1145.27 2138.79 1134.18 2147.07 1121.16 2153.26 1106.19 2152.69 1122.6 2144.62 1142.46 2129.07 1165.78 2130.22 1186.8 2130.8 1204.07 2130.8 1217.6 2130.8 1222.49 2129.35 1228.68 2126.47 1236.17 2124.03 1243.22 2121 1246.75 2117.4 1246.75 2113.8 1246.75 2111.5 1243.73 2110.49 1237.68 2105.45 1227.6 2100.41 1214.65 2095.37 1198.82 2086.87 1205.58 2081.18 1208.96 2078.3 1208.96 2075.56 1208.96 2073.12 1207.02 2070.95 1203.13 2069.8 1200.54 2069.23 1197.23 2069.23 1193.2 2069.23 1187.88 2073.33 1182.19 2081.54 1176.14 2087.45 1169.52 2095.37 1158.58 2105.3 1143.32 2104.58 1143.04 2104.22 1142.46 2104.22 1141.6 2104.22 1140.59 2104.87 1138.43 2106.17 1135.12 2102.42 1135.98 2099.54 1136.41 2097.53 1136.41 2092.2 1136.41 2086.15 1134.9 2079.38 1131.88 2073.19 1128.71 2070.09 1125.33 2070.09 1121.73 2070.09 1119.72 2071.1 1118.71 2073.12 1118.71 2074.84 1118.71 2077 1119.14 2079.6 1120 2094.29 1114.1 2105.23 1109.06 2112.43 1104.89 2112.43 1093.66 2112.14 1083.37 2111.57 1074.01 2106.38 1070.56 2103.79 1067.18 2103.79 1063.86 2103.79 1060.55 2107.9 1058.68 2116.11 1058.25ZM1758.51 1044C1763.55 1044 1767.08 1045.22 1769.09 1047.67 1775 1054.87 1777.95 1060.7 1777.95 1065.16 1777.95 1067.18 1774.78 1072.43 1768.45 1080.92 1784.14 1076.46 1796.46 1072.93 1805.39 1070.34 1812.01 1067.9 1817.85 1066.67 1822.89 1066.67 1828.36 1066.67 1832.9 1067.68 1836.5 1069.69 1840.67 1072.29 1842.76 1075.09 1842.76 1078.12 1842.76 1081.71 1838.94 1084.52 1831.31 1086.54 1825.12 1087.98 1817.77 1089.99 1809.28 1092.58 1812.3 1095.32 1814.03 1098.12 1814.46 1101 1828.57 1101.72 1835.63 1105.39 1835.63 1112.01 1835.63 1115.33 1833.47 1117.84 1829.15 1119.57 1824.25 1121.16 1818.93 1122.31 1813.16 1123.03L1813.16 1158.87C1823.39 1158.15 1833.54 1157.57 1843.62 1157.14 1839.16 1152.1 1832.9 1146.49 1824.83 1140.3 1836.06 1144.33 1847.08 1149.08 1857.88 1154.55 1873.44 1158.15 1881.21 1163.62 1881.21 1170.96 1881.21 1177.01 1877.25 1180.1 1869.33 1180.25 1849.46 1177.37 1836.71 1175.93 1831.09 1175.93 1826.77 1175.93 1821.09 1176.14 1814.03 1176.58 1814.17 1196.3 1814.24 1207.67 1814.24 1210.69 1814.24 1227.24 1808.05 1244.01 1795.67 1261 1791.06 1249.92 1788.75 1237.25 1788.75 1223 1788.75 1217.67 1789.19 1203.28 1790.05 1179.81 1773.49 1183.41 1758.51 1187.88 1745.12 1193.2 1734.89 1196.94 1728.19 1198.82 1725.02 1198.82 1720.27 1198.82 1713.21 1196.37 1703.85 1191.47 1697.23 1187.44 1693.92 1183.84 1693.92 1180.68 1693.92 1177.94 1695.14 1176.58 1697.59 1176.58 1699.46 1176.58 1702.34 1177.15 1706.23 1178.3 1732.87 1171.39 1761.1 1165.71 1790.91 1161.24L1790.91 1127.35C1777.81 1129.07 1769.02 1129.94 1764.56 1129.94 1760.09 1129.94 1755.27 1128.86 1750.08 1126.7 1744.9 1124.11 1742.31 1121.8 1742.31 1119.79 1742.31 1118.06 1743.24 1117.2 1745.12 1117.2 1746.12 1117.2 1747.71 1117.63 1749.87 1118.49 1762.83 1115.76 1776.51 1111.94 1790.91 1107.05L1790.91 1103.38 1788.11 1099.06C1781.34 1101.36 1774.5 1103.38 1767.58 1105.11 1773.49 1101.65 1779.25 1097.98 1784.86 1094.09 1773.78 1095.1 1760.81 1098.12 1745.98 1103.16 1742.52 1104.6 1739.14 1105.32 1735.83 1105.32 1733.67 1105.32 1732.59 1102.66 1732.59 1097.33 1732.59 1090.85 1734.89 1086.32 1739.5 1083.73 1744.54 1076.53 1750.01 1067.68 1755.92 1057.17 1754.33 1052.42 1753.54 1049.33 1753.54 1047.89 1753.54 1045.3 1755.2 1044 1758.51 1044Z" fill="#FFFFFF" fill-rule="evenodd"/>
  </g>
</svg>