<svg width="38" height="22"
  xmlns="http://www.w3.org/2000/svg"
  xmlns:xlink="http://www.w3.org/1999/xlink" xml:space="preserve" overflow="hidden">
  <defs>
    <clipPath id="clip0">
      <rect x="2181" y="1143" width="38" height="22"/>
    </clipPath>
  </defs>
  <g clip-path="url(#clip0)" transform="translate(-2181 -1143)">
    <path d="M2200 1165C2199.55 1165 2199.12 1164.93 2198.72 1164.79 2198.32 1164.65 2197.96 1164.41 2197.61 1164.08L2181.94 1148.63C2181.31 1148.01 2181 1147.23 2181 1146.27 2181 1145.32 2181.31 1144.54 2181.94 1143.92 2182.56 1143.31 2183.36 1143 2184.32 1143 2185.29 1143 2186.08 1143.31 2186.71 1143.92L2200 1157.02 2213.29 1143.92C2213.92 1143.31 2214.71 1143 2215.68 1143 2216.64 1143 2217.44 1143.31 2218.06 1143.92 2218.69 1144.54 2219 1145.32 2219 1146.27 2219 1147.23 2218.69 1148.01 2218.06 1148.63L2202.39 1164.08C2202.04 1164.41 2201.68 1164.65 2201.28 1164.79 2200.88 1164.93 2200.45 1165 2200 1165Z" fill="#FFFFFF" fill-rule="evenodd"/>
  </g>
</svg>