<svg width="1650" height="415"
  xmlns="http://www.w3.org/2000/svg"
  xmlns:xlink="http://www.w3.org/1999/xlink" xml:space="preserve" overflow="hidden">
  <defs>
    <clipPath id="clip0">
      <rect x="1375" y="1030" width="1650" height="415"/>
    </clipPath>
  </defs>
  <g clip-path="url(#clip0)" transform="translate(-1375 -1030)">
    <path d="M2907.77 1201.59C2905.04 1201.59 2902.04 1202.36 2898.79 1203.89 2899.65 1206.96 2900.85 1210.71 2902.38 1215.14 2903.58 1218.55 2905.46 1226.99 2908.03 1240.46L2925.47 1238.41C2919.49 1232.45 2916.49 1225.63 2916.49 1217.96 2916.49 1213.18 2916.92 1207.98 2917.78 1202.36 2913.5 1201.85 2910.17 1201.59 2907.77 1201.59ZM1557.38 1199.29 1547.64 1216.17C1553.11 1218.21 1558.75 1220.68 1564.57 1223.58 1562 1215.06 1559.61 1206.96 1557.38 1199.29ZM2946.76 1196.73 2927.52 1201.08 2929.58 1212.33C2933 1209.77 2936.42 1205.85 2939.84 1200.57 2938.81 1208.07 2936.76 1216.17 2933.68 1224.86L2932.65 1236.88C2941.2 1226.65 2947.36 1215.31 2951.12 1202.87 2951.12 1200.99 2949.67 1198.95 2946.76 1196.73ZM2978.57 1194.43 2966.51 1194.68C2968.22 1197.24 2969.08 1199.63 2969.08 1201.85 2969.08 1206.96 2960.61 1218.47 2943.68 1236.37L2961.38 1235.09C2968.4 1223.33 2974.12 1209.77 2978.57 1194.43ZM1427.59 1194.17 1409.37 1210.28C1411.43 1218.81 1417.5 1225.46 1427.59 1230.23ZM2843.9 1188.55 2836.97 1191.1 2836.2 1205.94C2840.48 1200.14 2843.04 1194.34 2843.9 1188.55ZM1544.04 1179.09C1535.66 1179.43 1527.29 1180.11 1518.91 1181.13 1512.92 1190 1506.85 1197.92 1500.69 1204.91 1508.9 1205.77 1517.54 1207.47 1526.6 1210.03 1534.3 1198.61 1540.11 1188.29 1544.04 1179.09ZM2986.52 1177.3C2990.11 1177.3 2994.73 1179.77 3000.37 1184.71 3004.48 1188.63 3006.53 1192.3 3006.53 1195.71 3006.53 1198.61 3004.56 1201.93 3000.63 1205.68 2996.7 1214.2 2992.08 1222.9 2986.78 1231.76L2992.42 1231C2997.55 1227.08 3001.06 1225.12 3002.94 1225.12 3007.39 1225.12 3012.77 1227.16 3019.1 1231.25 3023.03 1234.32 3025 1238.33 3025 1243.27 3025 1250.6 3021.07 1254.27 3013.2 1254.27 3007.73 1254.27 3000.8 1253.67 2992.42 1252.48 2980.45 1251.45 2972.5 1250.94 2968.57 1250.94 2939.84 1250.94 2915.98 1253.59 2897 1258.87 2888.62 1261.26 2883.15 1262.45 2880.58 1262.45 2877.16 1262.45 2872.54 1260.92 2866.73 1257.85 2859.72 1253.76 2856.21 1250.35 2856.21 1247.62 2856.21 1244.89 2857.15 1243.53 2859.03 1243.53 2861.26 1243.53 2865.02 1244.29 2870.32 1245.83L2890.59 1242.5C2885.11 1226.99 2882.38 1216.34 2882.38 1210.54 2882.38 1202.53 2884.43 1195.2 2888.53 1188.55 2892.3 1182.92 2895.8 1180.11 2899.05 1180.11 2899.91 1180.11 2900.33 1180.79 2900.33 1182.15 2900.33 1183.69 2899.82 1185.9 2898.79 1188.8 2897.77 1191.53 2897.17 1194.43 2897 1197.5 2908.97 1189.48 2933.68 1184.03 2971.13 1181.13 2978.31 1178.57 2983.44 1177.3 2986.52 1177.3ZM1427.59 1158.12 1412.2 1179.09 1427.59 1166.56ZM2912.65 1139.45C2903.75 1144.05 2897.68 1146.44 2894.43 1146.61L2894.43 1160.42C2896.49 1158.54 2898.28 1156.92 2899.82 1155.56 2904.78 1150.27 2909.05 1144.9 2912.65 1139.45ZM2607.08 1131.78C2607.76 1131.78 2609.13 1133.4 2611.18 1136.64 2624.18 1137.66 2632.13 1138.77 2635.04 1139.96 2642.56 1143.37 2646.32 1148.4 2646.32 1155.05 2646.32 1161.01 2640.6 1164 2629.14 1164 2614.77 1167.92 2600.24 1170.9 2585.53 1172.95 2596.65 1167.32 2605.62 1161.95 2612.46 1156.84 2605.11 1151.21 2601.43 1145.76 2601.43 1140.47 2601.43 1137.57 2602.12 1135.27 2603.49 1133.57 2604.68 1132.37 2605.88 1131.78 2607.08 1131.78ZM1719.82 1118.48C1703.23 1125.98 1688.61 1136.04 1675.95 1148.65 1663.98 1162.29 1657.99 1172.86 1657.99 1180.36 1657.99 1187.87 1663.13 1195.62 1673.39 1203.64 1683.48 1194.26 1694.08 1179 1705.19 1157.86 1712.03 1144.9 1716.91 1131.78 1719.82 1118.48ZM2915.47 1108.25C2906.4 1112.51 2901.02 1114.64 2899.31 1114.64 2898.11 1114.64 2897 1114.3 2895.97 1113.62L2894.95 1133.82C2897.51 1131.78 2900.25 1129.65 2903.15 1127.43 2908.28 1121.8 2912.39 1115.41 2915.47 1108.25ZM2286.83 1105.95C2288.71 1105.95 2289.65 1107.23 2289.65 1109.79 2289.65 1112 2287.6 1118.31 2283.5 1128.71 2270.16 1158.54 2249.81 1183.09 2222.45 1202.36 2210.99 1210.54 2190.81 1224.6 2161.91 1244.55 2157.46 1248.64 2152.84 1250.69 2148.06 1250.69 2144.29 1250.69 2138.91 1248.13 2131.89 1243.02 2120.95 1234.66 2115.48 1227.76 2115.48 1222.3 2115.48 1215.82 2116.85 1212.59 2119.58 1212.59 2121.46 1212.59 2126.94 1215.06 2136 1220 2152.25 1213.69 2176.1 1199.46 2207.57 1177.3 2235.27 1156.5 2259.3 1134.68 2279.65 1111.83 2282.21 1107.91 2284.61 1105.95 2286.83 1105.95ZM2030.77 1085.49C2035.56 1085.49 2042.57 1089.58 2051.8 1097.77 2058.82 1104.76 2062.32 1110.89 2062.32 1116.18 2062.32 1122.32 2057.96 1126.66 2049.24 1129.22 2028.72 1149 2015.64 1161.27 2009.99 1166.04 2001.1 1173.55 1989.81 1180.45 1976.13 1186.76 1987.42 1193.24 1995.11 1200.74 1999.22 1209.26 2002.3 1216.25 2003.84 1222.47 2003.84 1227.93 2003.84 1233.72 2002.64 1238.24 2000.24 1241.48 1998.19 1244.55 1995.11 1246.08 1991.01 1246.08 1987.93 1246.08 1983.91 1243.95 1978.95 1239.69 1970.92 1240.03 1960.4 1240.2 1947.4 1240.2L1947.15 1238.67C1956.21 1234.41 1963.91 1229.38 1970.23 1223.58 1960.31 1211.14 1942.61 1196.13 1917.13 1178.57 1912.86 1176.53 1910.72 1173.8 1910.72 1170.39 1910.72 1166.81 1912.86 1165.02 1917.13 1165.02 1924.49 1165.02 1938.85 1169.11 1960.23 1177.3 1968.61 1170.48 1975.88 1163.83 1982.03 1157.35 1993.15 1146.61 2004.95 1131.86 2017.43 1113.11 1994.69 1113.79 1961.51 1121.97 1917.9 1137.66 1910.55 1139.87 1904.56 1140.98 1899.95 1140.98 1893.96 1140.98 1886.44 1138.08 1877.37 1132.29 1871.9 1128.71 1868.74 1125.9 1867.88 1123.85 1867.03 1121.63 1866.6 1119.08 1866.6 1116.18 1866.6 1111.75 1868.74 1109.53 1873.01 1109.53 1874.89 1109.53 1879.17 1111.23 1885.84 1114.64 1931.33 1102.37 1974.51 1094.7 2015.38 1091.63 2022.9 1087.54 2028.03 1085.49 2030.77 1085.49ZM2914.95 1080.63C2908.11 1080.97 2902.3 1081.14 2897.51 1081.14 2897.51 1085.58 2897.34 1093.33 2897 1104.42 2905.38 1098.62 2911.36 1090.69 2914.95 1080.63ZM2135.23 1079.61C2146.86 1079.61 2156.35 1081.74 2163.7 1086 2173.79 1094.7 2178.84 1104.42 2178.84 1115.16 2178.84 1120.78 2176.79 1124.7 2172.68 1126.92 2169.77 1128.45 2165.16 1129.31 2158.83 1129.48 2150.28 1133.74 2140.96 1137.91 2130.87 1142.01L2130.1 1140.98C2137.62 1133.31 2143.61 1124.62 2148.06 1114.9 2141.04 1106.89 2134.63 1101.94 2128.82 1100.07 2121.29 1097.85 2117.53 1095.46 2117.53 1092.91 2117.53 1090.35 2118.81 1087.62 2121.38 1084.72 2124.46 1081.31 2129.07 1079.61 2135.23 1079.61ZM1732.13 1079.1C1734.01 1079.1 1735.89 1081.06 1737.77 1084.98 1738.63 1086.51 1739.65 1089.92 1740.85 1095.21 1743.41 1095.04 1745.72 1094.95 1747.78 1094.95 1759.92 1094.95 1772.14 1098.02 1784.46 1104.16 1809.77 1118.31 1822.42 1139.7 1822.42 1168.35 1822.42 1198.86 1805.83 1221.62 1772.66 1236.62 1756.24 1244.12 1744.18 1247.87 1736.49 1247.87 1733.92 1247.87 1732.64 1246.94 1732.64 1245.06 1732.64 1242.85 1735.38 1240.2 1740.85 1237.13 1775.05 1210.71 1792.15 1184.2 1792.15 1157.61 1792.15 1146.86 1788.13 1136.64 1780.1 1126.92 1770.52 1118.22 1759.75 1113.88 1747.78 1113.88 1745.89 1113.88 1744.01 1114.05 1742.13 1114.39 1731.87 1156.5 1716.82 1189.57 1696.99 1213.61 1691.34 1220.6 1685.7 1226.14 1680.06 1230.23 1676.46 1233.13 1670.91 1234.58 1663.38 1234.58 1657.05 1234.58 1653.46 1231.76 1652.61 1226.14 1652.27 1223.24 1651.33 1214.97 1649.79 1201.33 1647.05 1192.3 1645.08 1185.65 1643.89 1181.39 1642.52 1174.74 1641.83 1169.62 1641.83 1166.04 1641.83 1154.45 1650.64 1140.9 1668.26 1125.38 1685.36 1111.75 1704.42 1102.28 1725.46 1097 1725.63 1085.07 1727.85 1079.1 1732.13 1079.1ZM2424.38 1064.78C2428.48 1064.78 2433.1 1067.08 2438.23 1071.68 2445.93 1078.33 2449.78 1084.55 2449.78 1090.35 2449.78 1093.25 2446.18 1102.11 2439 1116.95 2454.74 1114.9 2467.82 1113.19 2478.25 1111.83 2482.35 1109.96 2485.35 1109.02 2487.23 1109.02 2493.21 1109.02 2499.71 1113.54 2506.72 1122.57 2510.48 1127.86 2512.37 1132.63 2512.37 1136.89 2512.37 1141.49 2509.72 1146.86 2504.41 1153 2497.06 1178.23 2491.42 1195.45 2487.48 1204.66 2470.72 1240.12 2453.2 1257.85 2434.9 1257.85 2425.66 1257.85 2421.05 1251.28 2421.05 1238.16 2415.23 1226.74 2410.87 1214.03 2407.96 1200.05L2408.99 1199.29C2418.05 1208.83 2427.97 1216.76 2438.75 1223.07 2445.07 1219.15 2453.28 1206.19 2463.37 1184.2 2472.26 1161.87 2477.48 1144.48 2479.02 1132.03 2460.55 1133.74 2443.71 1136.89 2428.48 1141.49 2416.17 1175.25 2402.83 1200.57 2388.47 1217.44 2378.72 1228.35 2365.98 1238.16 2350.25 1246.85 2344.6 1249.41 2340.59 1250.69 2338.19 1250.69 2335.97 1250.69 2334.86 1249.49 2334.86 1247.11 2334.86 1245.06 2336.14 1243.02 2338.7 1240.97 2365.04 1217.96 2385.22 1187.87 2399.24 1150.7 2387.96 1154.28 2379.75 1156.07 2374.62 1156.07 2370 1156.07 2364.7 1153.26 2358.71 1147.63 2352.9 1141.49 2349.99 1137.06 2349.99 1134.33 2349.99 1131.61 2351.36 1130.24 2354.1 1130.24 2356.49 1130.24 2359.48 1131.27 2363.07 1133.31 2376.07 1130.07 2390.95 1127 2407.71 1124.11 2412.67 1108.42 2416.17 1094.19 2418.22 1081.4 2415.15 1077.82 2413.61 1075.09 2413.61 1073.22 2413.61 1070.83 2414.46 1068.87 2416.17 1067.34 2418.05 1065.63 2420.79 1064.78 2424.38 1064.78ZM2520.57 1063.5C2525.88 1063.5 2530.75 1064.61 2535.2 1066.82 2538.44 1069.55 2540.07 1073.64 2540.07 1079.1 2540.07 1083.36 2537.85 1085.49 2533.4 1085.49 2528.78 1085.49 2522.71 1082.51 2515.19 1076.54 2513.82 1076.88 2513.14 1077.73 2513.14 1079.1 2513.14 1083.19 2514.33 1086.77 2516.73 1089.84 2518.61 1092.91 2519.55 1095.81 2519.55 1098.53 2519.55 1103.14 2516.81 1105.44 2511.34 1105.44 2506.21 1105.44 2501.93 1104.33 2498.51 1102.11 2493.73 1098.53 2489.11 1093.93 2484.66 1088.3 2481.41 1086.6 2479.79 1084.81 2479.79 1082.93 2479.79 1079.35 2484.15 1077.56 2492.87 1077.56 2495.78 1077.56 2499.2 1078.67 2503.13 1080.89 2505.53 1069.3 2511.34 1063.5 2520.57 1063.5ZM2929.58 1056.34C2939.49 1057.7 2944.45 1060.69 2944.45 1065.29 2944.45 1069.21 2941.38 1072.62 2935.22 1075.52 2928.55 1081.49 2923.33 1087.37 2919.57 1093.16 2924.53 1091.46 2928.12 1090.61 2930.35 1090.61 2938.72 1093.33 2942.91 1097.08 2942.91 1101.86 2942.91 1104.07 2941.29 1106.21 2938.04 1108.25 2934.28 1114.05 2930.69 1118.91 2927.27 1122.83 2932.23 1124.7 2934.71 1127.17 2934.71 1130.24 2934.71 1133.14 2931.71 1135.95 2925.73 1138.68 2920.77 1144.31 2916.84 1149.68 2913.93 1154.79 2922.14 1152.24 2929.15 1148.57 2934.96 1143.8 2939.58 1139.02 2943.85 1132.54 2947.79 1124.36 2946.59 1139.02 2943.94 1149 2939.84 1154.28 2933 1162.12 2923.85 1168.43 2912.39 1173.2 2908.11 1175.59 2904.44 1176.78 2901.36 1176.78 2899.65 1176.78 2897.34 1175.68 2894.43 1173.46 2894.09 1180.45 2892.04 1183.94 2888.28 1183.94 2884.34 1183.94 2881.09 1182.07 2878.53 1178.32 2875.79 1173.89 2874.42 1169.45 2874.42 1165.02 2874.42 1161.27 2875.19 1157.26 2876.73 1153 2879.3 1130.16 2880.58 1106.89 2880.58 1083.19 2877.84 1074.5 2876.48 1069.38 2876.48 1067.85 2876.48 1065.29 2878.1 1063.93 2881.35 1063.76 2883.92 1063.76 2888.02 1067.16 2893.66 1073.98 2894.35 1071.26 2895.72 1069.72 2897.77 1069.38 2903.41 1067.68 2908.97 1065.63 2914.44 1063.24 2920.94 1058.64 2925.98 1056.34 2929.58 1056.34ZM1575.85 1050.46C1578.59 1050.46 1583.46 1052.67 1590.47 1057.11 1599.2 1063.07 1603.56 1068.78 1603.56 1074.24 1603.56 1078.5 1599.37 1082 1590.99 1084.72 1573.54 1103.65 1552.85 1117.37 1528.91 1125.9 1536.61 1132.37 1540.45 1137.32 1540.45 1140.73 1540.45 1143.97 1537.03 1151.21 1530.19 1162.46L1549.69 1160.93 1549.94 1158.37C1548.06 1155.13 1547.12 1152.41 1547.12 1150.19 1547.12 1148.14 1548.49 1145.84 1551.23 1143.28 1554.48 1140.22 1556.87 1138.68 1558.41 1138.68 1561.66 1138.68 1565.51 1140.22 1569.95 1143.28 1575.25 1147.38 1577.9 1150.36 1577.9 1152.24 1577.9 1154.28 1577.48 1156.24 1576.62 1158.12L1582.27 1158.12C1587.91 1153.17 1591.76 1150.7 1593.81 1150.7 1597.57 1150.7 1602.7 1152.75 1609.2 1156.84 1614.16 1160.08 1616.64 1164.34 1616.64 1169.62 1616.64 1176.44 1613.13 1179.85 1606.12 1179.85 1596.54 1179.85 1583.63 1179.51 1567.39 1178.83L1560.46 1193.41C1567.3 1205.68 1572.69 1214.55 1576.62 1220 1581.41 1226.82 1586.63 1232.79 1592.27 1237.9 1596.72 1242.33 1598.94 1246.77 1598.94 1251.2 1598.94 1260.06 1594.15 1264.5 1584.57 1264.5 1575 1264.5 1557.9 1255.38 1533.27 1237.13 1517.88 1250.77 1504.71 1257.59 1493.77 1257.59 1487.78 1257.59 1481.71 1256.83 1475.55 1255.29 1470.08 1253.93 1467.35 1252.39 1467.35 1250.69 1467.35 1249.15 1468.71 1248.39 1471.45 1248.39 1482.91 1247.53 1497.19 1240.37 1514.29 1226.91 1509.84 1224.86 1504.37 1223.24 1497.87 1222.05 1491.2 1222.9 1486.16 1223.33 1482.74 1223.33 1477.26 1223.33 1474.53 1220.6 1474.53 1215.14 1474.53 1210.54 1475.55 1206.19 1477.61 1202.1 1478.97 1199.88 1482.74 1198.61 1488.89 1198.26 1491.97 1194.17 1494.54 1190.17 1496.59 1186.25 1488.89 1189.14 1482.91 1190.59 1478.63 1190.59 1474.36 1189.74 1468.12 1189.31 1459.91 1189.31 1455.63 1189.31 1453.49 1187.87 1453.49 1184.97 1453.67 1181.05 1458.2 1177.81 1467.09 1175.25 1481.63 1171.5 1495.14 1168.09 1507.62 1165.02 1510.36 1158.88 1513.18 1151.55 1516.08 1143.03 1511.81 1140.3 1509.67 1137.49 1509.67 1134.59 1509.67 1132.37 1511.64 1129.99 1515.57 1127.43 1518.99 1125.21 1522.07 1124.11 1524.81 1124.11 1542.76 1108.59 1557.64 1088.65 1569.44 1064.27 1561.92 1070.23 1553.02 1078.76 1542.76 1089.84 1541.56 1098.7 1539.09 1103.14 1535.32 1103.14 1530.19 1103.14 1526.77 1100.75 1525.06 1095.98 1519.93 1080.8 1516.43 1073.22 1514.54 1073.22 1511.98 1073.22 1510.7 1080.12 1510.7 1093.93 1511.21 1100.58 1511.47 1105.27 1511.47 1108 1511.47 1116.52 1509.07 1120.78 1504.28 1120.78 1492.48 1120.78 1484.7 1112.51 1480.94 1095.98 1479.4 1092.06 1477.09 1088.82 1474.02 1086.26 1471.11 1084.04 1469.65 1081.66 1469.65 1079.1 1469.65 1075.35 1472.39 1073.47 1477.86 1073.47 1481.28 1073.47 1489.41 1077.14 1502.23 1084.47 1503.94 1077.48 1505.4 1072.02 1506.59 1068.1 1508.13 1064.69 1511.04 1062.99 1515.31 1062.99 1519.59 1062.99 1524.63 1063.84 1530.45 1065.55 1533.7 1066.4 1536.78 1069.21 1539.68 1073.98 1547.89 1066.82 1555.42 1061.03 1562.26 1056.6 1569.61 1052.5 1574.14 1050.46 1575.85 1050.46ZM2970.11 1048.67C2974.04 1048.67 2979.25 1051.14 2985.75 1056.08 2990.88 1060.35 2993.45 1064.18 2993.45 1067.59 2993.45 1069.81 2991.74 1073.22 2988.32 1077.82 2982.85 1085.15 2977.37 1092.65 2971.9 1100.32 2984.38 1092.99 2992.42 1089.33 2996.01 1089.33 3007.13 1091.54 3012.69 1095.29 3012.69 1100.58 3012.69 1104.16 3007.98 1107.82 2998.58 1111.58 2986.1 1120.44 2978.23 1126.66 2974.98 1130.24 2986.44 1130.24 2993.53 1130.75 2996.27 1131.78 3002.6 1134.85 3005.76 1140.3 3005.76 1148.14 3005.76 1155.3 2999.52 1158.88 2987.04 1158.88 2971.64 1162.98 2956.77 1165.7 2942.4 1167.07 2954.89 1162.46 2965.49 1156.84 2974.21 1150.19 2964.46 1145.76 2959.59 1141.32 2959.59 1136.89 2959.59 1133.48 2961.38 1130.75 2964.98 1128.71 2969.59 1124.62 2974.64 1119.25 2980.11 1112.6 2975.32 1114.13 2969.42 1116.69 2962.41 1120.27 2958.13 1123.17 2955.06 1124.62 2953.18 1124.62 2948.56 1124.62 2946.25 1121.38 2946.25 1114.9 2946.25 1108.42 2947.79 1104.59 2950.87 1103.39 2957.71 1090.44 2963.01 1076.63 2966.77 1061.97 2963.01 1058.39 2961.13 1055.83 2961.13 1054.29 2961.13 1051.74 2964.12 1049.86 2970.11 1048.67ZM2832.36 1047.13C2835.09 1047.13 2838.77 1049.26 2843.39 1053.53 2846.98 1056.77 2848.77 1059.83 2848.77 1062.73 2848.77 1064.44 2847.15 1068.27 2843.9 1074.24 2856.9 1076.11 2865.7 1078.93 2870.32 1082.68 2874.94 1086.77 2877.25 1093.25 2877.25 1102.11 2877.25 1112.68 2873.66 1117.97 2866.47 1117.97 2864.25 1117.97 2861.43 1116.95 2858.01 1114.9 2850.83 1114.9 2843.13 1114.73 2834.92 1114.39 2841.76 1111.49 2846.98 1108.25 2850.57 1104.67 2845.61 1098.87 2840.56 1093.85 2835.43 1089.58 2828.42 1103.05 2820.81 1116.43 2812.6 1129.73 2818.08 1128.54 2824.92 1126.15 2833.13 1122.57 2837.23 1120.35 2840.74 1119.25 2843.64 1119.25 2851.68 1120.27 2855.7 1123.25 2855.7 1128.2 2855.7 1130.92 2853.05 1133.31 2847.75 1135.36 2843.3 1137.57 2839.28 1139.7 2835.69 1141.75 2838.08 1143.63 2839.45 1146.52 2839.79 1150.44 2852.79 1150.44 2859.29 1153.26 2859.29 1158.88 2859.29 1162.46 2856.3 1165.45 2850.31 1167.83L2837.23 1172.95 2836.72 1182.67C2843.04 1178.74 2847.66 1176.78 2850.57 1176.78 2860.83 1179.34 2865.96 1183.69 2865.96 1189.83 2865.96 1192.72 2863.57 1195.2 2858.78 1197.24 2850.06 1207.3 2842.45 1215.4 2835.95 1221.54L2835.95 1225.37C2844.33 1221.11 2851.42 1216.42 2857.24 1211.31 2860.15 1207.39 2863.74 1201.59 2868.01 1193.92 2866.47 1210.45 2861.51 1223.33 2853.13 1232.53 2842.36 1241.23 2825 1251.8 2801.06 1264.24 2797.47 1266.8 2794.39 1268.08 2791.83 1268.08 2786.52 1268.08 2783.45 1263.05 2782.59 1252.99 2782.59 1246.17 2785.07 1242.76 2790.03 1242.76 2790.89 1242.76 2792.08 1242.85 2793.62 1243.02 2802.69 1239.95 2811.41 1234.66 2819.79 1227.16L2820.04 1207.73C2816.96 1211.48 2813.63 1216.85 2810.04 1223.84 2807.65 1231.51 2804.57 1235.34 2800.8 1235.34 2794.82 1235.34 2790.71 1229.46 2788.49 1217.7 2788.49 1212.07 2790.29 1206.36 2793.88 1200.57 2796.96 1195.11 2800.03 1192.38 2803.11 1192.38 2806.19 1192.38 2807.82 1196.99 2807.99 1206.19 2813.12 1203.29 2817.39 1200.23 2820.81 1196.99L2821.07 1178.57C2811.49 1181.47 2805.85 1182.92 2804.14 1182.92 2801.74 1182.92 2798.32 1181.73 2793.88 1179.34 2789.26 1176.95 2786.95 1174.74 2786.95 1172.69 2786.95 1170.48 2788.15 1169.37 2790.54 1169.37 2791.4 1169.37 2792.68 1169.54 2794.39 1169.88 2805.34 1166.81 2814.14 1164 2820.81 1161.44L2820.81 1156.33 2817.73 1154.28C2812.09 1158.2 2805.93 1161.27 2799.27 1163.49 2806.79 1157.69 2812.78 1151.3 2817.22 1144.31 2812.26 1143.28 2808.41 1142.18 2805.68 1140.98 2798.15 1151.38 2792.08 1158.2 2787.47 1161.44 2778.23 1166.73 2771.73 1169.37 2767.97 1169.37 2766.43 1169.37 2765.66 1168.52 2765.66 1166.81 2765.66 1165.45 2767.54 1163.23 2771.31 1160.16 2792.85 1129.31 2809.87 1097.43 2822.35 1064.52 2818.59 1061.62 2816.71 1058.9 2816.71 1056.34 2816.71 1051.74 2821.92 1048.67 2832.36 1047.13ZM1430.66 1046.88C1434.6 1046.88 1439.21 1048.75 1444.52 1052.5 1453.07 1058.3 1457.34 1063.67 1457.34 1068.61 1457.34 1071.34 1455.97 1078.67 1453.24 1090.61 1461.96 1094.7 1466.32 1099.64 1466.32 1105.44 1466.32 1113.45 1460.08 1120.61 1447.59 1126.92 1446.05 1135.27 1445.29 1142.94 1445.29 1149.93 1457.6 1136.81 1467.43 1121.38 1474.79 1103.65 1474.1 1123.08 1464.52 1146.61 1446.05 1174.23 1447.42 1199.12 1448.11 1219.57 1448.11 1235.6 1448.11 1241.4 1446.4 1248.73 1442.98 1257.59 1440.07 1265.95 1436.48 1270.12 1432.2 1270.12 1427.93 1270.12 1425.19 1266.54 1423.99 1259.38 1418.01 1247.45 1412.02 1232.11 1406.04 1213.35 1395.95 1221.36 1389.19 1225.37 1385.77 1225.37 1382.52 1225.37 1379.62 1223.07 1377.05 1218.47 1375.68 1215.4 1375 1211.48 1375 1206.7 1375 1200.4 1379.87 1193.66 1389.62 1186.5 1396.63 1178.66 1406.04 1165.7 1417.84 1147.63 1416.98 1147.29 1416.56 1146.61 1416.56 1145.59 1416.56 1144.39 1417.33 1141.84 1418.86 1137.91 1414.42 1138.94 1411 1139.45 1408.6 1139.45 1402.28 1139.45 1395.09 1137.66 1387.06 1134.08 1379.7 1130.33 1376.03 1126.32 1376.03 1122.06 1376.03 1119.67 1377.22 1118.48 1379.62 1118.48 1381.67 1118.48 1384.23 1118.99 1387.31 1120.01 1404.76 1113.02 1417.75 1107.06 1426.3 1102.11 1426.3 1088.82 1425.96 1076.63 1425.28 1065.55 1419.12 1061.45 1416.04 1057.45 1416.04 1053.53 1416.04 1049.61 1420.92 1047.39 1430.66 1046.88ZM2627.6 1030C2633.58 1030 2637.77 1031.45 2640.17 1034.35 2647.18 1042.87 2650.69 1049.78 2650.69 1055.06 2650.69 1057.45 2646.92 1063.67 2639.4 1073.73 2658.04 1068.44 2672.66 1064.27 2683.26 1061.2 2691.13 1058.3 2698.06 1056.85 2704.04 1056.85 2710.54 1056.85 2715.93 1058.04 2720.2 1060.43 2725.16 1063.5 2727.64 1066.82 2727.64 1070.4 2727.64 1074.67 2723.11 1077.99 2714.04 1080.38 2706.69 1082.08 2697.97 1084.47 2687.88 1087.54 2691.47 1090.78 2693.52 1094.1 2694.04 1097.51 2710.8 1098.36 2719.18 1102.71 2719.18 1110.55 2719.18 1114.47 2716.61 1117.46 2711.48 1119.5 2705.67 1121.38 2699.34 1122.74 2692.5 1123.59L2692.5 1166.04C2704.64 1165.19 2716.7 1164.51 2728.67 1164 2723.37 1158.03 2715.93 1151.38 2706.35 1144.05 2719.69 1148.83 2732.77 1154.45 2745.6 1160.93 2764.07 1165.19 2773.3 1171.67 2773.3 1180.36 2773.3 1187.52 2768.6 1191.19 2759.19 1191.36 2735.59 1187.95 2720.46 1186.25 2713.79 1186.25 2708.66 1186.25 2701.9 1186.5 2693.52 1187.01 2693.69 1210.37 2693.78 1223.84 2693.78 1227.42 2693.78 1247.02 2686.43 1266.88 2671.72 1287 2666.25 1273.87 2663.51 1258.87 2663.51 1241.99 2663.51 1235.69 2664.02 1218.64 2665.05 1190.85 2645.38 1195.11 2627.6 1200.4 2611.69 1206.7 2599.55 1211.14 2591.6 1213.35 2587.84 1213.35 2582.2 1213.35 2573.82 1210.45 2562.7 1204.66 2554.83 1199.88 2550.9 1195.62 2550.9 1191.87 2550.9 1188.63 2552.35 1187.01 2555.26 1187.01 2557.48 1187.01 2560.9 1187.69 2565.52 1189.06 2597.16 1180.88 2630.68 1174.14 2666.08 1168.86L2666.08 1128.71C2650.51 1130.75 2640.08 1131.78 2634.78 1131.78 2629.48 1131.78 2623.75 1130.5 2617.59 1127.94 2611.44 1124.87 2608.36 1122.15 2608.36 1119.76 2608.36 1117.71 2609.47 1116.69 2611.69 1116.69 2612.89 1116.69 2614.77 1117.2 2617.34 1118.22 2632.73 1114.98 2648.98 1110.47 2666.08 1104.67L2666.08 1100.32 2662.74 1095.21C2654.7 1097.94 2646.58 1100.32 2638.37 1102.37 2645.38 1098.28 2652.22 1093.93 2658.89 1089.33 2645.73 1090.52 2630.33 1094.1 2612.72 1100.07 2608.62 1101.77 2604.6 1102.62 2600.66 1102.62 2598.1 1102.62 2596.82 1099.47 2596.82 1093.16 2596.82 1085.49 2599.55 1080.12 2605.03 1077.05 2611.01 1068.53 2617.51 1058.04 2624.52 1045.6 2622.64 1039.97 2621.7 1036.31 2621.7 1034.6 2621.7 1031.53 2623.67 1030 2627.6 1030Z" fill="#FFFFFF" fill-rule="evenodd"/>
    <path d="M2094.69 1416.27C2092.03 1416.58 2089.72 1417.48 2087.77 1418.96 2085.81 1420.44 2084.83 1422.58 2084.83 1425.39 2084.83 1428.25 2085.62 1430.6 2087.18 1432.45 2088.74 1434.3 2091.58 1435.22 2095.7 1435.22 2099.2 1435.22 2101.97 1434.66 2104.03 1433.54 2106.09 1432.42 2107.59 1430.98 2108.53 1429.21 2109.47 1427.45 2109.94 1425.6 2109.94 1423.68 2109.94 1421.54 2109.36 1419.96 2108.22 1418.92 2107.07 1417.88 2105.22 1417.25 2102.66 1417.05ZM2745.31 1375.55C2743.74 1375.55 2742.28 1376.19 2740.93 1377.46 2739.57 1378.74 2738.35 1380.44 2737.25 1382.57 2736.16 1384.7 2735.22 1387.04 2734.44 1389.59 2733.65 1392.14 2733.03 1394.66 2732.56 1397.16L2734.67 1397.16C2736.97 1397.16 2739.04 1396.83 2740.89 1396.18 2742.74 1395.53 2744.3 1394.6 2745.58 1393.37 2746.86 1392.15 2747.84 1390.67 2748.51 1388.93 2749.19 1387.19 2749.53 1385.25 2749.53 1383.12 2749.53 1380.67 2749.17 1378.8 2748.44 1377.5 2747.71 1376.2 2746.66 1375.55 2745.31 1375.55ZM2647.55 1375.55C2645.99 1375.55 2644.53 1376.19 2643.17 1377.46 2641.82 1378.74 2640.59 1380.44 2639.5 1382.57 2638.4 1384.7 2637.47 1387.04 2636.68 1389.59 2635.9 1392.14 2635.28 1394.66 2634.81 1397.16L2636.92 1397.16C2639.21 1397.16 2641.28 1396.83 2643.14 1396.18 2644.99 1395.53 2646.55 1394.6 2647.83 1393.37 2649.1 1392.15 2650.08 1390.67 2650.76 1388.93 2651.44 1387.19 2651.78 1385.25 2651.78 1383.12 2651.78 1380.67 2651.41 1378.8 2650.68 1377.5 2649.95 1376.2 2648.91 1375.55 2647.55 1375.55ZM2431.66 1375.55C2429.58 1375.55 2427.67 1376.2 2425.95 1377.5 2424.23 1378.8 2422.71 1380.5 2421.38 1382.61 2420.05 1384.72 2418.94 1387.04 2418.06 1389.59 2417.17 1392.14 2416.5 1394.67 2416.06 1397.2 2415.62 1399.72 2415.4 1402.02 2415.4 1404.1 2415.4 1406.96 2415.63 1409.25 2416.1 1410.96 2416.57 1412.68 2417.22 1413.94 2418.06 1414.74 2418.89 1415.55 2419.83 1415.95 2420.87 1415.95 2422.28 1415.95 2423.63 1415.43 2424.94 1414.39 2426.24 1413.35 2427.45 1412.04 2428.57 1410.46 2429.69 1408.87 2430.63 1407.23 2431.39 1405.54 2432.14 1403.85 2432.65 1402.38 2432.91 1401.13L2437.61 1378.36C2437.03 1377.42 2436.2 1376.72 2435.1 1376.25 2434.01 1375.78 2432.86 1375.55 2431.66 1375.55ZM2393.4 1375.55C2391.83 1375.55 2390.37 1376.19 2389.02 1377.46 2387.66 1378.74 2386.44 1380.44 2385.34 1382.57 2384.25 1384.7 2383.31 1387.04 2382.52 1389.59 2381.74 1392.14 2381.12 1394.66 2380.65 1397.16L2382.76 1397.16C2385.05 1397.16 2387.13 1396.83 2388.98 1396.18 2390.83 1395.53 2392.39 1394.6 2393.67 1393.37 2394.95 1392.15 2395.92 1390.67 2396.6 1388.93 2397.28 1387.19 2397.62 1385.25 2397.62 1383.12 2397.62 1380.67 2397.25 1378.8 2396.52 1377.5 2395.79 1376.2 2394.75 1375.55 2393.4 1375.55ZM2151.44 1375.55C2149.35 1375.55 2147.45 1376.2 2145.73 1377.5 2144.01 1378.8 2142.48 1380.5 2141.15 1382.61 2139.82 1384.72 2138.72 1387.04 2137.83 1389.59 2136.94 1392.14 2136.28 1394.67 2135.83 1397.2 2135.39 1399.72 2135.17 1402.02 2135.17 1404.1 2135.17 1406.96 2135.4 1409.25 2135.87 1410.96 2136.34 1412.68 2136.99 1413.94 2137.83 1414.74 2138.66 1415.55 2139.6 1415.95 2140.64 1415.95 2142.05 1415.95 2143.41 1415.43 2144.71 1414.39 2146.01 1413.35 2147.23 1412.04 2148.35 1410.46 2149.47 1408.87 2150.41 1407.23 2151.16 1405.54 2151.92 1403.85 2152.43 1402.38 2152.69 1401.13L2157.38 1378.36C2156.81 1377.42 2155.97 1376.72 2154.88 1376.25 2153.78 1375.78 2152.64 1375.55 2151.44 1375.55ZM2017.84 1375.55C2015.75 1375.55 2013.85 1376.2 2012.13 1377.5 2010.41 1378.8 2008.89 1380.5 2007.56 1382.61 2006.23 1384.72 2005.12 1387.04 2004.23 1389.59 2003.35 1392.14 2002.68 1394.67 2002.24 1397.2 2001.8 1399.72 2001.57 1402.02 2001.57 1404.1 2001.57 1406.96 2001.81 1409.25 2002.28 1410.96 2002.75 1412.68 2003.4 1413.94 2004.23 1414.74 2005.07 1415.55 2006.01 1415.95 2007.05 1415.95 2008.46 1415.95 2009.81 1415.43 2011.11 1414.39 2012.42 1413.35 2013.63 1412.04 2014.75 1410.46 2015.87 1408.87 2016.81 1407.23 2017.57 1405.54 2018.32 1403.85 2018.83 1402.38 2019.09 1401.13L2023.78 1378.36C2023.21 1377.42 2022.38 1376.72 2021.28 1376.25 2020.19 1375.78 2019.04 1375.55 2017.84 1375.55ZM1822.33 1375.55C1820.25 1375.55 1818.34 1376.2 1816.62 1377.5 1814.9 1378.8 1813.38 1380.5 1812.05 1382.61 1810.72 1384.72 1809.61 1387.04 1808.73 1389.59 1807.84 1392.14 1807.17 1394.67 1806.73 1397.2 1806.29 1399.72 1806.07 1402.02 1806.07 1404.1 1806.07 1406.96 1806.3 1409.25 1806.77 1410.96 1807.24 1412.68 1807.89 1413.94 1808.73 1414.74 1809.56 1415.55 1810.5 1415.95 1811.54 1415.95 1812.95 1415.95 1814.3 1415.43 1815.61 1414.39 1816.91 1413.35 1818.12 1412.04 1819.24 1410.46 1820.37 1408.87 1821.3 1407.23 1822.06 1405.54 1822.82 1403.85 1823.32 1402.38 1823.58 1401.13L1828.28 1378.36C1827.7 1377.42 1826.87 1376.72 1825.77 1376.25 1824.68 1375.78 1823.53 1375.55 1822.33 1375.55ZM1649.64 1375.55C1647.55 1375.55 1645.65 1376.2 1643.93 1377.5 1642.21 1378.8 1640.68 1380.5 1639.35 1382.61 1638.02 1384.72 1636.91 1387.04 1636.03 1389.59 1635.14 1392.14 1634.48 1394.67 1634.03 1397.2 1633.59 1399.72 1633.37 1402.02 1633.37 1404.1 1633.37 1406.96 1633.6 1409.25 1634.07 1410.96 1634.54 1412.68 1635.19 1413.94 1636.03 1414.74 1636.86 1415.55 1637.8 1415.95 1638.84 1415.95 1640.25 1415.95 1641.61 1415.43 1642.91 1414.39 1644.21 1413.35 1645.43 1412.04 1646.55 1410.46 1647.67 1408.87 1648.61 1407.23 1649.36 1405.54 1650.12 1403.85 1650.63 1402.38 1650.89 1401.13L1655.58 1378.36C1655.01 1377.42 1654.17 1376.72 1653.08 1376.25 1651.98 1375.78 1650.83 1375.55 1649.64 1375.55ZM2703.34 1375.47 2717.34 1375.47 2712.02 1400.51C2711.91 1401.08 2711.76 1401.91 2711.55 1403.01 2711.34 1404.1 2711.17 1405.22 2711.04 1406.36 2710.91 1407.5 2710.85 1408.44 2710.85 1409.17 2710.85 1411.09 2711.12 1412.52 2711.67 1413.46 2712.21 1414.39 2713.06 1414.86 2714.21 1414.86 2715.36 1414.86 2716.37 1414.67 2717.26 1414.28 2718.15 1413.89 2719.06 1413.38 2720 1412.76L2720.46 1413.38C2719.32 1414.37 2717.77 1415.4 2715.81 1416.46 2713.86 1417.53 2711.89 1418.06 2709.91 1418.06 2707.82 1418.06 2706.22 1417.31 2705.1 1415.8 2703.98 1414.29 2703.42 1412.37 2703.42 1410.03 2703.42 1408.88 2703.52 1407.61 2703.73 1406.2 2703.94 1404.8 2704.17 1403.4 2704.43 1401.99 2704.69 1400.59 2704.93 1399.39 2705.14 1398.4L2708.73 1381.56C2708.84 1381.14 2708.9 1380.76 2708.93 1380.43 2708.96 1380.09 2708.97 1379.79 2708.97 1379.53 2708.97 1378.12 2708.54 1377.23 2707.68 1376.84 2706.82 1376.45 2705.66 1376.25 2704.2 1376.25L2703.18 1376.25ZM2234.12 1375.47 2248.12 1375.47 2242.8 1400.51C2242.7 1401.08 2242.54 1401.91 2242.33 1403.01 2242.12 1404.1 2241.96 1405.22 2241.83 1406.36 2241.7 1407.5 2241.63 1408.44 2241.63 1409.17 2241.63 1411.09 2241.9 1412.52 2242.45 1413.46 2243 1414.39 2243.85 1414.86 2244.99 1414.86 2246.14 1414.86 2247.16 1414.67 2248.04 1414.28 2248.93 1413.89 2249.84 1413.38 2250.78 1412.76L2251.25 1413.38C2250.1 1414.37 2248.55 1415.4 2246.6 1416.46 2244.64 1417.53 2242.67 1418.06 2240.69 1418.06 2238.61 1418.06 2237 1417.31 2235.88 1415.8 2234.76 1414.29 2234.2 1412.37 2234.2 1410.03 2234.2 1408.88 2234.3 1407.61 2234.51 1406.2 2234.72 1404.8 2234.96 1403.4 2235.22 1401.99 2235.48 1400.59 2235.71 1399.39 2235.92 1398.4L2239.52 1381.56C2239.62 1381.14 2239.69 1380.76 2239.71 1380.43 2239.74 1380.09 2239.75 1379.79 2239.75 1379.53 2239.75 1378.12 2239.32 1377.23 2238.46 1376.84 2237.6 1376.45 2236.44 1376.25 2234.98 1376.25L2233.97 1376.25ZM2107.36 1375.47C2105.79 1375.47 2104.42 1375.85 2103.25 1376.6 2102.08 1377.36 2101.07 1378.36 2100.24 1379.61 2099.41 1380.85 2098.71 1382.23 2098.17 1383.74 2097.62 1385.25 2097.23 1386.76 2096.99 1388.26 2096.76 1389.77 2096.64 1391.15 2096.64 1392.4 2096.64 1395.73 2097.09 1398.12 2097.97 1399.57 2098.86 1401.03 2100.08 1401.76 2101.65 1401.76 2103.11 1401.76 2104.4 1401.38 2105.52 1400.63 2106.64 1399.87 2107.6 1398.86 2108.41 1397.59 2109.22 1396.31 2109.88 1394.89 2110.41 1393.33 2110.93 1391.77 2111.32 1390.19 2111.58 1388.58 2111.84 1386.96 2111.97 1385.46 2111.97 1384.05 2111.97 1382.13 2111.8 1380.53 2111.46 1379.26 2111.12 1377.98 2110.61 1377.03 2109.94 1376.41 2109.26 1375.78 2108.4 1375.47 2107.36 1375.47ZM1719.29 1375.47 1733.83 1375.47 1728.67 1398.79C1728.46 1399.73 1728.24 1400.81 1728.01 1402.03 1727.77 1403.25 1727.56 1404.45 1727.38 1405.62 1727.2 1406.79 1727.11 1407.76 1727.11 1408.54 1727.11 1410.73 1727.43 1412.47 1728.09 1413.77 1728.74 1415.07 1729.95 1415.72 1731.72 1415.72 1732.97 1415.72 1734.26 1415.25 1735.59 1414.32 1736.92 1413.38 1738.19 1412.16 1739.39 1410.65 1740.59 1409.14 1741.6 1407.57 1742.44 1405.93 1743.27 1404.29 1743.84 1402.77 1744.16 1401.37L1749.71 1375.47 1757.29 1375.47 1751.9 1400.51C1751.79 1401.08 1751.64 1401.91 1751.43 1403.01 1751.22 1404.1 1751.05 1405.22 1750.92 1406.36 1750.79 1407.5 1750.73 1408.44 1750.73 1409.17 1750.73 1411.2 1751.03 1412.72 1751.62 1413.73 1752.22 1414.74 1753.1 1415.25 1754.24 1415.25 1755.13 1415.25 1755.95 1415.08 1756.71 1414.74 1757.46 1414.41 1758.34 1413.87 1759.33 1413.15L1759.72 1413.69C1758.57 1414.68 1757.13 1415.66 1755.38 1416.62 1753.63 1417.58 1751.77 1418.06 1749.79 1418.06 1748.43 1418.06 1747.26 1417.72 1746.27 1417.05 1745.28 1416.37 1744.52 1415.47 1744 1414.36 1743.48 1413.24 1743.22 1412 1743.22 1410.65 1743.22 1410.23 1743.23 1409.78 1743.26 1409.29 1743.28 1408.79 1743.32 1408.27 1743.37 1407.73 1743.43 1407.18 1743.48 1406.62 1743.53 1406.05L1743.3 1406.05C1741.99 1408.34 1740.61 1410.38 1739.15 1412.17 1737.69 1413.97 1736.05 1415.38 1734.23 1416.42 1732.4 1417.46 1730.29 1417.98 1727.89 1417.98 1725.86 1417.98 1724.23 1417.58 1723 1416.77 1721.78 1415.97 1720.89 1414.9 1720.34 1413.58 1719.8 1412.25 1719.52 1410.83 1719.52 1409.32 1719.52 1408.02 1719.68 1406.59 1719.99 1405.03 1720.3 1403.47 1720.62 1402.04 1720.93 1400.74L1724.53 1384.6C1724.68 1383.87 1724.84 1383.01 1725 1382.02 1725.15 1381.04 1725.23 1380.33 1725.23 1379.92 1725.23 1378.36 1724.7 1377.36 1723.63 1376.92 1722.56 1376.47 1721.27 1376.25 1719.76 1376.25L1719.13 1376.25ZM2691.69 1375.08C2693.35 1375.08 2694.66 1375.64 2695.6 1376.76 2696.53 1377.88 2697 1379.74 2697 1382.34 2697 1384.78 2696.55 1387.33 2695.64 1389.98 2694.72 1392.63 2693.52 1395.27 2692.04 1397.9 2690.55 1400.52 2688.94 1403.05 2687.19 1405.46 2685.44 1407.88 2683.68 1410.1 2681.91 1412.13 2680.14 1414.16 2678.55 1415.88 2677.14 1417.28L2671.74 1417.98 2665.88 1380.39C2665.72 1379.29 2665.45 1378.45 2665.06 1377.85 2664.67 1377.25 2664.17 1376.84 2663.57 1376.6 2662.97 1376.37 2662.23 1376.25 2661.34 1376.25L2660.56 1376.25 2660.72 1375.47 2672.45 1375.47 2676.05 1398.56C2676.41 1400.69 2676.72 1402.82 2676.98 1404.96 2677.24 1407.09 2677.49 1409.04 2677.73 1410.81 2677.96 1412.57 2678.13 1414 2678.24 1415.1L2678.31 1415.1C2681.18 1412.13 2683.83 1408.99 2686.25 1405.66 2688.68 1402.33 2690.63 1399.07 2692.12 1395.87 2693.6 1392.67 2694.35 1389.8 2694.35 1387.25 2694.35 1384.96 2693.62 1383.4 2692.16 1382.57 2690.7 1381.74 2688.77 1381.32 2686.37 1381.32 2686.37 1379.19 2686.94 1377.62 2688.09 1376.6 2689.24 1375.59 2690.44 1375.08 2691.69 1375.08ZM2542.89 1374.77C2544.56 1374.77 2545.86 1375.32 2546.8 1376.41 2547.74 1377.5 2548.21 1379.14 2548.21 1381.32 2548.21 1384.03 2547.65 1387 2546.53 1390.25 2545.41 1393.5 2543.82 1397.01 2541.76 1400.78 2539.7 1404.55 2537.26 1408.57 2534.45 1412.83 2531.89 1416.79 2529.53 1420.22 2527.37 1423.13 2525.21 1426.04 2523.03 1428.45 2520.84 1430.34 2518.65 1432.24 2516.21 1433.66 2513.53 1434.6 2510.84 1435.53 2507.68 1436 2504.03 1436 2502.72 1436 2501.42 1435.87 2500.12 1435.61 2498.81 1435.35 2497.67 1435.01 2496.67 1434.6L2496.91 1433.82C2497.54 1434.02 2498.33 1434.22 2499.29 1434.4 2500.26 1434.58 2501.65 1434.67 2503.48 1434.67 2506.08 1434.67 2508.52 1434.39 2510.79 1433.82 2513.06 1433.24 2515.17 1432.41 2517.12 1431.32 2519.08 1430.23 2520.89 1428.9 2522.56 1427.34 2524.23 1425.78 2525.74 1424.01 2527.1 1422.04L2515.29 1380.39C2514.87 1378.83 2514.37 1377.75 2513.8 1377.15 2513.23 1376.55 2512.19 1376.25 2510.67 1376.25L2509.89 1376.25 2510.05 1375.47 2521.86 1375.47 2527.56 1396.53C2527.83 1397.52 2528.18 1398.9 2528.62 1400.67 2529.06 1402.43 2529.53 1404.28 2530.03 1406.2 2530.52 1408.13 2530.95 1409.87 2531.32 1411.43 2531.68 1412.99 2531.94 1414.11 2532.1 1414.78L2532.18 1414.78C2533.85 1412.29 2535.48 1409.69 2537.07 1406.98 2538.66 1404.28 2540.1 1401.62 2541.41 1398.99 2542.71 1396.36 2543.74 1393.93 2544.5 1391.7 2545.25 1389.46 2545.63 1387.61 2545.63 1386.16 2545.63 1385.01 2545.4 1384.03 2544.93 1383.19 2544.46 1382.36 2543.65 1381.71 2542.5 1381.24 2541.35 1380.78 2539.79 1380.54 2537.81 1380.54 2537.81 1378.67 2538.34 1377.24 2539.41 1376.25 2540.48 1375.26 2541.64 1374.77 2542.89 1374.77ZM2284.3 1374.77C2286.39 1374.77 2288.03 1375.17 2289.23 1375.98 2290.43 1376.79 2291.3 1377.84 2291.85 1379.14 2292.4 1380.44 2292.67 1381.87 2292.67 1383.43 2292.67 1384.73 2292.5 1386.15 2292.16 1387.68 2291.82 1389.21 2291.52 1390.66 2291.26 1392.01L2289.23 1401.21C2288.92 1402.67 2288.67 1404.14 2288.49 1405.62 2288.3 1407.1 2288.21 1408.52 2288.21 1409.87 2288.21 1411.48 2288.5 1412.74 2289.07 1413.65 2289.65 1414.56 2290.58 1415.02 2291.89 1415.02 2292.46 1415.02 2293.02 1414.94 2293.57 1414.78 2294.12 1414.63 2294.66 1414.41 2295.21 1414.12 2295.76 1413.84 2296.32 1413.46 2296.89 1412.99L2297.36 1413.61C2296.11 1414.65 2294.72 1415.66 2293.18 1416.62 2291.64 1417.58 2289.85 1418.06 2287.82 1418.06 2285.53 1418.06 2283.77 1417.32 2282.54 1415.84 2281.32 1414.36 2280.71 1412.5 2280.71 1410.26 2280.71 1409.01 2280.82 1407.54 2281.06 1405.85 2281.29 1404.16 2281.67 1402.12 2282.19 1399.73L2283.52 1393.65C2283.68 1392.92 2283.89 1392 2284.15 1390.88 2284.41 1389.76 2284.64 1388.58 2284.85 1387.33 2285.06 1386.08 2285.16 1384.91 2285.16 1383.82 2285.16 1382.93 2285.06 1382 2284.85 1381.01 2284.64 1380.02 2284.19 1379.16 2283.48 1378.44 2282.78 1377.71 2281.72 1377.34 2280.31 1377.34 2278.91 1377.34 2277.54 1377.81 2276.21 1378.75 2274.88 1379.68 2273.67 1380.83 2272.57 1382.18 2271.48 1383.53 2270.58 1384.83 2269.87 1386.08 2269.17 1387.33 2268.77 1388.26 2268.66 1388.89L2262.56 1417.28 2255.29 1417.28 2262.41 1383.43C2262.56 1382.7 2262.68 1381.99 2262.76 1381.28 2262.84 1380.58 2262.87 1380.13 2262.87 1379.92 2262.87 1378.36 2262.34 1377.36 2261.27 1376.92 2260.2 1376.47 2258.91 1376.25 2257.4 1376.25L2256.78 1376.25 2256.93 1375.47 2271.4 1375.47 2269.29 1385.3 2269.44 1385.3C2270.9 1383.01 2272.39 1381.09 2273.9 1379.53 2275.41 1377.97 2277.03 1376.79 2278.75 1375.98 2280.47 1375.17 2282.32 1374.77 2284.3 1374.77ZM2192.21 1374.77C2195.07 1374.77 2197.39 1375.13 2199.17 1375.86 2200.94 1376.59 2202.25 1377.53 2203.11 1378.67 2203.98 1379.81 2204.41 1380.98 2204.41 1382.18 2204.41 1383.79 2203.85 1385 2202.72 1385.81 2201.6 1386.61 2200.21 1387.02 2198.54 1387.02 2198.59 1386.6 2198.63 1386.2 2198.66 1385.81 2198.68 1385.42 2198.7 1385.04 2198.7 1384.68 2198.7 1382.13 2198.16 1379.97 2197.09 1378.2 2196.02 1376.43 2194.21 1375.55 2191.66 1375.55 2188.79 1375.55 2186.78 1376.38 2185.64 1378.05 2184.49 1379.71 2183.92 1381.61 2183.92 1383.74 2183.92 1385.35 2184.2 1386.69 2184.78 1387.76 2185.35 1388.82 2186.22 1389.77 2187.4 1390.6 2188.57 1391.44 2190.07 1392.27 2191.89 1393.1 2193.82 1393.93 2195.48 1394.91 2196.86 1396.03 2198.24 1397.14 2199.32 1398.44 2200.1 1399.93 2200.89 1401.41 2201.28 1403.16 2201.28 1405.19 2201.28 1407.69 2200.63 1409.91 2199.32 1411.86 2198.02 1413.81 2196.16 1415.33 2193.73 1416.42 2191.31 1417.51 2188.43 1418.06 2185.09 1418.06 2182.48 1418.06 2180.21 1417.71 2178.29 1417.01 2176.36 1416.31 2174.86 1415.29 2173.79 1413.97 2172.72 1412.64 2172.19 1411.07 2172.19 1409.25 2172.19 1407.84 2172.51 1406.76 2173.16 1406.01 2173.81 1405.26 2174.56 1404.75 2175.39 1404.49 2176.23 1404.23 2176.96 1404.1 2177.58 1404.1 2177.53 1404.51 2177.49 1404.93 2177.46 1405.35 2177.44 1405.76 2177.43 1406.18 2177.43 1406.59 2177.43 1408.57 2177.7 1410.36 2178.25 1411.98 2178.79 1413.59 2179.65 1414.88 2180.83 1415.84 2182 1416.8 2183.53 1417.28 2185.4 1417.28 2188.17 1417.28 2190.37 1416.47 2192.01 1414.86 2193.65 1413.25 2194.47 1411.04 2194.47 1408.23 2194.47 1406.62 2194.21 1405.26 2193.69 1404.14 2193.17 1403.02 2192.34 1402.02 2191.19 1401.13 2190.04 1400.25 2188.5 1399.37 2186.58 1398.48 2184.65 1397.55 2182.98 1396.55 2181.57 1395.48 2180.16 1394.41 2179.07 1393.15 2178.29 1391.7 2177.5 1390.24 2177.11 1388.47 2177.11 1386.39 2177.11 1384.16 2177.73 1382.17 2178.95 1380.43 2180.18 1378.68 2181.92 1377.31 2184.19 1376.29 2186.46 1375.28 2189.13 1374.77 2192.21 1374.77ZM2069.25 1374.77C2071.33 1374.77 2072.97 1375.17 2074.17 1375.98 2075.37 1376.79 2076.24 1377.84 2076.79 1379.14 2077.34 1380.44 2077.61 1381.87 2077.61 1383.43 2077.61 1384.73 2077.44 1386.15 2077.1 1387.68 2076.77 1389.21 2076.47 1390.66 2076.21 1392.01L2074.17 1401.21C2073.86 1402.67 2073.61 1404.14 2073.43 1405.62 2073.25 1407.1 2073.16 1408.52 2073.16 1409.87 2073.16 1411.48 2073.44 1412.74 2074.02 1413.65 2074.59 1414.56 2075.53 1415.02 2076.83 1415.02 2077.4 1415.02 2077.96 1414.94 2078.51 1414.78 2079.06 1414.63 2079.61 1414.41 2080.15 1414.12 2080.7 1413.84 2081.26 1413.46 2081.84 1412.99L2082.3 1413.61C2081.05 1414.65 2079.66 1415.66 2078.12 1416.62 2076.58 1417.58 2074.8 1418.06 2072.76 1418.06 2070.47 1418.06 2068.71 1417.32 2067.49 1415.84 2066.26 1414.36 2065.65 1412.5 2065.65 1410.26 2065.65 1409.01 2065.77 1407.54 2066 1405.85 2066.23 1404.16 2066.61 1402.12 2067.13 1399.73L2068.46 1393.65C2068.62 1392.92 2068.83 1392 2069.09 1390.88 2069.35 1389.76 2069.58 1388.58 2069.79 1387.33 2070 1386.08 2070.11 1384.91 2070.11 1383.82 2070.11 1382.93 2070 1382 2069.79 1381.01 2069.58 1380.02 2069.13 1379.16 2068.42 1378.44 2067.72 1377.71 2066.66 1377.34 2065.26 1377.34 2063.85 1377.34 2062.48 1377.81 2061.15 1378.75 2059.82 1379.68 2058.61 1380.83 2057.51 1382.18 2056.42 1383.53 2055.52 1384.83 2054.82 1386.08 2054.11 1387.33 2053.71 1388.26 2053.6 1388.89L2047.5 1417.28 2040.23 1417.28 2047.35 1383.43C2047.5 1382.7 2047.62 1381.99 2047.7 1381.28 2047.78 1380.58 2047.82 1380.13 2047.82 1379.92 2047.82 1378.36 2047.28 1377.36 2046.21 1376.92 2045.15 1376.47 2043.86 1376.25 2042.34 1376.25L2041.72 1376.25 2041.87 1375.47 2056.34 1375.47 2054.23 1385.3 2054.39 1385.3C2055.85 1383.01 2057.33 1381.09 2058.84 1379.53 2060.36 1377.97 2061.97 1376.79 2063.69 1375.98 2065.41 1375.17 2067.26 1374.77 2069.25 1374.77ZM1882.65 1374.77C1885.52 1374.77 1887.84 1375.13 1889.61 1375.86 1891.39 1376.59 1892.7 1377.53 1893.56 1378.67 1894.42 1379.81 1894.85 1380.98 1894.85 1382.18 1894.85 1383.79 1894.29 1385 1893.17 1385.81 1892.05 1386.61 1890.66 1387.02 1888.99 1387.02 1889.04 1386.6 1889.08 1386.2 1889.11 1385.81 1889.13 1385.42 1889.14 1385.04 1889.14 1384.68 1889.14 1382.13 1888.61 1379.97 1887.54 1378.2 1886.47 1376.43 1884.66 1375.55 1882.11 1375.55 1879.24 1375.55 1877.23 1376.38 1876.08 1378.05 1874.94 1379.71 1874.36 1381.61 1874.36 1383.74 1874.36 1385.35 1874.65 1386.69 1875.22 1387.76 1875.8 1388.82 1876.67 1389.77 1877.84 1390.6 1879.02 1391.44 1880.52 1392.27 1882.34 1393.1 1884.27 1393.93 1885.93 1394.91 1887.31 1396.03 1888.69 1397.14 1889.77 1398.44 1890.55 1399.93 1891.33 1401.41 1891.73 1403.16 1891.73 1405.19 1891.73 1407.69 1891.07 1409.91 1889.77 1411.86 1888.47 1413.81 1886.6 1415.33 1884.18 1416.42 1881.75 1417.51 1878.87 1418.06 1875.54 1418.06 1872.93 1418.06 1870.66 1417.71 1868.73 1417.01 1866.8 1416.31 1865.31 1415.29 1864.24 1413.97 1863.17 1412.64 1862.63 1411.07 1862.63 1409.25 1862.63 1407.84 1862.96 1406.76 1863.61 1406.01 1864.26 1405.26 1865.01 1404.75 1865.84 1404.49 1866.67 1404.23 1867.4 1404.1 1868.03 1404.1 1867.98 1404.51 1867.94 1404.93 1867.91 1405.35 1867.89 1405.76 1867.87 1406.18 1867.87 1406.59 1867.87 1408.57 1868.15 1410.36 1868.69 1411.98 1869.24 1413.59 1870.1 1414.88 1871.28 1415.84 1872.45 1416.8 1873.97 1417.28 1875.85 1417.28 1878.61 1417.28 1880.82 1416.47 1882.46 1414.86 1884.1 1413.25 1884.92 1411.04 1884.92 1408.23 1884.92 1406.62 1884.66 1405.26 1884.14 1404.14 1883.62 1403.02 1882.78 1402.02 1881.64 1401.13 1880.49 1400.25 1878.95 1399.37 1877.02 1398.48 1875.09 1397.55 1873.43 1396.55 1872.02 1395.48 1870.61 1394.41 1869.52 1393.15 1868.73 1391.7 1867.95 1390.24 1867.56 1388.47 1867.56 1386.39 1867.56 1384.16 1868.17 1382.17 1869.4 1380.43 1870.62 1378.68 1872.37 1377.31 1874.64 1376.29 1876.91 1375.28 1879.58 1374.77 1882.65 1374.77ZM2814.86 1374.69C2816.16 1374.69 2817.18 1375.17 2817.91 1376.14 2818.64 1377.1 2819 1378.57 2819 1380.54 2819 1382.88 2818.49 1385.38 2817.48 1388.03 2816.46 1390.68 2815.01 1393.53 2813.13 1396.57 2811.26 1399.61 2809.02 1402.86 2806.41 1406.32 2803.8 1409.78 2800.94 1413.46 2797.81 1417.36L2791.63 1418.06C2791.63 1416.08 2791.59 1413.8 2791.51 1411.2 2791.43 1408.6 2791.33 1405.84 2791.2 1402.93 2791.07 1400.02 2790.95 1397.07 2790.85 1394.08 2790.74 1391.09 2790.64 1388.21 2790.53 1385.46 2790.43 1382.7 2790.35 1380.18 2790.3 1377.89 2789.78 1379.24 2789.04 1381.05 2788.07 1383.31 2787.11 1385.57 2786 1388.06 2784.75 1390.76 2783.5 1393.46 2782.21 1396.21 2780.88 1398.99 2779.55 1401.77 2778.27 1404.41 2777.04 1406.91 2775.82 1409.4 2774.75 1411.56 2773.84 1413.38 2772.93 1415.2 2772.24 1416.5 2771.77 1417.28L2765.9 1417.98 2765.27 1381.87C2765.27 1380.26 2765.09 1379.06 2764.73 1378.28 2764.36 1377.5 2763.88 1376.97 2763.28 1376.68 2762.68 1376.4 2761.94 1376.25 2761.05 1376.25L2760.27 1376.25 2760.5 1375.47 2772.24 1375.47C2772.29 1377.55 2772.34 1379.87 2772.39 1382.41 2772.44 1384.96 2772.48 1387.6 2772.51 1390.33 2772.53 1393.06 2772.56 1395.79 2772.59 1398.52 2772.61 1401.25 2772.63 1403.9 2772.63 1406.48 2772.63 1409.05 2772.6 1411.43 2772.55 1413.61L2772.7 1413.61C2773.69 1411.85 2774.79 1409.78 2775.99 1407.41 2777.19 1405.05 2778.43 1402.51 2779.7 1399.81 2780.98 1397.1 2782.24 1394.36 2783.5 1391.58 2784.75 1388.8 2785.95 1386.09 2787.09 1383.47 2788.24 1380.84 2789.28 1378.41 2790.22 1376.17L2796.71 1375.86C2796.87 1377.32 2797.01 1379.26 2797.14 1381.67 2797.27 1384.09 2797.4 1386.76 2797.53 1389.67 2797.66 1392.58 2797.78 1395.57 2797.89 1398.64 2797.99 1401.71 2798.07 1404.68 2798.12 1407.57 2798.17 1410.46 2798.2 1413.04 2798.2 1415.33L2798.35 1415.33C2801.53 1411.43 2804.45 1407.66 2807.11 1404.02 2809.77 1400.38 2811.91 1396.99 2813.53 1393.84 2815.14 1390.7 2815.95 1387.87 2815.95 1385.38 2815.95 1383.56 2815.47 1382.19 2814.5 1381.28 2813.54 1380.37 2812.12 1379.71 2810.24 1379.29 2810.4 1378.05 2810.88 1376.97 2811.69 1376.06 2812.5 1375.15 2813.55 1374.69 2814.86 1374.69ZM2747.18 1374.69C2750.47 1374.69 2753.02 1375.49 2754.85 1377.07 2756.67 1378.66 2757.58 1380.85 2757.58 1383.66 2757.58 1386.16 2756.61 1388.49 2754.65 1390.64 2752.7 1392.8 2750.03 1394.56 2746.64 1395.91 2743.25 1397.26 2739.42 1397.94 2735.14 1397.94L2732.4 1397.94C2732.35 1398.4 2732.29 1398.9 2732.21 1399.42 2732.13 1399.94 2732.08 1400.47 2732.05 1401.02 2732.03 1401.56 2732.01 1402.07 2732.01 1402.54 2732.01 1405.66 2732.31 1408.32 2732.91 1410.53 2733.51 1412.74 2734.4 1414.42 2735.57 1415.56 2736.74 1416.71 2738.16 1417.28 2739.83 1417.28 2742.8 1417.28 2745.18 1416.37 2746.95 1414.55 2748.72 1412.73 2750.08 1410.39 2751.02 1407.53 2751.54 1407.69 2751.94 1407.96 2752.23 1408.35 2752.51 1408.74 2752.66 1409.25 2752.66 1409.87 2752.66 1410.86 2752.18 1412 2751.21 1413.3 2750.25 1414.6 2748.77 1415.72 2746.79 1416.66 2744.81 1417.59 2742.26 1418.06 2739.13 1418.06 2736.37 1418.06 2733.82 1417.46 2731.5 1416.27 2729.18 1415.07 2727.33 1413.29 2725.95 1410.92 2724.57 1408.56 2723.88 1405.55 2723.88 1401.91 2723.88 1399.63 2724.21 1397.22 2724.86 1394.7 2725.51 1392.18 2726.46 1389.73 2727.71 1387.37 2728.96 1385 2730.53 1382.86 2732.4 1380.93 2734.28 1379.01 2736.46 1377.49 2738.93 1376.37 2741.41 1375.25 2744.16 1374.69 2747.18 1374.69ZM2649.43 1374.69C2652.71 1374.69 2655.27 1375.49 2657.09 1377.07 2658.92 1378.66 2659.83 1380.85 2659.83 1383.66 2659.83 1386.16 2658.85 1388.49 2656.9 1390.64 2654.94 1392.8 2652.27 1394.56 2648.88 1395.91 2645.49 1397.26 2641.66 1397.94 2637.39 1397.94L2634.65 1397.94C2634.6 1398.4 2634.53 1398.9 2634.45 1399.42 2634.38 1399.94 2634.32 1400.47 2634.3 1401.02 2634.27 1401.56 2634.26 1402.07 2634.26 1402.54 2634.26 1405.66 2634.56 1408.32 2635.16 1410.53 2635.76 1412.74 2636.64 1414.42 2637.82 1415.56 2638.99 1416.71 2640.41 1417.28 2642.08 1417.28 2645.05 1417.28 2647.42 1416.37 2649.2 1414.55 2650.97 1412.73 2652.32 1410.39 2653.26 1407.53 2653.78 1407.69 2654.19 1407.96 2654.47 1408.35 2654.76 1408.74 2654.9 1409.25 2654.9 1409.87 2654.9 1410.86 2654.42 1412 2653.46 1413.3 2652.49 1414.6 2651.02 1415.72 2649.04 1416.66 2647.06 1417.59 2644.5 1418.06 2641.38 1418.06 2638.61 1418.06 2636.07 1417.46 2633.75 1416.27 2631.43 1415.07 2629.58 1413.29 2628.2 1410.92 2626.82 1408.56 2626.13 1405.55 2626.13 1401.91 2626.13 1399.63 2626.45 1397.22 2627.1 1394.7 2627.76 1392.18 2628.71 1389.73 2629.96 1387.37 2631.21 1385 2632.77 1382.86 2634.65 1380.93 2636.53 1379.01 2638.7 1377.49 2641.18 1376.37 2643.66 1375.25 2646.41 1374.69 2649.43 1374.69ZM2481.97 1374.69C2484.16 1374.69 2485.78 1375.2 2486.82 1376.21 2487.86 1377.23 2488.39 1378.51 2488.39 1380.07 2488.39 1381.27 2488.15 1382.32 2487.68 1383.23 2487.21 1384.14 2486.48 1384.83 2485.49 1385.3 2484.5 1385.77 2483.25 1386 2481.74 1386 2481.79 1385.59 2481.82 1385.18 2481.82 1384.79 2481.82 1384.4 2481.82 1384.03 2481.82 1383.66 2481.82 1382.36 2481.7 1381.24 2481.46 1380.31 2481.23 1379.37 2480.83 1378.64 2480.25 1378.12 2479.68 1377.6 2478.9 1377.34 2477.91 1377.34 2476.81 1377.34 2475.72 1377.83 2474.62 1378.79 2473.53 1379.75 2472.5 1380.96 2471.53 1382.41 2470.57 1383.87 2469.76 1385.37 2469.11 1386.9 2468.46 1388.43 2468 1389.77 2467.74 1390.92L2462.11 1417.28 2454.84 1417.28 2461.95 1383.43C2462.11 1382.7 2462.23 1381.99 2462.3 1381.28 2462.38 1380.58 2462.42 1380.13 2462.42 1379.92 2462.42 1378.36 2461.76 1377.36 2460.43 1376.92 2459.1 1376.47 2457.68 1376.25 2456.17 1376.25L2455.54 1376.25 2455.7 1375.47 2470.01 1375.47 2468.21 1386.7 2468.37 1386.7C2469.41 1384.57 2470.52 1382.6 2471.69 1380.78 2472.86 1378.96 2474.27 1377.49 2475.91 1376.37 2477.55 1375.25 2479.57 1374.69 2481.97 1374.69ZM2430.72 1374.69C2432.86 1374.69 2434.56 1374.99 2435.81 1375.59 2437.06 1376.19 2438.18 1376.95 2439.17 1377.89L2443.31 1375.55 2445.82 1375.55 2440.5 1400.51C2440.39 1401.08 2440.24 1401.91 2440.03 1403.01 2439.82 1404.1 2439.65 1405.22 2439.52 1406.36 2439.39 1407.5 2439.33 1408.44 2439.33 1409.17 2439.33 1411.25 2439.6 1412.81 2440.15 1413.85 2440.69 1414.89 2441.49 1415.41 2442.53 1415.41 2443.42 1415.41 2444.34 1415.17 2445.31 1414.71 2446.27 1414.24 2447.33 1413.59 2448.48 1412.76L2448.95 1413.38C2448.22 1414.06 2447.22 1414.76 2445.97 1415.49 2444.72 1416.21 2443.39 1416.83 2441.99 1417.32 2440.58 1417.81 2439.22 1418.06 2437.92 1418.06 2436.04 1418.06 2434.56 1417.49 2433.46 1416.34 2432.37 1415.2 2431.82 1413.61 2431.82 1411.59 2431.82 1410.55 2431.87 1409.6 2431.98 1408.74 2432.08 1407.88 2432.24 1406.8 2432.44 1405.5L2432.37 1405.5C2430.54 1409.51 2428.39 1412.6 2425.91 1414.78 2423.44 1416.97 2420.64 1418.06 2417.51 1418.06 2415.21 1418.06 2413.31 1417.44 2411.8 1416.19 2410.29 1414.94 2409.18 1413.24 2408.48 1411.08 2407.77 1408.92 2407.42 1406.49 2407.42 1403.79 2407.42 1401.34 2407.75 1398.78 2408.4 1396.1 2409.05 1393.43 2410.03 1390.83 2411.33 1388.3 2412.63 1385.78 2414.22 1383.49 2416.1 1381.44 2417.98 1379.39 2420.14 1377.75 2422.59 1376.53 2425.04 1375.3 2427.75 1374.69 2430.72 1374.69ZM2395.27 1374.69C2398.56 1374.69 2401.11 1375.49 2402.94 1377.07 2404.76 1378.66 2405.67 1380.85 2405.67 1383.66 2405.67 1386.16 2404.7 1388.49 2402.74 1390.64 2400.79 1392.8 2398.11 1394.56 2394.72 1395.91 2391.34 1397.26 2387.5 1397.94 2383.23 1397.94L2380.49 1397.94C2380.44 1398.4 2380.37 1398.9 2380.3 1399.42 2380.22 1399.94 2380.17 1400.47 2380.14 1401.02 2380.11 1401.56 2380.1 1402.07 2380.1 1402.54 2380.1 1405.66 2380.4 1408.32 2381 1410.53 2381.6 1412.74 2382.49 1414.42 2383.66 1415.56 2384.83 1416.71 2386.25 1417.28 2387.92 1417.28 2390.89 1417.28 2393.26 1416.37 2395.04 1414.55 2396.81 1412.73 2398.17 1410.39 2399.1 1407.53 2399.63 1407.69 2400.03 1407.96 2400.32 1408.35 2400.6 1408.74 2400.75 1409.25 2400.75 1409.87 2400.75 1410.86 2400.26 1412 2399.3 1413.3 2398.33 1414.6 2396.86 1415.72 2394.88 1416.66 2392.9 1417.59 2390.35 1418.06 2387.22 1418.06 2384.45 1418.06 2381.91 1417.46 2379.59 1416.27 2377.27 1415.07 2375.42 1413.29 2374.04 1410.92 2372.66 1408.56 2371.97 1405.55 2371.97 1401.91 2371.97 1399.63 2372.29 1397.22 2372.95 1394.7 2373.6 1392.18 2374.55 1389.73 2375.8 1387.37 2377.05 1385 2378.61 1382.86 2380.49 1380.93 2382.37 1379.01 2384.55 1377.49 2387.02 1376.37 2389.5 1375.25 2392.25 1374.69 2395.27 1374.69ZM2150.5 1374.69C2152.64 1374.69 2154.33 1374.99 2155.58 1375.59 2156.83 1376.19 2157.95 1376.95 2158.94 1377.89L2163.09 1375.55 2165.59 1375.55 2160.27 1400.51C2160.17 1401.08 2160.01 1401.91 2159.8 1403.01 2159.6 1404.1 2159.43 1405.22 2159.3 1406.36 2159.17 1407.5 2159.1 1408.44 2159.1 1409.17 2159.1 1411.25 2159.37 1412.81 2159.92 1413.85 2160.47 1414.89 2161.26 1415.41 2162.31 1415.41 2163.19 1415.41 2164.12 1415.17 2165.08 1414.71 2166.05 1414.24 2167.1 1413.59 2168.25 1412.76L2168.72 1413.38C2167.99 1414.06 2167 1414.76 2165.75 1415.49 2164.5 1416.21 2163.17 1416.83 2161.76 1417.32 2160.35 1417.81 2159 1418.06 2157.69 1418.06 2155.82 1418.06 2154.33 1417.49 2153.23 1416.34 2152.14 1415.2 2151.59 1413.61 2151.59 1411.59 2151.59 1410.55 2151.64 1409.6 2151.75 1408.74 2151.85 1407.88 2152.01 1406.8 2152.22 1405.5L2152.14 1405.5C2150.32 1409.51 2148.16 1412.6 2145.69 1414.78 2143.21 1416.97 2140.41 1418.06 2137.28 1418.06 2134.99 1418.06 2133.08 1417.44 2131.57 1416.19 2130.06 1414.94 2128.95 1413.24 2128.25 1411.08 2127.55 1408.92 2127.19 1406.49 2127.19 1403.79 2127.19 1401.34 2127.52 1398.78 2128.17 1396.1 2128.82 1393.43 2129.8 1390.83 2131.1 1388.3 2132.41 1385.78 2134 1383.49 2135.87 1381.44 2137.75 1379.39 2139.91 1377.75 2142.36 1376.53 2144.82 1375.3 2147.53 1374.69 2150.5 1374.69ZM2016.9 1374.69C2019.04 1374.69 2020.73 1374.99 2021.98 1375.59 2023.24 1376.19 2024.36 1376.95 2025.35 1377.89L2029.49 1375.55 2031.99 1375.55 2026.68 1400.51C2026.57 1401.08 2026.42 1401.91 2026.21 1403.01 2026 1404.1 2025.83 1405.22 2025.7 1406.36 2025.57 1407.5 2025.5 1408.44 2025.5 1409.17 2025.5 1411.25 2025.78 1412.81 2026.33 1413.85 2026.87 1414.89 2027.67 1415.41 2028.71 1415.41 2029.6 1415.41 2030.52 1415.17 2031.49 1414.71 2032.45 1414.24 2033.51 1413.59 2034.65 1412.76L2035.12 1413.38C2034.39 1414.06 2033.4 1414.76 2032.15 1415.49 2030.9 1416.21 2029.57 1416.83 2028.16 1417.32 2026.76 1417.81 2025.4 1418.06 2024.1 1418.06 2022.22 1418.06 2020.73 1417.49 2019.64 1416.34 2018.54 1415.2 2018 1413.61 2018 1411.59 2018 1410.55 2018.05 1409.6 2018.15 1408.74 2018.26 1407.88 2018.41 1406.8 2018.62 1405.5L2018.54 1405.5C2016.72 1409.51 2014.57 1412.6 2012.09 1414.78 2009.62 1416.97 2006.81 1418.06 2003.69 1418.06 2001.39 1418.06 1999.49 1417.44 1997.98 1416.19 1996.46 1414.94 1995.36 1413.24 1994.65 1411.08 1993.95 1408.92 1993.6 1406.49 1993.6 1403.79 1993.6 1401.34 1993.92 1398.78 1994.57 1396.1 1995.23 1393.43 1996.2 1390.83 1997.51 1388.3 1998.81 1385.78 2000.4 1383.49 2002.28 1381.44 2004.15 1379.39 2006.32 1377.75 2008.77 1376.53 2011.22 1375.3 2013.93 1374.69 2016.9 1374.69ZM1821.39 1374.69C1823.53 1374.69 1825.23 1374.99 1826.48 1375.59 1827.73 1376.19 1828.85 1376.95 1829.84 1377.89L1833.99 1375.55 1836.49 1375.55 1831.17 1400.51C1831.07 1401.08 1830.91 1401.91 1830.7 1403.01 1830.49 1404.1 1830.32 1405.22 1830.19 1406.36 1830.06 1407.5 1830 1408.44 1830 1409.17 1830 1411.25 1830.27 1412.81 1830.82 1413.85 1831.37 1414.89 1832.16 1415.41 1833.2 1415.41 1834.09 1415.41 1835.02 1415.17 1835.98 1414.71 1836.94 1414.24 1838 1413.59 1839.15 1412.76L1839.62 1413.38C1838.89 1414.06 1837.9 1414.76 1836.64 1415.49 1835.39 1416.21 1834.06 1416.83 1832.66 1417.32 1831.25 1417.81 1829.89 1418.06 1828.59 1418.06 1826.71 1418.06 1825.23 1417.49 1824.13 1416.34 1823.04 1415.2 1822.49 1413.61 1822.49 1411.59 1822.49 1410.55 1822.54 1409.6 1822.65 1408.74 1822.75 1407.88 1822.91 1406.8 1823.12 1405.5L1823.04 1405.5C1821.21 1409.51 1819.06 1412.6 1816.59 1414.78 1814.11 1416.97 1811.31 1418.06 1808.18 1418.06 1805.88 1418.06 1803.98 1417.44 1802.47 1416.19 1800.96 1414.94 1799.85 1413.24 1799.15 1411.08 1798.44 1408.92 1798.09 1406.49 1798.09 1403.79 1798.09 1401.34 1798.42 1398.78 1799.07 1396.1 1799.72 1393.43 1800.7 1390.83 1802 1388.3 1803.3 1385.78 1804.89 1383.49 1806.77 1381.44 1808.65 1379.39 1810.81 1377.75 1813.26 1376.53 1815.71 1375.3 1818.42 1374.69 1821.39 1374.69ZM1791.18 1374.69C1793.37 1374.69 1794.99 1375.2 1796.03 1376.21 1797.07 1377.23 1797.6 1378.51 1797.6 1380.07 1797.6 1381.27 1797.36 1382.32 1796.89 1383.23 1796.42 1384.14 1795.69 1384.83 1794.7 1385.3 1793.71 1385.77 1792.46 1386 1790.95 1386 1791 1385.59 1791.03 1385.18 1791.03 1384.79 1791.03 1384.4 1791.03 1384.03 1791.03 1383.66 1791.03 1382.36 1790.91 1381.24 1790.67 1380.31 1790.44 1379.37 1790.04 1378.64 1789.46 1378.12 1788.89 1377.6 1788.11 1377.34 1787.12 1377.34 1786.02 1377.34 1784.93 1377.83 1783.83 1378.79 1782.74 1379.75 1781.71 1380.96 1780.74 1382.41 1779.78 1383.87 1778.97 1385.37 1778.32 1386.9 1777.67 1388.43 1777.21 1389.77 1776.95 1390.92L1771.32 1417.28 1764.05 1417.28 1771.16 1383.43C1771.32 1382.7 1771.44 1381.99 1771.51 1381.28 1771.59 1380.58 1771.63 1380.13 1771.63 1379.92 1771.63 1378.36 1770.97 1377.36 1769.64 1376.92 1768.31 1376.47 1766.89 1376.25 1765.38 1376.25L1764.75 1376.25 1764.91 1375.47 1779.22 1375.47 1777.42 1386.7 1777.58 1386.7C1778.62 1384.57 1779.73 1382.6 1780.9 1380.78 1782.07 1378.96 1783.48 1377.49 1785.12 1376.37 1786.76 1375.25 1788.78 1374.69 1791.18 1374.69ZM1648.7 1374.69C1650.83 1374.69 1652.53 1374.99 1653.78 1375.59 1655.03 1376.19 1656.15 1376.95 1657.14 1377.89L1661.29 1375.55 1663.79 1375.55 1658.47 1400.51C1658.37 1401.08 1658.21 1401.91 1658 1403.01 1657.79 1404.1 1657.63 1405.22 1657.5 1406.36 1657.36 1407.5 1657.3 1408.44 1657.3 1409.17 1657.3 1411.25 1657.57 1412.81 1658.12 1413.85 1658.67 1414.89 1659.46 1415.41 1660.51 1415.41 1661.39 1415.41 1662.32 1415.17 1663.28 1414.71 1664.25 1414.24 1665.3 1413.59 1666.45 1412.76L1666.92 1413.38C1666.19 1414.06 1665.2 1414.76 1663.95 1415.49 1662.7 1416.21 1661.37 1416.83 1659.96 1417.32 1658.55 1417.81 1657.2 1418.06 1655.89 1418.06 1654.02 1418.06 1652.53 1417.49 1651.43 1416.34 1650.34 1415.2 1649.79 1413.61 1649.79 1411.59 1649.79 1410.55 1649.84 1409.6 1649.95 1408.74 1650.05 1407.88 1650.21 1406.8 1650.42 1405.5L1650.34 1405.5C1648.51 1409.51 1646.36 1412.6 1643.89 1414.78 1641.41 1416.97 1638.61 1418.06 1635.48 1418.06 1633.19 1418.06 1631.28 1417.44 1629.77 1416.19 1628.26 1414.94 1627.15 1413.24 1626.45 1411.08 1625.74 1408.92 1625.39 1406.49 1625.39 1403.79 1625.39 1401.34 1625.72 1398.78 1626.37 1396.1 1627.02 1393.43 1628 1390.83 1629.3 1388.3 1630.61 1385.78 1632.2 1383.49 1634.07 1381.44 1635.95 1379.39 1638.11 1377.75 1640.56 1376.53 1643.01 1375.3 1645.73 1374.69 1648.7 1374.69ZM2124.09 1371.65C2125.39 1371.65 2126.37 1371.99 2127.02 1372.66 2127.68 1373.34 2128 1374.2 2128 1375.24 2128 1376.38 2127.68 1377.47 2127.02 1378.51 2126.37 1379.55 2125.16 1380.07 2123.39 1380.07 2123.39 1378.83 2123.14 1377.77 2122.64 1376.92 2122.15 1376.06 2121.3 1375.63 2120.1 1375.63 2119.43 1375.63 2118.75 1375.81 2118.07 1376.17 2117.39 1376.54 2116.79 1377.03 2116.27 1377.66 2117.16 1378.64 2117.85 1379.75 2118.34 1380.97 2118.84 1382.19 2119.09 1383.56 2119.09 1385.07 2119.09 1386.83 2118.73 1388.72 2118.03 1390.72 2117.33 1392.72 2116.25 1394.62 2114.79 1396.42 2113.33 1398.21 2111.46 1399.68 2109.19 1400.82 2106.93 1401.97 2104.25 1402.54 2101.18 1402.54 2100.66 1402.54 2100.14 1402.53 2099.61 1402.5 2099.09 1402.47 2098.58 1402.41 2098.09 1402.3 2097.59 1402.2 2097.11 1402.1 2096.64 1401.99 2095.18 1402.51 2094.07 1403.14 2093.32 1403.86 2092.56 1404.59 2092.18 1405.53 2092.18 1406.67 2092.18 1407.71 2092.68 1408.44 2093.67 1408.86 2094.66 1409.27 2095.96 1409.56 2097.58 1409.71L2104.62 1410.42C2107.23 1410.68 2109.43 1411.21 2111.23 1412.02 2113.03 1412.82 2114.39 1413.94 2115.33 1415.37 2116.27 1416.8 2116.74 1418.55 2116.74 1420.63 2116.74 1422.97 2116.3 1425.09 2115.41 1426.99 2114.52 1428.89 2113.2 1430.5 2111.42 1431.83 2109.65 1433.15 2107.45 1434.18 2104.81 1434.91 2102.18 1435.64 2099.09 1436 2095.55 1436 2091.74 1436 2088.57 1435.62 2086.05 1434.87 2083.52 1434.11 2081.63 1433 2080.38 1431.52 2079.12 1430.03 2078.5 1428.2 2078.5 1426.02 2078.5 1423.94 2079.11 1422.16 2080.34 1420.67 2081.56 1419.19 2083.3 1418.03 2085.54 1417.2 2087.78 1416.37 2090.44 1415.93 2093.51 1415.88 2091.17 1415.1 2089.58 1414.12 2088.74 1412.95 2087.91 1411.78 2087.49 1410.55 2087.49 1409.25 2087.49 1407.69 2088.17 1406.18 2089.53 1404.72 2090.88 1403.27 2092.99 1402.28 2095.86 1401.76 2093.77 1400.98 2092.18 1399.76 2091.09 1398.09 2089.99 1396.43 2089.45 1394.43 2089.45 1392.09 2089.45 1390.27 2089.81 1388.34 2090.54 1386.31 2091.27 1384.29 2092.38 1382.39 2093.87 1380.62 2095.35 1378.85 2097.24 1377.42 2099.54 1376.33 2101.83 1375.24 2104.51 1374.69 2107.59 1374.69 2109.15 1374.69 2110.63 1374.89 2112.01 1375.28 2113.39 1375.67 2114.6 1376.3 2115.65 1377.19 2116.32 1376.15 2117.09 1375.21 2117.95 1374.38 2118.81 1373.55 2119.76 1372.89 2120.81 1372.39 2121.85 1371.9 2122.94 1371.65 2124.09 1371.65ZM2596.51 1362.37 2590.57 1390.53 2596.59 1390.53C2599.62 1390.53 2602.24 1390.01 2604.45 1388.97 2606.67 1387.93 2608.39 1386.26 2609.61 1383.97 2610.84 1381.69 2611.45 1378.64 2611.45 1374.85 2611.45 1371.78 2611.1 1369.34 2610.39 1367.52 2609.69 1365.7 2608.63 1364.38 2607.23 1363.58 2605.82 1362.77 2604.02 1362.37 2601.83 1362.37ZM2581.34 1361.59 2601.83 1361.59C2607.88 1361.59 2612.38 1362.68 2615.32 1364.86 2618.27 1367.05 2619.74 1370.38 2619.74 1374.85 2619.74 1377.4 2619.28 1379.55 2618.37 1381.32 2617.46 1383.09 2616.27 1384.57 2614.81 1385.77 2613.35 1386.96 2611.76 1387.93 2610.04 1388.65 2608.32 1389.38 2606.65 1389.98 2605.04 1390.45L2610.51 1407.84C2611.14 1409.71 2611.71 1411.3 2612.23 1412.6 2612.75 1413.9 2613.37 1414.88 2614.07 1415.53 2614.77 1416.18 2615.7 1416.5 2616.85 1416.5L2617.47 1416.5 2617.32 1417.28 2616.3 1417.28C2613.22 1417.28 2610.76 1417.03 2608.91 1416.54 2607.06 1416.05 2605.61 1415.14 2604.57 1413.81 2603.53 1412.48 2602.67 1410.6 2601.99 1408.15L2597.45 1391.31 2590.41 1391.31 2586.11 1411.2C2586.06 1411.51 2586 1411.89 2585.92 1412.33 2585.84 1412.77 2585.8 1413.12 2585.8 1413.38 2585.8 1414.68 2586.33 1415.53 2587.4 1415.92 2588.47 1416.31 2589.81 1416.5 2591.43 1416.5L2594.01 1416.5 2593.85 1417.28 2569.61 1417.28 2569.77 1416.5 2570.78 1416.5C2571.93 1416.5 2573 1416.38 2573.99 1416.15 2574.98 1415.92 2575.86 1415.43 2576.61 1414.71 2577.37 1413.98 2577.9 1412.83 2578.21 1411.27L2587.52 1367.67C2587.57 1367.36 2587.64 1366.97 2587.72 1366.5 2587.79 1366.03 2587.83 1365.7 2587.83 1365.49 2587.83 1364.14 2587.31 1363.28 2586.27 1362.91 2585.23 1362.55 2583.87 1362.37 2582.2 1362.37L2581.19 1362.37ZM2327.24 1361.59 2348.35 1361.59 2348.19 1362.37 2344.28 1362.37C2343.24 1362.37 2342.47 1362.55 2341.98 1362.91 2341.48 1363.28 2341.23 1363.8 2341.23 1364.47 2341.23 1364.89 2341.27 1365.33 2341.35 1365.8 2341.43 1366.27 2341.53 1366.76 2341.66 1367.28 2341.79 1367.8 2341.94 1368.37 2342.09 1369L2346.4 1384.75C2346.71 1385.74 2346.99 1386.74 2347.26 1387.76 2347.52 1388.77 2347.79 1389.79 2348.08 1390.8 2348.36 1391.81 2348.64 1392.81 2348.9 1393.8 2349.78 1392.55 2350.67 1391.31 2351.56 1390.06 2352.44 1388.81 2353.33 1387.56 2354.22 1386.31L2365.95 1369.86C2366.83 1368.66 2367.46 1367.69 2367.82 1366.93 2368.19 1366.18 2368.37 1365.46 2368.37 1364.79 2368.37 1363.95 2368.08 1363.34 2367.51 1362.95 2366.94 1362.56 2365.95 1362.37 2364.54 1362.37L2359.61 1362.37 2359.77 1361.59 2376.74 1361.59 2376.58 1362.37 2375.1 1362.37C2374.31 1362.37 2373.56 1362.59 2372.83 1363.03 2372.1 1363.47 2371.35 1364.12 2370.6 1364.98 2369.84 1365.84 2368.97 1366.94 2367.98 1368.3L2349.21 1394.58 2345.61 1411.2C2345.56 1411.51 2345.5 1411.89 2345.42 1412.33 2345.34 1412.77 2345.3 1413.12 2345.3 1413.38 2345.3 1414.68 2345.83 1415.53 2346.9 1415.92 2347.97 1416.31 2349.31 1416.5 2350.93 1416.5L2352.73 1416.5 2352.57 1417.28 2328.25 1417.28 2328.41 1416.5 2330.21 1416.5C2331.93 1416.5 2333.48 1416.21 2334.86 1415.64 2336.24 1415.07 2337.19 1413.61 2337.72 1411.27L2341.31 1394.43 2332.79 1366.5C2332.32 1364.99 2331.8 1363.93 2331.22 1363.3 2330.65 1362.68 2329.61 1362.37 2328.1 1362.37L2327.08 1362.37ZM1929.65 1361.59 1945.61 1361.59 1955.38 1409.32 1983.38 1361.59 1997.06 1361.59 1996.91 1362.37 1995.89 1362.37C1994.12 1362.37 1992.54 1362.69 1991.16 1363.34 1989.78 1363.99 1988.83 1365.54 1988.31 1367.98L1979.08 1411.2C1979.03 1411.51 1978.96 1411.89 1978.88 1412.33 1978.8 1412.77 1978.76 1413.12 1978.76 1413.38 1978.76 1414.68 1979.3 1415.53 1980.37 1415.92 1981.44 1416.31 1982.78 1416.5 1984.4 1416.5L1985.41 1416.5 1985.26 1417.28 1964.45 1417.28 1964.61 1416.5 1964.84 1416.5C1965.99 1416.5 1966.99 1416.4 1967.86 1416.19 1968.72 1415.98 1969.46 1415.53 1970.08 1414.82 1970.71 1414.12 1971.18 1413.04 1971.49 1411.59L1981.03 1367.13 1951.63 1417.28 1949.36 1417.28 1939.04 1365.88 1929.42 1411.2C1929.37 1411.51 1929.3 1411.89 1929.22 1412.33 1929.15 1412.77 1929.11 1413.12 1929.11 1413.38 1929.11 1414.68 1929.81 1415.53 1931.22 1415.92 1932.63 1416.31 1934.42 1416.5 1936.61 1416.5L1937.63 1416.5 1937.47 1417.28 1917.92 1417.28 1918.08 1416.5 1919.1 1416.5C1920.56 1416.5 1921.92 1416.38 1923.2 1416.15 1924.48 1415.92 1925.59 1415.43 1926.53 1414.71 1927.46 1413.98 1928.14 1412.83 1928.56 1411.27L1937.86 1367.67C1937.97 1367.36 1938.05 1366.97 1938.1 1366.5 1938.15 1366.03 1938.18 1365.7 1938.18 1365.49 1938.18 1364.14 1937.46 1363.28 1936.03 1362.91 1934.59 1362.55 1932.76 1362.37 1930.51 1362.37L1929.5 1362.37ZM1856.61 1361.59C1858.28 1361.59 1859.71 1362.15 1860.91 1363.27 1862.11 1364.38 1862.71 1365.96 1862.71 1367.98 1862.71 1370.32 1862.2 1372.51 1861.19 1374.54 1860.17 1376.56 1858.62 1378.31 1856.53 1379.76 1854.45 1381.22 1851.79 1382.28 1848.56 1382.96L1848.64 1382.18C1851.71 1381.4 1854.02 1380.31 1855.56 1378.9 1857.09 1377.5 1857.86 1375.94 1857.86 1374.22 1857.86 1373.34 1857.55 1372.63 1856.92 1372.08 1856.3 1371.53 1855.6 1371.03 1854.81 1370.56 1854.03 1370.09 1853.33 1369.52 1852.7 1368.84 1852.08 1368.17 1851.76 1367.28 1851.76 1366.19 1851.76 1364.68 1852.25 1363.54 1853.21 1362.76 1854.17 1361.98 1855.31 1361.59 1856.61 1361.59ZM1608.84 1360.81C1611.86 1360.81 1614.48 1361.16 1616.7 1361.86 1618.92 1362.56 1620.64 1363.55 1621.86 1364.83 1623.09 1366.1 1623.7 1367.57 1623.7 1369.23 1623.7 1370.84 1623.22 1372.14 1622.25 1373.13 1621.29 1374.12 1619.74 1374.61 1617.6 1374.61 1617.6 1373.21 1617.53 1371.75 1617.4 1370.25 1617.27 1368.74 1616.95 1367.32 1616.43 1366 1615.9 1364.67 1615.04 1363.6 1613.84 1362.8 1612.65 1361.99 1610.98 1361.59 1608.84 1361.59 1606.75 1361.59 1604.86 1362.06 1603.17 1362.99 1601.48 1363.93 1600.12 1365.35 1599.1 1367.24 1598.09 1369.14 1597.58 1371.57 1597.58 1374.54 1597.58 1376.46 1597.93 1378.07 1598.63 1379.37 1599.34 1380.67 1600.42 1381.87 1601.88 1382.96 1603.34 1384.05 1605.14 1385.22 1607.28 1386.47 1609.88 1387.98 1612.05 1389.5 1613.77 1391.03 1615.49 1392.57 1616.76 1394.21 1617.6 1395.95 1618.43 1397.69 1618.85 1399.6 1618.85 1401.68 1618.85 1404.28 1618.38 1406.59 1617.44 1408.62 1616.5 1410.65 1615.15 1412.37 1613.38 1413.77 1611.6 1415.17 1609.45 1416.24 1606.92 1416.97 1604.4 1417.7 1601.54 1418.06 1598.36 1418.06 1594.56 1418.06 1591.36 1417.55 1588.78 1416.54 1586.2 1415.53 1584.26 1414.16 1582.95 1412.44 1581.65 1410.73 1581 1408.88 1581 1406.91 1581 1404.93 1581.63 1403.45 1582.88 1402.46 1584.13 1401.47 1585.51 1400.98 1587.02 1400.98 1587.02 1403.89 1587.37 1406.59 1588.08 1409.09 1588.78 1411.59 1589.97 1413.58 1591.64 1415.06 1593.3 1416.54 1595.55 1417.28 1598.36 1417.28 1601.18 1417.28 1603.51 1416.75 1605.36 1415.68 1607.21 1414.62 1608.58 1413.11 1609.47 1411.16 1610.35 1409.21 1610.8 1406.88 1610.8 1404.18 1610.8 1402.62 1610.56 1401.21 1610.09 1399.96 1609.62 1398.72 1608.68 1397.46 1607.28 1396.18 1605.87 1394.91 1603.76 1393.49 1600.94 1391.93 1598.75 1390.68 1596.82 1389.32 1595.15 1387.84 1593.49 1386.35 1592.18 1384.64 1591.24 1382.69 1590.31 1380.74 1589.84 1378.46 1589.84 1375.86 1589.84 1373.73 1590.27 1371.74 1591.13 1369.9 1591.99 1368.05 1593.24 1366.45 1594.88 1365.1 1596.52 1363.75 1598.52 1362.69 1600.86 1361.94 1603.21 1361.19 1605.87 1360.81 1608.84 1360.81ZM2715.62 1358.7C2716.66 1358.7 2717.52 1358.98 2718.2 1359.52 2718.87 1360.07 2719.21 1361.09 2719.21 1362.6 2719.21 1364.58 2718.8 1365.92 2717.96 1366.62 2717.13 1367.32 2716.24 1367.67 2715.3 1367.67 2714.26 1367.67 2713.4 1367.37 2712.72 1366.78 2712.04 1366.18 2711.71 1365.18 2711.71 1363.77 2711.71 1362.63 2711.86 1361.68 2712.18 1360.93 2712.49 1360.17 2712.94 1359.61 2713.54 1359.25 2714.14 1358.88 2714.83 1358.7 2715.62 1358.7ZM2246.4 1358.7C2247.44 1358.7 2248.3 1358.98 2248.98 1359.52 2249.66 1360.07 2250 1361.09 2250 1362.6 2250 1364.58 2249.58 1365.92 2248.75 1366.62 2247.91 1367.32 2247.03 1367.67 2246.09 1367.67 2245.04 1367.67 2244.18 1367.37 2243.51 1366.78 2242.83 1366.18 2242.49 1365.18 2242.49 1363.77 2242.49 1362.63 2242.65 1361.68 2242.96 1360.93 2243.27 1360.17 2243.73 1359.61 2244.33 1359.25 2244.93 1358.88 2245.62 1358.7 2246.4 1358.7ZM2494.9 1358 2509.68 1358 2500.61 1400.51C2500.51 1401.08 2500.35 1401.91 2500.14 1403.01 2499.93 1404.1 2499.75 1405.22 2499.59 1406.36 2499.44 1407.5 2499.36 1408.44 2499.36 1409.17 2499.36 1411.09 2499.62 1412.52 2500.14 1413.46 2500.66 1414.39 2501.6 1414.86 2502.96 1414.86 2503.84 1414.86 2504.76 1414.67 2505.69 1414.28 2506.63 1413.89 2507.6 1413.38 2508.59 1412.76L2508.98 1413.38C2508.25 1414.06 2507.31 1414.76 2506.16 1415.49 2505.02 1416.21 2503.78 1416.83 2502.45 1417.32 2501.12 1417.81 2499.8 1418.06 2498.5 1418.06 2496.41 1418.06 2494.81 1417.33 2493.69 1415.88 2492.57 1414.42 2492.01 1412.68 2492.01 1410.65 2492.01 1409.56 2492.11 1408.26 2492.32 1406.75 2492.53 1405.24 2492.76 1403.72 2493.03 1402.19 2493.29 1400.65 2493.52 1399.39 2493.73 1398.4L2500.69 1365.96C2500.85 1365.23 2500.96 1364.51 2501.04 1363.81 2501.12 1363.11 2501.16 1362.65 2501.16 1362.45 2501.16 1360.89 2500.62 1359.89 2499.56 1359.44 2498.49 1359 2497.2 1358.78 2495.68 1358.78L2494.75 1358.78ZM1677.03 1358 1691.42 1358 1688.37 1372.35C1688.11 1373.55 1687.79 1375.07 1687.39 1376.92 1687 1378.76 1686.57 1380.76 1686.1 1382.92 1685.64 1385.08 1685.17 1387.21 1684.7 1389.32 1684.23 1391.42 1683.81 1393.35 1683.45 1395.09 1683.08 1396.83 1682.79 1398.2 1682.58 1399.18L1698.69 1385.3C1700.94 1383.38 1702.45 1381.97 1703.23 1381.09 1704.01 1380.2 1704.4 1379.32 1704.4 1378.44 1704.4 1377.76 1703.95 1377.23 1703.04 1376.84 1702.12 1376.45 1700.28 1376.25 1697.52 1376.25L1697.68 1375.47 1714.96 1375.47 1714.8 1376.25C1712.72 1376.25 1710.58 1377.03 1708.39 1378.59 1706.2 1380.15 1703.73 1382.1 1700.96 1384.44L1692.9 1391.36 1701.51 1408C1702.5 1409.82 1703.32 1411.42 1703.97 1412.8 1704.63 1414.17 1705.34 1415.23 1706.12 1415.95 1706.91 1416.68 1707.9 1417.05 1709.1 1417.05L1708.94 1417.83 1708.39 1417.83C1705.58 1417.77 1703.32 1417.54 1701.63 1417.12 1699.93 1416.71 1698.55 1415.94 1697.48 1414.82 1696.41 1413.71 1695.36 1412.05 1694.32 1409.87L1687.6 1395.94 1682.35 1400.43 1678.83 1417.28 1671.56 1417.28 1682.27 1366.58C1682.53 1365.54 1682.72 1364.68 1682.82 1364.01 1682.92 1363.33 1682.98 1362.81 1682.98 1362.45 1682.98 1360.89 1682.44 1359.89 1681.37 1359.44 1680.3 1359 1679.01 1358.78 1677.5 1358.78L1676.88 1358.78Z" fill="#FFFFFF" fill-rule="evenodd"/>
    <g>
      <g>
        <g>
          <g>
            <path d="M642.74 638.847C642.136 638.421 641.007 637.591 640.238 637.957 639.611 638.257 638.917 639.887 638.599 640.524 638.599 640.524 635.703 647.2 635.703 647.2 631.805 657.081 629.795 670.757 636.926 679.691 636.926 679.691 632.822 674.331 632.822 674.331 631.267 672.982 626.699 670.593 624.708 669.642 622.688 668.686 620.739 667.613 618.598 666.934 610.671 664.423 604.309 665.144 596.78 668.377 597.797 673.788 599.694 675.854 600.561 678.824 598.612 679.185 595.412 680.914 593.875 682.165 593.191 682.718 592.156 683.622 592.489 684.615 592.746 685.393 594.63 686.737 595.323 687.309 598.443 689.876 600.631 691.385 604.051 693.498 609.148 696.646 616.317 699.41 622.379 699.42 625.092 699.424 626.385 699.34 629.069 698.717 629.069 698.717 632.56 697.682 632.56 697.682 630.826 698.412 629.472 699.04 627.612 699.495 626.08 699.87 625.059 699.706 623.541 700.497 622.473 701.055 620.51 702.592 619.47 703.374 611.702 709.193 607.542 716.708 607.542 726.401 607.542 726.401 612.198 727.188 612.198 727.188 612.198 727.188 618.303 727.563 618.303 727.563 618.303 727.563 618.041 730.753 618.041 730.753 617.928 732.726 618.561 735.827 619.179 737.715 621.559 737.345 627.692 734.347 629.941 733.072 637.09 729.024 643.274 724.592 647.168 717.12 647.758 715.991 648.4 713.981 648.704 712.781 649.182 711.137 649.566 707.056 649.74 706.527 649.74 706.527 649.543 709.474 649.449 712.112 649.379 714.29 649.435 716.248 649.435 716.248 649.44 722.184 652.902 728.893 657.001 733.072 659.808 735.944 662.609 737.917 666.306 739.496 667.093 739.828 669.234 740.69 670.026 740.419 670.785 740.151 671.16 738.98 671.474 738.296 672.326 736.446 673.694 732.73 673.868 730.753 676.627 731.175 677.531 732.159 681.143 732.206 681.856 732.21 683.584 732.36 683.983 731.742 684.4 731.241 684.025 729.099 683.983 728.434 683.983 728.434 682.118 719.729 682.118 719.729 682.118 719.729 680.577 715.087 680.577 715.087 678.3 708.884 675.198 703.172 669.796 699.101 665.556 695.906 664.268 696.351 661.944 695.067 666.058 695.897 667.337 697.302 669.796 697.902 675.325 699.242 683.313 698.033 688.415 695.573 692.481 693.615 695.381 691.615 698.281 688.105 698.928 687.328 700.591 685.318 700.647 684.334 700.699 683.317 699.593 682.582 698.89 682.015 697.026 680.525 694.491 678.609 692.195 677.953 694.121 674.538 696.178 672.247 696.271 668.086 696.271 668.086 687.543 667.22 687.543 667.22 687.543 667.22 680.562 667.22 680.562 667.22 674.514 667.224 666.32 669.487 661.359 672.954 658.238 675.133 657.521 676.28 655.249 679.11 655.249 679.11 656.819 676.791 656.819 676.791 657.896 675.446 659.194 674.594 659.99 673.02 661.251 670.522 662.174 666.521 662.563 663.734 663.846 654.514 662.417 646.207 656.997 638.496 653.333 639.54 650.691 642.459 647.688 644.586 646.657 642.492 644.661 640.182 642.74 638.847Z" stroke="#FFFFFF" stroke-width="10.7366" stroke-miterlimit="8" fill="#FFFFFF" fill-rule="evenodd" transform="matrix(1 0 0 1.00135 787.965 698.135)"/>
            <path d="M642.506 638.613C641.902 638.186 640.772 637.357 640.004 637.722 639.376 638.022 638.683 639.653 638.364 640.29 638.364 640.29 635.469 646.966 635.469 646.966 631.571 656.847 629.561 670.522 636.692 679.457 636.692 679.457 632.588 674.097 632.588 674.097 631.032 672.748 626.464 670.358 624.473 669.407 622.454 668.452 620.505 667.379 618.364 666.7 610.437 664.188 604.075 664.91 596.546 668.142 597.562 673.554 599.46 675.62 600.327 678.585 598.378 678.951 595.178 680.68 593.641 681.931 592.957 682.483 591.922 683.388 592.254 684.381 592.512 685.159 594.395 686.503 595.089 687.075 598.209 689.642 600.397 691.151 603.817 693.264 608.914 696.412 616.082 699.176 622.145 699.186 624.857 699.19 626.151 699.106 628.835 698.483 628.835 698.483 632.325 697.447 632.325 697.447 630.592 698.178 629.238 698.806 627.378 699.26 625.846 699.635 624.825 699.471 623.307 700.263 622.238 700.821 620.275 702.357 619.235 703.14 611.468 708.958 607.307 716.473 607.307 726.167 607.307 726.167 611.959 726.954 611.959 726.954 611.959 726.954 618.069 727.328 618.069 727.328 618.069 727.328 617.806 730.519 617.806 730.519 617.694 732.491 618.326 735.593 618.945 737.481 621.325 737.111 627.458 734.112 629.706 732.838 636.856 728.79 643.04 724.358 646.933 716.886 647.524 715.757 648.161 713.747 648.47 712.547 648.948 710.903 649.332 706.822 649.505 706.293 649.505 706.293 649.309 709.24 649.215 711.877 649.145 714.056 649.201 716.014 649.201 716.014 649.206 721.95 652.668 728.654 656.767 732.838 659.574 735.71 662.375 737.682 666.072 739.261 666.859 739.594 669 740.456 669.792 740.184 670.551 739.917 670.925 738.746 671.239 738.062 672.092 736.211 673.46 732.496 673.633 730.519 676.388 730.941 677.297 731.925 680.909 731.971 681.621 731.976 683.35 732.126 683.748 731.508 684.165 731.002 683.791 728.865 683.748 728.2 683.748 728.2 681.884 719.495 681.884 719.495 681.884 719.495 680.342 714.852 680.342 714.852 678.065 708.649 674.964 702.938 669.562 698.867 665.322 695.672 664.034 696.117 661.71 694.833 665.823 695.662 667.102 697.068 669.562 697.668 675.09 699.008 683.078 697.799 688.18 695.339 692.247 693.381 695.147 691.38 698.047 687.871 698.694 687.093 700.357 685.084 700.413 684.1 700.465 683.083 699.359 682.347 698.656 681.781 696.792 680.291 694.257 678.375 691.961 677.719 693.887 674.303 695.943 672.012 696.037 667.852 696.037 667.852 687.309 666.981 687.309 666.981 687.309 666.981 680.328 666.981 680.328 666.981 674.28 666.99 666.086 669.253 661.124 672.72 658.004 674.898 657.287 676.046 655.015 678.876 655.015 678.876 656.584 676.557 656.584 676.557 657.662 675.212 658.96 674.359 659.756 672.785 661.017 670.288 661.94 666.287 662.328 663.5 663.612 654.279 662.183 645.973 656.763 638.261 653.099 639.306 650.456 642.225 647.453 644.352 646.423 642.258 644.427 639.948 642.506 638.613Z" fill="#E27FAF" fill-rule="evenodd" transform="matrix(1 0 0 1.00135 787.965 698.135)"/>
          </g>
        </g>
      </g>
    </g>
    <g>
      <g>
        <g>
          <g>
            <path d="M642.74 638.847C642.136 638.421 641.007 637.591 640.238 637.957 639.611 638.257 638.917 639.887 638.599 640.524 638.599 640.524 635.703 647.2 635.703 647.2 631.805 657.081 629.795 670.757 636.926 679.691 636.926 679.691 632.822 674.331 632.822 674.331 631.267 672.982 626.699 670.593 624.708 669.642 622.688 668.686 620.739 667.613 618.598 666.934 610.671 664.423 604.309 665.144 596.78 668.377 597.797 673.788 599.694 675.854 600.561 678.824 598.612 679.185 595.412 680.914 593.875 682.165 593.191 682.718 592.156 683.622 592.489 684.615 592.746 685.393 594.63 686.737 595.323 687.309 598.443 689.876 600.631 691.385 604.051 693.498 609.148 696.646 616.317 699.41 622.379 699.42 625.092 699.424 626.385 699.34 629.069 698.717 629.069 698.717 632.56 697.682 632.56 697.682 630.826 698.412 629.472 699.04 627.612 699.495 626.08 699.87 625.059 699.706 623.541 700.497 622.473 701.055 620.51 702.592 619.47 703.374 611.702 709.193 607.542 716.708 607.542 726.401 607.542 726.401 612.198 727.188 612.198 727.188 612.198 727.188 618.303 727.563 618.303 727.563 618.303 727.563 618.041 730.753 618.041 730.753 617.928 732.726 618.561 735.827 619.179 737.715 621.559 737.345 627.692 734.347 629.941 733.072 637.09 729.024 643.274 724.592 647.168 717.12 647.758 715.991 648.4 713.981 648.704 712.781 649.182 711.137 649.566 707.056 649.74 706.527 649.74 706.527 649.543 709.474 649.449 712.112 649.379 714.29 649.435 716.248 649.435 716.248 649.44 722.184 652.902 728.893 657.001 733.072 659.808 735.944 662.609 737.917 666.306 739.496 667.093 739.828 669.234 740.69 670.026 740.419 670.785 740.151 671.16 738.98 671.474 738.296 672.326 736.446 673.694 732.73 673.868 730.753 676.627 731.175 677.531 732.159 681.143 732.206 681.856 732.21 683.584 732.36 683.983 731.742 684.4 731.241 684.025 729.099 683.983 728.434 683.983 728.434 682.118 719.729 682.118 719.729 682.118 719.729 680.577 715.087 680.577 715.087 678.3 708.884 675.198 703.172 669.796 699.101 665.556 695.906 664.268 696.351 661.944 695.067 666.058 695.897 667.337 697.302 669.796 697.902 675.325 699.242 683.313 698.033 688.415 695.573 692.481 693.615 695.381 691.615 698.281 688.105 698.928 687.328 700.591 685.318 700.647 684.334 700.699 683.317 699.593 682.582 698.89 682.015 697.026 680.525 694.491 678.609 692.195 677.953 694.121 674.538 696.178 672.247 696.271 668.086 696.271 668.086 687.543 667.22 687.543 667.22 687.543 667.22 680.562 667.22 680.562 667.22 674.514 667.224 666.32 669.487 661.359 672.954 658.238 675.133 657.521 676.28 655.249 679.11 655.249 679.11 656.819 676.791 656.819 676.791 657.896 675.446 659.194 674.594 659.99 673.02 661.251 670.522 662.174 666.521 662.563 663.734 663.846 654.514 662.417 646.207 656.997 638.496 653.333 639.54 650.691 642.459 647.688 644.586 646.657 642.492 644.661 640.182 642.74 638.847Z" stroke="#FFFFFF" stroke-width="10.7366" stroke-miterlimit="8" fill="#FFFFFF" fill-rule="evenodd" transform="matrix(1 0 0 1.00135 2318.96 698.135)"/>
            <path d="M642.506 638.613C641.902 638.186 640.772 637.357 640.004 637.722 639.376 638.022 638.683 639.653 638.364 640.29 638.364 640.29 635.469 646.966 635.469 646.966 631.571 656.847 629.561 670.522 636.692 679.457 636.692 679.457 632.588 674.097 632.588 674.097 631.032 672.748 626.464 670.358 624.473 669.407 622.454 668.452 620.505 667.379 618.364 666.7 610.437 664.188 604.075 664.91 596.546 668.142 597.562 673.554 599.46 675.62 600.327 678.585 598.378 678.951 595.178 680.68 593.641 681.931 592.957 682.483 591.922 683.388 592.254 684.381 592.512 685.159 594.395 686.503 595.089 687.075 598.209 689.642 600.397 691.151 603.817 693.264 608.914 696.412 616.082 699.176 622.145 699.186 624.857 699.19 626.151 699.106 628.835 698.483 628.835 698.483 632.325 697.447 632.325 697.447 630.592 698.178 629.238 698.806 627.378 699.26 625.846 699.635 624.825 699.471 623.307 700.263 622.238 700.821 620.275 702.357 619.235 703.14 611.468 708.958 607.307 716.473 607.307 726.167 607.307 726.167 611.959 726.954 611.959 726.954 611.959 726.954 618.069 727.328 618.069 727.328 618.069 727.328 617.806 730.519 617.806 730.519 617.694 732.491 618.326 735.593 618.945 737.481 621.325 737.111 627.458 734.112 629.706 732.838 636.856 728.79 643.04 724.358 646.933 716.886 647.524 715.757 648.161 713.747 648.47 712.547 648.948 710.903 649.332 706.822 649.505 706.293 649.505 706.293 649.309 709.24 649.215 711.877 649.145 714.056 649.201 716.014 649.201 716.014 649.206 721.95 652.668 728.654 656.767 732.838 659.574 735.71 662.375 737.682 666.072 739.261 666.859 739.594 669 740.456 669.792 740.184 670.551 739.917 670.925 738.746 671.239 738.062 672.092 736.211 673.46 732.496 673.633 730.519 676.388 730.941 677.297 731.925 680.909 731.971 681.621 731.976 683.35 732.126 683.748 731.508 684.165 731.002 683.791 728.865 683.748 728.2 683.748 728.2 681.884 719.495 681.884 719.495 681.884 719.495 680.342 714.852 680.342 714.852 678.065 708.649 674.964 702.938 669.562 698.867 665.322 695.672 664.034 696.117 661.71 694.833 665.823 695.662 667.102 697.068 669.562 697.668 675.09 699.008 683.078 697.799 688.18 695.339 692.247 693.381 695.147 691.38 698.047 687.871 698.694 687.093 700.357 685.084 700.413 684.1 700.465 683.083 699.359 682.347 698.656 681.781 696.792 680.291 694.257 678.375 691.961 677.719 693.887 674.303 695.943 672.012 696.037 667.852 696.037 667.852 687.309 666.981 687.309 666.981 687.309 666.981 680.328 666.981 680.328 666.981 674.28 666.99 666.086 669.253 661.124 672.72 658.004 674.898 657.287 676.046 655.015 678.876 655.015 678.876 656.584 676.557 656.584 676.557 657.662 675.212 658.96 674.359 659.756 672.785 661.017 670.288 661.94 666.287 662.328 663.5 663.612 654.279 662.183 645.973 656.763 638.261 653.099 639.306 650.456 642.225 647.453 644.352 646.423 642.258 644.427 639.948 642.506 638.613Z" fill="#E27FAF" fill-rule="evenodd" transform="matrix(1 0 0 1.00135 2318.96 698.135)"/>
          </g>
        </g>
      </g>
    </g>
  </g>
</svg>